<svg xmlns="http://www.w3.org/2000/svg" width="55" height="75" viewBox="0 0 55 75"><defs><style>.a{fill:#fab991;}.b{fill:#f0915a;}.c{fill:#555a6e;}</style></defs><g transform="translate(-80 -16)"><g transform="translate(80 49.75)"><path class="a" d="M125,235.75,112.5,232h-10L90,235.75a10,10,0,0,0-10,10v27.5h55v-27.5A10,10,0,0,0,125,235.75Z" transform="translate(-80 -232)"/></g><g transform="translate(95 16)"><path class="a" d="M193.5,46h-10a7.5,7.5,0,0,1-7.5-7.5v-15a7.5,7.5,0,0,1,7.5-7.5h10a7.5,7.5,0,0,1,7.5,7.5v15A7.5,7.5,0,0,1,193.5,46Z" transform="translate(-176 -16)"/></g><g transform="translate(120 29.75)"><path class="b" d="M336,111.5V104a3.75,3.75,0,1,1,0,7.5Z" transform="translate(-336 -104)"/></g><g transform="translate(125 64.75)"><path class="b" d="M368,328v26.25h2.5V330.5A2.5,2.5,0,0,0,368,328Z" transform="translate(-368 -328)"/></g><g transform="translate(87.5 64.75)"><path class="b" d="M130.5,328v26.25H128V330.5A2.5,2.5,0,0,1,130.5,328Z" transform="translate(-128 -328)"/></g><g transform="translate(111.25 29.75)"><ellipse class="c" cx="1.5" cy="1" rx="1.5" ry="1" transform="translate(-0.25 0.25)"/></g><g transform="translate(91.25 29.75)"><path class="b" d="M155.75,111.5V104a3.75,3.75,0,1,0,0,7.5Z" transform="translate(-152 -104)"/></g><g transform="translate(95 16)"><path class="c" d="M193.5,16h-10a7.5,7.5,0,0,0-7.5,7.5V31a2.5,2.5,0,0,0,2.5-2.5V26a5,5,0,0,1,5-5h10a5,5,0,0,1,5,5v2.5A2.5,2.5,0,0,0,201,31V23.5A7.5,7.5,0,0,0,193.5,16Z" transform="translate(-176 -16)"/></g><g transform="translate(101.25 29.75)"><ellipse class="c" cx="1.5" cy="1" rx="1.5" ry="1" transform="translate(-0.25 0.25)"/></g><g transform="translate(103.75 39.75)"><path class="c" d="M232,168a1.25,1.25,0,0,0,1.25,1.25h5A1.25,1.25,0,0,0,239.5,168Z" transform="translate(-232 -168)"/></g><g transform="translate(106.25 33.917)"><path class="b" d="M249.25,130.667a1.25,1.25,0,0,0-1.25,1.25v.833a1.25,1.25,0,0,0,2.5,0v-.833A1.25,1.25,0,0,0,249.25,130.667Z" transform="translate(-248 -130.667)"/></g><g transform="translate(90 72.25)"><path class="b" d="M174,381h-7.5a5,5,0,0,1-5-5,5,5,0,0,1-5,5H149a5,5,0,0,1-5-5v5a2.5,2.5,0,0,0,2.5,2.5H159a2.5,2.5,0,0,0,2.5-2.5,2.5,2.5,0,0,0,2.5,2.5h12.5A2.5,2.5,0,0,0,179,381v-5A5,5,0,0,1,174,381Z" transform="translate(-144 -376)"/></g><g transform="translate(95 80.583)"><path class="b" d="M197.667,434.333H193.5a5,5,0,0,1-5-5,5,5,0,0,1-5,5h-4.167A3.333,3.333,0,0,1,176,431v3.333a2.5,2.5,0,0,0,2.5,2.5H186a2.5,2.5,0,0,0,2.5-2.5,2.5,2.5,0,0,0,2.5,2.5h7.5a2.5,2.5,0,0,0,2.5-2.5V431A3.333,3.333,0,0,1,197.667,434.333Z" transform="translate(-176 -429.333)"/></g><g transform="translate(90 46)"><path class="b" d="M166.5,211.75V208h-10v3.75L144,215.5h12.5a5,5,0,0,1,5,5,5,5,0,0,1,5-5H179Z" transform="translate(-144 -208)"/></g><g transform="translate(93.75 71)"><ellipse class="b" cx="1" cy="1.5" rx="1" ry="1.5" transform="translate(0.25 0)"/></g><g transform="translate(118.75 71)"><ellipse class="b" cx="1" cy="1.5" rx="1" ry="1.5" transform="translate(0.25 0)"/></g></g></svg>