<svg xmlns="http://www.w3.org/2000/svg" width="80.91" height="78.227" viewBox="0 0 80.91 78.227"><defs><style>.a{fill:#3397e8;}.b{fill:#ffb632;}.c{fill:#e9eef2;}.d{fill:#35a872;}.e{fill:#eb423f;}.f{fill:#95573a;}.g{fill:#a36f58;}.h{fill:#ad6643;}.i{fill:#7a4830;}</style></defs><g transform="translate(-16.09 -24)"><path class="a" d="M328,224h18.883v18.882H328Z" transform="translate(-259.324 -166.281)"/><path class="b" d="M384,336h18.882v18.882H384Z" transform="translate(-305.882 -259.399)"/><circle class="c" cx="4.046" cy="4.046" r="4.046" transform="translate(74.071 63.114)"/><path class="d" d="M272,336h18.882v18.882H272Z" transform="translate(-212.765 -259.399)"/><path class="c" d="M304,368h8.092v8.092H304Z" transform="translate(-239.37 -286.004)"/><path class="e" d="M346.883,157.487H328L337.441,144Z" transform="translate(-259.324 -99.769)"/><path class="c" d="M424.092,376.092H416L420.046,368Z" transform="translate(-332.487 -286.004)"/><path class="f" d="M22.819,250.975a6.744,6.744,0,0,1-6.729-6.293q.03-.95.13-1.852C17.626,229.857,29.1,224,43.05,224s25.424,5.857,26.83,18.83q.1.9.13,1.851a6.745,6.745,0,0,1-6.729,6.294Z" transform="translate(0 -166.281)"/><ellipse class="g" cx="13.487" cy="18.882" rx="13.487" ry="18.882" transform="translate(29.563 61.765)"/><circle class="f" cx="8.092" cy="8.092" r="8.092" transform="translate(51.143 24)"/><circle class="f" cx="8.092" cy="8.092" r="8.092" transform="translate(18.773 24)"/><ellipse class="h" cx="20.231" cy="18.882" rx="20.231" ry="18.882" transform="translate(22.819 28.046)"/><g transform="translate(20.121 42.882)"><path class="i" d="M122.79,190.116c-5.95,0-10.79-3.933-10.79-8.767a1.349,1.349,0,1,1,2.7,0c0,3.347,3.63,6.069,8.092,6.069s8.092-2.723,8.092-6.069a1.349,1.349,0,1,1,2.7,0C133.58,186.183,128.74,190.116,122.79,190.116Z" transform="translate(-99.861 -172.582)"/><circle class="i" cx="1.349" cy="1.349" r="1.349" transform="translate(29.672 0)"/><circle class="i" cx="1.349" cy="1.349" r="1.349" transform="translate(13.487 0)"/><path class="i" d="M169.349,178.79A1.349,1.349,0,0,1,168,177.441v-8.092a1.349,1.349,0,1,1,2.7,0v8.092A1.349,1.349,0,0,1,169.349,178.79Z" transform="translate(-146.42 -162.605)"/><ellipse class="i" cx="9.441" cy="10.79" rx="9.441" ry="10.79" transform="translate(0 37.765)"/><ellipse class="i" cx="9.441" cy="10.79" rx="9.441" ry="10.79" transform="translate(26.975 37.765)"/><path class="i" d="M159.31,163.446l-2.289,1.633a1.661,1.661,0,0,1-1.949,0l-2.289-1.633a1.92,1.92,0,0,1-.782-1.565A1.823,1.823,0,0,1,153.757,160h4.578a1.823,1.823,0,0,1,1.757,1.881A1.92,1.92,0,0,1,159.31,163.446Z" transform="translate(-133.117 -155.954)"/></g></g></svg>