<svg xmlns="http://www.w3.org/2000/svg" width="85.902" height="99" viewBox="0 0 85.902 99"><defs><style>.a{fill:#96cd82;}.b{fill:#7dbe81;}.c{fill:#b4e6a0;}.d{fill:#cdf5a0;}</style></defs><g transform="translate(0 0)"><path class="a" d="M8.475,152.665c-8.858,4.12-11.139,17.991-5.1,30.982C8.266,194.153,17.1,200.865,24.986,200.87a9.356,9.356,0,0,1,8.446,5.445,9.357,9.357,0,0,1,1.276-9.968c5.076-6.035,5.633-17.116.746-27.622-6.042-12.991-18.122-20.182-26.98-16.061Zm0,0" transform="translate(0 -122.209)"/><path class="b" d="M29.856,252.147c-.045-.084-.066-.171-.109-.256-8.144.245-17.688-5.716-23.867-15.772A36.8,36.8,0,0,1,.373,219.683a32.839,32.839,0,0,0,3.015,18.961c4.887,10.506,13.722,17.218,21.607,17.223a9.357,9.357,0,0,1,8.446,5.445,9.383,9.383,0,0,1-.845-3.341c-.881-1.956-1.727-3.931-2.74-5.823Zm0,0" transform="translate(-0.009 -177.206)"/><path class="a" d="M241.205,80.5c-10.613-4.829-24.958,3.873-32.041,19.438-5.728,12.587-4.953,25.807,1.165,32.959a11.167,11.167,0,0,1,1.622,11.884,11.169,11.169,0,0,1,10.026-6.583c9.412-.084,19.889-8.183,25.618-20.77,7.083-15.565,4.222-32.1-6.39-36.928Zm0,0" transform="translate(-165.583 -63.863)"/><path class="b" d="M205.409,264.438c-.336,5.962.81,11.418,3.308,15.546.092.153.185.3.281.452a17.406,17.406,0,0,0,1.394,1.909c.006.008.545.706.781,1.063.217.337.416.684.6,1.037a11.21,11.21,0,0,1,.242,9.784,11.258,11.258,0,0,1,.826-1.477l9.6-21.892Zm0,0" transform="translate(-165.645 -213.307)"/><path class="c" d="M292.354,253.519a1.572,1.572,0,0,1-.556-3.042l18.913-7.141a1.572,1.572,0,0,1,1.111,2.94l-18.913,7.141a1.579,1.579,0,0,1-.555.1Zm0,0" transform="translate(-234.557 -196.204)"/><path class="d" d="M194.949,210.871a1.572,1.572,0,0,1-1.431-2.219l31.2-69.04a1.571,1.571,0,1,1,2.863,1.295l-31.195,69.041a1.574,1.574,0,0,1-1.434.924Zm0,0" transform="translate(-155.987 -111.871)"/><path class="c" d="M112.053,314.375a1.575,1.575,0,0,1-1.435-.927L90.746,269.22a1.572,1.572,0,1,1,2.866-1.289l19.871,44.229a1.571,1.571,0,0,1-1.431,2.216Zm0,0" transform="translate(-73.088 -215.375)"/><path class="c" d="M63.451,299.737a1.555,1.555,0,0,1-.571-.108l-12.077-4.7A1.571,1.571,0,0,1,51.945,292l12.077,4.7a1.571,1.571,0,0,1-.57,3.036Zm0,0" transform="translate(-40.173 -235.451)"/><path class="a" d="M103.177,78.853a12.469,12.469,0,0,1,7.144-11.327c9.526-4.438,16.427-17.514,16.427-32.955C126.749,15.478,116.2,0,103.177,0S79.606,15.478,79.606,34.571c0,15.441,6.9,28.517,16.426,32.955a12.469,12.469,0,0,1,7.144,11.327Zm0,0" transform="translate(-64.213)"/><path class="b" d="M103.332,88.315C94.7,83.757,87.444,72.509,85.181,58.505c-1.977-12.23.335-23.689,5.45-31.083-6.614,6.123-11.026,16.95-11.026,29.269,0,15.441,6.9,28.517,16.426,32.955a12.469,12.469,0,0,1,7.144,11.327,12.676,12.676,0,0,1,.156-1.884Zm0,0" transform="translate(-64.213 -22.12)"/><g transform="translate(18.613 23.571)"><path class="c" d="M116.613,225.5a1.568,1.568,0,0,1-1.111-.461L96.723,206.262a1.571,1.571,0,0,1,2.221-2.222l18.779,18.778a1.572,1.572,0,0,1-1.111,2.683Zm0,0" transform="translate(-96.263 -187.786)"/><path class="c" d="M194.952,173.269a1.572,1.572,0,0,1-1.111-2.683l15.714-15.714a1.571,1.571,0,0,1,2.222,2.222l-15.714,15.714A1.565,1.565,0,0,1,194.952,173.269Zm0,0" transform="translate(-174.602 -148.126)"/><path class="c" d="M149.064,136.046a1.567,1.567,0,0,1-1.111-.46l-11-11a1.571,1.571,0,1,1,2.222-2.222l11,11a1.571,1.571,0,0,1-1.111,2.682Zm0,0" transform="translate(-128.714 -121.903)"/></g><path class="d" d="M194.951,151.444a1.571,1.571,0,0,1-1.572-1.572V66.587a1.571,1.571,0,1,1,3.143,0v83.285A1.571,1.571,0,0,1,194.951,151.444Zm0,0" transform="translate(-155.987 -52.444)"/></g></svg>