<svg xmlns="http://www.w3.org/2000/svg" width="86.086" height="66.496" viewBox="0 0 86.086 66.496"><defs><style>.a{fill:#e95353;}.b{fill:#168de2;}.c{fill:#fff;}.d{fill:#ffe21f;}.e{fill:#454545;}.f{fill:#ed6262;}.g{fill:#ffbd49;}.h{fill:#ffdb6f;}.i{fill:#6f6f6f;}.j{fill:#777;}.k{fill:#3aa2eb;}</style></defs><g transform="translate(0 -56.49)"><path class="a" d="M90.473,93.447a12.608,12.608,0,0,0-2.636-7.035,21.675,21.675,0,0,1-4.2-8.219,100.488,100.488,0,0,0-7.024-15.125,12.129,12.129,0,0,0-8.889-5.857c-7.449-.963-30.731-.963-38.18,0a12.145,12.145,0,0,0-8.886,5.857,100.769,100.769,0,0,0-7.024,15.125,21.675,21.675,0,0,1-4.2,8.219,12.605,12.605,0,0,0-2.634,7.035c-.266,5.545,1.34,6.763,2.776,19.311a1.951,1.951,0,0,0,1.942,1.73H85.758a1.954,1.954,0,0,0,1.942-1.73c.4-3.519,1.6-10.656,1.6-10.656A26.132,26.132,0,0,0,90.473,93.447Z" transform="translate(-5.59)"/><path class="b" d="M122.157,84.336a108.217,108.217,0,0,0-6.613-14.011,10.941,10.941,0,0,0-7.9-5.313c-7.465-.99-30.427-.982-37.838,0a10.941,10.941,0,0,0-7.9,5.313,110.113,110.113,0,0,0-6.639,14.011A426.569,426.569,0,0,0,122.157,84.336Z" transform="translate(-45.678 -6.433)"/><path class="c" d="M378.56,215.293a12.29,12.29,0,0,0-2.3,1.012,28.311,28.311,0,0,1-3.734,1.789c-2.141.813-2.5,2.026-2.5,2.026-.065.083-.126.167-.186.253a3.423,3.423,0,0,0,3.39,5.216,41.354,41.354,0,0,0,9.343-2.5,3.349,3.349,0,0,0,2.034-2.281c.024-.1.046-.2.065-.3A4.7,4.7,0,0,0,378.56,215.293Z" transform="translate(-305.241 -131.085)"/><path class="d" d="M422.685,327.857H418.05a.784.784,0,0,0-.554,1.337l4.635,4.635a.784.784,0,0,0,1.337-.554V328.64A.782.782,0,0,0,422.685,327.857Z" transform="translate(-344.914 -224.314)"/><path class="e" d="M421.76,336.667a1.956,1.956,0,0,1-1.945,1.735H410.9v5.176a3.32,3.32,0,0,0,3.32,3.32h5.6a3.32,3.32,0,0,0,3.32-3.32v-16.2C422.769,329.619,422.054,334.1,421.76,336.667Z" transform="translate(-339.65 -223.915)"/><path class="f" d="M454.836,149.439a2.673,2.673,0,0,0-2.636-2.023h-2.238a2.6,2.6,0,0,0-2.6,2.6v1.6h-1.186l.681,1.617h2.61a9.4,9.4,0,0,0,3.914-.853A2.594,2.594,0,0,0,454.836,149.439Z" transform="translate(-368.814 -75.16)"/><circle class="g" cx="3.263" cy="3.263" r="3.263" transform="translate(71.524 85.126)"/><circle class="h" cx="2.397" cy="2.397" r="2.397" transform="translate(65.826 88.567)"/><path class="i" d="M176.777,255.324l-3.748,6.526H142.587l-3.748-6.526Z" transform="translate(-114.765 -164.358)"/><path class="c" d="M52.857,220.368c-.057-.086-.118-.169-.186-.253,0,0-.363-1.213-2.5-2.026a28.468,28.468,0,0,1-3.734-1.789,12.367,12.367,0,0,0-2.3-1.012,4.705,4.705,0,0,0-6.107,5.222c.019.1.04.2.062.3a3.349,3.349,0,0,0,2.034,2.281,41.34,41.34,0,0,0,9.346,2.5A3.424,3.424,0,0,0,52.857,220.368Z" transform="translate(-31.366 -131.08)"/><path class="d" d="M48.854,327.857H44.219a.782.782,0,0,0-.783.783v4.635a.784.784,0,0,0,1.337.554l4.635-4.635A.784.784,0,0,0,48.854,327.857Z" transform="translate(-35.905 -224.314)"/><path class="j" d="M92.189,335.942c-4.826-8.35-10.376-8.09-10.376-8.09H40.838s-5.547-.261-10.376,8.09H22.119l.1,1.076a1.957,1.957,0,0,0,1.95,1.778h74.31a1.957,1.957,0,0,0,1.951-1.778l.1-1.076Z" transform="translate(-18.284 -224.31)"/><path class="e" d="M18.3,338.419a1.958,1.958,0,0,1-1.945-1.735c-.293-2.564-1.012-7.051-1.377-9.292v16.2a3.32,3.32,0,0,0,3.32,3.32h5.6a3.32,3.32,0,0,0,3.32-3.32v-5.176H18.3Z" transform="translate(-12.384 -223.93)"/><path class="f" d="M7.531,151.607v-1.6a2.6,2.6,0,0,0-2.593-2.6H2.7a2.674,2.674,0,0,0-2.636,2.023,2.594,2.594,0,0,0,1.453,2.93,9.408,9.408,0,0,0,3.914.853H8.04L8.72,151.6H7.531v0Z" transform="translate(0 -75.16)"/><circle class="g" cx="3.263" cy="3.263" r="3.263" transform="translate(8.032 85.126)"/><circle class="h" cx="2.397" cy="2.397" r="2.397" transform="translate(15.468 88.567)"/><g transform="translate(24.711 105.827)"><path class="i" d="M178.2,341.029H143.5a.982.982,0,0,0,0,1.964h34.7a.982.982,0,0,0,0-1.964Z" transform="translate(-142.516 -341.029)"/><path class="i" d="M178.2,363.635H143.5a.982.982,0,0,0,0,1.964h34.7a.982.982,0,0,0,0-1.964Z" transform="translate(-142.516 -359.715)"/></g><path class="k" d="M118.509,91.843v.336a2.376,2.376,0,0,1-2.491,2.381,2.485,2.485,0,0,1-2.246-2.518V87.216a1.992,1.992,0,0,0-2.085-1.975h-.081a2,2,0,0,0-2.085,1.975v4.366A2.377,2.377,0,0,1,107,93.936a2.46,2.46,0,0,1-2.246-2.491v-3.8a2.108,2.108,0,0,0-2.112-2.085h-.161a1.988,1.988,0,0,0-1.977,1.977v4.937a2.4,2.4,0,0,1-2.518,2.381,2.463,2.463,0,0,1-2.219-2.518V85.723a1.888,1.888,0,0,0-2-1.867H93.6a1.991,1.991,0,0,0-2,1.977V92.6a2.368,2.368,0,0,1-4.735.081V87a2.487,2.487,0,0,0-2.246-2.518,2.378,2.378,0,0,0-2.491,2.381L82.1,92.11a2.376,2.376,0,0,1-2.491,2.381,2.465,2.465,0,0,1-2.233-2.419V85.916a2.465,2.465,0,0,0-2.238-2.5,2.382,2.382,0,0,0-2.5,2.375v6.449a2.4,2.4,0,0,1-2.5,2.319,2.463,2.463,0,0,1-2.219-2.518V87.216A2.015,2.015,0,0,0,65.8,85.241H65.75a2,2,0,0,0-2.112,1.975v4.366a2.354,2.354,0,0,1-2.491,2.354,2.408,2.408,0,0,1-2.206-2.171c-1.251,2.591-2.491,5.4-3.7,8.394a425.9,425.9,0,0,0,66.9,0Q120.343,95.651,118.509,91.843Z" transform="translate(-45.666 -22.259)"/></g></svg>