<svg xmlns="http://www.w3.org/2000/svg" width="91.997" height="55.761" viewBox="0 0 91.997 55.761"><defs><style>.a{fill:#2f3f4a;}.b{fill:#e1e9f2;}.c{fill:#b3d2f2;}.d{fill:#3f5666;}</style></defs><g transform="translate(0.001 -100.832)"><g transform="translate(15.944 100.832)"><path class="a" d="M395.261,105.581s2.009-6.027,6.133-4.5c2.4.887,3.571,3.168,1.1,6.442a.785.785,0,0,1-.57.313l-6.537.455a.774.774,0,0,1-.775-1.055Z" transform="translate(-339.608 -100.832)"/><path class="a" d="M88.739,318.275l1.19,14.372a.81.81,0,0,0,.808.742h12.85a.955.955,0,0,0,.955-.91l.037-.814a2.5,2.5,0,0,0-.884-2.022l-1.907-1.611a2.5,2.5,0,0,1-.835-2.412l1.914-9.267Z" transform="translate(-88.739 -277.628)"/><path class="a" d="M240.037,282.958,234.585,298.2a.808.808,0,0,0,.36.973l3.1,1.776a.809.809,0,0,1,.4.641l.208,2.79a.81.81,0,0,1-.809.869H225.929a.81.81,0,0,1-.807-.893l2.34-22.307Z" transform="translate(-200.613 -249.487)"/></g><path class="b" d="M88.184,152.622A49.542,49.542,0,0,1,77.6,151.363a.153.153,0,0,0-.131.029l-5.975,4.733a.155.155,0,0,0-.057.141l1.9,14.646a.8.8,0,0,0,.42.609l3.906,2.093a.808.808,0,0,1,.424.641l.294,3.25a.812.812,0,0,1-.809.882H66.633a.812.812,0,0,1-.775-.564l-4.791-15.031a.154.154,0,0,0-.047-.07l-3.851-3.307a.052.052,0,0,0-.057-.007c-8.506,4.256-13.23,9.961-22.708,9.024l-25.8-2.554a.155.155,0,0,1-.139-.154V151.793a22.665,22.665,0,0,1,22.7-22.635H72.324a.153.153,0,0,0,.058-.011c.544-.223,9.094-3.636,15.666-.264a.178.178,0,0,1,.044.032,14.946,14.946,0,0,1,4.134,9.017.147.147,0,0,0,.056.107c2.455,1.931,7.335,5.349,6.584,9.145a.161.161,0,0,1-.049.086l-2.2,2.026a12.59,12.59,0,0,1-8.43,3.327" transform="translate(-6.948 -21.796)"/><path class="c" d="M22.862,145.873a25.568,25.568,0,0,0-5.857,7.675,28.838,28.838,0,0,0-2.746,8.707,30.56,30.56,0,0,0-.333,4.513v14.788l-2.547-.252-2.907-.289V166.944a22.592,22.592,0,0,1,.666-5.464.053.053,0,0,0,0-.013,22.4,22.4,0,0,1,2.02-5.222c.058-.106.116-.213.174-.318.019-.033.039-.068.056-.1.054-.093.109-.186.163-.277l0,0A22.76,22.76,0,0,1,22.862,145.873Z" transform="translate(-6.95 -36.948)"/><path class="d" d="M281.429,185.521a.812.812,0,0,1-.809.882H269.688a.812.812,0,0,1-.775-.564l-4.738-14.863a.773.773,0,0,0-.233-.352l-3.726-3.2a.045.045,0,0,1-.016-.038c.373-5.131-1.935-23.99-4.2-30.214h15.688c-2.972,13.285,1.731,17.437,2.79,27.023l1.906,14.733a.8.8,0,0,0,.42.609l3.906,2.093a.808.808,0,0,1,.424.641Z" transform="translate(-210.003 -29.81)"/><path class="a" d="M293.346,325.022l-4.491-14.088a3.643,3.643,0,0,0-1.1-1.657l-1.524-1.309a4.665,4.665,0,0,0-3.039-1.126h-2.21l3.453,2.965a.775.775,0,0,1,.233.352l4.738,14.863a.812.812,0,0,0,.775.564h3.938A.812.812,0,0,1,293.346,325.022Z" transform="translate(-230.497 -168.994)"/><g transform="translate(-0.001 111.57)"><path class="d" d="M432.479,161.8a1.524,1.524,0,0,0-1.931-1.167c-2.5.554-6.72,2.36-6.159,8.23.793,8.283,5.89,1.714,7.306-1.047A12.291,12.291,0,0,0,432.479,161.8Z" transform="translate(-348.092 -160.592)"/><path class="d" d="M4.6,189.349c-5,8.374-4.6,25.4-4.6,25.4v11.78a.809.809,0,0,0,.809.809H14.08a1.393,1.393,0,0,0,1.391-1.467l-.066-1.237a2.14,2.14,0,0,0-.975-1.683h0a2.142,2.142,0,0,1-.769-2.724l.673-1.406s7.27-10.388,11.225-12.04a2.528,2.528,0,0,0,1.489-1.688c.56-2.153.852-6.52-3.216-12.06C15.944,182.295,4.6,189.349,4.6,189.349Z" transform="translate(0.001 -182.316)"/></g><path class="a" d="M4.43,216.344v11.427a.809.809,0,0,0,.808.809H.818a.809.809,0,0,1-.81-.809v-11.78s-.252-10.839,2.181-19.472a.053.053,0,0,0,0-.013,26.464,26.464,0,0,1,2.02-5.222c.058-.106.116-.213.174-.317.019-.033.039-.068.056-.1.054-.093.109-.186.163-.277a17.434,17.434,0,0,1,5.45-2c-1.333,2.643-5.626,15.377-5.626,27.4v.352h0Z" transform="translate(-0.001 -71.987)"/><path class="d" d="M374.09,110.446s.516-6.331,4.885-5.825c2.541.294,4.223,2.232,2.6,6a.784.784,0,0,1-.48.44l-6.242,1.991a.775.775,0,0,1-1-.841Z" transform="translate(-306.672 -3.084)"/></g></svg>