<svg viewBox="0 0 797.70972 316.50202" xmlns="http://www.w3.org/2000/svg">
  <title>Layer box near table</title>
  <g>
    <path
      fill="#b46f3d"
      d="M 42.951,21.914 H 450.834 V 82.677 H 42.951 Z"/>
    <path
      fill="#ab6839"
      d="m 390.834,21.914 h 60 v 60.763 h -60 z"/>
    <path
      fill="#d68b56"
      d="M 55.825,316.502 H 30.077 c -3.314,0 -6,-2.686 -6,-6 V 43.828 l 18.874,-10 18.874,10 v 266.674 c 0,3.314 -2.687,6 -6,6 z"/>
    <path
      fill="#ca7b44"
      d="M 463.707,316.502 H 437.96 c -3.314,0 -6,-2.686 -6,-6 V 43.828 l 18.874,-10 18.874,10 v 266.674 c -0.001,3.314 -2.687,6 -6.001,6 z"/>
    <path
      fill="#e0a57f"
      d="m 491,43.828 h -21.293 l -8.128,-0.015 -0.5,0.015 H 6 c -3.314,0 -6,-2.686 -6,-6 V 6 C 0,2.686 2.686,0 6,0 h 485 c 3.314,0 6,2.686 6,6 v 31.827 c 0,3.314 -2.686,6.001 -6,6.001 z"/>
    <path
      fill="#d68b56"
      d="m 491,0 h -30 c 3.314,0 6,2.686 6,6 v 31.827 c 0,3.314 -2.686,6 -6,6 h 30 c 3.314,0 6,-2.686 6,-6 V 6 c 0,-3.314 -2.686,-6 -6,-6 z"/>
  </g>
  <g transform="matrix(0.66950208,0,0,0.66950208,477.41995,85.38523)">
    <path
      fill="#926e43"
      d="M 238,2.8 V 337.6 L 56,266 V 150 l 97.2,-1.6 z m 0,-2 v 0 L 56,57.2 Z"/>
    <polygon
      fill="#d9ac80"
      points="0,151.2 153.2,148.8 239.2,0.80000305 56,57.199997 "/>
    <polygon
      fill="#a67e4f"
      points="239.60001,1.1999969 238,0.80000305 238,337.60001 420,266 420,150 325.20001,148.8 "/>
    <polygon
      fill="#d9ac80"
      points="478.39999,151.2 325.20001,148.8 239.2,0.80000305 422.39999,57.199997 "/>
  </g>
</svg>
