<?xml version="1.0" encoding="UTF-8" standalone="no"?>
<svg
   xmlns:dc="http://purl.org/dc/elements/1.1/"
   xmlns:cc="http://creativecommons.org/ns#"
   xmlns:rdf="http://www.w3.org/1999/02/22-rdf-syntax-ns#"
   xmlns:svg="http://www.w3.org/2000/svg"
   xmlns="http://www.w3.org/2000/svg"
   viewBox="0 0 105.06593 58"
   version="1.1"
   id="svg481"
   width="105.06593"
   height="58">
  <metadata
     id="metadata487">
    <rdf:RDF>
      <cc:Work
         rdf:about="">
        <dc:format>image/svg+xml</dc:format>
        <dc:type
           rdf:resource="http://purl.org/dc/dcmitype/StillImage" />
        <dc:title>Layer closet</dc:title>
      </cc:Work>
    </rdf:RDF>
  </metadata>
  <defs
     id="defs485" />
  <title
     id="title444">Layer closet</title>
  <style
     type="text/css"
     id="style446">
    .st0{fill:#847059;}
    .st1{fill:#665646;}
    .st2{fill:#54473B;}
    .st3{fill:#9E8771;}
    .st4{fill:#AF9680;}
    .st5{fill:none;stroke:#382016;stroke-width:2;stroke-miterlimit:10;}
    .st6{fill:none;stroke:#E0E1E2;stroke-width:2;stroke-linecap:round;stroke-miterlimit:10;}
  </style>
  <g
     id="g_closet1">
    <rect
       x="12"
       y="1"
       class="st0"
       width="34"
       height="54"
       id="rect448" />
    <polygon
       class="st0"
       points="7,1 0,1 0,58 3,58 3,55 3,3 "
       id="polygon450" />
    <polygon
       class="st0"
       points="51,1 55,3 55,55 55,58 58,58 58,1 "
       id="polygon452" />
    <rect
       x="12"
       y="4"
       class="st1"
       width="17"
       height="48"
       id="rect454" />
    <rect
       x="29"
       y="4"
       class="st2"
       width="17"
       height="48"
       id="rect456" />
    <polygon
       class="st3"
       points="3,3 9,0 9,58 3,55 "
       id="polygon458" />
    <rect
       x="9"
       class="st4"
       width="3"
       height="58"
       id="rect460"
       y="0" />
    <polygon
       class="st3"
       points="55,3 49,0 49,58 55,55 "
       id="polygon462" />
    <rect
       x="46"
       class="st4"
       width="3"
       height="58"
       id="rect464"
       y="0" />
    <path
       class="st5"
       d="M 29,19"
       id="path466" />
    <path
       class="st5"
       d="M 12,19"
       id="path468" />
    <path
       class="st6"
       d="M 43,12"
       id="path470" />
    <path
       class="st6"
       d="M 32,12"
       id="path472" />
    <polygon
       class="st2"
       points="30.1,15 12,14 12,4 29,4 "
       id="polygon474" />
    <rect
       x="12"
       y="43"
       class="st3"
       width="34"
       height="2"
       id="rect476" />
    <line
       class="st3"
       x1="46"
       y1="13"
       x2="46"
       y2="15"
       id="line478" />
  </g>
  <g
     id="g_box1"
     transform="matrix(0.09548528,0,0,0.09548528,59.385772,25.171782)">
    <path
       id="svg_box2"
       fill="#926e43"
       d="M 238,2.8 V 337.6 L 56,266 V 150 l 97.2,-1.6 z m 0,-2 v 0 L 56,57.2 Z" />
    <polygon
       id="svg_box3"
       fill="#d9ac80"
       points="239.2,0.80000305 56,57.199997 0,151.2 153.2,148.8 " />
    <polygon
       id="svg_box4"
       fill="#a67e4f"
       points="239.60001,1.1999969 238,0.80000305 238,337.60001 420,266 420,150 325.20001,148.8 " />
    <polygon
       id="svg_box5"
       fill="#d9ac80"
       points="239.2,0.80000305 422.39999,57.199997 478.39999,151.2 325.20001,148.8 " />
  </g>
</svg>
