<svg viewBox="0 0 57.999998 58" xmlns="http://www.w3.org/2000/svg">
  <title>Layer box in closet</title>
  <style type="text/css">
    .st0{fill:#847059;}
    .st1{fill:#665646;}
    .st2{fill:#54473B;}
    .st3{fill:#9E8771;}
    .st4{fill:#AF9680;}
    .st5{fill:none;stroke:#382016;stroke-width:2;stroke-miterlimit:10;}
    .st6{fill:none;stroke:#E0E1E2;stroke-width:2;stroke-linecap:round;stroke-miterlimit:10;}
  </style>
  <g>
    <rect
      x="12"
      y="1"
      class="st0"
      width="34"
      height="54"/>
    <polygon
      class="st0"
      points="7,1 0,1 0,58 3,58 3,55 3,3 "/>
    <polygon
      class="st0"
      points="51,1 55,3 55,55 55,58 58,58 58,1 "/>
    <rect
      x="12"
      y="4"
      class="st1"
      width="17"
      height="48"/>
    <rect
      x="29"
      y="4"
      class="st2"
      width="17"
      height="48"/>
    <polygon
      class="st3"
      points="9,58 3,55 3,3 9,0 "/>
    <rect
      x="9"
      class="st4"
      width="3"
      height="58"
      y="0"/>
    <polygon
      class="st3"
      points="49,58 55,55 55,3 49,0 "/>
    <rect
      x="46"
      class="st4"
      width="3"
      height="58"
      y="0"/>
    <path
      class="st5"
      d="M 29,19"/>
    <path
      class="st5"
      d="M 12,19"/>
    <path
      class="st6"
      d="M 43,12"/>
    <path
      class="st6"
      d="M 32,12"/>
    <polygon
      class="st2"
      points="12,4 29,4 30.1,15 12,14 "/>
    <rect
      x="12"
      y="43"
      class="st3"
      width="34"
      height="2"/>
    <line
      class="st3"
      x1="46"
      y1="13"
      x2="46"
      y2="15"/>
  </g>
  <g transform="matrix(0.06668491,0,0,0.06668491,13.402268,20.894787)">
    <path
      fill="#926e43"
      d="M 238,2.8 V 337.6 L 56,266 V 150 l 97.2,-1.6 z m 0,-2 v 0 L 56,57.2 Z"/>
    <polygon
      fill="#d9ac80"
      points="239.2,0.80000305 56,57.199997 0,151.2 153.2,148.8 "/>
    <polygon
      fill="#a67e4f"
      points="238,337.60001 420,266 420,150 325.20001,148.8 239.60001,1.1999969 238,0.80000305 "/>
    <polygon
      fill="#d9ac80"
      points="239.2,0.80000305 422.39999,57.199997 478.39999,151.2 325.20001,148.8 "/>
  </g>
</svg>
