<?xml version="1.0" encoding="iso-8859-1"?>
<!-- Generator: Adobe Illustrator 19.0.0, SVG Export Plug-In . SVG Version: 6.00 Build 0)  -->
<svg version="1.1" id="Layer_1" xmlns="http://www.w3.org/2000/svg" xmlns:xlink="http://www.w3.org/1999/xlink" x="0px" y="0px"
	 viewBox="0 0 512 512" style="enable-background:new 0 0 512 512;" xml:space="preserve">
<rect x="132.414" y="353.103" style="fill:#F09B41;" width="247.172" height="17.655"/>
<g>
	<rect x="114.759" y="132.414" style="fill:#FFAA4B;" width="26.483" height="150.069"/>
	<rect x="370.759" y="132.414" style="fill:#FFAA4B;" width="26.483" height="150.069"/>
</g>
<path style="fill:#FFE678;" d="M397.241,141.241H114.759c-9.751,0-17.655-7.904-17.655-17.655V52.966
	C97.103,23.713,120.817,0,150.069,0h211.862c29.252,0,52.966,23.713,52.966,52.966v70.621
	C414.897,133.337,406.993,141.241,397.241,141.241z"/>
<g>
	<path style="fill:#FFAA4B;" d="M105.931,300.138L89.073,502.439c-0.429,5.148,3.633,9.561,8.797,9.561h9.411
		c4.316,0,7.998-3.121,8.707-7.377l34.081-204.486H105.931z"/>
	<path style="fill:#FFAA4B;" d="M406.069,300.138l16.859,202.301c0.429,5.146-3.633,9.561-8.797,9.561h-9.411
		c-4.316,0-7.998-3.121-8.707-7.377l-34.081-204.486H406.069z"/>
</g>
<path style="fill:#FFC855;" d="M423.724,308.966H88.276c-4.875,0-8.828-3.953-8.828-8.828v-8.828
	c0-9.751,7.904-17.655,17.655-17.655h317.793c9.751,0,17.655,7.904,17.655,17.655v8.828
	C432.552,305.013,428.599,308.966,423.724,308.966z"/>
<path style="fill:#FFE678;" d="M414.897,273.655H97.103c-9.75,0-17.655,7.904-17.655,17.655h353.103
	C432.552,281.559,424.647,273.655,414.897,273.655z"/>
<g>
	<circle style="fill:#FFC855;" cx="128" cy="110.345" r="8.828"/>
	<circle style="fill:#FFC855;" cx="128" cy="48.552" r="8.828"/>
	<circle style="fill:#FFC855;" cx="384" cy="110.345" r="8.828"/>
	<circle style="fill:#FFC855;" cx="384" cy="48.552" r="8.828"/>
</g>
<g>
</g>
<g>
</g>
<g>
</g>
<g>
</g>
<g>
</g>
<g>
</g>
<g>
</g>
<g>
</g>
<g>
</g>
<g>
</g>
<g>
</g>
<g>
</g>
<g>
</g>
<g>
</g>
<g>
</g>
</svg>
