<svg height="512" viewBox="0 0 64 64" width="512" xmlns="http://www.w3.org/2000/svg"><g id="Layer_21" data-name="Layer 21"><g fill="#99501a"><path d="m46 61h-2v-22h-24v22h-2v-24h28z"/><path d="m18 51h28v2h-28z"/><path d="m27 14h2v20h-2z"/><path d="m35 14h2v20h-2z"/><path d="m20 15h2v20h-2z"/><path d="m42 15h2v20h-2z"/></g><path d="m48 38a1.85 1.85 0 0 1 -.18.81 1.84 1.84 0 0 1 -.41.59 2 2 0 0 1 -1.41.6h-28a2 2 0 0 1 -1.82-1.18 1.85 1.85 0 0 1 -.18-.82 4 4 0 0 1 4-4h24a4 4 0 0 1 4 4z" fill="#f9ac46"/><path d="m47.82 38.81a1.84 1.84 0 0 1 -.41.59 2 2 0 0 1 -1.41.6h-28a2 2 0 0 1 -1.82-1.18 4.18 4.18 0 0 1 1-1.64 4 4 0 0 1 2.82-1.18h24a4 4 0 0 1 3.82 2.81z" fill="#f49e21"/><path d="m46 10v3a2 2 0 0 1 -2 2h-24a2 2 0 0 1 -2-2v-3a6 6 0 0 1 6-6h16a6 6 0 0 1 6 6z" fill="#f49e21"/><path d="m43.5 7.5v3a2 2 0 0 1 -2 2h-23.5v-2.5a6 6 0 0 1 6-6h16a6 6 0 0 1 2.81.69 6 6 0 0 1 .69 2.81z" fill="#f9ac46"/></g></svg>