<svg viewBox="0 0 32 57" xmlns="http://www.w3.org/2000/svg" version="1.1">
  <title>Layer chair</title>
  <g id="svg_chair1" fill="#99501a" style="">
    <path id="svg_chair2" d="m30.00015,57.00002l-2,0l0,-22l-24,0l0,22l-2,0l0,-24l28,0l0,24z"/>
    <path id="svg_chair3" d="m2.00015,47.00002l28,0l0,2l-28,0l0,-2z"/>
    <path id="svg_chair4" d="m11.00015,10.00002l2,0l0,20l-2,0l0,-20z"/>
    <path id="svg_chair5" d="m19.00015,10.00002l2,0l0,20l-2,0l0,-20z"/>
    <path id="svg_chair6" d="m4.00015,11.00002l2,0l0,20l-2,0l0,-20z"/>
    <path id="svg_chair7" d="m26.00015,11.00002l2,0l0,20l-2,0l0,-20z"/>
    <path id="svg_chair8" fill="#f9ac46"
          d="m32.00015,34.00002a1.85,1.85 0 0 1 -0.18,0.81a1.84,1.84 0 0 1 -0.41,0.59a2,2 0 0 1 -1.41,0.6l-28,0a2,2 0 0 1 -1.82,-1.18a1.85,1.85 0 0 1 -0.18,-0.82a4,4 0 0 1 4,-4l24,0a4,4 0 0 1 4,4z"/>
    <path id="svg_chair9" fill="#f49e21"
          d="m31.82015,34.81002a1.84,1.84 0 0 1 -0.41,0.59a2,2 0 0 1 -1.41,0.6l-28,0a2,2 0 0 1 -1.82,-1.18a4.18,4.18 0 0 1 1,-1.64a4,4 0 0 1 2.82,-1.18l24,0a4,4 0 0 1 3.82,2.81z"/>
    <path id="svg_chair10" fill="#f49e21"
          d="m30.00015,6.00002l0,3a2,2 0 0 1 -2,2l-24,0a2,2 0 0 1 -2,-2l0,-3a6,6 0 0 1 6,-6l16,0a6,6 0 0 1 6,6z"/>
    <path id="svg_chair11" fill="#f9ac46"
          d="m27.50015,3.50002l0,3a2,2 0 0 1 -2,2l-23.5,0l0,-2.5a6,6 0 0 1 6,-6l16,0a6,6 0 0 1 2.81,0.69a6,6 0 0 1 0.69,2.81z"/>
  </g>
</svg>
