<?xml version="1.0" encoding="iso-8859-1"?>
<!-- Generator: Adobe Illustrator 18.0.0, SVG Export Plug-In . SVG Version: 6.00 Build 0)  -->
<!DOCTYPE svg PUBLIC "-//W3C//DTD SVG 1.1//EN" "http://www.w3.org/Graphics/SVG/1.1/DTD/svg11.dtd">
<svg version="1.1" id="Capa_1" xmlns="http://www.w3.org/2000/svg" xmlns:xlink="http://www.w3.org/1999/xlink" x="0px" y="0px"
	 viewBox="0 0 58 58" style="enable-background:new 0 0 58 58;" xml:space="preserve">
<g>
	<rect x="12" y="1" style="fill:#847059;" width="34" height="54"/>
	<polygon style="fill:#847059;" points="7,1 0,1 0,58 3,58 3,55 3,3 	"/>
	<polygon style="fill:#847059;" points="51,1 55,3 55,55 55,58 58,58 58,1 	"/>
</g>
<rect x="12" y="4" style="fill:#665646;" width="17" height="48"/>
<rect x="29" y="4" style="fill:#54473B;" width="17" height="48"/>
<polygon style="fill:#9E8771;" points="9,58 3,55 3,3 9,0 "/>
<rect x="9" y="0" style="fill:#AF9680;" width="3" height="58"/>
<polygon style="fill:#9E8771;" points="49,58 55,55 55,3 49,0 "/>
<rect x="46" y="0" style="fill:#AF9680;" width="3" height="58"/>
<line style="fill:none;stroke:#382016;stroke-width:2;stroke-miterlimit:10;" x1="12" y1="19" x2="29" y2="19"/>
<g>
	<path style="fill:#E0E1E2;" d="M16,16c-0.552,0-1,0.447-1,1v5c0,0.553,0.448,1,1,1s1-0.447,1-1v-5C17,16.447,16.552,16,16,16z"/>
	<path style="fill:#E0E1E2;" d="M19,16c-0.552,0-1,0.447-1,1v5c0,0.553,0.448,1,1,1s1-0.447,1-1v-5C20,16.447,19.552,16,19,16z"/>
	<path style="fill:#E0E1E2;" d="M22,16c-0.552,0-1,0.447-1,1v5c0,0.553,0.448,1,1,1s1-0.447,1-1v-5C23,16.447,22.552,16,22,16z"/>
	<path style="fill:#E0E1E2;" d="M25,16c-0.552,0-1,0.447-1,1v5c0,0.553,0.448,1,1,1s1-0.447,1-1v-5C26,16.447,25.552,16,25,16z"/>
</g>
<path style="fill:#7383BF;" d="M24,43h-7c-1.1,0-2-0.9-2-2v0c0-1.1,0.9-2,2-2h7c1.1,0,2,0.9,2,2v0C26,42.1,25.1,43,24,43z"/>
<path style="fill:#DC691D;" d="M41,33h-7c-1.1,0-2-0.9-2-2v0c0-1.1,0.9-2,2-2h7c1.1,0,2,0.9,2,2v0C43,32.1,42.1,33,41,33z"/>
<path style="fill:#EBBA16;" d="M41,29h-7c-1.1,0-2-0.9-2-2v0c0-1.1,0.9-2,2-2h7c1.1,0,2,0.9,2,2v0C43,28.1,42.1,29,41,29z"/>
<path style="fill:#1A9172;" d="M41,43h-7c-1.1,0-2-0.9-2-2v0c0-1.1,0.9-2,2-2h7c1.1,0,2,0.9,2,2v0C43,42.1,42.1,43,41,43z"/>
<path style="fill:#61B872;" d="M41,39h-7c-1.1,0-2-0.9-2-2v0c0-1.1,0.9-2,2-2h7c1.1,0,2,0.9,2,2v0C43,38.1,42.1,39,41,39z"/>
<line style="fill:none;stroke:#E0E1E2;stroke-width:2;stroke-linecap:round;stroke-miterlimit:10;" x1="32" y1="12" x2="43" y2="12"/>
<rect x="12" y="4" style="fill:#54473B;" width="17" height="10"/>
<rect x="28" y="4" style="fill:#9E8771;" width="1.924" height="48"/>
<rect x="12.007" y="43" style="fill:#9E8771;" width="33.994" height="2"/>
<rect x="29.001" y="33" style="fill:#9E8771;" width="17" height="2"/>
<rect x="29.001" y="23" style="fill:#9E8771;" width="17" height="2"/>
<rect x="29.001" y="13" style="fill:#9E8771;" width="17" height="2"/>
<g>
</g>
<g>
</g>
<g>
</g>
<g>
</g>
<g>
</g>
<g>
</g>
<g>
</g>
<g>
</g>
<g>
</g>
<g>
</g>
<g>
</g>
<g>
</g>
<g>
</g>
<g>
</g>
<g>
</g>
</svg>
