<svg id="Capa_1" enable-background="new 0 0 497 497" height="512" viewBox="0 0 497 497" width="512" xmlns="http://www.w3.org/2000/svg"><g><g><path d="m42.951 112.163h407.883v60.763h-407.883z" fill="#b46f3d"/></g><g><path d="m390.834 112.163h60v60.763h-60z" fill="#ab6839"/></g><g><path d="m55.825 406.751h-25.748c-3.314 0-6-2.686-6-6v-266.674l18.874-10 18.874 10v266.674c0 3.314-2.687 6-6 6z" fill="#d68b56"/></g><g><path d="m463.707 406.751h-25.747c-3.314 0-6-2.686-6-6v-266.674l18.874-10 18.874 10v266.674c-.001 3.314-2.687 6-6.001 6z" fill="#ca7b44"/></g><g><path d="m491 134.077h-21.293l-8.128-.015-.5.015h-455.079c-3.314 0-6-2.686-6-6v-31.828c0-3.314 2.686-6 6-6h485c3.314 0 6 2.686 6 6v31.827c0 3.314-2.686 6.001-6 6.001z" fill="#e0a57f"/></g><g><path d="m491 90.249h-30c3.314 0 6 2.686 6 6v31.827c0 3.314-2.686 6-6 6h30c3.314 0 6-2.686 6-6v-31.827c0-3.314-2.686-6-6-6z" fill="#d68b56"/></g></g></svg>