<svg viewBox="0 0 497 316" xmlns="http://www.w3.org/2000/svg" enable-background="new 0 0 497 497">

 <g>
  <title>Layer 1</title>
  <g id="svg_1">
   <g id="svg_2">
    <path id="svg_3" fill="#b46f3d" d="m42.951,21.914l407.883,0l0,60.763l-407.883,0l0,-60.763z"/>
   </g>
   <g id="svg_4">
    <path id="svg_5" fill="#ab6839" d="m390.834,21.914l60,0l0,60.763l-60,0l0,-60.763z"/>
   </g>
   <g id="svg_6">
    <path id="svg_7" fill="#d68b56" d="m55.825,316.502l-25.748,0c-3.314,0 -6,-2.686 -6,-6l0,-266.674l18.874,-10l18.874,10l0,266.674c0,3.314 -2.687,6 -6,6z"/>
   </g>
   <g id="svg_8">
    <path id="svg_9" fill="#ca7b44" d="m463.707,316.502l-25.747,0c-3.314,0 -6,-2.686 -6,-6l0,-266.674l18.874,-10l18.874,10l0,266.674c-0.001,3.314 -2.687,6 -6.001,6z"/>
   </g>
   <g id="svg_10">
    <path id="svg_11" fill="#e0a57f" d="m491,43.828l-21.293,0l-8.128,-0.015l-0.5,0.015l-455.079,0c-3.314,0 -6,-2.686 -6,-6l0,-31.828c0,-3.314 2.686,-6 6,-6l485,0c3.314,0 6,2.686 6,6l0,31.827c0,3.314 -2.686,6.001 -6,6.001z"/>
   </g>
   <g id="svg_12">
    <path id="svg_13" fill="#d68b56" d="m491,0l-30,0c3.314,0 6,2.686 6,6l0,31.827c0,3.314 -2.686,6 -6,6l30,0c3.314,0 6,-2.686 6,-6l0,-31.827c0,-3.314 -2.686,-6 -6,-6z"/>
   </g>
  </g>
 </g>
</svg>
