<?xml version="1.0" encoding="UTF-8" standalone="no"?>
<svg
   xmlns:dc="http://purl.org/dc/elements/1.1/"
   xmlns:cc="http://creativecommons.org/ns#"
   xmlns:rdf="http://www.w3.org/1999/02/22-rdf-syntax-ns#"
   xmlns:svg="http://www.w3.org/2000/svg"
   xmlns="http://www.w3.org/2000/svg"
   viewBox="0 0 179.01598 67.732697"
   version="1.1"
   id="svg481"
   width="179.01598"
   height="67.732697">
  <metadata
     id="metadata487">
    <rdf:RDF>
      <cc:Work
         rdf:about="">
        <dc:format>image/svg+xml</dc:format>
        <dc:type
           rdf:resource="http://purl.org/dc/dcmitype/StillImage" />
        <dc:title>Layer closet</dc:title>
      </cc:Work>
    </rdf:RDF>
  </metadata>
  <defs
     id="defs485" />
  <title
     id="title444">Layer closet</title>
  <style
     type="text/css"
     id="style446">
    .st0{fill:#847059;}
    .st1{fill:#665646;}
    .st2{fill:#54473B;}
    .st3{fill:#9E8771;}
    .st4{fill:#AF9680;}
    .st5{fill:none;stroke:#382016;stroke-width:2;stroke-miterlimit:10;}
    .st6{fill:none;stroke:#E0E1E2;stroke-width:2;stroke-linecap:round;stroke-miterlimit:10;}
  </style>
  <g
     id="g_box1"
     transform="matrix(0.10576875,0,0,0.10576875,59.855692,20.019446)">
    <path
       id="svg_box2"
       fill="#926e43"
       d="M 238,2.8 V 337.6 L 56,266 V 150 l 97.2,-1.6 z m 0,-2 v 0 L 56,57.2 Z" />
    <polygon
       id="svg_box3"
       fill="#d9ac80"
       points="239.2,0.80000305 56,57.199997 0,151.2 153.2,148.8 " />
    <polygon
       id="svg_box4"
       fill="#a67e4f"
       points="420,150 325.20001,148.8 239.60001,1.1999969 238,0.80000305 238,337.60001 420,266 " />
    <polygon
       id="svg_box5"
       fill="#d9ac80"
       points="239.2,0.80000305 422.39999,57.199997 478.39999,151.2 325.20001,148.8 " />
  </g>
  <g
     id="g_table1"
     transform="matrix(0.12633208,0,0,0.12633208,0,18.38301)">
    <path
       id="svg_3"
       fill="#b46f3d"
       d="M 42.951,21.914 H 450.834 V 82.677 H 42.951 Z" />
    <path
       id="svg_5"
       fill="#ab6839"
       d="m 390.834,21.914 h 60 v 60.763 h -60 z" />
    <path
       id="svg_7"
       fill="#d68b56"
       d="M 55.825,316.502 H 30.077 c -3.314,0 -6,-2.686 -6,-6 V 43.828 l 18.874,-10 18.874,10 v 266.674 c 0,3.314 -2.687,6 -6,6 z" />
    <path
       id="svg_9"
       fill="#ca7b44"
       d="M 463.707,316.502 H 437.96 c -3.314,0 -6,-2.686 -6,-6 V 43.828 l 18.874,-10 18.874,10 v 266.674 c -0.001,3.314 -2.687,6 -6.001,6 z" />
    <path
       id="svg_11"
       fill="#e0a57f"
       d="m 491,43.828 h -21.293 l -8.128,-0.015 -0.5,0.015 H 6 c -3.314,0 -6,-2.686 -6,-6 V 6 C 0,2.686 2.686,0 6,0 h 485 c 3.314,0 6,2.686 6,6 v 31.827 c 0,3.314 -2.686,6.001 -6,6.001 z" />
    <path
       id="svg_13"
       fill="#d68b56"
       d="m 491,0 h -30 c 3.314,0 6,2.686 6,6 v 31.827 c 0,3.314 -2.686,6 -6,6 h 30 c 3.314,0 6,-2.686 6,-6 V 6 c 0,-3.314 -2.686,-6 -6,-6 z" />
  </g>
  <g
     id="g_closet1"
     transform="matrix(1.1678051,0,0,1.1678051,111.28328,0)">
    <rect
       x="12"
       y="1"
       class="st0"
       width="34"
       height="54"
       id="rect1983" />
    <polygon
       class="st0"
       points="0,58 3,58 3,55 3,3 7,1 0,1 "
       id="polygon1985" />
    <polygon
       class="st0"
       points="55,55 55,58 58,58 58,1 51,1 55,3 "
       id="polygon1987" />
    <rect
       x="12"
       y="4"
       class="st1"
       width="17"
       height="48"
       id="rect1989" />
    <rect
       x="29"
       y="4"
       class="st2"
       width="17"
       height="48"
       id="rect1991" />
    <polygon
       class="st3"
       points="9,58 3,55 3,3 9,0 "
       id="polygon1993" />
    <rect
       x="9"
       class="st4"
       width="3"
       height="58"
       id="rect1995"
       y="0" />
    <polygon
       class="st3"
       points="49,58 55,55 55,3 49,0 "
       id="polygon1997" />
    <rect
       x="46"
       class="st4"
       width="3"
       height="58"
       id="rect1999"
       y="0" />
    <path
       class="st5"
       d="M 29,19"
       id="path2001" />
    <path
       class="st5"
       d="M 12,19"
       id="path2003" />
    <path
       class="st6"
       d="M 43,12"
       id="path2005" />
    <path
       class="st6"
       d="M 32,12"
       id="path2007" />
    <polygon
       class="st2"
       points="12,4 29,4 30.1,15 12,14 "
       id="polygon2009" />
    <rect
       x="12"
       y="43"
       class="st3"
       width="34"
       height="2"
       id="rect2011" />
    <line
       class="st3"
       x1="46"
       y1="13"
       x2="46"
       y2="15"
       id="line2013" />
  </g>
</svg>
