<?xml version="1.0" encoding="UTF-8" standalone="no"?>
<svg
   xmlns:dc="http://purl.org/dc/elements/1.1/"
   xmlns:cc="http://creativecommons.org/ns#"
   xmlns:rdf="http://www.w3.org/1999/02/22-rdf-syntax-ns#"
   xmlns:svg="http://www.w3.org/2000/svg"
   xmlns="http://www.w3.org/2000/svg"
   viewBox="0 0 119.95489 58.369442"
   version="1.1"
   id="svg481"
   width="119.95489"
   height="58.369442">
  <metadata
     id="metadata487">
    <rdf:RDF>
      <cc:Work
         rdf:about="">
        <dc:format>image/svg+xml</dc:format>
        <dc:type
           rdf:resource="http://purl.org/dc/dcmitype/StillImage" />
        <dc:title>Layer closet</dc:title>
      </cc:Work>
    </rdf:RDF>
  </metadata>
  <defs
     id="defs485" />
  <title
     id="title444">Layer closet</title>
  <style
     type="text/css"
     id="style446">
    .st0{fill:#847059;}
    .st1{fill:#665646;}
    .st2{fill:#54473B;}
    .st3{fill:#9E8771;}
    .st4{fill:#AF9680;}
    .st5{fill:none;stroke:#382016;stroke-width:2;stroke-miterlimit:10;}
    .st6{fill:none;stroke:#E0E1E2;stroke-width:2;stroke-linecap:round;stroke-miterlimit:10;}
  </style>
  <g
     id="g2899"
     transform="matrix(-1,0,0,1,119.95489,0)">
    <g
       id="g_box1"
       transform="matrix(0.10576875,0,0,0.10576875,32.096104,14.14618)">
      <path
         id="svg_box2"
         fill="#926e43"
         d="M 238,2.8 V 337.6 L 56,266 V 150 l 97.2,-1.6 z m 0,-2 v 0 L 56,57.2 Z" />
      <polygon
         id="svg_box3"
         fill="#d9ac80"
         points="153.2,148.8 239.2,0.80000305 56,57.199997 0,151.2 " />
      <polygon
         id="svg_box4"
         fill="#a67e4f"
         points="238,0.80000305 238,337.60001 420,266 420,150 325.20001,148.8 239.60001,1.1999969 " />
      <polygon
         id="svg_box5"
         fill="#d9ac80"
         points="325.20001,148.8 239.2,0.80000305 422.39999,57.199997 478.39999,151.2 " />
    </g>
    <g
       id="g_chair1"
       fill="#99501a"
       transform="matrix(1.0240249,0,0,1.0240249,1.7508718e-6,2.5027303e-6)">
      <path
         id="svg_chair2"
         d="m 30.00015,57.00002 h -2 v -22 h -24 v 22 h -2 v -24 h 28 z" />
      <path
         id="svg_chair3"
         d="m 2.00015,47.00002 h 28 v 2 h -28 z" />
      <path
         id="svg_chair4"
         d="m 11.00015,10.00002 h 2 v 20 h -2 z" />
      <path
         id="svg_chair5"
         d="m 19.00015,10.00002 h 2 v 20 h -2 z" />
      <path
         id="svg_chair6"
         d="m 4.00015,11.00002 h 2 v 20 h -2 z" />
      <path
         id="svg_chair7"
         d="m 26.00015,11.00002 h 2 v 20 h -2 z" />
      <path
         id="svg_chair8"
         fill="#f9ac46"
         d="m 32.00015,34.00002 a 1.85,1.85 0 0 1 -0.18,0.81 1.84,1.84 0 0 1 -0.41,0.59 2,2 0 0 1 -1.41,0.6 h -28 a 2,2 0 0 1 -1.82,-1.18 1.85,1.85 0 0 1 -0.18,-0.82 4,4 0 0 1 4,-4 h 24 a 4,4 0 0 1 4,4 z" />
      <path
         id="svg_chair9"
         fill="#f49e21"
         d="m 31.82015,34.81002 a 1.84,1.84 0 0 1 -0.41,0.59 2,2 0 0 1 -1.41,0.6 h -28 a 2,2 0 0 1 -1.82,-1.18 4.18,4.18 0 0 1 1,-1.64 4,4 0 0 1 2.82,-1.18 h 24 a 4,4 0 0 1 3.82,2.81 z" />
      <path
         id="svg_chair10"
         fill="#f49e21"
         d="m 30.00015,6.00002 v 3 a 2,2 0 0 1 -2,2 h -24 a 2,2 0 0 1 -2,-2 v -3 a 6,6 0 0 1 6,-6 h 16 a 6,6 0 0 1 6,6 z" />
      <path
         id="svg_chair11"
         fill="#f9ac46"
         d="m 27.50015,3.50002 v 3 a 2,2 0 0 1 -2,2 h -23.5 v -2.5 a 6,6 0 0 1 6,-6 h 16 a 6,6 0 0 1 2.81,0.69 6,6 0 0 1 0.69,2.81 z" />
    </g>
    <g
       id="g2835"
       transform="matrix(0.08493333,0,0,0.08493333,92.94992,24.613004)">
      <path
         style="fill:#9b6534"
         d="m 299.10101,90.801703 c -11.016,-24.117 -39.484,-34.718 -63.61,-23.703 -39.266,17.953 -89,27.836 -140.046995,27.836 -0.09,0 -0.176,-0.008 -0.266,-0.008 V 190.9267 c 0.09,0 0.176,0.008 0.266,0.008 65.452995,0 127.686995,-12.633 179.952995,-36.523 24.11,-11.024 34.72,-39.501 23.704,-63.609997 z"
         id="path2595" />
      <path
         style="fill:#aa7135"
         d="m -108.21099,90.801703 c 11.016001,-24.117 39.484001,-34.718 63.610001,-23.703 39.2660039,17.953 89.000004,27.836 140.047004,27.836 0.09,0 0.176,-0.008 0.266,-0.008 V 190.9267 c -0.09,0 -0.176,0.008 -0.266,0.008 -65.453,0 -127.687004,-12.633 -179.953004,-36.523 -24.111001,-11.024 -34.720001,-39.501 -23.704001,-63.609997 z"
         id="path2597" />
      <circle
         style="fill:#b9a086"
         cx="255.47902"
         cy="110.9317"
         r="32"
         id="circle2599" />
      <circle
         style="fill:#aa7135"
         cx="95.479012"
         cy="174.9317"
         r="112"
         id="circle2601" />
      <ellipse
         style="fill:#d5b99b"
         cx="95.479012"
         cy="174.9317"
         rx="62.512001"
         ry="80"
         id="ellipse2603" />
      <path
         style="fill:#a26b34"
         d="m 95.445015,62.933703 c -31.363,0 -59.676,12.926 -80.008,33.698 L 173.74601,254.9417 c 20.774,-20.332 33.699,-48.645 33.699,-80.008 0,-61.855 -50.145,-111.999997 -111.999995,-111.999997 z"
         id="path2605" />
      <path
         style="fill:#b9a086"
         d="m 95.447015,94.933703 c -20.383,0 -38.309,12.671997 -49.718,31.987997 l 98.097995,98.098 c 8.699,-13.744 14.129,-31.019 14.129,-50.086 -0.001,-44.183 -27.986,-79.999997 -62.508995,-79.999997 z"
         id="path2607" />
      <g
         id="g2613"
         transform="translate(-128.55699,-129.0683)">
        <circle
           style="fill:#aa7135"
           cx="320.03601"
           cy="64"
           r="64"
           id="circle2609" />
        <circle
           style="fill:#aa7135"
           cx="128.004"
           cy="64"
           r="64"
           id="circle2611" />
      </g>
      <g
         id="g2619"
         transform="translate(-128.55699,-129.0683)">
        <circle
           style="fill:#d5b99b"
           cx="128.004"
           cy="64"
           r="32"
           id="circle2615" />
        <circle
           style="fill:#d5b99b"
           cx="320.03601"
           cy="64"
           r="32"
           id="circle2617" />
      </g>
      <circle
         style="fill:#aa7135"
         cx="95.479012"
         cy="6.9317031"
         r="120"
         id="circle2621" />
      <g
         id="g2627"
         transform="translate(-128.55699,-129.0683)">
        <circle
           style="fill:#231f20"
           cx="176.004"
           cy="112"
           r="16"
           id="circle2623" />
        <circle
           style="fill:#231f20"
           cx="272.03601"
           cy="112"
           r="16"
           id="circle2625" />
      </g>
      <circle
         style="fill:#d5b99b"
         cx="95.479012"
         cy="46.931702"
         r="64"
         id="circle2629" />
      <circle
         style="fill:#231f20"
         cx="95.479012"
         cy="30.931704"
         r="16"
         id="circle2631" />
      <circle
         style="fill:#d5b99b"
         cx="-64.552994"
         cy="110.9317"
         r="32"
         id="circle2633" />
      <path
         style="fill:#d64231"
         d="m 143.85101,112.0207 c 7.085,-3.443 15.329,1.717 15.329,9.594 v 37.434 c 0,7.877 -8.245,13.037 -15.329,9.594 l -48.670995,-17.442 v -21.542 z"
         id="path2635" />
      <path
         style="fill:#b22f28"
         d="m 153.63801,168.2647 -43.886,-43.886 -14.572995,5.28 v 21.542 l 48.671995,17.442 c 3.35,1.627 6.912,1.219 9.787,-0.378 z"
         id="path2637" />
      <path
         style="fill:#d64231"
         d="m 95.530015,118.9987 c -5.5,0 -10.406,2.225 -14.187,5.646 l -34.836,-12.625 c -7.082,-3.443 -15.328,1.717 -15.328,9.594 v 37.434 c 0,7.879 8.246,13.039 15.328,9.594 l 34.969,-12.531 c 3.77,3.358 8.614,5.554 14.054,5.554 11.784995,0 21.335995,-9.55 21.335995,-21.332 0,-11.783 -9.55,-21.334 -21.335995,-21.334 z"
         id="path2639" />
      <path
         style="fill:#aa7135"
         d="m -10.775985,192.4807 -21.154004,13.563 c -24.078,-21.383 -55.953,-26.518 -76.817001,-10.297 -24.418,18.984 -24.426,59.82 -0.019,91.215 14.566001,18.74 36.543001,31.973 60.211001,31.973 8.211,0 17.279,-2.651 23.898004,-6.603 l 67.15,-40.298 c 29.299,-17.339 -21.207,-99.008 -53.269,-79.553 z"
         id="path2641" />
      <path
         style="fill:#d5b99b"
         d="m -37.832989,234.1257 c -22.086,-28.406 -56.481,-39.106 -80.938001,-26.867 -13.441,21.172 -10.281,53.611 10.004,79.703 22.086001,28.406 56.484001,39.103 80.938001,26.863 13.438004,-21.17 10.278004,-53.609 -10.004,-79.699 z"
         id="path2643" />
      <path
         style="fill:#9b6534"
         d="m 201.66501,192.4807 21.154,13.563 c 24.078,-21.383 55.953,-26.518 76.817,-10.297 24.418,18.984 24.426,59.82 0.019,91.215 -14.566,18.74 -36.543,31.973 -60.211,31.973 -8.211,0 -17.279,-2.651 -23.898,-6.603 l -67.15,-40.298 c -29.299,-17.339 21.207,-99.008 53.269,-79.553 z"
         id="path2645" />
      <path
         style="fill:#b9a086"
         d="m 228.72201,234.1257 c 22.086,-28.406 56.481,-39.106 80.938,-26.867 13.442,21.172 10.282,53.611 -10.004,79.703 -22.086,28.406 -56.484,39.103 -80.938,26.863 -13.437,-21.17 -10.277,-53.609 10.004,-79.699 z"
         id="path2647" />
    </g>
  </g>
</svg>
