<?xml version="1.0" encoding="UTF-8" standalone="no"?>
<svg
   xmlns:dc="http://purl.org/dc/elements/1.1/"
   xmlns:cc="http://creativecommons.org/ns#"
   xmlns:rdf="http://www.w3.org/1999/02/22-rdf-syntax-ns#"
   xmlns:svg="http://www.w3.org/2000/svg"
   xmlns="http://www.w3.org/2000/svg"
   width="203.67513mm"
   height="83.74115mm"
   viewBox="0 0 203.67513 83.741152"
   version="1.1"
   id="svg881">
  <defs
     id="defs875" />
  <metadata
     id="metadata878">
    <rdf:RDF>
      <cc:Work
         rdf:about="">
        <dc:format>image/svg+xml</dc:format>
        <dc:type
           rdf:resource="http://purl.org/dc/dcmitype/StillImage" />
        <dc:title></dc:title>
      </cc:Work>
    </rdf:RDF>
  </metadata>
  <g
     id="layer1"
     transform="translate(-0.92604223,-65.582087)">
    <path
       style="fill:#9b6534;stroke-width:0.157821"
       d="m 201.62565,113.29639 c -1.73856,-3.80616 -6.23137,-5.47921 -10.03892,-3.74082 -6.19698,2.83335 -14.04603,4.39309 -22.10228,4.39309 -0.0142,0 -0.0278,-0.001 -0.042,-0.001 v 15.15076 c 0.0142,0 0.0278,0.001 0.042,0.001 10.32982,0 20.15161,-1.99374 28.40023,-5.76407 3.80504,-1.73982 5.47952,-6.23407 3.74097,-10.03896 z"
       id="path352" />
    <path
       style="fill:#aa7135;stroke-width:0.157821"
       d="m 137.34352,113.29639 c 1.73855,-3.80616 6.23138,-5.47921 10.03896,-3.74082 6.19698,2.83335 14.04602,4.39309 22.10228,4.39309 0.0142,0 0.0278,-0.001 0.042,-0.001 v 15.15076 c -0.0142,0 -0.0278,0.001 -0.042,0.001 -10.32982,0 -20.15162,-1.99374 -28.40026,-5.76407 -3.80521,-1.73982 -5.47953,-6.23407 -3.74098,-10.03896 z"
       id="path354" />
    <circle
       style="fill:#b9a086;stroke-width:0.157821"
       cx="194.74126"
       cy="116.47332"
       r="5.0502543"
       id="circle356" />
    <circle
       style="fill:#aa7135;stroke-width:0.157821"
       cx="169.48996"
       cy="126.57381"
       r="17.675892"
       id="circle358" />
    <ellipse
       style="fill:#d5b99b;stroke-width:0.157821"
       cx="169.48996"
       cy="126.57381"
       rx="9.8656731"
       ry="12.625636"
       id="ellipse360" />
    <path
       style="fill:#a26b34;stroke-width:0.157821"
       d="m 169.4846,108.89825 c -4.94972,0 -9.41809,2.03999 -12.6269,5.31823 l 24.9844,24.98456 c 3.27856,-3.20881 5.31839,-7.67718 5.31839,-12.6269 0,-9.76198 -7.9139,-17.67589 -17.67589,-17.67589 z"
       id="path362" />
    <path
       style="fill:#b9a086;stroke-width:0.157821"
       d="m 169.48492,113.9485 c -3.21686,0 -6.04595,1.9999 -7.84652,5.04836 l 15.48187,15.48187 c 1.37288,-2.16908 2.22985,-4.89543 2.22985,-7.90459 -1.6e-4,-6.97298 -4.41677,-12.62564 -9.8652,-12.62564 z"
       id="path364" />
    <g
       id="g370"
       transform="matrix(0.15782046,0,0,0.15782046,134.13251,78.596403)">
      <circle
         style="fill:#aa7135"
         cx="320.03601"
         cy="64"
         r="64"
         id="circle366" />
      <circle
         style="fill:#aa7135"
         cx="128.004"
         cy="64"
         r="64"
         id="circle368" />
    </g>
    <g
       id="g376"
       transform="matrix(0.15782046,0,0,0.15782046,134.13251,78.596403)">
      <circle
         style="fill:#d5b99b"
         cx="128.004"
         cy="64"
         r="32"
         id="circle372" />
      <circle
         style="fill:#d5b99b"
         cx="320.03601"
         cy="64"
         r="32"
         id="circle374" />
    </g>
    <circle
       style="fill:#aa7135;stroke-width:0.157821"
       cx="169.48996"
       cy="100.05997"
       r="18.938454"
       id="circle378" />
    <g
       id="g384"
       transform="matrix(0.15782046,0,0,0.15782046,134.13251,78.596403)">
      <circle
         style="fill:#231f20"
         cx="176.004"
         cy="112"
         r="16"
         id="circle380" />
      <circle
         style="fill:#231f20"
         cx="272.03601"
         cy="112"
         r="16"
         id="circle382" />
    </g>
    <circle
       style="fill:#d5b99b;stroke-width:0.157821"
       cx="169.48996"
       cy="106.3728"
       r="10.100509"
       id="circle386" />
    <circle
       style="fill:#231f20;stroke-width:0.157821"
       cx="169.48996"
       cy="103.84766"
       r="2.5251272"
       id="circle388" />
    <circle
       style="fill:#d5b99b;stroke-width:0.157821"
       cx="144.23364"
       cy="116.47332"
       r="5.0502543"
       id="circle390" />
    <path
       style="fill:#d64231;stroke-width:0.157821"
       d="m 177.12406,116.64518 c 1.11816,-0.54338 2.41923,0.27098 2.41923,1.51413 v 5.90785 c 0,1.24315 -1.30123,2.05751 -2.41923,1.51413 l -7.68128,-2.75271 v -3.39976 z"
       id="path392" />
    <path
       style="fill:#b22f28;stroke-width:0.157821"
       d="m 178.66865,125.52163 -6.92611,-6.9261 -2.29992,0.83329 v 3.39976 l 7.68144,2.75271 c 0.5287,0.25677 1.09086,0.19238 1.54459,-0.0597 z"
       id="path394" />
    <path
       style="fill:#d64231;stroke-width:0.157821"
       d="m 169.49802,117.74645 c -0.86801,0 -1.64228,0.35115 -2.239,0.89106 l -5.49784,-1.99249 c -1.11768,-0.54337 -2.41907,0.27098 -2.41907,1.51413 v 5.90785 c 0,1.24347 1.30139,2.05782 2.41907,1.51413 l 5.51883,-1.97765 c 0.59498,0.52996 1.35947,0.87654 2.21801,0.87654 1.85991,0 3.36725,-1.50719 3.36725,-3.36663 0,-1.8596 -1.50718,-3.36694 -3.36725,-3.36694 z"
       id="path396" />
    <path
       style="fill:#aa7135;stroke-width:0.157821"
       d="m 152.72076,129.34341 -3.33854,2.14052 c -3.8,-3.37467 -8.83053,-4.18508 -12.12329,-1.62508 -3.85366,2.99607 -3.85492,9.44082 -0.003,14.3956 2.29881,2.95755 5.76723,5.04599 9.50253,5.04599 1.29586,0 2.72697,-0.41838 3.77159,-1.04209 l 10.59764,-6.35984 c 4.62399,-2.73646 -3.34689,-15.62549 -8.40693,-12.5551 z"
       id="path398" />
    <path
       style="fill:#d5b99b;stroke-width:0.157821"
       d="m 148.45061,135.91585 c -3.48563,-4.48305 -8.91386,-6.17173 -12.77367,-4.24016 -2.12127,3.34137 -1.62255,8.46091 1.57883,12.57876 3.48563,4.48304 8.91433,6.17125 12.77367,4.23953 2.12079,-3.34106 1.62208,-8.4606 -1.57883,-12.57813 z"
       id="path400" />
    <path
       style="fill:#9b6534;stroke-width:0.157821"
       d="m 186.24829,129.34341 3.33854,2.14052 c 3.79998,-3.37467 8.83049,-4.18508 12.12325,-1.62508 3.85366,2.99607 3.85492,9.44082 0.003,14.3956 -2.29881,2.95755 -5.76721,5.04599 -9.50249,5.04599 -1.29586,0 -2.72698,-0.41838 -3.77159,-1.04209 l -10.59765,-6.35984 c -4.62398,-2.73646 3.3469,-15.62549 8.40694,-12.5551 z"
       id="path402" />
    <path
       style="fill:#b9a086;stroke-width:0.157821"
       d="m 190.51844,135.91585 c 3.48561,-4.48305 8.91382,-6.17173 12.77363,-4.24016 2.12143,3.34137 1.62272,8.46091 -1.57883,12.57876 -3.48562,4.48304 -8.9143,6.17125 -12.77364,4.23953 -2.12063,-3.34106 -1.62192,-8.4606 1.57884,-12.57813 z"
       id="path404" />
    <g
       id="g_table1"
       transform="matrix(0.26458333,0,0,0.26458333,0.92604223,65.582087)">
      <path
         id="svg_3"
         fill="#b46f3d"
         d="M 42.951,21.914 H 450.834 V 82.677 H 42.951 Z" />
      <path
         id="svg_5"
         fill="#ab6839"
         d="m 390.834,21.914 h 60 v 60.763 h -60 z" />
      <path
         id="svg_7"
         fill="#d68b56"
         d="M 55.825,316.502 H 30.077 c -3.314,0 -6,-2.686 -6,-6 V 43.828 l 18.874,-10 18.874,10 v 266.674 c 0,3.314 -2.687,6 -6,6 z" />
      <path
         id="svg_9"
         fill="#ca7b44"
         d="M 463.707,316.502 H 437.96 c -3.314,0 -6,-2.686 -6,-6 V 43.828 l 18.874,-10 18.874,10 v 266.674 c -0.001,3.314 -2.687,6 -6.001,6 z" />
      <path
         id="svg_11"
         fill="#e0a57f"
         d="m 491,43.828 h -21.293 l -8.128,-0.015 -0.5,0.015 H 6 c -3.314,0 -6,-2.686 -6,-6 V 6 C 0,2.686 2.686,0 6,0 h 485 c 3.314,0 6,2.686 6,6 v 31.827 c 0,3.314 -2.686,6.001 -6,6.001 z" />
      <path
         id="svg_13"
         fill="#d68b56"
         d="m 491,0 h -30 c 3.314,0 6,2.686 6,6 v 31.827 c 0,3.314 -2.686,6 -6,6 h 30 c 3.314,0 6,-2.686 6,-6 V 6 c 0,-3.314 -2.686,-6 -6,-6 z" />
    </g>
  </g>
</svg>
