<?xml version="1.0" encoding="UTF-8" standalone="no"?>
<svg
   xmlns:dc="http://purl.org/dc/elements/1.1/"
   xmlns:cc="http://creativecommons.org/ns#"
   xmlns:rdf="http://www.w3.org/1999/02/22-rdf-syntax-ns#"
   xmlns:svg="http://www.w3.org/2000/svg"
   xmlns="http://www.w3.org/2000/svg"
   viewBox="0 0 478.4 591.04965"
   version="1.1"
   id="svg261"
   width="478.39999"
   height="591.04962">
  <metadata
     id="metadata267">
    <rdf:RDF>
      <cc:Work
         rdf:about="">
        <dc:format>image/svg+xml</dc:format>
        <dc:type
           rdf:resource="http://purl.org/dc/dcmitype/StillImage" />
        <dc:title>Layer box</dc:title>
      </cc:Work>
    </rdf:RDF>
  </metadata>
  <defs
     id="defs265" />
  <title
     id="title254">Layer box</title>
  <g
     id="g2028"
     transform="translate(-8,379.2)">
    <path
       style="fill:#9b6534;stroke-width:0.626486"
       d="m 362.91687,68.927559 c -6.90136,-15.108956 -24.73616,-21.750331 -39.85075,-14.849591 -24.59959,11.247299 -55.75724,17.438857 -87.73745,17.438857 -0.0564,0 -0.11026,-0.005 -0.16664,-0.005 v 60.142635 c 0.0564,0 0.11026,0.005 0.16664,0.005 41.00537,0 79.99408,-7.91439 112.73798,-22.88113 15.10458,-6.90638 21.75159,-24.746816 14.85022,-39.85076 z"
       id="path352" />
    <path
       style="fill:#aa7135;stroke-width:0.626486"
       d="m 107.74172,68.927559 c 6.90136,-15.108956 24.73616,-21.750331 39.85075,-14.849591 24.59959,11.247299 55.75723,17.438857 87.73746,17.438857 0.0564,0 0.11026,-0.005 0.16664,-0.005 v 60.142635 c -0.0564,0 -0.11026,0.005 -0.16664,0.005 -41.00538,0 -79.99409,-7.91439 -112.738,-22.88113 -15.1052,-6.9063 -21.75158,-24.746737 -14.85021,-39.850682 z"
       id="path354" />
    <circle
       style="fill:#b9a086;stroke-width:0.626486"
       cx="335.58832"
       cy="81.538719"
       r="20.047543"
       id="circle356" />
    <circle
       style="fill:#aa7135;stroke-width:0.626486"
       cx="235.3506"
       cy="121.6338"
       r="70.166405"
       id="circle358" />
    <ellipse
       style="fill:#d5b99b;stroke-width:0.626486"
       cx="235.3506"
       cy="121.6338"
       rx="39.162876"
       ry="50.118858"
       id="ellipse360" />
    <path
       style="fill:#a26b34;stroke-width:0.626486"
       d="m 235.32929,51.468655 c -19.64847,0 -37.38615,8.097954 -50.12386,21.111316 l 99.17833,99.178959 c 13.01461,-12.73771 21.11193,-30.4754 21.11193,-50.12387 0,-38.751278 -31.41512,-70.166405 -70.1664,-70.166405 z"
       id="path362" />
    <path
       style="fill:#b9a086;stroke-width:0.626486"
       d="m 235.33055,71.516198 c -12.76966,0 -24.00004,7.938828 -31.14762,20.040026 l 61.457,61.457006 c 5.4498,-8.61042 8.85161,-19.43297 8.85161,-31.37817 -6.2e-4,-27.680022 -17.53283,-50.118862 -39.16099,-50.118862 z"
       id="path364" />
    <g
       id="g370"
       transform="matrix(0.62648573,0,0,0.62648573,94.995237,-68.817861)">
      <circle
         style="fill:#aa7135"
         cx="320.03601"
         cy="64"
         r="64"
         id="circle366" />
      <circle
         style="fill:#aa7135"
         cx="128.004"
         cy="64"
         r="64"
         id="circle368" />
    </g>
    <g
       id="g376"
       transform="matrix(0.62648573,0,0,0.62648573,94.995237,-68.817861)">
      <circle
         style="fill:#d5b99b"
         cx="128.004"
         cy="64"
         r="32"
         id="circle372" />
      <circle
         style="fill:#d5b99b"
         cx="320.03601"
         cy="64"
         r="32"
         id="circle374" />
    </g>
    <circle
       style="fill:#aa7135;stroke-width:0.626486"
       cx="235.3506"
       cy="16.384199"
       r="75.178291"
       id="circle378" />
    <g
       id="g384"
       transform="matrix(0.62648573,0,0,0.62648573,94.995237,-68.817861)">
      <circle
         style="fill:#231f20"
         cx="176.004"
         cy="112"
         r="16"
         id="circle380" />
      <circle
         style="fill:#231f20"
         cx="272.03601"
         cy="112"
         r="16"
         id="circle382" />
    </g>
    <circle
       style="fill:#d5b99b;stroke-width:0.626486"
       cx="235.3506"
       cy="41.44363"
       r="40.095085"
       id="circle386" />
    <circle
       style="fill:#231f20;stroke-width:0.626486"
       cx="235.3506"
       cy="31.419857"
       r="10.023771"
       id="circle388" />
    <circle
       style="fill:#d5b99b;stroke-width:0.626486"
       cx="135.09283"
       cy="81.538719"
       r="20.047543"
       id="circle390" />
    <path
       style="fill:#d64231;stroke-width:0.626486"
       d="m 265.65497,82.22096 c 4.43864,-2.15699 9.6034,1.075676 9.6034,6.010504 v 23.451866 c 0,4.93483 -5.16538,8.1675 -9.6034,6.0105 l -30.4917,-10.92716 V 93.270915 Z"
       id="path392" />
    <path
       style="fill:#b22f28;stroke-width:0.626486"
       d="m 271.78638,117.45702 -27.49395,-27.493949 -9.12978,3.307844 v 13.495755 l 30.49232,10.92716 c 2.09872,1.0193 4.33026,0.76369 6.13141,-0.23681 z"
       id="path394" />
    <path
       style="fill:#d64231;stroke-width:0.626486"
       d="m 235.38255,86.592577 c -3.44568,0 -6.51922,1.393931 -8.88796,3.537138 l -21.82426,-7.909381 c -4.43676,-2.15699 -9.60276,1.075675 -9.60276,6.010503 V 111.6827 c 0,4.93609 5.166,8.16875 9.60276,6.01051 l 21.90758,-7.85049 c 2.36186,2.10373 5.39656,3.4795 8.80464,3.4795 7.38313,0 13.3667,-5.98294 13.3667,-13.364196 0,-7.381881 -5.98294,-13.365447 -13.3667,-13.365447 z"
       id="path396" />
    <path
       style="fill:#aa7135;stroke-width:0.626486"
       d="m 168.78336,132.62801 -13.25269,8.49702 c -15.08452,-13.39615 -35.05375,-16.61315 -48.12475,-6.45093 -15.29753,11.89321 -15.302541,37.47638 -0.0119,57.1449 9.12539,11.74034 22.89367,20.03063 37.72133,20.03063 5.14407,0 10.82505,-1.66081 14.97176,-4.13668 l 42.06851,-25.24613 c 18.35541,-10.86264 -13.28588,-62.0271 -33.37226,-49.83881 z"
       id="path398" />
    <path
       style="fill:#d5b99b;stroke-width:0.626486"
       d="m 151.83253,158.718 c -13.83657,-17.79595 -35.38454,-24.49935 -50.7065,-16.83179 -8.420598,13.26396 -6.440904,33.58652 6.26736,49.93279 13.83656,17.79596 35.38642,24.49747 50.7065,16.82929 8.41872,-13.2627 6.43903,-33.58528 -6.26736,-49.93029 z"
       id="path400" />
    <path
       style="fill:#9b6534;stroke-width:0.626486"
       d="m 301.87461,132.62801 13.25268,8.49702 c 15.08452,-13.39615 35.05376,-16.61315 48.12476,-6.45093 15.29752,11.89321 15.30254,37.47638 0.0119,57.1449 -9.12539,11.74034 -22.89367,20.03063 -37.72134,20.03063 -5.14407,0 -10.82504,-1.66081 -14.97175,-4.13668 l -42.06852,-25.24613 c -18.3554,-10.86264 13.28589,-62.0271 33.37227,-49.83881 z"
       id="path402" />
    <path
       style="fill:#b9a086;stroke-width:0.626486"
       d="m 318.82543,158.718 c 13.83657,-17.79595 35.38455,-24.49935 50.7065,-16.83179 8.42123,13.26396 6.44154,33.58652 -6.26736,49.93279 -13.83656,17.79596 -35.38642,24.49747 -50.7065,16.82929 -8.41808,-13.2627 -6.43839,-33.58528 6.26736,-49.93029 z"
       id="path404" />
  </g>
  <g
     id="g_box1"
     transform="translate(0,-0.8)">
    <path
       id="svg_box2"
       fill="#926e43"
       d="M 238,2.8 V 337.6 L 56,266 V 150 l 97.2,-1.6 z m 0,-2 v 0 L 56,57.2 Z" />
    <polygon
       id="svg_box3"
       fill="#d9ac80"
       points="153.2,148.8 239.2,0.80000305 56,57.199997 0,151.2 " />
    <polygon
       id="svg_box4"
       fill="#a67e4f"
       points="420,266 420,150 325.20001,148.8 239.60001,1.1999969 238,0.80000305 238,337.60001 " />
    <polygon
       id="svg_box5"
       fill="#d9ac80"
       points="325.20001,148.8 239.2,0.80000305 422.39999,57.199997 478.39999,151.2 " />
  </g>
</svg>
