<svg
  viewBox="0 0 497 316"
  xmlns="http://www.w3.org/2000/svg"
  version="1.1">
  <title
    id="title335">Layer table
  </title>
  <g
    id="g_table1"
    style="">
    <path
      id="svg_3"
      fill="#b46f3d"
      d="m42.951,21.914l407.883,0l0,60.763l-407.883,0l0,-60.763z"/>
    <path
      id="svg_5"
      fill="#ab6839"
      d="m390.834,21.914l60,0l0,60.763l-60,0l0,-60.763z"/>
    <path
      id="svg_7"
      fill="#d68b56"
      d="m55.825,316.502l-25.748,0c-3.314,0 -6,-2.686 -6,-6l0,-266.674l18.874,-10l18.874,10l0,266.674c0,3.314 -2.687,6 -6,6z"/>
    <path
      id="svg_9"
      fill="#ca7b44"
      d="m463.707,316.502l-25.747,0c-3.314,0 -6,-2.686 -6,-6l0,-266.674l18.874,-10l18.874,10l0,266.674c-0.001,3.314 -2.687,6 -6.001,6z"/>
    <path
      id="svg_11"
      fill="#e0a57f"
      d="m491,43.828l-21.293,0l-8.128,-0.015l-0.5,0.015l-455.079,0c-3.314,0 -6,-2.686 -6,-6l0,-31.828c0,-3.314 2.686,-6 6,-6l485,0c3.314,0 6,2.686 6,6l0,31.827c0,3.314 -2.686,6.001 -6,6.001z"/>
    <path
      id="svg_13"
      fill="#d68b56"
      d="m491,0l-30,0c3.314,0 6,2.686 6,6l0,31.827c0,3.314 -2.686,6 -6,6l30,0c3.314,0 6,-2.686 6,-6l0,-31.827c0,-3.314 -2.686,-6 -6,-6z"/>
  </g>
  <path
    style="fill:#9b6534;stroke-width:0.407344"
    d="m 340.26899,212.60802 c -4.4873,-9.82391 -16.08357,-14.14216 -25.91115,-9.65527 -15.99476,7.31304 -36.2536,11.33882 -57.04728,11.33882 -0.0367,0 -0.0717,-0.003 -0.10836,-0.003 v 39.10502 c 0.0367,0 0.0717,0.003 0.10836,0.003 26.66188,0 52.01251,-5.14598 73.30275,-14.87742 9.82106,-4.49056 14.14298,-16.09049 9.65568,-25.91115 z"
    id="path352"/>
  <path
    style="fill:#aa7135;stroke-width:0.407344"
    d="m 174.35294,212.60802 c 4.4873,-9.82391 16.08356,-14.14216 25.91114,-9.65527 15.99477,7.31304 36.25361,11.33882 57.04729,11.33882 0.0367,0 0.0717,-0.003 0.10836,-0.003 v 39.10502 c -0.0367,0 -0.0717,0.003 -0.10836,0.003 -26.66188,0 -52.01252,-5.14598 -73.30275,-14.87742 -9.82147,-4.49056 -14.14298,-16.09049 -9.65568,-25.91115 z"
    id="path354"/>
  <circle
    style="fill:#b9a086;stroke-width:0.407344"
    cx="322.49985"
    cy="220.80785"
    r="13.035004"
    id="circle356"/>
  <circle
    style="fill:#aa7135;stroke-width:0.407344"
    cx="257.32483"
    cy="246.87787"
    r="45.622513"
    id="circle358"/>
  <ellipse
    style="fill:#d5b99b;stroke-width:0.407344"
    cx="257.32483"
    cy="246.87787"
    rx="25.463881"
    ry="32.587509"
    id="ellipse360"/>
  <path
    style="fill:#a26b34;stroke-width:0.407344"
    d="m 257.31096,201.25616 c -12.77552,0 -24.30865,5.26533 -32.59076,13.72668 l 64.4862,64.4866 c 8.46216,-8.28211 13.72708,-19.81524 13.72708,-32.59076 0,-25.19626 -20.42626,-45.62252 -45.62252,-45.62252 z"
    id="path362"/>
  <path
    style="fill:#b9a086;stroke-width:0.407344"
    d="m 257.31178,214.29117 c -8.30289,0 -15.60494,5.16186 -20.25232,13.03011 l 39.95962,39.95962 c 3.54348,-5.59853 5.75536,-12.6354 5.75536,-20.40222 -4.1e-4,-17.99768 -11.39993,-32.58751 -25.46266,-32.58751 z"
    id="path364"/>
  <g
    id="g370"
    transform="matrix(0.40734386,0,0,0.40734386,166.06513,123.04533)">
    <circle
      style="fill:#aa7135"
      cx="320.03601"
      cy="64"
      r="64"
      id="circle366"/>
    <circle
      style="fill:#aa7135"
      cx="128.004"
      cy="64"
      r="64"
      id="circle368"/>
  </g>
  <g
    id="g376"
    transform="matrix(0.40734386,0,0,0.40734386,166.06513,123.04533)">
    <circle
      style="fill:#d5b99b"
      cx="128.004"
      cy="64"
      r="32"
      id="circle372"/>
    <circle
      style="fill:#d5b99b"
      cx="320.03601"
      cy="64"
      r="32"
      id="circle374"/>
  </g>
  <circle
    style="fill:#aa7135;stroke-width:0.407344"
    cx="257.32483"
    cy="178.44409"
    r="48.881264"
    id="circle378"/>
  <g
    id="g384"
    transform="matrix(0.40734386,0,0,0.40734386,166.06513,123.04533)">
    <circle
      style="fill:#231f20"
      cx="176.004"
      cy="112"
      r="16"
      id="circle380"/>
    <circle
      style="fill:#231f20"
      cx="272.03601"
      cy="112"
      r="16"
      id="circle382"/>
  </g>
  <circle
    style="fill:#d5b99b;stroke-width:0.407344"
    cx="257.32483"
    cy="194.73785"
    r="26.070007"
    id="circle386"/>
  <circle
    style="fill:#231f20;stroke-width:0.407344"
    cx="257.32483"
    cy="188.22035"
    r="6.5175018"
    id="circle388"/>
  <circle
    style="fill:#d5b99b;stroke-width:0.407344"
    cx="192.13676"
    cy="220.80785"
    r="13.035004"
    id="circle390"/>
  <path
    style="fill:#d64231;stroke-width:0.407344"
    d="m 277.02885,221.25145 c 2.88603,-1.40248 6.24418,0.69941 6.24418,3.90806 v 15.24851 c 0,3.20865 -3.35855,5.31054 -6.24418,3.90806 l -19.82583,-7.1049 v -8.775 z"
    id="path392"/>
  <path
    style="fill:#b22f28;stroke-width:0.407344"
    d="m 281.01553,244.1621 -17.8767,-17.87669 -5.93622,2.15077 v 8.775 l 19.82624,7.1049 c 1.3646,0.66274 2.81556,0.49655 3.98668,-0.15398 z"
    id="path394"/>
  <path
    style="fill:#d64231;stroke-width:0.407344"
    d="m 257.34559,224.0939 c -2.24039,0 -4.23882,0.90634 -5.77899,2.29986 l -14.19023,-5.14272 c -2.88481,-1.40248 -6.24377,0.69941 -6.24377,3.90806 v 15.24851 c 0,3.20946 3.35896,5.31136 6.24377,3.90806 l 14.24441,-5.10443 c 1.53568,1.36786 3.50886,2.26239 5.72481,2.26239 4.80055,0 8.69109,-3.89013 8.69109,-8.68946 0,-4.79973 -3.89014,-8.69027 -8.69109,-8.69027 z"
    id="path396"/>
  <path
    style="fill:#aa7135;stroke-width:0.407344"
    d="m 214.04249,254.02634 -8.61695,5.5248 c -9.80803,-8.71023 -22.79211,-10.80194 -31.29094,-4.19442 -9.94651,7.73302 -9.94977,24.36731 -0.008,37.15587 5.93337,7.63363 14.88557,13.02401 24.52659,13.02401 3.3447,0 7.03849,-1.07987 9.7347,-2.68969 l 27.35314,-16.41515 c 11.93477,-7.06293 -8.63854,-40.3303 -21.6988,-32.40542 z"
    id="path398"/>
  <path
    style="fill:#d5b99b;stroke-width:0.407344"
    d="m 203.02099,270.99017 c -8.9966,-11.57101 -23.00719,-15.92959 -32.9696,-10.9441 -5.47511,8.62428 -4.1879,21.83811 4.07507,32.46652 8.99659,11.57101 23.00841,15.92837 32.96959,10.94248 5.47389,-8.62347 4.18669,-21.8373 -4.07506,-32.4649 z"
    id="path400"/>
  <path
    style="fill:#9b6534;stroke-width:0.407344"
    d="m 300.57903,254.02634 8.61695,5.5248 c 9.80803,-8.71023 22.79211,-10.80194 31.29093,-4.19442 9.94653,7.73302 9.94979,24.36731 0.008,37.15587 -5.93337,7.63363 -14.88556,13.02401 -24.52658,13.02401 -3.3447,0 -7.03849,-1.07987 -9.7347,-2.68969 l -27.3534,-16.41515 c -11.93477,-7.06293 8.63854,-40.3303 21.6988,-32.40542 z"
    id="path402"/>
  <path
    style="fill:#b9a086;stroke-width:0.407344"
    d="m 311.60053,270.99017 c 8.9966,-11.57101 23.00719,-15.92959 32.9696,-10.9441 5.47552,8.62428 4.18831,21.83811 -4.07507,32.46652 -8.99659,11.57101 -23.00841,15.92837 -32.9696,10.94248 -5.47348,-8.62347 -4.18627,-21.8373 4.07507,-32.4649 z"
    id="path404"/>
</svg>
