<?xml version="1.0" encoding="iso-8859-1"?>
<!-- Generator: Adobe Illustrator 19.0.0, SVG Export Plug-In . SVG Version: 6.00 Build 0)  -->
<svg version="1.1" id="Capa_1" xmlns="http://www.w3.org/2000/svg" xmlns:xlink="http://www.w3.org/1999/xlink" x="0px" y="0px"
	 viewBox="0 0 512.001 512.001" style="enable-background:new 0 0 512.001 512.001;" xml:space="preserve">
<g>
	<path style="fill:#8C6348;" d="M364.949,0c-21.697,0-40.376,15.462-44.415,36.765c-0.569,3.008,0.741,6.062,3.316,7.719
		c16.203,10.429,30.023,24.907,39.964,41.871c1.361,2.321,3.841,3.714,6.481,3.714c0.351,0,0.704-0.024,1.059-0.075
		c22.133-3.143,38.823-22.388,38.823-44.765C410.177,20.289,389.888,0,364.949,0z"/>
	<path style="fill:#8C6348;" d="M191.467,36.765C187.428,15.462,168.749,0,147.052,0c-24.939,0-45.228,20.289-45.228,45.228
		c0,22.377,16.69,41.622,38.823,44.765c0.355,0.05,0.707,0.075,1.059,0.075c2.64,0,5.12-1.393,6.481-3.714
		c9.941-16.964,23.761-31.442,39.964-41.871C190.726,42.827,192.037,39.773,191.467,36.765z"/>
</g>
<g>
	<path style="fill:#5E4132;" d="M173.643,40.083c-2.384-12.575-13.417-22.088-26.685-22.088c-15.01,0-27.177,12.167-27.177,27.177
		c0,13.7,10.141,25.026,23.323,26.898C150.697,59.115,161.109,48.151,173.643,40.083z"/>
	<path style="fill:#5E4132;" d="M338.358,40.083c2.384-12.575,13.417-22.088,26.685-22.088c15.01,0,27.177,12.167,27.177,27.177
		c0,13.7-10.141,25.026-23.323,26.898C361.304,59.115,350.891,48.151,338.358,40.083z"/>
</g>
<g>
	<path style="fill:#77533E;" d="M202.416,486.473c-22.025-6.156-40.512-15.906-54.948-28.979c-1.029-1.004-2.353-1.719-3.849-2.003
		c-3.557-0.672-7.074,1.277-8.392,4.638c-11.931,30.404-24.371,36.785-32.707,36.785c-4.099,0-7.441,3.284-7.513,7.382
		c-0.071,4.098,3.154,7.497,7.249,7.642c0.306,0.01,1.892,0.061,4.641,0.061c12.237,0,47.48-0.999,95.034-10.934
		c3.391-0.708,5.858-3.643,5.974-7.106C208.02,490.498,205.753,487.406,202.416,486.473z"/>
	<path style="fill:#77533E;" d="M409.481,496.915c-8.335,0-20.775-6.382-32.707-36.785c-1.32-3.362-4.839-5.314-8.392-4.638
		c-1.497,0.284-2.819,0.999-3.849,2.003c-14.436,13.073-32.921,22.823-54.948,28.979c-3.336,0.933-5.604,4.025-5.489,7.487
		c0.115,3.462,2.583,6.397,5.974,7.106c47.559,9.936,82.801,10.934,95.034,10.934c2.748,0,4.335-0.05,4.641-0.061
		c4.096-0.144,7.321-3.545,7.249-7.642C416.923,500.198,413.58,496.915,409.481,496.915z"/>
</g>
<g>
	<path style="fill:#8C6348;" d="M171.594,233.596c-0.012-0.007-0.023-0.013-0.034-0.02c-9.051-5.298-16.72-11.727-22.794-19.105
		c-2.422-2.943-6.661-3.606-9.867-1.545c-3.511,2.257-86.063,55.937-94.248,112.453c-2.563,17.701,2.28,33.802,14.398,47.855
		c1.242,1.452,2.994,2.379,4.9,2.585c0.271,0.029,0.54,0.043,0.81,0.043c1.712,0,3.383-0.585,4.727-1.672
		c7.619-6.164,18.732-9.289,33.036-9.289c1.669,0,3.399,0.058,5.438,0.182c3.963,0.247,7.438-2.65,7.915-6.598
		c5.222-43.113,25.426-84.473,54.235-111.264c1.69-0.548,3.193-1.694,4.162-3.346C176.368,240.297,175.171,235.697,171.594,233.596z
		"/>
	<path style="fill:#8C6348;" d="M467.351,325.379c-8.185-56.517-90.738-110.195-94.248-112.453
		c-3.204-2.061-7.445-1.398-9.867,1.545c-6.073,7.378-13.742,13.807-22.794,19.105c-0.012,0.007-0.022,0.013-0.034,0.02
		c-3.576,2.101-4.774,6.701-2.677,10.28c0.97,1.653,2.473,2.799,4.162,3.346c28.809,26.792,49.012,68.15,54.235,111.264
		c0.478,3.946,3.932,6.829,7.915,6.598c2.04-0.124,3.769-0.182,5.439-0.182c14.303,0,25.417,3.125,33.036,9.289
		c1.345,1.087,3.015,1.672,4.727,1.672c0.27,0,0.539-0.015,0.81-0.043c1.906-0.206,3.657-1.133,4.9-2.585
		C465.069,359.181,469.913,343.08,467.351,325.379z"/>
</g>
<path style="fill:#B27C57;" d="M411.046,356.68c-5.858-48.374-28.17-93.043-61.214-122.553c-2.444-2.183-6.021-2.53-8.842-0.857
	c-21.262,12.623-49.857,19.024-84.99,19.024s-63.728-6.4-84.99-19.024c-2.821-1.673-6.397-1.327-8.842,0.857
	c-33.044,29.51-55.356,74.179-61.214,122.553c-0.249,2.056,0.361,4.124,1.687,5.715c1.326,1.591,3.25,2.564,5.317,2.69
	c15.035,0.914,25.988,5.68,32.555,14.169c9.238,11.941,8.354,28.874,5.987,40.976c-1.99,10.171-5.561,25.349-11.274,39.905
	c-1.139,2.902-0.368,6.206,1.939,8.304c28.424,25.862,70.628,40.104,118.836,40.104s90.412-14.242,118.836-40.104
	c2.306-2.098,3.077-5.401,1.939-8.304c-5.713-14.556-9.284-29.734-11.274-39.905c-2.368-12.102-3.251-29.035,5.987-40.976
	c6.568-8.489,17.52-13.256,32.555-14.169c2.067-0.126,3.991-1.099,5.317-2.69C410.686,360.803,411.296,358.736,411.046,356.68z"/>
<path style="fill:#8C6348;" d="M368.663,434.377c-28.193,22.527-67.828,34.852-112.661,34.852s-84.469-12.326-112.661-34.852
	c-2.01,7.992-4.67,16.984-8.114,25.757c-1.139,2.902-0.368,6.206,1.939,8.304c28.424,25.862,70.628,40.104,118.836,40.104
	s90.412-14.242,118.836-40.104c2.306-2.098,3.077-5.401,1.939-8.304C373.333,451.361,370.672,442.37,368.663,434.377z"/>
<g>
	<path style="fill:#77533E;" d="M373.102,212.926c-3.204-2.061-7.445-1.398-9.867,1.545c-6.073,7.378-13.742,13.807-22.794,19.105
		c-0.012,0.007-0.022,0.013-0.034,0.02c-3.576,2.101-4.774,6.701-2.677,10.28c0.97,1.653,2.473,2.799,4.162,3.346
		c6.305,5.863,12.198,12.425,17.612,19.55c4.092-2.224,8.007-4.611,11.733-7.169c11.309-7.765,20.696-16.909,28.146-27.39
		C385.31,220.852,374.335,213.718,373.102,212.926z"/>
	<path style="fill:#77533E;" d="M171.594,233.596c-0.012-0.007-0.023-0.013-0.034-0.02c-9.051-5.298-16.72-11.727-22.794-19.105
		c-2.422-2.943-6.661-3.606-9.867-1.545c-1.232,0.793-12.207,7.926-26.281,19.287c7.449,10.481,16.837,19.625,28.146,27.39
		c3.726,2.558,7.641,4.945,11.733,7.169c5.413-7.125,11.307-13.686,17.612-19.55c1.69-0.548,3.193-1.694,4.162-3.346
		C176.368,240.297,175.171,235.697,171.594,233.596z"/>
</g>
<path style="fill:#C6946A;" d="M357.104,52.601C330.83,25.054,294.924,9.884,256.001,9.884c-38.924,0-74.829,15.171-101.103,42.717
	c-25.839,27.09-40.068,63.561-40.068,102.695c0,38.413,14.268,67.687,42.408,87.01c24.175,16.599,57.404,25.015,98.763,25.015
	s74.589-8.416,98.763-25.015c28.14-19.322,42.408-48.596,42.408-87.01C397.173,116.163,382.943,79.692,357.104,52.601z"/>
<path style="fill:#8C6348;" d="M349.833,234.126c-2.444-2.183-6.021-2.53-8.842-0.857c-21.262,12.623-49.857,19.024-84.99,19.024
	s-63.728-6.4-84.99-19.024c-2.821-1.673-6.397-1.327-8.842,0.857c-8.217,7.338-15.768,15.615-22.57,24.652
	c0.39,0.275,0.77,0.555,1.165,0.826c28.206,19.367,66.978,29.187,115.236,29.187s87.03-9.82,115.236-29.187
	c0.395-0.272,0.775-0.552,1.165-0.826C365.602,249.74,358.049,241.464,349.833,234.126z"/>
<path style="fill:#B27C57;" d="M354.765,206.408c-24.175,16.599-57.404,25.015-98.763,25.015s-74.589-8.416-98.763-25.015
	c-23.699-16.272-37.556-39.604-41.341-69.508c-0.705,6.048-1.067,12.188-1.067,18.396c0,38.413,14.268,67.687,42.408,87.01
	c24.175,16.599,57.404,25.015,98.763,25.015s74.589-8.416,98.763-25.015c28.14-19.322,42.408-48.596,42.408-87.01
	c0-6.208-0.361-12.349-1.067-18.396C392.32,166.804,378.462,190.137,354.765,206.408z"/>
<g>
	<path style="fill:#494949;" d="M256,209.058c-4.151,0-7.514-3.364-7.514-7.514v-34.702c0-4.15,3.363-7.514,7.514-7.514
		s7.514,3.365,7.514,7.514v34.702C263.515,205.694,260.151,209.058,256,209.058z"/>
	<path style="fill:#494949;" d="M256,124.625c-16.327,0-33.774,4.644-33.774,17.678c0,17.674,15.151,32.053,33.774,32.053
		s33.774-14.379,33.774-32.053C289.775,129.269,272.328,124.625,256,124.625z"/>
	<path style="fill:#494949;" d="M184.749,140.681c-6.5,0-11.789-5.288-11.789-11.789s5.288-11.79,11.789-11.79
		c6.501,0,11.79,5.288,11.79,11.79C196.539,135.393,191.25,140.681,184.749,140.681z"/>
	<path style="fill:#494949;" d="M327.252,140.681c-6.5,0-11.789-5.288-11.789-11.789s5.288-11.79,11.789-11.79
		c6.501,0,11.79,5.288,11.79,11.79C339.04,135.393,333.752,140.681,327.252,140.681z"/>
</g>
<path style="fill:#C6946A;" d="M458.503,368.952c-10.423-12.66-26.916-19.079-49.021-19.079c-22.106,0-38.598,6.419-49.023,19.08
	c-10.733,13.035-14.088,31.764-9.707,54.161c5.225,26.708,21.407,88.829,58.728,88.829s53.503-62.121,58.728-88.829
	C472.592,400.716,469.235,381.987,458.503,368.952z"/>
<path style="fill:#8C6348;" d="M409.481,383.352c-26.364,0-33.113,18.445-29.317,39.139c3.891,21.214,13.125,50.386,29.317,50.386
	c16.191,0,25.424-29.172,29.316-50.386C442.593,401.798,435.844,383.352,409.481,383.352z"/>
<path style="fill:#C6946A;" d="M151.543,368.953c-10.423-12.66-26.917-19.08-49.023-19.08s-38.597,6.419-49.021,19.079
	c-10.733,13.035-14.09,31.764-9.707,54.162c5.225,26.708,21.407,88.829,58.728,88.829s53.503-62.121,58.728-88.829
	C165.631,400.717,162.275,381.988,151.543,368.953z"/>
<path style="fill:#8C6348;" d="M102.521,383.352c26.364,0,33.113,18.445,29.317,39.139c-3.892,21.214-13.125,50.386-29.317,50.386
	s-25.424-29.172-29.317-50.386C69.408,401.798,76.157,383.352,102.521,383.352z"/>
<g>
</g>
<g>
</g>
<g>
</g>
<g>
</g>
<g>
</g>
<g>
</g>
<g>
</g>
<g>
</g>
<g>
</g>
<g>
</g>
<g>
</g>
<g>
</g>
<g>
</g>
<g>
</g>
<g>
</g>
</svg>
