<?xml version="1.0" encoding="UTF-8" standalone="no"?>
<svg
   xmlns:dc="http://purl.org/dc/elements/1.1/"
   xmlns:cc="http://creativecommons.org/ns#"
   xmlns:rdf="http://www.w3.org/1999/02/22-rdf-syntax-ns#"
   xmlns:svg="http://www.w3.org/2000/svg"
   xmlns="http://www.w3.org/2000/svg"
   width="131.49791mm"
   height="109.35603mm"
   viewBox="0 0 131.49791 109.35603"
   version="1.1"
   id="svg881">
  <defs
     id="defs875" />
  <metadata
     id="metadata878">
    <rdf:RDF>
      <cc:Work
         rdf:about="">
        <dc:format>image/svg+xml</dc:format>
        <dc:type
           rdf:resource="http://purl.org/dc/dcmitype/StillImage" />
        <dc:title></dc:title>
      </cc:Work>
    </rdf:RDF>
  </metadata>
  <g
     id="layer1"
     transform="translate(-0.92604223,-39.967212)">
    <g
       id="g_table1"
       transform="matrix(0.26458333,0,0,0.26458333,0.92604223,65.582087)">
      <path
         id="svg_3"
         fill="#b46f3d"
         d="M 42.951,21.914 H 450.834 V 82.677 H 42.951 Z" />
      <path
         id="svg_5"
         fill="#ab6839"
         d="m 390.834,21.914 h 60 v 60.763 h -60 z" />
      <path
         id="svg_7"
         fill="#d68b56"
         d="M 55.825,316.502 H 30.077 c -3.314,0 -6,-2.686 -6,-6 V 43.828 l 18.874,-10 18.874,10 v 266.674 c 0,3.314 -2.687,6 -6,6 z" />
      <path
         id="svg_9"
         fill="#ca7b44"
         d="M 463.707,316.502 H 437.96 c -3.314,0 -6,-2.686 -6,-6 V 43.828 l 18.874,-10 18.874,10 v 266.674 c -0.001,3.314 -2.687,6 -6.001,6 z" />
      <path
         id="svg_11"
         fill="#e0a57f"
         d="m 491,43.828 h -21.293 l -8.128,-0.015 -0.5,0.015 H 6 c -3.314,0 -6,-2.686 -6,-6 V 6 C 0,2.686 2.686,0 6,0 h 485 c 3.314,0 6,2.686 6,6 v 31.827 c 0,3.314 -2.686,6.001 -6,6.001 z" />
      <path
         id="svg_13"
         fill="#d68b56"
         d="m 491,0 h -30 c 3.314,0 6,2.686 6,6 v 31.827 c 0,3.314 -2.686,6 -6,6 h 30 c 3.314,0 6,-2.686 6,-6 V 6 c 0,-3.314 -2.686,-6 -6,-6 z" />
    </g>
    <g
       id="g1232">
      <path
         style="fill:#9b6534;stroke-width:0.157821"
         d="M 100.55418,74.667124 C 98.815629,70.860988 94.322843,69.187947 90.515314,70.926325 84.31837,73.75966 76.469365,75.319391 68.41316,75.319391 c -0.0142,0 -0.0278,-10e-4 -0.042,-10e-4 v 15.150676 c 0.0142,0 0.0278,0.001 0.042,0.001 10.329763,0 20.151496,-1.993731 28.400071,-5.76404 3.805019,-1.739808 5.479499,-6.234034 3.740949,-10.038903 z"
         id="path352" />
      <path
         style="fill:#aa7135;stroke-width:0.157821"
         d="m 36.272413,74.667124 c 1.738541,-3.806136 6.231344,-5.479177 10.038903,-3.740799 6.196944,2.833335 14.045939,4.393066 22.102154,4.393066 0.0142,0 0.0278,-10e-4 0.042,-10e-4 v 15.150676 c -0.0142,0 -0.0278,0.001 -0.042,0.001 -10.32976,0 -20.151506,-1.993731 -28.400098,-5.76404 -3.805189,-1.739808 -5.4795,-6.234034 -3.740959,-10.038903 z"
         id="path354" />
      <circle
         style="fill:#b9a086;stroke-width:0.157821"
         cx="93.671341"
         cy="77.844185"
         r="5.0502543"
         id="circle356" />
      <circle
         style="fill:#aa7135;stroke-width:0.157821"
         cx="68.41964"
         cy="87.944664"
         r="17.675892"
         id="circle358" />
      <ellipse
         style="fill:#d5b99b;stroke-width:0.157821"
         cx="68.41964"
         cy="87.944664"
         rx="9.8656731"
         ry="12.625636"
         id="ellipse360" />
      <path
         style="fill:#a26b34;stroke-width:0.157821"
         d="m 68.41331,70.269011 c -4.94969,0 -9.418036,2.039978 -12.626828,5.3182 l 24.984259,24.984419 c 3.278542,-3.208795 5.31836,-7.677138 5.31836,-12.626831 0,-9.761923 -7.913855,-17.675788 -17.675791,-17.675788 z"
         id="path362" />
      <path
         style="fill:#b9a086;stroke-width:0.157821"
         d="m 68.41363,75.319231 c -3.216842,0 -6.045914,1.999888 -7.846475,5.048333 l 15.481783,15.48178 c 1.372871,-2.169068 2.229838,-4.8954 2.229838,-7.904545 -1.6e-4,-6.972941 -4.416746,-12.625568 -9.865146,-12.625568 z"
         id="path364" />
      <g
         id="g370"
         transform="matrix(0.15782046,0,0,0.15782046,33.061421,39.967212)">
        <circle
           style="fill:#aa7135"
           cx="320.03601"
           cy="64"
           r="64"
           id="circle366" />
        <circle
           style="fill:#aa7135"
           cx="128.004"
           cy="64"
           r="64"
           id="circle368" />
      </g>
      <g
         id="g376"
         transform="matrix(0.15782046,0,0,0.15782046,33.061421,39.967212)">
        <circle
           style="fill:#d5b99b"
           cx="128.004"
           cy="64"
           r="32"
           id="circle372" />
        <circle
           style="fill:#d5b99b"
           cx="320.03601"
           cy="64"
           r="32"
           id="circle374" />
      </g>
      <circle
         style="fill:#aa7135;stroke-width:0.157821"
         cx="68.41964"
         cy="61.430763"
         r="18.938454"
         id="circle378" />
      <g
         id="g384"
         transform="matrix(0.15782046,0,0,0.15782046,33.061421,39.967212)">
        <circle
           style="fill:#231f20"
           cx="176.004"
           cy="112"
           r="16"
           id="circle380" />
        <circle
           style="fill:#231f20"
           cx="272.03601"
           cy="112"
           r="16"
           id="circle382" />
      </g>
      <circle
         style="fill:#d5b99b;stroke-width:0.157821"
         cx="68.41964"
         cy="67.743614"
         r="10.100509"
         id="circle386" />
      <circle
         style="fill:#231f20;stroke-width:0.157821"
         cx="68.41964"
         cy="65.21846"
         r="2.5251272"
         id="circle388" />
      <circle
         style="fill:#d5b99b;stroke-width:0.157821"
         cx="43.162971"
         cy="77.844185"
         r="5.0502543"
         id="circle390" />
      <path
         style="fill:#d64231;stroke-width:0.157821"
         d="m 76.052728,78.015896 c 1.118154,-0.543377 2.419215,0.27098 2.419215,1.514121 v 5.907817 c 0,1.243144 -1.301221,2.057498 -2.419215,1.514121 L 68.37149,84.19926 v -3.399739 z"
         id="path392" />
      <path
         style="fill:#b22f28;stroke-width:0.157821"
         d="m 77.597309,86.892295 -6.926071,-6.926061 -2.299908,0.833287 v 3.399739 l 7.681398,2.752695 c 0.528697,0.25677 1.090854,0.19238 1.544581,-0.0597 z"
         id="path394" />
      <path
         style="fill:#d64231;stroke-width:0.157821"
         d="m 68.42673,79.11716 c -0.868004,0 -1.642271,0.351147 -2.238988,0.891054 l -5.497807,-1.992478 c -1.117674,-0.543367 -2.419058,0.27098 -2.419058,1.514121 v 5.907817 c 0,1.243464 1.301384,2.057808 2.419058,1.514121 l 5.518797,-1.977638 c 0.594977,0.529957 1.359464,0.876534 2.217998,0.876534 1.859901,0 3.367232,-1.507181 3.367232,-3.366609 0,-1.859591 -1.507171,-3.366922 -3.367232,-3.366922 z"
         id="path396" />
      <path
         style="fill:#aa7135;stroke-width:0.157821"
         d="m 51.649566,90.714054 -3.338522,2.140508 c -3.799979,-3.374652 -8.830479,-4.185056 -12.123221,-1.625071 -3.853639,2.996052 -3.854899,9.440769 -0.003,14.395549 2.298798,2.95755 5.767197,5.04599 9.502476,5.04599 1.295854,0 2.726955,-0.41838 3.771569,-1.04209 l 10.59758,-6.35984 c 4.623963,-2.73646 -3.346872,-15.625418 -8.406882,-12.555046 z"
         id="path398" />
      <path
         style="fill:#d5b99b;stroke-width:0.157821"
         d="m 47.37944,97.286458 c -3.485609,-4.483026 -8.913809,-6.171697 -12.773598,-4.240136 -2.121258,3.341349 -1.622541,8.460868 1.578821,12.578718 3.485612,4.48304 8.914279,6.17125 12.773598,4.23953 2.120778,-3.34106 1.622071,-8.4606 -1.578821,-12.578112 z"
         id="path400" />
      <path
         style="fill:#9b6534;stroke-width:0.157821"
         d="m 85.176907,90.714054 3.338519,2.140508 c 3.799959,-3.374652 8.830442,-4.185056 12.123184,-1.625071 3.85366,2.996052 3.85492,9.440769 0.003,14.395549 -2.298798,2.95755 -5.76718,5.04599 -9.502439,5.04599 -1.295851,0 -2.726965,-0.41838 -3.771569,-1.04209 l -10.59759,-6.35984 c -4.623953,-2.73646 3.346882,-15.625418 8.406895,-12.555046 z"
         id="path402" />
      <path
         style="fill:#b9a086;stroke-width:0.157821"
         d="m 89.44703,97.286458 c 3.485592,-4.483026 8.913772,-6.171697 12.77357,-4.240136 2.12143,3.341349 1.62272,8.460868 -1.57883,12.578718 -3.485602,4.48304 -8.914252,6.17125 -12.773571,4.23953 -2.120618,-3.34106 -1.621911,-8.4606 1.578831,-12.578112 z"
         id="path404" />
    </g>
  </g>
</svg>
