<?xml version="1.0" encoding="iso-8859-1"?>
<!-- Generator: Adobe Illustrator 19.0.0, SVG Export Plug-In . SVG Version: 6.00 Build 0)  -->
<svg version="1.1" id="Capa_1" xmlns="http://www.w3.org/2000/svg" xmlns:xlink="http://www.w3.org/1999/xlink" x="0px" y="0px"
	 viewBox="0 0 448.003 448.003" style="enable-background:new 0 0 448.003 448.003;" xml:space="preserve">
<path style="fill:#9B6534;" d="M427.658,219.87c-11.016-24.117-39.484-34.718-63.61-23.703c-39.266,17.953-89,27.836-140.047,27.836
	c-0.09,0-0.176-0.008-0.266-0.008v96c0.09,0,0.176,0.008,0.266,0.008c65.453,0,127.687-12.633,179.953-36.523
	C428.064,272.456,438.674,243.979,427.658,219.87z"/>
<path style="fill:#AA7135;" d="M20.346,219.87c11.016-24.117,39.484-34.718,63.61-23.703c39.266,17.953,89,27.836,140.047,27.836
	c0.09,0,0.176-0.008,0.266-0.008v96c-0.09,0-0.176,0.008-0.266,0.008c-65.453,0-127.687-12.633-179.953-36.523
	C19.939,272.456,9.33,243.979,20.346,219.87z"/>
<circle style="fill:#B9A086;" cx="384.036" cy="240" r="32"/>
<circle style="fill:#AA7135;" cx="224.036" cy="304" r="112"/>
<ellipse style="fill:#D5B99B;" cx="224.036" cy="304" rx="62.512" ry="80"/>
<path style="fill:#A26B34;" d="M224.002,192.002c-31.363,0-59.676,12.926-80.008,33.698l158.309,158.31
	c20.774-20.332,33.699-48.645,33.699-80.008C336.002,242.147,285.857,192.002,224.002,192.002z"/>
<path style="fill:#B9A086;" d="M224.004,224.002c-20.383,0-38.309,12.672-49.718,31.988l98.098,98.098
	c8.699-13.744,14.129-31.019,14.129-50.086C286.512,259.819,258.527,224.002,224.004,224.002z"/>
<g>
	<circle style="fill:#AA7135;" cx="320.036" cy="64" r="64"/>
	<circle style="fill:#AA7135;" cx="128.004" cy="64" r="64"/>
</g>
<g>
	<circle style="fill:#D5B99B;" cx="128.004" cy="64" r="32"/>
	<circle style="fill:#D5B99B;" cx="320.036" cy="64" r="32"/>
</g>
<circle style="fill:#AA7135;" cx="224.036" cy="136" r="120"/>
<g>
	<circle style="fill:#231F20;" cx="176.004" cy="112" r="16"/>
	<circle style="fill:#231F20;" cx="272.036" cy="112" r="16"/>
</g>
<circle style="fill:#D5B99B;" cx="224.036" cy="176" r="64"/>
<circle style="fill:#231F20;" cx="224.036" cy="160" r="16"/>
<circle style="fill:#D5B99B;" cx="64.004" cy="240" r="32"/>
<path style="fill:#D64231;" d="M272.408,241.089c7.085-3.443,15.329,1.717,15.329,9.594v37.434c0,7.877-8.245,13.037-15.329,9.594
	l-48.671-17.442v-21.542L272.408,241.089z"/>
<path style="fill:#B22F28;" d="M282.195,297.333l-43.886-43.886l-14.573,5.28v21.542l48.672,17.442
	C275.758,299.338,279.32,298.93,282.195,297.333z"/>
<path style="fill:#D64231;" d="M224.087,248.067c-5.5,0-10.406,2.225-14.187,5.646l-34.836-12.625
	c-7.082-3.443-15.328,1.717-15.328,9.594v37.434c0,7.879,8.246,13.039,15.328,9.594l34.969-12.531
	c3.77,3.358,8.614,5.554,14.054,5.554c11.785,0,21.336-9.55,21.336-21.332C245.423,257.618,235.873,248.067,224.087,248.067z"/>
<path style="fill:#AA7135;" d="M117.781,321.549l-21.154,13.563c-24.078-21.383-55.953-26.518-76.817-10.297
	c-24.418,18.984-24.426,59.82-0.019,91.215c14.566,18.74,36.543,31.973,60.211,31.973c8.211,0,17.279-2.651,23.898-6.603
	l67.15-40.298C200.349,383.763,149.843,302.094,117.781,321.549z"/>
<path style="fill:#D5B99B;" d="M90.724,363.194c-22.086-28.406-56.481-39.106-80.938-26.867
	C-3.655,357.499-0.495,389.938,19.79,416.03c22.086,28.406,56.484,39.103,80.938,26.863
	C114.166,421.723,111.006,389.284,90.724,363.194z"/>
<path style="fill:#9B6534;" d="M330.222,321.549l21.154,13.563c24.078-21.383,55.953-26.518,76.817-10.297
	c24.418,18.984,24.426,59.82,0.019,91.215c-14.566,18.74-36.543,31.973-60.211,31.973c-8.211,0-17.279-2.651-23.898-6.603
	l-67.15-40.298C247.654,383.763,298.16,302.094,330.222,321.549z"/>
<path style="fill:#B9A086;" d="M357.279,363.194c22.086-28.406,56.481-39.106,80.938-26.867
	c13.442,21.172,10.282,53.611-10.004,79.703c-22.086,28.406-56.484,39.103-80.938,26.863
	C333.838,421.723,336.998,389.284,357.279,363.194z"/>
<g>
</g>
<g>
</g>
<g>
</g>
<g>
</g>
<g>
</g>
<g>
</g>
<g>
</g>
<g>
</g>
<g>
</g>
<g>
</g>
<g>
</g>
<g>
</g>
<g>
</g>
<g>
</g>
<g>
</g>
</svg>
