<svg id="Capa_1" enable-background="new 0 0 511.853 511.853" height="512" viewBox="0 0 511.853 511.853" width="512" xmlns="http://www.w3.org/2000/svg"><g><path d="m400.768 168.015h-113.86c-4.143 0-7.5-3.358-7.5-7.5s3.357-7.5 7.5-7.5h113.86c4.143 0 7.5 3.358 7.5 7.5s-3.357 7.5-7.5 7.5z" fill="#e5fbd8"/><path d="m155.277 129.297c-1.527 0-3.068-.465-4.399-1.431l-99.407-72.142c-3.353-2.433-4.098-7.123-1.665-10.475 2.434-3.353 7.122-4.098 10.476-1.665l99.407 72.143c3.353 2.433 4.098 7.123 1.665 10.475-1.468 2.022-3.756 3.095-6.077 3.095z" fill="#c8effe"/><path d="m86.05 214.621c-3.192 0-6.151-2.054-7.155-5.261-1.238-3.953.963-8.161 4.916-9.398l59.486-18.627c3.955-1.236 8.161.963 9.398 4.916 1.238 3.953-.963 8.161-4.916 9.398l-59.486 18.627c-.746.234-1.501.345-2.243.345z" fill="#fff8bf"/><path d="m292.918 164.239c0 43.715-35.438 79.153-79.153 79.153s-64.056-79.153-64.056-79.153 20.341-79.153 64.056-79.153 79.153 35.438 79.153 79.153z" fill="#fe7ab6"/><path d="m226.668 242.341c-4.2.692-8.504 1.053-12.901 1.053-43.717 0-79.158-35.44-79.158-79.158 0-43.707 35.44-79.147 79.158-79.147 4.397 0 8.7.361 12.901 1.053-37.587 6.151-66.257 38.784-66.257 78.095 0 39.32 28.67 71.953 66.257 78.104z" fill="#fe5ca7"/><path d="m245.981 236.515c0-11.956-4.564-32.792 7.391-32.938 6.084-.075 11.61 2.359 15.584 6.345 3.927 3.927 6.347 9.335 6.347 15.312v92.983l13.776-60.741c0-11.956-4.344-27.723 7.611-27.869 6.084-.075 11.61 2.359 15.584 6.345 3.927 3.914 6.347 9.335 6.347 15.312v66.953l9.932-35.176c0-11.956-.5-24.219 11.455-24.366 6.084-.075 11.61 2.359 15.584 6.345 3.927 3.914 6.347 9.335 6.347 15.312v88.113c0 15.786-4.399 31.259-12.704 44.683-8.305 13.424-12.704 28.898-12.704 44.683v25.621h-135.779l9.771-40.964c0-10.187-4.305-24.262-10.448-32.388l-63.471-92.813c-5.631-7.45-18.823-19.072-9.829-21.586 12.756-3.566 26.434-1.11 37.148 6.658l21.468 15.564c1.365.989 3.276.014 3.276-1.671l14.129-112.656c0-11.956-4.698-43.01 7.257-43.157 6.084-.075 11.61 2.359 15.584 6.345 3.927 3.914 6.347 9.323 6.347 15.312v136.14z" fill="#ffe5c2"/><path d="m213.994 410.998c6.141 8.122 9.464 18.03 9.464 28.216v44.223h-22.705v-44.223c0-10.186-3.323-20.094-9.464-28.216l-71.376-94.422c-5.625-7.441-2.136-18.381 6.863-20.899 7.617-2.126 15.563-2.105 23.015-.082-.103.021-.206.052-.31.082-8.999 2.518-12.488 13.458-6.863 20.899z" fill="#fed2a4"/><path d="m342.008 511.432h-135.664s-14.366-23.322-14.366-27.882l15.933-27.885h134.097c4.56 0 8.256 3.697 8.256 8.256v39.254c0 4.561-3.696 8.257-8.256 8.257z" fill="#bd80e1"/><path d="m219.825 511.436h-25.801c-4.562 0-8.256-3.705-8.256-8.256v-39.259c0-4.562 3.695-8.256 8.256-8.256h25.801c-4.562 0-8.256 3.695-8.256 8.256v39.259c0 4.551 3.695 8.256 8.256 8.256z" fill="#af66da"/><path d="m444.986 218.101s-51.24-59.247-49.627-60.859c0 0 51.358-63.671 52.97-62.059l62.316 62.316c1.612 1.612 1.612 4.226 0 5.838l-62.316 62.316c-1.613 1.612-1.731-5.94-3.343-7.552z" fill="#bbf49b"/><path d="m93.187 219.472c0 25.734-20.861 46.595-46.595 46.595s-34.318-48.75-34.318-48.75c0 2.154 8.584-44.44 34.318-44.44s46.595 20.862 46.595 46.595z" fill="#fef48b"/><path d="m59.497 264.262c-4.097 1.177-8.432 1.806-12.901 1.806-25.738 0-46.596-20.858-46.596-46.597 0-25.729 20.858-46.597 46.597-46.597 4.469 0 8.803.63 12.901 1.806-19.464 5.604-33.696 23.541-33.696 44.791-.001 21.26 14.231 39.197 33.695 44.791z" fill="#fee45a"/><path d="m405.971 163.338 52.335 52.335-9.98 9.98c-1.61 1.61-4.221 1.61-5.831 0l-62.325-62.315c-1.61-1.61-1.61-4.231 0-5.841l62.325-62.315c1.61-1.61 4.221-1.61 5.831 0l9.98 9.98-52.335 52.335c-1.61 1.61-1.61 4.232 0 5.841z" fill="#9be69d"/><g fill="#fed2a4"><path d="m265.08 206.849c-6.264 3.953-10.392 11.074-10.392 18.979v84.132c0 4.56-3.697 8.256-8.256 8.256h-14.449v-92.418c0-11.865 9.301-21.958 21.163-22.218 4.387-.094 8.481 1.107 11.934 3.269z"/><path d="m188.668 317.268v-134.627c0-11.858 9.29-21.95 21.145-22.219 4.394-.1 8.494 1.102 11.942 3.267-6.254 3.963-10.382 11.084-10.382 18.99v126.332c0 4.56-3.696 8.256-8.256 8.256h-14.449z"/><path d="m308.395 232.878c-6.265 3.953-10.393 11.074-10.393 18.979v58.104c0 4.56-3.697 8.256-8.256 8.256h-14.449v-66.36c0-11.951 9.433-22.106 21.395-22.251 4.293-.052 8.308 1.145 11.703 3.272z"/><path d="m350.709 261.352c-7.967 3.344-13.509 11.445-13.509 20.61v28.142c0 4.605-3.767 8.32-8.371 8.256l-10.206-.142v-37.288c0-11.961 9.433-22.107 21.384-22.251 3.88-.052 7.534.918 10.702 2.673z"/></g><circle cx="33.12" cy="33.537" fill="#99e6fc" r="33.12"/></g></svg>