<?xml version="1.0" encoding="UTF-8" standalone="no"?>
<svg
   id="Flat"
   height="512"
   viewBox="0 0 340 340"
   width="512"
   version="1.1"
   sodipodi:docname="actionsSimple.svg"
   inkscape:version="1.1 (c4e8f9e, 2021-05-24)"
   xmlns:inkscape="http://www.inkscape.org/namespaces/inkscape"
   xmlns:sodipodi="http://sodipodi.sourceforge.net/DTD/sodipodi-0.dtd"
   xmlns="http://www.w3.org/2000/svg"
   xmlns:svg="http://www.w3.org/2000/svg">
  <defs
     id="defs1778" />
  <sodipodi:namedview
     id="namedview1776"
     pagecolor="#ffffff"
     bordercolor="#999999"
     borderopacity="1"
     inkscape:pageshadow="0"
     inkscape:pageopacity="0"
     inkscape:pagecheckerboard="0"
     showgrid="false"
     inkscape:zoom="1.4707031"
     inkscape:cx="256"
     inkscape:cy="256"
     inkscape:window-width="1920"
     inkscape:window-height="1147"
     inkscape:window-x="0"
     inkscape:window-y="25"
     inkscape:window-maximized="1"
     inkscape:current-layer="Flat" />
  <path
     d="m276.242 147.253-.587-12.823q-6.571-.461-13.143 4.047l-.7 13.023a11.485 11.485 0 0 1 -.305 5.658s-11.812 3.384-7.054 21a14.119 14.119 0 0 1 -1.573 10.089c-4.014 7.662-11.746 22.886-16.889 35.94 0 0-28.8-52.418-51.2-58.591 0 0-15.5-.639-25.758-8.973a12.254 12.254 0 0 1 -4.416-9.535v-9.953l-30.924.492v4.388a19.435 19.435 0 0 1 -9.973 16.955 89.592 89.592 0 0 1 -26.69 9.944 25.356 25.356 0 0 0 -15.155 9.235c-12.077 15.266-38.2 49.38-55.563 79.972a16.154 16.154 0 0 0 2.278 19.023c7.8 8.325 22.368 20.711 46.707 31.063v6.1a21.224 21.224 0 0 0 -6.963 2.5 7.061 7.061 0 0 0 3.5 13.188h29.733v-23.45s-11.293-16.274-41.252-41.794c0 0 6.206-19.706 28.679-31.532 5.755 5.783 7.67 19.018 7.67 19.018l104.936-3.39s-.35-10.928 7.327-16.686c0 0 17.352 16.062 31.5 28.113a14.9 14.9 0 0 0 9.669 3.552h2.829a14.937 14.937 0 0 0 13.243-8.036c4.875-9.333 14.324-31.253 19.8-60.644a12.805 12.805 0 0 1 4.1-7.251l6.8-6.008c3.483-3.077 7-7.994 7.1-12.64.17-7.855-1.598-21.994-17.726-21.994z"
     fill="#ffcac0"
     id="path1727"
     style="fill:#ffcac0;fill-opacity:0.8340081" />
  <path
     d="m235.829 251.6c-12.143-8.7-47.81-26.49-44.959-83.34a25.8 25.8 0 0 0 -6.081-2.667 54.914 54.914 0 0 1 -10.109-1.624l-7.408 52.984-28.119 11.979s-24.774-3.5-28.459-4.791c-2.7-.944-6.221-39.339-7.923-59.916a82.884 82.884 0 0 1 -15.9 4.715l-.007.009c.506 5.1 2.061 25.757-3.382 46.13a15.074 15.074 0 0 1 -7.357 9.324c-7.591 4.132-22.248 14.146-36.018 35.122 0 0 4.9.631 10.206 5.221 0 0 6.206-19.706 28.679-31.532 5.755 5.783 7.67 19.018 7.67 19.018l104.936-3.39s-.35-10.929 7.327-16.686c0 0 17.349 16.059 31.5 28.11a14.911 14.911 0 0 0 9.673 3.555h2.829a14.937 14.937 0 0 0 13.243-8.036c.361-.689.749-1.457 1.156-2.282 0 .002-9.151 6.944-21.497-1.903z"
     fill="#ef9292"
     id="path1729"
     style="fill:#ef9292;fill-opacity:0.70040488" />
  <path
     d="m138.76 196.609c-18.26 0-25.288-10.594-27.984-20.588h-6.99l-4.5 10.912 2.088 16.387 14.1 13.877 52.556-4.872 10.629-25.983-3.186-10.321h-6.243c-3.53 9.779-11.701 20.588-30.47 20.588z"
     fill="#ef9292"
     id="path1731"
     style="fill:#ef9292;fill-opacity:0.70040488" />
  <path
     d="m123.691 137.625c11.1 4.941 21.486 3.808 30.924-.492v-14.226l-30.924.555z"
     fill="#ef9292"
     id="path1733"
     style="fill:#ef9292;fill-opacity:0.70040488" />
  <path
     d="m184.789 165.594a6.877 6.877 0 0 0 -4.7-7.2 24.057 24.057 0 0 0 -7.784-1.231 6.868 6.868 0 0 0 -6.72 6.809c-.135 12.349-2.993 41.7-27.111 41.7s-26.977-29.351-27.112-41.7a6.868 6.868 0 0 0 -6.72-6.809 24.057 24.057 0 0 0 -7.784 1.231 6.877 6.877 0 0 0 -4.7 7.2c3.383 35.869.116 56.315-3.717 67.622l12.5 96.775h75.059l12.5-96.775c-3.827-11.307-7.094-31.753-3.711-67.622z"
     fill="#585875"
     id="path1735"
     style="fill:#4c586e;fill-opacity:0.75708503" />
  <path
     d="m188.509 233.215a43.85 43.85 0 0 0 3.9 8.678 18.788 18.788 0 0 1 2.7 11.513l-4.887 54.055a6.839 6.839 0 0 0 2.654 6.073 6.742 6.742 0 0 1 2.625 6.338c-1.7 11.025-10.224 10.119-10.224 10.119h-9.277c-3.837-48.791 6.738-83.202 12.509-96.776z"
     fill="#fc6383"
     id="path1737"
     style="fill:#e17483;fill-opacity:1" />
  <path
     d="m88.44 233.215a43.792 43.792 0 0 1 -3.9 8.678 18.788 18.788 0 0 0 -2.7 11.513l4.887 54.055a6.839 6.839 0 0 1 -2.654 6.073 6.742 6.742 0 0 0 -2.625 6.338c1.7 11.025 10.224 10.119 10.224 10.119h9.281c3.833-48.791-6.742-83.202-12.513-96.776z"
     fill="#fc6383"
     id="path1739"
     style="fill:#e17483;fill-opacity:1" />
  <path
     d="m147.344 280.54v-46.021h-17.184s-2.58 9.743-9.478 14.273v13.795h9.478v17.953h-9.777v17.184h36.739v-17.184z"
     fill="#fff"
     id="path1741" />
  <path
     d="m107.692 106.261s-9.171 2.713-14.055-4.431a12 12 0 0 1 -1.971-6.784v-18.046h16.026z"
     fill="#ef9292"
     id="path1743"
     style="fill:#ef9292;fill-opacity:0.70040488" />
  <path
     d="m169.358 106.261s9.171 2.713 14.054-4.431a11.988 11.988 0 0 0 1.972-6.784v-18.046h-16.026z"
     fill="#ef9292"
     id="path1745"
     style="fill:#ef9292;fill-opacity:0.70040488" />
  <path
     d="m105.962 82.663h-7.962a16.835 16.835 0 0 1 -16.828-17.663c.815-16.285 8.233-39.529 41.271-50.4 0 0 25.4-8.306 34.45 8.043 0 0 41.457 0 35.034 42.625s-53.452 14.305-53.452 14.305-11.624 16.689-32.513 3.09z"
     fill="#ffb655"
     id="path1747"
     style="fill:#ffb655;fill-opacity:0.8340081" />
  <path
     d="m149.778 38.847c-1.861 25.807-18.092 43.9-43.816 53.035v7.678a32.513 32.513 0 0 0 32.512 32.513 32.513 32.513 0 0 0 32.513-32.513v-24.122s-.466-21.438-21.209-36.591z"
     fill="#ffcac0"
     id="path1749"
     style="fill:#ffcac0;fill-opacity:0.81376517" />
  <g
     fill="#ef9292"
     id="g1763"
     style="fill:#ef9292;fill-opacity:0.70040488">
    <path
       d="m138.092 118.418c-7.224 0-10.811-3.147-12.307-5.024a3.5 3.5 0 0 1 5.474-4.363c.71.891 2.543 2.387 6.833 2.387 4.5 0 6.859-1.682 7.867-2.685a3.5 3.5 0 0 1 4.941 4.967c-2.169 2.15-6.148 4.718-12.808 4.718z"
       id="path1751"
       style="fill:#ef9292;fill-opacity:0.70040488" />
    <path
       d="m129.127 97.664a3.5 3.5 0 0 1 -3.5-3.5v-3.247a3.5 3.5 0 0 1 7 0v3.247a3.5 3.5 0 0 1 -3.5 3.5z"
       id="path1753"
       style="fill:#ef9292;fill-opacity:0.70040488" />
    <path
       d="m147.917 97.664a3.5 3.5 0 0 1 -3.5-3.5v-3.247a3.5 3.5 0 0 1 7 0v3.247a3.5 3.5 0 0 1 -3.5 3.5z"
       id="path1755"
       style="fill:#ef9292;fill-opacity:0.70040488" />
    <path
       d="m105.962 82.663v9.219c44.13-3.092 43.816-53.035 43.816-53.035s-3.263 38.922-43.816 43.816z"
       id="path1757"
       style="fill:#ef9292;fill-opacity:0.70040488" />
    <path
       d="m261.809 151.5-.305 5.658 14.738.8a2.79 2.79 0 0 1 2.625 2.437c.441 3.533 0 9.925-8.72 10.6a.779.779 0 0 0 -.6 1.219 9.988 9.988 0 0 1 1.287 9.488 8.761 8.761 0 0 0 4.424-8.448s11.577-2.721 9.428-15.195a5.643 5.643 0 0 0 -4.96-4.644z"
       id="path1759"
       style="fill:#ef9292;fill-opacity:0.70040488" />
    <path
       d="m275.655 134.43-.239-5.222c0-3.932-2.491-7.411-6.423-7.411s-5.974 3.341-5.974 7.273l-.507 9.407z"
       id="path1761"
       style="fill:#ef9292;fill-opacity:0.70040488" />
  </g>
  <path
     d="m325.791 67.756a57.635 57.635 0 0 1 -20.118 43.815l-5.757 4.358a57.925 57.925 0 0 1 -45.439 8l-6.694-2.048a57.8 57.8 0 0 1 -19.917-12.6l-4.822-5.281a57.507 57.507 0 0 1 -12.724-33.6l.11-7.107a57.419 57.419 0 0 1 9.27-27.193l4.187-5.609a57.9 57.9 0 0 1 23.913-16.859l6.7-2.047a57.891 57.891 0 0 1 49.716 11.14l5.214 4.744a57.59 57.59 0 0 1 15.8 32.18l.555 7.078q.006.513.006 1.029z"
     fill="#f4905d"
     id="path1765"
     style="fill:#f4905d;fill-opacity:0.8623482" />
  <path
     d="m132.219 179.432a3.476 3.476 0 0 1 -1.641-.41 59.149 59.149 0 0 0 -7.127-3.144 3.5 3.5 0 0 1 2.406-6.574 65.329 65.329 0 0 1 8.008 3.538 3.5 3.5 0 0 1 -1.646 6.59z"
     fill="#ef9292"
     id="path1767"
     style="fill:#ef9292;fill-opacity:0.70040488" />
  <path
     d="m145.286 179.432a3.5 3.5 0 0 1 -1.647-6.59 64.954 64.954 0 0 1 7.422-3.32 3.5 3.5 0 1 1 2.465 6.551 57.877 57.877 0 0 0 -6.6 2.949 3.479 3.479 0 0 1 -1.64.41z"
     fill="#ef9292"
     id="path1769"
     style="fill:#ef9292;fill-opacity:0.70040488" />
  <path
     d="m325.765 66.727a58.282 58.282 0 0 0 -.551-7.076 264.673 264.673 0 0 1 -62.659 8.2c0-.04 0-.08 0-.121 0-3.014-.068-6.055-.2-9.036a3.5 3.5 0 1 0 -6.992.315c.13 2.877.2 5.811.2 8.721v.095a266.256 266.256 0 0 1 -45.115-4.525c-.112 1.474-.188 2.957-.188 4.459 0 .888.028 1.769.067 2.647a273.609 273.609 0 0 0 45.1 4.424q-.344 9.408-1.593 18.691a69.943 69.943 0 0 0 -30.777 10.476 58.026 58.026 0 0 0 4.823 5.273 63.182 63.182 0 0 1 24.851-8.6 190.229 190.229 0 0 1 -4.941 21.2 57.329 57.329 0 0 0 6.695 2.041 197.384 197.384 0 0 0 5.4-23.59c13.742.2 27.18 5.448 40.027 15.6a57.806 57.806 0 0 0 5.752-4.363c-14.217-11.647-29.246-17.758-44.756-18.213q1.183-9.18 1.517-18.489a271.8 271.8 0 0 0 63.34-8.129z"
     fill="#db532a"
     id="path1771"
     style="fill:#db532a;fill-opacity:0.73279351" />
  <path
     d="m253.792 41.7c-10.168-.963-20.186-4.716-29.892-11.2a57.943 57.943 0 0 0 -4.186 5.608c12.633 8.521 25.846 12.85 39.342 12.85 17.585 0 34.506-7.225 50.358-21.474a58.256 58.256 0 0 0 -5.213-4.743c-13.815 12.239-28.362 18.678-43.327 19.159a198.382 198.382 0 0 0 -6.374-30.3 57.372 57.372 0 0 0 -6.7 2.04 191.122 191.122 0 0 1 5.992 28.06z"
     fill="#db532a"
     id="path1773"
     style="fill:#db532a;fill-opacity:0.73279351" />
</svg>
