<svg height="512" viewBox="0 0 512 512" width="512" xmlns="http://www.w3.org/2000/svg"><g id="FLAT"><path d="m457.73 125.49-89.73 34.51-87.6 30.32a15.99354 15.99354 0 0 1 -14.45-4.37l-9.95-9.95-24 8-8-32 24-8 5.47-24.41a15.98069 15.98069 0 0 1 10.12012-10.12l23.78988-7.93 64.62-21.54 80.82007-26.94a16.00746 16.00746 0 0 1 20.24 10.12l14.10986 42.32a16.00857 16.00857 0 0 1 -9.43993 19.99z" fill="#004699"/><path d="m346.63 117.01-33.84 12.69a15.997 15.997 0 0 1 -21.14-11.1l-4.27-17.06 64.62-21.54 4.54 18.15a15.99733 15.99733 0 0 1 -9.91 18.86z" fill="#00a4ff"/><path d="m365.68994 349.22-23.03994 7.06-65.13 19.96a95.892 95.892 0 0 0 -43.46-60.31006l-27.01-16.51 105.31-24.06994c.27-.05994.53-.12.79-.19007a15.99616 15.99616 0 0 0 11.5-18.79993l-18.05-84.24a15.99114 15.99114 0 0 1 8.49011-17.66l4.40989-2.21a15.99616 15.99616 0 0 1 22.33008 9.25 6.8517 6.8517 0 0 0 8.66992 4.33l17.5-5.83 30.17993 132.77a48.00428 48.00428 0 0 1 -32.48999 56.45z" fill="#f9b7b7"/><path d="m234.0592 315.92505-98.0592-59.92505-1.13708 1.13708a160.00033 160.00033 0 0 0 -46.86292 113.13709v125.72583h192v-98.15991a96 96 0 0 0 -45.9408-81.91504z" fill="#68a341"/><path d="m136 432h80v64h-80z" fill="#f9b7b7"/><path d="m128 360h96v72h-96z" fill="#7ab753"/><path d="m100.77393 46.55139a80 80 0 0 0 -60.55445 94.49146l1.60059 7.60266a120.00008 120.00008 0 0 0 79.47876 89.12073l12.70117 4.23376-22-66 3.93481-1.31165a23.95891 23.95891 0 0 0 -7.57641-46.68835h-4.3584l-.38269-1.91345a40 40 0 0 1 30.22888-46.82031l28.947-6.68006a48.0001 48.0001 0 0 0 37.20681-46.77081v-1.81537z" fill="#9e694c"/><path d="m248 144-24 8 11.23 39.32a15.99459 15.99459 0 0 1 -12.24 20.08l-15.28 3.06a7.99115 7.99115 0 0 0 -6.3 9.27l14.78 81.28-79.88989-48.83008-24.30011-80.17992 3.92993-1.31a23.9593 23.9593 0 0 0 -7.56993-46.69h-4.36l-.38-1.91a39.9885 39.9885 0 0 1 30.23-46.82l28.94-6.68a47.97348 47.97348 0 0 0 29.99-21.47l15.22 60.88 40 24z" fill="#f9b7b7"/><g fill="#36c6ff"><path d="m448 216v-3.15564a16 16 0 0 0 -2.68726-8.87518l-13.31274-19.96918-13.31274 19.96918a16 16 0 0 0 -2.68726 8.87518v3.15564a16 16 0 0 0 32 0z"/><path d="m461.31274 339.96924-13.31274-19.96924-13.31274 19.96924a15.9994 15.9994 0 0 0 -2.68726 8.87512v3.15564a16 16 0 0 0 32 0v-3.15564a15.9994 15.9994 0 0 0 -2.68726-8.87512z"/><path d="m376 424-13.31274 19.96924a15.9994 15.9994 0 0 0 -2.68726 8.87512v3.15564a16 16 0 0 0 32 0v-3.15564a15.9994 15.9994 0 0 0 -2.68726-8.87512z"/></g><path d="m167.056 108h17.889v16h-17.889z" fill="#575757" transform="matrix(.894 -.447 .447 .894 -33.296 90.956)"/><path d="m342.65 356.28-65.13 19.96a95.892 95.892 0 0 0 -43.46-60.31006l-27.01-16.51 105.31-24.06994c.27-.05994.53-.12.79-.19007z" fill="#7ab753"/></g></svg>