<svg height="512" viewBox="0 0 64 64" width="512" xmlns="http://www.w3.org/2000/svg"><g id="Bathtub-bathroom-hotel-cleaning"><path d="m58 38v5a12 12 0 0 1 -9 11.62 11.858 11.858 0 0 1 -3 .38h-28a11.858 11.858 0 0 1 -3-.38 12 12 0 0 1 -9-11.62v-5z" fill="#c6c5ca"/><path d="m42 34v4h-37a2.006 2.006 0 0 1 -2-2 2.015 2.015 0 0 1 2-2z" fill="#787680"/><path d="m59 34a2.006 2.006 0 0 1 2 2 2.015 2.015 0 0 1 -2 2h-6v-4z" fill="#787680"/><path d="m33 14v3h-10v-3a3 3 0 0 1 3-3h4a3 3 0 0 1 3 3z" fill="#e9e9ea"/><path d="m35 18.5a1.5 1.5 0 0 1 -1.5 1.5h-11a1.5 1.5 0 0 1 0-3h11a1.5 1.5 0 0 1 1.5 1.5z" fill="#787680"/><path d="m30 5v6h-4v-3a1 1 0 0 0 -1-1h-11a1 1 0 0 0 -1 1v26h-4v-29a2.006 2.006 0 0 1 2-2h17a2.006 2.006 0 0 1 2 2z" fill="#d8d7da"/><path d="m18 55v4a2.006 2.006 0 0 1 -2 2h-3.5a1.5 1.5 0 0 1 0-3h2.5v-3.38a11.858 11.858 0 0 0 3 .38z" fill="#57565c"/><path d="m49 54.62v3.38h2.5a1.5 1.5 0 0 1 0 3h-3.5a2.006 2.006 0 0 1 -2-2v-4a11.858 11.858 0 0 0 3-.38z" fill="#57565c"/><path d="m42 42h11v4h-11z" fill="#46f8ff"/><path d="m53 32v10h-11v-8a2.006 2.006 0 0 1 2-2z" fill="#bdfdff"/><path d="m59 33h-5v-1a1 1 0 0 0 -1-1h-9a3.01 3.01 0 0 0 -2.82 2h-27.18v-25h11v2.14a4 4 0 0 0 -3 3.86v2.05a2.5 2.5 0 0 0 .5 4.95h11a2.5 2.5 0 0 0 .5-4.95v-2.05a4 4 0 0 0 -3-3.86v-5.14a3.009 3.009 0 0 0 -3-3h-17a3.009 3.009 0 0 0 -3 3v28h-3a3 3 0 0 0 0 6v4a13.009 13.009 0 0 0 9 12.36v1.64h-1.5a2.5 2.5 0 0 0 0 5h3.5a3.009 3.009 0 0 0 3-3v-3h26v3a3.009 3.009 0 0 0 3 3h3.5a2.5 2.5 0 0 0 0-5h-1.5v-1.64a13.009 13.009 0 0 0 9-12.36v-4a3 3 0 0 0 0-6zm-16 1a1 1 0 0 1 1-1h8v8h-9zm0 9h9v2h-9zm-9.5-25a.5.5 0 0 1 0 1h-11a.5.5 0 0 1 0-1zm-1.5-4v2h-8v-2a2.006 2.006 0 0 1 2-2h4a2.006 2.006 0 0 1 2 2zm-22-9a1 1 0 0 1 1-1h17a1 1 0 0 1 1 1v5h-2v-2a2.006 2.006 0 0 0 -2-2h-11a2.006 2.006 0 0 0 -2 2v25h-2zm-5 32a1 1 0 0 1 0-2h36v2zm12 22a1 1 0 0 1 -1 1h-3.5a.5.5 0 0 1 0-1h2.5a1 1 0 0 0 1-1v-2.17c.33.05.66.09 1 .12zm34.5 0a.5.5 0 0 1 0 1h-3.5a1 1 0 0 1 -1-1v-3.05c.34-.03.67-.07 1-.12v2.17a1 1 0 0 0 1 1zm5.5-16a11.007 11.007 0 0 1 -11 11h-28a11.007 11.007 0 0 1 -11-11v-4h34v7a1 1 0 0 0 1 1h11a1 1 0 0 0 1-1v-7h3zm2-6h-5v-2h5a1 1 0 0 1 0 2z"/><path d="m21 27h2v2h-2z"/><path d="m24 23h2v2h-2z"/><path d="m24 27h2v2h-2z"/><path d="m27 23h2v2h-2z"/><path d="m27 27h2v2h-2z"/><path d="m30 23h2v2h-2z"/><path d="m30 27h2v2h-2z"/><path d="m33 27h2v2h-2z"/></g></svg>