<svg id="Capa_1" enable-background="new 0 0 638.8 638.8" height="512" viewBox="0 0 638.8 638.8" width="512" xmlns="http://www.w3.org/2000/svg"><g><path d="m476.8 0c-34.2 0-61.9 27.8-61.9 61.9 0 5.2 4.3 9.5 9.5 9.5s9.5-4.3 9.5-9.5c0-23.7 19.3-42.9 42.9-42.9 23.7 0 42.9 19.3 42.9 42.9v304.2c0 5.2 4.3 9.5 9.5 9.5s9.5-4.3 9.5-9.5v-304.2c0-34.1-27.8-61.9-61.9-61.9z" fill="#c3bec6"/><path d="m235.5 185.5h-42v-103.1c0-5.5 4.5-10 10-10h22c5.5 0 10 4.5 10 10z" fill="#a7ccf9"/><path d="m225.4 72.4h-21.7c-1.3 0-2.6.3-3.7.7 3.8 1.5 6.4 5.1 6.4 9.4v103h29.1v-103c0-5.5-4.5-10.1-10.1-10.1z" fill="#8cbdf9"/><path d="m193.6 104.9h42v19h-42z" fill="#4c5e71"/><g><path d="m151.6 185.5h-42v-124.1c0-5.5 4.5-10 10-10h22c5.5 0 10 4.5 10 10z" fill="#a7dda7"/><path d="m141.5 51.5h-21.7c-1.3 0-2.6.3-3.7.7 3.8 1.5 6.4 5.1 6.4 9.4v123.9h29.1v-123.9c0-5.6-4.5-10.1-10.1-10.1z" fill="#8ace9b"/><path d="m109.6 83.9h42v19h-42z" fill="#4c5e71"/></g><g><path d="m340.4 366.1c0-23.6-19.4-42.6-43.1-41.9h-49.3v46.5h92.4z" fill="#eabc73"/><g><path d="m434.8 596.9-10.5-42v-10.2h52.5v58.3h-41.7z" fill="#c3bec6"/><path d="m204 596.9 10.5-42v-10.2h-52.4v58.3h41.7z" fill="#c3bec6"/><path d="m550.2 393.8h-461.5v14.3l24.3 113.7c4.1 19.3 21.2 33.2 41 33.2h330.8c19.8 0 36.9-13.8 41-33.2l24.4-113.7z" fill="#e2dfe2"/><path d="m521.1 393.8v14.3l-24.4 113.7c-4.1 19.3-21.2 33.2-41 33.2h29.1c19.8 0 36.9-13.8 41-33.2l24.4-113.7v-14.3z" fill="#d3ced5"/><path d="m88.7 408.1c-11.6 0-21-9.4-21-21s9.4-21 21-21h461.5c11.6 0 21 9.4 21 21s-9.4 21-21 21z" fill="#f4f2f4"/><path d="m550.2 366.1h-29.1c11.6 0 21 9.4 21 21s-9.4 21-21 21h29.1c11.6 0 21-9.4 21-21s-9.4-21-21-21z" fill="#e2dfe2"/></g><path d="m539.2 459.5 4-19h-447.6l4.1 19z" fill="#c3bec6"/><g><path d="m193.6 324.2c-23.2 0-42 18.8-42 42v115.4c0 5.8 4.7 10.5 10.5 10.5h83.9c5.8 0 10.5-4.7 10.5-10.5v-114.6c0-22.9 17.9-42.2 40.8-42.8z" fill="#efd27c"/><path d="m151.6 408.1h104.9v42h-104.9z" fill="#eaa96a"/></g></g><path d="m466.3 103.9c0-23.2-18.8-42-42-42s-42 18.8-42 42v12h83.9z" fill="#e2dfe2"/><path d="m424.3 61.9c-5.1 0-10 .9-14.6 2.6 16 5.9 27.4 21.3 27.4 39.4v12h29.1v-12c.1-23.2-18.7-42-41.9-42z" fill="#d3ced5"/><path d="m466.3 145.9c11.6 0 21-9.4 21-21s-9.4-21-21-21h-83.9c-11.6 0-21 9.4-21 21s9.4 21 21 21z" fill="#f4f2f4"/><path d="m466.3 103.9h-29.1c11.6 0 21 9.4 21 21s-9.4 21-21 21h29.1c11.6 0 21-9.4 21-21s-9.4-21-21-21z" fill="#e2dfe2"/><g><g><path d="m382.4 218.3c-5.2 0-9.5-4.3-9.5-9.5v-21c0-5.2 4.3-9.5 9.5-9.5s9.5 4.3 9.5 9.5v21c0 5.2-4.3 9.5-9.5 9.5z" fill="#a7ccf9"/></g></g><g><g><path d="m424.3 218.3c-5.2 0-9.5-4.3-9.5-9.5v-21c0-5.2 4.3-9.5 9.5-9.5s9.5 4.3 9.5 9.5v21c0 5.2-4.2 9.5-9.5 9.5z" fill="#a7ccf9"/></g></g><g><g><path d="m466.3 218.3c-5.2 0-9.5-4.3-9.5-9.5v-21c0-5.2 4.3-9.5 9.5-9.5s9.5 4.3 9.5 9.5v21c0 5.2-4.3 9.5-9.5 9.5z" fill="#a7ccf9"/></g></g><path d="m267.5 219.3h-189.8c-5.5 0-10-4.5-10-10v-22c0-5.5 4.5-10 10-10h189.8c5.5 0 10 4.5 10 10v22c0 5.5-4.5 10-10 10z" fill="#eaa96a"/><path d="m624.1 638.8h-609.4c-5.5 0-10-4.5-10-10v-22c0-5.5 4.5-10 10-10h609.4c5.5 0 10 4.5 10 10v22c0 5.6-4.5 10-10 10z" fill="#eaa96a"/><g fill="#e5935d"><path d="m624 596.9h-29.1c5.6 0 10.1 4.5 10.1 10.1v21.7c0 5.6-4.5 10.1-10.1 10.1h29.1c5.6 0 10.1-4.5 10.1-10.1v-21.7c0-5.6-4.5-10.1-10.1-10.1z"/><path d="m267.3 177.3h-29.1c5.6 0 10.1 4.5 10.1 10.1v21.7c0 5.6-4.5 10.1-10.1 10.1h29.1c5.6 0 10.1-4.5 10.1-10.1v-21.7c.1-5.5-4.5-10.1-10.1-10.1z"/></g></g></svg>