<?xml version="1.0" encoding="iso-8859-1"?>
<!-- Generator: Adobe Illustrator 19.0.0, SVG Export Plug-In . SVG Version: 6.00 Build 0)  -->
<svg version="1.1" id="Capa_1" xmlns="http://www.w3.org/2000/svg" xmlns:xlink="http://www.w3.org/1999/xlink" x="0px" y="0px"
	 viewBox="0 0 512.001 512.001" style="enable-background:new 0 0 512.001 512.001;" xml:space="preserve">
<rect x="44.745" y="199.23" style="fill:#78A7AF;" width="15" height="67.48"/>
<path style="fill:#ABCCD3;" d="M72.246,289.044v-21.714c0-3.069-2.511-5.58-5.58-5.58h-28.84c-3.069,0-5.58,2.511-5.58,5.58v21.714
	H72.246z"/>
<path style="fill:#FCC96C;" d="M90.109,203.657c2.832,0,4.521-2.231,3.752-4.957l-17.016-60.314
	c-0.769-2.726-3.716-4.957-6.549-4.957H34.194c-2.833,0-5.78,2.231-6.549,4.957L10.629,198.7c-0.769,2.726,0.919,4.957,3.752,4.957
	H90.109z"/>
<path style="opacity:0.1;enable-background:new    ;" d="M32.637,198.7l17.016-60.314c0.769-2.726,3.716-4.957,6.549-4.957H34.194
	c-2.833,0-5.78,2.231-6.549,4.957L10.629,198.7c-0.769,2.726,0.919,4.957,3.752,4.957h22.007
	C33.556,203.657,31.868,201.426,32.637,198.7z"/>
<rect x="452.25" y="199.23" style="fill:#78A7AF;" width="15" height="67.48"/>
<path style="fill:#ABCCD3;" d="M479.755,289.044V267.33c0-3.069-2.511-5.58-5.58-5.58h-28.84c-3.069,0-5.58,2.511-5.58,5.58v21.714
	L479.755,289.044L479.755,289.044z"/>
<path style="fill:#FCC96C;" d="M497.619,203.657c2.833,0,4.521-2.231,3.752-4.957l-17.016-60.315
	c-0.769-2.727-3.716-4.957-6.549-4.957h-36.103c-2.833,0-5.78,2.23-6.549,4.957L418.139,198.7c-0.769,2.726,0.92,4.957,3.753,4.957
	H497.619z"/>
<path style="opacity:0.1;enable-background:new    ;" d="M441.619,198.7l17.015-60.315c0.769-2.727,3.716-4.957,6.549-4.957h-23.48
	c-2.833,0-5.78,2.23-6.549,4.957L418.139,198.7c-0.769,2.726,0.92,4.957,3.753,4.957h23.48
	C442.538,203.657,440.85,201.426,441.619,198.7z"/>
<path style="fill:#CB7C52;" d="M69.461,373.656c0-2.833,2.318-5.151,5.151-5.151H78.6V340.88c0-8.499,6.954-15.453,15.453-15.453
	H108.3v-39.361c-0.075-0.003-0.145-0.023-0.22-0.023H5.151c-2.833,0-5.151,2.318-5.151,5.151v93.082
	c0,2.833,2.318,5.151,5.151,5.151h64.311L69.461,373.656L69.461,373.656z"/>
<path style="fill:#FFBB4A;" d="M94.052,325.428H108.3v-39.361c-0.075-0.003-0.145-0.023-0.22-0.023H5.151
	c-2.833,0-5.151,2.318-5.151,5.151v35.463h88.029C89.883,325.867,91.918,325.428,94.052,325.428z"/>
<path style="opacity:0.1;enable-background:new    ;" d="M22.238,384.277v-93.082c0-2.833,2.318-5.151,5.151-5.151H5.151
	c-2.833,0-5.151,2.318-5.151,5.151v93.082c0,2.833,2.318,5.151,5.151,5.151h22.238C24.556,389.428,22.238,387.109,22.238,384.277z"
	/>
<path style="fill:#FFFFFF;" d="M56.62,313.23c-1.98,0-3.91-0.8-5.31-2.19c-1.39-1.4-2.19-3.33-2.19-5.3c0-1.98,0.8-3.91,2.19-5.31
	c1.4-1.39,3.33-2.19,5.31-2.19c1.97,0,3.9,0.8,5.3,2.19c1.39,1.4,2.2,3.33,2.2,5.31c0,1.97-0.809,3.9-2.2,5.3
	C60.52,312.43,58.59,313.23,56.62,313.23z"/>
<path style="fill:#CB7C52;" d="M506.849,286.044H403.92c-0.26,0-0.509,0.04-0.759,0.077v39.307h14.248
	c8.499,0,15.453,6.954,15.453,15.453v27.624h3.988c2.833,0,5.151,2.318,5.151,5.151v15.772h64.849c2.833,0,5.151-2.318,5.151-5.151
	v-93.082C512,288.362,509.682,286.044,506.849,286.044z"/>
<path style="fill:#FFBB4A;" d="M506.849,286.044H403.92c-0.26,0-0.509,0.04-0.759,0.077v39.307h14.248
	c2.134,0,4.169,0.439,6.023,1.23H512v-35.463C512,288.362,509.682,286.044,506.849,286.044z"/>
<path style="fill:#FFFFFF;" d="M455.38,313.24c-1.97,0-3.9-0.81-5.3-2.2c-1.39-1.4-2.2-3.33-2.2-5.31c0-1.97,0.81-3.9,2.2-5.3
	c1.4-1.39,3.33-2.19,5.3-2.19c1.98,0,3.91,0.8,5.31,2.19c1.39,1.4,2.2,3.33,2.2,5.3c0,1.98-0.81,3.91-2.2,5.31
	C459.29,312.43,457.36,313.24,455.38,313.24z"/>
<path style="fill:#FF9F3D;" d="M407.931,329.538v-71.574c0-2.833-2.318-5.151-5.151-5.151H109.221c-2.833,0-5.151,2.318-5.151,5.151
	v71.574H407.931z"/>
<path style="opacity:0.1;enable-background:new    ;" d="M126.24,329.538v-71.574c0-2.833,2.318-5.151,5.151-5.151h-22.17
	c-2.833,0-5.151,2.318-5.151,5.151v71.574H126.24z"/>
<g>
	<path style="fill:#FFFFFF;" d="M244.577,329.538v-23.119c0-8.499-6.954-15.453-15.453-15.453h-80.118
		c-8.498,0-15.453,6.954-15.453,15.453v23.119H244.577z"/>
	<path style="fill:#FFFFFF;" d="M381.656,329.538v-23.119c0-8.499-6.954-15.453-15.453-15.453h-80.117
		c-8.499,0-15.453,6.954-15.453,15.453v23.119H381.656z"/>
</g>
<path style="fill:#FFCFAB;" d="M437.631,373v-32.12c0-8.499-6.954-15.453-15.453-15.453H89.822c-8.499,0-15.453,6.954-15.453,15.453
	V373H437.631z"/>
<path style="opacity:0.1;enable-background:new    ;" d="M102.503,373v-32.12c0-8.499,6.954-15.453,15.453-15.453H89.822
	c-8.499,0-15.453,6.954-15.453,15.453V373H102.503z"/>
<path style="fill:#FF9F3D;" d="M105.773,452.197c2.833,0,5.151-2.318,5.151-5.151v-27.442c0-2.833,2.318-5.151,5.151-5.151h279.85
	c2.833,0,5.151,2.318,5.151,5.151v27.442c0,2.833,2.318,5.151,5.151,5.151h35.391c2.833,0,5.151-2.318,5.151-5.151v-73.391
	c0-2.833-2.318-5.151-5.151-5.151H70.382c-2.833,0-5.151,2.318-5.151,5.151v73.391c0,2.833,2.318,5.151,5.151,5.151H105.773z"/>
<g style="opacity:0.1;">
	<path d="M87.709,447.046v-73.391c0-2.833,2.318-5.151,5.151-5.151H70.382c-2.833,0-5.151,2.318-5.151,5.151v73.391
		c0,2.833,2.318,5.151,5.151,5.151H92.86C90.027,452.197,87.709,449.879,87.709,447.046z"/>
</g>
<path style="fill:#B1E8FF;" d="M370.462,187.019c0,2.833-2.318,5.151-5.151,5.151H146.689c-2.833,0-5.151-2.318-5.151-5.151V72.454
	c0-2.833,2.318-5.151,5.151-5.151h218.622c2.833,0,5.151,2.318,5.151,5.151L370.462,187.019L370.462,187.019z"/>
<path style="opacity:0.1;enable-background:new    ;" d="M164.091,187.019V72.454c0-2.833,2.318-5.151,5.151-5.151h-22.553
	c-2.833,0-5.151,2.318-5.151,5.151V187.02c0,2.833,2.318,5.151,5.151,5.151h22.553C166.409,192.169,164.091,189.852,164.091,187.019
	z"/>
<polygon style="fill:#86D5B5;" points="250.328,107.582 201.491,192.169 299.165,192.169 "/>
<path style="fill:#FCC96C;" d="M260.733,192.169h104.578c2.833,0,5.151-2.318,5.151-5.151v-8.431L319.517,90.35L260.733,192.169z"/>
<path style="fill:#CB7C52;" d="M365.311,199.669H146.689c-6.976,0-12.651-5.675-12.651-12.651V72.454
	c0-6.976,5.675-12.651,12.651-12.651h218.622c6.976,0,12.651,5.675,12.651,12.651V187.02
	C377.962,193.994,372.287,199.669,365.311,199.669z M149.039,184.669h213.923V74.803H149.039V184.669z"/>
<circle style="fill:#FFFFFF;" cx="190.77" cy="110.04" r="18.462"/>
<g>
</g>
<g>
</g>
<g>
</g>
<g>
</g>
<g>
</g>
<g>
</g>
<g>
</g>
<g>
</g>
<g>
</g>
<g>
</g>
<g>
</g>
<g>
</g>
<g>
</g>
<g>
</g>
<g>
</g>
</svg>
