<svg height="483pt" viewBox="0 -34 483.21143 483" width="483pt" xmlns="http://www.w3.org/2000/svg"><path d="m422.644531 229.582031h12.148438v53.113281h-12.148438zm0 0" fill="#ffc34c"/><path d="m422.644531 229.582031h8v53.113281h-8zm0 0" fill="#f9bb32"/><path d="m413.761719 279.402344h29.917969c3.3125 0 6 2.683594 6 6v9.234375h-41.917969v-9.234375c0-3.316406 2.6875-6 6-6zm0 0" fill="#ffd551"/><path d="m458.402344 248.984375h-59.367188c-2.644531 0-4.5625-2.515625-3.855468-5.066406l10.722656-38.804688c.480468-1.734375 2.054687-2.933593 3.855468-2.933593h37.921876c1.796874 0 3.375 1.199218 3.855468 2.933593l10.726563 38.804688c.703125 2.550781-1.214844 5.066406-3.859375 5.066406zm0 0" fill="#ff624b"/><path d="m411.179688 243.921875 10.722656-38.804687c.480468-1.734376 2.058594-2.933594 3.859375-2.933594h-16c-1.800781 0-3.378907 1.199218-3.859375 2.933594l-10.722656 38.804687c-.703126 2.546875 1.210937 5.066406 3.855468 5.066406h16c-2.644531-.003906-4.558594-2.519531-3.855468-5.066406zm0 0" fill="#ff4b34"/><path d="m429.761719 279.402344h-16c-3.3125 0-6 2.683594-6 6v9.234375h16v-9.234375c0-3.316406 2.6875-6 6-6zm0 0" fill="#ffc34c"/><path d="m480.851562 408.449219-5.675781 3.824219c-2.261719 1.519531-5.148437.617187-6.453125-2.019532l-30.21875-61.03125 13.855469-9.328125 30.21875 61.03125c1.304687 2.636719.53125 6.003907-1.726563 7.523438zm0 0" fill="#e58d23"/><path d="m376.863281 408.449219 5.675781 3.824219c2.257813 1.519531 5.144532.617187 6.449219-2.019532l30.222657-61.03125-13.855469-9.328125-30.222657 61.03125c-1.304687 2.636719-.527343 6.003907 1.730469 7.523438zm0 0" fill="#e58d23"/><path d="m476.722656 410.253906-30.21875-61.03125 7.855469-5.285156-2-4.042969-13.855469 9.328125 30.21875 61.03125c1.304688 2.636719 4.191406 3.539063 6.449219 2.019532l1.972656-1.328126c-.148437-.21875-.300781-.441406-.421875-.691406zm0 0" fill="#bf6c0d"/><path d="m384.863281 408.449219c-2.257812-1.519531-3.035156-4.886719-1.730469-7.523438l28.222657-56.992187-6-4.039063-30.222657 61.03125c-1.304687 2.632813-.527343 6 1.730469 7.523438l5.675781 3.820312c2.042969 1.375 4.589844.753907 6.023438-1.328125zm0 0" fill="#bf6c0d"/><path d="m327.441406 407.007812-11.542968 6.664063c-2.835938 1.636719-6.457032.667969-8.09375-2.167969l-29.617188-51.300781 21.800781-12.585937 29.621094 51.300781c1.636719 2.832031.667969 6.457031-2.167969 8.089843zm0 0" fill="#e58d23"/><path d="m19.863281 407.007812 11.542969 6.664063c2.832031 1.636719 6.457031.667969 8.089844-2.167969l29.621094-51.300781-21.804688-12.585937-29.617188 51.300781c-1.636718 2.832031-.667968 6.457031 2.167969 8.089843zm0 0" fill="#e58d23"/><path d="m294.1875 360.203125 9.804688-5.660156-4-6.925781-21.804688 12.585937 29.621094 51.304687c1.636718 2.832032 5.257812 3.804688 8.089844 2.167969l6.871093-3.964843zm0 0" fill="#bf6c0d"/><path d="m35.863281 407.007812c-2.835937-1.632812-3.804687-5.257812-2.167969-8.089843l25.617188-44.375-12-6.925781-29.617188 51.300781c-1.636718 2.832031-.667968 6.457031 2.167969 8.089843l11.542969 6.664063c2.832031 1.636719 6.457031.667969 8.089844-2.167969l1.039062-1.796875zm0 0" fill="#bf6c0d"/><path d="m312.488281 254.648438h-269.539062v-59.242188c0-9.816406 7.957031-17.769531 17.773437-17.769531h233.996094c9.816406 0 17.769531 7.953125 17.769531 17.769531zm0 0" fill="#f9bb32"/><path d="m116.722656 177.636719h-56c-9.816406 0-17.773437 7.953125-17.773437 17.769531v59.242188h56v-59.242188c0-9.816406 7.957031-17.769531 17.773437-17.769531zm0 0" fill="#db9c2e"/><path d="m340.628906 364.589844h-325.820312v-79.972656c0-16.359376 13.261718-29.621094 29.621094-29.621094h266.578124c16.359376 0 29.621094 13.261718 29.621094 29.621094zm0 0" fill="#ffdf74"/><path d="m160.492188 254.699219h-88.859376v-20.734375c0-6.542969 5.304688-11.847656 11.847657-11.847656h65.164062c6.546875 0 11.847657 5.304687 11.847657 11.847656zm0 0" fill="#fff4c1"/><path d="m284.898438 254.699219h-88.859376v-20.734375c0-6.542969 5.304688-11.847656 11.847657-11.847656h65.164062c6.542969 0 11.847657 5.304687 11.847657 11.847656zm0 0" fill="#fff4c1"/><path d="m304.53125 114.105469h-252.53125c-4.417969 0-8-3.582031-8-8v-98c0-4.417969 3.582031-8 8-8h252.535156c4.417969 0 8 3.582031 8 8v98c-.003906 4.421875-3.585937 8-8.003906 8zm0 0" fill="#bf6c0d"/><path d="m470.535156 356.558594h-83.628906c-2.3125 0-4.1875-1.871094-4.1875-4.183594v-55.628906c0-2.3125 1.875-4.1875 4.1875-4.1875h83.628906c2.3125 0 4.183594 1.875 4.183594 4.1875v55.628906c0 2.3125-1.871094 4.183594-4.183594 4.183594zm0 0" fill="#a56021"/><path d="m100.429688 254.996094h-56c-16.359376 0-29.621094 13.261718-29.621094 29.621094v79.972656h56v-79.972656c0-16.359376 13.261718-29.621094 29.621094-29.621094zm0 0" fill="#ffd551"/><path d="m349.515625 375.695312h-343.589844c-3.273437 0-5.925781-2.652343-5.925781-5.921874v-65.164063c0-3.273437 2.652344-5.925781 5.925781-5.925781h343.589844c3.269531 0 5.921875 2.652344 5.921875 5.925781v65.164063c0 3.269531-2.652344 5.921874-5.921875 5.921874zm0 0" fill="#a56021"/><path d="m339.4375 365.699219c-3.3125 0-6-2.6875-6-6v-45.011719c0-3.316406 2.6875-6 6-6 3.316406 0 6 2.683594 6 6v45.011719c0 3.308593-2.683594 6-6 6zm0 0" fill="#bf6c0d"/><path d="m107.480469 222.117188h-24c-6.542969 0-11.847657 5.304687-11.847657 11.847656v20.734375h24v-20.734375c0-6.542969 5.308594-11.847656 11.847657-11.847656zm0 0" fill="#fce575"/><path d="m231.886719 222.117188h-24c-6.542969 0-11.847657 5.304687-11.847657 11.847656v20.734375h24v-20.734375c0-6.542969 5.304688-11.847656 11.847657-11.847656zm0 0" fill="#fce575"/><path d="m64.003906 369.773438v-65.164063c0-3.273437 2.648438-5.925781 5.921875-5.925781h-64c-3.273437 0-5.92187475 2.652344-5.92187475 5.925781v65.164063c0 3.269531 2.64843775 5.921874 5.92187475 5.921874h64c-3.273437 0-5.921875-2.652343-5.921875-5.921874zm0 0" fill="#8c4c17"/><path d="m406.71875 352.375v-55.628906c0-2.3125 1.875-4.1875 4.1875-4.1875h-24c-2.3125 0-4.1875 1.875-4.1875 4.1875v55.628906c0 2.3125 1.875 4.183594 4.1875 4.183594h24c-2.3125 0-4.1875-1.871094-4.1875-4.183594zm0 0" fill="#8c4c17"/><path d="m392.71875 342.558594v-36c0-2.207032 1.792969-4 4-4h64c2.210938 0 4 1.792968 4 4v36c0 2.210937-1.789062 4-4 4h-64c-2.207031 0-4-1.789063-4-4zm0 0" fill="#e58d23"/><path d="m404.71875 314.558594c0-2.207032 1.792969-4 4-4h56v-4c0-2.207032-1.789062-4-4-4h-64c-2.207031 0-4 1.792968-4 4v36c0 2.210937 1.792969 4 4 4h8zm0 0" fill="#bf6c0d"/><path d="m141.6875 201.550781c0 9.941407-8.058594 18-18 18s-18-8.058593-18-18c0-9.941406 8.058594-18 18-18s18 8.058594 18 18zm0 0" fill="#db9c2e"/><path d="m109.109375 351.382812c0 9.941407-8.058594 18-18 18s-18-8.058593-18-18c0-9.941406 8.058594-18 18-18s18 8.058594 18 18zm0 0" fill="#8c4c17"/><path d="m96 106.105469v-98c0-4.417969 3.582031-8 8-8h-52c-4.417969 0-8 3.582031-8 8v98c0 4.417969 3.582031 8 8 8h52c-4.421875 0-8-3.578125-8-8zm0 0" fill="#a56021"/><path d="m67.332031 98.773438c-4.417969 0-8-3.582032-8-8v-67.332032c0-4.417968 3.582031-8 8-8h221.867188c4.417969 0 8 3.582032 8 8v67.332032c0 4.417968-3.582031 8-8 8zm0 0" fill="#fcda4f"/><path d="m79.332031 35.441406c0-4.417968 3.582031-8 8-8h209.867188v-4c0-4.417968-3.582031-8-8-8h-221.867188c-4.417969 0-8 3.582032-8 8v67.332032c0 4.417968 3.582031 8 8 8h12zm0 0" fill="#ccc033"/></svg>