<svg height="512" viewBox="0 0 60 56" width="512" xmlns="http://www.w3.org/2000/svg"><g id="Page-1" fill="none" fill-rule="evenodd"><g id="030---Shorts-and-Tshirts"><path id="Shape" d="m54 30v4h-28v-4c.0032948-1.1032019.8967981-1.9967052 2-2h24c1.1032019.0032948 1.9967052.8967981 2 2z" fill="#fec108"/><path id="Shape" d="m57.93 52.2-14.07 2.64c-.4938631.0919324-.9800381-.1938021-1.14-.67l-2.72-8.17-2.72 8.17c-.1599619.4761979-.6461369.7619324-1.14.67l-14.07-2.64c-.2753061-.051447-.5164204-.2159879-.6646873-.4535951s-.1900964-.5265018-.1153127-.7964049l3.32-11.95 1.39-5h28l4.71 16.95c.0747837.2699031.0329542.5587977-.1153127.7964049s-.3893812.4021481-.6646873.4535951z" fill="#ffeb3a"/><path id="Shape" d="m58.71 50.95-4.71-16.95h-3l4.71 16.95c.0747837.2699031.0329542.5587977-.1153127.7964049s-.3893812.4021481-.6646873.4535951l-12.049 2.261c.2284516.3012406.6072603.4478888.979.379l14.07-2.64c.2753061-.051447.5164204-.2159879.6646873-.4535951s.1900964-.5265018.1153127-.7964049z" fill="#fdd834"/><path id="Shape" d="m42.29 11.61-4.63 4.63c-.3930079.3899779-1.0269921.3899779-1.42 0l-2.24-2.24v14h-6c-1.1032019.0032948-1.9967052.8967981-2 2v4l-1.39 5h-13.61c-.5522847 0-1-.4477153-1-1v-24l-2.24 2.24c-.39300794.3899779-1.02699206.3899779-1.42 0l-4.63-4.63c-.38997787-.3930079-.38997787-1.0269921 0-1.42l8.9-8.9c.1868-.18393188.4378533-.28793967.7-.29h4.82c-.0605952.32313136-.0907273.65123698-.09.98 0 3.3026628 2.6773372 5.98 5.98 5.98s5.98-2.6773372 5.98-5.98c.0007273-.32876302-.0294048-.65686864-.09-.98h4.78c.2621467.00206033.5132.10606812.7.29l8.9 8.9c.3899779.3930079.3899779 1.0269921 0 1.42z" fill="#ff5722"/><path id="Shape" d="m23 30v4l-1.39 5h3l1.39-5v-4c.0032948-1.1032019.8967981-1.9967052 2-2h-3c-1.1032019.0032948-1.9967052.8967981-2 2z" fill="#d84315"/><path id="Shape" d="m33.24 16.24c-.3752389-.3754623-.9397487-.4878195-1.4301554-.284651-.4904068.2031685-.8100679.6818251-.8098446 1.212651l-.0000001 10.832h3.0000001v-11.477c-.2820835.0182575-.5585583-.084693-.76-.283z" fill="#d84315"/><path id="Shape" d="m42.29 10.19-8.9-8.9c-.1868-.18393188-.4378533-.28793967-.7-.29h-3c.2621467.00206033.5132.10606812.7.29l8.9 8.9c.3899779.3930079.3899779 1.0269921 0 1.42l-3.84 3.84.79.79c.3930079.3899779 1.0269921.3899779 1.42 0l4.63-4.63c.3899779-.3930079.3899779-1.0269921 0-1.42z" fill="#d84315"/><path id="Shape" d="m28 1.98c0 3.3026628-2.6773372 5.98-5.98 5.98s-5.98-2.6773372-5.98-5.98c-.0007273-.32876302.0294048-.65686864.09-.98h11.78c.0605952.32313136.0907273.65123698.09.98z" fill="#c81e1e"/><circle id="Oval" cx="50.5" cy="46.5" fill="#f57c00" r="2.5"/><circle id="Oval" cx="27.5" cy="13.5" fill="#f57c00" r="2.5"/><g fill="#000"><path id="Shape" d="m55 33.862v-3.862c0-1.6568542-1.3431458-3-3-3h-24c-1.6568542 0-3 1.3431458-3 3v3.862l-4.672 16.82c-.1495809.5396611-.0660536 1.1173148.2302712 1.5924991.2963249.4751842.7783002.8043658 1.3287288.9075009l14.072 2.638c.1203438.0226648.2425405.0340475.365.034.860888-.001261 1.6251853-.5511528 1.9-1.367l1.776-5.325 1.775 5.326c.3158369.9489373 1.2840848 1.5186958 2.267 1.334l14.071-2.638c.5504286-.1031351 1.0324039-.4323167 1.3287288-.9075009.2963248-.4751843.3798521-1.052838.2302712-1.5924991zm-28-3.862c0-.5522847.4477153-1 1-1h24c.5522847 0 1 .4477153 1 1v3h-26zm30.744 21.218-14.071 2.638-2.725-8.172c-.1348836-.4103745-.5180268-.6877501-.95-.6877501s-.8151164.2773756-.95.6877501l-2.725 8.172-14.067-2.638 4.504-16.218h8.52l2.472 7.417c.1747981.5246705.7418295.8082981 1.2665.6335s.8082981-.7418295.6335-1.2665l-2.265-6.784h15.853l4.506 16.217z"/><path id="Shape" d="m21 39c0-.5522847-.4477153-1-1-1h-9v-24c-.0000863-.4043959-.2437275-.7689341-.6173454-.923678-.373618-.1547439-.80366035-.0692299-1.0896546.216678l-2.246 2.24-4.63-4.633 8.893-8.9h3.731c0 3.85467141 3.1248286 6.9795 6.9795 6.9795s6.9795-3.12482859 6.9795-6.9795h3.684l8.9 8.906-4.636 4.63-2.24-2.24c-.2855141-.2862388-.7152946-.3723992-1.0890789-.2183335-.3737844.1540657-.6180276.5180438-.6189211.9223335v10c0 .5522847.4477153 1 1 1s1-.4477153 1-1v-7.586l.533.533c.7835116.7803533 2.0504884.7803533 2.834 0l4.633-4.63c.7809022-.7832848.7809022-2.0507152 0-2.834l-8.9-8.9c-.3744944-.37302039-.8814263-.58262415-1.41-.583h-21.38c-.5285737.00037585-1.0355056.20997961-1.41.583l-8.9 8.9c-.78035328.7835116-.78035328 2.0504884 0 2.834l4.631 4.631c.78316909.7802378 2.04983091.7802378 2.833 0l.536-.534v21.586c0 1.1045695.8954305 2 2 2h9c.5522847 0 1-.4477153 1-1zm1.02-32.04c-2.7409007-.00326787-4.9648034-2.21912914-4.978-4.96h9.958c-.0132015 2.74165019-2.2383189 4.9578314-4.98 4.96z"/><path id="Shape" d="m50.5 43c-1.9329966 0-3.5 1.5670034-3.5 3.5s1.5670034 3.5 3.5 3.5 3.5-1.5670034 3.5-3.5-1.5670034-3.5-3.5-3.5zm0 5c-.8284271 0-1.5-.6715729-1.5-1.5s.6715729-1.5 1.5-1.5 1.5.6715729 1.5 1.5-.6715729 1.5-1.5 1.5z"/><path id="Shape" d="m24 13.5c0 1.9329966 1.5670034 3.5 3.5 3.5s3.5-1.5670034 3.5-3.5-1.5670034-3.5-3.5-3.5-3.5 1.5670034-3.5 3.5zm5 0c0 .8284271-.6715729 1.5-1.5 1.5s-1.5-.6715729-1.5-1.5.6715729-1.5 1.5-1.5 1.5.6715729 1.5 1.5z"/></g></g></g></svg>
