<svg id="Layer_1" enable-background="new 0 0 512 512" height="512" viewBox="0 0 512 512" width="512" xmlns="http://www.w3.org/2000/svg"><g><g><path clip-rule="evenodd" d="m263.605 92.335 110.501-29.195c.85 0 1.672-.142 2.466-.34 3.713-1.077 6.435-4.536 6.435-8.561v-35.832c0-4.904-3.997-8.901-8.901-8.901h-235.39c-4.904 0-8.929 3.997-8.929 8.901v32.316z" fill="#f5a96c" fill-rule="evenodd"/></g><g><path clip-rule="evenodd" d="m16.401 104.356 117.709 37.574 117.709-37.574c.822 0 1.672-.113 2.438-.34 3.713-1.077 6.463-4.507 6.463-8.561v-32.316-3.515c0-4.904-4.025-8.901-8.901-8.901h-122.032-113.386c-4.904 0-8.901 3.997-8.901 8.901v35.831c0 4.734 3.77 8.646 8.447 8.901z" fill="#ffbc85" fill-rule="evenodd"/></g><g><path clip-rule="evenodd" d="m400.549 417.679c-.057-.68.134-1.446-.198-2.013-64.006-109.079-139.631-302.006-146.094-311.65-.765.227-1.587.34-2.438.34h-118.574-116.844c-.142 0-.312 0-.454 0 8.391 55.702 13.55 102.476 16.158 145.45 2.636 43.882 2.608 83.795.567 125.295 35.196 55.145 58.34 65.383 94.252 81.782h274.107v-28.262c0-3.912-.17-7.54-.482-10.942z" fill="#fde588" fill-rule="evenodd"/></g><g><path clip-rule="evenodd" d="m26.606 482.991c0 10.715 8.447 19.503 18.765 19.503h97.342l20.976-15.789 21.288 15.789h46.177l15.846-15.789 15.874 15.789h15.874l15.874-15.789 15.874 15.789h52.923c10.318 0 18.765-8.788 18.765-19.503v-19.701-6.406h-255.26-100.318z" fill="#7e707d" fill-rule="evenodd"/></g><g><path clip-rule="evenodd" d="m32.672 375.101c-1.276 26.193-3.345 52.981-6.066 81.782h100.318c-9.893-42.436-46.006-81.782-94.252-81.782z" fill="#ffbc85" fill-rule="evenodd"/></g><g><path clip-rule="evenodd" d="m382.185 428.621v28.262 6.406h18.879l15.874-15.789 15.874 15.789h52.923c10.318 0 18.765-8.788 18.765-19.503v-26.108h-122.797c.312 3.403.482 7.031.482 10.943z" fill="#7e707d" fill-rule="evenodd"/></g><g><path clip-rule="evenodd" d="m366.254 295.275c-8.135-15.393-11.622-47.255-9.553-90.541 1.871-39.119 8.277-87.565 19.871-141.595-.794.227-1.616.34-2.466.34h-113.386v32.287c0 4.054-2.75 7.484-6.463 8.561-7.795 36.37-13.266 70.245-16.554 100.406-1.616 14.656-2.693 28.404-3.317 41.189-2.069 43.286 1.417 75.149 9.553 90.541 33.194 62.789 128.58.113 137.566 79.202v.028c.085.652.142 1.304.198 1.984h122.797v-30.275c0-98.562-103.408-26.219-138.246-92.127z" fill="#fde588" fill-rule="evenodd"/></g><path clip-rule="evenodd" d="m350.266 502.494h13.153c10.318 0 18.765-8.788 18.765-19.503v-19.701-6.406h-31.918v6.406z" fill="#6a5c69" fill-rule="evenodd"/><path clip-rule="evenodd" d="m466.459 417.679v45.611h19.276c10.318 0 18.765-8.788 18.765-19.503v-26.108z" fill="#6a5c69" fill-rule="evenodd"/><g><path clip-rule="evenodd" d="m202.468 245.752c-2.069 43.315 1.417 93.206 9.553 108.627 33.194 62.846 139.323 25.031 137.566 77.983l.68 24.52h31.918v-28.262c0-3.912-.17-7.54-.482-10.942l-.198-2.013c-8.986-79.146-104.372-16.441-137.566-79.287-8.135-15.421-11.622-47.312-9.553-90.626z" fill="#fdd76f" fill-rule="evenodd"/></g><g><path clip-rule="evenodd" d="m222.253 104.356c-7.739 36.285-13.181 70.075-16.469 100.179-1.616 14.656-2.693 28.432-3.317 41.217h31.918c.624-12.785 1.701-26.561 3.317-41.217 3.288-30.218 8.759-64.093 16.554-100.52-.765.227-1.587.34-2.438.34h-29.565z" fill="#fdd76f" fill-rule="evenodd"/></g><g><path clip-rule="evenodd" d="m338.446 63.479c-11.509 53.803-17.887 102.05-19.758 141.056-.028.057-.028.142-.028.198h38.041c1.871-39.119 8.277-87.565 19.871-141.595-.028 0-.057 0-.085.028-.765.198-1.559.312-2.381.312h-35.66z" fill="#fdd76f" fill-rule="evenodd"/></g><g><path clip-rule="evenodd" d="m318.66 204.734c-2.069 43.286 7.767 95.786 15.902 111.178 34.866 65.908 131.896-.085 131.896 98.507v3.26h38.042v-30.275-.028c-.028-98.535-103.408-26.193-138.246-92.1-6.633-12.53-10.176-36.001-10.148-67.665 0-7.229.198-14.854.595-22.876h-38.041z" fill="#fdd76f" fill-rule="evenodd"/></g><path d="m260.72 55.639h1.732c-.773-.236-1.664-.206-1.732 0z"/><path d="m438.925 320.813c-26.986-1.787-52.477-3.474-66.041-29.158-8.35-15.79-13.801-60.659-4.063-139.236.509-4.11-2.41-7.856-6.521-8.365-4.104-.516-7.856 2.409-8.366 6.521-2.039 16.456-3.484 31.991-4.356 46.46h-103.514c3.145-26.213 7.962-55.626 14.776-87.898 4.441-2.938 7.38-7.971 7.38-13.683v-24.815h99.034c-3.054 14.801-5.797 29.625-8.176 44.187-.667 4.088 2.105 7.943 6.193 8.611.409.067.816.099 1.218.099 3.61 0 6.792-2.613 7.394-6.292 2.654-16.253 5.786-32.835 9.287-49.349 4.418-2.942 7.337-7.963 7.337-13.657v-35.831c0-9.044-7.357-16.401-16.401-16.401h-235.39c-9.059 0-16.429 7.357-16.429 16.401v24.816h-105.887c-9.043 0-16.4 7.358-16.4 16.401v35.831c0 6.471 3.776 12.062 9.232 14.729 21.933 147.727 20.546 232.778 9.913 345.924-.001.007-.001.014-.002.021-.002.017-.003.035-.005.052-.01.104-.008.207-.013.311-.007.13-.02.259-.02.392v26.108c0 14.89 11.782 27.003 26.266 27.003h97.342c1.627 0 3.21-.529 4.511-1.508l16.499-12.419 16.787 12.451c1.292.958 2.858 1.476 4.468 1.476h46.177c1.984 0 3.888-.787 5.294-2.188l10.557-10.519 10.58 10.524c1.405 1.398 3.307 2.183 5.289 2.183h15.874c1.982 0 3.884-.785 5.289-2.183l10.585-10.528 10.585 10.528c1.405 1.398 3.307 2.183 5.289 2.183h52.923c14.482 0 26.266-12.113 26.266-27.003v-12.202h11.379c1.982 0 3.884-.785 5.289-2.183l10.585-10.528 10.585 10.528c1.405 1.398 3.307 2.183 5.289 2.183h52.923c14.483 0 26.266-12.113 26.266-27.003v-26.108-30.303c-.002-61.725-38.824-64.295-73.077-66.563zm-301.638-302.406c0-.76.654-1.401 1.429-1.401h235.39c.76 0 1.401.642 1.401 1.401v35.831c0 .639-.482 1.208-1.088 1.359-.044.009-.086.016-.119.021-.064.01-.128.021-.194.021h-106.396c-1.787-7.121-8.224-12.416-15.89-12.416h-114.533zm-19.859 78.449h-101.028c-.759 0-1.4-.642-1.4-1.401v-35.831c0-.759.642-1.401 1.4-1.401h235.419c.746 0 1.4.655 1.4 1.401v35.831c0 .746-.654 1.401-1.4 1.401h-100.176c-4.143 0-7.5 3.358-7.5 7.5s3.357 7.5 7.5 7.5h93.307c-9.47 46.093-15.384 89.49-17.592 126.396h-97.258c-10.514 0-20.445 0-27.882 5.729-7.608 5.863-10.855 15.913-10.855 33.604 0 3.45-.89 5.439-1.715 5.827-1.345.631-5.418-.16-11.145-4.913l-39.177-32.452c-2.516-39.841-7.214-83.328-14.682-134.192h92.785c4.143 0 7.5-3.358 7.5-7.5s-3.359-7.499-7.501-7.499zm-77.644 286.084c38.147 3.415 66.282 33.914 77.203 66.443h-82.157c2.092-22.974 3.782-44.864 4.954-66.443zm334.901 100.051c0 6.619-5.054 12.003-11.266 12.003h-49.828l-13.68-13.607c-2.926-2.91-7.652-2.91-10.578 0l-13.68 13.607h-9.685l-13.68-13.607c-2.927-2.912-7.658-2.91-10.583.005l-13.65 13.602h-40.601l-19.298-14.313c-2.669-1.98-6.323-1.967-8.979.032l-18.973 14.282h-94.833c-6.212 0-11.266-5.384-11.266-12.003v-18.608h340.579v18.607zm0-33.608h-241.984c-6.009-20.931-17.721-40.216-33.416-54.799-16.961-15.76-37.145-24.865-58.769-26.641 1.43-33.203 1.553-66.085-.072-101.491l28.484 23.594c8.012 6.649 14.649 8.554 19.626 8.554 3.203 0 5.719-.79 7.468-1.611 6.571-3.085 10.34-10.158 10.34-19.404 0-12.019 1.639-19.125 5.011-21.722 3.154-2.43 9.462-2.612 18.727-2.612h96.552c-1.334 39.787 2.142 70.52 10.656 86.63 17.489 33.102 49.81 35.242 78.326 37.13 34.282 2.27 59.052 3.91 59.052 51.609v20.763zm122.315-5.596c0 6.619-5.054 12.003-11.266 12.003h-49.828l-13.68-13.606c-2.926-2.91-7.652-2.91-10.578 0l-13.68 13.606h-8.284v-27.168c0-1.171-.019-2.313-.046-3.442h107.362zm0-33.608h-108.692c-7.183-43.859-41.239-46.118-71.684-48.134-26.988-1.787-52.479-3.475-66.055-29.17-8.653-16.373-12.431-58.396-6.161-120.839h104.455c-1.357 40.243 2.285 70.604 10.759 86.628 17.476 33.089 49.796 35.229 78.312 37.117 34.291 2.27 59.066 3.911 59.066 51.595z"/></g></svg>