<svg viewBox="0 0 68.01 62.22" xmlns="http://www.w3.org/2000/svg">
  <defs>
    <style>.a{fill:#009245;}.b{fill:#8e0210;}.c{fill:#ea2d2e;}.d{fill:#fc7c82;}.e{fill:#c6242c;}.f{fill:#fceba2;}.g{fill:#6b6b6b;}</style>
  </defs>
  <g transform="translate(-3.695 -3.079)">
    <path class="a" transform="translate(.803 .047)" d="m20.94 4.427c4.38 1.635 7.344 6.492 8.34 8.34a0.661 0.661 0 0 1 0.023 0.6 0.77 0.77 0 0 1-0.479 0.409c-2.146 0.675-8.026 2.231-12.41 0.6s-7.343-6.501-8.341-8.349a0.663 0.663 0 0 1-0.021-0.6 0.772 0.772 0 0 1 0.478-0.409c2.146-0.678 8.026-2.231 12.41-0.6z"/>
    <path class="b" transform="translate(3.946)" d="m25.04 20.34a18.89 18.89 0 0 1 0-5.666 13.94 13.94 0 0 1 2.57-6.911 14.56 14.56 0 0 1 6.451-4.683l0.923 1.98a12.23 12.23 0 0 0-5.416 3.917 12.05 12.05 0 0 0-2.177 5.988 16.91 16.91 0 0 0 0 5.085z"/>
    <path class="c" transform="translate(0,1.053)" d="m36.12 48.21h-9.672c0 6.181 6.871 11.54 15.27 14.21a15.74 15.74 0 0 1-7.192 1.806 10.1 10.1 0 0 1-4.5-1.344 10.19 10.19 0 0 1-4.51 1.344c-10.78 0.064-20.05-10.78-21.62-23.79s6.09-23.45 15.98-23.31c0.724 0.011 1.448 0.032 2.148 0.075 0.131 0.011 0.249 0.011 0.38 0.022a18.62 18.62 0 0 1 7.631 1.881 18.68 18.68 0 0 1 7.88-1.892c0.131-0.011 0.261-0.021 0.392-0.021 0.617-0.043 1.234-0.054 1.875-0.064 10.16-0.14 17.53 10.3 15.97 23.3a30.38 30.38 0 0 1-2.029 7.772h-10.93"/>
    <path class="d" transform="translate(1.726,3.69)" d="m14.67 55.25a21.59 21.59 0 0 1-1.73-1.457l1.7-1.49a19.09 19.09 0 0 0 1.543 1.3z"/>
    <path class="d" transform="translate(.427 2.537)" d="m12.16 52.73a27.52 27.52 0 0 1-6.037-14.12q-0.093-0.8-0.14-1.577l2.374-0.114q0.043 0.723 0.131 1.46a25.45 25.45 0 0 0 5.577 13.06z"/>
    <path class="e" transform="translate(3.58,3.221)" d="m39.62 46.04h28.51c0 8.858-6.135 16.04-18.63 16.04a37.6 37.6 0 0 1-11.34-1.827c-8.4-2.666-15.27-8.03-15.27-14.21z"/>
    <path class="f" transform="translate(4.327,3.218)" d="m38.87 46h23.75c0 7-4.848 12.67-14.72 12.67a29.69 29.69 0 0 1-8.965-1.445c-6.639-2.106-12.07-6.344-12.07-11.23z"/>
    <g transform="translate(45.59 51.37)">
      <path class="g" transform="translate(-39,-48)" d="m40.19 52.3a1.135 1.135 0 0 1-1.187-1.075v-2.15a1.193 1.193 0 0 1 2.374 0v2.15a1.135 1.135 0 0 1-1.187 1.075z"/>
      <path class="g" transform="translate(-37.88,-48)" d="m46.19 52.3a1.135 1.135 0 0 1-1.187-1.075v-2.15a1.193 1.193 0 0 1 2.374 0v2.15a1.135 1.135 0 0 1-1.187 1.075z"/>
    </g>
  </g>
</svg>
