<svg xmlns="http://www.w3.org/2000/svg" width="68.003" height="62.221" viewBox="0 0 68.003 62.221"><defs><style>.a{fill:#009245;}.b{fill:#8e0210;}.c{fill:#ea2d2e;}.d{fill:#fc7c82;}.e{fill:#c6242c;}.f{fill:#fceba2;}.g{fill:#6b6b6b;}</style></defs><g transform="translate(-3.698 -3.079)"><path class="a" d="M20.942,4.427c4.38,1.635,7.344,6.492,8.34,8.34a.661.661,0,0,1,.023.6.77.77,0,0,1-.479.409c-2.146.675-8.026,2.231-12.406.6S9.077,7.875,8.079,6.027a.663.663,0,0,1-.021-.6.772.772,0,0,1,.478-.409c2.146-.678,8.026-2.231,12.406-.6Z" transform="translate(0.803 0.047)"/><path class="b" d="M25.043,20.339a18.894,18.894,0,0,1,0-5.666,13.943,13.943,0,0,1,2.57-6.911,14.558,14.558,0,0,1,6.451-4.683l.923,1.98a12.229,12.229,0,0,0-5.416,3.917,12.048,12.048,0,0,0-2.177,5.988,16.906,16.906,0,0,0,0,5.085Z" transform="translate(3.946)"/><path class="c" d="M36.122,48.208H26.45c0,6.181,6.871,11.545,15.273,14.211a15.737,15.737,0,0,1-7.192,1.806,10.1,10.1,0,0,1-4.5-1.344,10.19,10.19,0,0,1-4.51,1.344C14.737,64.289,5.469,53.443,3.9,40.436S9.99,16.99,19.876,17.13c.724.011,1.448.032,2.148.075.131.011.249.011.38.022a18.617,18.617,0,0,1,7.631,1.881,18.676,18.676,0,0,1,7.88-1.892c.131-.011.261-.021.392-.021.617-.043,1.234-.054,1.875-.064,10.159-.14,17.528,10.3,15.974,23.305a30.382,30.382,0,0,1-2.029,7.772H43.2" transform="translate(0 1.053)"/><path class="d" d="M14.672,55.247a21.591,21.591,0,0,1-1.73-1.457l1.7-1.49a19.089,19.089,0,0,0,1.543,1.3Z" transform="translate(1.726 3.69)"/><path class="d" d="M12.159,52.731A27.517,27.517,0,0,1,6.122,38.606q-.093-.8-.14-1.577l2.374-.114q.043.723.131,1.46A25.454,25.454,0,0,0,14.064,51.44Z" transform="translate(0.427 2.537)"/><path class="e" d="M39.615,46.04H68.121c0,8.858-6.135,16.039-18.632,16.039a37.6,37.6,0,0,1-11.345-1.827c-8.4-2.666-15.273-8.03-15.273-14.211Z" transform="translate(3.58 3.221)"/><path class="f" d="M38.873,46H62.627c0,7-4.848,12.674-14.723,12.674a29.687,29.687,0,0,1-8.965-1.445C32.3,55.123,26.87,50.885,26.87,46Z" transform="translate(4.327 3.218)"/><g transform="translate(45.593 51.368)"><path class="g" d="M40.187,52.3A1.135,1.135,0,0,1,39,51.225v-2.15a1.193,1.193,0,0,1,2.374,0v2.15A1.135,1.135,0,0,1,40.187,52.3Z" transform="translate(-39 -48)"/><path class="g" d="M46.187,52.3A1.135,1.135,0,0,1,45,51.225v-2.15a1.193,1.193,0,0,1,2.374,0v2.15A1.135,1.135,0,0,1,46.187,52.3Z" transform="translate(-37.88 -48)"/></g></g></svg>