<?xml version="1.0" encoding="iso-8859-1"?>
<!-- Generator: Adobe Illustrator 19.0.0, SVG Export Plug-In . SVG Version: 6.00 Build 0)  -->
<svg version="1.1" id="Layer_1" xmlns="http://www.w3.org/2000/svg" xmlns:xlink="http://www.w3.org/1999/xlink" x="0px" y="0px"
	 viewBox="0 0 512 512" style="enable-background:new 0 0 512 512;" xml:space="preserve">
<g>
	<rect x="144.738" y="238.638" style="fill:#145587;" width="16.41" height="159.333"/>
	<rect x="413.156" y="238.638" style="fill:#145587;" width="16.41" height="159.333"/>
	<rect x="207.491" y="439.073" style="fill:#145587;" width="159.333" height="16.41"/>
</g>
<circle style="fill:#FB7686;" cx="152.955" cy="447.278" r="64.722"/>
<circle style="fill:#54B8AC;" cx="421.361" cy="447.278" r="64.722"/>
<circle style="fill:#ACDFEA;" cx="421.361" cy="189.331" r="64.722"/>
<circle style="fill:#F9C526;" cx="152.944" cy="127.026" r="127.026"/>
<g style="opacity:0.5;">
	<path style="fill:#E28922;" d="M152.948,103.973c-4.533,0-8.205-3.674-8.205-8.205V45.122c0-4.531,3.673-8.205,8.205-8.205
		c4.533,0,8.205,3.674,8.205,8.205v50.646C161.153,100.299,157.48,103.973,152.948,103.973z"/>
	<path style="fill:#E28922;" d="M121.691,135.231H71.043c-4.533,0-8.205-3.674-8.205-8.205c0-4.531,3.673-8.205,8.205-8.205h50.648
		c4.533,0,8.205,3.674,8.205,8.205C129.896,131.558,126.222,135.231,121.691,135.231z"/>
	<path style="fill:#E28922;" d="M152.948,217.137c-4.533,0-8.205-3.674-8.205-8.205v-50.646c0-4.531,3.673-8.205,8.205-8.205
		c4.533,0,8.205,3.674,8.205,8.205v50.646C161.153,213.464,157.48,217.137,152.948,217.137z"/>
	<path style="fill:#E28922;" d="M234.854,135.231h-50.648c-4.533,0-8.205-3.674-8.205-8.205c0-4.531,3.673-8.205,8.205-8.205h50.648
		c4.533,0,8.205,3.674,8.205,8.205C243.059,131.558,239.386,135.231,234.854,135.231z"/>
	<path style="fill:#E28922;" d="M116.848,99.13c-2.099,0-4.2-0.801-5.803-2.404L89.23,74.912c-3.204-3.204-3.204-8.399,0-11.603
		c3.205-3.204,8.4-3.204,11.604,0l21.815,21.815c3.204,3.204,3.204,8.4,0,11.603C121.048,98.329,118.947,99.13,116.848,99.13z"/>
	<path style="fill:#E28922;" d="M95.033,193.148c-2.101,0-4.2-0.801-5.803-2.404c-3.204-3.204-3.204-8.4,0-11.603l21.815-21.815
		c3.207-3.205,8.401-3.204,11.604,0c3.204,3.204,3.204,8.4,0,11.603l-21.815,21.815C99.233,192.346,97.132,193.148,95.033,193.148z"
		/>
	<path style="fill:#E28922;" d="M210.865,193.148c-2.099,0-4.2-0.801-5.803-2.404l-21.816-21.815c-3.204-3.204-3.204-8.399,0-11.603
		c3.205-3.204,8.4-3.204,11.604,0l21.815,21.815c3.204,3.204,3.204,8.4,0,11.603C215.064,192.346,212.965,193.148,210.865,193.148z"
		/>
	<path style="fill:#E28922;" d="M189.049,99.13c-2.101,0-4.2-0.801-5.803-2.404c-3.204-3.204-3.204-8.4,0-11.603l21.816-21.815
		c3.207-3.204,8.401-3.204,11.604,0c3.204,3.204,3.204,8.4,0,11.603l-21.815,21.815C193.249,98.329,191.149,99.13,189.049,99.13z"/>
</g>
<g>
</g>
<g>
</g>
<g>
</g>
<g>
</g>
<g>
</g>
<g>
</g>
<g>
</g>
<g>
</g>
<g>
</g>
<g>
</g>
<g>
</g>
<g>
</g>
<g>
</g>
<g>
</g>
<g>
</g>
</svg>
