<svg id="Layer_1" enable-background="new 0 0 512 512" height="512" viewBox="0 0 512 512" width="512" xmlns="http://www.w3.org/2000/svg"><g><path d="m41.207 363.934h30.905v72.066h-30.905z" fill="#a35418"/><circle cx="56.66" cy="324.787" fill="#64cc56" r="56.66"/><path d="m56.66 268.127c-5.357 0-10.54.744-15.453 2.133 23.782 6.726 41.207 28.592 41.207 54.527s-17.425 47.801-41.207 54.527c4.912 1.389 10.096 2.133 15.453 2.133 31.292 0 56.66-25.368 56.66-56.66s-25.368-56.66-56.66-56.66z" fill="#50a645"/><path d="m439.887 363.934h30.905v72.066h-30.905z" fill="#a35418"/><circle cx="455.34" cy="324.787" fill="#64cc56" r="56.66"/><path d="m455.34 268.127c-5.357 0-10.54.744-15.453 2.133 23.782 6.726 41.207 28.592 41.207 54.527s-17.425 47.801-41.207 54.527c4.912 1.389 10.096 2.133 15.453 2.133 31.292 0 56.66-25.368 56.66-56.66s-25.368-56.66-56.66-56.66z" fill="#50a645"/><path d="m410.53 198.24v225.76h-309.06v-225.75l154.53-118.74z" fill="#ffd180"/><path d="m379.622 174.494v249.506h30.905v-225.76z" fill="#ffba63"/><path d="m442.598 198.343-177.19-136.146c-5.549-4.263-13.267-4.263-18.816 0l-177.19 136.146c-6.77 5.202-8.047 14.915-2.851 21.693s14.897 8.055 21.667 2.855l167.782-128.918 167.782 128.918c2.806 2.155 6.114 3.198 9.397 3.198 4.639-.001 9.227-2.084 12.27-6.053 5.196-6.778 3.919-16.49-2.851-21.693z" fill="#ff7043"/><path d="m145.771 271.218h92.716v152.783h-92.716z" fill="#bf6724"/><path d="m207.581 271.218h30.905v152.783h-30.905z" fill="#a35418"/><path d="m238.49 263.72h-92.72c-4.14 0-7.5 3.36-7.5 7.5v152.78h15v-145.28h77.72v145.28h15v-152.78c0-4.14-3.36-7.5-7.5-7.5z" fill="#fdeedf"/><path d="m372.41 363.934h-103.018c-2.276 0-4.121-1.845-4.121-4.121v-22.664c0-2.276 1.845-4.121 4.121-4.121h103.018c2.276 0 4.121 1.845 4.121 4.121v22.664c0 2.276-1.845 4.121-4.121 4.121z" fill="#ff7043"/><path d="m372.41 333.028h-30.905c2.276 0 4.121 1.845 4.121 4.121v22.664c0 2.276-1.845 4.121-4.121 4.121h30.905c2.276 0 4.121-1.845 4.121-4.121v-22.664c0-2.276-1.845-4.121-4.121-4.121z" fill="#ff5722"/><path d="m275.573 271.218h90.656v61.811h-90.656z" fill="#b2ebf2"/><path d="m335.324 271.218h30.905v61.811h-30.905z" fill="#80deea"/><circle cx="256" cy="186.267" fill="#b2ebf2" r="36.056"/><path d="m256 142.711c-24.017 0-43.556 19.539-43.556 43.556s19.539 43.556 43.556 43.556 43.556-19.539 43.556-43.556-19.539-43.556-43.556-43.556zm27.682 36.532h-20.182v-20.533c9.887 2.694 17.655 10.579 20.182 20.533zm-35.182-20.533v20.532h-20.182c2.527-9.953 10.295-17.838 20.182-20.532zm-19.922 35.533h19.922v19.581c-9.57-2.607-17.154-10.078-19.922-19.581zm34.922 19.581v-19.581h19.922c-2.768 9.503-10.352 16.974-19.922 19.581z" fill="#fdeedf"/><path d="m366.229 263.717h-90.656c-4.142 0-7.5 3.358-7.5 7.5v61.811c0 4.142 3.358 7.5 7.5 7.5h90.656c4.142 0 7.5-3.358 7.5-7.5v-61.811c0-4.142-3.357-7.5-7.5-7.5zm-83.156 15h30.328v46.811h-30.328zm75.656 46.811h-30.328v-46.811h30.328z" fill="#fdeedf"/><path d="m495.507 453h-479.014c-9.109 0-16.493-7.384-16.493-16.493v-.02c0-9.109 7.384-16.493 16.493-16.493h479.015c9.109 0 16.493 7.384 16.493 16.493v.02c-.001 9.109-7.385 16.493-16.494 16.493z" fill="#a35418"/><path d="m495.517 419.995h-30.905c9.103 0 16.483 7.388 16.483 16.503 0 9.114-7.38 16.503-16.483 16.503h30.905c9.103 0 16.483-7.388 16.483-16.503 0-9.115-7.38-16.503-16.483-16.503z" fill="#8c4815"/></g></svg>