<svg height="512" viewBox="0 0 64 64" width="512" xmlns="http://www.w3.org/2000/svg"><path d="m5 30h54v26h-54z" fill="#2488ff"/><path d="m8 43h22v10h-22z" fill="#ffcd00"/><path d="m8 33h22v10h-22z" fill="#ffda44"/><path d="m34 34h22v18h-22z" fill="#ffda44"/><g fill="#57565c"><path d="m16 46h5v3h-5z"/><path d="m16 36h5v3h-5z"/><path d="m42 38h6v2a1 1 0 0 1 -1 1h-4a1 1 0 0 1 -1-1z"/></g><path d="m28 8v10a2.006 2.006 0 0 1 -2 2h-14a2.006 2.006 0 0 1 -2-2v-10z" fill="#3e3d42"/><path d="m55 15v3a2.006 2.006 0 0 1 -2 2h-16a2.006 2.006 0 0 1 -2-2v-3z" fill="#3e3d42"/><path d="m3 26h58v4h-58z" fill="#acabb1"/><path d="m61 25h-8v-2a1 1 0 0 0 -1-1h-2v2h1v1h-2v-1h-2v1h-1v-1h-2v1h-1v-1h-2v1h-2v-1h1v-2h-2a1 1 0 0 0 -1 1v2h-10v-2a1 1 0 0 0 -1-1h-2v2h1v1h-2v-1h-2v1h-1v-1h-2v1h-1v-1h-2v1h-2v-1h1v-2h-2a1 1 0 0 0 -1 1v2h-8a1 1 0 0 0 -1 1v4a1 1 0 0 0 1 1h1v25a1 1 0 0 0 1 1h54a1 1 0 0 0 1-1v-25h1a1 1 0 0 0 1-1v-4a1 1 0 0 0 -1-1zm-3 30h-52v-24h52zm2-26h-56v-2h56z"/><path d="m56 33h-22a1 1 0 0 0 -1 1v18a1 1 0 0 0 1 1h22a1 1 0 0 0 1-1v-18a1 1 0 0 0 -1-1zm-1 18h-20v-16h20z"/><path d="m40 37v2h1v1a2.006 2.006 0 0 0 2 2h4a2.006 2.006 0 0 0 2-2v-1h1v-2zm7 3h-4v-1h4z"/><path d="m30 32h-22a1 1 0 0 0 -1 1v20a1 1 0 0 0 1 1h22a1 1 0 0 0 1-1v-20a1 1 0 0 0 -1-1zm-1 20h-20v-8h20zm0-10h-20v-8h20z"/><path d="m14 35v2h1v2a1 1 0 0 0 1 1h5a1 1 0 0 0 1-1v-2h1v-2zm6 3h-3v-1h3z"/><path d="m14 45v2h1v2a1 1 0 0 0 1 1h5a1 1 0 0 0 1-1v-2h1v-2zm6 3h-3v-1h3z"/><path d="m31 8h-2a1 1 0 0 0 -1-1h-18a1 1 0 0 0 -1 1h-2a2.006 2.006 0 0 0 -2 2v3a2.006 2.006 0 0 0 2 2h2v3a3.009 3.009 0 0 0 3 3h14a3.009 3.009 0 0 0 3-3v-3h2a2.006 2.006 0 0 0 2-2v-3a2.006 2.006 0 0 0 -2-2zm-22 5h-2v-3h2zm18 5a1 1 0 0 1 -1 1h-14a1 1 0 0 1 -1-1v-9h16zm4-5h-2v-3h2z"/><path d="m35 14a1 1 0 0 0 -1 1v3a3.009 3.009 0 0 0 3 3h16a3.009 3.009 0 0 0 3-3v-2h6v-2zm19 4a1 1 0 0 1 -1 1h-16a1 1 0 0 1 -1-1v-2h18z"/></svg>