<svg id="Flat" enable-background="new 0 0 64 64" height="512" viewBox="0 0 64 64" width="512" xmlns="http://www.w3.org/2000/svg"><g><path d="m63 47v15c0 .55-.45 1-1 1h-12v-16z" fill="#ebc09e"/><path d="m63 35v12h-13v-13h4 3 3 2c.55 0 1 .45 1 1z" fill="#ebc09e"/><path d="m14 34v13h-13v-12c0-.55.45-1 1-1h6z" fill="#ebc09e"/><path d="m14 47v16h-12c-.55 0-1-.45-1-1v-15z" fill="#ebc09e"/><path d="m14 47v16h-12c-.55 0-1-.45-1-1v-2c5.523 0 10-4.477 10-10v-3z" fill="#e09d70"/><path d="m63 47v15c0 .552-.448 1-1 1h-12v-3c5.523 0 10-4.477 10-10v-3z" fill="#e09d70"/><path d="m14 34v13h-13v-3c5.523 0 10-4.477 10-10z" fill="#e09d70"/><path d="m63 35v12h-13v-3c5.523 0 10-4.477 10-10h2c.552 0 1 .448 1 1z" fill="#e09d70"/><g><path d="m10 40h-3c-.552 0-1-.448-1-1s.448-1 1-1h3c.552 0 1 .448 1 1s-.448 1-1 1z" fill="#db915e"/></g><g><path d="m10 53h-3c-.552 0-1-.448-1-1s.448-1 1-1h3c.552 0 1 .448 1 1s-.448 1-1 1z" fill="#db915e"/></g><g><path d="m59 40h-3c-.552 0-1-.448-1-1s.448-1 1-1h3c.552 0 1 .448 1 1s-.448 1-1 1z" fill="#db915e"/></g><g><path d="m59 53h-3c-.552 0-1-.448-1-1s.448-1 1-1h3c.552 0 1 .448 1 1s-.448 1-1 1z" fill="#db915e"/></g><g><path d="m30 31c0 .55-.45 1-1 1h-1v2h-2v-3c0-.55.45-1 1-1h2c.55 0 1 .45 1 1z" fill="#938383"/></g><g><path d="m38 31v3h-2v-2h-1c-.55 0-1-.45-1-1s.45-1 1-1h2c.55 0 1 .45 1 1z" fill="#938383"/></g><g><path d="m33 31v3h-2v-3c0-.55.45-1 1-1s1 .45 1 1z" fill="#938383"/></g><g><path d="m26.25 26.96c-.08.03-.16.04-.25.04h-6c-.55 0-1-.45-1-1s.45-1 1-1h6v1c0 .35.09.68.25.96z" fill="#7c6d6d"/></g><g><path d="m10.02 20v5h-1v-5h.98c0-.06 0-.11-.01-.17.02.05.03.11.03.17z" fill="#aa9f9f"/></g><g><path d="m13.5 16v9h-1v-9c0-.28.22-.5.5-.5s.5.22.5.5z" fill="#aa9f9f"/></g><path d="m28 56h-4v-2-6h16v8z" fill="#e8e7e6"/><g fill="#f6f5f5"><path d="m34.2 48-9.25 8h-.95v-1.82l7.15-6.18z"/><path d="m37.26 48-9.25 8h-1.53l9.26-8z"/></g><g><path d="m20 59v4h-6v-16-13h6zm-2-20c0-.55-.45-1-1-1s-1 .45-1 1 .45 1 1 1 1-.45 1-1z" fill="#ebc09e"/></g><circle cx="59" cy="29" fill="#88a80d" r="2"/><path d="m61 29c0 1.1-.9 2-2 2-.81 0-1.51-.49-1.82-1.18.25.12.53.18.82.18 1.1 0 2-.9 2-2 0-.29-.06-.57-.18-.82.69.31 1.18 1.01 1.18 1.82z" fill="#5ba50e"/><path d="m61 31v3h-4v-3h2z" fill="#e8e7e6"/><path d="m59 31h2v3h-2z" fill="#cccaca"/><circle cx="52" cy="3" fill="#88a80d" r="2"/><path d="m54 3c0 1.1-.9 2-2 2-.81 0-1.51-.49-1.82-1.18.25.12.53.18.82.18 1.1 0 2-.9 2-2 0-.29-.06-.57-.18-.82.69.31 1.18 1.01 1.18 1.82z" fill="#5ba50e"/><path d="m54 5v3h-4v-3h2z" fill="#e8e7e6"/><path d="m52 5h2v3h-2z" fill="#cccaca"/><path d="m63 21v4h-15v-4h2 4 3 4z" fill="#ebc09e"/><path d="m63 8v4h-15v-4h3 3 3 4z" fill="#ebc09e"/><path d="m63 21v4h-15v-2h11c1.105 0 2-.895 2-2z" fill="#e09d70"/><path d="m63 8v4h-15v-2h11c1.105 0 2-.895 2-2z" fill="#e09d70"/><path d="m57 5h4v3h-4z" fill="#aa9f9f"/><path d="m57 2h4v3h-4z" fill="#f7f6f5"/><path d="m59 5h2v3h-2z" fill="#938383"/><path d="m59 2h2v3h-2z" fill="#cccaca"/><path d="m57 18h4v3h-4z" fill="#aa9f9f"/><path d="m57 15h4v3h-4z" fill="#f7f6f5"/><path d="m59 18h2v3h-2z" fill="#938383"/><path d="m59 15h2v3h-2z" fill="#cccaca"/><path d="m50 18h4v3h-4z" fill="#aa9f9f"/><path d="m50 15h4v3h-4z" fill="#f7f6f5"/><path d="m52 18h2v3h-2z" fill="#938383"/><path d="m52 15h2v3h-2z" fill="#e8e7e6"/><path d="m50 31h4v3h-4z" fill="#aa9f9f"/><path d="m50 28h4v3h-4z" fill="#f7f6f5"/><path d="m52 31h2v3h-2z" fill="#938383"/><path d="m52 28h2v3h-2z" fill="#e8e7e6"/><path d="m50 47v16h-6v-4-25h6zm-2-8c0-.55-.45-1-1-1s-1 .45-1 1 .45 1 1 1 1-.45 1-1z" fill="#938686"/><g><path d="m50 47v16h-6v-4-25h6zm-2-8c0-.55-.45-1-1-1s-1 .45-1 1 .45 1 1 1 1-.45 1-1z" fill="#ebc09e"/></g><path d="m50 34v29h-6v-3c1.657 0 3-1.343 3-3v-17c.55 0 1-.45 1-1s-.45-1-1-1v-4z" fill="#e09d70"/><path d="m20 34v29h-6v-3c1.657 0 3-1.343 3-3v-17c.55 0 1-.45 1-1s-.45-1-1-1v-4z" fill="#e09d70"/><path d="m20 59h24v4h-24z" fill="#e8e7e6"/><path d="m28.017 63h15.983v-4h-10.095c-1.71 1.628-3.651 2.991-5.888 4z" fill="#cccaca"/><path d="m44 34v25h-24v-25h7 5 5zm-3 14v-3h-18v3h1v6 2h4 12v-8zm-1-10c0-1.1-.9-2-2-2s-2 .9-2 2 .9 2 2 2 2-.9 2-2zm-6 0c0-1.1-.9-2-2-2s-2 .9-2 2 .9 2 2 2 2-.9 2-2zm-6 0c0-1.1-.9-2-2-2s-2 .9-2 2 .9 2 2 2 2-.9 2-2z" fill="#aa9f9f"/><path d="m44 40.582c-1.138 3.479-2.425 6.856-4 9.937v5.481h-3.409c-.826 1.078-1.72 2.081-2.686 3h10.095z" fill="#938383"/><path d="m41 45v3h-1-16-1v-3z" fill="#ebc09e"/><path d="m38 45h3v3h-3z" fill="#e09d70"/><path d="m38 25v1c0 1.1-.9 2-2 2h-8c-1.1 0-2-.9-2-2v-1z" fill="#aa9f9f"/><path d="m31 28h-3c-1.1 0-2-.9-2-2v-1h3v1c0 1.1.9 2 2 2z" fill="#c6b9b9"/><path d="m38 25v1c0 1.1-.9 2-2 2h-3c1.1 0 2-.9 2-2v-1z" fill="#938383"/><path d="m14 25v9h-6v-9h2 3z" fill="#e8e7e6"/><path d="m14 25v9h-6v-2c2.209 0 4-1.791 4-4v-3z" fill="#cccaca"/><path d="m10 20h-6c0-1.66 1.62-3 3-3s3 1.34 3 3z" fill="#dad4d4"/><g><path d="m9 39h-3c-.552 0-1-.448-1-1s.448-1 1-1h3c.552 0 1 .448 1 1s-.448 1-1 1z" fill="#7c6d6d"/></g><g><path d="m9 52h-3c-.552 0-1-.448-1-1s.448-1 1-1h3c.552 0 1 .448 1 1s-.448 1-1 1z" fill="#7c6d6d"/></g><g><path d="m58 39h-3c-.552 0-1-.448-1-1s.448-1 1-1h3c.552 0 1 .448 1 1s-.448 1-1 1z" fill="#7c6d6d"/></g><g><path d="m58 52h-3c-.552 0-1-.448-1-1s.448-1 1-1h3c.552 0 1 .448 1 1s-.448 1-1 1z" fill="#7c6d6d"/></g><g fill="#7c6d6d"><circle cx="17" cy="39" r="1"/><circle cx="47" cy="39" r="1"/><circle cx="32" cy="38" r="2"/><circle cx="38" cy="38" r="2"/><circle cx="26" cy="38" r="2"/></g><path d="m21.844 35.219c-.643 0-.645 1 0 1 .643 0 .644-1 0-1z" fill="#fff"/><path d="m22.344 36.563c-1.287 0-1.289 2 0 2 1.287 0 1.289-2 0-2z" fill="#fff"/><path d="m25.813 49.344c-.643 0-.645 1 0 1 .643 0 .644-1 0-1z" fill="#fff"/><path d="m10 27c-.643 0-.645 1 0 1 .643 0 .645-1 0-1z" fill="#fff"/><path d="m41 13v4c0 .55-.45 1-1 1h-16c-.55 0-1-.45-1-1v-4c0-.49.35-.9.82-.98.06-.01 16.18-.02 16.18-.02.55 0 1 .45 1 1z" fill="#aa9f9f"/><path d="m41 13v4c0 .55-.45 1-1 1h-16c-.55 0-1-.45-1-1v-1h12c2.2 0 4-1.8 4-4h1c.55 0 1 .45 1 1z" fill="#938383"/><path d="m36 7 4 5h-16l4-5z" fill="#f7f6f5"/><path d="m32 7h4l4 5h-4z" fill="#dad4d4"/><path d="m28 1h8v6h-8z" fill="#aa9f9f"/><path d="m36 1v6h-8v-2l2-.027c2.205.015 4-1.768 4-3.973z" fill="#938383"/><path d="m25.792 13.458h-.958c-.643 0-.644 1 0 1h.958c.643 0 .644-1 0-1z" fill="#eae4e4"/><path d="m28.917 8.125c-1.287 0-1.289 2 0 2 1.287 0 1.289-2 0-2z" fill="#fff"/><path d="m30.542 8.125c-.643 0-.645 1 0 1 .643 0 .644-1 0-1z" fill="#fff"/></g></svg>