<svg height="512" viewBox="0 0 512 512" width="512" xmlns="http://www.w3.org/2000/svg"><path d="m272 64h224a0 0 0 0 1 0 0v384a0 0 0 0 1 0 0h-232a8 8 0 0 1 -8-8v-360a16 16 0 0 1 16-16z" fill="#d7e6e6" transform="matrix(-1 0 0 -1 752 512)"/><path d="m16 64h235a5 5 0 0 1 5 5v374a5 5 0 0 1 -5 5h-235a0 0 0 0 1 0 0v-384a0 0 0 0 1 0 0z" fill="#aac3d7" transform="matrix(-1 0 0 -1 272 512)"/><path d="m248 208h16v240h-16z" fill="#784119" transform="matrix(-1 0 0 -1 512 656)"/><path d="m248 208h8v240h-8z" fill="#a55528" transform="matrix(-1 0 0 -1 504 656)"/><path d="m360 256h136a0 0 0 0 1 0 0v168a24 24 0 0 1 -24 24h-96a24 24 0 0 1 -24-24v-160a8 8 0 0 1 8-8z" fill="#e13741" transform="matrix(-1 0 0 -1 848 703.996)"/><path d="m240.452 352h111.548v-71.464c0-13.455 11.011-24.791 24.464-24.536a24 24 0 0 1 23.536 24v160a8 8 0 0 1 -8 8h-144a8 8 0 0 1 -8-8v-56a16 16 0 0 1 -15.982-16.773c.405-8.606 7.818-15.227 16.434-15.227z" fill="#f05555"/><path d="m352 352v32a16 16 0 0 1 0-32z" fill="#e13741"/><path d="m256 384h96a0 0 0 0 1 0 0v16a0 0 0 0 1 0 0h-112a0 0 0 0 1 0 0 16 16 0 0 1 16-16z" fill="#e13741" transform="matrix(-1 0 0 -1 592 784)"/><rect fill="#784119" height="112" rx="8" transform="matrix(-1 0 0 -1 240 752)" width="208" x="16" y="320"/><rect fill="#a55528" height="112" rx="8" transform="matrix(-1 0 0 -1 96 752)" width="64" x="16" y="320"/><path d="m24 432h8v16h-8z" fill="#555" transform="matrix(-1 0 0 -1 56 880)"/><path d="m64 432h8v16h-8z" fill="#555" transform="matrix(-1 0 0 -1 136 880)"/><path d="m168 432h8v16h-8z" fill="#3c3c3c" transform="matrix(-1 0 0 -1 344 880)"/><path d="m208 432h8v16h-8z" fill="#3c3c3c" transform="matrix(-1 0 0 -1 424 880)"/><rect fill="#a55528" height="80" rx="4" transform="matrix(-1 0 0 -1 368 752)" width="48" x="160" y="336"/><rect fill="#a55528" height="80" rx="4" transform="matrix(-1 0 0 -1 240 752)" width="48" x="96" y="336"/><circle cx="129.333" cy="376" fill="#faa51e" r="6.667"/><circle cx="174.667" cy="376" fill="#faa51e" r="6.667"/><rect fill="#555" height="96" rx="8" transform="matrix(-1 0 0 -1 232 512)" width="152" x="40" y="208"/><rect fill="#3c3c3c" height="96" rx="8" width="144" x="48" y="208"/><path d="m56 283.676v-59.676a8 8 0 0 1 8-8h59.676a4 4 0 0 1 2.829 6.828l-63.677 63.677a4 4 0 0 1 -6.828-2.829z" fill="#555"/><path d="m104 301.333h24v18.667h-24z" fill="#3c3c3c" transform="matrix(-1 0 0 -1 232 621.333)"/><path d="m88 312h56a0 0 0 0 1 0 0 8 8 0 0 1 -8 8h-40a8 8 0 0 1 -8-8 0 0 0 0 1 0 0z" fill="#555" transform="matrix(-1 0 0 -1 232 632)"/><path d="m256 128h40a8 8 0 0 1 8 8v64a8 8 0 0 1 -8 8h-40a0 0 0 0 1 0 0v-80a0 0 0 0 1 0 0z" fill="#f06423"/><path d="m216 128h40a0 0 0 0 1 0 0v80a0 0 0 0 1 0 0h-40a8 8 0 0 1 -8-8v-64a8 8 0 0 1 8-8z" fill="#faa51e"/><path d="m226.667 128h10.667v80h-10.667z" fill="#ffc33c"/><path d="m354.171 114.532a7.966 7.966 0 0 0 -2.171 5.468v96a7.966 7.966 0 0 0 2.171 5.468l45.829-53.468z" fill="#784119"/><path d="m445.829 114.532a7.974 7.974 0 0 0 -5.829-2.532h-80a7.974 7.974 0 0 0 -5.829 2.532l45.829 53.468z" fill="#784119"/><path d="m400 168 45.829 53.468a7.966 7.966 0 0 0 2.171-5.468v-96a7.966 7.966 0 0 0 -2.171-5.468z" fill="#a55528"/><path d="m354.171 221.468a7.974 7.974 0 0 0 5.829 2.532h80a7.974 7.974 0 0 0 5.829-2.532l-45.829-53.468z" fill="#a55528"/><rect fill="#aac3d7" height="80" rx="4" width="64" x="368" y="128"/><path d="m413.459 160.631a16 16 0 1 0 -26.918 0 24.005 24.005 0 0 0 -18.541 23.369v20a4 4 0 0 0 4 4h56a4 4 0 0 0 4-4v-20a24.005 24.005 0 0 0 -18.541-23.369z" fill="#738ca0"/></svg>