<svg id="Capa_1" enable-background="new 0 0 512 512" height="512" viewBox="0 0 512 512" width="512" xmlns="http://www.w3.org/2000/svg"><g><g><path d="m140.033 442.333v-28.95c0-13.724 11.126-24.85 24.85-24.85s24.85 11.126 24.85 24.85v28.95z" fill="#e2dfe2"/><path d="m164.883 388.533c-4.151 0-8.061 1.023-11.5 2.823 7.933 4.15 13.35 12.454 13.35 22.027v28.95h23v-28.95c0-13.724-11.125-24.85-24.85-24.85z" fill="#d3ced5"/><path d="m198.017 476.667h-66.267v-30.433c0-4.418 3.582-8 8-8h50.267c4.418 0 8 3.582 8 8z" fill="#f4f2f4"/><path d="m190.017 438.233h-23c4.418 0 8 3.582 8 8v30.433h23v-30.433c0-4.418-3.582-8-8-8z" fill="#e2dfe2"/><g><path d="m405.1 275.958h86.9v208.587h-86.9z" fill="#f4f2f4"/><path d="m405.1 322.267h86.9v115.967h-86.9z" fill="#4c5e71"/></g><path d="m123.467 281.5v82.183c0 4.575-3.709 8.283-8.283 8.283h-83.684v-90.466z" fill="#f4f2f4"/><path d="m100.467 281.5v82.183c0 4.575-3.709 8.283-8.283 8.283h23c4.575 0 8.283-3.709 8.283-8.283v-82.183z" fill="#e2dfe2"/><g><path d="m73.767 37.633h115.967v71.033h-115.967z" fill="#f4f2f4"/><path d="m166.733 37.633h23v71.033h-23z" fill="#e2dfe2"/><path d="m156.6 37.633h-49.7v28.133c0 4.418 3.582 8 8 8h33.7c4.418 0 8-3.582 8-8z" fill="#eaa96a"/><path d="m81.767 206.3h99.967c4.418 0 8-3.582 8-8v-91.4h-115.967v91.4c0 4.418 3.581 8 8 8z" fill="#eaa96a"/><g fill="#e5935d"><path d="m166.733 106.9v91.4c0 4.418-3.582 8-8 8h23c4.418 0 8-3.582 8-8v-91.4z"/><path d="m133.6 37.633v28.133c0 4.418-3.582 8-8 8h23c4.418 0 8-3.582 8-8v-28.133z"/></g></g><g><path d="m413.667 73.767h-83.4c-4.418 0-8-3.582-8-8v-28.134h99.4v28.133c0 4.419-3.582 8.001-8 8.001z" fill="#4c5e71"/><path d="m430.233 173.167h-116.533c-4.418 0-8-3.582-8-8v-50.267c0-4.418 3.582-8 8-8h116.533c4.418 0 8 3.582 8 8v50.267c0 4.418-3.581 8-8 8z" fill="#eaa96a"/><path d="m397.1 140.033h-50.267c-4.418 0-8-3.582-8-8v-25.133h66.267v25.133c0 4.419-3.582 8-8 8z" fill="#e5935d"/><path d="m398.667 37.633v28.133c0 4.418-3.582 8-8 8h23c4.418 0 8-3.582 8-8v-28.133z" fill="#3c4958"/><path d="m430.233 106.9h-23c4.418 0 8 3.582 8 8v50.267c0 4.418-3.582 8-8 8h23c4.418 0 8-3.582 8-8v-50.267c0-4.418-3.581-8-8-8z" fill="#e5935d"/></g><path d="m504.5 226.877v269.34c0 4.575-3.709 8.283-8.283 8.283h-480.434c-4.575 0-8.283-3.709-8.283-8.283v-480.434c0-4.575 3.709-8.283 8.283-8.283h480.433c4.575 0 8.283 3.709 8.283 8.283v136.833c0 2.209-1.791 4-4 4l-25.133.001c-2.209 0-4-1.791-4-4v-103.7c0-4.575-3.709-8.283-8.283-8.283h-198.8c-4.575 0-8.283 3.709-8.283 8.283v103.683c0 2.209-1.791 4-4 4h-25.133c-2.209 0-4-1.791-4-4v-103.683c0-4.575-3.709-8.283-8.283-8.283h-165.667c-4.575 0-8.283 3.709-8.283 8.283v198.8c0 4.575 3.709 8.283 8.283 8.283h165.667c4.575 0 8.283-3.709 8.283-8.283v-20.85c0-2.209 1.791-4 4-4h25.133c2.209 0 4 1.791 4 4v20.85c0 4.575 3.709 8.283 8.283 8.283h20.85c2.209 0 4 1.791 4 4v25.133c0 2.209-1.791 4-4 4h-20.85c-4.575 0-8.283 3.709-8.283 8.283v20.85c0 2.209-1.791 4-4 4h-25.133c-2.209 0-4-1.791-4-4v-20.85c0-4.575-3.709-8.283-8.283-8.283h-165.667c-4.575 0-8.283 3.709-8.283 8.283v165.667c0 4.575 3.709 8.283 8.283 8.283h165.667c4.575 0 8.283-3.709 8.283-8.283v-70.55c0-2.209 1.791-4 4-4h25.133c2.209 0 4 1.791 4 4v70.55c0 4.575 3.709 8.283 8.283 8.283h198.8c4.575 0 8.283-3.709 8.283-8.283v-165.666c0-4.575-3.709-8.283-8.283-8.283h-103.683c-2.209 0-4-1.791-4-4v-25.134c0-2.209 1.791-4 4-4h103.683c4.575 0 8.283-3.709 8.283-8.283v-20.84c0-2.209 1.791-4 4-4h25.133c2.21 0 4.001 1.791 4.001 4z" fill="#a6ccfb"/><g fill="#8cbdf9"><path d="m496.217 7.5h-23c4.575 0 8.283 3.708 8.283 8.283v136.833c0 2.209-1.791 4-4 4h-2.138c.002 0 .003.001.005.001l25.133-.001c2.209 0 4-1.791 4-4v-136.833c0-4.575-3.708-8.283-8.283-8.283z"/><path d="m500.5 222.877h-25.133 2.134c2.209 0 4 1.791 4 4v269.34c0 4.575-3.708 8.283-8.283 8.283h23c4.575 0 8.283-3.709 8.283-8.283v-269.34c-.001-2.209-1.792-4-4.001-4z"/></g></g><g><path d="m504.5 215.377h-33.133c-4.143 0-7.5 3.357-7.5 7.5v24.84c0 .432-.352.783-.784.783h-107.683c-4.143 0-7.5 3.357-7.5 7.5v33.134c0 4.143 3.357 7.5 7.5 7.5h42.2v25.633 115.967 25.634h-133.317c-.432 0-.783-.352-.783-.784v-74.55c0-4.143-3.357-7.5-7.5-7.5h-33.133c-4.143 0-7.5 3.357-7.5 7.5v74.55c0 .433-.352.784-.784.784h-9.066v-17.634c0-5.941-3.364-11.105-8.283-13.706v-19.144c0-17.838-14.513-32.35-32.351-32.35s-32.35 14.512-32.35 32.35v19.144c-4.919 2.601-8.283 7.765-8.283 13.706v17.634h-75.333c-.433 0-.784-.352-.784-.784v-83.616h67.051c8.703 0 15.783-7.08 15.783-15.783v-67.05h83.616c.433 0 .784.352.784.783v24.85c0 4.143 3.357 7.5 7.5 7.5h33.133c4.143 0 7.5-3.357 7.5-7.5v-24.85c0-.432.352-.783.783-.783h24.85c4.143 0 7.5-3.357 7.5-7.5v-33.135c0-4.143-3.357-7.5-7.5-7.5h-24.85c-.432 0-.783-.352-.783-.783v-24.851c0-4.143-3.357-7.5-7.5-7.5h-33.133c-4.143 0-7.5 3.357-7.5 7.5v24.851c0 .432-.352.783-.784.783h-10.351c-4.143 0-7.5 3.357-7.5 7.5s3.357 7.5 7.5 7.5h10.351c8.703 0 15.784-7.08 15.784-15.783v-17.351h18.133v17.351c0 8.703 7.08 15.783 15.783 15.783h17.35v18.134h-17.35c-8.703 0-15.783 7.08-15.783 15.783v17.35h-18.133v-17.35c0-8.703-7.081-15.783-15.784-15.783h-165.666c-8.703 0-15.784 7.08-15.784 15.783v165.666c0 8.703 7.081 15.784 15.784 15.784h165.666c8.703 0 15.784-7.081 15.784-15.784v-67.05h18.133v67.05c0 8.703 7.08 15.784 15.783 15.784h198.8c8.703 0 15.784-7.081 15.784-15.784v-165.666c0-8.703-7.081-15.783-15.784-15.783h-100.183v-18.134h100.183c8.703 0 15.784-7.08 15.784-15.783v-17.34h18.133v265.84c0 .432-.352.783-.783.783h-480.434c-.432 0-.783-.352-.783-.783v-480.434c0-.431.352-.783.783-.783h390.884c4.143 0 7.5-3.357 7.5-7.5s-3.357-7.5-7.5-7.5h-390.884c-8.703 0-15.783 7.08-15.783 15.783v480.434c0 8.703 7.08 15.783 15.783 15.783h480.434c8.703 0 15.783-7.08 15.783-15.783v-273.34c0-4.143-3.357-7.5-7.5-7.5zm-455.583 81.257h25.633v17.35c0 4.143 3.357 7.5 7.5 7.5s7.5-3.357 7.5-7.5v-17.35h26.417v67.05c0 .432-.352.783-.783.783h-67.051v-67.05c0-.432.351-.783.784-.783zm115.966 99.399c9.567 0 17.351 7.783 17.351 17.35v17.351h-34.7v-17.351c-.001-9.567 7.782-17.35 17.349-17.35zm-25.633 67.834v-17.634c0-.275.225-.5.5-.5h50.267c.275 0 .5.225.5.5v17.634zm324.617-33.134h-51.267v-100.966h51.268v100.966zm-.784 33.134h-50.483v-18.134h51.268v17.35c-.001.433-.352.784-.785.784zm.784-166.45v17.35h-51.267v-18.133h50.483c.433 0 .784.351.784.783z"/><path d="m496.217 0h-59.55c-4.143 0-7.5 3.357-7.5 7.5s3.357 7.5 7.5 7.5h59.55c.432 0 .783.352.783.783v133.333l-18.133.001v-100.2c0-8.703-7.081-15.784-15.784-15.784h-198.8c-8.703 0-15.783 7.081-15.783 15.784v100.183h-18.133v-100.183c0-8.703-7.081-15.784-15.784-15.784h-165.666c-8.703 0-15.784 7.081-15.784 15.784v198.8c0 8.703 7.081 15.783 15.784 15.783h125.316c4.143 0 7.5-3.357 7.5-7.5s-3.357-7.5-7.5-7.5h-125.316c-.433 0-.784-.352-.784-.783v-198.8c0-.433.352-.784.784-.784h17.35v150.167c0 8.547 6.953 15.5 15.5 15.5h99.967c8.547 0 15.5-6.953 15.5-15.5v-150.167h17.35c.433 0 .784.352.784.784v107.683c0 4.143 3.357 7.5 7.5 7.5h33.132c4.143 0 7.5-3.357 7.5-7.5v-107.683c0-.433.352-.784.783-.784h50.483v17.634c0 8.547 6.953 15.5 15.5 15.5h83.4c8.547 0 15.5-6.953 15.5-15.5v-17.634h33.916c.433 0 .784.352.784.784v107.7c0 1.989.79 3.896 2.196 5.304 1.407 1.406 3.314 2.196 5.304 2.196l33.133-.001c4.143 0 7.5-3.358 7.5-7.5v-140.833c.001-8.703-7.079-15.783-15.782-15.783zm-347.117 48.133v17.634c0 .275-.225.5-.5.5h-33.7c-.275 0-.5-.225-.5-.5v-17.634zm32.633 150.667h-99.966c-.275 0-.5-.225-.5-.5v-83.9h100.967v83.9c-.001.275-.225.5-.501.5zm.5-99.4h-100.966v-51.267h18.133v17.634c0 8.547 6.953 15.5 15.5 15.5h33.7c8.547 0 15.5-6.953 15.5-15.5v-17.634h18.134v51.267zm231.934-33.633c0 .275-.225.5-.5.5h-83.4c-.275 0-.5-.225-.5-.5v-17.634h84.4z"/><path d="m438.233 367.042c4.143 0 7.5-3.357 7.5-7.5v-8.284c0-4.143-3.357-7.5-7.5-7.5s-7.5 3.357-7.5 7.5v8.284c0 4.143 3.358 7.5 7.5 7.5z"/><path d="m438.233 416.742c4.143 0 7.5-3.357 7.5-7.5v-8.284c0-4.143-3.357-7.5-7.5-7.5s-7.5 3.357-7.5 7.5v8.284c0 4.143 3.358 7.5 7.5 7.5z"/><path d="m430.233 180.667c8.547 0 15.5-6.953 15.5-15.5v-50.267c0-8.547-6.953-15.5-15.5-15.5h-116.533c-8.547 0-15.5 6.953-15.5 15.5v50.267c0 8.547 6.953 15.5 15.5 15.5zm-32.633-66.267v17.633c0 .275-.225.5-.5.5h-50.267c-.275 0-.5-.225-.5-.5v-17.633zm-84.4 50.767v-50.267c0-.275.225-.5.5-.5h17.633v17.633c0 8.547 6.953 15.5 15.5 15.5h50.267c8.547 0 15.5-6.953 15.5-15.5v-17.633h17.634c.275 0 .5.225.5.5v50.267c0 .275-.225.5-.5.5h-116.534c-.275 0-.5-.225-.5-.5z"/></g></g></svg>