<?xml version="1.0" encoding="iso-8859-1"?>
<!-- Generator: Adobe Illustrator 19.0.0, SVG Export Plug-In . SVG Version: 6.00 Build 0)  -->
<svg version="1.1" id="Capa_1" xmlns="http://www.w3.org/2000/svg" xmlns:xlink="http://www.w3.org/1999/xlink" x="0px" y="0px"
	 viewBox="0 0 512 512" style="enable-background:new 0 0 512 512;" xml:space="preserve">
<polygon style="fill:#FF9100;" points="362.039,0 256,0 235.984,256 256,512 362.039,512 512,362.039 512,149.961 "/>
<polygon style="fill:#FFCD00;" points="149.961,0 0,149.961 0,362.039 149.961,512 256,512 256,0 "/>
<path style="fill:#404040;" d="M256,64.736L241.046,256L256,447.264c105.632,0,191.264-85.632,191.264-191.264
	S361.632,64.736,256,64.736z"/>
<path style="fill:#606060;" d="M130.459,351.632c0,52.816,72.725,95.632,125.541,95.632V64.736
	C256,64.736,130.459,81.382,130.459,351.632z"/>
<g>
	<path id="SVGCleanerId_0" style="fill:#F7F7F8;" d="M256,383.398c-17.516,0-31.766-14.25-31.766-31.766s14.25-31.766,31.766-31.766
		s31.766,14.25,31.766,31.766S273.516,383.398,256,383.398z"/>
</g>
<g>
	<path id="SVGCleanerId_0_1_" style="fill:#F7F7F8;" d="M256,383.398c-17.516,0-31.766-14.25-31.766-31.766
		s14.25-31.766,31.766-31.766s31.766,14.25,31.766,31.766S273.516,383.398,256,383.398z"/>
</g>
<g>
	<path id="SVGCleanerId_0_2_" style="fill:#F7F7F8;" d="M256,383.398c-17.516,0-31.766-14.25-31.766-31.766
		s14.25-31.766,31.766-31.766s31.766,14.25,31.766,31.766S273.516,383.398,256,383.398z"/>
</g>
<path style="fill:#DCE4EC;" d="M256,64.736l-14.954,96.127L256,256c52.816,0,95.632-42.816,95.632-95.632S308.816,64.736,256,64.736
	z"/>
<path style="fill:#F7F7F8;" d="M64.736,256c0,105.632,85.632,191.264,191.264,191.264c-52.816,0-95.632-42.816-95.632-95.632
	S203.184,256,256,256V64.736C150.368,64.736,64.736,150.368,64.736,256z"/>
<path style="fill:#404040;" d="M287.766,160.863c0-17.516-14.25-31.766-31.766-31.766l-14.954,31.766L256,192.629
	C273.516,192.629,287.766,178.379,287.766,160.863z"/>
<path style="fill:#606060;" d="M224.234,160.863c0,17.516,14.25,31.766,31.766,31.766v-63.531
	C238.484,129.098,224.234,143.348,224.234,160.863z"/>
<path style="fill:#DCE4EC;" d="M256,319.866l-14.954,31.766L256,383.398c17.516,0,31.766-14.25,31.766-31.766
	C287.766,334.116,273.516,319.866,256,319.866z"/>
<path style="fill:#F7F7F8;" d="M224.234,351.632c0,17.516,14.25,31.766,31.766,31.766v-63.531
	C238.484,319.866,224.234,334.116,224.234,351.632z"/>
<g>
</g>
<g>
</g>
<g>
</g>
<g>
</g>
<g>
</g>
<g>
</g>
<g>
</g>
<g>
</g>
<g>
</g>
<g>
</g>
<g>
</g>
<g>
</g>
<g>
</g>
<g>
</g>
<g>
</g>
</svg>
