<?xml version="1.0" encoding="UTF-8" standalone="no"?>
<svg
   viewBox="0 0 374.79001 498.48"
   version="1.1"
   id="svg850"
   sodipodi:docname="sequencing_click_n_copy.svg"
   inkscape:version="1.1 (c4e8f9e, 2021-05-24)"
   xmlns:inkscape="http://www.inkscape.org/namespaces/inkscape"
   xmlns:sodipodi="http://sodipodi.sourceforge.net/DTD/sodipodi-0.dtd"
   xmlns="http://www.w3.org/2000/svg"
   xmlns:svg="http://www.w3.org/2000/svg">
  <defs
     id="defs854" />
  <sodipodi:namedview
     id="namedview852"
     pagecolor="#ffffff"
     bordercolor="#999999"
     borderopacity="1"
     inkscape:pageshadow="0"
     inkscape:pageopacity="0"
     inkscape:pagecheckerboard="0"
     showgrid="false"
     inkscape:zoom="2.3682861"
     inkscape:cx="236.66904"
     inkscape:cy="288.18309"
     inkscape:window-width="1920"
     inkscape:window-height="1147"
     inkscape:window-x="0"
     inkscape:window-y="25"
     inkscape:window-maximized="1"
     inkscape:current-layer="g52" />
  <g
     id="g52"
     transform="translate(-61.845)">
    <g
       id="g18">
      <g
         id="XMLID_252_">
        <g
           id="g6">
          <g
             id="g4">
            <path
               d="m 436.635,53.59 v 431.97 c 0,7.14 -5.79,12.92 -12.93,12.92 H 74.775 c -7.14,0 -12.93,-5.78 -12.93,-12.92 V 12.92 C 61.845,5.79 67.635,0 74.775,0 h 308.27 z"
               fill="#efedef"
               id="path2" />
          </g>
        </g>
      </g>
      <path
         d="m 155.576,462.61 c -18.22,0 -32.99,-14.77 -32.99,-32.99 V 0 H 74.775 c -7.141,0 -12.93,5.789 -12.93,12.93 v 472.63 c 0,7.136 5.785,12.92 12.92,12.92 h 348.94 c 7.141,0 12.93,-5.789 12.93,-12.93 v -22.94 z"
         fill="#e5e1e5"
         id="path9" />
      <g
         id="XMLID_253_">
        <g
           id="g15">
          <path
             d="M 436.635,53.59 383.045,0 h -20.26 v 40.41 c 0,18.158 14.772,32.93 32.93,32.93 h 40.92 z"
             fill="#e5e1e5"
             id="path11" />
          <path
             d="m 383.045,0 53.34,53.34 h -40.67 c -7.14,0 -12.93,-5.79 -12.93,-12.93 V 0 Z"
             fill="#efedef"
             id="path13" />
        </g>
      </g>
    </g>
    <path
       d="m 293.77329,194.86891 h 86.34752 c 3.06901,0 5.55729,-2.08266 5.55729,-4.65137 v -72.27156 c 0,-2.56871 -2.48828,-4.65136 -5.55729,-4.65136 h -86.34752 c -3.06901,0 -5.55729,2.08265 -5.55729,4.65136 v 72.27156 c 0,2.56871 2.48737,4.65137 5.55729,4.65137 z"
       fill="#ff1b10"
       id="path20"
       style="fill:#ff7f2a;fill-opacity:0.340081;stroke-width:0.84064" />
    <path
       d="m 193.14319,194.86894 h -82.82853 c -2.94393,0 -5.33081,-2.11646 -5.33081,-4.72687 v -73.44476 c 0,-2.61041 2.38688,-4.72687 5.33081,-4.72687 h 82.82853 c 2.94393,0 5.33081,2.11646 5.33081,4.72687 v 73.44476 c 0,2.61041 -2.386,4.72687 -5.33081,4.72687 z"
       fill="#36d128"
       id="path24"
       style="fill:#00ffff;stroke-width:0.829988" />
    <path
       d="m 110.31466,194.86892 h 12.45619 v -82.89929 h -12.45619 c -2.94393,0 -5.33081,2.11647 -5.33081,4.72688 v 73.44475 c 0,2.61119 2.38688,4.72766 5.33081,4.72766 z"
       fill="#32be25"
       id="path28"
       style="fill:#00c9ff;fill-opacity:1;stroke-width:0.829988" />
    <path
       style="fill:none;stroke:#000000;stroke-width:1px;stroke-linecap:butt;stroke-linejoin:miter;stroke-opacity:1"
       d="M 96.265559,242.72664 414.68978,242.42938"
       id="path3342" />
    <path
       d="m 297.51144,294.16208 c 2.91359,-2.94547 2.88885,-7.69279 -0.0556,-10.60654 l -20.16006,-19.94773 c -0.0299,-0.0287 -0.0598,-0.0582 -0.0901,-0.088 l -61.32914,-58.67698 13.67466,0.59139 c 4.13873,0.17862 7.63799,-3.03134 7.81676,-7.1691 0.17752,-4.14566 -3.03152,-7.63898 -7.16926,-7.81776 l -31.11383,-1.34513 c -4.13874,-0.17862 -7.63799,3.03135 -7.81676,7.1691 l -1.43053,33.10613 c -0.0219,0.51689 0.008,1.02247 0.0863,1.51328 0.54947,3.44647 3.46108,6.14775 7.08293,6.30447 4.13873,0.17861 7.63799,-3.03135 7.81677,-7.1691 l 0.62301,-14.40373 61.3458,58.69256 20.11451,19.90335 c 2.94233,2.91309 7.69063,2.88819 10.60439,-0.0563 z"
       fill="#b5adb6"
       id="path30"
       style="fill:#999999" />
    <path
       d="m 294.264,389.62491 h 93.972 c 3.34,0 6.048,-2.708 6.048,-6.048 v -93.972 c 0,-3.34 -2.708,-6.048 -6.048,-6.048 h -93.972 c -3.34,0 -6.048,2.708 -6.048,6.048 v 93.972 c 0,3.34 2.707,6.048 6.048,6.048 z"
       fill="#36d128"
       id="path32"
       style="fill:#00ffff;fill-opacity:0.25" />
    <path
       d="m 202.426,389.62491 h -93.972 c -3.34,0 -6.048,-2.708 -6.048,-6.048 v -93.972 c 0,-3.34 2.708,-6.048 6.048,-6.048 h 93.972 c 3.34,0 6.048,2.708 6.048,6.048 v 93.972 c 0,3.34 -2.707,6.048 -6.048,6.048 z"
       fill="#ff1b10"
       id="path36"
       style="fill:#ff7f2a;fill-opacity:0.983806" />
    <path
       d="m 108.454,389.62491 h 14.132 v -106.069 h -14.132 c -3.34,0 -6.048,2.708 -6.048,6.048 v 93.972 c 0,3.341 2.708,6.049 6.048,6.049 z"
       fill="#f01b10"
       id="path38"
       style="fill:#d45500;fill-opacity:1" />
    <path
       d="m 144.691,319.30294 h 3.608 v 44.472 c 0,4.142 3.357,7.5 7.5,7.5 4.143,0 7.5,-3.358 7.5,-7.5 v -51.972 c 0,-4.142 -3.357,-7.5 -7.5,-7.5 h -11.108 c -4.143,0 -7.5,3.358 -7.5,7.5 0,4.142 3.357,7.5 7.5,7.5 z"
       id="path42"
       style="fill:#ffffff;fill-opacity:1;stroke:#111111;stroke-width:3.00094;stroke-miterlimit:4;stroke-dasharray:none;stroke-dashoffset:0" />
    <path
       d="m 330.52954,141.24516 h 3.31526 v 34.20233 c 0,3.18551 3.08463,5.76806 6.89148,5.76806 3.80686,0 6.89149,-2.58255 6.89149,-5.76806 V 135.4771 c 0,-3.18551 -3.08463,-5.76807 -6.89149,-5.76807 h -10.20674 c -3.80686,0 -6.89148,2.58256 -6.89148,5.76807 0,3.18551 3.08462,5.76806 6.89148,5.76806 z"
       id="path42-9"
       style="fill:#ffffff;fill-opacity:1;stroke:#111111;stroke-width:2.52271;stroke-miterlimit:4;stroke-dasharray:none;stroke-dashoffset:0" />
    <path
       d="m 325.53,329.12294 c 4.068,0.798 8.007,-1.85 8.805,-5.914 0.531,-2.704 2.924,-4.667 5.689,-4.667 3.069,0 5.59,2.397 5.786,5.418 l -0.13,1.017 c -0.446,1.702 -1.557,4.458 -4.284,8.355 -8.212,11.733 -13.111,18.148 -15.743,21.594 -3.383,4.429 -5.246,6.869 -3.998,10.926 0.734,2.386 2.608,4.289 5.016,5.091 1.001,0.333 1.801,0.6 12.03,0.6 4.004,0 9.451,-0.041 16.918,-0.134 4.143,-0.052 7.458,-3.452 7.405,-7.594 -0.051,-4.11 -3.398,-7.406 -7.497,-7.406 -0.032,0 -0.064,0 -0.096,0 -4.067,0.051 -8.341,0.089 -12.206,0.107 2.683,-3.632 6.121,-8.385 10.46,-14.584 3.439,-4.914 5.688,-9.587 6.687,-13.888 0.058,-0.246 0.102,-0.495 0.134,-0.745 l 0.257,-2.01 c 0.04,-0.315 0.061,-0.633 0.061,-0.951 0,-11.469 -9.33,-20.799 -20.799,-20.799 -9.916,0 -18.499,7.055 -20.408,16.776 -0.799,4.068 1.848,8.01 5.913,8.808 z"
       id="path46"
       style="fill:#ffffff;fill-opacity:0.574899;stroke:#111111;stroke-width:3;stroke-miterlimit:4;stroke-dasharray:none;stroke-dashoffset:0" />
    <path
       d="m 139.66863,146.61879 c 3.5856,0.62368 7.0575,-1.44589 7.76087,-4.62215 0.46804,-2.11334 2.57727,-3.64754 5.01439,-3.64754 2.70506,0 4.92712,1.8734 5.09988,4.23449 l -0.11459,0.79485 c -0.39311,1.33022 -1.37237,3.48419 -3.77599,6.52993 -7.2382,9.17005 -11.55626,14.18375 -13.87615,16.87701 -2.98183,3.46153 -4.62391,5.36854 -3.52391,8.53932 0.64696,1.86481 2.29874,3.35211 4.42119,3.97893 0.8823,0.26026 1.58744,0.46893 10.60345,0.46893 3.5292,0 8.33027,-0.032 14.91182,-0.10473 3.65171,-0.0406 6.5736,-2.69794 6.52689,-5.93516 -0.045,-3.21222 -2.99506,-5.78824 -6.60798,-5.78824 -0.0282,0 -0.0564,0 -0.0846,0 -3.58472,0.0399 -7.3519,0.0696 -10.75858,0.0836 2.36484,-2.83863 5.39516,-6.55338 9.21963,-11.39827 3.03119,-3.84059 5.0135,-7.49282 5.89403,-10.85431 0.0511,-0.19226 0.0899,-0.38687 0.11811,-0.58226 l 0.22653,-1.57093 c 0.0352,-0.24619 0.0538,-0.49473 0.0538,-0.74327 0,-8.96371 -8.22362,-16.25566 -18.33259,-16.25566 -8.74013,0 -16.30534,5.5139 -17.98796,13.11145 -0.70426,3.17938 1.62886,6.26029 5.21182,6.88398 z"
       id="path46-6"
       style="fill:#ffffff;fill-opacity:0.927126;stroke:#111111;stroke-width:2.48996;stroke-miterlimit:4;stroke-dasharray:none;stroke-dashoffset:0" />
  </g>
</svg>
