<svg id="Capa_1" enable-background="new 0 0 498.48 498.48" height="512" viewBox="0 0 498.48 498.48" width="512" xmlns="http://www.w3.org/2000/svg"><g><g><g id="XMLID_252_"><g><g><path d="m436.635 53.59v431.97c0 7.14-5.79 12.92-12.93 12.92h-348.93c-7.14 0-12.93-5.78-12.93-12.92v-472.64c0-7.13 5.79-12.92 12.93-12.92h308.27z" fill="#efedef"/></g></g></g><path d="m155.576 462.61c-18.22 0-32.99-14.77-32.99-32.99v-429.62h-47.811c-7.141 0-12.93 5.789-12.93 12.93v472.63c0 7.136 5.785 12.92 12.92 12.92h348.94c7.141 0 12.93-5.789 12.93-12.93v-22.94z" fill="#e5e1e5"/><g id="XMLID_253_"><g><path d="m436.635 53.59-53.59-53.59h-20.26v40.41c0 18.158 14.772 32.93 32.93 32.93h40.92z" fill="#e5e1e5"/><path d="m383.045 0 53.34 53.34h-40.67c-7.14 0-12.93-5.79-12.93-12.93v-40.41z" fill="#efedef"/></g></g></g><path d="m294.264 410.288h93.972c3.34 0 6.048-2.708 6.048-6.048v-93.972c0-3.34-2.708-6.048-6.048-6.048h-93.972c-3.34 0-6.048 2.708-6.048 6.048v93.972c0 3.34 2.707 6.048 6.048 6.048z" fill="#fd8087"/><path d="m293.384 351.819-21.32-20.281c-3-2.855-7.748-2.736-10.604.265-2.854 3.001-2.735 7.748.266 10.603l7.723 7.347h-94.662c-4.143 0-7.5 3.358-7.5 7.5s3.357 7.5 7.5 7.5h94.662l-7.723 7.347c-3.001 2.855-3.12 7.602-.266 10.603 1.475 1.55 3.453 2.331 5.436 2.331 1.856 0 3.717-.686 5.168-2.066l21.32-20.281c1.488-1.416 2.331-3.38 2.331-5.434s-.843-4.019-2.331-5.434z" fill="#b5adb6"/><g><path d="m202.426 410.288h-93.972c-3.34 0-6.048-2.708-6.048-6.048v-93.972c0-3.34 2.708-6.048 6.048-6.048h93.972c3.34 0 6.048 2.708 6.048 6.048v93.972c0 3.34-2.707 6.048-6.048 6.048z" fill="#86e8d0"/></g><path d="m108.454 410.288h14.132v-106.069h-14.132c-3.34 0-6.048 2.708-6.048 6.048v93.972c0 3.341 2.708 6.049 6.048 6.049z" fill="#5de1c4"/><path d="m319.432 222.53c-2.45-3.341-7.142-4.064-10.483-1.615l-22.873 16.768c-.033.025-.067.05-.101.075l-67.601 51.326 2.737-13.411c.828-4.059-1.791-8.02-5.849-8.848-4.066-.828-8.021 1.791-8.849 5.849l-6.227 30.514c-.828 4.059 1.791 8.02 5.849 8.848l32.468 6.625c.507.103 1.011.153 1.508.153 3.49 0 6.616-2.45 7.341-6.002.828-4.059-1.791-8.02-5.849-8.848l-14.126-2.883 67.619-51.34 22.822-16.73c3.34-2.447 4.063-7.14 1.614-10.481z" fill="#b5adb6"/><path d="m294.264 245.044h93.972c3.34 0 6.048-2.708 6.048-6.048v-93.972c0-3.34-2.708-6.048-6.048-6.048h-93.972c-3.34 0-6.048 2.708-6.048 6.048v93.972c0 3.34 2.707 6.048 6.048 6.048z" fill="#86e8d0"/><path d="m293.384 186.575-21.32-20.281c-3-2.855-7.748-2.736-10.604.265-2.854 3.001-2.735 7.748.266 10.603l7.723 7.347h-87.162c-4.143 0-7.5 3.358-7.5 7.5s3.357 7.5 7.5 7.5h87.162l-7.723 7.347c-3.001 2.855-3.12 7.602-.266 10.603 1.475 1.55 3.453 2.331 5.436 2.331 1.856 0 3.717-.686 5.168-2.066l21.32-20.281c1.488-1.416 2.331-3.38 2.331-5.434s-.843-4.018-2.331-5.434z" fill="#b5adb6"/><path d="m202.426 245.044h-93.972c-3.34 0-6.048-2.708-6.048-6.048v-93.972c0-3.34 2.708-6.048 6.048-6.048h93.972c3.34 0 6.048 2.708 6.048 6.048v93.972c0 3.34-2.707 6.048-6.048 6.048z" fill="#fd8087"/><path d="m108.454 245.044h14.132v-106.069h-14.132c-3.34 0-6.048 2.708-6.048 6.048v93.972c0 3.341 2.708 6.049 6.048 6.049z" fill="#fe646f"/><path d="m329.988 85.404h-163.286c-3.517 0-6.368-2.851-6.368-6.368v-37.066c0-3.517 2.851-6.368 6.368-6.368h163.286c3.517 0 6.368 2.851 6.368 6.368v37.066c0 3.517-2.851 6.368-6.368 6.368z" fill="#99e6fc"/><g fill="#f3f0f3"><path d="m144.691 174.722h3.608v44.472c0 4.142 3.357 7.5 7.5 7.5s7.5-3.358 7.5-7.5v-51.972c0-4.142-3.357-7.5-7.5-7.5h-11.108c-4.143 0-7.5 3.358-7.5 7.5s3.357 7.5 7.5 7.5z"/><path d="m358.471 361.396c.067-12.149.093-24.374-.06-26.207-.401-4.815-3.344-8.758-7.496-10.044-4.147-1.285-8.507.263-11.666 4.139-2.959 3.631-15.591 26.34-20.885 35.936-1.281 2.324-1.24 5.151.109 7.436s3.805 3.687 6.458 3.687h18.438c-.021 2.743-.041 5.368-.063 7.774-.035 4.142 3.293 7.528 7.436 7.564h.065c4.112 0 7.463-3.316 7.499-7.436.017-1.95.039-4.712.064-7.946 3.764-.401 6.696-3.587 6.696-7.458.002-3.835-2.879-6.999-6.595-7.445zm-15.003-.054h-5.779c2.045-3.644 4.032-7.152 5.826-10.283-.011 3.187-.026 6.684-.047 10.283z"/><path d="m325.53 184.542c4.068.798 8.007-1.85 8.805-5.914.531-2.704 2.924-4.667 5.689-4.667 3.069 0 5.59 2.397 5.786 5.418l-.13 1.017c-.446 1.702-1.557 4.458-4.284 8.355-8.212 11.733-13.111 18.148-15.743 21.594-3.383 4.429-5.246 6.869-3.998 10.926.734 2.386 2.608 4.289 5.016 5.091 1.001.333 1.801.6 12.03.6 4.004 0 9.451-.041 16.918-.134 4.143-.052 7.458-3.452 7.405-7.594-.051-4.11-3.398-7.406-7.497-7.406-.032 0-.064 0-.096 0-4.067.051-8.341.089-12.206.107 2.683-3.632 6.121-8.385 10.46-14.584 3.439-4.914 5.688-9.587 6.687-13.888.058-.246.102-.495.134-.745l.257-2.01c.04-.315.061-.633.061-.951 0-11.469-9.33-20.799-20.799-20.799-9.916 0-18.499 7.055-20.408 16.776-.799 4.068 1.848 8.01 5.913 8.808z"/><path d="m155.44 323.156c-9.916 0-18.499 7.055-20.408 16.776-.798 4.064 1.85 8.006 5.914 8.805 4.064.795 8.007-1.849 8.805-5.914.531-2.704 2.924-4.667 5.689-4.667 3.197 0 5.799 2.602 5.799 5.799s-2.602 5.798-5.799 5.798c-4.143 0-7.5 3.358-7.5 7.5s3.357 7.5 7.5 7.5c3.197 0 5.799 2.602 5.799 5.799s-2.602 5.799-5.799 5.799c-2.877 0-5.346-2.141-5.742-4.984-.037-.262-.056-.537-.056-.814 0-4.142-3.357-7.5-7.5-7.5s-7.5 3.358-7.5 7.5c0 .972.067 1.946.2 2.892 1.424 10.209 10.279 17.907 20.598 17.907 11.469 0 20.799-9.33 20.799-20.799 0-5.055-1.816-9.691-4.825-13.299 3.009-3.608 4.825-8.244 4.825-13.298 0-11.47-9.331-20.8-20.799-20.8z"/></g></g></svg>