<svg viewBox="0 0 374.79001 498.48" xmlns="http://www.w3.org/2000/svg">
  <g
     id="g52"
     transform="translate(-61.845)">
    <g
       id="g18">
      <g
         id="XMLID_252_">
        <g
           id="g6">
          <g
             id="g4">
            <path
               d="m 436.635,53.59 v 431.97 c 0,7.14 -5.79,12.92 -12.93,12.92 H 74.775 c -7.14,0 -12.93,-5.78 -12.93,-12.92 V 12.92 C 61.845,5.79 67.635,0 74.775,0 h 308.27 z"
               fill="#efedef"
               id="path2" />
          </g>
        </g>
      </g>
      <path
         d="m 155.576,462.61 c -18.22,0 -32.99,-14.77 -32.99,-32.99 V 0 H 74.775 c -7.141,0 -12.93,5.789 -12.93,12.93 v 472.63 c 0,7.136 5.785,12.92 12.92,12.92 h 348.94 c 7.141,0 12.93,-5.789 12.93,-12.93 v -22.94 z"
         fill="#e5e1e5"
         id="path9" />
      <g
         id="XMLID_253_">
        <g
           id="g15">
          <path
             d="M 436.635,53.59 383.045,0 h -20.26 v 40.41 c 0,18.158 14.772,32.93 32.93,32.93 h 40.92 z"
             fill="#e5e1e5"
             id="path11" />
          <path
             d="m 383.045,0 53.34,53.34 h -40.67 c -7.14,0 -12.93,-5.79 -12.93,-12.93 V 0 Z"
             fill="#efedef"
             id="path13" />
        </g>
      </g>
    </g>
    <path
       d="m 294.264,388.86891 h 93.972 c 3.34,0 6.048,-2.708 6.048,-6.048 v -93.972 c 0,-3.34 -2.708,-6.048 -6.048,-6.048 h -93.972 c -3.34,0 -6.048,2.708 -6.048,6.048 v 93.972 c 0,3.34 2.707,6.048 6.048,6.048 z"
       fill="#ff1b10"
       id="path20"
       style="fill:#ff7f2a" />
    <path
       d="m 293.384,330.39991 -21.32,-20.281 c -3,-2.855 -7.748,-2.736 -10.604,0.265 -2.854,3.001 -2.735,7.748 0.266,10.603 l 7.723,7.347 h -94.662 c -4.143,0 -7.5,3.358 -7.5,7.5 0,4.142 3.357,7.5 7.5,7.5 h 94.662 l -7.723,7.347 c -3.001,2.855 -3.12,7.602 -0.266,10.603 1.475,1.55 3.453,2.331 5.436,2.331 1.856,0 3.717,-0.686 5.168,-2.066 l 21.32,-20.281 c 1.488,-1.416 2.331,-3.38 2.331,-5.434 0,-2.054 -0.843,-4.019 -2.331,-5.434 z"
       fill="#b5adb6"
       id="path22"
       style="fill:#666666" />
    <g
       id="g26"
       transform="translate(0,-21.419063)"
       style="fill:#00ffff">
      <path
         d="m 202.426,410.288 h -93.972 c -3.34,0 -6.048,-2.708 -6.048,-6.048 v -93.972 c 0,-3.34 2.708,-6.048 6.048,-6.048 h 93.972 c 3.34,0 6.048,2.708 6.048,6.048 v 93.972 c 0,3.34 -2.707,6.048 -6.048,6.048 z"
         fill="#36d128"
         id="path24"
         style="fill:#00ffff" />
    </g>
    <path
       d="m 108.454,388.86891 h 14.132 v -106.069 h -14.132 c -3.34,0 -6.048,2.708 -6.048,6.048 v 93.972 c 0,3.341 2.708,6.049 6.048,6.049 z"
       fill="#32be25"
       id="path28"
       style="fill:#00c9ff;fill-opacity:1" />
    <path
       d="m 319.432,201.11091 c -2.45,-3.341 -7.142,-4.064 -10.483,-1.615 l -22.873,16.768 c -0.033,0.025 -0.067,0.05 -0.101,0.075 l -67.601,51.326 2.737,-13.411 c 0.828,-4.059 -1.791,-8.02 -5.849,-8.848 -4.066,-0.828 -8.021,1.791 -8.849,5.849 l -6.227,30.514 c -0.828,4.059 1.791,8.02 5.849,8.848 l 32.468,6.625 c 0.507,0.103 1.011,0.153 1.508,0.153 3.49,0 6.616,-2.45 7.341,-6.002 0.828,-4.059 -1.791,-8.02 -5.849,-8.848 l -14.126,-2.883 67.619,-51.34 22.822,-16.73 c 3.34,-2.447 4.063,-7.14 1.614,-10.481 z"
       fill="#b5adb6"
       id="path30"
       style="fill:#999999" />
    <path
       d="m 294.264,223.62491 h 93.972 c 3.34,0 6.048,-2.708 6.048,-6.048 v -93.972 c 0,-3.34 -2.708,-6.048 -6.048,-6.048 h -93.972 c -3.34,0 -6.048,2.708 -6.048,6.048 v 93.972 c 0,3.34 2.707,6.048 6.048,6.048 z"
       fill="#36d128"
       id="path32"
       style="fill:#00ffff;fill-opacity:0.25" />
    <path
       d="m 293.384,165.15591 -21.32,-20.281 c -3,-2.855 -7.748,-2.736 -10.604,0.265 -2.854,3.001 -2.735,7.748 0.266,10.603 l 7.723,7.347 h -87.162 c -4.143,0 -7.5,3.358 -7.5,7.5 0,4.142 3.357,7.5 7.5,7.5 h 87.162 l -7.723,7.347 c -3.001,2.855 -3.12,7.602 -0.266,10.603 1.475,1.55 3.453,2.331 5.436,2.331 1.856,0 3.717,-0.686 5.168,-2.066 l 21.32,-20.281 c 1.488,-1.416 2.331,-3.38 2.331,-5.434 0,-2.054 -0.843,-4.018 -2.331,-5.434 z"
       fill="#b5adb6"
       id="path34"
       style="fill:#cccccc" />
    <path
       d="m 202.426,223.62491 h -93.972 c -3.34,0 -6.048,-2.708 -6.048,-6.048 v -93.972 c 0,-3.34 2.708,-6.048 6.048,-6.048 h 93.972 c 3.34,0 6.048,2.708 6.048,6.048 v 93.972 c 0,3.34 -2.707,6.048 -6.048,6.048 z"
       fill="#ff1b10"
       id="path36"
       style="fill:#ff7f2a;fill-opacity:0.25" />
    <path
       d="m 108.454,223.62491 h 14.132 v -106.069 h -14.132 c -3.34,0 -6.048,2.708 -6.048,6.048 v 93.972 c 0,3.341 2.708,6.049 6.048,6.049 z"
       fill="#f01b10"
       id="path38"
       style="fill:#d45500;fill-opacity:0.25" />
    <g
       fill="#ffffff"
       stroke="#111111"
       stroke-width="3"
       id="g50"
       transform="translate(0,-21.419063)">
      <path
         d="m 144.691,174.722 h 3.608 v 44.472 c 0,4.142 3.357,7.5 7.5,7.5 4.143,0 7.5,-3.358 7.5,-7.5 v -51.972 c 0,-4.142 -3.357,-7.5 -7.5,-7.5 h -11.108 c -4.143,0 -7.5,3.358 -7.5,7.5 0,4.142 3.357,7.5 7.5,7.5 z"
         id="path42"
         style="fill:#ffffff;fill-opacity:0.25;stroke-width:3;stroke-miterlimit:4;stroke-dasharray:6,6;stroke-dashoffset:0" />
      <path
         d="m 358.471,361.396 c 0.067,-12.149 0.093,-24.374 -0.06,-26.207 -0.401,-4.815 -3.344,-8.758 -7.496,-10.044 -4.147,-1.285 -8.507,0.263 -11.666,4.139 -2.959,3.631 -15.591,26.34 -20.885,35.936 -1.281,2.324 -1.24,5.151 0.109,7.436 1.349,2.285 3.805,3.687 6.458,3.687 h 18.438 c -0.021,2.743 -0.041,5.368 -0.063,7.774 -0.035,4.142 3.293,7.528 7.436,7.564 h 0.065 c 4.112,0 7.463,-3.316 7.499,-7.436 0.017,-1.95 0.039,-4.712 0.064,-7.946 3.764,-0.401 6.696,-3.587 6.696,-7.458 0.002,-3.835 -2.879,-6.999 -6.595,-7.445 z m -15.003,-0.054 h -5.779 c 2.045,-3.644 4.032,-7.152 5.826,-10.283 -0.011,3.187 -0.026,6.684 -0.047,10.283 z"
         id="path44" />
      <path
         d="m 325.53,184.542 c 4.068,0.798 8.007,-1.85 8.805,-5.914 0.531,-2.704 2.924,-4.667 5.689,-4.667 3.069,0 5.59,2.397 5.786,5.418 l -0.13,1.017 c -0.446,1.702 -1.557,4.458 -4.284,8.355 -8.212,11.733 -13.111,18.148 -15.743,21.594 -3.383,4.429 -5.246,6.869 -3.998,10.926 0.734,2.386 2.608,4.289 5.016,5.091 1.001,0.333 1.801,0.6 12.03,0.6 4.004,0 9.451,-0.041 16.918,-0.134 4.143,-0.052 7.458,-3.452 7.405,-7.594 -0.051,-4.11 -3.398,-7.406 -7.497,-7.406 -0.032,0 -0.064,0 -0.096,0 -4.067,0.051 -8.341,0.089 -12.206,0.107 2.683,-3.632 6.121,-8.385 10.46,-14.584 3.439,-4.914 5.688,-9.587 6.687,-13.888 0.058,-0.246 0.102,-0.495 0.134,-0.745 l 0.257,-2.01 c 0.04,-0.315 0.061,-0.633 0.061,-0.951 0,-11.469 -9.33,-20.799 -20.799,-20.799 -9.916,0 -18.499,7.055 -20.408,16.776 -0.799,4.068 1.848,8.01 5.913,8.808 z"
         id="path46"
         style="fill:#ffffff;fill-opacity:0.25;stroke-width:3;stroke-miterlimit:4;stroke-dasharray:6,6;stroke-dashoffset:0" />
      <path
         d="m 155.44,323.156 c -9.916,0 -18.499,7.055 -20.408,16.776 -0.798,4.064 1.85,8.006 5.914,8.805 4.064,0.795 8.007,-1.849 8.805,-5.914 0.531,-2.704 2.924,-4.667 5.689,-4.667 3.197,0 5.799,2.602 5.799,5.799 0,3.197 -2.602,5.798 -5.799,5.798 -4.143,0 -7.5,3.358 -7.5,7.5 0,4.142 3.357,7.5 7.5,7.5 3.197,0 5.799,2.602 5.799,5.799 0,3.197 -2.602,5.799 -5.799,5.799 -2.877,0 -5.346,-2.141 -5.742,-4.984 -0.037,-0.262 -0.056,-0.537 -0.056,-0.814 0,-4.142 -3.357,-7.5 -7.5,-7.5 -4.143,0 -7.5,3.358 -7.5,7.5 0,0.972 0.067,1.946 0.2,2.892 1.424,10.209 10.279,17.907 20.598,17.907 11.469,0 20.799,-9.33 20.799,-20.799 0,-5.055 -1.816,-9.691 -4.825,-13.299 3.009,-3.608 4.825,-8.244 4.825,-13.298 0,-11.47 -9.331,-20.8 -20.799,-20.8 z"
         id="path48" />
    </g>
  </g>
</svg>
