<svg width="512.01016" height="512" xmlns="http://www.w3.org/2000/svg">

 <g>
  <title>Layer 1</title>
  <path id="svg_1" fill="#ed8a19" d="m256.00391,238.94141l-87.16016,56.99218l0,103.00782l87.16016,61.86718l87.15625,-61.86718l0,-103.00782l-87.15625,-56.99218zm0,0"/>
  <g id="svg_2" fill="#7383bf">
   <path id="svg_3" d="m256.00391,204.80859c-4.71094,0 -8.53516,-3.82421 -8.53516,-8.53515l0,-34.13281c0,-4.71094 3.82422,-8.53516 8.53516,-8.53516c4.70703,0 8.53125,3.82422 8.53125,8.53516l0,34.13281c0,4.71094 -3.82422,8.53515 -8.53125,8.53515zm0,-76.80078c-4.71094,0 -8.53516,-3.82422 -8.53516,-8.53515l0,-34.13282c0,-4.71093 3.82422,-8.53125 8.53516,-8.53125c4.70703,0 8.53125,3.82032 8.53125,8.53125l0,34.13282c0,4.71093 -3.82422,8.53515 -8.53125,8.53515zm0,-76.80078c-4.71094,0 -8.53516,-3.82422 -8.53516,-8.53125l0,-34.13672c0,-4.70703 3.82422,-8.53125 8.53516,-8.53125c4.70703,0 8.53125,3.82422 8.53125,8.53125l0,34.13672c0,4.70703 -3.82422,8.53125 -8.53125,8.53125zm0,0"/>
   <path transform="rotate(-9.64142, 75.3398, 440.091)" id="svg_4" d="m-1.45703,499.00781c-2.78125,0 -5.50391,-1.35547 -7.14063,-3.85937c-2.58593,-3.94141 -1.48437,-9.23047 2.45703,-11.8086l28.54297,-18.72265c3.94141,-2.60157 9.22657,-1.48438 11.82032,2.45703c2.58593,3.94531 1.48437,9.23437 -2.45703,11.8125l-28.54688,18.72265c-1.44141,0.94532 -3.07031,1.39844 -4.67578,1.39844zm64.22266,-42.1289c-2.78125,0 -5.50391,-1.35938 -7.14063,-3.85938c-2.58594,-3.93359 -1.48828,-9.23047 2.45703,-11.80859l28.53516,-18.72266c3.9414,-2.60156 9.22265,-1.48437 11.8164,2.45703c2.58594,3.9336 1.48829,9.23438 -2.45703,11.8125l-28.53515,18.72266c-1.44922,0.95312 -3.07032,1.39844 -4.67578,1.39844zm64.21484,-42.1211c-2.78125,0 -5.50391,-1.35547 -7.14453,-3.85547c-2.58594,-3.9375 -1.48438,-9.23437 2.45703,-11.8125l25.16797,-16.51171c3.9414,-2.59375 9.22265,-1.49219 11.8164,2.45703c2.58594,3.93359 1.48438,9.23437 -2.45703,11.8125l-25.16406,16.51172c-1.45312,0.94531 -3.07422,1.39843 -4.67578,1.39843zm0,0"/>
   <path transform="rotate(11.0584, 437.669, 439.093)" id="svg_5" d="m514.46094,498.00781c-1.60547,0 -3.22656,-0.45312 -4.66797,-1.39844l-28.54297,-18.72265c-3.94531,-2.58594 -5.04297,-7.86719 -2.46094,-11.8125c2.58594,-3.94141 7.87891,-5.05078 11.82032,-2.45703l28.54296,18.72265c3.94532,2.58594 5.04297,7.86719 2.45703,11.8086c-1.64453,2.5039 -4.36718,3.85937 -7.14843,3.85937zm-64.21485,-42.1289c-1.60156,0 -3.22656,-0.45313 -4.67578,-1.39844l-28.53515,-18.72266c-3.94141,-2.58594 -5.04297,-7.8789 -2.45704,-11.8125c2.58594,-3.9414 7.875,-5.05078 11.81641,-2.45703l28.53906,18.72266c3.94141,2.58593 5.04297,7.875 2.45703,11.80859c-1.64062,2.51172 -4.37109,3.85938 -7.14453,3.85938zm-64.22265,-42.1211c-1.60157,0 -3.22266,-0.45312 -4.67578,-1.39844l-25.16407,-16.51171c-3.9414,-2.58594 -5.04297,-7.87891 -2.45703,-11.8125c2.58594,-3.94141 7.875,-5.04297 11.82031,-2.45704l25.16407,16.51172c3.9414,2.58594 5.04297,7.875 2.45703,11.8125c-1.62891,2.5 -4.35938,3.85547 -7.14453,3.85547zm0,0"/>
  </g>
  <path id="svg_6" fill="#61b872" d="m61.00012,435.20702c-3.12174,0 -6.2435,-1.19509 -8.6225,-3.57409l-48.79752,-48.79752c-4.77477,-4.76918 -4.77477,-12.4814 0,-17.25058c4.758,-4.76918 12.49257,-4.76918 17.25057,0l48.79753,48.79752c4.76917,4.76918 4.76917,12.4814 0,17.25058c-2.37902,2.379 -5.50635,3.57409 -8.62809,3.57409zm0,0"/>
  <path id="svg_7" fill="#61b872" d="m12.536,435.20704c-3.20704,0 -6.41407,-1.22774 -8.85806,-3.67174c-4.90522,-4.89948 -4.90522,-12.82239 0,-17.72186l50.13067,-50.13069c4.88799,-4.89946 12.83386,-4.89946 17.72187,0c4.89946,4.89948 4.89946,12.82239 0,17.72187l-50.13069,50.13067c-2.444,2.444 -5.65677,3.67174 -8.86379,3.67174zm0,0"/>
  <path id="svg_8" fill="#366db6" d="m452.67035,435.20703c-3.03647,0 -6.07836,-1.16244 -8.39237,-3.47645c-4.63889,-4.63889 -4.63889,-12.14041 0,-16.77928l47.4698,-47.46438c4.62803,-4.63887 12.15127,-4.63887 16.77386,0c4.64431,4.63889 4.64431,12.14041 0,16.77929l-47.46436,47.46436c-2.31401,2.31401 -5.35047,3.47645 -8.38693,3.47645zm0,0"/>
  <path id="svg_9" fill="#366db6" d="m500.63498,435.20703l-45.46528,0c-6.27502,0 -11.36893,-5.0939 -11.36893,-11.36372c0,-6.27502 5.0939,-11.36891 11.36893,-11.36891l45.46528,0c6.27502,0 11.36893,5.09389 11.36893,11.36891c0,6.26982 -5.0939,11.36372 -11.36893,11.36372zm0,0"/>
  <path id="svg_10" fill="#366db6" d="m499.96822,387.07422l-48.13174,0c-6.64304,0 -12.0357,-5.39265 -12.0357,-12.0357c0,-6.63753 5.39265,-12.03018 12.0357,-12.03018l48.13174,0c6.64304,0 12.0357,5.39265 12.0357,12.03018c0,6.64304 -5.39265,12.0357 -12.0357,12.0357zm0,0"/>
  <path id="svg_11" fill="#dd352e" d="m196.93704,102.27344c-6.7352,0 -12.20265,-5.46746 -12.20265,-12.19708l0,-48.80507c0,-6.72961 5.46745,-12.19708 12.20265,-12.19708c6.7352,0 12.19708,5.46746 12.19708,12.19708l0,48.80507c0,6.72961 -5.46187,12.19708 -12.19708,12.19708zm0,0"/>
  <path id="svg_12" fill="#dd352e" d="m200.27091,50.13972c-3.20705,0 -6.41984,-1.22775 -8.86385,-3.67176c-4.89951,-4.89951 -4.89951,-12.82247 0,-17.72198l25.06548,-25.0655c4.88804,-4.89951 12.83394,-4.89951 17.72198,0c4.89951,4.89951 4.89951,12.82247 0,17.72198l-25.0655,25.0655c-2.44401,2.44401 -5.65106,3.67176 -8.85812,3.67176zm0,0"/>
  <path id="svg_13" fill="#dd352e" d="m190.0199,47.13989c-3.01515,0 -6.0357,-1.15428 -8.33347,-3.45205l-23.56567,-23.56567c-4.60634,-4.60634 -4.60634,-12.05522 0,-16.66156c4.59554,-4.60634 12.06601,-4.60634 16.66156,0l23.56565,23.56567c4.60634,4.60634 4.60634,12.05522 0,16.66156c-2.29777,2.29777 -5.31292,3.45205 -8.32808,3.45205zm0,0"/>
  <path id="svg_14" fill="#dc691d" d="m258.60463,134.40625l-148.4679,96.26308l148.4679,104.51018l148.46171,-104.51018l-148.46171,-96.26308zm0,0"/>
  <path id="svg_15" fill="#ebba16" d="m110.13672,230.62901l0,174.75158l147.86719,104.95923l0,-174.75157l-147.86719,-104.95925zm0,0"/>
  <path id="svg_16" fill="#ed8a19" d="m406.86719,229.73304l0,175.9361l-148.86328,105.67068l0,-175.93608l148.86328,-105.6707zm0,0"/>
 </g>
</svg>