<svg id="Capa_1" enable-background="new 0 0 502 502" height="512" viewBox="0 0 502 502" width="512" xmlns="http://www.w3.org/2000/svg" xmlns:xlink="http://www.w3.org/1999/xlink"><linearGradient id="lg1"><stop offset="0" stop-color="#4e5660"/><stop offset="1" stop-color="#64768d"/></linearGradient><linearGradient id="SVGID_1_" gradientUnits="userSpaceOnUse" x1="75.323" x2="75.323" xlink:href="#lg1" y1="66.33" y2="-3.933"/><linearGradient id="lg2"><stop offset="0" stop-color="#ec6f80"/><stop offset="1" stop-color="#eca0aa"/></linearGradient><linearGradient id="SVGID_2_" gradientUnits="userSpaceOnUse" x1="109.885" x2="-22.22" xlink:href="#lg2" y1="65.858" y2="65.858"/><linearGradient id="SVGID_3_" gradientTransform="matrix(-1 0 0 1 511.654 0)" gradientUnits="userSpaceOnUse" x1="275.323" x2="275.323" xlink:href="#lg1" y1="66.33" y2="-3.933"/><linearGradient id="SVGID_4_" gradientTransform="matrix(-1 0 0 1 511.654 0)" gradientUnits="userSpaceOnUse" x1="309.885" x2="177.78" xlink:href="#lg2" y1="65.858" y2="65.858"/><linearGradient id="SVGID_5_" gradientUnits="userSpaceOnUse" x1="155.827" x2="155.827" xlink:href="#lg2" y1="237.226" y2="291.747"/><linearGradient id="SVGID_6_" gradientUnits="userSpaceOnUse" x1="155.827" x2="155.827" y1="246.394" y2="-12.388"><stop offset="0" stop-color="#f9edaf"/><stop offset="1" stop-color="#fffcdd"/></linearGradient><linearGradient id="SVGID_7_" gradientUnits="userSpaceOnUse" x1="181.705" x2="181.705" xlink:href="#lg1" y1="353.467" y2="227.694"/><linearGradient id="SVGID_8_" gradientTransform="matrix(-1 0 0 1 795.885 0)" gradientUnits="userSpaceOnUse" x1="381.705" x2="381.705" xlink:href="#lg1" y1="353.467" y2="227.694"/><linearGradient id="SVGID_9_" gradientUnits="userSpaceOnUse" x1="297.942" x2="297.942" y1="398.531" y2="477.556"><stop offset="0" stop-color="#4bb370"/><stop offset=".199" stop-color="#4eb575"/><stop offset=".4501" stop-color="#56bc85"/><stop offset=".7278" stop-color="#64c89f"/><stop offset="1" stop-color="#76d6bf"/></linearGradient><linearGradient id="SVGID_10_" gradientUnits="userSpaceOnUse" x1="297.942" x2="297.942" y1="500.904" y2="228.268"><stop offset="0" stop-color="#ad7d63"/><stop offset="1" stop-color="#cb9d82"/></linearGradient><linearGradient id="SVGID_12_" gradientUnits="userSpaceOnUse" x1="251.51" x2="384.386" y1="478.279" y2="478.279"><stop offset="0" stop-color="#f4c22c"/><stop offset="1" stop-color="#f9e198"/></linearGradient><g><path d="m87.022 85.436 33.618-22.902c-10.735-32.712-36.747-54.956-67.777-61.944-8.58-1.932-17.172 1.006-22.857 7.024 5.927 32.813 29.957 57.067 57.016 77.822z" fill="url(#SVGID_1_)"/><path d="m87.022 85.436c-6.125-46.074-34.086-67.381-57.016-77.822-2.589 2.741-4.575 6.12-5.682 9.968-11.934 41.486-2.075 84.158 5.943 106.519z" fill="url(#SVGID_2_)"/><path d="m224.632 85.436-33.618-22.902c10.735-32.712 36.747-54.957 67.777-61.945 8.58-1.932 17.173 1.006 22.858 7.024-5.928 32.814-29.958 57.068-57.017 77.823z" fill="url(#SVGID_3_)"/><path d="m224.632 85.436c6.126-46.074 34.087-67.381 57.017-77.822 2.589 2.741 4.575 6.12 5.682 9.968 11.934 41.486 2.075 84.158-5.943 106.519z" fill="url(#SVGID_4_)"/><path d="m56.133 236.402c-9.87 10.566-6.936 27.754 5.992 34.228 26.182 13.112 57.919 19.922 93.702 19.922 35.782 0 67.52-6.81 93.702-19.922 12.928-6.475 15.862-23.662 5.992-34.228l-22.457-24.042h-154.474z" fill="url(#SVGID_5_)"/><path d="m116.514 287.564c14.334-13.68 40.047-34.413 68.176-48.725 7.105-3.615 9.751-12.43 5.822-19.367-2.528-4.463-7.156-7.031-11.966-7.111h-.094c-2.172-.022-4.378.462-6.442 1.511-6.604 3.356-13.537 7.255-20.806 11.779-25.315 15.755-47.063 34.37-59.021 46.581-2.475 2.489-4.68 5.152-6.626 7.949 9.767 3.186 20.099 5.659 30.957 7.383z" fill="#e05d6f"/><path d="m155.827 31.625c-74.467 0-134.835 49.859-134.835 111.362 0 51.823 30.476 95.376 95.053 107.803 15.425-3.574 39.264-1.83 42.355 3.537 90.134-.926 132.262-50.415 132.262-111.34 0-61.503-60.367-111.362-134.835-111.362z" fill="url(#SVGID_6_)"/><g><ellipse cx="68.011" cy="163.253" fill="#eaadcd" rx="14.925" ry="11.994"/><ellipse cx="243.643" cy="163.253" fill="#eaadcd" rx="14.924" ry="11.994"/><ellipse cx="218.056" cy="133.697" fill="#fff" rx="29.557" ry="29.557" transform="matrix(.16 -.987 .987 .16 51.157 327.521)"/><path d="m200.485 135.144c.755 9.046 8.331 16.153 17.571 16.153 9.241 0 16.817-7.108 17.572-16.153z" fill="#3b3b44"/><path d="m218.056 104.14c-16.324 0-29.557 13.233-29.557 29.557 0 .486.014.968.037 1.447h59.04c.023-.48.037-.962.037-1.447 0-16.324-13.233-29.557-29.557-29.557z" fill="#966854"/><ellipse cx="93.598" cy="133.697" fill="#fff" rx="29.557" ry="29.557" transform="matrix(.16 -.987 .987 .16 -53.365 204.67)"/><path d="m76.026 135.144c.755 9.046 8.331 16.153 17.572 16.153s16.817-7.108 17.572-16.153z" fill="#3b3b44"/><path d="m93.598 104.14c-16.324 0-29.557 13.233-29.557 29.557 0 .486.014.968.037 1.447h59.04c.023-.48.037-.962.037-1.447 0-16.324-13.233-29.557-29.557-29.557z" fill="#966854"/><path d="m144.461 166.702c-2.015 0-4.024-.807-5.502-2.401-2.816-3.038-2.637-7.783.401-10.599 9.542-8.846 23.393-8.846 32.933 0 3.038 2.816 3.217 7.562.401 10.599-2.817 3.037-7.563 3.217-10.599.401-3.749-3.476-8.787-3.476-12.537 0-1.443 1.338-3.272 2-5.097 2z" fill="#3b3b44"/></g><g fill="#f5c98d"><path d="m18.788 183.248c-3.318 0-6.565-1.651-8.466-4.665-2.947-4.671-1.55-10.846 3.121-13.794 6.196-3.909 21.424-10.736 39.2-11.527 5.525-.246 10.189 4.028 10.435 9.546.245 5.518-4.029 10.189-9.546 10.435-12.545.558-24.701 5.485-29.416 8.46-1.657 1.046-3.504 1.545-5.328 1.545z"/><path d="m37.368 221.145c-2.409 0-4.826-.865-6.744-2.619-4.076-3.727-4.36-10.052-.634-14.128 6.835-7.477 19.779-17.636 33.765-21.66 5.308-1.528 10.848 1.537 12.375 6.845s-1.538 10.848-6.845 12.375c-9.343 2.688-19.054 9.939-24.534 15.934-1.972 2.158-4.673 3.253-7.383 3.253z"/></g><g fill="#f5c98d"><path d="m292.866 183.248c-1.824 0-3.67-.499-5.327-1.544-4.716-2.976-16.872-7.903-29.417-8.461-5.517-.246-9.791-4.917-9.546-10.435.246-5.517 4.916-9.79 10.434-9.546 17.775.79 33.004 7.617 39.2 11.526 4.671 2.947 6.068 9.122 3.122 13.793-1.901 3.016-5.147 4.667-8.466 4.667z"/><path d="m274.286 221.145c-2.71 0-5.411-1.095-7.384-3.253-5.479-5.994-15.191-13.246-24.534-15.934-5.307-1.527-8.372-7.068-6.845-12.375s7.064-8.371 12.375-6.845c13.986 4.024 26.93 14.183 33.765 21.66 3.726 4.076 3.442 10.401-.634 14.128-1.918 1.754-4.335 2.619-6.743 2.619z"/></g><path d="m112.104 291.908c-13.72 13.72-12.324 37.359 3.117 52.8s39.08 16.836 52.8 3.117c19.109-19.545 103.417-109.176 91.596-122.293-50.699-16.106-124.111 42.441-147.513 66.376z" fill="url(#SVGID_7_)"/><path d="m483.78 291.908c13.72 13.72 12.324 37.359-3.117 52.8s-39.08 16.836-52.8 3.117c-19.109-19.545-103.417-109.176-91.596-122.293 50.699-16.106 124.112 42.441 147.513 66.376z" fill="url(#SVGID_8_)"/><path d="m196.804 412.899c-9.011 12.578-4.454 30.196 9.477 36.927 25.784 12.457 56.803 18.921 91.661 18.921s65.877-6.464 91.661-18.921c13.931-6.731 18.488-24.349 9.477-36.927l-23.265-32.475h-155.746z" fill="url(#SVGID_9_)"/><ellipse cx="297.942" cy="321.182" fill="url(#SVGID_10_)" rx="134.835" ry="111.362"/><ellipse cx="297.942" cy="321.182" fill="url(#SVGID_10_)" rx="134.835" ry="111.362"/><path d="m330.116 454.582c-6.42-.289-12.307 1.978-16.734 5.867-1.791 1.573-4.065 2.484-6.449 2.484h-17.981c-2.384 0-4.658-.911-6.449-2.484-4.428-3.889-10.314-6.156-16.734-5.867-11.982.539-21.838 10.215-22.58 22.186-.854 13.785 10.073 25.232 23.674 25.232 5.989 0 11.457-2.222 15.631-5.885 1.795-1.575 4.07-2.492 6.458-2.492h17.979c2.388 0 4.663.917 6.458 2.492 4.174 3.663 9.642 5.885 15.631 5.885 13.601 0 24.529-11.447 23.674-25.232-.74-11.971-10.596-21.647-22.578-22.186z" fill="url(#SVGID_12_)"/><g><ellipse cx="210.057" cy="351.003" fill="#eaadcd" rx="14.936" ry="12.003"/><ellipse cx="385.828" cy="351.003" fill="#eaadcd" rx="14.936" ry="12.003"/><path d="m235.664 325.351c7.183 0 13.812 1.589 19.159 4.273 4.544 2.281 9.962-.802 10.365-5.87.113-1.423.125-2.875.029-4.348-.991-15.146-13.602-27.24-28.775-27.629-16.713-.428-30.396 12.992-30.396 29.608 0 .843.035 1.678.105 2.503.422 5.01 5.857 7.994 10.349 5.738 5.347-2.685 11.978-4.275 19.164-4.275z" fill="#fff"/><path d="m297.942 361.189c-6.447 0-12.894-2.155-18.273-6.465-4.989-3.997-5.794-11.282-1.797-16.271 3.997-4.99 11.282-5.793 16.271-1.797 2.237 1.792 5.361 1.792 7.598 0 4.988-3.997 12.273-3.193 16.271 1.797 3.997 4.989 3.193 12.274-1.797 16.271-5.379 4.311-11.826 6.465-18.273 6.465z" fill="#3b3b44"/><path d="m235.664 325.351c5.926 0 11.473 1.082 16.237 2.967.911-2.129 1.415-4.47 1.415-6.933 0-9.749-7.903-17.652-17.652-17.652s-17.652 7.903-17.652 17.652c0 2.463.504 4.803 1.415 6.933 4.763-1.885 10.311-2.967 16.237-2.967z" fill="#3b3b44"/><path d="m360.221 325.351c7.183 0 13.813 1.589 19.158 4.273 4.544 2.281 9.962-.802 10.365-5.87.113-1.423.125-2.875.029-4.348-.991-15.146-13.602-27.24-28.775-27.629-16.713-.428-30.396 12.992-30.396 29.608 0 .843.035 1.678.105 2.503.422 5.01 5.857 7.994 10.349 5.738 5.348-2.685 11.98-4.275 19.165-4.275z" fill="#fff"/><path d="m360.221 325.351c5.926 0 11.473 1.082 16.237 2.967.911-2.129 1.415-4.47 1.415-6.933 0-9.749-7.903-17.652-17.652-17.652s-17.652 7.903-17.652 17.652c0 2.463.504 4.803 1.415 6.933 4.764-1.885 10.311-2.967 16.237-2.967z" fill="#3b3b44"/></g><path d="m310.036 316.638c0-3.956-5.414-7.039-12.094-7.039-6.679 0-12.093 3.084-12.093 7.039 0 3.956 5.414 9.816 12.093 9.816 6.679-.001 12.094-5.861 12.094-9.816z" fill="#3b3b44"/><path d="m190.512 219.472c-3.685-6.507-11.835-8.988-18.501-5.6-6.604 3.356-13.537 7.255-20.806 11.779-12.928 8.046-24.92 16.836-35.159 25.139 12.063 2.322 25.314 3.559 39.782 3.559.865 0 1.717-.013 2.574-.022 8.307-5.531 17.17-10.848 26.289-15.489 7.104-3.615 9.75-12.43 5.821-19.366z" fill="#f5c98d"/></g></svg>