<?xml version="1.0"?>
<svg xmlns="http://www.w3.org/2000/svg" viewBox="0 0 64 64" width="512" height="512"><g id="wrench-tool-repair-construction"><rect x="5" y="33" width="12" height="4.94" style="fill:#ffda44"/><rect x="47" y="33" width="12" height="4.94" style="fill:#ffda44"/><path d="M17,37.94V55A6,6,0,0,1,5,55V37.94Z" style="fill:#ff5023"/><path d="M59,37.94V55a6,6,0,0,1-12,0V37.94Z" style="fill:#ff5023"/><polygon points="13 3 14 7 13 10 13 33 9 33 9 10 8 7 9 3 13 3" style="fill:#e0e0e2"/><path d="M43,14a10.97,10.97,0,0,1-5,9.21V55a6.009,6.009,0,0,1-6,6,6,6,0,0,1-6-6V23.21a10.985,10.985,0,0,1,1-19V13H37V4.21A10.991,10.991,0,0,1,43,14ZM34,55a2,2,0,1,0-2,2A2.006,2.006,0,0,0,34,55Z" style="fill:#e0e0e2"/><polygon points="55 7 55 33 51 33 51 7 53 3 55 7" style="fill:#e0e0e2"/><path d="M37.456,3.32A1,1,0,0,0,36,4.21V12H28V4.21a1,1,0,0,0-1.456-.89A11.987,11.987,0,0,0,25,23.74V55a7,7,0,0,0,14,0V23.74A11.987,11.987,0,0,0,37.456,3.32Zm0,19.055a1,1,0,0,0-.453.838V55a5,5,0,0,1-10,0V23.213a1,1,0,0,0-.453-.838A9.985,9.985,0,0,1,26,6.008V13a1,1,0,0,0,1,1H37a1,1,0,0,0,1-1V6.008a9.985,9.985,0,0,1-.547,16.367Z" style="fill:#231f20"/><path d="M17,32H14V10.162l.948-2.846a.985.985,0,0,0,.022-.559l-1-4A1,1,0,0,0,13,2H9a1,1,0,0,0-.97.757l-1,4a.985.985,0,0,0,.022.559L8,10.162V32H5a1,1,0,0,0-1,1V55a7,7,0,0,0,14,0V33A1,1,0,0,0,17,32ZM9.948,9.684,9.041,6.96,9.781,4h2.438l.74,2.96-.907,2.724A1,1,0,0,0,12,10V32H10V10A1,1,0,0,0,9.948,9.684ZM16,34v2.938H6V34ZM11,60a5.006,5.006,0,0,1-5-5V38.938H7V46H9V38.938h7V55A5.006,5.006,0,0,1,11,60Z" style="fill:#231f20"/><path d="M32,52a3,3,0,1,0,3,3A3,3,0,0,0,32,52Zm0,4a1,1,0,1,1,1-1A1,1,0,0,1,32,56Z" style="fill:#231f20"/><rect x="7" y="48" width="2" height="2" style="fill:#231f20"/><path d="M59,32H56V7a1,1,0,0,0-.1-.447l-2-4a1.042,1.042,0,0,0-1.79,0l-2,4A1,1,0,0,0,50,7V32H47a1,1,0,0,0-1,1V55a7,7,0,0,0,14,0V33A1,1,0,0,0,59,32ZM52,7.236l1-2,1,2V32H52ZM58,34v2.938H48V34ZM53,60a5.006,5.006,0,0,1-5-5V38.938h1V46h2V38.938h7V55A5.006,5.006,0,0,1,53,60Z" style="fill:#231f20"/><rect x="49" y="48" width="2" height="2" style="fill:#231f20"/></g></svg>
