<svg id="Capa_1" enable-background="new 0 0 512 512" height="512" viewBox="0 0 512 512" width="512" xmlns="http://www.w3.org/2000/svg"><g><path d="m33.784 140.627h444.432v37.463h-444.432z" fill="#7d8c97"/><g><path d="m277.423 255.187h42.86v52.266h-42.86z" fill="#d7e3f2"/><path d="m277.423 255.187h42.86v21.201h-42.86z" fill="#b7cee9"/><path d="m336.647 223.023h-75.587c-8.882 0-16.082 7.2-16.082 16.082s7.2 16.082 16.082 16.082h75.587c8.882 0 16.082-7.2 16.082-16.082-.001-8.882-7.201-16.082-16.082-16.082z" fill="#f29b4e"/><path d="m298.853 75.49c17.961 0 32.521 14.56 32.521 32.521v115.012h-65.042v-115.012c0-17.961 14.56-32.521 32.521-32.521z" fill="#f29b4e"/><g fill="#ef7d31"><path d="m266.332 197.601h65.042v25.422h-65.042z"/><path d="m298.853 75.49c-4.612 0-8.997.966-12.972 2.697 11.503 5.011 19.549 16.475 19.549 29.823v115.012h25.945v-115.011c-.001-17.961-14.561-32.521-32.522-32.521z"/></g></g><path d="m478.216 140.627v271.522h33.784v-265.278c0-3.448-2.796-6.244-6.244-6.244z" fill="#d76134"/><path d="m0 146.871v265.278h33.784v-271.522h-27.54c-3.449 0-6.244 2.796-6.244 6.244z" fill="#d76134"/><g><path d="m133.769 72.554h41.536v273.265h-41.536z" fill="#5ecfb4" transform="matrix(.978 -.208 .208 .978 -40.115 36.701)"/><path d="m109.721 75.082h41.536v41.937h-41.536z" fill="#50b3a0" transform="matrix(.978 -.208 .208 .978 -17.118 29.229)"/><g><path d="m71.08 54.398-33.54 7.129c-1.291.274-2.559-.549-2.833-1.84l-2.019-9.501c-.3-1.41-1.686-2.31-3.096-2.01l-24.92 5.297c-1.41.3-2.31 1.686-2.01 3.096l11.67 54.901c.3 1.41 1.686 2.31 3.096 2.01l24.92-5.297c1.41-.3 2.31-1.686 2.01-3.096l-2.019-9.501c-.274-1.291.549-2.559 1.84-2.833l33.54-7.129z" fill="#b7cee9"/><path d="m159.019 20.666-94.421 20.07c-3.21.682-5.26 3.838-4.577 7.049l10.284 48.381c.682 3.21 3.838 5.26 7.049 4.578l113.556-24.137c4.882-1.038 9.867 1.255 12.256 5.637l9.127 16.743c1.574 2.887 5.19 3.951 8.076 2.378l8.021-3.486c8.182-4.46 11.413-13.701 6.952-21.883l-14.718-26.994c-12.011-22.029-37.064-33.553-61.605-28.336z" fill="#d7e3f2"/></g></g><path d="m418.285 90.325h-24.075c-2.463 0-4.662 1.54-5.505 3.854l-15.89 43.66c-1.72 4.725-.984 9.995 1.965 14.068l12.58 17.379c1.786 2.468 2.748 5.437 2.748 8.483v158.356h32.279v-158.355c0-3.047.962-6.015 2.748-8.483l12.58-17.379c2.948-4.073 3.684-9.343 1.965-14.068l-15.89-43.66c-.842-2.314-3.042-3.855-5.505-3.855z" fill="#d7e3f2"/><path d="m512 307.453h-512v177.84c0 4.023 3.261 7.285 7.285 7.285h497.431c4.023 0 7.285-3.261 7.285-7.285v-177.84z" fill="#f29b4e"/><path d="m504.715 461.513h-497.43c-4.023 0-7.285-3.262-7.285-7.285v31.065c0 4.023 3.261 7.285 7.285 7.285h497.431c4.023 0 7.285-3.261 7.285-7.285v-31.065c-.001 4.024-3.262 7.285-7.286 7.285z" fill="#ef7d31"/><path d="m199.206 360.85v33.996c0 2.845 2.306 5.151 5.151 5.151h103.287c2.845 0 5.151-2.306 5.151-5.151v-33.996c0-2.845-2.306-5.151-5.151-5.151h-103.287c-2.845 0-5.151 2.306-5.151 5.151z" fill="#d76134"/></g></svg>