<svg xmlns="http://www.w3.org/2000/svg" viewBox="0 0 81.81 70.126"><defs><style>.a{fill:#8c818f;}.b{fill:#a29aa5;}.c{fill:#efedef;}.d{fill:#766d78;}</style></defs><g transform="translate(0 -36.563)"><path class="a" d="M17.97,37.1c-1.3,14.973-30.5,14.583-11.651,37.8l1.834-4.643c-11.917-13.812,25.672-8.124,10.9-33.4A.581.581,0,0,0,17.97,37.1Z"/><path class="b" d="M98.106,195.852v.652a1.7,1.7,0,0,1-1.7,1.7h-7.7a2.833,2.833,0,0,1-2.55-1.6l-6.3-13.011a17.98,17.98,0,0,1-6.741-.064c-6.637-1.235-10.248-6.135-15.35-10.619,1.357,7.775-6.011,12.847-8.5,14.322a.607.607,0,0,0-.058,1.007l5.373,4.054,5.26,1.767a2.127,2.127,0,0,1-.677,4.143h-8.4a2.966,2.966,0,0,1-1.661-.509l-9.375-6.342a2.178,2.178,0,0,1-.8-2.626l4.109-10.092c-9.633-5.088-12.4-13.953-6.246-21.669,6.508-8.167,21.688.558,28.924-1.2s20.419-10.285,20.419-10.285L95,171.439a56.175,56.175,0,0,1-6.943,7.945l5.087,13.12,3.963,1.8a1.7,1.7,0,0,1,1,1.548Z" transform="translate(-28.168 -91.516)"/><g transform="translate(16.506 69.548)"><path class="a" d="M195.978,299.126l2.135,4.408a17.979,17.979,0,0,1-6.741-.064c-6.637-1.235-10.248-6.135-15.35-10.619a14,14,0,0,0-1.756-4.62c6.326,4.4,9.22,9.523,15.709,10.666a20.648,20.648,0,0,0,6,.229Z" transform="translate(-162.928 -281.003)"/><path class="a" d="M362.717,304.311l-3.963-1.8-5.087-13.12a56.173,56.173,0,0,0,6.943-7.945l-1.72-5.036a78.84,78.84,0,0,1-8.675,11.34,2.019,2.019,0,0,0-.431,2.148l5.273,13.346,3.963,1.8a1.7,1.7,0,0,1,1,1.548v.652a1.693,1.693,0,0,1-.3.967h2.3a1.7,1.7,0,0,0,1.7-1.7v-.652A1.7,1.7,0,0,0,362.717,304.311Z" transform="translate(-310.282 -271.071)"/><path class="a" d="M118.409,275.976l-5.2-1.747-5.373-4.054a.606.606,0,0,1,.056-1.006c3.595-2.126,17.351-11.747.38-26.172a1.383,1.383,0,0,0-.9,2.282c11.521,13.409-.454,22.282-3.772,24.367a.667.667,0,0,0-.056,1.069l5.373,4.308,5.26,1.878a2.253,2.253,0,0,1,1.449,2.142,2.361,2.361,0,0,1-.266,1.094h2.431a2.126,2.126,0,0,0,2.123-2.245A2.18,2.18,0,0,0,118.409,275.976Z" transform="translate(-103.303 -242.998)"/></g><g transform="translate(45.993 44.228)"><path class="c" d="M441.366,84.55c-4.671.9-8.193,5.489-7.9,8.594l7.5,7.851c3.663-4.619,3.968-11.674,1.081-16.151A.665.665,0,0,0,441.366,84.55Z" transform="translate(-410.184 -84.538)"/><path class="c" d="M290.474,84.55c4.671.9,8.193,5.489,7.9,8.594l-7.5,7.851c-3.663-4.619-3.968-11.674-1.081-16.151A.665.665,0,0,1,290.474,84.55Z" transform="translate(-287.847 -84.538)"/></g><path class="c" d="M301.472,126.054a35.962,35.962,0,0,0-14.554,0c-3.849,1.029-7.727,2.877-9.9,8.513a25.813,25.813,0,0,0-1.731,7.562.658.658,0,0,0,.729.693c1.71-.182,3.835-.6,3.835-.6s.193,2.589.472,4.2a.658.658,0,0,0,1.129.338c1.06-1.127,2.4-2.913,2.4-2.913s1.55,10.063,7.154,13.175a.813.813,0,0,0,.395.1h5.6a.814.814,0,0,0,.395-.1c5.6-3.112,7.154-13.175,7.154-13.175s1.339,1.786,2.4,2.913a.658.658,0,0,0,1.128-.338c.279-1.614.472-4.2.472-4.2s2.124.413,3.835.6a.658.658,0,0,0,.729-.693,25.817,25.817,0,0,0-1.731-7.562C309.2,128.931,305.321,127.083,301.472,126.054Z" transform="translate(-231.297 -74.567)"/><path class="b" d="M311.08,112.27c2.245-.025,6.339,3.336,9.408,6.333-2.175-5.636-6.053-10.519-9.9-11.549a35.962,35.962,0,0,0-14.554,0c-3.849,1.029-7.726,5.913-9.9,11.549,3.069-3,7.163-6.358,9.408-6.333,2.456.028,5.8,5.437,7.162,7.823a.7.7,0,0,0,1.219,0c1.358-2.386,4.706-7.8,7.162-7.823Z" transform="translate(-240.411 -58.603)"/><path class="d" d="M372.538,257.526c-.807-1.519-3.817-1.637-4.721-1.637s-3.913.118-4.721,1.637a2.078,2.078,0,0,0,.242,2.132c.838,1.395,2.977,3.016,4.479,3.016s3.64-1.621,4.479-3.016A2.078,2.078,0,0,0,372.538,257.526Z" transform="translate(-304.92 -184.281)"/><path class="a" d="M335.546,197.478a1.235,1.235,0,0,1-1.235-1.235v-1.8a1.235,1.235,0,0,1,2.47,0v1.8A1.235,1.235,0,0,1,335.546,197.478Z" transform="translate(-280.893 -131.619)"/><path class="a" d="M438.744,197.478a1.235,1.235,0,0,1-1.235-1.235v-1.8a1.235,1.235,0,0,1,2.47,0v1.8A1.235,1.235,0,0,1,438.744,197.478Z" transform="translate(-367.602 -131.619)"/></g></svg>
