<svg viewBox="0 0 40.520107 57.000023" xmlns="http://www.w3.org/2000/svg">
  <title>Layer box behind chair</title>
  <g
    transform="matrix(0.08469922,0,0,0.08469922,0,22.038515)">
    <path
      fill="#926e43"
      d="M 238,2.8 V 337.6 L 56,266 V 150 l 97.2,-1.6 z m 0,-2 v 0 L 56,57.2 Z"/>
    <polygon
      fill="#d9ac80"
      points="0,151.2 153.2,148.8 239.2,0.80000305 56,57.199997 "/>
    <polygon
      fill="#a67e4f"
      points="238,337.60001 420,266 420,150 325.20001,148.8 239.60001,1.1999969 238,0.80000305 "/>
    <polygon
      fill="#d9ac80"
      points="478.39999,151.2 325.20001,148.8 239.2,0.80000305 422.39999,57.199997 "/>
  </g>
  <g
    fill="#99501a"
    transform="translate(5.08299)">
    <path
      d="m 30.00015,57.00002 h -2 v -22 h -24 v 22 h -2 v -24 h 28 z"/>
    <path
      d="m 2.00015,47.00002 h 28 v 2 h -28 z"/>
    <path
      d="m 11.00015,10.00002 h 2 v 20 h -2 z"/>
    <path
      d="m 19.00015,10.00002 h 2 v 20 h -2 z"/>
    <path
      d="m 4.00015,11.00002 h 2 v 20 h -2 z"/>
    <path
      d="m 26.00015,11.00002 h 2 v 20 h -2 z"/>
    <path
      fill="#f9ac46"
      d="m 32.00015,34.00002 a 1.85,1.85 0 0 1 -0.18,0.81 1.84,1.84 0 0 1 -0.41,0.59 2,2 0 0 1 -1.41,0.6 h -28 a 2,2 0 0 1 -1.82,-1.18 1.85,1.85 0 0 1 -0.18,-0.82 4,4 0 0 1 4,-4 h 24 a 4,4 0 0 1 4,4 z"/>
    <path
      fill="#f49e21"
      d="m 31.82015,34.81002 a 1.84,1.84 0 0 1 -0.41,0.59 2,2 0 0 1 -1.41,0.6 h -28 a 2,2 0 0 1 -1.82,-1.18 4.18,4.18 0 0 1 1,-1.64 4,4 0 0 1 2.82,-1.18 h 24 a 4,4 0 0 1 3.82,2.81 z"/>
    <path
      fill="#f49e21"
      d="m 30.00015,6.00002 v 3 a 2,2 0 0 1 -2,2 h -24 a 2,2 0 0 1 -2,-2 v -3 a 6,6 0 0 1 6,-6 h 16 a 6,6 0 0 1 6,6 z"/>
    <path
      fill="#f9ac46"
      d="m 27.50015,3.50002 v 3 a 2,2 0 0 1 -2,2 h -23.5 v -2.5 a 6,6 0 0 1 6,-6 h 16 a 6,6 0 0 1 2.81,0.69 6,6 0 0 1 0.69,2.81 z"/>
  </g>
</svg>
