<svg viewBox="0 0 157.54448 74.021042" xmlns="http://www.w3.org/2000/svg">
  <title>Layer chair box closet</title>
  <style type="text/css">
    .st0{fill:#847059;}
    .st1{fill:#665646;}
    .st2{fill:#54473B;}
    .st3{fill:#9E8771;}
    .st4{fill:#AF9680;}
    .st5{fill:none;stroke:#382016;stroke-width:2;stroke-miterlimit:10;}
    .st6{fill:none;stroke:#E0E1E2;stroke-width:2;stroke-linecap:round;stroke-miterlimit:10;}
  </style>
  <g transform="matrix(0.10576875,0,0,0.10576875,32.096104,21.427076)">
    <path
       fill="#926e43"
       d="M 238,2.8 V 337.6 L 56,266 V 150 l 97.2,-1.6 z m 0,-2 v 0 L 56,57.2 Z" />
    <polygon
       fill="#d9ac80"
       points="239.2,0.80000305 56,57.199997 0,151.2 153.2,148.8 " />
    <polygon
       fill="#a67e4f"
       points="420,150 325.20001,148.8 239.60001,1.1999969 238,0.80000305 238,337.60001 420,266 " />
    <polygon
       fill="#d9ac80"
       points="239.2,0.80000305 422.39999,57.199997 478.39999,151.2 325.20001,148.8 " />
  </g>
  <g
     fill="#99501a"
     transform="matrix(1.0240249,0,0,1.0240249,1.7508718e-6,7.2808988)">
    <path
       d="m 30.00015,57.00002 h -2 v -22 h -24 v 22 h -2 v -24 h 28 z" />
    <path
       d="m 2.00015,47.00002 h 28 v 2 h -28 z" />
    <path
       d="m 11.00015,10.00002 h 2 v 20 h -2 z" />
    <path
       d="m 19.00015,10.00002 h 2 v 20 h -2 z" />
    <path
       d="m 4.00015,11.00002 h 2 v 20 h -2 z" />
    <path
       d="m 26.00015,11.00002 h 2 v 20 h -2 z" />
    <path
       fill="#f9ac46"
       d="m 32.00015,34.00002 a 1.85,1.85 0 0 1 -0.18,0.81 1.84,1.84 0 0 1 -0.41,0.59 2,2 0 0 1 -1.41,0.6 h -28 a 2,2 0 0 1 -1.82,-1.18 1.85,1.85 0 0 1 -0.18,-0.82 4,4 0 0 1 4,-4 h 24 a 4,4 0 0 1 4,4 z" />
    <path
       fill="#f49e21"
       d="m 31.82015,34.81002 a 1.84,1.84 0 0 1 -0.41,0.59 2,2 0 0 1 -1.41,0.6 h -28 a 2,2 0 0 1 -1.82,-1.18 4.18,4.18 0 0 1 1,-1.64 4,4 0 0 1 2.82,-1.18 h 24 a 4,4 0 0 1 3.82,2.81 z" />
    <path
       fill="#f49e21"
       d="m 30.00015,6.00002 v 3 a 2,2 0 0 1 -2,2 h -24 a 2,2 0 0 1 -2,-2 v -3 a 6,6 0 0 1 6,-6 h 16 a 6,6 0 0 1 6,6 z" />
    <path
       fill="#f9ac46"
       d="m 27.50015,3.50002 v 3 a 2,2 0 0 1 -2,2 h -23.5 v -2.5 a 6,6 0 0 1 6,-6 h 16 a 6,6 0 0 1 2.81,0.69 6,6 0 0 1 0.69,2.81 z" />
  </g>
  <g transform="matrix(1.2762249,0,0,1.2762249,83.523432,0)">
    <rect
       x="12"
       y="1"
       class="st0"
       width="34"
       height="54"/>
    <polygon
       class="st0"
       points="3,58 3,55 3,3 7,1 0,1 0,58 "/>
    <polygon
       class="st0"
       points="55,58 58,58 58,1 51,1 55,3 55,55 "/>
    <rect
       x="12"
       y="4"
       class="st1"
       width="17"
       height="48"/>
    <rect
       x="29"
       y="4"
       class="st2"
       width="17"
       height="48"/>
    <polygon
       class="st3"
       points="9,0 9,58 3,55 3,3 "/>
    <rect
       x="9"
       class="st4"
       width="3"
       height="58"
       y="0" />
    <polygon
       class="st3"
       points="49,0 49,58 55,55 55,3 "/>
    <rect
       x="46"
       class="st4"
       width="3"
       height="58"
       y="0" />
    <path
       class="st5"
       d="M 29,19"/>
    <path
       class="st5"
       d="M 12,19"/>
    <path
       class="st6"
       d="M 43,12"/>
    <path
       class="st6"
       d="M 32,12"/>
    <polygon
       class="st2"
       points="12,14 12,4 29,4 30.1,15 "/>
    <rect
       x="12"
       y="43"
       class="st3"
       width="34"
       height="2"/>
    <line
       class="st3"
       x1="46"
       y1="13"
       x2="46"
       y2="15"/>
  </g>
</svg>
