<svg
   viewBox="0 0 437.60646 440.92065"
   xmlns="http://www.w3.org/2000/svg">
  <defs>
    <style>
      .a{fill:#ce3c66;}.b{fill:#f794aa;}.c{fill:#fad2c8;}.d{fill:#efb3b1;}.e{fill:#f8931d;}.f{fill:#54110a;}.g{fill:#fe68a5;}.h{fill:#e55ca3;}.i{fill:#ffd9e2;}.j,.l,.p,.t,.v{fill:none;stroke-linecap:round;stroke-linejoin:round;}.j,.l{stroke:#54110a;}.k{fill:#ffb43b;}.l,.v{stroke-width:2px;}.m{fill:#f7b9b6;}.n{fill:#fff8fa;}.o{fill:#ffd5c7;}.p,.v{stroke:#301f22;}.q{fill:#301f22;}.r{fill:#876f71;}.s{fill:#42697a;}.t{stroke:#5b9299;}.u{fill:#f6b93b;}.w{fill:#d66454;}.x{fill:#fff;}.y{fill:#e25b24;}.z{fill:#e87d34;}.aa{fill:#ef9d30;}
    </style>
  </defs>
  <g transform="matrix(1.0369821,0,0,1.0369821,92.291407,-47.355102)">
    <circle
       cx="122"
       cy="259.86227"
       r="211"
       fill="#f9f4ef"
       opacity="0.57"/>
  </g>
  <g
     transform="translate(105.8362,-417.28382)">
    <g
       transform="translate(149.442,544)"
       id="g958">
      <g
         transform="translate(33.26,204.649)"
         id="g846">
        <g
           id="g842">
          <g
             transform="translate(0,28.513)"
             id="g836">
            <path
               class="a"
               d="m 479.307,412.7 a 3.226,3.226 0 0 0 2.079,-0.344 c 2.986,-1.539 4.376,-8.085 4.709,-14.333 0.046,-0.689 0.069,-1.367 0.08,-2.033 a 79.456,79.456 0 0 0 -0.356,-9.877 c 0,0 -1.964,-3.48 -3.79,-7.006 -1.826,-3.526 -3.537,-7.063 -3.537,-7.063 0,0 -0.092,-0.035 -0.253,-0.1 -0.517,-0.206 -1.78,-0.711 -3.342,-1.2 a 19.756,19.756 0 0 0 -3.147,-0.724 7.765,7.765 0 0 0 -2.975,0.057 2.7,2.7 0 0 0 -2.1,2.572 c -0.563,6.007 4.812,38.796 12.632,40.051 z"
               transform="translate(-466.631,-369.894)"
               id="path832" />
            <path
               class="b"
               d="m 471.209,372.633 c -0.559,6.008 4.818,38.8 12.642,40.053 a 3.192,3.192 0 0 0 2.075,-0.345 59.064,59.064 0 0 1 -7.5,-15.022 100.785,100.785 0 0 1 -5.107,-27.266 2.7,2.7 0 0 0 -2.11,2.58 z"
               transform="translate(-471.169,-369.884)"
               id="path834" />
          </g>
          <g
             transform="translate(11.579)"
             id="g840">
            <path
               class="c"
               d="m 427.565,375.717 q 0.26,1.033 0.586,2.067 a 32.982,32.982 0 0 0 1.642,4.216 41.821,41.821 0 0 0 5.054,8 68.12,68.12 0 0 0 12.829,-4.2 46.442,46.442 0 0 0 19.742,-16.8 57.467,57.467 0 0 0 3.767,-6.386 c 2.252,-4.329 4.078,-8.889 5.88,-13.4 q -9.233,-2.514 -18.468,-5.1 c -1.08,-0.3 -2.17,-0.608 -3.261,-0.908 -0.655,-0.184 -0.677,-0.356 -0.9,0.3 -0.987,2.974 -1.838,5.972 -2.975,8.9 a 40.661,40.661 0 0 1 -5.2,9.888 23.512,23.512 0 0 1 -2.631,2.929 31.144,31.144 0 0 1 -8.682,5.49 c -1.459,0.643 -2.964,1.218 -4.457,1.745 -0.712,0.253 -1.447,0.46 -2.159,0.678 -0.2,0.069 -1.137,0.218 -1.24,0.4 -0.192,0.32 0.37,1.779 0.473,2.181 z"
               transform="translate(-427.054,-343.036)"
               id="path838" />
          </g>
        </g>
        <path
           class="d"
           d="m 427.054,362.291 a 34.367,34.367 0 0 0 24.922,0.322 c 2.252,-4.329 4.078,-8.889 5.88,-13.4 q -9.233,-2.514 -18.468,-5.1 c -1.08,-0.3 -2.17,-0.608 -3.261,-0.908 -0.655,-0.184 -0.677,-0.356 -0.9,0.3 -0.987,2.974 -1.838,5.972 -2.975,8.9 a 40.661,40.661 0 0 1 -5.198,9.886 z"
           transform="translate(-396.265,-343.036)"
           id="path844" />
      </g>
      <path
         class="e"
         d="m 368.031,223.224 c 21.8,-2.684 32.943,2.346 42.473,10.534 l -1.909,2.529 a 62.469,62.469 0 0 0 -11.717,-5.993 c 3.188,2.766 7.013,5.58 9.457,9.278 l -3.011,4.251 a 48.343,48.343 0 0 0 -7.407,-5.828 37.016,37.016 0 0 1 5.536,8.345 l -3.154,4.346 c -2.359,-3.142 -3.053,-3.958 -7.511,-6.813 a 53.223,53.223 0 0 1 4.3,11.456 l -3.732,5.017 C 387,249.1 377.617,236.434 368.031,223.224 Z"
         transform="translate(-252.994,-145.815)"
         id="path848" />
      <path
         class="e"
         d="m 501.873,235.012 c -20.973,3.914 -29.815,11.835 -36.24,22.207 l 2.509,1.781 a 60.792,60.792 0 0 1 9.094,-8.981 c -2.141,3.494 -4.859,7.22 -6.039,11.356 l 4.033,3.049 a 46.92,46.92 0 0 1 5.151,-7.564 35.943,35.943 0 0 0 -2.681,9.34 l 4.193,3.095 c 1.264,-3.6 1.669,-4.556 4.96,-8.506 a 51.468,51.468 0 0 0 -0.626,11.859 l 4.924,3.547 c 0.738,-11.677 5.718,-26.15 10.722,-41.183 z"
         transform="translate(-447.98,-145.044)"
         id="path850" />
      <g
         transform="translate(86.751,209.904)"
         id="g866">
        <g
           transform="translate(0,54.232)"
           id="g858">
          <path
             class="a"
             d="m 398.35,412.22 c 5.03,2.354 35.132,6.076 38.324,0.528 a 2.454,2.454 0 0 0 0.311,-1.665 c -0.426,-2.631 -5.639,-5.651 -10.75,-7.994 -5.111,-2.343 -10.107,-4.019 -10.107,-4.019 l -14.471,1.343 c 0,0 -0.069,0.081 -0.185,0.219 h -0.011 c -0.862,1.034 -4.514,5.525 -4.709,8.751 a 2.68,2.68 0 0 0 1.598,2.837 z"
             transform="translate(-396.739,-399.07)"
             id="path852" />
          <path
             class="c"
             d="m 406.9,400.632 c 0.839,0.413 16.757,7.993 24.762,2.458 -5.1,-2.343 -10.107,-4.019 -10.107,-4.019 l -14.471,1.343 c 0,0 -0.069,0.08 -0.184,0.218 z"
             transform="translate(-402.165,-399.07)"
             id="path854" />
          <path
             class="b"
             d="m 398.354,411.62 c 5.03,2.353 35.128,6.072 38.324,0.527 a 2.439,2.439 0 0 0 0.307,-1.661 c -5.974,1.4 -21,3.745 -40.231,-1.7 a 2.677,2.677 0 0 0 1.6,2.834 z"
             transform="translate(-396.743,-398.471)"
             id="path856" />
        </g>
        <g
           transform="translate(4.7)"
           id="g862">
          <path
             class="c"
             d="m 406.715,403.768 c 5.673,1.16 10.371,0.724 16.63,-0.873 0,0 1.723,-8.855 3.261,-17.756 1.563,-8.9 2.8,-17.882 2.8,-17.882 l 0.425,-3.089 v -0.1 c 0,0 0.035,-0.229 0.081,-0.643 0.16,-1.274 0.529,-4.306 0.908,-7.338 0.447,-3.985 0.884,-7.982 0.884,-7.982 l -21.271,-0.115 c 0,0 -0.1,3.755 -0.2,7.511 -0.034,1.091 -0.081,2.182 -0.115,3.17 -0.1,2.423 -0.172,4.307 -0.172,4.307 v 0.068 l -0.138,3.021 c 0,0 -0.471,9.314 -1.3,18.72 -0.794,9.391 -1.793,18.981 -1.793,18.981 z"
             transform="translate(-406.715,-347.986)"
             id="path860" />
        </g>
        <path
           class="d"
           d="m 406.715,358.667 c 2.906,0 5.742,1.39 8.533,2.423 a 38.075,38.075 0 0 0 11.255,2.331 c 0.16,-1.274 0.529,-4.306 0.908,-7.338 0.447,-3.985 0.884,-7.982 0.884,-7.982 l -21.271,-0.115 c 0,0 -0.1,3.755 -0.2,7.511 -0.024,1.091 -0.075,2.182 -0.109,3.17 z"
           transform="translate(-398.604,-347.986)"
           id="path864" />
      </g>
      <g
         transform="translate(0,116.234)"
         id="g880">
        <g
           transform="translate(0,0.193)"
           id="g874">
          <path
             class="c"
             d="m 517.663,272.788 c 0,0 -0.26,-3.076 -0.812,-6.1 -0.552,-3.024 -1.409,-5.99 -2.728,-5.783 -2.648,0.4 -2.194,7.361 -2.194,7.361 0,0 -2.254,-2.464 -4.845,-4.722 -2.591,-2.258 -5.529,-4.3 -6.993,-3.387 -0.995,0.62 0.183,2.648 1.63,4.517 a 42.9,42.9 0 0 0 3.154,3.573 47.193,47.193 0 0 0 -4.691,-2.108 c -2.44,-0.918 -5.064,-1.573 -5.843,-0.443 -0.779,1.13 1.019,2.987 3.02,4.54 a 40.515,40.515 0 0 0 4.2,2.808 c 0,0 -2.4,-0.428 -4.867,-0.619 -2.467,-0.191 -4.993,-0.147 -5.23,0.872 -0.422,1.832 1.7,3.238 3.932,4.163 a 26.926,26.926 0 0 0 4.565,1.381 c 0,0 -7.2,-0.665 -7.6,1.838 -0.2,1.257 2.311,2.353 4.873,3.115 a 47.31,47.31 0 0 0 5.174,1.2 11.319,11.319 0 0 0 2.429,2.087 6.913,6.913 0 0 0 5.79,1.064 c 4.463,-1.396 8.404,-11.026 7.036,-15.357 z"
             transform="translate(-491.413,-259.935)"
             id="path868" />
          <g
             transform="translate(15.948,8.887)"
             id="g872">
            <path
               class="f"
               d="m 500.971,268.339 a 6.168,6.168 0 0 0 -3.277,2.945 5.944,5.944 0 0 0 -0.423,1.09 6.071,6.071 0 0 0 0.01,3.294 0.50308374,0.50308374 0 1 0 0.967,-0.278 5.081,5.081 0 0 1 -0.007,-2.75 4.832,4.832 0 0 1 0.349,-0.907 5.147,5.147 0 0 1 2.728,-2.458 0.507,0.507 0 0 0 0.294,-0.648 0.5,0.5 0 0 0 -0.641,-0.288 z"
               transform="translate(-497.049,-268.306)"
               id="path870" />
          </g>
        </g>
        <path
           class="c"
           d="m 486.047,259.753 15.671,10.366 a 73.57,73.57 0 0 1 -6.209,8.063 c -2.025,2.464 -4.12,4.877 -6.311,7.2 -5.516,5.837 -12.231,12.215 -20.455,13.6 -6.473,1.088 -12.42,-2.391 -17.763,-5.64 -1.106,-0.672 -2.209,-1.348 -3.3,-2.039 q -1.366,-0.862 -2.724,-1.739 c -0.345,-0.223 -2.087,-1.047 -2.148,-1.41 -0.033,-0.194 0.454,-0.808 0.547,-0.971 l 1.178,-2.1 5.577,-9.915 c 3.793,2.141 7.608,4.348 11.587,6.129 2.073,0.927 3.8,1.668 5.958,0.532 a 19.817,19.817 0 0 0 4.708,-3.921 107.684,107.684 0 0 0 13.684,-18.155 z"
           transform="translate(-423.583,-259.753)"
           id="path876" />
        <path
           class="d"
           d="m 448.675,259.753 15.671,10.366 c -0.083,0.136 -1.82,2.538 -3.653,4.874 -1.833,2.336 -3.746,4.623 -3.746,4.623 L 442.8,268.446 c 0,0 1.56,-2.128 3.039,-4.324 0.742,-1.1 1.466,-2.2 2,-3.029 z"
           transform="translate(-386.211,-259.753)"
           id="path878" />
      </g>
      <g
         transform="translate(105.658,51.542)"
         id="g894">
        <g
           transform="translate(42.648)"
           id="g888">
          <path
             class="c"
             d="m 350.064,217.723 c 0,0 -0.851,-3.125 -1.512,-6.279 -0.615,-3.136 -1.028,-6.272 0.308,-6.544 1.336,-0.272 2.65,1.286 3.59,2.94 a 21.366,21.366 0 0 1 1.526,3.4 c 0,0 0.3,-0.815 0.8,-2.019 0.5,-1.204 1.191,-2.8 1.945,-4.386 1.553,-3.166 3.344,-6.266 5.132,-6.008 1.228,0.156 1.086,2.55 0.507,4.947 a 34.39,34.39 0 0 1 -1.521,4.738 c 0,0 1.7,-2.049 3.647,-3.975 1.947,-1.926 4.134,-3.721 5.41,-3.034 1.29,0.71 0.4,3.371 -0.889,5.777 a 36.726,36.726 0 0 1 -2.949,4.567 c 0,0 2.2,-1.416 4.532,-2.723 2.342,-1.282 4.846,-2.494 5.532,-1.614 1.219,1.613 -0.3,4.067 -2.144,6.009 a 28.363,28.363 0 0 1 -4,3.406 28.981,28.981 0 0 1 3.64,-1.627 c 1.92,-0.672 4,-1.158 4.716,0.017 0.716,1.175 -1.394,3.471 -3.683,5.392 -1.162,0.946 -2.361,1.809 -3.268,2.432 -0.907,0.623 -1.533,1 -1.533,1 a 13.421,13.421 0 0 1 -1.723,3.106 7.565,7.565 0 0 1 -5.545,3.336 c -4.998,0.285 -12.282,-8.134 -12.518,-12.858 z"
             transform="translate(-347.975,-198.816)"
             id="path882" />
          <g
             transform="translate(6.356,12.763)"
             id="g886">
            <path
               class="f"
               d="m 364.624,210.838 a 6.674,6.674 0 0 1 4.37,1.642 6.375,6.375 0 0 1 2.125,4.186 0.543,0.543 0 0 1 -0.5,0.58 0.529,0.529 0 0 1 -0.577,-0.486 5.3,5.3 0 0 0 -1.75,-3.486 5.553,5.553 0 0 0 -3.635,-1.385 0.545,0.545 0 0 1 -0.541,-0.524 0.5,0.5 0 0 1 0.508,-0.527 z"
               transform="translate(-364.118,-210.838)"
               id="path884" />
          </g>
        </g>
        <path
           class="c"
           d="m 362.956,253.275 q 3.378,8.045 6.765,16.1 l 0.965,2.309 c 1.907,-0.965 3.847,-1.895 5.742,-2.894 q 1.086,-0.568 2.136,-1.172 c 2.159,-1.252 4.261,-2.618 6.374,-3.95 6.409,-4.032 12.175,-9.246 17.653,-14.414 a 173.978,173.978 0 0 0 15.367,-17.009 c 0.436,-0.54 0.861,-1.068 1.287,-1.619 0.1,-0.138 0.976,-1.034 0.952,-1.253 -0.011,-0.137 -0.39,-0.379 -0.505,-0.47 l -3.583,-3.136 q -3.911,-3.429 -7.833,-6.844 c -9.854,11.37 -21.3,21.947 -34.558,29.24 -0.322,0.2 -0.643,0.367 -0.965,0.539 -3.205,1.698 -6.467,3.138 -9.797,4.573 z"
           transform="translate(-362.956,-197.577)"
           id="path890" />
        <path
           class="d"
           d="m 404.023,251.578 q 3.378,8.045 6.765,16.1 l 0.965,2.309 c 1.907,-0.965 3.847,-1.895 5.742,-2.894 a 38.178,38.178 0 0 0 -0.069,-7.856 77.4,77.4 0 0 0 -2.641,-12.771 c -0.322,0.2 -0.643,0.367 -0.965,0.539 -3.204,1.702 -6.467,3.137 -9.797,4.573 z"
           transform="translate(-404.023,-195.88)"
           id="path892" />
      </g>
      <path
         class="g"
         d="m 385.122,359.233 9.429,4.158 a 26.745,26.745 0 0 0 22.843,-0.621 25.879,25.879 0 0 1 6.788,-2.354 26.556,26.556 0 0 1 11.289,0.149 l 9.257,2.148 a 26.534,26.534 0 0 0 13.046,-0.275 h 0.012 a 25.679,25.679 0 0 0 5.088,-1.964 l 5.421,-4.088 3.8,-2.86 -5.215,-12.7 -13.09,-31.885 c 0,-0.012 -0.08,-0.4 -0.206,-1.1 -0.184,-0.931 -0.46,-2.412 -0.827,-4.319 -1.367,-7.236 -3.859,-20.489 -6.007,-32.078 3.388,-5.8 1.022,-25.657 1.022,-25.657 l -1.4,0.678 a 57.171,57.171 0 0 1 -16.481,5.076 c 0,0 -17.228,2.7 -22.982,3.434 -10.4,1.332 -16.262,9.808 -16.262,9.808 l 10.623,11.783 c -0.4,11.382 -1.779,24.119 -2.515,30.929 -0.229,2.125 -0.4,3.664 -0.459,4.422 -0.012,0.207 -0.023,0.357 -0.023,0.436 l -3.285,11.727 z"
         transform="translate(-332.731,-144.38)"
         id="path896" />
      <path
         class="h"
         d="m 385.122,354.689 9.429,4.158 a 26.745,26.745 0 0 0 22.843,-0.621 25.88,25.88 0 0 1 6.788,-2.354 26.556,26.556 0 0 1 11.289,0.149 l 9.257,2.148 a 26.534,26.534 0 0 0 13.046,-0.275 h 0.012 a 25.681,25.681 0 0 0 5.088,-1.964 l 5.421,-4.088 3.8,-2.86 -5.215,-12.7 c -41.587,22.579 -62.811,0.022 -71.9,-16.745 z"
         transform="translate(-332.731,-139.835)"
         id="path898" />
      <path
         class="i"
         d="m 431.35,260.237 c 0,0 -7.876,0.107 -12.874,3.842 -1.057,0.789 -6.729,-11.739 2.587,-14.361 9.316,-2.622 22.657,-5 25.99,2.5 3.628,8.163 2.622,8.646 1.43,8.053 -1.762,-0.875 -11.127,-1.484 -13.048,-0.787 a 13.944,13.944 0 0 1 -4.085,0.753 z"
         transform="translate(-342.782,-144.294)"
         id="path900" />
      <path
         class="d"
         d="m 441.786,241.007 c -0.127,1.272 2.069,12.12 2.069,12.12 l -5.428,6.156 a 5.658,5.658 0 0 1 -6.716,0.615 l -7.66,-4.664 L 423.28,242 Z"
         transform="translate(-344.998,-144.674)"
         id="path902" />
      <g
         transform="translate(27.339)"
         id="g948">
        <g
           transform="translate(89.939,60.608)"
           id="g910">
          <path
             class="d"
             d="m 406.262,212.043 c 2.064,4.629 -0.171,10.687 -4.992,13.534 -4.821,2.847 -10.4,1.4 -12.467,-3.229 -2.067,-4.629 0.171,-10.687 4.993,-13.533 4.822,-2.846 10.404,-1.401 12.466,3.228 z"
             transform="translate(-388.035,-207.356)"
             id="path904" />
          <path
             class="j"
             d="m 392.4,220.72 c 0.145,-0.766 0.369,-8.3 8.6,-7.642"
             transform="translate(-386.635,-207.006)"
             id="path906" />
          <path
             class="j"
             d="m 399.972,218.977 c 0,0 -2.8,-4.376 -6.51,-2.311"
             transform="translate(-386.738,-206.817)"
             id="path908" />
        </g>
        <g
           transform="translate(0,72.521)"
           id="g918">
          <ellipse
             class="d"
             cx="10.37"
             cy="8.9119997"
             rx="10.37"
             ry="8.9119997"
             transform="rotate(-158.167,11.9653,10.27245)"
             id="ellipse912" />
          <path
             class="j"
             d="m 484.853,231.639 c -0.51,-0.591 -4.466,-7 -11.266,-2.323"
             transform="translate(-466.742,-218.02)"
             id="path914" />
          <path
             class="j"
             d="m 476.19,233.96 c 0,0 0.24,-5.191 4.483,-5.255"
             transform="translate(-465.326,-217.953)"
             id="path916" />
        </g>
        <path
           class="c"
           d="m 399.955,207.054 a 45.214,45.214 0 1 1 88.954,1.454 36.159,36.159 0 0 0 0.192,14.081 c 1.7,8.6 -1.666,23.734 -35.876,29.394 -36.661,6.066 -43.615,-7.154 -44,-15.982 a 32.558,32.558 0 0 0 -4.181,-14.35 45.1,45.1 0 0 1 -5.089,-14.597 z"
           transform="translate(-392.845,-150.008)"
           id="path920" />
        <path
           class="d"
           d="m 406.251,227.378 c 0.239,-1.487 6.008,-19.9 3.952,-32.008 0,0 31.959,-4.11 42.231,-16.212 0,0 12.556,8.061 20.089,7.909 0,0 3.977,18.4 12.917,29.216 0,0 7.811,-44.891 -24.467,-49.228 -32.278,-4.337 -56.618,4.48 -60.372,21.885 -3.754,17.405 5.65,38.438 5.65,38.438 z"
           transform="translate(-389.736,-149.299)"
           id="path922" />
        <path
           class="e"
           d="m 396.347,168.467 c 6.047,11.795 29.074,16.381 29.074,16.381 -0.234,15.108 8.771,31.985 8.771,31.985 0,0 9.866,-20.19 2.227,-41.2 -0.084,-0.234 -0.177,-0.468 -0.271,-0.7 -5.963,-15.417 -19.892,-19.189 -29.73,-17.43 -7.525,1.341 -12.664,5.897 -10.071,10.964 z"
           transform="translate(-338.487,-149.845)"
           id="path924" />
        <path
           class="e"
           d="m 424.478,207.079 a 44.42,44.42 0 0 0 12.9,22.475 96.83,96.83 0 0 0 -0.946,-38.453 c 0,0 50.042,-7.956 55.48,-26.4 a 9.219,9.219 0 0 0 0.393,-2.275 c 0.851,-16.39 -45.5,-18.337 -60.244,7.413 -8.22,14.372 -9.838,26.83 -7.583,37.24 z"
           transform="translate(-421.087,-150.266)"
           id="path926" />
        <path
           class="k"
           d="m 424.478,207.079 c 2.068,-12.823 8.517,-32.892 27.857,-44.856 19.432,-12.019 33.632,-4.718 39.969,0.206 0.851,-16.39 -45.5,-18.337 -60.244,7.413 -8.219,14.369 -9.837,26.827 -7.582,37.237 z"
           transform="translate(-421.087,-150.266)"
           id="path928" />
        <path
           class="k"
           d="m 398.654,157.5 3.146,4.727 a 31.172,31.172 0 0 1 20.836,6.674 30.79,30.79 0 0 1 5.748,6.028 c -5.964,-15.42 -19.892,-19.192 -29.73,-17.429 z"
           transform="translate(-330.722,-149.845)"
           id="path930" />
        <path
           class="f"
           d="m 419.384,218 c 0.236,1.977 1.227,3.433 2.217,3.254 0.99,-0.179 1.6,-1.928 1.363,-3.9 -0.237,-1.972 -1.227,-3.434 -2.216,-3.255 -0.989,0.179 -1.6,1.92 -1.364,3.901 z"
           transform="translate(-347.307,-146.334)"
           id="path932" />
        <path
           class="f"
           d="m 453.079,222.574 c 0.512,1.9 1.694,3.118 2.642,2.728 0.948,-0.39 1.3,-2.243 0.792,-4.139 -0.508,-1.896 -1.693,-3.118 -2.641,-2.727 -0.948,0.391 -1.303,2.242 -0.793,4.138 z"
           transform="translate(-416.617,-146.07)"
           id="path934" />
        <path
           class="l"
           d="m 415.484,201.891 c 0,0 5.926,-5.337 11.853,0.763"
           transform="translate(-347.543,-147.218)"
           id="path936" />
        <path
           class="l"
           d="m 467.912,204.25 c 0,0 -6.96,-3.9 -11.392,3.362"
           transform="translate(-431.683,-147.004)"
           id="path938" />
        <path
           class="j"
           d="m 441.937,218.747 0.636,5.095 c 0,0 -3.434,0.14 -3.658,1.789 -0.224,1.649 3.234,1.978 3.234,1.978"
           transform="translate(-387.642,-146.046)"
           id="path940" />
        <path
           class="j"
           d="m 428.514,233.1 c 0,0 10.166,3.576 17.79,-3.585"
           transform="translate(-380.342,-145.383)"
           id="path942" />
        <path
           class="m"
           d="m 451.894,234.456 c 0.536,4.363 4.991,7.406 9.948,6.8 4.957,-0.606 8.543,-4.64 8.007,-9 -0.536,-4.36 -4.991,-7.4 -9.948,-6.8 -4.957,0.6 -8.543,4.638 -8.007,9 z"
           transform="translate(-428.705,-145.637)"
           id="path944" />
        <ellipse
           class="m"
           cx="7.9590001"
           cy="9.0450001"
           rx="7.9590001"
           ry="9.0450001"
           transform="rotate(-108.23,71.506414,18.088837)"
           id="ellipse946" />
      </g>
      <path
         class="i"
         d="m 402.561,308.564 a 254.908,254.908 0 0 0 55.288,-4.077 c -0.184,-0.931 -0.46,-2.412 -0.827,-4.319 a 249.241,249.241 0 0 1 -54,3.974 c -0.232,2.126 -0.404,3.664 -0.461,4.422 z"
         transform="translate(-336.996,-141.029)"
         id="path950" />
      <path
         class="n"
         d="m 428.995,265.722 a 2.111,2.111 0 1 0 2.11,-2.109 2.11,2.11 0 0 0 -2.11,2.109 z"
         transform="translate(-340.426,-143.281)"
         id="path952" />
      <path
         class="n"
         d="m 428.472,273.928 a 2.11,2.11 0 1 0 2.109,-2.11 2.109,2.109 0 0 0 -2.109,2.11 z"
         transform="translate(-339.347,-142.776)"
         id="path954" />
      <path
         class="c"
         d="m 475.792,395.868 a 79.456,79.456 0 0 0 -0.356,-9.877 c 0,0 -1.964,-3.48 -3.79,-7.006 -1.826,-3.526 -3.537,-7.063 -3.537,-7.063 0,0 -0.092,-0.035 -0.253,-0.1 -3.523,4.093 1.013,20.195 7.936,24.046 z"
         transform="translate(-422.988,-136.614)"
         id="path956" />
    </g>
    <g
       transform="matrix(0.998,-0.07,0.07,0.998,110.513,331.722)"
       id="g1080">
      <g
         transform="translate(-175.256,83.322)"
         id="g1078">
        <g
           transform="translate(0,120.261)"
           id="g966">
          <path
             class="o"
             d="m 108.106,268.161 c 0,0 -9.858,1.9 -23.589,-2.19 C 75,263.147 63.628,257.439 52.38,246.223 A 82.2,82.2 0 0 0 54.942,234.5 c 0.386,-2.53 1.9,-7.374 -0.123,-9.58 -4.166,-4.521 -7.437,7.25 -8.408,10.875 -2.145,-4.474 -5.523,-7.4 -8.132,-11.585 -1.7,-2.715 -5.028,-8.1 -8.7,-8.361 -7.066,-0.511 0.787,9.965 4.073,15.242 a 49.152,49.152 0 0 0 -8.517,-5.77 c -1.589,-0.849 -6.2,-4.166 -7.915,-1.975 -1.634,2.083 1.527,5.894 2.855,7.313 a 79.753,79.753 0 0 0 8.146,7.252 49.049,49.049 0 0 0 -7.374,-2.839 c -2.1,-0.617 -6.2,-1.589 -7.7,0.493 -2.547,3.564 7.59,7.853 11.8,9.827 -1.958,-0.586 -7.605,-1.141 -9.1,-0.369 a 2.341,2.341 0 0 0 -0.911,3.641 c 1.9,2.777 9.134,5.6 12.327,6.449 3.641,0.973 7.915,1.944 10.6,2.453 2.593,3.055 16.215,19.439 34.2,30.146 11.139,6.65 23.96,11.108 36.873,8.87 z"
             transform="translate(-12.744,-215.828)"
             id="path960" />
          <path
             class="p"
             d="m 37.021,231.245 a 5.074,5.074 0 0 0 -4.2,2.25 8.634,8.634 0 0 0 -1.4,4.695"
             transform="translate(-4.786,-209.261)"
             id="path962" />
          <path
             class="d"
             d="m 91.215,281.6 c -12.913,2.238 -25.734,-2.22 -36.873,-8.87 a 35.653,35.653 0 0 0 4.783,-5.122 45.191,45.191 0 0 0 7.668,-16.615 c 13.73,4.089 23.589,2.19 23.589,2.19 z"
             transform="translate(4.98,-200.847)"
             id="path964" />
        </g>
        <g
           transform="translate(178.418,109.083)"
           id="g974">
          <path
             class="o"
             d="m 140.4,297.686 c 13.089,0.687 25.289,-5.262 35.559,-13.187 16.59,-12.766 28.171,-30.654 30.381,-33.993 2.605,-0.824 6.732,-2.3 10.232,-3.695 3.07,-1.221 9.92,-4.883 11.474,-7.866 a 2.34,2.34 0 0 0 -1.336,-3.507 c -1.577,-0.589 -7.118,0.633 -8.994,1.447 3.947,-2.46 13.5,-7.922 10.552,-11.159 -1.733,-1.89 -5.691,-0.438 -7.7,0.425 a 49.1,49.1 0 0 0 -6.985,3.694 79.64,79.64 0 0 0 7.227,-8.167 c 1.148,-1.567 3.836,-5.726 1.965,-7.6 -1.961,-1.972 -6.146,1.87 -7.624,2.9 a 49.213,49.213 0 0 0 -7.771,6.74 c 2.637,-5.629 9.19,-16.962 2.235,-15.618 -3.615,0.7 -6.285,6.439 -7.647,9.337 -2.093,4.461 -5.1,7.772 -6.7,12.47 -1.395,-3.484 -6.041,-14.784 -9.64,-9.8 -1.744,2.431 0.332,7.061 1.015,9.528 a 82.393,82.393 0 0 0 3.936,11.339 c -9.836,12.471 -20.449,19.489 -29.564,23.423 -13.148,5.69 -23.162,4.976 -23.162,4.976 z"
             transform="translate(-137.855,-207.99)"
             id="path968" />
          <path
             class="p"
             d="m 179.281,224.661 a 5.071,5.071 0 0 1 4.437,1.736 8.622,8.622 0 0 1 1.947,4.494"
             transform="translate(-120.204,-200.91)"
             id="path970" />
          <path
             class="d"
             d="m 140.4,280.834 c 13.089,0.687 25.289,-5.262 35.559,-13.187 a 35.694,35.694 0 0 1 -5.358,-4.518 45.173,45.173 0 0 1 -9.586,-15.587 c -13.148,5.69 -23.162,4.976 -23.162,4.976 z"
             transform="translate(-137.855,-191.138)"
             id="path972" />
        </g>
        <g
           transform="translate(71.258,382.349)"
           id="g986">
          <path
             class="q"
             d="m 121.111,414 a 3.962,3.962 0 0 1 -2.082,3.41 c -4.937,2.962 -25.317,8.763 -40.113,9.874 a 2.709,2.709 0 0 1 -0.324,0.014 c -6.573,0.464 -11.988,0 -14.425,-2.082 a 3.867,3.867 0 0 1 -0.695,-0.74 3.947,3.947 0 0 1 -0.756,-2.546 c 0.215,-4.2 7.791,-9.736 15.335,-14.194 7.528,-4.475 15.011,-7.868 15.011,-7.868 l 22.633,-0.262 c 0,0 4.4,7.621 5.338,13.19 a 4.585,4.585 0 0 1 0.078,1.204 z"
             transform="translate(-62.712,-399.611)"
             id="path976" />
          <g
             transform="translate(8.729,5.78)"
             id="g982">
            <path
               class="r"
               d="m 88.957,406.061 c -3.771,-3.348 -9.714,-2.5 -14.257,-1.552 -1.941,0.405 -1.014,3.35 0.918,2.948 3.3,-0.687 8.461,-1.6 11.229,0.857 1.487,1.319 3.597,-0.931 2.11,-2.253 z"
               transform="translate(-66.79,-403.664)"
               id="path978" />
            <path
               class="r"
               d="m 85.167,409.066 a 22.978,22.978 0 0 0 -15.273,-1.178 c -1.921,0.5 -1,3.451 0.918,2.946 a 19.511,19.511 0 0 1 12.887,0.947 c 1.813,0.783 3.292,-1.928 1.468,-2.715 z"
               transform="translate(-68.833,-402.201)"
               id="path980" />
          </g>
          <path
             class="r"
             d="m 121.111,409.7 a 3.962,3.962 0 0 1 -2.082,3.41 c -4.937,2.962 -25.317,8.763 -40.113,9.874 a 2.7,2.7 0 0 1 -0.324,0.014 c -6.634,0.4 -12.033,-0.107 -14.425,-2.082 a 3.867,3.867 0 0 1 -0.695,-0.74 3.947,3.947 0 0 1 -0.756,-2.546 c 9.104,1.192 31.184,2.225 58.395,-7.93 z"
             transform="translate(-62.712,-395.311)"
             id="path984" />
        </g>
        <g
           transform="translate(140.07,381.515)"
           id="g998">
          <path
             class="q"
             d="m 169.576,421.32 a 4.1,4.1 0 0 1 -0.88,1 c -2.514,2.206 -8.191,3.009 -15.027,2.978 -14.887,-0.077 -35.267,-4.2 -40.328,-6.727 a 3.993,3.993 0 0 1 -2.36,-3.41 5.849,5.849 0 0 1 0.016,-1.032 c 0.509,-5.632 4.613,-13.639 4.613,-13.639 l 22.586,-1.466 c 0,0 7.729,2.824 15.581,6.711 7.852,3.887 15.829,8.825 16.353,12.976 a 3.845,3.845 0 0 1 -0.554,2.609 z"
             transform="translate(-110.964,-399.026)"
             id="path988" />
          <g
             transform="translate(26.866,4.92)"
             id="g994">
            <path
               class="r"
               d="m 130.234,405.5 c 3.5,-3.625 9.495,-3.23 14.1,-2.633 1.965,0.255 1.266,3.261 -0.692,3.008 -3.341,-0.434 -8.558,-0.951 -11.132,1.711 -1.384,1.426 -3.66,-0.656 -2.276,-2.086 z"
               transform="translate(-129.803,-402.476)"
               id="path990" />
            <path
               class="r"
               d="m 134.644,408.224 a 22.974,22.974 0 0 1 15.139,-2.337 c 1.954,0.356 1.262,3.366 -0.692,3.008 a 19.505,19.505 0 0 0 -12.778,1.925 c -1.748,0.918 -3.428,-1.672 -1.669,-2.596 z"
               transform="translate(-128.059,-401.192)"
               id="path992" />
          </g>
          <path
             class="r"
             d="m 169.571,416.5 a 4.1,4.1 0 0 1 -0.88,1 c -2.483,2.1 -8.13,2.946 -15.027,2.978 -14.887,-0.077 -35.267,-4.2 -40.328,-6.727 a 3.993,3.993 0 0 1 -2.36,-3.41 c 28.064,8.177 50.141,5.43 59.149,3.55 a 3.845,3.845 0 0 1 -0.554,2.609 z"
             transform="translate(-110.96,-394.204)"
             id="path996" />
        </g>
        <path
           class="s"
           d="m 77.391,317.659 2.551,120.794 c 12.624,1.734 22.2,2.835 32.393,2.152 l 8.167,-86.221 7.093,86.807 a 131.07,131.07 0 0 0 32.388,-4.2 l 1.109,-120.032 z"
           transform="translate(14.801,-52.477)"
           id="path1000" />
        <g
           transform="translate(94.612,260.471)"
           id="g1010">
          <line
             class="t"
             y2="36.817001"
             transform="translate(41.15,2.675)"
             id="line1002"
             x1="0"
             y1="0"
             x2="0" />
          <path
             class="t"
             d="m 107.944,343.939 c 0,0 11.031,8.037 8.632,-25.888"
             transform="translate(-66.793,-312.484)"
             id="path1004" />
          <path
             class="t"
             d="m 129.614,314.147 c 0,0 -0.97,22.719 7.185,22.136"
             transform="translate(-57.575,-314.147)"
             id="path1006" />
          <path
             class="t"
             d="m 84.72,314.147 c 0.388,1.553 3.883,24.66 -5.632,23.495"
             transform="translate(-79.088,-314.147)"
             id="path1008" />
        </g>
        <path
           class="u"
           d="m 166.62,331.988 1.542,16.369 c -25.872,5.833 -53.827,5.555 -83.7,-0.385 l 3.765,-31.981 2.283,-19.47 c -12.481,-0.91 -17.588,-3.039 -29.714,-5.971 l 4.12,-40.482 c 0,0 73.251,16.291 127.092,-4.119 l 7.545,39.665 c 0,0 -7.992,4.7 -36.533,8.361 z"
           transform="translate(7.732,-82.734)"
           id="path1012" />
        <path
           class="d"
           d="m 101.825,245.873 c 0,0 -1.981,8.575 -3.906,10.1 -1.925,1.525 8.72,17.795 13.452,18.071 4.732,0.276 13.429,-14.482 13.521,-16.118 0.092,-1.636 -2.845,-6.085 -2.49,-8.534 0.355,-2.449 -20.577,-3.519 -20.577,-3.519 z"
           transform="translate(23.449,-82.766)"
           id="path1014" />
        <g
           transform="translate(70.596)"
           id="g1068">
          <g
             transform="translate(0,39.453)"
             id="g1046">
            <g
               transform="translate(0,76.759)"
               id="g1022">
              <path
                 class="d"
                 d="m 63.184,219.48 c -2.648,6.272 0.513,14.349 7.063,18.043 6.55,3.694 14.008,1.6 16.658,-4.666 2.65,-6.266 -0.515,-14.349 -7.065,-18.043 -6.55,-3.694 -14.007,-1.604 -16.656,4.666 z"
                 transform="translate(-62.247,-212.989)"
                 id="path1016" />
              <path
                 class="p"
                 d="M 78.319,228.834 C 78.1,227.809 77.6,217.7 66.57,218.8"
                 transform="translate(-60.406,-210.549)"
                 id="path1018" />
              <path
                 class="p"
                 d="m 67.745,225.672 c 0,0 3.646,-5.952 8.682,-3.276"
                 transform="translate(-59.905,-209.275)"
                 id="path1020" />
            </g>
            <g
               transform="translate(115.693,94.428)"
               id="g1030">
              <path
                 class="d"
                 d="m 170.633,237.265 c -0.572,6.782 -7.129,12.464 -14.644,12.686 -7.515,0.222 -13.147,-5.094 -12.575,-11.878 0.572,-6.784 7.128,-12.464 14.644,-12.688 7.516,-0.224 13.147,5.096 12.575,11.88 z"
                 transform="translate(-143.374,-225.379)"
                 id="path1024" />
              <path
                 class="p"
                 d="m 148.1,237.164 c 0.667,-0.809 5.811,-9.522 15.068,-3.42"
                 transform="translate(-141.359,-222.733)"
                 id="path1026" />
              <path
                 class="p"
                 d="m 156.814,239.684 c 0,0 -0.461,-6.965 -6.162,-6.938"
                 transform="translate(-140.273,-222.241)"
                 id="path1028" />
            </g>
            <path
               class="o"
               d="m 193.776,228.654 a 60.742,60.742 0 0 0 -55.965,-69.337 c -29.98,-2.116 -60.969,17.993 -63.54,47.939 -0.742,8.642 -0.823,17.268 0.978,25.446 1.37,6.216 0.321,12.915 -0.787,19.182 -2.051,11.594 2.866,31.831 48.963,38.525 49.4,7.175 58.385,-10.764 58.675,-22.63 a 43.724,43.724 0 0 1 5.234,-19.383 60.591,60.591 0 0 0 6.442,-19.742 z"
               transform="translate(-57.335,-159.164)"
               id="path1032" />
            <path
               class="d"
               d="m 180.808,248.943 -3.98,-39.785 -83.849,-12.591 -16.588,36.876 c 0,0 -8.37,-77.209 63.362,-56.674 71.732,20.535 45.955,62.492 41.055,72.174 z"
               transform="translate(-56.349,-153.143)"
               id="path1034" />
            <path
               class="v"
               d="m 105.339,207.613 c 0,0 -8.1,-7.011 -15.9,1.339"
               transform="translate(-50.661,-139.695)"
               id="path1036" />
            <path
               class="v"
               d="m 128.487,210.834 c 0,0 9.242,-5.418 15.389,4.214"
               transform="translate(-34.024,-137.796)"
               id="path1038" />
            <path
               class="p"
               d="m 113.991,223.513 -0.719,6.859 c 0,0 4.616,0.1 4.961,2.306 0.345,2.206 -4.291,2.742 -4.291,2.742"
               transform="translate(-40.507,-131.746)"
               id="path1040" />
            <path
               class="m"
               d="m 152.2,243.9 c -0.6,5.874 -6.506,10.078 -13.181,9.391 -6.675,-0.687 -11.6,-6.005 -10.992,-11.879 0.608,-5.874 6.506,-10.078 13.181,-9.391 6.675,0.687 11.599,6.006 10.992,11.879 z"
               transform="translate(-34.241,-128.152)"
               id="path1042" />
            <path
               class="m"
               d="m 101.493,239.653 c -1.736,5.644 -8.343,8.619 -14.757,6.647 -6.414,-1.972 -10.206,-8.149 -8.471,-13.792 1.735,-5.643 8.344,-8.619 14.757,-6.646 6.413,1.973 10.206,8.148 8.471,13.791 z"
               transform="translate(-55.602,-131.005)"
               id="path1044" />
          </g>
          <path
             class="q"
             d="m 99.49,224.493 c -0.2,2.219 -1.352,3.93 -2.583,3.822 -1.231,-0.108 -2.072,-1.994 -1.878,-4.213 0.194,-2.219 1.351,-3.929 2.583,-3.822 1.232,0.107 2.072,1.994 1.878,4.213 z"
             transform="translate(-48.292,-93.673)"
             id="path1048" />
          <path
             class="q"
             d="m 131.948,227.918 c -0.384,2.195 -1.683,3.8 -2.9,3.587 -1.217,-0.213 -1.894,-2.163 -1.51,-4.358 0.384,-2.195 1.683,-3.8 2.9,-3.585 1.217,0.215 1.894,2.163 1.51,4.356 z"
             transform="translate(-34.475,-92.281)"
             id="path1050" />
          <g
             transform="translate(58.07,142.916)"
             id="g1058">
            <path
               class="q"
               d="m 126.3,237.116 a 40.129,40.129 0 0 1 -5.354,11.108 c -2.684,3.625 -6.372,6.479 -11.078,5.291 -4.689,-1.188 -6.386,-5.352 -6.788,-9.719 a 36.17,36.17 0 0 1 0.864,-10.754 c 0.185,-0.833 0.324,-1.326 0.324,-1.326 9.458,5.987 20.165,5.523 21.815,5.415 0.143,-0.015 0.217,-0.015 0.217,-0.015 z"
               transform="translate(-102.968,-231.715)"
               id="path1052" />
            <path
               class="w"
               d="m 120.915,245.122 c -2.684,3.625 -6.372,6.479 -11.078,5.291 -4.689,-1.188 -6.386,-5.352 -6.788,-9.719 a 10.26,10.26 0 0 1 1.79,-0.91 c 4.629,-1.79 10.167,-0.416 13.87,2.9 a 16.608,16.608 0 0 1 2.206,2.438 z"
               transform="translate(-102.933,-228.613)"
               id="path1054" />
            <path
               class="x"
               d="m 125.793,237.13 c -1.82,1.837 -4.767,2.5 -7.451,2.516 a 19.775,19.775 0 0 1 -10.352,-2.731 16.008,16.008 0 0 1 -4.335,-3.873 c 0.185,-0.833 0.324,-1.326 0.324,-1.326 9.457,5.984 20.164,5.522 21.814,5.414 z"
               transform="translate(-102.675,-231.715)"
               id="path1056" />
          </g>
          <path
             class="y"
             d="m 208.77,203.663 a 83.626,83.626 0 0 1 -9.55,17.527 c 3.117,27.277 -13.884,52.886 -13.884,52.886 -0.71,-16.137 0.4,-44.756 0.633,-50.433 0.03,-0.647 0.046,-1 0.046,-1 L 94.327,208.755 c -0.061,0.292 -0.124,0.616 -0.215,0.955 -2.638,11.526 -16.137,47.24 -16.137,47.24 -5.122,-41.733 1.82,-54.167 1.82,-54.167 0,0 -15.335,-14.192 -11.895,-24.544 3.364,-10.167 21.631,-3.009 22.308,-2.747 -0.261,-0.431 -5.152,-8.655 -5.877,-15.782 -0.355,-3.532 0.292,-6.788 3.039,-8.716 12.682,-8.917 31.735,10.229 31.735,10.229 0,0 -7.451,-23.606 7.39,-29.128 14.841,-5.522 39.434,29.128 39.434,29.128 0,0 -1.543,-24.176 9.811,-18.992 11.37,5.184 21.4,46.252 21.4,46.252 0,0 5.107,-11.925 11,-5.245 4.549,5.167 3.377,13.128 0.63,20.425 z"
             transform="translate(-60.054,-131.499)"
             id="path1060" />
          <path
             class="z"
             d="m 91.73,187.457 c -0.061,0.292 -0.124,0.616 -0.215,0.955 -2.638,11.526 -16.137,47.24 -16.137,47.24 -5.122,-41.733 1.82,-54.167 1.82,-54.167 4.828,2.592 9.826,3.936 14.532,5.972 z"
             transform="translate(-57.456,-110.2)"
             id="path1062" />
          <path
             class="z"
             d="m 150.166,247.278 c -0.71,-16.137 0.448,-45.759 0.679,-51.436 8.44,-1.064 13.205,-1.45 13.205,-1.45 3.118,27.277 -13.884,52.886 -13.884,52.886 z"
             transform="translate(-24.884,-104.701)"
             id="path1064" />
          <path
             class="z"
             d="m 203.737,203.663 a 27.8,27.8 0 0 0 -1.728,-6.741 c -0.878,-2.206 -2.715,-4.659 -5.03,-4.166 a 5.273,5.273 0 0 0 -2.684,1.991 38.61,38.61 0 0 0 -5.492,8.515 105.171,105.171 0 0 0 -17.294,-43.752 c -0.679,-0.973 -1.667,-2.052 -2.808,-1.744 -0.957,0.247 -1.373,1.342 -1.636,2.3 a 55.848,55.848 0 0 0 -1.821,17.357 153.661,153.661 0 0 0 -17.6,-19.609 c -6.295,-5.925 -13.762,-11.571 -22.417,-11.926 a 8.1,8.1 0 0 0 -5.231,1.234 c -2.1,1.574 -2.623,4.475 -2.745,7.1 a 45.449,45.449 0 0 0 3.5,19.871 50.6,50.6 0 0 0 -30.963,-16.97 15.353,15.353 0 0 0 -5.632,-0.016 10.82,10.82 0 0 0 -4.856,2.603 c -0.355,-3.532 0.292,-6.788 3.039,-8.716 12.682,-8.917 31.735,10.229 31.735,10.229 0,0 -7.451,-23.606 7.39,-29.128 14.841,-5.522 39.434,29.128 39.434,29.128 0,0 -1.543,-24.176 9.811,-18.992 11.37,5.184 21.4,46.252 21.4,46.252 0,0 5.107,-11.925 11,-5.245 4.547,5.167 3.375,13.128 0.628,20.425 z"
             transform="translate(-55.021,-131.499)"
             id="path1066" />
        </g>
        <line
           class="d"
           x1="28.917"
           y1="2.4779999"
           transform="translate(121.603,160.245)"
           id="line1070"
           x2="0"
           y2="0" />
        <path
           class="aa"
           d="m 137.453,269.273 a 0.426,0.426 0 0 0 -0.786,-0.214 c -1.271,1.747 -1.646,4.193 -2.2,6.262 -0.432,1.619 -0.794,3.244 -1.119,4.88 -1.3,-7.779 -2.621,-15.9 -6.088,-22.8 a 0.363,0.363 0 0 0 -0.66,0.278 c 3.153,9.182 4.183,19.008 5.92,28.523 0.214,1.172 2.011,0.677 1.79,-0.493 -0.23,-1.221 -0.446,-2.461 -0.659,-3.714 0.789,-2.078 1.5,-4.174 2.175,-6.295 0.649,-2.051 1.687,-4.268 1.627,-6.427 z"
           transform="translate(35.76,-77.931)"
           id="path1072" />
        <path
           class="aa"
           d="m 90.581,260.06 c -2.844,7.139 -5.857,15.049 -7.384,22.813 -1.872,-4.331 -2.846,-8.723 -4.355,-13.206 -0.17,-0.5 -1,-0.453 -0.971,0.131 0.251,5.12 2.631,10.425 4.994,14.917 -0.143,0.866 -0.285,1.73 -0.385,2.587 -0.071,0.62 0.829,0.645 1.018,0.138 3.269,-8.716 5.242,-18.207 8.013,-27.124 0.189,-0.604 -0.711,-0.816 -0.93,-0.256 z"
           transform="translate(15.004,-76.861)"
           id="path1074" />
        <path
           class="aa"
           d="m 161.091,327.429 c -25.872,5.833 -53.827,5.555 -83.7,-0.385 l 3.765,-31.981 a 57.747,57.747 0 0 0 10.6,8.454 75.283,75.283 0 0 0 29.992,10.32 93.633,93.633 0 0 0 37.8,-2.777 z"
           transform="translate(14.803,-61.808)"
           id="path1076" />
      </g>
    </g>
  </g>
</svg>
