<svg viewBox="0 0 378.36 419.702" xmlns="http://www.w3.org/2000/svg">
  <defs>
    <style>
      .a{fill:#ce3c66;}.b{fill:#f794aa;}.c{fill:#fad2c8;}.d{fill:#efb3b1;}.e{fill:#f8931d;}.f{fill:#54110a;}.g{fill:#fe68a5;}.h{fill:#e55ca3;}.i{fill:#ffd9e2;}.j,.l,.p,.t,.v{fill:none;stroke-linecap:round;stroke-linejoin:round;}.j,.l{stroke:#54110a;}.k{fill:#ffb43b;}.l,.v{stroke-width:2px;}.m{fill:#f7b9b6;}.n{fill:#fff8fa;}.o{fill:#ffd5c7;}.p,.v{stroke:#301f22;}.q{fill:#301f22;}.r{fill:#876f71;}.s{fill:#42697a;}.t{stroke:#5b9299;}.u{fill:#f6b93b;}.w{fill:#d66454;}.x{fill:#fff;}.y{fill:#e25b24;}.z{fill:#e87d34;}.aa{fill:#ef9d30;}
    </style>
  </defs>
  <g transform="translate(50.115 -411.598)">
    <g transform="translate(149.442 544)">
      <g transform="translate(33.26 204.649)">
        <g transform="translate(0)">
          <g transform="translate(0 28.513)">
            <path class="a"
                  d="M479.307,412.7a3.226,3.226,0,0,0,2.079-.344c2.986-1.539,4.376-8.085,4.709-14.333.046-.689.069-1.367.08-2.033a79.456,79.456,0,0,0-.356-9.877s-1.964-3.48-3.79-7.006-3.537-7.063-3.537-7.063-.092-.035-.253-.1c-.517-.206-1.78-.711-3.342-1.2a19.756,19.756,0,0,0-3.147-.724,7.765,7.765,0,0,0-2.975.057,2.7,2.7,0,0,0-2.1,2.572C466.112,378.656,471.487,411.445,479.307,412.7Z"
                  transform="translate(-466.631 -369.894)"/>
            <path class="b"
                  d="M471.209,372.633c-.559,6.008,4.818,38.8,12.642,40.053a3.192,3.192,0,0,0,2.075-.345,59.064,59.064,0,0,1-7.5-15.022,100.785,100.785,0,0,1-5.107-27.266A2.7,2.7,0,0,0,471.209,372.633Z"
                  transform="translate(-471.169 -369.884)"/>
          </g>
          <g transform="translate(11.579)">
            <path class="c"
                  d="M427.565,375.717q.26,1.033.586,2.067A32.982,32.982,0,0,0,429.793,382,41.821,41.821,0,0,0,434.847,390a68.12,68.12,0,0,0,12.829-4.2A46.442,46.442,0,0,0,467.418,369a57.467,57.467,0,0,0,3.767-6.386c2.252-4.329,4.078-8.889,5.88-13.4q-9.233-2.514-18.468-5.1c-1.08-.3-2.17-.608-3.261-.908-.655-.184-.677-.356-.9.3-.987,2.974-1.838,5.972-2.975,8.9a40.661,40.661,0,0,1-5.2,9.888,23.512,23.512,0,0,1-2.631,2.929,31.144,31.144,0,0,1-8.682,5.49c-1.459.643-2.964,1.218-4.457,1.745-.712.253-1.447.46-2.159.678-.2.069-1.137.218-1.24.4C426.9,373.856,427.462,375.315,427.565,375.717Z"
                  transform="translate(-427.054 -343.036)"/>
          </g>
        </g>
        <path class="d"
              d="M427.054,362.291a34.367,34.367,0,0,0,24.922.322c2.252-4.329,4.078-8.889,5.88-13.4q-9.233-2.514-18.468-5.1c-1.08-.3-2.17-.608-3.261-.908-.655-.184-.677-.356-.9.3-.987,2.974-1.838,5.972-2.975,8.9A40.661,40.661,0,0,1,427.054,362.291Z"
              transform="translate(-396.265 -343.036)"/>
      </g>
      <path class="e"
            d="M368.031,223.224c21.8-2.684,32.943,2.346,42.473,10.534l-1.909,2.529a62.469,62.469,0,0,0-11.717-5.993c3.188,2.766,7.013,5.58,9.457,9.278l-3.011,4.251a48.343,48.343,0,0,0-7.407-5.828,37.016,37.016,0,0,1,5.536,8.345l-3.154,4.346c-2.359-3.142-3.053-3.958-7.511-6.813a53.223,53.223,0,0,1,4.3,11.456l-3.732,5.017C387,249.1,377.617,236.434,368.031,223.224Z"
            transform="translate(-252.994 -145.815)"/>
      <path class="e"
            d="M501.873,235.012c-20.973,3.914-29.815,11.835-36.24,22.207L468.142,259a60.792,60.792,0,0,1,9.094-8.981c-2.141,3.494-4.859,7.22-6.039,11.356l4.033,3.049a46.92,46.92,0,0,1,5.151-7.564A35.943,35.943,0,0,0,477.7,266.2l4.193,3.095c1.264-3.6,1.669-4.556,4.96-8.506a51.468,51.468,0,0,0-.626,11.859l4.924,3.547C491.889,264.518,496.869,250.045,501.873,235.012Z"
            transform="translate(-447.98 -145.044)"/>
      <g transform="translate(86.751 209.904)">
        <g transform="translate(0 54.232)">
          <path class="a"
                d="M398.35,412.22c5.03,2.354,35.132,6.076,38.324.528a2.454,2.454,0,0,0,.311-1.665c-.426-2.631-5.639-5.651-10.75-7.994s-10.107-4.019-10.107-4.019l-14.471,1.343s-.069.081-.185.219h-.011c-.862,1.034-4.514,5.525-4.709,8.751A2.68,2.68,0,0,0,398.35,412.22Z"
                transform="translate(-396.739 -399.07)"/>
          <path class="c"
                d="M406.9,400.632c.839.413,16.757,7.993,24.762,2.458-5.1-2.343-10.107-4.019-10.107-4.019l-14.471,1.343S407.015,400.494,406.9,400.632Z"
                transform="translate(-402.165 -399.07)"/>
          <path class="b"
                d="M398.354,411.62c5.03,2.353,35.128,6.072,38.324.527a2.439,2.439,0,0,0,.307-1.661c-5.974,1.4-21,3.745-40.231-1.7A2.677,2.677,0,0,0,398.354,411.62Z"
                transform="translate(-396.743 -398.471)"/>
        </g>
        <g transform="translate(4.7)">
          <path class="c"
                d="M406.715,403.768c5.673,1.16,10.371.724,16.63-.873,0,0,1.723-8.855,3.261-17.756,1.563-8.9,2.8-17.882,2.8-17.882l.425-3.089v-.1s.035-.229.081-.643c.16-1.274.529-4.306.908-7.338.447-3.985.884-7.982.884-7.982l-21.271-.115s-.1,3.755-.2,7.511c-.034,1.091-.081,2.182-.115,3.17-.1,2.423-.172,4.307-.172,4.307v.068l-.138,3.021s-.471,9.314-1.3,18.72C407.714,394.178,406.715,403.768,406.715,403.768Z"
                transform="translate(-406.715 -347.986)"/>
        </g>
        <path class="d"
              d="M406.715,358.667c2.906,0,5.742,1.39,8.533,2.423a38.075,38.075,0,0,0,11.255,2.331c.16-1.274.529-4.306.908-7.338.447-3.985.884-7.982.884-7.982l-21.271-.115s-.1,3.755-.2,7.511C406.8,356.588,406.749,357.679,406.715,358.667Z"
              transform="translate(-398.604 -347.986)"/>
      </g>
      <g transform="translate(0 116.234)">
        <g transform="translate(0 0.193)">
          <path class="c"
                d="M517.663,272.788s-.26-3.076-.812-6.1-1.409-5.99-2.728-5.783c-2.648.4-2.194,7.361-2.194,7.361s-2.254-2.464-4.845-4.722-5.529-4.3-6.993-3.387c-.995.62.183,2.648,1.63,4.517a42.9,42.9,0,0,0,3.154,3.573,47.193,47.193,0,0,0-4.691-2.108c-2.44-.918-5.064-1.573-5.843-.443s1.019,2.987,3.02,4.54a40.515,40.515,0,0,0,4.2,2.808s-2.4-.428-4.867-.619-4.993-.147-5.23.872c-.422,1.832,1.7,3.238,3.932,4.163a26.926,26.926,0,0,0,4.565,1.381s-7.2-.665-7.6,1.838c-.2,1.257,2.311,2.353,4.873,3.115a47.31,47.31,0,0,0,5.174,1.2,11.319,11.319,0,0,0,2.429,2.087,6.913,6.913,0,0,0,5.79,1.064C515.09,286.749,519.031,277.119,517.663,272.788Z"
                transform="translate(-491.413 -259.935)"/>
          <g transform="translate(15.948 8.887)">
            <path class="f"
                  d="M500.971,268.339a6.168,6.168,0,0,0-3.277,2.945,5.944,5.944,0,0,0-.423,1.09,6.071,6.071,0,0,0,.01,3.294.5.5,0,1,0,.967-.278,5.081,5.081,0,0,1-.007-2.75,4.832,4.832,0,0,1,.349-.907,5.147,5.147,0,0,1,2.728-2.458.507.507,0,0,0,.294-.648A.5.5,0,0,0,500.971,268.339Z"
                  transform="translate(-497.049 -268.306)"/>
          </g>
        </g>
        <path class="c"
              d="M486.047,259.753l15.671,10.366a73.57,73.57,0,0,1-6.209,8.063c-2.025,2.464-4.12,4.877-6.311,7.2-5.516,5.837-12.231,12.215-20.455,13.6-6.473,1.088-12.42-2.391-17.763-5.64-1.106-.672-2.209-1.348-3.3-2.039q-1.366-.862-2.724-1.739c-.345-.223-2.087-1.047-2.148-1.41-.033-.194.454-.808.547-.971l1.178-2.1,5.577-9.915c3.793,2.141,7.608,4.348,11.587,6.129,2.073.927,3.8,1.668,5.958.532a19.817,19.817,0,0,0,4.708-3.921A107.684,107.684,0,0,0,486.047,259.753Z"
              transform="translate(-423.583 -259.753)"/>
        <path class="d"
              d="M448.675,259.753l15.671,10.366c-.083.136-1.82,2.538-3.653,4.874s-3.746,4.623-3.746,4.623L442.8,268.446s1.56-2.128,3.039-4.324c.742-1.1,1.466-2.2,2-3.029Z"
              transform="translate(-386.211 -259.753)"/>
      </g>
      <g transform="translate(105.658 51.542)">
        <g transform="translate(42.648)">
          <path class="c"
                d="M350.064,217.723s-.851-3.125-1.512-6.279c-.615-3.136-1.028-6.272.308-6.544s2.65,1.286,3.59,2.94a21.366,21.366,0,0,1,1.526,3.4s.3-.815.8-2.019,1.191-2.8,1.945-4.386c1.553-3.166,3.344-6.266,5.132-6.008,1.228.156,1.086,2.55.507,4.947a34.39,34.39,0,0,1-1.521,4.738s1.7-2.049,3.647-3.975,4.134-3.721,5.41-3.034c1.29.71.4,3.371-.889,5.777a36.726,36.726,0,0,1-2.949,4.567s2.2-1.416,4.532-2.723c2.342-1.282,4.846-2.494,5.532-1.614,1.219,1.613-.3,4.067-2.144,6.009a28.363,28.363,0,0,1-4,3.406,28.981,28.981,0,0,1,3.64-1.627c1.92-.672,4-1.158,4.716.017s-1.394,3.471-3.683,5.392c-1.162.946-2.361,1.809-3.268,2.432s-1.533,1-1.533,1a13.421,13.421,0,0,1-1.723,3.106,7.565,7.565,0,0,1-5.545,3.336C357.584,230.866,350.3,222.447,350.064,217.723Z"
                transform="translate(-347.975 -198.816)"/>
          <g transform="translate(6.356 12.763)">
            <path class="f"
                  d="M364.624,210.838a6.674,6.674,0,0,1,4.37,1.642,6.375,6.375,0,0,1,2.125,4.186.543.543,0,0,1-.5.58.529.529,0,0,1-.577-.486,5.3,5.3,0,0,0-1.75-3.486,5.553,5.553,0,0,0-3.635-1.385.545.545,0,0,1-.541-.524A.5.5,0,0,1,364.624,210.838Z"
                  transform="translate(-364.118 -210.838)"/>
          </g>
        </g>
        <path class="c"
              d="M362.956,253.275q3.378,8.045,6.765,16.1l.965,2.309c1.907-.965,3.847-1.895,5.742-2.894q1.086-.568,2.136-1.172c2.159-1.252,4.261-2.618,6.374-3.95,6.409-4.032,12.175-9.246,17.653-14.414a173.978,173.978,0,0,0,15.367-17.009c.436-.54.861-1.068,1.287-1.619.1-.138.976-1.034.952-1.253-.011-.137-.39-.379-.505-.47l-3.583-3.136q-3.911-3.429-7.833-6.844c-9.854,11.37-21.3,21.947-34.558,29.24-.322.2-.643.367-.965.539C369.548,250.4,366.286,251.84,362.956,253.275Z"
              transform="translate(-362.956 -197.577)"/>
        <path class="d"
              d="M404.023,251.578q3.378,8.045,6.765,16.1l.965,2.309c1.907-.965,3.847-1.895,5.742-2.894a38.178,38.178,0,0,0-.069-7.856,77.4,77.4,0,0,0-2.641-12.771c-.322.2-.643.367-.965.539C410.616,248.707,407.353,250.142,404.023,251.578Z"
              transform="translate(-404.023 -195.88)"/>
      </g>
      <path class="g"
            d="M385.122,359.233l9.429,4.158a26.745,26.745,0,0,0,22.843-.621,25.879,25.879,0,0,1,6.788-2.354,26.556,26.556,0,0,1,11.289.149l9.257,2.148a26.534,26.534,0,0,0,13.046-.275h.012a25.679,25.679,0,0,0,5.088-1.964l5.421-4.088,3.8-2.86-5.215-12.7L453.79,308.941c0-.012-.08-.4-.206-1.1-.184-.931-.46-2.412-.827-4.319-1.367-7.236-3.859-20.489-6.007-32.078,3.388-5.8,1.022-25.657,1.022-25.657l-1.4.678a57.171,57.171,0,0,1-16.481,5.076s-17.228,2.7-22.982,3.434c-10.4,1.332-16.262,9.808-16.262,9.808l10.623,11.783c-.4,11.382-1.779,24.119-2.515,30.929-.229,2.125-.4,3.664-.459,4.422-.012.207-.023.357-.023.436l-3.285,11.727Z"
            transform="translate(-332.731 -144.38)"/>
      <path class="h"
            d="M385.122,354.689l9.429,4.158a26.745,26.745,0,0,0,22.843-.621,25.88,25.88,0,0,1,6.788-2.354,26.556,26.556,0,0,1,11.289.149l9.257,2.148a26.534,26.534,0,0,0,13.046-.275h.012a25.681,25.681,0,0,0,5.088-1.964l5.421-4.088,3.8-2.86-5.215-12.7c-41.587,22.579-62.811.022-71.9-16.745Z"
            transform="translate(-332.731 -139.835)"/>
      <path class="i"
            d="M431.35,260.237s-7.876.107-12.874,3.842c-1.057.789-6.729-11.739,2.587-14.361s22.657-5,25.99,2.5c3.628,8.163,2.622,8.646,1.43,8.053-1.762-.875-11.127-1.484-13.048-.787A13.944,13.944,0,0,1,431.35,260.237Z"
            transform="translate(-342.782 -144.294)"/>
      <path class="d"
            d="M441.786,241.007c-.127,1.272,2.069,12.12,2.069,12.12l-5.428,6.156a5.658,5.658,0,0,1-6.716.615l-7.66-4.664L423.28,242Z"
            transform="translate(-344.998 -144.674)"/>
      <g transform="translate(27.339)">
        <g transform="translate(89.939 60.608)">
          <path class="d"
                d="M406.262,212.043c2.064,4.629-.171,10.687-4.992,13.534s-10.4,1.4-12.467-3.229.171-10.687,4.993-13.533S404.2,207.414,406.262,212.043Z"
                transform="translate(-388.035 -207.356)"/>
          <path class="j" d="M392.4,220.72c.145-.766.369-8.3,8.6-7.642" transform="translate(-386.635 -207.006)"/>
          <path class="j" d="M399.972,218.977s-2.8-4.376-6.51-2.311" transform="translate(-386.738 -206.817)"/>
        </g>
        <g transform="translate(0 72.521)">
          <ellipse class="d" cx="10.37" cy="8.912" rx="10.37" ry="8.912"
                   transform="translate(19.252 24.258) rotate(-158.167)"/>
          <path class="j" d="M484.853,231.639c-.51-.591-4.466-7-11.266-2.323" transform="translate(-466.742 -218.02)"/>
          <path class="j" d="M476.19,233.96s.24-5.191,4.483-5.255" transform="translate(-465.326 -217.953)"/>
        </g>
        <path class="c"
              d="M399.955,207.054a45.214,45.214,0,1,1,88.954,1.454,36.159,36.159,0,0,0,.192,14.081c1.7,8.6-1.666,23.734-35.876,29.394-36.661,6.066-43.615-7.154-44-15.982a32.558,32.558,0,0,0-4.181-14.35A45.1,45.1,0,0,1,399.955,207.054Z"
              transform="translate(-392.845 -150.008)"/>
        <path class="d"
              d="M406.251,227.378c.239-1.487,6.008-19.9,3.952-32.008,0,0,31.959-4.11,42.231-16.212,0,0,12.556,8.061,20.089,7.909,0,0,3.977,18.4,12.917,29.216,0,0,7.811-44.891-24.467-49.228s-56.618,4.48-60.372,21.885S406.251,227.378,406.251,227.378Z"
              transform="translate(-389.736 -149.299)"/>
        <path class="e"
              d="M396.347,168.467c6.047,11.795,29.074,16.381,29.074,16.381-.234,15.108,8.771,31.985,8.771,31.985s9.866-20.19,2.227-41.2c-.084-.234-.177-.468-.271-.7-5.963-15.417-19.892-19.189-29.73-17.43C398.893,158.844,393.754,163.4,396.347,168.467Z"
              transform="translate(-338.487 -149.845)"/>
        <path class="e"
              d="M424.478,207.079a44.42,44.42,0,0,0,12.9,22.475,96.83,96.83,0,0,0-.946-38.453s50.042-7.956,55.48-26.4a9.219,9.219,0,0,0,.393-2.275c.851-16.39-45.5-18.337-60.244,7.413C423.841,184.211,422.223,196.669,424.478,207.079Z"
              transform="translate(-421.087 -150.266)"/>
        <path class="k"
              d="M424.478,207.079c2.068-12.823,8.517-32.892,27.857-44.856,19.432-12.019,33.632-4.718,39.969.206.851-16.39-45.5-18.337-60.244,7.413C423.841,184.211,422.223,196.669,424.478,207.079Z"
              transform="translate(-421.087 -150.266)"/>
        <path class="k"
              d="M398.654,157.5l3.146,4.727a31.172,31.172,0,0,1,20.836,6.674,30.79,30.79,0,0,1,5.748,6.028C422.42,159.509,408.492,155.737,398.654,157.5Z"
              transform="translate(-330.722 -149.845)"/>
        <path class="f"
              d="M419.384,218c.236,1.977,1.227,3.433,2.217,3.254s1.6-1.928,1.363-3.9-1.227-3.434-2.216-3.255S419.148,216.019,419.384,218Z"
              transform="translate(-347.307 -146.334)"/>
        <path class="f"
              d="M453.079,222.574c.512,1.9,1.694,3.118,2.642,2.728s1.3-2.243.792-4.139-1.693-3.118-2.641-2.727S452.569,220.678,453.079,222.574Z"
              transform="translate(-416.617 -146.07)"/>
        <path class="l" d="M415.484,201.891s5.926-5.337,11.853.763" transform="translate(-347.543 -147.218)"/>
        <path class="l" d="M467.912,204.25s-6.96-3.9-11.392,3.362" transform="translate(-431.683 -147.004)"/>
        <path class="j" d="M441.937,218.747l.636,5.095s-3.434.14-3.658,1.789,3.234,1.978,3.234,1.978"
              transform="translate(-387.642 -146.046)"/>
        <path class="j" d="M428.514,233.1s10.166,3.576,17.79-3.585" transform="translate(-380.342 -145.383)"/>
        <path class="m"
              d="M451.894,234.456c.536,4.363,4.991,7.406,9.948,6.8s8.543-4.64,8.007-9-4.991-7.4-9.948-6.8S451.358,230.094,451.894,234.456Z"
              transform="translate(-428.705 -145.637)"/>
        <ellipse class="m" cx="7.959" cy="9.045" rx="7.959" ry="9.045"
                 transform="translate(76.695 91.665) rotate(-108.23)"/>
      </g>
      <path class="i"
            d="M402.561,308.564a254.908,254.908,0,0,0,55.288-4.077c-.184-.931-.46-2.412-.827-4.319a249.241,249.241,0,0,1-54,3.974C402.79,306.268,402.618,307.806,402.561,308.564Z"
            transform="translate(-336.996 -141.029)"/>
      <path class="n" d="M428.995,265.722a2.111,2.111,0,1,0,2.11-2.109A2.11,2.11,0,0,0,428.995,265.722Z"
            transform="translate(-340.426 -143.281)"/>
      <path class="n" d="M428.472,273.928a2.11,2.11,0,1,0,2.109-2.11A2.109,2.109,0,0,0,428.472,273.928Z"
            transform="translate(-339.347 -142.776)"/>
      <path class="c"
            d="M475.792,395.868a79.456,79.456,0,0,0-.356-9.877s-1.964-3.48-3.79-7.006-3.537-7.063-3.537-7.063-.092-.035-.253-.1C464.333,375.915,468.869,392.017,475.792,395.868Z"
            transform="translate(-422.988 -136.614)"/>
    </g>
    <g transform="matrix(0.998, -0.07, 0.07, 0.998, 110.513, 331.722)">
      <g transform="translate(-175.256 83.322)">
        <g transform="translate(0 120.261)">
          <path class="o"
                d="M108.106,268.161s-9.858,1.9-23.589-2.19C75,263.147,63.628,257.439,52.38,246.223A82.2,82.2,0,0,0,54.942,234.5c.386-2.53,1.9-7.374-.123-9.58-4.166-4.521-7.437,7.25-8.408,10.875-2.145-4.474-5.523-7.4-8.132-11.585-1.7-2.715-5.028-8.1-8.7-8.361-7.066-.511.787,9.965,4.073,15.242a49.152,49.152,0,0,0-8.517-5.77c-1.589-.849-6.2-4.166-7.915-1.975-1.634,2.083,1.527,5.894,2.855,7.313a79.753,79.753,0,0,0,8.146,7.252,49.049,49.049,0,0,0-7.374-2.839c-2.1-.617-6.2-1.589-7.7.493-2.547,3.564,7.59,7.853,11.8,9.827-1.958-.586-7.605-1.141-9.1-.369a2.341,2.341,0,0,0-.911,3.641c1.9,2.777,9.134,5.6,12.327,6.449,3.641.973,7.915,1.944,10.6,2.453,2.593,3.055,16.215,19.439,34.2,30.146,11.139,6.65,23.96,11.108,36.873,8.87Z"
                transform="translate(-12.744 -215.828)"/>
          <path class="p" d="M37.021,231.245a5.074,5.074,0,0,0-4.2,2.25,8.634,8.634,0,0,0-1.4,4.695"
                transform="translate(-4.786 -209.261)"/>
          <path class="d"
                d="M91.215,281.6c-12.913,2.238-25.734-2.22-36.873-8.87a35.653,35.653,0,0,0,4.783-5.122,45.191,45.191,0,0,0,7.668-16.615c13.73,4.089,23.589,2.19,23.589,2.19Z"
                transform="translate(4.98 -200.847)"/>
        </g>
        <g transform="translate(178.418 109.083)">
          <path class="o"
                d="M140.4,297.686c13.089.687,25.289-5.262,35.559-13.187,16.59-12.766,28.171-30.654,30.381-33.993,2.605-.824,6.732-2.3,10.232-3.695,3.07-1.221,9.92-4.883,11.474-7.866a2.34,2.34,0,0,0-1.336-3.507c-1.577-.589-7.118.633-8.994,1.447,3.947-2.46,13.5-7.922,10.552-11.159-1.733-1.89-5.691-.438-7.7.425a49.1,49.1,0,0,0-6.985,3.694,79.64,79.64,0,0,0,7.227-8.167c1.148-1.567,3.836-5.726,1.965-7.6-1.961-1.972-6.146,1.87-7.624,2.9a49.213,49.213,0,0,0-7.771,6.74c2.637-5.629,9.19-16.962,2.235-15.618-3.615.7-6.285,6.439-7.647,9.337-2.093,4.461-5.1,7.772-6.7,12.47-1.395-3.484-6.041-14.784-9.64-9.8-1.744,2.431.332,7.061,1.015,9.528a82.393,82.393,0,0,0,3.936,11.339c-9.836,12.471-20.449,19.489-29.564,23.423-13.148,5.69-23.162,4.976-23.162,4.976Z"
                transform="translate(-137.855 -207.99)"/>
          <path class="p" d="M179.281,224.661a5.071,5.071,0,0,1,4.437,1.736,8.622,8.622,0,0,1,1.947,4.494"
                transform="translate(-120.204 -200.91)"/>
          <path class="d"
                d="M140.4,280.834c13.089.687,25.289-5.262,35.559-13.187a35.694,35.694,0,0,1-5.358-4.518,45.173,45.173,0,0,1-9.586-15.587c-13.148,5.69-23.162,4.976-23.162,4.976Z"
                transform="translate(-137.855 -191.138)"/>
        </g>
        <g transform="translate(71.258 382.349)">
          <path class="q"
                d="M121.111,414a3.962,3.962,0,0,1-2.082,3.41c-4.937,2.962-25.317,8.763-40.113,9.874a2.709,2.709,0,0,1-.324.014c-6.573.464-11.988,0-14.425-2.082a3.867,3.867,0,0,1-.695-.74,3.947,3.947,0,0,1-.756-2.546c.215-4.2,7.791-9.736,15.335-14.194,7.528-4.475,15.011-7.868,15.011-7.868l22.633-.262s4.4,7.621,5.338,13.19A4.585,4.585,0,0,1,121.111,414Z"
                transform="translate(-62.712 -399.611)"/>
          <g transform="translate(8.729 5.78)">
            <path class="r"
                  d="M88.957,406.061c-3.771-3.348-9.714-2.5-14.257-1.552-1.941.405-1.014,3.35.918,2.948,3.3-.687,8.461-1.6,11.229.857C88.334,409.633,90.444,407.383,88.957,406.061Z"
                  transform="translate(-66.79 -403.664)"/>
            <path class="r"
                  d="M85.167,409.066a22.978,22.978,0,0,0-15.273-1.178c-1.921.5-1,3.451.918,2.946a19.511,19.511,0,0,1,12.887.947C85.512,412.564,86.991,409.853,85.167,409.066Z"
                  transform="translate(-68.833 -402.201)"/>
          </g>
          <path class="r"
                d="M121.111,409.7a3.962,3.962,0,0,1-2.082,3.41c-4.937,2.962-25.317,8.763-40.113,9.874a2.7,2.7,0,0,1-.324.014c-6.634.4-12.033-.107-14.425-2.082a3.867,3.867,0,0,1-.695-.74,3.947,3.947,0,0,1-.756-2.546C71.82,418.822,93.9,419.855,121.111,409.7Z"
                transform="translate(-62.712 -395.311)"/>
        </g>
        <g transform="translate(140.07 381.515)">
          <path class="q"
                d="M169.576,421.32a4.1,4.1,0,0,1-.88,1c-2.514,2.206-8.191,3.009-15.027,2.978-14.887-.077-35.267-4.2-40.328-6.727a3.993,3.993,0,0,1-2.36-3.41,5.849,5.849,0,0,1,.016-1.032c.509-5.632,4.613-13.639,4.613-13.639l22.586-1.466s7.729,2.824,15.581,6.711,15.829,8.825,16.353,12.976A3.845,3.845,0,0,1,169.576,421.32Z"
                transform="translate(-110.964 -399.026)"/>
          <g transform="translate(26.866 4.92)">
            <path class="r"
                  d="M130.234,405.5c3.5-3.625,9.495-3.23,14.1-2.633,1.965.255,1.266,3.261-.692,3.008-3.341-.434-8.558-.951-11.132,1.711C131.126,409.012,128.85,406.93,130.234,405.5Z"
                  transform="translate(-129.803 -402.476)"/>
            <path class="r"
                  d="M134.644,408.224a22.974,22.974,0,0,1,15.139-2.337c1.954.356,1.262,3.366-.692,3.008a19.505,19.505,0,0,0-12.778,1.925C134.565,411.738,132.885,409.148,134.644,408.224Z"
                  transform="translate(-128.059 -401.192)"/>
          </g>
          <path class="r"
                d="M169.571,416.5a4.1,4.1,0,0,1-.88,1c-2.483,2.1-8.13,2.946-15.027,2.978-14.887-.077-35.267-4.2-40.328-6.727a3.993,3.993,0,0,1-2.36-3.41c28.064,8.177,50.141,5.43,59.149,3.55A3.845,3.845,0,0,1,169.571,416.5Z"
                transform="translate(-110.96 -394.204)"/>
        </g>
        <path class="s"
              d="M77.391,317.659l2.551,120.794c12.624,1.734,22.2,2.835,32.393,2.152l8.167-86.221,7.093,86.807a131.07,131.07,0,0,0,32.388-4.2l1.109-120.032Z"
              transform="translate(14.801 -52.477)"/>
        <g transform="translate(94.612 260.471)">
          <line class="t" y2="36.817" transform="translate(41.15 2.675)"/>
          <path class="t" d="M107.944,343.939s11.031,8.037,8.632-25.888" transform="translate(-66.793 -312.484)"/>
          <path class="t" d="M129.614,314.147s-.97,22.719,7.185,22.136" transform="translate(-57.575 -314.147)"/>
          <path class="t" d="M84.72,314.147c.388,1.553,3.883,24.66-5.632,23.495"
                transform="translate(-79.088 -314.147)"/>
        </g>
        <path class="u"
              d="M166.62,331.988l1.542,16.369c-25.872,5.833-53.827,5.555-83.7-.385l3.765-31.981,2.283-19.47c-12.481-.91-17.588-3.039-29.714-5.971l4.12-40.482s73.251,16.291,127.092-4.119l7.545,39.665s-7.992,4.7-36.533,8.361Z"
              transform="translate(7.732 -82.734)"/>
        <path class="d"
              d="M101.825,245.873s-1.981,8.575-3.906,10.1,8.72,17.795,13.452,18.071,13.429-14.482,13.521-16.118-2.845-6.085-2.49-8.534S101.825,245.873,101.825,245.873Z"
              transform="translate(23.449 -82.766)"/>
        <g transform="translate(70.596)">
          <g transform="translate(0 39.453)">
            <g transform="translate(0 76.759)">
              <path class="d"
                    d="M63.184,219.48c-2.648,6.272.513,14.349,7.063,18.043s14.008,1.6,16.658-4.666-.515-14.349-7.065-18.043S65.833,213.21,63.184,219.48Z"
                    transform="translate(-62.247 -212.989)"/>
              <path class="p" d="M78.319,228.834C78.1,227.809,77.6,217.7,66.57,218.8"
                    transform="translate(-60.406 -210.549)"/>
              <path class="p" d="M67.745,225.672s3.646-5.952,8.682-3.276" transform="translate(-59.905 -209.275)"/>
            </g>
            <g transform="translate(115.693 94.428)">
              <path class="d"
                    d="M170.633,237.265c-.572,6.782-7.129,12.464-14.644,12.686s-13.147-5.094-12.575-11.878,7.128-12.464,14.644-12.688S171.205,230.481,170.633,237.265Z"
                    transform="translate(-143.374 -225.379)"/>
              <path class="p" d="M148.1,237.164c.667-.809,5.811-9.522,15.068-3.42"
                    transform="translate(-141.359 -222.733)"/>
              <path class="p" d="M156.814,239.684s-.461-6.965-6.162-6.938" transform="translate(-140.273 -222.241)"/>
            </g>
            <path class="o"
                  d="M193.776,228.654a60.742,60.742,0,0,0-55.965-69.337c-29.98-2.116-60.969,17.993-63.54,47.939-.742,8.642-.823,17.268.978,25.446,1.37,6.216.321,12.915-.787,19.182-2.051,11.594,2.866,31.831,48.963,38.525,49.4,7.175,58.385-10.764,58.675-22.63a43.724,43.724,0,0,1,5.234-19.383A60.591,60.591,0,0,0,193.776,228.654Z"
                  transform="translate(-57.335 -159.164)"/>
            <path class="d"
                  d="M180.808,248.943l-3.98-39.785L92.979,196.567,76.391,233.443s-8.37-77.209,63.362-56.674S185.708,239.261,180.808,248.943Z"
                  transform="translate(-56.349 -153.143)"/>
            <path class="v" d="M105.339,207.613s-8.1-7.011-15.9,1.339" transform="translate(-50.661 -139.695)"/>
            <path class="v" d="M128.487,210.834s9.242-5.418,15.389,4.214" transform="translate(-34.024 -137.796)"/>
            <path class="p" d="M113.991,223.513l-.719,6.859s4.616.1,4.961,2.306-4.291,2.742-4.291,2.742"
                  transform="translate(-40.507 -131.746)"/>
            <path class="m"
                  d="M152.2,243.9c-.6,5.874-6.506,10.078-13.181,9.391s-11.6-6.005-10.992-11.879,6.506-10.078,13.181-9.391S152.807,238.027,152.2,243.9Z"
                  transform="translate(-34.241 -128.152)"/>
            <path class="m"
                  d="M101.493,239.653c-1.736,5.644-8.343,8.619-14.757,6.647s-10.206-8.149-8.471-13.792,8.344-8.619,14.757-6.646S103.228,234.01,101.493,239.653Z"
                  transform="translate(-55.602 -131.005)"/>
          </g>
          <path class="q"
                d="M99.49,224.493c-.2,2.219-1.352,3.93-2.583,3.822s-2.072-1.994-1.878-4.213,1.351-3.929,2.583-3.822S99.684,222.274,99.49,224.493Z"
                transform="translate(-48.292 -93.673)"/>
          <path class="q"
                d="M131.948,227.918c-.384,2.195-1.683,3.8-2.9,3.587s-1.894-2.163-1.51-4.358,1.683-3.8,2.9-3.585S132.332,225.725,131.948,227.918Z"
                transform="translate(-34.475 -92.281)"/>
          <g transform="translate(58.07 142.916)">
            <path class="q"
                  d="M126.3,237.116a40.129,40.129,0,0,1-5.354,11.108c-2.684,3.625-6.372,6.479-11.078,5.291-4.689-1.188-6.386-5.352-6.788-9.719a36.17,36.17,0,0,1,.864-10.754c.185-.833.324-1.326.324-1.326,9.458,5.987,20.165,5.523,21.815,5.415C126.226,237.116,126.3,237.116,126.3,237.116Z"
                  transform="translate(-102.968 -231.715)"/>
            <path class="w"
                  d="M120.915,245.122c-2.684,3.625-6.372,6.479-11.078,5.291-4.689-1.188-6.386-5.352-6.788-9.719a10.26,10.26,0,0,1,1.79-.91c4.629-1.79,10.167-.416,13.87,2.9A16.608,16.608,0,0,1,120.915,245.122Z"
                  transform="translate(-102.933 -228.613)"/>
            <path class="x"
                  d="M125.793,237.13c-1.82,1.837-4.767,2.5-7.451,2.516a19.775,19.775,0,0,1-10.352-2.731,16.008,16.008,0,0,1-4.335-3.873c.185-.833.324-1.326.324-1.326C113.436,237.7,124.143,237.238,125.793,237.13Z"
                  transform="translate(-102.675 -231.715)"/>
          </g>
          <path class="y"
                d="M208.77,203.663a83.626,83.626,0,0,1-9.55,17.527c3.117,27.277-13.884,52.886-13.884,52.886-.71-16.137.4-44.756.633-50.433.03-.647.046-1,.046-1L94.327,208.755c-.061.292-.124.616-.215.955-2.638,11.526-16.137,47.24-16.137,47.24-5.122-41.733,1.82-54.167,1.82-54.167S64.46,188.591,67.9,178.239c3.364-10.167,21.631-3.009,22.308-2.747-.261-.431-5.152-8.655-5.877-15.782-.355-3.532.292-6.788,3.039-8.716,12.682-8.917,31.735,10.229,31.735,10.229s-7.451-23.606,7.39-29.128,39.434,29.128,39.434,29.128-1.543-24.176,9.811-18.992c11.37,5.184,21.4,46.252,21.4,46.252s5.107-11.925,11-5.245C212.689,188.405,211.517,196.366,208.77,203.663Z"
                transform="translate(-60.054 -131.499)"/>
          <path class="z"
                d="M91.73,187.457c-.061.292-.124.616-.215.955-2.638,11.526-16.137,47.24-16.137,47.24-5.122-41.733,1.82-54.167,1.82-54.167C82.026,184.077,87.024,185.421,91.73,187.457Z"
                transform="translate(-57.456 -110.2)"/>
          <path class="z"
                d="M150.166,247.278c-.71-16.137.448-45.759.679-51.436,8.44-1.064,13.205-1.45,13.205-1.45C167.168,221.669,150.166,247.278,150.166,247.278Z"
                transform="translate(-24.884 -104.701)"/>
          <path class="z"
                d="M203.737,203.663a27.8,27.8,0,0,0-1.728-6.741c-.878-2.206-2.715-4.659-5.03-4.166a5.273,5.273,0,0,0-2.684,1.991,38.61,38.61,0,0,0-5.492,8.515,105.171,105.171,0,0,0-17.294-43.752c-.679-.973-1.667-2.052-2.808-1.744-.957.247-1.373,1.342-1.636,2.3a55.848,55.848,0,0,0-1.821,17.357,153.661,153.661,0,0,0-17.6-19.609c-6.295-5.925-13.762-11.571-22.417-11.926a8.1,8.1,0,0,0-5.231,1.234c-2.1,1.574-2.623,4.475-2.745,7.1a45.449,45.449,0,0,0,3.5,19.871,50.6,50.6,0,0,0-30.963-16.97,15.353,15.353,0,0,0-5.632-.016A10.82,10.82,0,0,0,79.3,159.71c-.355-3.532.292-6.788,3.039-8.716,12.682-8.917,31.735,10.229,31.735,10.229s-7.451-23.606,7.39-29.128,39.434,29.128,39.434,29.128-1.543-24.176,9.811-18.992c11.37,5.184,21.4,46.252,21.4,46.252s5.107-11.925,11-5.245C207.656,188.405,206.484,196.366,203.737,203.663Z"
                transform="translate(-55.021 -131.499)"/>
        </g>
        <line class="d" x1="28.917" y1="2.478" transform="translate(121.603 160.245)"/>
        <path class="aa"
              d="M137.453,269.273a.426.426,0,0,0-.786-.214c-1.271,1.747-1.646,4.193-2.2,6.262-.432,1.619-.794,3.244-1.119,4.88-1.3-7.779-2.621-15.9-6.088-22.8a.363.363,0,0,0-.66.278c3.153,9.182,4.183,19.008,5.92,28.523.214,1.172,2.011.677,1.79-.493-.23-1.221-.446-2.461-.659-3.714.789-2.078,1.5-4.174,2.175-6.295C136.475,273.649,137.513,271.432,137.453,269.273Z"
              transform="translate(35.76 -77.931)"/>
        <path class="aa"
              d="M90.581,260.06c-2.844,7.139-5.857,15.049-7.384,22.813-1.872-4.331-2.846-8.723-4.355-13.206-.17-.5-1-.453-.971.131.251,5.12,2.631,10.425,4.994,14.917-.143.866-.285,1.73-.385,2.587-.071.62.829.645,1.018.138,3.269-8.716,5.242-18.207,8.013-27.124C91.7,259.712,90.8,259.5,90.581,260.06Z"
              transform="translate(15.004 -76.861)"/>
        <path class="aa"
              d="M161.091,327.429c-25.872,5.833-53.827,5.555-83.7-.385l3.765-31.981a57.747,57.747,0,0,0,10.6,8.454,75.283,75.283,0,0,0,29.992,10.32,93.633,93.633,0,0,0,37.8-2.777Z"
              transform="translate(14.803 -61.808)"/>
      </g>
    </g>
  </g>
</svg>
