<svg viewBox="0 0 53 53" xmlns="http://www.w3.org/2000/svg">
  <defs>
    <style>.a{fill:#226473;}</style>
  </defs>
  <g transform="translate(0 0)">
    <path class="a"
          d="M93.507,191.78a3.173,3.173,0,0,1-4.159,0,.776.776,0,0,0-1.005,1.184,4.7,4.7,0,0,0,6.164,0,.776.776,0,1,0-1-1.188Z"
          transform="translate(-78.952 -171.765)"/>
    <path class="a"
          d="M152.963,153.189a.776.776,0,0,0-.776.776v1.058a.776.776,0,0,0,1.553,0v-1.058A.776.776,0,0,0,152.963,153.189Z"
          transform="translate(-136.433 -137.332)"/>
    <path class="a" d="M75.366,153.965a.776.776,0,0,0-1.553,0v1.058a.776.776,0,0,0,1.553,0Z"
          transform="translate(-66.172 -137.332)"/>
    <path class="a"
          d="M25.877,6.647a3.894,3.894,0,0,0-4.9-2.191,2.323,2.323,0,0,0-2.318-2.219h-.62c-6.394,0-9.7,2.9-11.1,4.625a2.024,2.024,0,0,1-1.583.745H5.337a3.587,3.587,0,0,0-3.586,3.586v5.039A2.964,2.964,0,0,0,.5,18.618v.012a2.958,2.958,0,0,0,2.969,2.94h.709A9.1,9.1,0,0,0,12.9,28.091h.033a9.11,9.11,0,0,0,8.733-6.521h.709a2.958,2.958,0,0,0,2.969-2.94v-.012a2.962,2.962,0,0,0-1.229-2.371v-2.08a4.617,4.617,0,0,0-.437-1.956,13.581,13.581,0,0,0,1.148-.885,4.011,4.011,0,0,0,1.1-4.554ZM3.469,20.017A1.42,1.42,0,0,1,2.053,18.63v-.012a1.425,1.425,0,0,1,1.416-1.4h.344v1.8a9.093,9.093,0,0,0,.055.993h-.4Zm9.464,6.521H12.9a7.533,7.533,0,0,1-7.535-7.514v-1.8h.36a1.814,1.814,0,0,0,1.812-1.812v-.469a.262.262,0,0,1,.259-.259h7.657a15.591,15.591,0,0,0,2.877-.262v.99a1.814,1.814,0,0,0,1.812,1.812h.338v1.8a7.539,7.539,0,0,1-7.546,7.514ZM23.791,18.63a1.42,1.42,0,0,1-1.416,1.387h-.4a9.092,9.092,0,0,0,.055-.993v-1.8h.344a1.425,1.425,0,0,1,1.416,1.4v.012Zm-1.229-4.463v1.509c-.062,0-.124-.007-.187-.007H20.141a.259.259,0,0,1-.259-.259V14.04a13.83,13.83,0,0,0,2.458-1.017,3.061,3.061,0,0,1,.223,1.144Zm1.252-4.018a12.567,12.567,0,0,1-8.362,2.981H7.8a1.814,1.814,0,0,0-1.812,1.812v.469a.259.259,0,0,1-.259.259H3.469c-.055,0-.11,0-.165.005V11.193A2.034,2.034,0,0,1,5.337,9.159h.016A3.571,3.571,0,0,0,8.142,7.84c1.227-1.512,4.143-4.05,9.894-4.05h.62a.768.768,0,0,1,.767.767,1.482,1.482,0,0,0,2.019,1.381,2.334,2.334,0,0,1,3,1.293l.051.126a2.46,2.46,0,0,1-.676,2.793Z"
          transform="translate(-0.448 -2.005)"/>
    <path class="a"
          d="M296,279.783a.78.78,0,0,0,.013-.141v-1.277a11.624,11.624,0,0,0-5.585-9.914,5.568,5.568,0,0,0-.543-1.717,1.8,1.8,0,0,0-1.149-.947,1.827,1.827,0,0,0-1.485.265l-1.357.92a2.6,2.6,0,0,0-2.942,0l-1.357-.92a1.824,1.824,0,0,0-1.484-.265,1.8,1.8,0,0,0-1.149.947,5.568,5.568,0,0,0-.543,1.717,11.625,11.625,0,0,0-5.585,9.913v1.277a.772.772,0,0,0,.013.141,2.869,2.869,0,0,0-.845,1.988c0,.007,0,.015,0,.022v.02c0,.007,0,.015,0,.022a2.868,2.868,0,0,0,.832,1.974v3.435a2.85,2.85,0,0,0,2.847,2.847h4.111a.778.778,0,0,0,.179-.022,9.046,9.046,0,0,0,4.431,1.154h.033a9.066,9.066,0,0,0,4.424-1.146.782.782,0,0,0,.146.014h4.162a2.85,2.85,0,0,0,2.847-2.847v-3.435a2.868,2.868,0,0,0,.832-1.974c0-.007,0-.015,0-.022v-.02c0-.007,0-.015,0-.022A2.869,2.869,0,0,0,296,279.783Zm-2.467,2.373v-1.7h.344a1.347,1.347,0,1,1,0,2.691h-.4A9.074,9.074,0,0,0,293.53,282.156Zm-5.41-14.818a.235.235,0,0,1,.372.088,3.6,3.6,0,0,1,0,3.4.235.235,0,0,1-.372.088l-1.263-.856a2.6,2.6,0,0,0,0-1.864Zm-2.643,1.788a1.056,1.056,0,1,1-1.056-1.056A1.058,1.058,0,0,1,285.477,269.126Zm-4.755-1.788,1.263.856a2.6,2.6,0,0,0,0,1.864l-1.263.856a.235.235,0,0,1-.372-.088,3.6,3.6,0,0,1,0-3.4.284.284,0,0,1,.372-.088Zm.871,4.861,1.357-.92a2.6,2.6,0,0,0,2.942,0l1.357.92a1.8,1.8,0,0,0,2.633-.682,5.78,5.78,0,0,0,.458-1.258,10.068,10.068,0,0,1,4.118,8.105v.6a3.031,3.031,0,0,0-.584-.057h-3.242a5.441,5.441,0,0,1-5.435-5.435.776.776,0,0,0-1.553,0,5.441,5.441,0,0,1-5.435,5.435h-3.242a3.031,3.031,0,0,0-.584.057v-.6a10.069,10.069,0,0,1,4.118-8.105,5.78,5.78,0,0,0,.458,1.258,1.8,1.8,0,0,0,2.634.682Zm-8.042,9.6a1.389,1.389,0,0,1,1.416-1.346h.344v1.7a9.091,9.091,0,0,0,.055.993h-.4A1.389,1.389,0,0,1,273.552,281.8Zm.832,5.441v-2.6a3.03,3.03,0,0,0,.584.057h.709a9.068,9.068,0,0,0,2.274,3.837h-2.273A1.3,1.3,0,0,1,274.384,287.244ZM284.4,289.67a7.533,7.533,0,0,1-7.535-7.514v-1.7h1.346a7,7,0,0,0,6.211-3.788,7,7,0,0,0,6.211,3.788h1.346v1.7a7.539,7.539,0,0,1-7.546,7.514Zm8.765-1.132h-2.276a9.068,9.068,0,0,0,2.277-3.837h.709a3.028,3.028,0,0,0,.584-.057v2.6A1.3,1.3,0,0,1,293.164,288.538Z"
          transform="translate(-243.843 -238.223)"/>
    <path class="a"
          d="M365.007,452a3.173,3.173,0,0,1-4.159,0,.776.776,0,0,0-1.005,1.184,4.7,4.7,0,0,0,6.164,0,.776.776,0,1,0-1-1.188Z"
          transform="translate(-322.347 -405.049)"/>
    <path class="a"
          d="M424.463,413.412a.776.776,0,0,0-.776.776v1.058a.776.776,0,0,0,1.553,0v-1.058A.776.776,0,0,0,424.463,413.412Z"
          transform="translate(-379.829 -370.617)"/>
    <path class="a" d="M346.866,414.188a.776.776,0,0,0-1.553,0v1.058a.776.776,0,0,0,1.553,0Z"
          transform="translate(-309.568 -370.617)"/>
    <path class="a"
          d="M93.507,452a3.173,3.173,0,0,1-4.159,0,.776.776,0,0,0-1.005,1.184,4.7,4.7,0,0,0,6.164,0,.776.776,0,1,0-1-1.188Z"
          transform="translate(-78.952 -405.049)"/>
    <path class="a"
          d="M152.963,413.412a.776.776,0,0,0-.776.776v1.058a.776.776,0,0,0,1.553,0v-1.058A.776.776,0,0,0,152.963,413.412Z"
          transform="translate(-136.433 -370.617)"/>
    <path class="a" d="M75.366,414.188a.776.776,0,0,0-1.553,0v1.058a.776.776,0,0,0,1.553,0Z"
          transform="translate(-66.172 -370.617)"/>
    <path class="a"
          d="M23.395,274.165v-.99a5.959,5.959,0,0,0-5.952-5.952H7.5a5.959,5.959,0,0,0-5.952,5.952v.99A2.333,2.333,0,0,0,0,276.36V277.4a1.3,1.3,0,0,0,1.292,1.294v2.02a2.963,2.963,0,0,0-1.24,2.379v.012a2.958,2.958,0,0,0,2.969,2.94h.709a9.1,9.1,0,0,0,8.722,6.521h.033a9.11,9.11,0,0,0,8.733-6.521h.709A2.958,2.958,0,0,0,24.9,283.1v-.012a2.963,2.963,0,0,0-1.24-2.379v-2.019a1.3,1.3,0,0,0,1.292-1.294V276.36a2.333,2.333,0,0,0-1.553-2.2Zm-1.553-.99v.857h-3.83v-2.464a4.326,4.326,0,0,0-1.019-2.792h.449A4.4,4.4,0,0,1,21.842,273.174ZM7.5,268.775h.454a4.35,4.35,0,0,0-1.023,2.807v2.449H3.105v-.857A4.4,4.4,0,0,1,7.5,268.775ZM1.553,276.36a.777.777,0,0,1,.776-.776H7.712a.776.776,0,0,0,.776-.776v-3.226a2.8,2.8,0,0,1,2.789-2.807H13.67a2.794,2.794,0,0,1,2.789,2.792v2.464H11.335a.776.776,0,1,0,0,1.553H22.618a.777.777,0,0,1,.776.776v.776H1.553Zm1.292,2.329h4.8v.673a.777.777,0,0,1-.776.776H3.02c-.059,0-.118,0-.176.006Zm.176,5.8A1.421,1.421,0,0,1,1.6,283.1v-.012a1.425,1.425,0,0,1,1.416-1.4h.344v1.8a9.093,9.093,0,0,0,.055.993h-.4Zm9.464,6.521h-.033a7.533,7.533,0,0,1-7.535-7.514v-1.8H6.873A2.332,2.332,0,0,0,9.2,279.362v-.673h6.525v.673a2.332,2.332,0,0,0,2.329,2.329H20.03v1.8A7.539,7.539,0,0,1,12.485,291.008ZM23.343,283.1a1.42,1.42,0,0,1-1.416,1.387h-.4a9.092,9.092,0,0,0,.055-.993v-1.8h.344a1.425,1.425,0,0,1,1.416,1.4v.012Zm-1.416-2.961H18.056a.777.777,0,0,1-.776-.776v-.673H22.1v1.455C22.044,280.141,21.986,280.138,21.927,280.138Z"
          transform="translate(0 -239.56)"/>
    <path class="a"
          d="M296.012,14.59V10.958a8.117,8.117,0,0,0-7.424-8.076A3.65,3.65,0,0,0,285.039,0H283.8a3.65,3.65,0,0,0-3.549,2.882,8.117,8.117,0,0,0-7.424,8.076V14.59A2.925,2.925,0,0,0,272,16.613v.012a2.914,2.914,0,0,0,.832,2.038V21.8a2.85,2.85,0,0,0,2.847,2.847H279.5a9.031,9.031,0,0,0,4.9,1.437h.033a9.051,9.051,0,0,0,4.905-1.437h3.827a2.85,2.85,0,0,0,2.847-2.847V18.663a2.914,2.914,0,0,0,.832-2.038v-.012A2.925,2.925,0,0,0,296.012,14.59ZM293.531,17V15.217h.344a1.425,1.425,0,0,1,1.416,1.4v.012a1.42,1.42,0,0,1-1.416,1.387h-.4A9.144,9.144,0,0,0,293.531,17ZM283.8,1.553h1.234a2.088,2.088,0,0,1,1.922,1.3h-5.077A2.088,2.088,0,0,1,283.8,1.553Zm-8.435,16.459h-.4a1.42,1.42,0,0,1-1.416-1.387v-.012a1.425,1.425,0,0,1,1.416-1.4h.344V17a9.147,9.147,0,0,0,.057,1.016Zm-.985,3.792v-2.3a3,3,0,0,0,.584.057h.714a9.09,9.09,0,0,0,1.987,3.533h-1.991A1.3,1.3,0,0,1,274.385,21.8Zm10.015,2.73A7.545,7.545,0,0,1,276.865,17V15.217h.3a1.892,1.892,0,0,0,1.876-1.9v-.346a.259.259,0,0,1,.259-.259h5.532a.776.776,0,0,0,0-1.553H279.3a1.814,1.814,0,0,0-1.812,1.811v.346a.347.347,0,0,1-.323.35h-2.2a2.869,2.869,0,0,0-.584.06V10.958A6.562,6.562,0,0,1,280.939,4.4H287.9a6.562,6.562,0,0,1,6.555,6.555v2.766a2.876,2.876,0,0,0-.584-.06h-2.369a.259.259,0,0,1-.259-.259v-.437a1.814,1.814,0,0,0-1.812-1.812h-.977a.776.776,0,0,0,0,1.553h.977a.259.259,0,0,1,.259.259v.437a1.814,1.814,0,0,0,1.812,1.812h.472V17a7.55,7.55,0,0,1-7.546,7.537Zm8.765-1.436h-1.993a9.087,9.087,0,0,0,1.989-3.533h.714a3.006,3.006,0,0,0,.584-.057v2.3A1.3,1.3,0,0,1,293.165,23.1Z"
          transform="translate(-243.844)"/>
    <path class="a"
          d="M365.007,191.78a3.173,3.173,0,0,1-4.159,0,.776.776,0,0,0-1.005,1.184,4.7,4.7,0,0,0,6.164,0,.776.776,0,1,0-1-1.188Z"
          transform="translate(-322.347 -171.765)"/>
    <path class="a"
          d="M424.463,153.189a.776.776,0,0,0-.776.776v1.058a.776.776,0,0,0,1.553,0v-1.058A.776.776,0,0,0,424.463,153.189Z"
          transform="translate(-379.829 -137.332)"/>
    <path class="a" d="M346.866,153.965a.776.776,0,0,0-1.553,0v1.058a.776.776,0,0,0,1.553,0Z"
          transform="translate(-309.568 -137.332)"/>
  </g>
</svg>
