<svg
   viewBox="0 0 68.5 68.5"
   xmlns="http://www.w3.org/2000/svg">

  <g
     id="g830"
     transform="translate(-5.5,-5.5)"><path
       d="M 39.75,5.5 C 20.834,5.5 5.5,20.834 5.5,39.75 5.5,58.666 20.834,74 39.75,74 58.666,74 74,58.666 74,39.75 74,20.834 58.666,5.5 39.75,5.5 Z m 0,64.5 C 23.043,70 9.5,56.457 9.5,39.75 9.5,23.043 23.043,9.5 39.75,9.5 56.457,9.5 70,23.043 70,39.75 70,56.457 56.457,70 39.75,70 Z"
       id="path824" /><path
       d="m 37.125,52.375 c 0,2.348 -1.903,4.25 -4.25,4.25 v 0 c -2.347,0 -4.25,-1.902 -4.25,-4.25 V 28.75 c 0,-2.347 1.903,-4.25 4.25,-4.25 v 0 c 2.347,0 4.25,1.903 4.25,4.25 z"
       id="path826" /><path
       d="m 51.125,52.375 c 0,2.348 -1.902,4.25 -4.25,4.25 v 0 c -2.348,0 -4.25,-1.902 -4.25,-4.25 V 28.75 c 0,-2.347 1.902,-4.25 4.25,-4.25 v 0 c 2.348,0 4.25,1.903 4.25,4.25 z"
       id="path828" /></g></svg>
