<svg viewBox="0 0 68.5 68.5" xmlns="http://www.w3.org/2000/svg">
  <g
   id="g6"
   transform="translate(-5.5,-5.5)">
    <path
   d="M 39.75,5.5 C 20.834,5.5 5.5,20.834 5.5,39.75 5.5,58.666 20.834,74 39.75,74 58.666,74 74,58.666 74,39.75 74,20.834 58.666,5.5 39.75,5.5 Z m 0,64.5 C 23.043,70 9.5,56.457 9.5,39.75 9.5,23.043 23.043,9.5 39.75,9.5 56.457,9.5 70,23.043 70,39.75 70,56.457 56.457,70 39.75,70 Z"
   id="path2" />
    <polygon
   points="58,40 32,24 32,56 "
   style="fill:none;stroke:#000000;stroke-width:6;stroke-linejoin:round"
   id="polygon4" />
  </g>
</svg>
