<svg viewBox="0 0 156.34861 58" xmlns="http://www.w3.org/2000/svg">
  <title>Layer closet bear box</title>
  <style type="text/css">
    .st0{fill:#847059;}
    .st1{fill:#665646;}
    .st2{fill:#54473B;}
    .st3{fill:#9E8771;}
    .st4{fill:#AF9680;}
    .st5{fill:none;stroke:#382016;stroke-width:2;stroke-miterlimit:10;}
    .st6{fill:none;stroke:#E0E1E2;stroke-width:2;stroke-linecap:round;stroke-miterlimit:10;}
  </style>
  <g>
    <rect
       x="12"
       y="1"
       class="st0"
       width="34"
       height="54"/>
    <polygon
       class="st0"
       points="0,58 3,58 3,55 3,3 7,1 0,1 "/>
    <polygon
       class="st0"
       points="55,55 55,58 58,58 58,1 51,1 55,3 "/>
    <rect
       x="12"
       y="4"
       class="st1"
       width="17"
       height="48"/>
    <rect
       x="29"
       y="4"
       class="st2"
       width="17"
       height="48"/>
    <polygon
       class="st3"
       points="3,3 9,0 9,58 3,55 "/>
    <rect
       x="9"
       class="st4"
       width="3"
       height="58"
       y="0" />
    <polygon
       class="st3"
       points="55,3 49,0 49,58 55,55 "/>
    <rect
       x="46"
       class="st4"
       width="3"
       height="58"
       y="0" />
    <path
       class="st5"
       d="M 29,19"/>
    <path
       class="st5"
       d="M 12,19"/>
    <path
       class="st6"
       d="M 43,12"/>
    <path
       class="st6"
       d="M 32,12"/>
    <polygon
       class="st2"
       points="30.1,15 12,14 12,4 29,4 "/>
    <rect
       x="12"
       y="43"
       class="st3"
       width="34"
       height="2"/>
    <line
       class="st3"
       x1="46"
       y1="13"
       x2="46"
       y2="15"/>
  </g>
  <g transform="matrix(0.10640624,0,0,0.10640624,105.44388,15.260197)">
    <path
       fill="#926e43"
       d="M 238,2.8 V 337.6 L 56,266 V 150 l 97.2,-1.6 z m 0,-2 v 0 L 56,57.2 Z" />
    <polygon
       fill="#d9ac80"
       points="56,57.199997 0,151.2 153.2,148.8 239.2,0.80000305 " />
    <polygon
       fill="#a67e4f"
       points="325.20001,148.8 239.60001,1.1999969 238,0.80000305 238,337.60001 420,266 420,150 " />
    <polygon
       fill="#d9ac80"
       points="422.39999,57.199997 478.39999,151.2 325.20001,148.8 239.2,0.80000305 " />
  </g>
  <g transform="matrix(0.08890808,0,0,0.08890808,63.640301,9.8234194)">
    <path
       style="fill:#9b6534"
       d="m 427.658,219.87 c -11.016,-24.117 -39.484,-34.718 -63.61,-23.703 -39.266,17.953 -89,27.836 -140.047,27.836 -0.09,0 -0.176,-0.008 -0.266,-0.008 v 96 c 0.09,0 0.176,0.008 0.266,0.008 65.453,0 127.687,-12.633 179.953,-36.523 24.11,-11.024 34.72,-39.501 23.704,-63.61 z"/>
    <path
       style="fill:#aa7135"
       d="m 20.346,219.87 c 11.016,-24.117 39.484,-34.718 63.61,-23.703 39.266,17.953 89,27.836 140.047,27.836 0.09,0 0.176,-0.008 0.266,-0.008 v 96 c -0.09,0 -0.176,0.008 -0.266,0.008 C 158.55,320.003 96.316,307.37 44.05,283.48 19.939,272.456 9.33,243.979 20.346,219.87 Z"/>
    <circle
       style="fill:#b9a086"
       cx="384.03601"
       cy="240"
       r="32"/>
    <circle
       style="fill:#aa7135"
       cx="224.036"
       cy="304"
       r="112"/>
    <ellipse
       style="fill:#d5b99b"
       cx="224.036"
       cy="304"
       rx="62.512001"
       ry="80"/>
    <path
       style="fill:#a26b34"
       d="m 224.002,192.002 c -31.363,0 -59.676,12.926 -80.008,33.698 l 158.309,158.31 c 20.774,-20.332 33.699,-48.645 33.699,-80.008 0,-61.855 -50.145,-112 -112,-112 z"/>
    <path
       style="fill:#b9a086"
       d="m 224.004,224.002 c -20.383,0 -38.309,12.672 -49.718,31.988 l 98.098,98.098 c 8.699,-13.744 14.129,-31.019 14.129,-50.086 -10e-4,-44.183 -27.986,-80 -62.509,-80 z"/>
    <g>
      <circle
         style="fill:#aa7135"
         cx="320.03601"
         cy="64"
         r="64"/>
      <circle
         style="fill:#aa7135"
         cx="128.004"
         cy="64"
         r="64"/>
    </g>
    <g>
      <circle
         style="fill:#d5b99b"
         cx="128.004"
         cy="64"
         r="32"/>
      <circle
         style="fill:#d5b99b"
         cx="320.03601"
         cy="64"
         r="32"/>
    </g>
    <circle
       style="fill:#aa7135"
       cx="224.036"
       cy="136"
       r="120"/>
    <g>
      <circle
         style="fill:#231f20"
         cx="176.004"
         cy="112"
         r="16"/>
      <circle
         style="fill:#231f20"
         cx="272.03601"
         cy="112"
         r="16"/>
    </g>
    <circle
       style="fill:#d5b99b"
       cx="224.036"
       cy="176"
       r="64"/>
    <circle
       style="fill:#231f20"
       cx="224.036"
       cy="160"
       r="16"/>
    <circle
       style="fill:#d5b99b"
       cx="64.003998"
       cy="240"
       r="32"/>
    <path
       style="fill:#d64231"
       d="m 272.408,241.089 c 7.085,-3.443 15.329,1.717 15.329,9.594 v 37.434 c 0,7.877 -8.245,13.037 -15.329,9.594 l -48.671,-17.442 v -21.542 z"/>
    <path
       style="fill:#b22f28"
       d="m 282.195,297.333 -43.886,-43.886 -14.573,5.28 v 21.542 l 48.672,17.442 c 3.35,1.627 6.912,1.219 9.787,-0.378 z"/>
    <path
       style="fill:#d64231"
       d="m 224.087,248.067 c -5.5,0 -10.406,2.225 -14.187,5.646 l -34.836,-12.625 c -7.082,-3.443 -15.328,1.717 -15.328,9.594 v 37.434 c 0,7.879 8.246,13.039 15.328,9.594 l 34.969,-12.531 c 3.77,3.358 8.614,5.554 14.054,5.554 11.785,0 21.336,-9.55 21.336,-21.332 0,-11.783 -9.55,-21.334 -21.336,-21.334 z"/>
    <path
       style="fill:#aa7135"
       d="M 117.781,321.549 96.627,335.112 C 72.549,313.729 40.674,308.594 19.81,324.815 c -24.418,18.984 -24.426,59.82 -0.019,91.215 14.566,18.74 36.543,31.973 60.211,31.973 8.211,0 17.279,-2.651 23.898,-6.603 l 67.15,-40.298 c 29.299,-17.339 -21.207,-99.008 -53.269,-79.553 z"/>
    <path
       style="fill:#d5b99b"
       d="M 90.724,363.194 C 68.638,334.788 34.243,324.088 9.786,336.327 -3.655,357.499 -0.495,389.938 19.79,416.03 c 22.086,28.406 56.484,39.103 80.938,26.863 13.438,-21.17 10.278,-53.609 -10.004,-79.699 z"/>
    <path
       style="fill:#9b6534"
       d="m 330.222,321.549 21.154,13.563 c 24.078,-21.383 55.953,-26.518 76.817,-10.297 24.418,18.984 24.426,59.82 0.019,91.215 -14.566,18.74 -36.543,31.973 -60.211,31.973 -8.211,0 -17.279,-2.651 -23.898,-6.603 l -67.15,-40.298 c -29.299,-17.339 21.207,-99.008 53.269,-79.553 z"/>
    <path
       style="fill:#b9a086"
       d="m 357.279,363.194 c 22.086,-28.406 56.481,-39.106 80.938,-26.867 13.442,21.172 10.282,53.611 -10.004,79.703 -22.086,28.406 -56.484,39.103 -80.938,26.863 -13.437,-21.17 -10.277,-53.609 10.004,-79.699 z"/>
  </g>
</svg>
