<svg viewBox="0 0 171.39774 81.532051" xmlns="http://www.w3.org/2000/svg">
  <title>Layer closet box bear</title>
  <style type="text/css">
    .st0{fill:#847059;}
    .st1{fill:#665646;}
    .st2{fill:#54473B;}
    .st3{fill:#9E8771;}
    .st4{fill:#AF9680;}
    .st5{fill:none;stroke:#382016;stroke-width:2;stroke-miterlimit:10;}
    .st6{fill:none;stroke:#E0E1E2;stroke-width:2;stroke-linecap:round;stroke-miterlimit:10;}
  </style>
  <g transform="matrix(0.10576875,0,0,0.10576875,83.538948,25.861686)">
    <path
       fill="#926e43"
       d="M 238,2.8 V 337.6 L 56,266 V 150 l 97.2,-1.6 z m 0,-2 v 0 L 56,57.2 Z" />
    <polygon
       fill="#d9ac80"
       points="239.2,0.80000305 56,57.199997 0,151.2 153.2,148.8 " />
    <polygon
       fill="#a67e4f"
       points="238,337.60001 420,266 420,150 325.20001,148.8 239.60001,1.1999969 238,0.80000305 " />
    <polygon
       fill="#d9ac80"
       points="239.2,0.80000305 422.39999,57.199997 478.39999,151.2 325.20001,148.8 " />
  </g>
  <g transform="matrix(0.08493333,0,0,0.08493333,144.39276,36.32851)">
    <path
       style="fill:#9b6534"
       d="m 299.10101,90.801703 c -11.016,-24.117 -39.484,-34.718 -63.61,-23.703 -39.266,17.953 -89,27.836 -140.046995,27.836 -0.09,0 -0.176,-0.008 -0.266,-0.008 V 190.9267 c 0.09,0 0.176,0.008 0.266,0.008 65.452995,0 127.686995,-12.633 179.952995,-36.523 24.11,-11.024 34.72,-39.501 23.704,-63.609997 z"/>
    <path
       style="fill:#aa7135"
       d="m -108.21099,90.801703 c 11.016001,-24.117 39.484001,-34.718 63.610001,-23.703 39.2660039,17.953 89.000004,27.836 140.047004,27.836 0.09,0 0.176,-0.008 0.266,-0.008 V 190.9267 c -0.09,0 -0.176,0.008 -0.266,0.008 -65.453,0 -127.687004,-12.633 -179.953004,-36.523 -24.111001,-11.024 -34.720001,-39.501 -23.704001,-63.609997 z"/>
    <circle
       style="fill:#b9a086"
       cx="255.47902"
       cy="110.9317"
       r="32"/>
    <circle
       style="fill:#aa7135"
       cx="95.479012"
       cy="174.9317"
       r="112"/>
    <ellipse
       style="fill:#d5b99b"
       cx="95.479012"
       cy="174.9317"
       rx="62.512001"
       ry="80"/>
    <path
       style="fill:#a26b34"
       d="m 95.445015,62.933703 c -31.363,0 -59.676,12.926 -80.008,33.698 L 173.74601,254.9417 c 20.774,-20.332 33.699,-48.645 33.699,-80.008 0,-61.855 -50.145,-111.999997 -111.999995,-111.999997 z"/>
    <path
       style="fill:#b9a086"
       d="m 95.447015,94.933703 c -20.383,0 -38.309,12.671997 -49.718,31.987997 l 98.097995,98.098 c 8.699,-13.744 14.129,-31.019 14.129,-50.086 -0.001,-44.183 -27.986,-79.999997 -62.508995,-79.999997 z"/>
    <g transform="translate(-128.55699,-129.0683)">
      <circle
         style="fill:#aa7135"
         cx="320.03601"
         cy="64"
         r="64"/>
      <circle
         style="fill:#aa7135"
         cx="128.004"
         cy="64"
         r="64"/>
    </g>
    <g transform="translate(-128.55699,-129.0683)">
      <circle
         style="fill:#d5b99b"
         cx="128.004"
         cy="64"
         r="32"/>
      <circle
         style="fill:#d5b99b"
         cx="320.03601"
         cy="64"
         r="32"/>
    </g>
    <circle
       style="fill:#aa7135"
       cx="95.479012"
       cy="6.9317031"
       r="120"/>
    <g transform="translate(-128.55699,-129.0683)">
      <circle
         style="fill:#231f20"
         cx="176.004"
         cy="112"
         r="16"/>
      <circle
         style="fill:#231f20"
         cx="272.03601"
         cy="112"
         r="16"/>
    </g>
    <circle
       style="fill:#d5b99b"
       cx="95.479012"
       cy="46.931702"
       r="64"/>
    <circle
       style="fill:#231f20"
       cx="95.479012"
       cy="30.931704"
       r="16"/>
    <circle
       style="fill:#d5b99b"
       cx="-64.552994"
       cy="110.9317"
       r="32"/>
    <path
       style="fill:#d64231"
       d="m 143.85101,112.0207 c 7.085,-3.443 15.329,1.717 15.329,9.594 v 37.434 c 0,7.877 -8.245,13.037 -15.329,9.594 l -48.670995,-17.442 v -21.542 z"/>
    <path
       style="fill:#b22f28"
       d="m 153.63801,168.2647 -43.886,-43.886 -14.572995,5.28 v 21.542 l 48.671995,17.442 c 3.35,1.627 6.912,1.219 9.787,-0.378 z"/>
    <path
       style="fill:#d64231"
       d="m 95.530015,118.9987 c -5.5,0 -10.406,2.225 -14.187,5.646 l -34.836,-12.625 c -7.082,-3.443 -15.328,1.717 -15.328,9.594 v 37.434 c 0,7.879 8.246,13.039 15.328,9.594 l 34.969,-12.531 c 3.77,3.358 8.614,5.554 14.054,5.554 11.784995,0 21.335995,-9.55 21.335995,-21.332 0,-11.783 -9.55,-21.334 -21.335995,-21.334 z"/>
    <path
       style="fill:#aa7135"
       d="m -10.775985,192.4807 -21.154004,13.563 c -24.078,-21.383 -55.953,-26.518 -76.817001,-10.297 -24.418,18.984 -24.426,59.82 -0.019,91.215 14.566001,18.74 36.543001,31.973 60.211001,31.973 8.211,0 17.279,-2.651 23.898004,-6.603 l 67.15,-40.298 c 29.299,-17.339 -21.207,-99.008 -53.269,-79.553 z"/>
    <path
       style="fill:#d5b99b"
       d="m -37.832989,234.1257 c -22.086,-28.406 -56.481,-39.106 -80.938001,-26.867 -13.441,21.172 -10.281,53.611 10.004,79.703 22.086001,28.406 56.484001,39.103 80.938001,26.863 13.438004,-21.17 10.278004,-53.609 -10.004,-79.699 z"/>
    <path
       style="fill:#9b6534"
       d="m 201.66501,192.4807 21.154,13.563 c 24.078,-21.383 55.953,-26.518 76.817,-10.297 24.418,18.984 24.426,59.82 0.019,91.215 -14.566,18.74 -36.543,31.973 -60.211,31.973 -8.211,0 -17.279,-2.651 -23.898,-6.603 l -67.15,-40.298 c -29.299,-17.339 21.207,-99.008 53.269,-79.553 z"/>
    <path
       style="fill:#b9a086"
       d="m 228.72201,234.1257 c 22.086,-28.406 56.481,-39.106 80.938,-26.867 13.442,21.172 10.282,53.611 -10.004,79.703 -22.086,28.406 -56.484,39.103 -80.938,26.863 -13.437,-21.17 -10.277,-53.609 10.004,-79.699 z"/>
  </g>
  <g transform="scale(1.405725)">
    <rect
       x="12"
       y="1"
       class="st0"
       width="34"
       height="54"/>
    <polygon
       class="st0"
       points="0,58 3,58 3,55 3,3 7,1 0,1 "/>
    <polygon
       class="st0"
       points="55,55 55,58 58,58 58,1 51,1 55,3 "/>
    <rect
       x="12"
       y="4"
       class="st1"
       width="17"
       height="48"/>
    <rect
       x="29"
       y="4"
       class="st2"
       width="17"
       height="48"/>
    <polygon
       class="st3"
       points="9,58 3,55 3,3 9,0 "/>
    <rect
       x="9"
       class="st4"
       width="3"
       height="58"
       y="0" />
    <polygon
       class="st3"
       points="49,58 55,55 55,3 49,0 "/>
    <rect
       x="46"
       class="st4"
       width="3"
       height="58"
       y="0" />
    <path
       class="st5"
       d="M 29,19"/>
    <path
       class="st5"
       d="M 12,19"/>
    <path
       class="st6"
       d="M 43,12"/>
    <path
       class="st6"
       d="M 32,12"/>
    <polygon
       class="st2"
       points="12,4 29,4 30.1,15 12,14 "/>
    <rect
       x="12"
       y="43"
       class="st3"
       width="34"
       height="2"/>
    <line
       class="st3"
       x1="46"
       y1="13"
       x2="46"
       y2="15"/>
  </g>
</svg>
