<svg viewBox="0, 0, 400,404.1935076417835" xmlns="http://www.w3.org/2000/svg">
  <g
    id="g20">
    <path
      d="m 200.5,2.658 c -0.28,0.252 -0.877,0.761 -1.326,1.131 -0.448,0.371 -0.949,0.788 -1.111,0.927 -0.163,0.139 -1.154,0.972 -2.201,1.852 -1.048,0.88 -2.933,2.473 -4.189,3.54 -1.973,1.676 -7.884,6.656 -9.091,7.659 -0.224,0.186 -0.944,0.796 -1.6,1.355 -1.171,0.999 -7.196,6.065 -8.004,6.729 -0.226,0.186 -0.718,0.609 -1.094,0.939 -0.376,0.33 -1.897,1.614 -3.379,2.853 -2.503,2.092 -4.441,3.724 -4.9,4.125 -0.304,0.266 -1.577,1.339 -5.289,4.456 -1.899,1.595 -3.642,3.065 -3.874,3.266 -0.436,0.381 -7.713,6.512 -12.624,10.636 -3.617,3.038 -4.221,3.548 -6.488,5.474 -1.036,0.88 -2.967,2.509 -4.291,3.621 -2.598,2.181 -2.573,2.16 -3.895,3.284 -0.49,0.417 -2.155,1.819 -3.699,3.116 -1.544,1.297 -5.149,4.331 -8.01,6.742 -10.442,8.799 -12.789,10.776 -13.119,11.05 -0.185,0.155 -1.216,1.027 -2.291,1.939 -1.074,0.912 -3.035,2.568 -4.358,3.68 -1.322,1.111 -2.641,2.221 -2.93,2.466 -1.22,1.033 -8.788,7.412 -13.158,11.091 -2.594,2.184 -6.421,5.407 -8.505,7.163 -2.085,1.755 -3.941,3.318 -4.127,3.472 -0.185,0.154 -1.216,1.026 -2.29,1.939 -1.075,0.912 -3.036,2.568 -4.36,3.679 -1.323,1.112 -2.68,2.258 -3.015,2.548 -0.334,0.29 -2.132,1.806 -3.994,3.369 -1.861,1.562 -5.727,4.814 -8.589,7.226 -2.862,2.412 -7.137,6.01 -9.499,7.996 -2.362,1.985 -4.379,3.688 -4.481,3.783 -0.102,0.095 -1.044,0.893 -2.093,1.773 -2.38,1.997 -5.5,4.631 -6.058,5.113 -0.231,0.201 -1.065,0.903 -1.852,1.561 -0.788,0.658 -2.5,2.097 -3.806,3.198 -10.828,9.129 -13.829,11.662 -14.282,12.055 l -0.523,0.453 8.864,8.874 8.864,8.874 9.922,0.176 9.921,0.176 5.795,-4.872 c 6.051,-5.087 10.917,-9.174 14.908,-12.522 3.447,-2.891 73.917,-62.08 77.389,-65 1.621,-1.364 5.487,-4.611 8.59,-7.216 3.103,-2.606 10.985,-9.226 17.516,-14.712 6.53,-5.486 13.617,-11.436 15.747,-13.222 2.131,-1.785 7.625,-6.397 12.211,-10.248 4.585,-3.851 8.389,-7.002 8.454,-7.003 0.065,0 1.619,1.266 3.453,2.814 4.07,3.435 10.961,9.238 18.156,15.288 2.964,2.493 6.071,5.109 6.905,5.813 0.834,0.704 6.101,5.137 11.705,9.851 5.604,4.714 11.592,9.755 13.306,11.202 1.713,1.446 4.821,4.062 6.905,5.813 2.084,1.75 4.471,3.759 5.305,4.463 1.443,1.219 15.222,12.821 25.516,21.486 2.64,2.222 6.998,5.891 9.684,8.154 2.686,2.262 6.703,5.645 8.926,7.517 2.224,1.872 6.581,5.541 9.685,8.155 3.103,2.613 7.688,6.473 10.189,8.577 2.501,2.104 8.754,7.368 13.895,11.697 5.141,4.329 11.09,9.332 13.221,11.117 l 3.874,3.247 3.2,0.111 c 1.76,0.061 4.829,0.181 6.821,0.266 1.991,0.085 5.212,0.2 7.157,0.256 l 3.537,0.101 1.263,-1.206 c 1.403,-1.34 1.87,-1.776 5.389,-5.045 1.343,-1.247 2.639,-2.457 2.881,-2.688 0.242,-0.232 1.379,-1.293 2.527,-2.357 1.148,-1.065 2.536,-2.362 3.084,-2.883 1.17,-1.111 1.337,-0.756 -1.502,-3.187 -1.019,-0.872 -1.89,-1.627 -1.936,-1.677 -0.047,-0.05 -0.956,-0.846 -2.021,-1.77 -1.066,-0.924 -1.975,-1.72 -2.022,-1.769 -0.046,-0.048 -0.955,-0.845 -2.021,-1.77 -1.065,-0.925 -2.202,-1.919 -2.526,-2.208 -0.324,-0.29 -4.303,-3.768 -8.842,-7.73 -8.668,-7.566 -8.802,-7.682 -13.221,-11.55 -1.528,-1.338 -4.219,-3.681 -5.979,-5.207 -1.76,-1.526 -3.276,-2.857 -3.368,-2.957 -0.093,-0.101 -1.003,-0.895 -2.021,-1.766 -1.019,-0.87 -1.891,-1.626 -1.937,-1.679 -0.047,-0.053 -1.638,-1.448 -3.537,-3.099 -1.899,-1.651 -3.718,-3.239 -4.042,-3.528 -0.324,-0.29 -1.461,-1.284 -2.527,-2.209 -1.065,-0.925 -1.974,-1.723 -2.021,-1.773 -0.046,-0.051 -1.524,-1.339 -3.284,-2.863 -1.76,-1.524 -3.465,-3.01 -3.789,-3.302 -0.325,-0.291 -1.916,-1.687 -3.537,-3.101 -1.621,-1.413 -3.44,-3.002 -4.042,-3.529 -2.316,-2.028 -10.819,-9.445 -13.39,-11.679 -1.482,-1.288 -2.998,-2.619 -3.368,-2.958 -0.371,-0.34 -1.508,-1.334 -2.526,-2.211 -1.019,-0.876 -2.118,-1.83 -2.443,-2.12 -0.324,-0.29 -1.915,-1.684 -3.536,-3.098 -1.621,-1.413 -3.44,-3.004 -4.043,-3.533 -0.602,-0.53 -2.61,-2.285 -4.463,-3.9 -1.852,-1.615 -6.4,-5.582 -10.105,-8.816 -3.705,-3.233 -7.005,-6.11 -7.333,-6.393 -0.328,-0.284 -1.161,-1.017 -1.852,-1.629 -0.692,-0.613 -2.545,-2.234 -4.12,-3.603 -1.575,-1.369 -3.129,-2.724 -3.453,-3.012 -0.324,-0.288 -1.461,-1.281 -2.526,-2.206 -1.065,-0.925 -1.975,-1.722 -2.021,-1.771 -0.047,-0.048 -0.956,-0.845 -2.021,-1.77 -1.066,-0.925 -2.202,-1.919 -2.527,-2.209 -0.324,-0.29 -3.393,-2.971 -6.821,-5.959 -3.427,-2.987 -6.496,-5.668 -6.821,-5.957 -0.324,-0.289 -1.461,-1.283 -2.526,-2.209 -1.065,-0.926 -2.019,-1.76 -2.118,-1.853 -0.1,-0.093 -1.843,-1.609 -3.873,-3.369 -2.03,-1.76 -4.07,-3.545 -4.534,-3.967 -0.464,-0.422 -1.677,-1.482 -2.696,-2.354 -1.019,-0.872 -1.891,-1.63 -1.937,-1.683 -0.046,-0.053 -1.638,-1.448 -3.537,-3.099 -1.899,-1.651 -3.718,-3.239 -4.042,-3.529 -0.324,-0.289 -1.461,-1.284 -2.526,-2.21 -1.065,-0.926 -2.202,-1.921 -2.526,-2.211 -2.354,-2.102 -7.811,-6.799 -7.896,-6.795 -0.058,0.003 -0.334,0.212 -0.615,0.464"
      stroke="none"
      fill="#e12e0e"
      fill-rule="evenodd"
      id="path6"/>
    <path
      d="m 199.116,165.849 c 0.347,0.036 0.916,0.036 1.263,0 0.347,-0.036 0.063,-0.066 -0.632,-0.066 -0.694,0 -0.979,0.03 -0.631,0.066"
      stroke="none"
      fill="#7f5b37"
      fill-rule="evenodd"
      id="path14"/>
    <path
      d=""
      stroke="none"
      fill="#d44c2c"
      fill-rule="evenodd"
      id="path16"/>
    <path
      d="m 184.211,80.126 c 8.823,0.024 23.261,0.024 32.084,0 8.823,-0.024 1.604,-0.044 -16.042,-0.044 -17.647,0 -24.866,0.02 -16.042,0.044 m -38.822,65.011 c 30.083,0.023 79.308,0.023 109.39,0 30.082,-0.024 5.469,-0.043 -54.695,-0.043 -60.164,0 -84.777,0.019 -54.695,0.043 m 204.968,46.485 -0.041,12.169 -40.658,-0.043 c -22.361,-0.023 -40.622,0.014 -40.579,0.084 0.146,0.237 81.237,0.153 81.328,-0.085 0.044,-0.115 0.06,-5.629 0.035,-12.252 l -0.044,-12.042 -0.041,12.169 M 70.274,203.916 c 11,0.024 29,0.024 40,0 11,-0.024 2,-0.044 -20,-0.044 -22,0 -31,0.02 -20,0.044 m 280.122,16.968 c 0,7.689 0.021,10.859 0.046,7.044 0.025,-3.814 0.025,-10.104 0,-13.979 -0.025,-3.874 -0.046,-0.753 -0.046,6.935 m 0,30.99 c 0,7.688 0.021,10.858 0.046,7.044 0.025,-3.814 0.025,-10.105 0,-13.979 -0.025,-3.874 -0.046,-0.754 -0.046,6.935 m 0,30.905 c 0,7.642 0.021,10.768 0.046,6.947 0.025,-3.821 0.025,-10.073 0,-13.894 -0.025,-3.821 -0.046,-0.695 -0.046,6.947 m 0,30.905 c 0,7.689 0.021,10.859 0.046,7.044 0.025,-3.814 0.025,-10.104 0,-13.979 -0.025,-3.874 -0.046,-0.753 -0.046,6.935 m 0,30.99 c 0,7.688 0.021,10.858 0.046,7.044 0.025,-3.814 0.025,-10.105 0,-13.979 -0.025,-3.874 -0.046,-0.754 -0.046,6.935 m 0,30.989 c 0,7.689 0.021,10.858 0.046,7.044 0.025,-3.814 0.025,-10.104 0,-13.979 -0.025,-3.874 -0.046,-0.753 -0.046,6.935"
      stroke="none"
      fill="#c4a474"
      fill-rule="evenodd"
      id="path18"/>
  </g>
  <g>
    <path
      d="m 193.432,166.082 c -35.675,3.331 -63.013,31.578 -65.426,67.602 -0.108,1.619 -0.17,24.898 -0.172,64.8 l -0.002,62.274 h 71.831 71.832 l -0.002,-63.116 c -0.002,-64.797 0,-64.661 -0.686,-69.684 -5.152,-37.779 -39.687,-65.395 -77.375,-61.876"
      stroke="none"
      fill="#432611"
      fill-rule="evenodd"
      id="path2"/>
  </g>
  <g>
    <g
      id="g232"
      transform="matrix(0.45487336,0,0,0.45487336,62.048012,138.50561)">
      <g
        id="l2sRUFJ4gIc71QNLh5DQjaD"
        fill="#020403"
        transform="matrix(0.1,0,0,0.1,115.82295,192.83927)">
        <g
          id="g5">
          <path
            id="pSuTu6CHw"
            d="M 484,1812 C 372,1770 340,1728 337,1618 l -2,-73 48,-3 c 45,-3 48,-2 58,27 12,34 20,37 48,19 16,-9 17,-16 9,-37 -5,-14 -12,-67 -15,-118 l -6,-91 -36,-7 c -50,-9 -115,-39 -140,-64 -16,-16 -21,-33 -21,-77 0,-49 4,-59 29,-83 83,-77 345,-93 493,-29 61,26 78,50 78,109 0,87 -69,136 -207,146 -62,5 -72,9 -77,27 -10,38 -6,75 15,131 28,76 60,90 154,67 70,-17 85,-32 85,-88 0,-22 4,-24 50,-24 48,0 49,1 55,33 8,43 -9,136 -34,184 -25,49 -84,105 -141,134 -63,32 -222,38 -296,11 z"/>
          <path
            id="psFdKiIVe"
            d="m 1601,974 c -41,-52 -54,-117 -49,-248 5,-123 15,-162 52,-204 29,-32 123,-32 154,1 38,41 52,101 52,226 0,131 -10,177 -46,221 -23,27 -31,30 -84,30 -51,0 -61,-3 -79,-26 z"/>
          <path
            id="p1EoYv2mYN"
            d="m 717,890 c -41,-49 -52,-95 -52,-225 0,-182 37,-255 129,-255 55,0 78,18 107,82 20,46 24,69 24,173 0,130 -11,176 -52,225 -22,26 -31,30 -78,30 -47,0 -56,-4 -78,-30 z"/>
        </g>
      </g>
      <g
        id="l5yyYDQMKf4WEhfSvAoAU1m"
        fill="#a92f1b"
        transform="matrix(0.1,0,0,0.1,115.82295,192.83927)">
        <g
          id="g11">
          <path
            id="pu2HIhERp"
            d="m 1336,2789 c -46,-40 -83,-121 -96,-206 -5,-37 -10,-166 -10,-285 v -218 h 27 c 17,0 43,16 77,48 28,26 67,60 86,76 62,50 255,176 271,176 5,0 9,5 9,10 0,6 7,10 15,10 9,0 15,9 15,25 0,15 -6,25 -14,25 -9,0 -22,26 -35,68 -26,83 -65,152 -125,218 -80,90 -157,109 -220,53 z"/>
          <path
            id="pLnnhXWvD"
            d="m 1182,2002 c -23,-33 -42,-65 -42,-71 0,-10 -14,-15 -32,-12 -5,0 -8,-7 -8,-18 0,-21 67,-51 117,-51 38,0 253,-42 383,-75 176,-44 309,-120 426,-242 102,-107 101,-104 70,-204 -14,-46 -28,-102 -32,-124 -11,-69 -41,-151 -90,-247 -26,-51 -50,-95 -53,-98 -16,-14 -85,-168 -102,-227 -24,-87 -26,-267 -3,-356 17,-68 83,-167 110,-167 6,0 17,-7 25,-16 9,-11 20,-13 38,-8 14,5 80,9 146,9 147,1 193,17 310,105 205,155 276,267 347,544 15,61 21,126 25,262 6,197 -1,236 -53,333 -13,24 -24,47 -24,52 0,5 16,32 35,59 19,27 35,53 35,57 0,16 -56,69 -110,105 -66,45 -155,68 -260,68 -74,0 -155,-16 -197,-38 -18,-10 -24,-7 -49,26 -40,51 -140,148 -191,183 -104,72 -310,148 -400,149 -18,0 -33,4 -33,8 0,11 -163,40 -265,48 l -80,6 z"/>
          <path
            id="pMjkUjepb"
            d="m 180,1060 c 0,-5 3,-10 8,-10 4,0 8,-33 9,-73 4,-131 38,-325 78,-443 54,-160 101,-240 201,-340 71,-71 91,-85 161,-112 95,-37 179,-52 289,-52 112,0 194,17 194,41 0,18 -7,21 -78,33 -29,5 -150,59 -177,78 -79,59 -115,92 -140,129 -16,24 -32,46 -35,49 -24,22 -75,170 -100,286 -16,77 -39,177 -52,223 l -24,83 -89,33 c -50,17 -113,44 -142,58 -53,27 -103,35 -103,17 z"/>
        </g>
      </g>
      <g
        id="l1Nblm8LSH1z1o6tPgnAfXl"
        fill="#e05f40"
        transform="matrix(0.1,0,0,0.1,115.82295,192.83927)">
        <g
          id="g17">
          <path
            id="pFqoEqcOn"
            d="m 1973,2934 c -82,-35 -131,-161 -134,-345 -1,-37 -4,-71 -8,-75 -15,-21 -89,-64 -109,-64 -12,0 -22,-4 -22,-10 0,-5 -7,-10 -15,-10 -8,0 -15,-4 -15,-10 0,-5 -4,-10 -9,-10 -16,0 -209,-126 -271,-176 -19,-16 -58,-50 -86,-76 -28,-27 -56,-48 -62,-48 -7,0 -12,-9 -12,-20 0,-12 -7,-31 -15,-44 l -15,-23 52,-1 c 29,0 64,0 78,-1 57,-1 210,-35 210,-47 0,-7 16,-11 43,-11 104,0 272,-61 392,-143 53,-37 165,-148 206,-204 28,-40 34,-44 48,-32 26,22 78,46 109,49 15,2 32,6 37,9 16,9 125,6 131,-4 3,-4 9,-6 14,-3 18,11 95,-17 150,-53 61,-41 67,-46 96,-83 l 20,-26 24,21 c 14,12 38,39 55,61 16,22 36,47 45,56 8,9 37,47 65,85 27,38 53,70 57,72 4,2 8,8 8,13 0,5 16,33 35,61 75,108 145,280 145,353 0,37 39,32 145,-20 89,-43 90,-44 96,-22 16,58 -25,154 -93,218 -42,40 -72,55 -144,74 -6,2 -21,36 -34,77 -41,126 -96,216 -149,241 -20,9 -69,21 -109,27 -113,16 -148,26 -198,56 -25,16 -62,39 -82,51 -40,25 -127,53 -162,53 -61,0 -123,-71 -140,-162 -6,-28 -11,-52 -13,-53 -1,0 -14,-7 -29,-14 -37,-19 -54,-9 -80,47 -57,122 -177,200 -255,166 z"/>
          <path
            id="pIB9Kmcbl"
            d="m 1180,1866 c 0,-11 17,-39 38,-61 61,-65 104,-194 105,-315 1,-113 -51,-273 -109,-337 -48,-52 -64,-163 -43,-292 10,-63 111,-353 132,-379 5,-7 21,-34 34,-60 46,-90 68,-127 99,-169 45,-61 92,-113 102,-113 4,0 22,-10 39,-22 16,-13 42,-32 58,-43 15,-11 34,-26 42,-34 12,-11 27,-12 90,-1 42,7 99,18 127,25 28,7 69,16 90,20 l 39,7 -29,23 c -16,14 -34,24 -39,25 -11,0 -23,13 -67,71 -58,77 -76,262 -39,392 17,59 86,213 102,227 3,3 27,47 53,98 49,96 79,178 90,247 9,52 44,171 63,213 15,31 14,34 -11,70 -80,116 -229,238 -362,297 -91,41 -413,115 -556,128 -44,4 -48,3 -48,-17 z m 554,-926 c 34,-41 46,-89 46,-191 0,-132 -40,-219 -100,-219 -56,0 -91,69 -98,196 -10,187 74,306 152,214 z"/>
          <path
            id="p13HsS78Gd"
            d="m 849,966 c -3,-3 -41,-13 -84,-22 -69,-14 -92,-15 -187,-3 -108,13 -135,9 -106,-14 18,-14 60,-162 93,-330 20,-98 72,-246 95,-267 3,-3 19,-25 35,-49 25,-37 61,-70 140,-129 6,-4 41,-22 78,-40 69,-34 102,-42 259,-67 47,-7 96,-16 107,-20 17,-5 21,-2 21,18 0,23 -57,107 -72,107 -4,0 -8,7 -8,15 0,8 -4,15 -9,15 -5,0 -14,14 -21,30 -7,17 -16,30 -21,30 -5,0 -9,9 -9,19 0,11 -5,23 -10,26 -14,9 -43,76 -73,170 -31,98 -32,102 -62,278 -15,87 -33,159 -48,187 -22,42 -26,45 -68,48 -25,2 -47,1 -50,-2 z m -6,-106 c 39,-45 52,-96 52,-195 0,-76 -5,-99 -27,-147 -46,-99 -106,-99 -150,0 -26,57 -31,214 -10,275 19,52 59,97 87,97 13,0 34,-12 48,-30 z"/>
        </g>
      </g>
      <g
        id="l2cPmBeDlUIMxyzkobgW4BF"
        fill="#f9c68b"
        transform="matrix(0.1,0,0,0.1,115.82295,192.83927)">
        <g
          id="g21">
          <path
            id="pQzz1TpdX"
            d="m 545,1963 c -68,-17 -199,-66 -255,-94 -93,-49 -190,-149 -236,-245 -74,-157 -66,-295 28,-452 47,-77 84,-111 169,-157 182,-96 387,-134 544,-100 44,9 89,18 99,18 34,3 64,-74 91,-230 30,-176 31,-180 62,-278 30,-94 59,-161 73,-170 5,-3 10,-15 10,-26 0,-10 4,-19 9,-19 5,0 14,-14 21,-30 7,-17 16,-30 21,-30 5,0 9,-7 9,-15 0,-8 4,-15 8,-15 4,0 25,-22 46,-50 28,-37 44,-49 64,-50 15,0 92,-3 172,-6 103,-4 162,-1 202,8 l 58,13 -25,25 c -28,29 -32,32 -102,84 -29,21 -53,35 -53,32 0,-8 -57,57 -95,109 -29,38 -49,72 -98,167 -13,26 -29,53 -34,60 -25,31 -124,324 -135,397 -9,68 -8,86 7,135 10,31 27,66 39,79 121,132 147,437 55,642 -29,65 -119,140 -179,150 -3,0 -30,8 -60,17 -30,10 -79,22 -108,28 -52,10 -369,12 -407,3 z m 210,-196 c 108,-55 173,-160 166,-269 -1,-11 -9,-18 -21,-18 -15,0 -20,7 -20,24 0,57 -14,71 -88,89 -86,21 -110,21 -155,2 -29,-12 -39,-24 -56,-70 -20,-54 -27,-145 -15,-191 5,-19 15,-22 81,-27 126,-9 219,-72 197,-134 -19,-58 -200,-114 -318,-99 -169,22 -261,101 -195,167 27,27 93,56 145,64 l 39,7 1,91 c 0,63 6,104 17,131 20,45 16,68 -16,84 -51,26 -93,19 -106,-19 -7,-21 -16,-29 -28,-27 -15,3 -17,12 -15,48 2,25 12,59 23,76 59,97 245,133 364,71 z"/>
        </g>
      </g>
    </g>
  </g>
  <g>
    <path
      d="m 192.337,159.762 c -34.635,3.419 -62.693,29.857 -68.2,64.261 -0.997,6.227 -0.922,0.496 -0.977,75.051 l -0.051,68.084 h 76.554 76.553 l -0.048,-68.505 c -0.052,-75.708 0.044,-68.928 -1.063,-75.484 -6.646,-39.362 -43.14,-67.319 -82.768,-63.407 m 10.625,6.131 c 33.605,1.632 61.432,26.062 67.433,59.202 1.084,5.982 0.996,0.047 1.053,71.116 l 0.051,64.547 h -71.836 -71.837 l 0.054,-64.211 c 0.059,-69.398 0,-64.62 0.879,-70.083 4.84,-30.08 28.107,-53.976 57.898,-59.466 4.13,-0.761 5.941,-0.941 12.501,-1.242 0.278,-0.013 1.99,0.048 3.804,0.137 M 50.189,397.305 c 0,2.594 0.033,4.716 0.072,4.716 0.1,0 15.302,-9.109 15.499,-9.287 0.089,-0.081 -3.318,-0.145 -7.705,-0.145 h -7.866 v 4.716 m 284.677,-4.615 c 0.055,0.056 3.554,2.169 7.775,4.697 l 7.675,4.596 v -4.697 -4.697 h -7.776 c -4.276,0 -7.73,0.046 -7.674,0.101"
      stroke="none"
      fill="#9c744b"
      fill-rule="evenodd"
      id="path12"/>
  </g>
  <g>
    <path
      d="m 198.668,54.531 -1.164,0.964 1.374,0.049 c 0.756,0.027 1.993,0.027 2.749,0 l 1.375,-0.049 -1.136,-0.969 c -1.457,-1.243 -1.692,-1.242 -3.198,0.005 m -27.548,23.153 -1.241,1.053 15.187,0.043 c 8.353,0.023 22.023,0.023 30.379,0 l 15.193,-0.043 -1.256,-1.05 -1.256,-1.049 -27.882,-0.003 -27.882,-0.003 -1.242,1.052 m -9.335,7.832 -1.153,0.968 19.811,0.043 c 10.895,0.024 28.72,0.024 39.609,0 l 19.8,-0.043 -1.177,-0.968 -1.177,-0.969 h -37.281 -37.28 l -1.152,0.969 m -27.433,23.044 c -0.622,0.517 -1.131,0.971 -1.131,1.011 0,0.039 30.169,0.071 67.041,0.071 h 67.041 l -1.171,-1.01 -1.171,-1.011 h -64.739 -64.738 l -1.132,0.939 m -9.416,7.903 -1.216,1.011 38.28,0.042 c 21.054,0.024 55.453,0.024 76.443,0 l 38.163,-0.042 -1.069,-0.927 -1.069,-0.926 -74.159,-0.084 -74.158,-0.084 -1.215,1.01 m -27.517,23.116 -1.135,0.968 51.998,0.043 c 28.599,0.023 75.351,0.023 103.894,0 l 51.895,-0.043 -1.167,-0.968 -1.167,-0.968 H 200.145 98.553 l -1.134,0.968 m -9.327,7.835 -1.256,1.049 56.722,0.043 c 31.197,0.023 82.192,0.023 113.321,0 l 56.6,-0.043 -1.273,-1.052 -1.273,-1.053 -110.793,0.003 -110.793,0.003 -1.255,1.05 m -27.469,23.07 -1.251,1.053 49.406,0.042 49.406,0.043 1.455,-0.871 c 0.801,-0.48 1.605,-0.972 1.788,-1.095 0.277,-0.187 -8.009,-0.224 -49.611,-0.224 H 61.873 l -1.25,1.052 m 177.28,-0.916 c 0.088,0.075 0.852,0.568 1.698,1.095 l 1.539,0.959 49.857,-0.043 49.856,-0.042 -1.235,-1.053 -1.235,-1.052 h -50.32 c -27.676,0 -50.248,0.061 -50.16,0.136 M 51.41,178.209 c -0.579,0.474 -1.052,0.928 -1.052,1.01 0,0.086 20.673,0.146 48.968,0.141 l 48.969,-0.007 1.091,-1.003 1.091,-1.003 H 101.469 52.462 l -1.052,0.862 m 198.639,0.149 1.138,1.01 h 49.396 c 27.168,0 49.396,-0.033 49.396,-0.073 0,-0.041 -0.497,-0.495 -1.104,-1.011 l -1.105,-0.937 h -49.43 -49.43 l 1.139,1.011 M 50.358,201.516 v 1.095 h 40.25 40.25 l 0.508,-1.006 c 0.279,-0.553 0.508,-1.046 0.508,-1.095 0,-0.049 -18.341,-0.089 -40.758,-0.089 H 50.358 v 1.095 m 217.638,0 0.539,1.095 h 40.891 40.89 v -1.095 -1.095 h -41.43 -41.43 l 0.54,1.095 m -217.638,7.831 v 1.011 h 38.619 38.619 l 0.364,-1.011 0.363,-1.01 H 89.341 50.358 v 1.01 m 220.861,-0.621 c 0.054,0.213 0.214,0.668 0.357,1.01 l 0.26,0.622 h 39.24 39.24 v -1.011 -1.01 h -39.597 -39.598 l 0.098,0.389 M 50.358,232.421 v 1.011 h 36.357 36.357 l 0.104,-0.632 c 0.058,-0.347 0.105,-0.802 0.106,-1.011 l 0.002,-0.378 H 86.821 50.358 v 1.01 m 225.853,0 v 1.011 h 37.052 37.053 v -1.011 -1.01 h -37.053 -37.052 v 1.01 m -225.853,7.832 v 1.094 h 36.379 36.379 v -1.094 -1.095 H 86.737 50.358 v 1.095 m 225.965,-0.983 c -0.062,0.062 -0.112,0.555 -0.112,1.095 v 0.982 h 37.052 37.053 v -1.094 -1.095 h -36.941 c -20.317,0 -36.99,0.05 -37.052,0.112 M 50.358,263.411 v 1.01 h 36.379 36.379 v -1.01 -1.011 H 86.737 50.358 v 1.011 m 225.853,0 v 1.01 h 37.052 37.053 v -1.01 -1.011 h -37.053 -37.052 v 1.011 m -225.853,7.831 v 1.095 h 36.379 36.379 v -1.095 -1.095 H 86.737 50.358 v 1.095 m 225.887,-0.042 0.05,1.053 37.01,0.042 37.011,0.043 v -1.096 -1.095 h -37.061 -37.061 l 0.051,1.053 M 50.358,294.316 v 1.095 h 36.379 36.379 v -1.095 -1.095 H 86.737 50.358 v 1.095 m 225.853,0 v 1.095 h 37.052 37.053 v -1.095 -1.095 h -37.053 -37.052 v 1.095 m -225.853,7.831 v 1.011 h 36.379 36.379 v -1.011 -1.01 H 86.737 50.358 v 1.01 m 225.853,0 v 1.011 h 37.052 37.053 v -1.011 -1.01 h -37.053 -37.052 v 1.01 M 50.358,325.221 v 1.011 h 36.379 36.379 v -1.011 -1.01 H 86.737 50.358 v 1.01 m 225.853,0 v 1.011 h 37.052 37.053 v -1.011 -1.01 h -37.053 -37.052 v 1.01 m -225.853,7.916 v 1.01 h 36.379 36.379 v -1.01 -1.011 H 86.737 50.358 v 1.011 m 225.853,0 v 1.01 h 37.052 37.053 v -1.01 -1.011 h -37.053 -37.052 v 1.011 M 50.358,356.211 v 1.01 h 36.379 36.379 v -1.01 -1.011 H 86.737 50.358 v 1.011 m 225.853,0 v 1.01 h 37.052 37.053 v -1.01 -1.011 h -37.053 -37.052 v 1.011 m -225.853,7.831 v 1.095 h 36.379 36.379 v -1.095 -1.095 H 86.737 50.358 v 1.095 m 225.965,-0.982 c -0.062,0.061 -0.112,0.554 -0.112,1.094 v 0.983 h 37.052 37.053 v -1.095 -1.095 h -36.941 c -20.317,0 -36.99,0.051 -37.052,0.113 M 50.358,387.2 v 1.011 H 200.337 350.316 V 387.2 386.189 H 200.337 50.358 v 1.011"
      stroke="none"
      fill="#fbe3ab"
      fill-rule="evenodd"
      id="path8"/>
    <path
      d="m 200,53.389 c -0.057,0.093 0.056,0.169 0.253,0.169 0.196,0 0.31,-0.076 0.252,-0.169 -0.057,-0.092 -0.171,-0.168 -0.252,-0.168 -0.082,0 -0.196,0.076 -0.253,0.168 m 0.168,2.19 -2.863,0.084 -1.263,1.073 c -0.695,0.59 -2.551,2.153 -4.126,3.473 -1.575,1.321 -3.934,3.301 -5.243,4.401 -1.308,1.1 -5.047,4.236 -8.309,6.969 l -5.931,4.968 13.91,0.043 c 7.65,0.024 20.167,0.024 27.814,0 l 13.904,-0.043 -3.251,-2.72 c -1.789,-1.496 -4.351,-3.646 -5.694,-4.779 -4.995,-4.212 -11.066,-9.316 -13.909,-11.692 -0.548,-0.458 -1.262,-1.064 -1.586,-1.347 l -0.589,-0.514 -2.864,0.084 M 169.089,79.368 168.378,80 h 31.891 31.892 l -0.664,-0.547 -0.664,-0.548 -30.516,-0.084 -30.516,-0.084 -0.712,0.631 m -5.384,4.512 -0.758,0.666 37.285,10e-4 h 37.285 l -0.737,-0.666 -0.738,-0.667 h -35.789 -35.79 l -0.758,0.666 m -4.042,3.387 c -0.417,0.377 -2.531,2.174 -4.699,3.993 -2.167,1.82 -5.692,4.778 -7.831,6.574 -2.14,1.796 -5.626,4.714 -7.747,6.484 l -3.856,3.219 32.361,0.042 c 17.799,0.024 46.898,0.024 64.665,0 l 32.304,-0.042 -2.03,-1.702 c -6.167,-5.172 -10.79,-9.06 -15.909,-13.381 -2.354,-1.987 -4.891,-4.123 -5.638,-4.749 l -1.359,-1.137 -39.751,0.007 -39.752,0.007 -0.758,0.685 m -27.388,23.007 -0.813,0.715 68.711,-0.007 68.711,-0.007 -0.758,-0.666 -0.758,-0.665 -67.139,-0.043 -67.14,-0.043 -0.814,0.716 m -5.328,4.469 c -0.347,0.298 -0.631,0.598 -0.631,0.668 0,0.069 33.29,0.123 73.979,0.119 l 73.979,-0.007 -0.738,-0.667 -0.737,-0.667 -72.61,0.007 -72.61,0.006 -0.632,0.541 m 73.159,2.773 -76.526,0.042 -1.621,1.398 c -0.892,0.77 -2.532,2.155 -3.643,3.079 -1.112,0.924 -3.191,2.663 -4.62,3.864 -6.549,5.505 -9.567,8.036 -12.217,10.245 l -2.858,2.382 50.83,0.043 c 27.956,0.023 73.642,0.023 101.524,0 l 50.694,-0.043 -4.434,-3.705 c -2.439,-2.038 -5.457,-4.58 -6.708,-5.648 -1.251,-1.069 -3.866,-3.277 -5.811,-4.908 -1.945,-1.63 -4.56,-3.825 -5.811,-4.878 l -2.273,-1.913 -76.526,0.042 m -104.723,23.744 -0.815,0.712 105.589,0.003 105.588,0.004 -0.738,-0.632 -0.738,-0.631 -104.036,-0.084 -104.036,-0.085 -0.814,0.713 m -5.362,4.512 -0.674,0.581 110.807,0.002 110.807,0.003 -0.659,-0.583 -0.66,-0.582 -109.474,-0.001 H 90.695 l -0.674,0.58 m -4.565,3.851 c -0.732,0.638 -1.717,1.472 -2.19,1.853 -0.472,0.381 -1.799,1.485 -2.947,2.453 -2.895,2.441 -8.442,7.097 -15.46,12.976 l -2.915,2.442 49.953,0.043 49.954,0.042 1.559,-0.868 c 22.103,-12.307 51.03,-12.156 73.306,0.383 l 1.01,0.569 50.274,-0.084 50.274,-0.085 -2.011,-1.684 c -1.105,-0.926 -2.73,-2.29 -3.61,-3.031 -0.88,-0.741 -2.142,-1.803 -2.804,-2.358 -3.669,-3.079 -7.022,-5.906 -12.375,-10.436 l -3.79,-3.206 -113.449,-0.085 -113.45,-0.084 -1.329,1.16 m -26.845,22.509 -0.927,0.833 49.263,0.001 49.264,0.001 1.01,-0.672 1.011,-0.673 h -49.4 c -32.89,-0.001 -49.364,-0.057 -49.295,-0.169 0.179,-0.29 0.028,-0.179 -0.926,0.679 m 182.736,-0.451 c 0,0.034 0.416,0.337 0.924,0.674 l 0.924,0.613 49.645,-0.006 49.644,-0.007 -0.737,-0.667 -0.738,-0.667 h -49.831 c -27.407,0 -49.831,0.027 -49.831,0.06 m -188.126,4.993 -0.758,0.663 48.992,0.005 48.993,0.005 0.818,-0.624 c 0.45,-0.343 0.818,-0.646 0.818,-0.673 0,-0.028 -22.073,-0.048 -49.052,-0.045 l -49.053,0.005 -0.758,0.664 m 194.863,0 0.758,0.663 49.432,-0.002 49.431,-0.002 -0.758,-0.666 -0.758,-0.666 -49.431,0.004 -49.432,0.005 0.758,0.664 m -197.892,14.863 0.002,12.252 h 40.051 40.051 l 0.281,-0.589 0.281,-0.589 h -40.25 -40.25 v -1.095 -1.095 l 40.8,-0.004 40.8,-0.004 1.095,-1.975 c 3.174,-5.726 7.321,-11.199 12.377,-16.335 l 2.696,-2.739 -48.968,-0.04 -48.969,-0.04 0.003,12.253 m 250.449,-12.21 -49.421,0.042 2.348,2.319 c 5.314,5.249 9.358,10.641 13.45,17.933 l 0.449,0.8 h 41.424 41.425 v -10.516 c 0,-5.784 -0.057,-10.54 -0.127,-10.569 -0.069,-0.028 -22.366,-0.033 -49.548,-0.009 m -32.009,23.376 c 0,0.051 0.115,0.316 0.257,0.59 l 0.256,0.496 h 40.586 40.585 v -0.589 -0.589 h -40.842 c -22.463,0 -40.842,0.041 -40.842,0.092 m -218.441,18.181 0.003,13.895 h 36.461 36.461 v -0.674 -0.673 H 86.737 50.358 v -1.011 -1.01 h 36.463 36.463 v -0.342 c 0,-3.84 1.737,-12.866 3.55,-18.452 0.363,-1.12 0.661,-2.086 0.661,-2.148 0,-0.061 -17.356,-0.111 -38.569,-0.111 H 50.358 v -1.011 -1.01 h 38.987 38.987 l 0.255,-0.61 c 0.14,-0.336 0.255,-0.639 0.255,-0.674 0,-0.035 -17.697,-0.064 -39.327,-0.064 H 50.189 l 0.002,13.895 m 220.585,-13.221 0.265,0.674 h 39.637 39.638 v -0.674 -0.674 h -39.902 -39.903 l 0.265,0.674 m 1.056,2.748 c 0,0.028 0.228,0.728 0.507,1.553 1.949,5.766 3.703,14.636 3.703,18.724 v 0.807 l 37.137,-0.043 37.137,-0.043 v -10.526 -10.525 h -39.242 c -21.583,0 -39.242,0.024 -39.242,0.053 m 4.379,23.694 v 0.674 h 37.052 37.053 v -0.674 -0.673 h -37.053 -37.052 v 0.673 m -226.02,17.769 0.003,13.894 h 36.461 36.461 v -0.673 -0.674 H 86.737 50.358 v -1.01 -1.011 h 36.379 36.379 V 251.874 241.347 H 86.737 50.358 v -1.094 -1.095 h 36.379 36.379 v -0.59 -0.589 H 86.652 50.189 l 0.002,13.895 m 226.02,-13.263 v 0.631 l 37.052,-0.043 37.053,-0.043 v -0.588 -0.589 h -37.053 -37.052 v 0.632 m 0.063,13.263 0.009,10.526 h 37.016 37.017 V 251.874 241.347 H 313.29 276.265 l 0.009,10.527 m -0.063,13.221 v 0.673 h 37.052 37.053 v -0.673 -0.674 h -37.053 -37.052 v 0.674 m -225.944,3.916 c -0.045,0.115 -0.061,6.387 -0.037,13.936 l 0.044,13.727 36.421,0.042 22.96326,0.0271 13.45774,0.0159 v -0.674 -0.674 H 86.737 50.358 v -1.095 -1.095 h 36.379 36.379 V 282.779 272.337 H 86.737 50.358 v -1.095 -1.095 h 36.379 36.379 V 269.474 268.8 H 86.732 c -28.953,0 -36.401,0.043 -36.465,0.211 m 225.944,0.463 v 0.673 h 37.052 37.053 v -0.673 -0.674 h -37.053 -37.052 v 0.674 m 0.067,13.263 0.01,10.484 h 37.014 37.014 V 282.78 272.338 l -37.024,-0.043 -37.025,-0.042 0.011,10.484 m -0.067,13.347 v 0.674 h 37.052 37.053 v -0.674 -0.673 h -37.053 -37.052 v 0.673 m -226.02,17.6 0.003,13.895 h 36.461 36.461 v -0.674 -0.673 H 86.737 50.358 v -1.011 -1.01 h 36.379 36.379 V 313.684 303.158 H 86.737 50.358 v -1.011 -1.01 h 36.379 36.379 v -0.674 -0.674 H 101.10214 86.652 50.189 l 0.002,13.895 m 226.02,-13.221 v 0.674 h 37.052 37.053 v -0.674 -0.674 h -37.053 -37.052 v 0.674 m 0.069,13.221 0.012,10.527 h 37.012 37.012 v -10.527 -10.526 h -37.024 -37.024 l 0.012,10.526 m -0.069,13.221 v 0.674 h 37.052 37.053 v -0.674 -0.673 h -37.053 -37.052 v 0.673 m -226.02,17.769 0.003,13.894 h 36.461 36.461 v -0.673 -0.674 H 86.737 50.358 v -1.01 -1.011 h 36.379 36.379 V 344.674 334.147 H 86.737 50.358 v -1.01 -1.011 h 36.379 36.379 v -0.673 -0.674 H 86.652 50.189 l 0.002,13.895 m 226.02,-13.221 v 0.673 h 37.052 37.053 v -0.673 -0.674 h -37.053 -37.052 v 0.674 m 0.067,13.221 0.012,10.526 h 37.013 37.013 v -10.526 -10.527 h -37.025 -37.025 l 0.012,10.527 m -0.067,13.221 v 0.673 h 37.052 37.053 v -0.673 -0.674 h -37.053 -37.052 v 0.674 M 50.189,375.663 v 13.895 h 150.064 150.063 v -0.674 -0.673 H 200.337 50.358 v -1.011 -1.011 h 149.979 149.979 v -10.526 -10.526 h -37.053 -37.052 v 1.01 1.011 h -76.548 -76.547 v -1.011 -1.01 H 86.737 50.358 v -1.095 -1.095 h 36.379 36.379 v -0.589 -0.59 H 86.653 50.189 v 13.895 M 276.211,362.4 v 0.632 l 37.052,-0.043 37.053,-0.043 v -0.589 -0.589 h -37.053 -37.052 v 0.632"
      stroke="none"
      fill="#f3ba64"
      fill-rule="evenodd"
      id="path4"/>
    <path
      d="m 166.334,81.684 -1.82,1.516 35.68,-0.007 35.68,-0.007 -0.674,-0.596 c -0.371,-0.328 -1.175,-1.007 -1.787,-1.509 l -1.114,-0.913 h -32.072 -32.072 l -1.821,1.516 m -36.792,30.905 -1.902,1.6 h 72.551 c 39.902,0 72.478,-0.063 72.39,-0.14 -0.088,-0.077 -0.932,-0.797 -1.876,-1.6 l -1.715,-1.46 h -68.773 -68.773 l -1.902,1.6 m -36.752,30.864 -1.758,1.473 54.624,0.043 c 30.043,0.023 79.146,0.023 109.116,0 l 54.492,-0.043 -1.748,-1.471 -1.748,-1.472 -105.61,-0.002 -105.61,-0.002 -1.758,1.474 m 105.911,15.998 c 0.583,0.033 1.492,0.033 2.021,0 0.529,-0.034 0.053,-0.061 -1.059,-0.06 -1.111,0 -1.544,0.027 -0.962,0.06 m 94.131,13.476 -49.652,0.042 2.033,1.516 2.032,1.516 49.414,-0.043 49.413,-0.042 -1.794,-1.516 -1.794,-1.516 -49.652,0.043 M 55.841,174.484 54.043,176 h 49.044 49.044 l 1.872,-1.379 c 1.029,-0.758 1.943,-1.44 2.031,-1.515 0.088,-0.076 -22.015,-0.138 -49.118,-0.138 H 57.639 l -1.798,1.516 M 44.842,183.697 39.747,188 v 107.01 107.011 h 5.221 5.221 v -4.674 -4.673 h 150.064 150.063 v 4.673 4.674 h 5.305 5.305 L 360.92,295.2 l -0.006,-106.821 -5.173,-4.338 -5.173,-4.337 -0.084,12.085 -0.084,12.085 -40.616,0.042 -40.617,0.043 0.653,1.473 0.653,1.473 40.005,0.043 40.006,0.042 v 13.895 13.894 h -37.137 -37.136 v 1.6 1.6 h 37.136 37.137 v 13.895 13.894 h -37.137 -37.136 v 1.516 1.515 l 37.094,0.043 37.095,0.042 v 13.895 13.895 l -37.095,0.042 -37.094,0.043 v 1.515 1.515 h 37.136 37.137 v 13.895 13.895 h -37.137 -37.136 v 1.6 1.6 h 37.136 37.137 v 13.895 13.894 h -37.137 -37.136 v 1.6 1.6 h 37.136 37.137 v 13.895 13.895 H 200.337 50.189 v -13.895 -13.895 h 36.464 36.463 v -1.6 -1.6 H 86.655 50.194 l -0.003,-13.894 -0.002,-13.895 h 36.463 36.464 v -1.6 -1.6 H 86.653 50.189 v -13.895 -13.895 h 36.464 36.463 v -1.515 -1.516 H 86.653 50.189 V 282.779 268.8 h 36.464 36.463 v -1.516 -1.516 H 86.653 50.189 v -13.894 -13.895 h 36.464 36.463 v -1.6 -1.6 H 86.653 50.189 v -13.895 -13.895 l 39.369,-0.005 39.368,-0.006 0.679,-1.552 0.679,-1.552 H 90.279 50.274 L 50.23,191.621 c -0.023,-6.739 -0.099,-12.247 -0.168,-12.24 -0.069,0.007 -2.418,1.95 -5.22,4.316 M 276.264,246.4 c 0,0.602 0.031,0.848 0.068,0.547 0.038,-0.301 0.038,-0.793 0,-1.094 -0.037,-0.301 -0.068,-0.055 -0.068,0.547 m -0.014,2.695 c 0,0.324 0.034,0.457 0.077,0.294 0.042,-0.162 0.042,-0.427 0,-0.589 -0.043,-0.162 -0.077,-0.029 -0.077,0.295 m 0.016,3.116 c 10e-4,0.648 0.031,0.893 0.067,0.543 0.037,-0.349 0.036,-0.88 -0.001,-1.179 -0.037,-0.299 -0.067,-0.013 -0.066,0.636 m -0.016,4.8 c 0,0.324 0.034,0.456 0.077,0.294 0.042,-0.162 0.042,-0.427 0,-0.589 -0.043,-0.162 -0.077,-0.03 -0.077,0.295 m 0.016,20.294 c 10e-4,0.649 0.031,0.893 0.067,0.544 0.037,-0.35 0.036,-0.88 -0.001,-1.179 -0.037,-0.299 -0.067,-0.013 -0.066,0.635 m 0,5.895 c 10e-4,0.648 0.031,0.893 0.067,0.544 0.037,-0.35 0.036,-0.88 -0.001,-1.179 -0.037,-0.299 -0.067,-0.013 -0.066,0.635 m -0.016,4.8 c 0,0.324 0.034,0.457 0.077,0.295 0.042,-0.162 0.042,-0.428 0,-0.59 -0.043,-0.162 -0.077,-0.029 -0.077,0.295 m 0.016,20.295 c 10e-4,0.648 0.031,0.893 0.067,0.543 0.037,-0.349 0.036,-0.88 -0.001,-1.179 -0.037,-0.299 -0.067,-0.013 -0.066,0.636 m 10e-4,5.81 c 0,0.695 0.03,0.979 0.066,0.632 0.037,-0.348 0.037,-0.916 0,-1.263 -0.036,-0.348 -0.066,-0.063 -0.066,0.631 m -0.017,4.884 c 0,0.325 0.034,0.457 0.077,0.295 0.042,-0.162 0.042,-0.427 0,-0.589 -0.043,-0.162 -0.077,-0.03 -0.077,0.294 m 0,3.706 c 0,0.324 0.034,0.457 0.077,0.294 0.042,-0.162 0.042,-0.427 0,-0.589 -0.043,-0.162 -0.077,-0.029 -0.077,0.295 m 0.014,16.505 c 0,0.602 0.031,0.848 0.068,0.547 0.038,-0.301 0.038,-0.793 0,-1.094 -0.037,-0.301 -0.068,-0.055 -0.068,0.547 m -0.014,2.695 c 0,0.324 0.034,0.457 0.077,0.294 0.042,-0.162 0.042,-0.427 0,-0.589 -0.043,-0.162 -0.077,-0.029 -0.077,0.295 m 0.016,3.116 c 10e-4,0.648 0.031,0.893 0.067,0.543 0.037,-0.349 0.036,-0.88 -0.001,-1.179 -0.037,-0.299 -0.067,-0.013 -0.066,0.636 m -0.016,4.968 c 0,0.324 0.034,0.457 0.077,0.295 0.042,-0.162 0.042,-0.428 0,-0.59 -0.043,-0.162 -0.077,-0.029 -0.077,0.295"
      stroke="none"
      fill="#c38c5b"
      fill-rule="evenodd"
      id="path10"/>
  </g>
</svg>
