<svg viewBox="0, 0, 400,404.1935076417835" xmlns="http://www.w3.org/2000/svg">
  <g>
    <path
          d="M193.432 166.082 C 157.757 169.413,130.419 197.660,128.006 233.684 C 127.898 235.303,127.836 258.582,127.834 298.484 L 127.832 360.758 199.663 360.758 L 271.495 360.758 271.493 297.642 C 271.491 232.845,271.493 232.981,270.807 227.958 C 265.655 190.179,231.120 162.563,193.432 166.082 "
          stroke="none" fill="#432611" fill-rule="evenodd"/>
    <path
          d="M200.000 53.389 C 199.943 53.482,200.056 53.558,200.253 53.558 C 200.449 53.558,200.563 53.482,200.505 53.389 C 200.448 53.297,200.334 53.221,200.253 53.221 C 200.171 53.221,200.057 53.297,200.000 53.389 M200.168 55.579 L 197.305 55.663 196.042 56.736 C 195.347 57.326,193.491 58.889,191.916 60.209 C 190.341 61.530,187.982 63.510,186.673 64.610 C 185.365 65.710,181.626 68.846,178.364 71.579 L 172.433 76.547 186.343 76.590 C 193.993 76.614,206.510 76.614,214.157 76.590 L 228.061 76.547 224.810 73.827 C 223.021 72.331,220.459 70.181,219.116 69.048 C 214.121 64.836,208.050 59.732,205.207 57.356 C 204.659 56.898,203.945 56.292,203.621 56.009 L 203.032 55.495 200.168 55.579 M169.089 79.368 L 168.378 80.000 200.269 80.000 L 232.161 80.000 231.497 79.453 L 230.833 78.905 200.317 78.821 L 169.801 78.737 169.089 79.368 M163.705 83.880 L 162.947 84.546 200.232 84.547 L 237.517 84.547 236.780 83.881 L 236.042 83.214 200.253 83.214 L 164.463 83.214 163.705 83.880 M159.663 87.267 C 159.246 87.644,157.132 89.441,154.964 91.260 C 152.797 93.080,149.272 96.038,147.133 97.834 C 144.993 99.630,141.507 102.548,139.386 104.318 L 135.530 107.537 167.891 107.579 C 185.690 107.603,214.789 107.603,232.556 107.579 L 264.860 107.537 262.830 105.835 C 256.663 100.663,252.040 96.775,246.921 92.454 C 244.567 90.467,242.030 88.331,241.283 87.705 L 239.924 86.568 200.173 86.575 L 160.421 86.582 159.663 87.267 M132.275 110.274 L 131.462 110.989 200.173 110.982 L 268.884 110.975 268.126 110.309 L 267.368 109.644 200.229 109.601 L 133.089 109.558 132.275 110.274 M126.947 114.743 C 126.600 115.041,126.316 115.341,126.316 115.411 C 126.316 115.480,159.606 115.534,200.295 115.530 L 274.274 115.523 273.536 114.856 L 272.799 114.189 200.189 114.196 L 127.579 114.202 126.947 114.743 M200.106 117.516 L 123.580 117.558 121.959 118.956 C 121.067 119.726,119.427 121.111,118.316 122.035 C 117.204 122.959,115.125 124.698,113.696 125.899 C 107.147 131.404,104.129 133.935,101.479 136.144 L 98.621 138.526 149.451 138.569 C 177.407 138.592,223.093 138.592,250.975 138.569 L 301.669 138.526 297.235 134.821 C 294.796 132.783,291.778 130.241,290.527 129.173 C 289.276 128.104,286.661 125.896,284.716 124.265 C 282.771 122.635,280.156 120.440,278.905 119.387 L 276.632 117.474 200.106 117.516 M95.383 141.260 L 94.568 141.972 200.157 141.975 L 305.745 141.979 305.007 141.347 L 304.269 140.716 200.233 140.632 L 96.197 140.547 95.383 141.260 M90.021 145.772 L 89.347 146.353 200.154 146.355 L 310.961 146.358 310.302 145.775 L 309.642 145.193 200.168 145.192 L 90.695 145.192 90.021 145.772 M85.456 149.623 C 84.724 150.261,83.739 151.095,83.266 151.476 C 82.794 151.857,81.467 152.961,80.319 153.929 C 77.424 156.370,71.877 161.026,64.859 166.905 L 61.944 169.347 111.897 169.390 L 161.851 169.432 163.410 168.564 C 185.513 156.257,214.440 156.408,236.716 168.947 L 237.726 169.516 288.000 169.432 L 338.274 169.347 336.263 167.663 C 335.158 166.737,333.533 165.373,332.653 164.632 C 331.773 163.891,330.511 162.829,329.849 162.274 C 326.180 159.195,322.827 156.368,317.474 151.838 L 313.684 148.632 200.235 148.547 L 86.785 148.463 85.456 149.623 M58.611 172.132 L 57.684 172.965 106.947 172.966 L 156.211 172.967 157.221 172.295 L 158.232 171.622 108.832 171.622 C 75.942 171.621,59.468 171.565,59.537 171.453 C 59.716 171.163,59.565 171.274,58.611 172.132 M241.347 171.681 C 241.347 171.715,241.763 172.018,242.271 172.355 L 243.195 172.968 292.840 172.962 L 342.484 172.955 341.747 172.288 L 341.009 171.621 291.178 171.621 C 263.771 171.621,241.347 171.648,241.347 171.681 M53.221 176.674 L 52.463 177.337 101.455 177.342 L 150.448 177.347 151.266 176.723 C 151.716 176.380,152.084 176.077,152.084 176.050 C 152.084 176.022,130.011 176.002,103.032 176.005 L 53.979 176.010 53.221 176.674 M248.084 176.674 L 248.842 177.337 298.274 177.335 L 347.705 177.333 346.947 176.667 L 346.189 176.001 296.758 176.005 L 247.326 176.010 248.084 176.674 M50.192 191.537 L 50.194 203.789 90.245 203.789 L 130.296 203.789 130.577 203.200 L 130.858 202.611 90.608 202.611 L 50.358 202.611 50.358 201.516 L 50.358 200.421 91.158 200.417 L 131.958 200.413 133.053 198.438 C 136.227 192.712,140.374 187.239,145.430 182.103 L 148.126 179.364 99.158 179.324 L 50.189 179.284 50.192 191.537 M300.641 179.327 L 251.220 179.369 253.568 181.688 C 258.882 186.937,262.926 192.329,267.018 199.621 L 267.467 200.421 308.891 200.421 L 350.316 200.421 350.316 189.905 C 350.316 184.121,350.259 179.365,350.189 179.336 C 350.120 179.308,327.823 179.303,300.641 179.327 M268.632 202.703 C 268.632 202.754,268.747 203.019,268.889 203.293 L 269.145 203.789 309.731 203.789 L 350.316 203.789 350.316 203.200 L 350.316 202.611 309.474 202.611 C 287.011 202.611,268.632 202.652,268.632 202.703 M50.191 220.884 L 50.194 234.779 86.655 234.779 L 123.116 234.779 123.116 234.105 L 123.116 233.432 86.737 233.432 L 50.358 233.432 50.358 232.421 L 50.358 231.411 86.821 231.411 L 123.284 231.411 123.284 231.069 C 123.284 227.229,125.021 218.203,126.834 212.617 C 127.197 211.497,127.495 210.531,127.495 210.469 C 127.495 210.408,110.139 210.358,88.926 210.358 L 50.358 210.358 50.358 209.347 L 50.358 208.337 89.345 208.337 L 128.332 208.337 128.587 207.727 C 128.727 207.391,128.842 207.088,128.842 207.053 C 128.842 207.018,111.145 206.989,89.515 206.989 L 50.189 206.989 50.191 220.884 M270.776 207.663 L 271.041 208.337 310.678 208.337 L 350.316 208.337 350.316 207.663 L 350.316 206.989 310.414 206.989 L 270.511 206.989 270.776 207.663 M271.832 210.411 C 271.832 210.439,272.060 211.139,272.339 211.964 C 274.288 217.730,276.042 226.600,276.042 230.688 L 276.042 231.495 313.179 231.452 L 350.316 231.409 350.316 220.883 L 350.316 210.358 311.074 210.358 C 289.491 210.358,271.832 210.382,271.832 210.411 M276.211 234.105 L 276.211 234.779 313.263 234.779 L 350.316 234.779 350.316 234.105 L 350.316 233.432 313.263 233.432 L 276.211 233.432 276.211 234.105 M50.191 251.874 L 50.194 265.768 86.655 265.768 L 123.116 265.768 123.116 265.095 L 123.116 264.421 86.737 264.421 L 50.358 264.421 50.358 263.411 L 50.358 262.400 86.737 262.400 L 123.116 262.400 123.116 251.874 L 123.116 241.347 86.737 241.347 L 50.358 241.347 50.358 240.253 L 50.358 239.158 86.737 239.158 L 123.116 239.158 123.116 238.568 L 123.116 237.979 86.652 237.979 L 50.189 237.979 50.191 251.874 M276.211 238.611 L 276.211 239.242 313.263 239.199 L 350.316 239.156 350.316 238.568 L 350.316 237.979 313.263 237.979 L 276.211 237.979 276.211 238.611 M276.274 251.874 L 276.283 262.400 313.299 262.400 L 350.316 262.400 350.316 251.874 L 350.316 241.347 313.290 241.347 L 276.265 241.347 276.274 251.874 M276.211 265.095 L 276.211 265.768 313.263 265.768 L 350.316 265.768 350.316 265.095 L 350.316 264.421 313.263 264.421 L 276.211 264.421 276.211 265.095 M50.267 269.011 C 50.222 269.126,50.206 275.398,50.230 282.947 L 50.274 296.674 86.695 296.716 L 123.116 296.759 123.116 296.085 L 123.116 295.411 86.737 295.411 L 50.358 295.411 50.358 294.316 L 50.358 293.221 86.737 293.221 L 123.116 293.221 123.116 282.779 L 123.116 272.337 86.737 272.337 L 50.358 272.337 50.358 271.242 L 50.358 270.147 86.737 270.147 L 123.116 270.147 123.116 269.474 L 123.116 268.800 86.732 268.800 C 57.779 268.800,50.331 268.843,50.267 269.011 M276.211 269.474 L 276.211 270.147 313.263 270.147 L 350.316 270.147 350.316 269.474 L 350.316 268.800 313.263 268.800 L 276.211 268.800 276.211 269.474 M276.278 282.737 L 276.288 293.221 313.302 293.221 L 350.316 293.221 350.316 282.780 L 350.316 272.338 313.292 272.295 L 276.267 272.253 276.278 282.737 M276.211 296.084 L 276.211 296.758 313.263 296.758 L 350.316 296.758 350.316 296.084 L 350.316 295.411 313.263 295.411 L 276.211 295.411 276.211 296.084 M50.191 313.684 L 50.194 327.579 86.655 327.579 L 123.116 327.579 123.116 326.905 L 123.116 326.232 86.737 326.232 L 50.358 326.232 50.358 325.221 L 50.358 324.211 86.737 324.211 L 123.116 324.211 123.116 313.684 L 123.116 303.158 86.737 303.158 L 50.358 303.158 50.358 302.147 L 50.358 301.137 86.737 301.137 L 123.116 301.137 123.116 300.463 L 123.116 299.789 86.652 299.789 L 50.189 299.789 50.191 313.684 M276.211 300.463 L 276.211 301.137 313.263 301.137 L 350.316 301.137 350.316 300.463 L 350.316 299.789 313.263 299.789 L 276.211 299.789 276.211 300.463 M276.280 313.684 L 276.292 324.211 313.304 324.211 L 350.316 324.211 350.316 313.684 L 350.316 303.158 313.292 303.158 L 276.268 303.158 276.280 313.684 M276.211 326.905 L 276.211 327.579 313.263 327.579 L 350.316 327.579 350.316 326.905 L 350.316 326.232 313.263 326.232 L 276.211 326.232 276.211 326.905 M50.191 344.674 L 50.194 358.568 86.655 358.568 L 123.116 358.568 123.116 357.895 L 123.116 357.221 86.737 357.221 L 50.358 357.221 50.358 356.211 L 50.358 355.200 86.737 355.200 L 123.116 355.200 123.116 344.674 L 123.116 334.147 86.737 334.147 L 50.358 334.147 50.358 333.137 L 50.358 332.126 86.737 332.126 L 123.116 332.126 123.116 331.453 L 123.116 330.779 86.652 330.779 L 50.189 330.779 50.191 344.674 M276.211 331.453 L 276.211 332.126 313.263 332.126 L 350.316 332.126 350.316 331.453 L 350.316 330.779 313.263 330.779 L 276.211 330.779 276.211 331.453 M276.278 344.674 L 276.290 355.200 313.303 355.200 L 350.316 355.200 350.316 344.674 L 350.316 334.147 313.291 334.147 L 276.266 334.147 276.278 344.674 M276.211 357.895 L 276.211 358.568 313.263 358.568 L 350.316 358.568 350.316 357.895 L 350.316 357.221 313.263 357.221 L 276.211 357.221 276.211 357.895 M50.189 375.663 L 50.189 389.558 200.253 389.558 L 350.316 389.558 350.316 388.884 L 350.316 388.211 200.337 388.211 L 50.358 388.211 50.358 387.200 L 50.358 386.189 200.337 386.189 L 350.316 386.189 350.316 375.663 L 350.316 365.137 313.263 365.137 L 276.211 365.137 276.211 366.147 L 276.211 367.158 199.663 367.158 L 123.116 367.158 123.116 366.147 L 123.116 365.137 86.737 365.137 L 50.358 365.137 50.358 364.042 L 50.358 362.947 86.737 362.947 L 123.116 362.947 123.116 362.358 L 123.116 361.768 86.653 361.768 L 50.189 361.768 50.189 375.663 M276.211 362.400 L 276.211 363.032 313.263 362.989 L 350.316 362.946 350.316 362.357 L 350.316 361.768 313.263 361.768 L 276.211 361.768 276.211 362.400 "
          stroke="none" fill="#f3ba64" fill-rule="evenodd"/>
    <path
          d="M200.500 2.658 C 200.220 2.910,199.623 3.419,199.174 3.789 C 198.726 4.160,198.225 4.577,198.063 4.716 C 197.900 4.855,196.909 5.688,195.862 6.568 C 194.814 7.448,192.929 9.041,191.673 10.108 C 189.700 11.784,183.789 16.764,182.582 17.767 C 182.358 17.953,181.638 18.563,180.982 19.122 C 179.811 20.121,173.786 25.187,172.978 25.851 C 172.752 26.037,172.260 26.460,171.884 26.790 C 171.508 27.120,169.987 28.404,168.505 29.643 C 166.002 31.735,164.064 33.367,163.605 33.768 C 163.301 34.034,162.028 35.107,158.316 38.224 C 156.417 39.819,154.674 41.289,154.442 41.490 C 154.006 41.871,146.729 48.002,141.818 52.126 C 138.201 55.164,137.597 55.674,135.330 57.600 C 134.294 58.480,132.363 60.109,131.039 61.221 C 128.441 63.402,128.466 63.381,127.144 64.505 C 126.654 64.922,124.989 66.324,123.445 67.621 C 121.901 68.918,118.296 71.952,115.435 74.363 C 104.993 83.162,102.646 85.139,102.316 85.413 C 102.131 85.568,101.100 86.440,100.025 87.352 C 98.951 88.264,96.990 89.920,95.667 91.032 C 94.345 92.143,93.026 93.253,92.737 93.498 C 91.517 94.531,83.949 100.910,79.579 104.589 C 76.985 106.773,73.158 109.996,71.074 111.752 C 68.989 113.507,67.133 115.070,66.947 115.224 C 66.762 115.378,65.731 116.250,64.657 117.163 C 63.582 118.075,61.621 119.731,60.297 120.842 C 58.974 121.954,57.617 123.100,57.282 123.390 C 56.948 123.680,55.150 125.196,53.288 126.759 C 51.427 128.321,47.561 131.573,44.699 133.985 C 41.837 136.397,37.562 139.995,35.200 141.981 C 32.838 143.966,30.821 145.669,30.719 145.764 C 30.617 145.859,29.675 146.657,28.626 147.537 C 26.246 149.534,23.126 152.168,22.568 152.650 C 22.337 152.851,21.503 153.553,20.716 154.211 C 19.928 154.869,18.216 156.308,16.910 157.409 C 6.082 166.538,3.081 169.071,2.628 169.464 L 2.105 169.917 10.969 178.791 L 19.833 187.665 29.755 187.841 L 39.676 188.017 45.471 183.145 C 51.522 178.058,56.388 173.971,60.379 170.623 C 63.826 167.732,134.296 108.543,137.768 105.623 C 139.389 104.259,143.255 101.012,146.358 98.407 C 149.461 95.801,157.343 89.181,163.874 83.695 C 170.404 78.209,177.491 72.259,179.621 70.473 C 181.752 68.688,187.246 64.076,191.832 60.225 C 196.417 56.374,200.221 53.223,200.286 53.222 C 200.351 53.222,201.905 54.488,203.739 56.036 C 207.809 59.471,214.700 65.274,221.895 71.324 C 224.859 73.817,227.966 76.433,228.800 77.137 C 229.634 77.841,234.901 82.274,240.505 86.988 C 246.109 91.702,252.097 96.743,253.811 98.190 C 255.524 99.636,258.632 102.252,260.716 104.003 C 262.800 105.753,265.187 107.762,266.021 108.466 C 267.464 109.685,281.243 121.287,291.537 129.952 C 294.177 132.174,298.535 135.843,301.221 138.106 C 303.907 140.368,307.924 143.751,310.147 145.623 C 312.371 147.495,316.728 151.164,319.832 153.778 C 322.935 156.391,327.520 160.251,330.021 162.355 C 332.522 164.459,338.775 169.723,343.916 174.052 C 349.057 178.381,355.006 183.384,357.137 185.169 L 361.011 188.416 364.211 188.527 C 365.971 188.588,369.040 188.708,371.032 188.793 C 373.023 188.878,376.244 188.993,378.189 189.049 L 381.726 189.150 382.989 187.944 C 384.392 186.604,384.859 186.168,388.378 182.899 C 389.721 181.652,391.017 180.442,391.259 180.211 C 391.501 179.979,392.638 178.918,393.786 177.854 C 394.934 176.789,396.322 175.492,396.870 174.971 C 398.040 173.860,398.207 174.215,395.368 171.784 C 394.349 170.912,393.478 170.157,393.432 170.107 C 393.385 170.057,392.476 169.261,391.411 168.337 C 390.345 167.413,389.436 166.617,389.389 166.568 C 389.343 166.520,388.434 165.723,387.368 164.798 C 386.303 163.873,385.166 162.879,384.842 162.590 C 384.518 162.300,380.539 158.822,376.000 154.860 C 367.332 147.294,367.198 147.178,362.779 143.310 C 361.251 141.972,358.560 139.629,356.800 138.103 C 355.040 136.577,353.524 135.246,353.432 135.146 C 353.339 135.045,352.429 134.251,351.411 133.380 C 350.392 132.510,349.520 131.754,349.474 131.701 C 349.427 131.648,347.836 130.253,345.937 128.602 C 344.038 126.951,342.219 125.363,341.895 125.074 C 341.571 124.784,340.434 123.790,339.368 122.865 C 338.303 121.940,337.394 121.142,337.347 121.092 C 337.301 121.041,335.823 119.753,334.063 118.229 C 332.303 116.705,330.598 115.219,330.274 114.927 C 329.949 114.636,328.358 113.240,326.737 111.826 C 325.116 110.413,323.297 108.824,322.695 108.297 C 320.379 106.269,311.876 98.852,309.305 96.618 C 307.823 95.330,306.307 93.999,305.937 93.660 C 305.566 93.320,304.429 92.326,303.411 91.449 C 302.392 90.573,301.293 89.619,300.968 89.329 C 300.644 89.039,299.053 87.645,297.432 86.231 C 295.811 84.818,293.992 83.227,293.389 82.698 C 292.787 82.168,290.779 80.413,288.926 78.798 C 287.074 77.183,282.526 73.216,278.821 69.982 C 275.116 66.749,271.816 63.872,271.488 63.589 C 271.160 63.305,270.327 62.572,269.636 61.960 C 268.944 61.347,267.091 59.726,265.516 58.357 C 263.941 56.988,262.387 55.633,262.063 55.345 C 261.739 55.057,260.602 54.064,259.537 53.139 C 258.472 52.214,257.562 51.417,257.516 51.368 C 257.469 51.320,256.560 50.523,255.495 49.598 C 254.429 48.673,253.293 47.679,252.968 47.389 C 252.644 47.099,249.575 44.418,246.147 41.430 C 242.720 38.443,239.651 35.762,239.326 35.473 C 239.002 35.184,237.865 34.190,236.800 33.264 C 235.735 32.338,234.781 31.504,234.682 31.411 C 234.582 31.318,232.839 29.802,230.809 28.042 C 228.779 26.282,226.739 24.497,226.275 24.075 C 225.811 23.653,224.598 22.593,223.579 21.721 C 222.560 20.849,221.688 20.091,221.642 20.038 C 221.596 19.985,220.004 18.590,218.105 16.939 C 216.206 15.288,214.387 13.700,214.063 13.410 C 213.739 13.121,212.602 12.126,211.537 11.200 C 210.472 10.274,209.335 9.279,209.011 8.989 C 206.657 6.887,201.200 2.190,201.115 2.194 C 201.057 2.197,200.781 2.406,200.500 2.658 "
          stroke="none" fill="#e12e0e" fill-rule="evenodd"/>
    <path
          d="M198.668 54.531 L 197.504 55.495 198.878 55.544 C 199.634 55.571,200.871 55.571,201.627 55.544 L 203.002 55.495 201.866 54.526 C 200.409 53.283,200.174 53.284,198.668 54.531 M171.120 77.684 L 169.879 78.737 185.066 78.780 C 193.419 78.803,207.089 78.803,215.445 78.780 L 230.638 78.737 229.382 77.687 L 228.126 76.638 200.244 76.635 L 172.362 76.632 171.120 77.684 M161.785 85.516 L 160.632 86.484 180.443 86.527 C 191.338 86.551,209.163 86.551,220.052 86.527 L 239.852 86.484 238.675 85.516 L 237.498 84.547 200.217 84.547 L 162.937 84.547 161.785 85.516 M134.352 108.560 C 133.730 109.077,133.221 109.531,133.221 109.571 C 133.221 109.610,163.390 109.642,200.262 109.642 L 267.303 109.642 266.132 108.632 L 264.961 107.621 200.222 107.621 L 135.484 107.621 134.352 108.560 M124.936 116.463 L 123.720 117.474 162.000 117.516 C 183.054 117.540,217.453 117.540,238.443 117.516 L 276.606 117.474 275.537 116.547 L 274.468 115.621 200.309 115.537 L 126.151 115.453 124.936 116.463 M97.419 139.579 L 96.284 140.547 148.282 140.590 C 176.881 140.613,223.633 140.613,252.176 140.590 L 304.071 140.547 302.904 139.579 L 301.737 138.611 200.145 138.611 L 98.553 138.611 97.419 139.579 M88.092 147.414 L 86.836 148.463 143.558 148.506 C 174.755 148.529,225.750 148.529,256.879 148.506 L 313.479 148.463 312.206 147.411 L 310.933 146.358 200.140 146.361 L 89.347 146.364 88.092 147.414 M60.623 170.484 L 59.372 171.537 108.778 171.579 L 158.184 171.622 159.639 170.751 C 160.440 170.271,161.244 169.779,161.427 169.656 C 161.704 169.469,153.418 169.432,111.816 169.432 L 61.873 169.432 60.623 170.484 M237.903 169.568 C 237.991 169.643,238.755 170.136,239.601 170.663 L 241.140 171.622 290.997 171.579 L 340.853 171.537 339.618 170.484 L 338.383 169.432 288.063 169.432 C 260.387 169.432,237.815 169.493,237.903 169.568 M51.410 178.209 C 50.831 178.683,50.358 179.137,50.358 179.219 C 50.358 179.305,71.031 179.365,99.326 179.360 L 148.295 179.353 149.386 178.350 L 150.477 177.347 101.469 177.347 L 52.462 177.347 51.410 178.209 M250.049 178.358 L 251.187 179.368 300.583 179.368 C 327.751 179.368,349.979 179.335,349.979 179.295 C 349.979 179.254,349.482 178.800,348.875 178.284 L 347.770 177.347 298.340 177.347 L 248.910 177.347 250.049 178.358 M50.358 201.516 L 50.358 202.611 90.608 202.611 L 130.858 202.611 131.366 201.605 C 131.645 201.052,131.874 200.559,131.874 200.510 C 131.874 200.461,113.533 200.421,91.116 200.421 L 50.358 200.421 50.358 201.516 M267.996 201.516 L 268.535 202.611 309.426 202.611 L 350.316 202.611 350.316 201.516 L 350.316 200.421 308.886 200.421 L 267.456 200.421 267.996 201.516 M50.358 209.347 L 50.358 210.358 88.977 210.358 L 127.596 210.358 127.960 209.347 L 128.323 208.337 89.341 208.337 L 50.358 208.337 50.358 209.347 M271.219 208.726 C 271.273 208.939,271.433 209.394,271.576 209.736 L 271.836 210.358 311.076 210.358 L 350.316 210.358 350.316 209.347 L 350.316 208.337 310.719 208.337 L 271.121 208.337 271.219 208.726 M50.358 232.421 L 50.358 233.432 86.715 233.432 L 123.072 233.432 123.176 232.800 C 123.234 232.453,123.281 231.998,123.282 231.789 L 123.284 231.411 86.821 231.411 L 50.358 231.411 50.358 232.421 M276.211 232.421 L 276.211 233.432 313.263 233.432 L 350.316 233.432 350.316 232.421 L 350.316 231.411 313.263 231.411 L 276.211 231.411 276.211 232.421 M50.358 240.253 L 50.358 241.347 86.737 241.347 L 123.116 241.347 123.116 240.253 L 123.116 239.158 86.737 239.158 L 50.358 239.158 50.358 240.253 M276.323 239.270 C 276.261 239.332,276.211 239.825,276.211 240.365 L 276.211 241.347 313.263 241.347 L 350.316 241.347 350.316 240.253 L 350.316 239.158 313.375 239.158 C 293.058 239.158,276.385 239.208,276.323 239.270 M50.358 263.411 L 50.358 264.421 86.737 264.421 L 123.116 264.421 123.116 263.411 L 123.116 262.400 86.737 262.400 L 50.358 262.400 50.358 263.411 M276.211 263.411 L 276.211 264.421 313.263 264.421 L 350.316 264.421 350.316 263.411 L 350.316 262.400 313.263 262.400 L 276.211 262.400 276.211 263.411 M50.358 271.242 L 50.358 272.337 86.737 272.337 L 123.116 272.337 123.116 271.242 L 123.116 270.147 86.737 270.147 L 50.358 270.147 50.358 271.242 M276.245 271.200 L 276.295 272.253 313.305 272.295 L 350.316 272.338 350.316 271.242 L 350.316 270.147 313.255 270.147 L 276.194 270.147 276.245 271.200 M50.358 294.316 L 50.358 295.411 86.737 295.411 L 123.116 295.411 123.116 294.316 L 123.116 293.221 86.737 293.221 L 50.358 293.221 50.358 294.316 M276.211 294.316 L 276.211 295.411 313.263 295.411 L 350.316 295.411 350.316 294.316 L 350.316 293.221 313.263 293.221 L 276.211 293.221 276.211 294.316 M50.358 302.147 L 50.358 303.158 86.737 303.158 L 123.116 303.158 123.116 302.147 L 123.116 301.137 86.737 301.137 L 50.358 301.137 50.358 302.147 M276.211 302.147 L 276.211 303.158 313.263 303.158 L 350.316 303.158 350.316 302.147 L 350.316 301.137 313.263 301.137 L 276.211 301.137 276.211 302.147 M50.358 325.221 L 50.358 326.232 86.737 326.232 L 123.116 326.232 123.116 325.221 L 123.116 324.211 86.737 324.211 L 50.358 324.211 50.358 325.221 M276.211 325.221 L 276.211 326.232 313.263 326.232 L 350.316 326.232 350.316 325.221 L 350.316 324.211 313.263 324.211 L 276.211 324.211 276.211 325.221 M50.358 333.137 L 50.358 334.147 86.737 334.147 L 123.116 334.147 123.116 333.137 L 123.116 332.126 86.737 332.126 L 50.358 332.126 50.358 333.137 M276.211 333.137 L 276.211 334.147 313.263 334.147 L 350.316 334.147 350.316 333.137 L 350.316 332.126 313.263 332.126 L 276.211 332.126 276.211 333.137 M50.358 356.211 L 50.358 357.221 86.737 357.221 L 123.116 357.221 123.116 356.211 L 123.116 355.200 86.737 355.200 L 50.358 355.200 50.358 356.211 M276.211 356.211 L 276.211 357.221 313.263 357.221 L 350.316 357.221 350.316 356.211 L 350.316 355.200 313.263 355.200 L 276.211 355.200 276.211 356.211 M50.358 364.042 L 50.358 365.137 86.737 365.137 L 123.116 365.137 123.116 364.042 L 123.116 362.947 86.737 362.947 L 50.358 362.947 50.358 364.042 M276.323 363.060 C 276.261 363.121,276.211 363.614,276.211 364.154 L 276.211 365.137 313.263 365.137 L 350.316 365.137 350.316 364.042 L 350.316 362.947 313.375 362.947 C 293.058 362.947,276.385 362.998,276.323 363.060 M50.358 387.200 L 50.358 388.211 200.337 388.211 L 350.316 388.211 350.316 387.200 L 350.316 386.189 200.337 386.189 L 50.358 386.189 50.358 387.200 "
          stroke="none" fill="#fbe3ab" fill-rule="evenodd"/>
    <path
          d="M166.334 81.684 L 164.514 83.200 200.194 83.193 L 235.874 83.186 235.200 82.590 C 234.829 82.262,234.025 81.583,233.413 81.081 L 232.299 80.168 200.227 80.168 L 168.155 80.168 166.334 81.684 M129.542 112.589 L 127.640 114.189 200.191 114.189 C 240.093 114.189,272.669 114.126,272.581 114.049 C 272.493 113.972,271.649 113.252,270.705 112.449 L 268.990 110.989 200.217 110.989 L 131.444 110.989 129.542 112.589 M92.790 143.453 L 91.032 144.926 145.656 144.969 C 175.699 144.992,224.802 144.992,254.772 144.969 L 309.264 144.926 307.516 143.455 L 305.768 141.983 200.158 141.981 L 94.548 141.979 92.790 143.453 M198.701 159.451 C 199.284 159.484,200.193 159.484,200.722 159.451 C 201.251 159.417,200.775 159.390,199.663 159.391 C 198.552 159.391,198.119 159.418,198.701 159.451 M292.832 172.927 L 243.180 172.969 245.213 174.485 L 247.245 176.001 296.659 175.958 L 346.072 175.916 344.278 174.400 L 342.484 172.884 292.832 172.927 M55.841 174.484 L 54.043 176.000 103.087 176.000 L 152.131 176.000 154.003 174.621 C 155.032 173.863,155.946 173.181,156.034 173.106 C 156.122 173.030,134.019 172.968,106.916 172.968 L 57.639 172.968 55.841 174.484 M44.842 183.697 L 39.747 188.000 39.747 295.010 L 39.747 402.021 44.968 402.021 L 50.189 402.021 50.189 397.347 L 50.189 392.674 200.253 392.674 L 350.316 392.674 350.316 397.347 L 350.316 402.021 355.621 402.021 L 360.926 402.021 360.920 295.200 L 360.914 188.379 355.741 184.041 L 350.568 179.704 350.484 191.789 L 350.400 203.874 309.784 203.916 L 269.167 203.959 269.820 205.432 L 270.473 206.905 310.478 206.948 L 350.484 206.990 350.484 220.885 L 350.484 234.779 313.347 234.779 L 276.211 234.779 276.211 236.379 L 276.211 237.979 313.347 237.979 L 350.484 237.979 350.484 251.874 L 350.484 265.768 313.347 265.768 L 276.211 265.768 276.211 267.284 L 276.211 268.799 313.305 268.842 L 350.400 268.884 350.400 282.779 L 350.400 296.674 313.305 296.716 L 276.211 296.759 276.211 298.274 L 276.211 299.789 313.347 299.789 L 350.484 299.789 350.484 313.684 L 350.484 327.579 313.347 327.579 L 276.211 327.579 276.211 329.179 L 276.211 330.779 313.347 330.779 L 350.484 330.779 350.484 344.674 L 350.484 358.568 313.347 358.568 L 276.211 358.568 276.211 360.168 L 276.211 361.768 313.347 361.768 L 350.484 361.768 350.484 375.663 L 350.484 389.558 200.337 389.558 L 50.189 389.558 50.189 375.663 L 50.189 361.768 86.653 361.768 L 123.116 361.768 123.116 360.168 L 123.116 358.568 86.655 358.568 L 50.194 358.568 50.191 344.674 L 50.189 330.779 86.652 330.779 L 123.116 330.779 123.116 329.179 L 123.116 327.579 86.653 327.579 L 50.189 327.579 50.189 313.684 L 50.189 299.789 86.653 299.789 L 123.116 299.789 123.116 298.274 L 123.116 296.758 86.653 296.758 L 50.189 296.758 50.189 282.779 L 50.189 268.800 86.653 268.800 L 123.116 268.800 123.116 267.284 L 123.116 265.768 86.653 265.768 L 50.189 265.768 50.189 251.874 L 50.189 237.979 86.653 237.979 L 123.116 237.979 123.116 236.379 L 123.116 234.779 86.653 234.779 L 50.189 234.779 50.189 220.884 L 50.189 206.989 89.558 206.984 L 128.926 206.978 129.605 205.426 L 130.284 203.874 90.279 203.874 L 50.274 203.874 50.230 191.621 C 50.207 184.882,50.131 179.374,50.062 179.381 C 49.993 179.388,47.644 181.331,44.842 183.697 M276.264 246.400 C 276.264 247.002,276.295 247.248,276.332 246.947 C 276.370 246.646,276.370 246.154,276.332 245.853 C 276.295 245.552,276.264 245.798,276.264 246.400 M276.250 249.095 C 276.250 249.419,276.284 249.552,276.327 249.389 C 276.369 249.227,276.369 248.962,276.327 248.800 C 276.284 248.638,276.250 248.771,276.250 249.095 M276.266 252.211 C 276.267 252.859,276.297 253.104,276.333 252.754 C 276.370 252.405,276.369 251.874,276.332 251.575 C 276.295 251.276,276.265 251.562,276.266 252.211 M276.250 257.011 C 276.250 257.335,276.284 257.467,276.327 257.305 C 276.369 257.143,276.369 256.878,276.327 256.716 C 276.284 256.554,276.250 256.686,276.250 257.011 M276.266 277.305 C 276.267 277.954,276.297 278.198,276.333 277.849 C 276.370 277.499,276.369 276.969,276.332 276.670 C 276.295 276.371,276.265 276.657,276.266 277.305 M276.266 283.200 C 276.267 283.848,276.297 284.093,276.333 283.744 C 276.370 283.394,276.369 282.864,276.332 282.565 C 276.295 282.266,276.265 282.552,276.266 283.200 M276.250 288.000 C 276.250 288.324,276.284 288.457,276.327 288.295 C 276.369 288.133,276.369 287.867,276.327 287.705 C 276.284 287.543,276.250 287.676,276.250 288.000 M276.266 308.295 C 276.267 308.943,276.297 309.188,276.333 308.838 C 276.370 308.489,276.369 307.958,276.332 307.659 C 276.295 307.360,276.265 307.646,276.266 308.295 M276.267 314.105 C 276.267 314.800,276.297 315.084,276.333 314.737 C 276.370 314.389,276.370 313.821,276.333 313.474 C 276.297 313.126,276.267 313.411,276.267 314.105 M276.250 318.989 C 276.250 319.314,276.284 319.446,276.327 319.284 C 276.369 319.122,276.369 318.857,276.327 318.695 C 276.284 318.533,276.250 318.665,276.250 318.989 M276.250 322.695 C 276.250 323.019,276.284 323.152,276.327 322.989 C 276.369 322.827,276.369 322.562,276.327 322.400 C 276.284 322.238,276.250 322.371,276.250 322.695 M276.264 339.200 C 276.264 339.802,276.295 340.048,276.332 339.747 C 276.370 339.446,276.370 338.954,276.332 338.653 C 276.295 338.352,276.264 338.598,276.264 339.200 M276.250 341.895 C 276.250 342.219,276.284 342.352,276.327 342.189 C 276.369 342.027,276.369 341.762,276.327 341.600 C 276.284 341.438,276.250 341.571,276.250 341.895 M276.266 345.011 C 276.267 345.659,276.297 345.904,276.333 345.554 C 276.370 345.205,276.369 344.674,276.332 344.375 C 276.295 344.076,276.265 344.362,276.266 345.011 M276.250 349.979 C 276.250 350.303,276.284 350.436,276.327 350.274 C 276.369 350.112,276.369 349.846,276.327 349.684 C 276.284 349.522,276.250 349.655,276.250 349.979 "
          stroke="none" fill="#c38c5b" fill-rule="evenodd"/>
    <path
          d="M192.337 159.762 C 157.702 163.181,129.644 189.619,124.137 224.023 C 123.140 230.250,123.215 224.519,123.160 299.074 L 123.109 367.158 199.663 367.158 L 276.216 367.158 276.168 298.653 C 276.116 222.945,276.212 229.725,275.105 223.169 C 268.459 183.807,231.965 155.850,192.337 159.762 M202.962 165.893 C 236.567 167.525,264.394 191.955,270.395 225.095 C 271.479 231.077,271.391 225.142,271.448 296.211 L 271.499 360.758 199.663 360.758 L 127.826 360.758 127.880 296.547 C 127.939 227.149,127.880 231.927,128.759 226.464 C 133.599 196.384,156.866 172.488,186.657 166.998 C 190.787 166.237,192.598 166.057,199.158 165.756 C 199.436 165.743,201.148 165.804,202.962 165.893 M50.189 397.305 C 50.189 399.899,50.222 402.021,50.261 402.021 C 50.361 402.021,65.563 392.912,65.760 392.734 C 65.849 392.653,62.442 392.589,58.055 392.589 L 50.189 392.589 50.189 397.305 M334.866 392.690 C 334.921 392.746,338.420 394.859,342.641 397.387 L 350.316 401.983 350.316 397.286 L 350.316 392.589 342.540 392.589 C 338.264 392.589,334.810 392.635,334.866 392.690 "
          stroke="none" fill="#9c744b" fill-rule="evenodd"/>
    <path
          d="M199.116 165.849 C 199.463 165.885,200.032 165.885,200.379 165.849 C 200.726 165.813,200.442 165.783,199.747 165.783 C 199.053 165.783,198.768 165.813,199.116 165.849 "
          stroke="none" fill="#7f5b37" fill-rule="evenodd"/>
    <path d="" stroke="none" fill="#d44c2c" fill-rule="evenodd"/>
    <path
          d="M184.211 80.126 C 193.034 80.150,207.472 80.150,216.295 80.126 C 225.118 80.102,217.899 80.082,200.253 80.082 C 182.606 80.082,175.387 80.102,184.211 80.126 M145.389 145.137 C 175.472 145.160,224.697 145.160,254.779 145.137 C 284.861 145.113,260.248 145.094,200.084 145.094 C 139.920 145.094,115.307 145.113,145.389 145.137 M350.357 191.622 L 350.316 203.791 309.658 203.748 C 287.297 203.725,269.036 203.762,269.079 203.832 C 269.225 204.069,350.316 203.985,350.407 203.747 C 350.451 203.632,350.467 198.118,350.442 191.495 L 350.398 179.453 350.357 191.622 M70.274 203.916 C 81.274 203.940,99.274 203.940,110.274 203.916 C 121.274 203.892,112.274 203.872,90.274 203.872 C 68.274 203.872,59.274 203.892,70.274 203.916 M350.396 220.884 C 350.396 228.573,350.417 231.743,350.442 227.928 C 350.467 224.114,350.467 217.824,350.442 213.949 C 350.417 210.075,350.396 213.196,350.396 220.884 M350.396 251.874 C 350.396 259.562,350.417 262.732,350.442 258.918 C 350.467 255.104,350.467 248.813,350.442 244.939 C 350.417 241.065,350.396 244.185,350.396 251.874 M350.396 282.779 C 350.396 290.421,350.417 293.547,350.442 289.726 C 350.467 285.905,350.467 279.653,350.442 275.832 C 350.417 272.011,350.396 275.137,350.396 282.779 M350.396 313.684 C 350.396 321.373,350.417 324.543,350.442 320.728 C 350.467 316.914,350.467 310.624,350.442 306.749 C 350.417 302.875,350.396 305.996,350.396 313.684 M350.396 344.674 C 350.396 352.362,350.417 355.532,350.442 351.718 C 350.467 347.904,350.467 341.613,350.442 337.739 C 350.417 333.865,350.396 336.985,350.396 344.674 M350.396 375.663 C 350.396 383.352,350.417 386.521,350.442 382.707 C 350.467 378.893,350.467 372.603,350.442 368.728 C 350.417 364.854,350.396 367.975,350.396 375.663 "
          stroke="none" fill="#c4a474" fill-rule="evenodd"/>
  </g>
</svg>
