<svg
  xmlns="http://www.w3.org/2000/svg"
  viewBox="0 0 395.56027 618.25102">
  <g transform="translate(-2.105,-2.1939974)">
    <path
      d="m 200.5,2.658 c -0.28,0.252 -0.877,0.761 -1.326,1.131 -0.448,0.371 -0.949,0.788 -1.111,0.927 -0.163,0.139 -1.154,0.972 -2.201,1.852 -1.048,0.88 -2.933,2.473 -4.189,3.54 -1.973,1.676 -7.884,6.656 -9.091,7.659 -0.224,0.186 -0.944,0.796 -1.6,1.355 -1.171,0.999 -7.196,6.065 -8.004,6.729 -0.226,0.186 -0.718,0.609 -1.094,0.939 -0.376,0.33 -1.897,1.614 -3.379,2.853 -2.503,2.092 -4.441,3.724 -4.9,4.125 -0.304,0.266 -1.577,1.339 -5.289,4.456 -1.899,1.595 -3.642,3.065 -3.874,3.266 -0.436,0.381 -7.713,6.512 -12.624,10.636 -3.617,3.038 -4.221,3.548 -6.488,5.474 -1.036,0.88 -2.967,2.509 -4.291,3.621 -2.598,2.181 -2.573,2.16 -3.895,3.284 -0.49,0.417 -2.155,1.819 -3.699,3.116 -1.544,1.297 -5.149,4.331 -8.01,6.742 -10.442,8.799 -12.789,10.776 -13.119,11.05 -0.185,0.155 -1.216,1.027 -2.291,1.939 -1.074,0.912 -3.035,2.568 -4.358,3.68 -1.322,1.111 -2.641,2.221 -2.93,2.466 -1.22,1.033 -8.788,7.412 -13.158,11.091 -2.594,2.184 -6.421,5.407 -8.505,7.163 -2.085,1.755 -3.941,3.318 -4.127,3.472 -0.185,0.154 -1.216,1.026 -2.29,1.939 -1.075,0.912 -3.036,2.568 -4.36,3.679 -1.323,1.112 -2.68,2.258 -3.015,2.548 -0.334,0.29 -2.132,1.806 -3.994,3.369 -1.861,1.562 -5.727,4.814 -8.589,7.226 -2.862,2.412 -7.137,6.01 -9.499,7.996 -2.362,1.985 -4.379,3.688 -4.481,3.783 -0.102,0.095 -1.044,0.893 -2.093,1.773 -2.38,1.997 -5.5,4.631 -6.058,5.113 -0.231,0.201 -1.065,0.903 -1.852,1.561 -0.788,0.658 -2.5,2.097 -3.806,3.198 -10.828,9.129 -13.829,11.662 -14.282,12.055 l -0.523,0.453 8.864,8.874 8.864,8.874 9.922,0.176 9.921,0.176 5.795,-4.872 c 6.051,-5.087 10.917,-9.174 14.908,-12.522 3.447,-2.891 73.917,-62.08 77.389,-65 1.621,-1.364 5.487,-4.611 8.59,-7.216 3.103,-2.606 10.985,-9.226 17.516,-14.712 6.53,-5.486 13.617,-11.436 15.747,-13.222 2.131,-1.785 7.625,-6.397 12.211,-10.248 4.585,-3.851 8.389,-7.002 8.454,-7.003 0.065,0 1.619,1.266 3.453,2.814 4.07,3.435 10.961,9.238 18.156,15.288 2.964,2.493 6.071,5.109 6.905,5.813 0.834,0.704 6.101,5.137 11.705,9.851 5.604,4.714 11.592,9.755 13.306,11.202 1.713,1.446 4.821,4.062 6.905,5.813 2.084,1.75 4.471,3.759 5.305,4.463 1.443,1.219 15.222,12.821 25.516,21.486 2.64,2.222 6.998,5.891 9.684,8.154 2.686,2.262 6.703,5.645 8.926,7.517 2.224,1.872 6.581,5.541 9.685,8.155 3.103,2.613 7.688,6.473 10.189,8.577 2.501,2.104 8.754,7.368 13.895,11.697 5.141,4.329 11.09,9.332 13.221,11.117 l 3.874,3.247 3.2,0.111 c 1.76,0.061 4.829,0.181 6.821,0.266 1.991,0.085 5.212,0.2 7.157,0.256 l 3.537,0.101 1.263,-1.206 c 1.403,-1.34 1.87,-1.776 5.389,-5.045 1.343,-1.247 2.639,-2.457 2.881,-2.688 0.242,-0.232 1.379,-1.293 2.527,-2.357 1.148,-1.065 2.536,-2.362 3.084,-2.883 1.17,-1.111 1.337,-0.756 -1.502,-3.187 -1.019,-0.872 -1.89,-1.627 -1.936,-1.677 -0.047,-0.05 -0.956,-0.846 -2.021,-1.77 -1.066,-0.924 -1.975,-1.72 -2.022,-1.769 -0.046,-0.048 -0.955,-0.845 -2.021,-1.77 -1.065,-0.925 -2.202,-1.919 -2.526,-2.208 -0.324,-0.29 -4.303,-3.768 -8.842,-7.73 -8.668,-7.566 -8.802,-7.682 -13.221,-11.55 -1.528,-1.338 -4.219,-3.681 -5.979,-5.207 -1.76,-1.526 -3.276,-2.857 -3.368,-2.957 -0.093,-0.101 -1.003,-0.895 -2.021,-1.766 -1.019,-0.87 -1.891,-1.626 -1.937,-1.679 -0.047,-0.053 -1.638,-1.448 -3.537,-3.099 -1.899,-1.651 -3.718,-3.239 -4.042,-3.528 -0.324,-0.29 -1.461,-1.284 -2.527,-2.209 -1.065,-0.925 -1.974,-1.723 -2.021,-1.773 -0.046,-0.051 -1.524,-1.339 -3.284,-2.863 -1.76,-1.524 -3.465,-3.01 -3.789,-3.302 -0.325,-0.291 -1.916,-1.687 -3.537,-3.101 -1.621,-1.413 -3.44,-3.002 -4.042,-3.529 -2.316,-2.028 -10.819,-9.445 -13.39,-11.679 -1.482,-1.288 -2.998,-2.619 -3.368,-2.958 -0.371,-0.34 -1.508,-1.334 -2.526,-2.211 -1.019,-0.876 -2.118,-1.83 -2.443,-2.12 -0.324,-0.29 -1.915,-1.684 -3.536,-3.098 -1.621,-1.413 -3.44,-3.004 -4.043,-3.533 -0.602,-0.53 -2.61,-2.285 -4.463,-3.9 -1.852,-1.615 -6.4,-5.582 -10.105,-8.816 -3.705,-3.233 -7.005,-6.11 -7.333,-6.393 -0.328,-0.284 -1.161,-1.017 -1.852,-1.629 -0.692,-0.613 -2.545,-2.234 -4.12,-3.603 -1.575,-1.369 -3.129,-2.724 -3.453,-3.012 -0.324,-0.288 -1.461,-1.281 -2.526,-2.206 -1.065,-0.925 -1.975,-1.722 -2.021,-1.771 -0.047,-0.048 -0.956,-0.845 -2.021,-1.77 -1.066,-0.925 -2.202,-1.919 -2.527,-2.209 -0.324,-0.29 -3.393,-2.971 -6.821,-5.959 -3.427,-2.987 -6.496,-5.668 -6.821,-5.957 -0.324,-0.289 -1.461,-1.283 -2.526,-2.209 -1.065,-0.926 -2.019,-1.76 -2.118,-1.853 -0.1,-0.093 -1.843,-1.609 -3.873,-3.369 -2.03,-1.76 -4.07,-3.545 -4.534,-3.967 -0.464,-0.422 -1.677,-1.482 -2.696,-2.354 -1.019,-0.872 -1.891,-1.63 -1.937,-1.683 -0.046,-0.053 -1.638,-1.448 -3.537,-3.099 -1.899,-1.651 -3.718,-3.239 -4.042,-3.529 -0.324,-0.289 -1.461,-1.284 -2.526,-2.21 -1.065,-0.926 -2.202,-1.921 -2.526,-2.211 -2.354,-2.102 -7.811,-6.799 -7.896,-6.795 -0.058,0.003 -0.334,0.212 -0.615,0.464"
      stroke="none"
      fill="#e12e0e"
      fill-rule="evenodd"/>
    <path
      d="m 199.116,165.849 c 0.347,0.036 0.916,0.036 1.263,0 0.347,-0.036 0.063,-0.066 -0.632,-0.066 -0.694,0 -0.979,0.03 -0.631,0.066"
      stroke="none"
      fill="#7f5b37"
      fill-rule="evenodd"/>
    <path
      d=""
      stroke="none"
      fill="#d44c2c"
      fill-rule="evenodd"/>
    <path
      d="m 184.211,80.126 c 8.823,0.024 23.261,0.024 32.084,0 8.823,-0.024 1.604,-0.044 -16.042,-0.044 -17.647,0 -24.866,0.02 -16.042,0.044 m -38.822,65.011 c 30.083,0.023 79.308,0.023 109.39,0 30.082,-0.024 5.469,-0.043 -54.695,-0.043 -60.164,0 -84.777,0.019 -54.695,0.043 m 204.968,46.485 -0.041,12.169 -40.658,-0.043 c -22.361,-0.023 -40.622,0.014 -40.579,0.084 0.146,0.237 81.237,0.153 81.328,-0.085 0.044,-0.115 0.06,-5.629 0.035,-12.252 l -0.044,-12.042 -0.041,12.169 M 70.274,203.916 c 11,0.024 29,0.024 40,0 11,-0.024 2,-0.044 -20,-0.044 -22,0 -31,0.02 -20,0.044 m 280.122,16.968 c 0,7.689 0.021,10.859 0.046,7.044 0.025,-3.814 0.025,-10.104 0,-13.979 -0.025,-3.874 -0.046,-0.753 -0.046,6.935 m 0,30.99 c 0,7.688 0.021,10.858 0.046,7.044 0.025,-3.814 0.025,-10.105 0,-13.979 -0.025,-3.874 -0.046,-0.754 -0.046,6.935 m 0,30.905 c 0,7.642 0.021,10.768 0.046,6.947 0.025,-3.821 0.025,-10.073 0,-13.894 -0.025,-3.821 -0.046,-0.695 -0.046,6.947 m 0,30.905 c 0,7.689 0.021,10.859 0.046,7.044 0.025,-3.814 0.025,-10.104 0,-13.979 -0.025,-3.874 -0.046,-0.753 -0.046,6.935 m 0,30.99 c 0,7.688 0.021,10.858 0.046,7.044 0.025,-3.814 0.025,-10.105 0,-13.979 -0.025,-3.874 -0.046,-0.754 -0.046,6.935 m 0,30.989 c 0,7.689 0.021,10.858 0.046,7.044 0.025,-3.814 0.025,-10.104 0,-13.979 -0.025,-3.874 -0.046,-0.753 -0.046,6.935"
      stroke="none"
      fill="#c4a474"
      fill-rule="evenodd"/>
  </g>
  <g transform="translate(-2.105,-2.1939974)">
    <path
      d="m 193.432,166.082 c -35.675,3.331 -63.013,31.578 -65.426,67.602 -0.108,1.619 -0.17,24.898 -0.172,64.8 l -0.002,62.274 h 71.831 71.832 l -0.002,-63.116 c -0.002,-64.797 0,-64.661 -0.686,-69.684 -5.152,-37.779 -39.687,-65.395 -77.375,-61.876"
      stroke="none"
      fill="#432611"
      fill-rule="evenodd"/>
    <path
      style="fill:#782121;fill-rule:evenodd;stroke:none"
      d="m 162.48238,392.64632 c 0.64979,3.83726 0.37026,7.76144 0.3414,11.63582 0.007,2.28653 -0.0539,4.58783 -0.87661,6.7586 -0.46781,1.23431 -1.14857,2.37721 -1.70036,3.57633 -1.80425,3.72251 -3.99576,7.33063 -6.87084,10.32153 -2.52245,3.13305 -5.1657,6.18839 -8.0242,9.02156 -3.18881,3.48252 -7.24207,5.93698 -11.24143,8.36505 -0.58007,0.36792 -1.15722,0.74049 -1.74021,1.10375 -9.52204,5.93305 21.14053,-11.66942 11.32988,-6.6838 -0.59204,0.30087 -1.18655,0.59689 -1.77801,0.89889 -0.57139,0.29176 -1.14034,0.58825 -1.71052,0.88238 -8.11661,4.26509 -15.9394,9.03895 -23.86445,13.65606 -4.76423,2.77562 9.55738,-5.50184 14.30159,-8.31153 0.60591,-0.35884 -1.25559,0.63802 -1.88338,0.95703 -3.5395,1.64892 -6.9985,3.45957 -10.42637,5.32715 -9.67176,5.37436 -19.478921,10.52179 -28.802131,16.50191 -3.68286,1.86363 -6.461718,4.8731 -9.338956,7.73126 -2.784397,3.33507 -5.111143,6.97109 -7.11067,10.81932 -1.515459,3.69504 -3.41594,7.21979 -4.944409,10.90506 -1.725099,3.42718 -2.964119,7.05822 -4.266999,10.65878 -0.930999,3.08728 -1.483317,6.28557 -1.926295,9.47796 -0.41726,3.04377 -0.186111,6.1191 -0.990481,9.09963 -0.872602,2.95064 -1.479253,5.95964 -2.31596,8.92031 -1.179461,3.39196 -0.891379,7.0287 -1.622209,10.49578 -0.501773,2.76277 -0.936257,5.5373 -1.005872,8.34727 -0.06903,2.91619 -0.474345,5.78399 -0.61182,8.70277 -0.274919,3.32879 -0.433136,6.6585 -0.504633,9.99649 0.191306,3.64991 1.400962,7.10293 2.46141,10.56856 1.238037,3.49635 2.971823,6.74561 5.096059,9.77534 1.567508,2.64668 3.667875,4.87472 5.919825,6.94269 2.245673,1.84952 4.476104,3.69448 6.921356,5.27437 2.437758,1.86279 5.201095,3.27891 7.946975,4.6328 3.450242,1.59608 7.290145,1.84844 10.984059,2.52074 4.690908,0.82482 9.407581,1.45766 14.096471,2.3042 5.77026,0.87098 11.60024,1.21459 17.39277,1.92069 5.62713,0.95013 11.32293,1.2647 16.999,1.76866 4.88651,0.6208 9.79583,0.64063 14.70989,0.64917 5.52258,0.37553 11.03869,0.64251 16.57405,0.75971 5.80332,0.31851 11.57942,0.93759 17.38708,1.18666 5.88711,0.19455 11.77719,0.0712 17.66638,0.22482 4.86995,0.32862 9.71578,-0.18229 14.56214,-0.59719 5.66508,-0.53083 11.32146,-1.21075 16.94472,-2.07888 5.33065,-0.93746 10.51468,-2.52894 15.7971,-3.69672 5.05399,-0.8655 10.09221,-1.73476 14.96115,-3.3715 3.93408,-1.5773 7.78871,-3.33853 11.64316,-5.09835 2.49961,-1.45688 5.63665,-1.65764 8.14267,-3.05989 6.10552,-3.41636 12.1399,-6.95833 18.20985,-10.43749 3.48726,-1.94862 6.63494,-4.41897 10.06822,-6.45147 1.23574,-1.02401 1.73545,-1.48967 3.06381,-2.38663 0.52661,-0.35559 2.16884,-1.32478 1.61881,-1.00663 -5.0667,2.93071 -20.27362,11.70985 -15.16956,8.84471 16.41543,-9.21474 12.60493,-6.53223 19.31321,-11.35888 2.31637,-1.88758 4.22881,-4.34787 5.52857,-7.03412 1.57936,-3.11311 2.60623,-6.4925 3.68912,-9.81242 0.88589,-2.98838 1.20264,-6.12935 1.25566,-9.23747 -0.11973,-3.21473 0.013,-6.43009 -0.0202,-9.64494 0.22718,-3.78669 -0.35181,-6.62649 -1.757,-10.12518 -1.21541,-3.98029 -2.68431,-7.84776 -4.38407,-11.64586 -1.40072,-4.01676 -3.42488,-7.72507 -5.8913,-11.17337 -2.99969,-4.678 -5.82146,-9.43161 -9.24429,-13.8145 -2.86773,-4.31913 -5.68026,-8.67478 -8.5234,-13.01093 -2.1258,-3.46409 -4.53218,-6.70967 -7.04799,-9.89803 -2.50551,-3.62422 -5.57434,-6.75845 -8.51125,-10.02007 -2.37759,-2.42099 -3.77807,-5.54031 -5.70934,-8.2695 -0.30595,-0.43235 -2.60173,-3.19009 -2.95258,-3.61389 -2.73054,-3.11705 -5.04079,-6.53237 -7.16475,-10.07885 -1.89952,-2.87873 -4.03677,-5.60646 -6.14377,-8.33878 -3.25992,-3.18558 -6.80912,-6.06647 -10.019,-9.3269 -3.7801,-3.56506 -6.75294,-7.75575 -8.76703,-12.53291 -1.74615,-3.86423 -2.74714,-7.9089 -2.92255,-12.13521 -0.31546,-4.4986 0.78666,-8.85897 1.51064,-13.25906 0.29907,-2.57765 0.77298,-5.17426 1.54445,-7.65535 0,0 -17.90961,8.56672 -17.90961,8.56672 v 0 c -0.52438,2.55054 -0.89539,5.1319 -1.16787,7.72147 -0.49003,4.44442 -0.95346,8.8859 -0.99596,13.36496 0.10188,4.53803 1.09253,8.75802 3.50768,12.66678 2.31707,4.82787 4.86752,9.70079 9.14078,13.09865 3.15448,3.1353 6.01393,6.54173 9.24457,9.58323 2.22864,2.53137 3.92102,5.48494 6.16036,8.0167 2.26338,3.59684 4.78283,6.94922 7.54681,10.18311 3.17457,3.73624 5.91719,7.7964 8.88438,11.69522 2.52448,3.57837 5.54152,6.71313 8.15018,10.22351 2.49478,3.16748 4.6057,6.61414 7.15582,9.73609 0.74314,0.94354 2.32382,2.91306 2.96549,3.88726 1.96518,2.98359 3.61311,6.19217 5.82013,9.02097 3.22643,4.4086 6.55378,8.79726 9.14916,13.61027 1.73889,3.76526 3.74293,7.3823 5.41779,11.17467 1.56384,3.79518 2.91627,7.66585 4.22667,11.55516 0.87372,3.20947 1.30793,6.41523 1.11821,9.75215 -0.013,3.20363 0.16675,6.41062 -0.0979,9.61008 -0.18325,2.91792 -0.34699,5.84473 -1.26251,8.64966 -1.03256,3.29759 -2.27686,6.53773 -4.03572,9.52427 -1.61017,2.41933 -3.44358,4.67083 -5.9449,6.22607 -0.38362,0.24446 -1.54609,0.95861 -1.15086,0.7334 5.18574,-2.95499 20.61799,-12.03356 15.52374,-8.9235 -7.73897,4.72468 -15.69704,8.38718 -22.79114,13.85342 -3.45313,2.25564 -6.83833,4.61863 -10.48313,6.56538 5.22734,-2.98093 10.45468,-5.96186 15.68202,-8.94279 -0.47212,0.25808 -0.9265,0.55165 -1.41636,0.77425 -2.241,1.01833 -4.72161,1.48195 -6.96932,2.49504 -3.92518,1.8004 -7.83844,3.62111 -11.7854,5.37193 -4.72681,2.00223 -9.66766,3.07919 -14.77559,3.5782 -5.36764,1.19707 -10.58761,2.97896 -15.99787,4.0071 -5.57698,0.84398 -11.1473,1.74007 -16.77444,2.16267 -4.85495,0.18158 -9.68478,0.77556 -14.54854,0.73654 -5.87179,0.12189 -11.73767,0.0183 -17.60689,-0.17946 -5.89363,-0.21896 -11.78287,-0.51637 -17.66093,-1.00779 -5.42039,-0.23389 -10.82584,-0.68685 -16.23802,-1.05865 -4.974,-0.0693 -9.94807,-0.20091 -14.92046,-0.34301 -5.69977,-0.34721 -11.31363,-1.33437 -17.01424,-1.66466 -5.65344,-0.62252 -11.28831,-1.34475 -16.91325,-2.1652 -4.67041,-0.63307 -9.26026,-1.69135 -13.91711,-2.39006 -3.47925,-0.58596 -6.95329,-1.22249 -10.277991,-2.42757 -2.777726,-1.0892 -5.388711,-2.61069 -7.807247,-4.35204 -2.369209,-1.53622 -4.489689,-3.33331 -6.678445,-5.11621 -2.267726,-1.79117 -4.253139,-3.99306 -5.923143,-6.34471 -1.96046,-2.8833 -3.752638,-5.92185 -4.901524,-9.22861 -1.110469,-3.27113 -1.830687,-6.68505 -1.887452,-10.15033 0.01959,-3.24784 0.05065,-6.50329 0.325559,-9.74097 0.390259,-2.97765 1.018973,-5.92087 0.942917,-8.94263 0.235113,-2.7108 0.456266,-5.42292 0.904761,-8.10977 0.250848,-3.43993 0.571961,-6.87225 1.608218,-10.18486 0.881486,-3.02056 1.811065,-6.02305 2.433203,-9.11222 0.542048,-3.04869 0.459642,-6.13252 0.860513,-9.20111 0.456689,-3.09373 1.19349,-6.13769 2.074001,-9.13762 1.150256,-3.55123 2.418628,-7.04002 4.073801,-10.39363 1.652294,-3.58221 3.348374,-7.14365 4.960638,-10.74485 2.059842,-3.73665 4.412119,-7.31165 7.451891,-10.33831 2.77991,-2.75728 5.7305,-5.30324 9.18074,-7.20536 6.54062,-3.98434 3.88516,-2.34403 -12.252228,6.9899 -0.665611,0.38499 1.334977,-0.76378 2.011686,-1.12891 4.020342,-2.16927 0.206419,-0.0131 4.219882,-2.22294 0.66766,-0.36761 1.32569,-0.75243 1.98853,-1.12864 3.45195,-1.85422 6.89732,-3.71881 10.42353,-5.42863 8.40724,-3.94605 1.78469,-0.76891 20.45155,-11.54141 4.78472,-2.76122 -9.58379,5.49751 -14.37192,8.25283 -1.16229,0.66884 2.36277,-1.26908 3.5501,-1.89238 0.5785,-0.3037 1.14405,-0.63147 1.71607,-0.9472 1.72221,-0.95542 3.53262,-1.75008 5.24485,-2.718 7.32164,-4.13892 14.7273,-8.08058 21.78325,-12.63983 3.96917,-2.55039 7.7382,-5.34176 11.0221,-8.75746 2.84148,-2.91301 5.49346,-5.99749 8.05718,-9.15657 2.67811,-3.29656 4.87313,-6.96883 6.63723,-10.8319 1.67271,-3.61219 2.85825,-7.10012 2.32184,-11.14204 -0.03,-3.99268 -0.28444,-8.02252 0.34139,-11.98373 0,0 -17.99789,9.17039 -17.99789,9.17039 z"/>
    <path
      style="fill:#782121;fill-rule:evenodd;stroke:none;stroke-width:0.353553;stroke-opacity:1"
      d="m 156.6786,604.30264 c -2.62513,-0.13573 -7.15946,-0.51259 -10.07627,-0.83746 -2.91682,-0.32487 -7.53069,-0.83149 -10.25305,-1.12582 -11.2491,-1.21621 -30.58669,-4.35404 -35.82428,-5.81306 -5.221433,-1.45451 -9.562626,-4.01429 -16.567417,-9.76898 -6.066331,-4.9837 -10.484239,-11.80378 -12.307523,-18.99957 -0.779199,-3.07519 -0.884688,-4.23688 -0.882885,-9.72272 0.0011,-3.42663 0.159833,-7.18483 0.352683,-8.35156 0.192849,-1.16672 0.512431,-4.26916 0.710182,-6.89429 0.337222,-4.47661 0.601413,-6.94831 1.437373,-13.44771 0.188479,-1.46538 1.058143,-5.28376 1.932586,-8.48528 1.230569,-4.50537 1.708673,-7.05949 2.115438,-11.30103 0.991281,-10.33656 2.403071,-14.90071 8.914418,-28.81926 4.590881,-9.81339 7.231708,-13.61613 12.789908,-18.41719 2.527307,-2.18303 4.125167,-3.14437 10.606607,-6.38137 4.19706,-2.09612 8.58562,-4.39457 9.75235,-5.10767 1.16672,-0.7131 4.5078,-2.56605 7.42462,-4.11765 14.57808,-7.75483 26.30186,-14.97756 31.28947,-19.27665 4.88898,-4.21408 12.2824,-13.00642 15.37997,-18.29004 3.4824,-5.94004 4.76231,-9.94934 4.76838,-14.93696 l 0.004,-3.44715 h 26.72137 26.72137 l -0.19274,0.97227 c -0.45287,2.2844 -1.00904,9.79087 -1.02817,13.87698 -0.0271,5.78542 0.57681,8.18348 3.51689,13.96535 3.51686,6.91614 4.7876,8.61604 11.76117,15.73313 5.9281,6.0501 9.83241,10.76798 15.05646,18.19393 0.95213,1.35344 3.02056,4.05812 4.59651,6.01041 1.57595,1.95228 5.28475,6.73158 8.24177,10.62067 2.95702,3.88909 6.76665,8.84457 8.46584,11.01218 5.07093,6.46888 11.50437,15.31255 13.33636,18.33275 0.94362,1.55564 2.9346,4.49897 4.4244,6.54074 6.94505,9.5182 11.9733,18.80031 15.70903,28.9988 2.60511,7.11192 3.06824,9.32864 3.28548,15.7257 0.15802,4.65357 -0.36936,15.25818 -0.7792,15.66802 -0.0819,0.0819 -0.99182,-0.55548 -2.02207,-1.41639 -3.41379,-2.85263 -10.3434,-7.6721 -12.19863,-8.48401 -0.58354,-0.25537 -2.57512,-1.32783 -4.42574,-2.38324 l -3.36478,-1.91891 -0.19578,-5.15215 c -0.13151,-3.4609 -0.43771,-6.12091 -0.93276,-8.10331 l -0.73698,-2.95116 2.46365,-2.63804 c 3.76981,-4.03669 5.89441,-8.9313 5.60663,-12.91649 -0.0835,-1.15694 -0.26839,-1.54818 -0.77712,-1.64478 -0.36712,-0.0697 -2.69184,0.84752 -5.16603,2.0383 -2.4742,1.19078 -5.39512,2.35311 -6.49093,2.58296 l -1.99237,0.4179 -1.32687,-1.25481 c -4.92438,-4.65696 -12.42328,-9.17074 -21.68615,-13.05342 -2.4142,-1.01195 -5.26924,-2.28095 -6.34455,-2.82001 l -1.9551,-0.98011 -0.82726,-3.48135 c -2.17163,-9.13879 -5.54928,-17.21812 -9.25129,-22.12903 -2.14651,-2.84746 -7.62965,-7.99507 -12.11323,-11.37199 -6.77142,-5.10007 -13.23258,-7.18735 -19.46082,-6.28684 -2.98615,0.43175 -3.0752,0.422 -10.57671,-1.15828 -4.16086,-0.87654 -9.45974,-2.0758 -11.77529,-2.66503 -5.93128,-1.50931 -8.22463,-1.77634 -15.32402,-1.78431 -6.11968,-0.007 -14.32163,0.72314 -16.46324,1.46529 -1.74941,0.60624 -8.4354,0.77173 -15.24625,0.37737 -10.92669,-0.63267 -17.77883,0.259 -23.64462,3.07686 -3.91241,1.87948 -9.93917,6.31099 -10.86876,7.99187 -0.24472,0.44249 -1.20948,1.73976 -2.14391,2.88282 -6.76124,8.27084 -10.867812,20.1169 -12.976797,37.43363 -0.921096,7.56306 -1.398483,10.38041 -1.801072,10.62922 -0.174324,0.10774 -0.316953,0.45219 -0.316953,0.76544 0,0.31325 -0.994369,1.63113 -2.209709,2.92861 -3.139141,3.35132 -3.587579,3.94193 -5.17107,6.81051 -2.370373,4.29406 -3.035729,7.28828 -3.04238,13.69123 -0.0052,5.01119 0.06233,5.60744 0.789316,6.96859 0.437254,0.81869 0.795008,1.79689 0.795008,2.17377 0,1.13405 3.023948,6.77633 5.048163,9.41919 4.548724,5.93893 13.570094,11.48226 22.487784,13.81799 1.28663,0.33699 2.46692,0.72312 2.62289,0.85807 0.15597,0.13495 0.0897,1.29779 -0.14735,2.58408 -0.38409,2.08452 -0.36088,2.49405 0.2135,3.76781 1.46195,3.24201 6.17193,6.27381 12.20142,7.854 2.46436,0.64585 3.95963,0.78759 8.3085,0.7876 6.06559,10e-6 8.77981,-0.5288 16.55956,-3.22629 2.49631,-0.86555 4.61406,-1.49841 4.70611,-1.40635 0.0921,0.0921 -0.18023,1.3118 -0.60508,2.71054 -1.2998,4.2793 -0.4885,6.92445 2.88285,9.39925 2.17005,1.59296 5.97781,3.22511 8.50321,3.64478 1.64486,0.27335 1.35876,0.31292 -2.17138,0.30036 -2.23623,-0.008 -6.21371,-0.12552 -8.83884,-0.26125 z"
      transform="translate(2.105,2.1939974)"/>
    <path
      style="fill:#782121;fill-rule:evenodd;stroke:none;stroke-width:0.353553;stroke-opacity:1"
      d="m 205.29219,606.75235 c -4.47245,-0.15034 -10.43866,-0.43855 -13.25825,-0.64047 -2.81959,-0.20191 -8.3085,-0.56662 -12.19759,-0.81047 -6.54554,-0.4104 -6.88714,-0.46415 -4.5962,-0.72313 3.17605,-0.35905 5.37,-0.97871 10.60661,-2.99573 5.17428,-1.99302 13.14051,-6.03509 19.87841,-10.08632 2.94366,-1.7699 5.72929,-3.18179 6.71751,-3.40475 0.92859,-0.20951 4.71123,-0.62659 8.40586,-0.92685 13.01946,-1.05809 24.25249,-2.84736 33.50096,-5.33626 3.37311,-0.90775 3.8921,-0.96708 4.5962,-0.52547 4.91914,3.0853 8.73471,4.32329 13.33043,4.32515 4.20612,0.002 5.72926,-0.42929 12.14438,-3.43637 3.09162,-1.44919 6.73351,-2.97277 8.0931,-3.38573 3.82155,-1.16076 6.17073,-0.70263 13.44463,2.62195 3.14878,1.43917 3.38738,1.61647 2.82843,2.10177 -1.62142,1.40778 -9.32043,6.19272 -11.04027,6.86152 -1.0695,0.4159 -4.7511,2.03361 -8.18134,3.5949 -7.49123,3.40968 -11.56289,4.75704 -16.74417,5.54086 -2.139,0.32358 -6.01893,1.14468 -8.62206,1.82467 -2.60314,0.67999 -5.96589,1.5432 -7.47277,1.91824 -3.30828,0.82339 -13.07737,2.26475 -18.90696,2.78959 -4.43627,0.3994 -20.05725,1.09318 -22.80419,1.0128 -0.87504,-0.0256 -5.25027,-0.16956 -9.72272,-0.3199 z"
      transform="translate(2.105,2.1939974)"/>
    <path
      style="fill:#782121;fill-rule:evenodd;stroke:none;stroke-width:0.015625;stroke-opacity:1"
      d="m 234.92599,606.35439 v -0.0765 l 0.13671,-0.01 c 0.0752,-0.005 0.35469,-0.0238 0.6211,-0.0412 1.04042,-0.0676 1.91864,-0.13717 2.76562,-0.219 5.4827,-0.52966 13.92587,-1.76417 17.58594,-2.57131 0.7297,-0.16091 3.89594,-0.96443 7.39844,-1.87755 l 0.46875,-0.12221 0.005,0.0694 c 0.003,0.0382 -8.4e-4,0.0746 -0.008,0.0809 -0.0122,0.011 -3.1397,0.86628 -4.10642,1.12296 -2.39753,0.63658 -4.17801,1.05966 -5.85156,1.39045 -0.83343,0.16473 -6.82888,1.06277 -9.34375,1.39957 -3.4101,0.45669 -6.74092,0.8038 -8.40625,0.87604 -0.30508,0.0132 -0.6707,0.0308 -0.8125,0.0392 -0.1418,0.008 -0.30176,0.0151 -0.35547,0.0152 l -0.0976,1.5e-4 z"
      transform="translate(2.105,2.1939974)"/>
    <path
      style="fill:#782121;fill-rule:evenodd;stroke:none;stroke-width:0.03125;stroke-opacity:1"
      d="m 213.79266,607.11778 c -3.8825,-0.038 -11.31401,-0.25541 -13.77344,-0.40305 -0.31208,-0.0187 -0.32031,-0.0212 -0.32031,-0.0944 0,-0.0507 0.0177,-0.0751 0.0547,-0.0751 0.0301,3e-5 0.51875,0.021 1.08594,0.0465 2.09932,0.0945 8.69853,0.32554 12.95313,0.45346 0.59297,0.0178 1.19765,0.0361 1.34375,0.0407 1.85124,0.0575 12.35409,-0.35449 18.57796,-0.72867 1.27798,-0.0768 1.20329,-0.0768 1.20329,-9e-4 0,0.0789 -0.0102,0.0803 -1.0625,0.14168 -0.47266,0.0276 -1.75235,0.11243 -2.84375,0.18857 -2.16635,0.15113 -3.65659,0.24688 -4.57813,0.29414 -2.24458,0.11511 -8.23715,0.18007 -12.64062,0.13704 z"
      transform="translate(2.105,2.1939974)"/>
    <path
      style="fill:#782121;fill-rule:evenodd;stroke:none;stroke-width:0.03125;stroke-opacity:1"
      d="m 72.778839,572.03458 c -1.032878,-2.589 -1.83445,-5.75913 -2.155168,-8.52344 -0.164842,-1.4208 -0.173895,-1.63855 -0.170197,-4.09375 0.0046,-3.05628 0.07627,-5.38672 0.233033,-7.57812 0.0634,-0.88619 0.114583,-1.284 0.482522,-3.75 0.214018,-1.4344 0.33636,-2.3938 0.420386,-3.29665 0.0678,-0.72855 0.142583,-2.44633 0.111829,-2.56886 -0.01005,-0.04 0.02442,-0.56128 0.0766,-1.15833 0.264947,-3.03172 0.421828,-4.47553 0.673611,-6.19936 0.05935,-0.40635 0.107913,-0.74737 0.107913,-0.75781 0,-0.0104 0.02109,-0.019 0.04687,-0.019 0.05423,0 0.05614,0.0358 0.01665,0.3125 -0.181497,1.27197 -0.540412,4.94624 -0.766206,7.84375 -0.243067,3.11917 -0.486693,5.57647 -0.703301,7.09375 -0.143391,1.00441 -0.205023,1.73785 -0.280982,3.34375 -0.144398,3.0528 -0.1603,8.31048 -0.03124,10.32812 0.100368,1.56907 0.297357,2.77158 0.745345,4.5499 0.386074,1.53254 0.818272,2.87626 1.378582,4.28604 l 0.270138,0.67969 h -0.130018 -0.130017 z"
      transform="translate(2.105,2.1939974)"/>
    <path
      style="fill:#782121;fill-rule:evenodd;stroke:none;stroke-width:0.0625;stroke-opacity:1"
      transform="translate(2.105,2.1939974)"/>
    <path
      style="fill:#782121;fill-rule:evenodd;stroke:none;stroke-width:0.0625;stroke-opacity:1"
      transform="translate(2.105,2.1939974)"/>
    <path
      style="fill:#782121;fill-rule:evenodd;stroke:none;stroke-width:0.0625;stroke-opacity:1"
      d="m 297.09481,590.7067 c 1.04964,-0.44902 1.49837,-0.66631 2.32642,-1.12655 1.1343,-0.63045 2.52958,-1.46169 4.09956,-2.44231 0.6296,-0.39325 1.15611,-0.70361 1.17003,-0.6897 0.0139,0.0139 -0.6559,0.47866 -1.48848,1.03277 -0.83258,0.55411 -1.93679,1.31587 -2.4538,1.69279 l -0.94003,0.68533 -1.42589,0.47572 c -1.38778,0.46301 -1.73532,0.56338 -1.28781,0.37195 z"
      transform="translate(2.105,2.1939974)"/>
    <g transform="matrix(0.06295039,0,0,0.06295039,85.237795,458.85145)">
      <g fill="#e05f40">
        <g>
          <path
            d="m 1333,2340 c -22,-5 -58,-18 -80,-29 -100,-53 -119,-103 -77,-205 6,-16 4,-18 -14,-14 -18,5 -22,2 -22,-17 0,-13 7,-25 15,-29 8,-3 15,-13 15,-21 0,-21 24,-45 44,-45 9,0 16,-7 16,-15 0,-8 6,-15 14,-15 8,0 16,-6 19,-13 3,-8 37,-19 78,-26 41,-7 97,-19 124,-26 28,-7 95,-23 150,-35 55,-13 109,-29 120,-37 26,-18 23,-17 -112,16 -166,42 -273,61 -380,68 l -93,6 v -38 c 0,-32 7,-45 39,-74 65,-60 96,-139 112,-281 9,-86 8,-105 -11,-180 -22,-92 -53,-164 -83,-195 -70,-73 -80,-203 -29,-370 57,-184 99,-285 176,-420 72,-127 120,-182 212,-240 33,-20 71,-48 86,-62 19,-18 32,-23 45,-18 15,6 230,54 326,72 40,8 35,36 -10,52 -55,20 -127,99 -149,163 -28,78 -24,185 10,273 26,68 75,175 86,185 3,3 16,28 30,55 14,28 28,51 33,53 4,2 7,12 7,23 0,10 3,19 8,19 13,0 49,110 77,234 15,66 38,140 52,165 20,38 23,55 18,94 -4,31 -2,47 5,47 6,0 21,10 34,23 52,51 147,79 226,66 104,-16 250,-145 250,-221 0,-10 4,-18 9,-18 18,0 47,-155 31,-165 -7,-4 -11,-50 -11,-123 0,-65 -2,-143 -5,-176 -6,-60 8,-96 25,-67 5,7 59,33 120,57 62,24 144,62 182,85 64,37 176,120 190,141 11,17 76,-1 152,-42 86,-47 94,-44 84,30 -7,57 -42,123 -88,168 l -40,39 15,60 c 9,34 16,93 16,131 v 71 l 61,36 c 33,19 62,35 65,35 13,0 175,114 210,148 43,42 54,72 54,149 0,79 -67,142 -137,128 -18,-3 -70,-24 -115,-46 -121,-58 -165,-56 -308,16 -86,44 -123,57 -173,62 -74,7 -156,-14 -213,-52 -20,-14 -41,-25 -45,-25 -5,0 -46,11 -91,24 -108,31 -314,63 -503,77 -149,11 -150,11 -210,50 -153,98 -344,190 -457,217 -53,13 -122,14 -185,2 z M 1690,793 c 37,-17 59,-42 24,-29 -9,3 -57,6 -107,7 l -92,1 40,19 c 50,23 84,24 135,2 z"/>
          <path
            d="m 790,928 c -15,-6 -91,-10 -182,-9 l -158,1 v -35 c 0,-18 5,-37 10,-40 6,-3 7,-23 4,-44 -6,-39 21,-171 38,-182 5,-3 13,-34 18,-68 12,-84 25,-126 75,-233 46,-100 198,-232 298,-259 22,-6 48,-15 57,-21 13,-8 36,-8 81,-1 58,9 179,3 217,-12 28,-11 9,45 -38,110 -102,139 -172,321 -206,532 -38,244 -53,273 -137,272 -29,0 -63,-5 -77,-11 z m 55,-213 30,-25 -28,10 c -16,5 -61,10 -100,10 -68,1 -70,2 -47,15 41,24 110,19 145,-10 z"/>
          <path
            d="m 451,201 c 7,-10 20,-23 30,-30 17,-10 19,-8 19,19 0,27 -3,30 -30,30 -27,0 -29,-2 -19,-19 z"/>
        </g>
      </g>
      <g fill="#a62e1a">
        <g>
          <path
            d="m 692,2150 c -85,-22 -148,-61 -175,-108 -16,-27 -18,-39 -9,-73 8,-32 7,-41 -4,-46 -39,-15 4,-19 199,-19 210,-1 213,-1 317,-33 178,-55 222,-64 182,-35 -25,17 -29,34 -7,34 8,0 15,-4 15,-10 0,-5 7,-10 15,-10 8,0 15,5 15,11 0,5 4,8 9,4 5,-3 36,-8 68,-10 60,-6 241,-44 353,-75 171,-46 328,-155 441,-305 24,-32 39,-61 35,-70 -3,-8 -1,-15 4,-15 4,0 -3,-21 -17,-47 -14,-27 -28,-61 -30,-78 -3,-16 -8,-32 -11,-35 -4,-3 -8,-18 -9,-34 -1,-16 -5,-37 -9,-45 -3,-9 -8,-34 -10,-56 -3,-22 -9,-41 -14,-43 -5,-2 -6,-10 -3,-18 3,-8 -1,-14 -8,-14 -7,0 -9,-3 -6,-6 3,-4 1,-16 -5,-28 -7,-11 -11,-24 -10,-28 1,-5 -2,-8 -8,-8 -5,0 -10,-9 -10,-19 0,-11 -3,-21 -7,-23 -5,-2 -19,-25 -33,-53 -14,-27 -27,-52 -30,-55 -9,-9 -58,-113 -78,-165 -10,-27 -22,-59 -27,-70 -4,-11 -7,-30 -6,-42 1,-13 -1,-23 -6,-23 -13,0 3,-169 21,-217 8,-24 13,-43 10,-43 -3,0 17,-23 45,-50 28,-28 47,-50 43,-50 -29,-2 117,-42 170,-47 139,-12 253,45 431,216 95,92 150,198 198,384 27,101 32,151 29,295 -1,77 2,118 10,128 21,24 -7,224 -32,224 -4,0 -8,8 -8,18 0,55 -111,173 -198,209 -102,43 -266,16 -339,-55 l -24,-24 -19,23 c -11,12 -20,25 -20,30 0,16 -125,147 -181,189 -18,14 -40,32 -48,41 -30,29 -166,87 -256,108 -49,12 -115,28 -145,35 -30,8 -88,20 -129,27 -41,7 -75,18 -78,26 -3,7 -11,13 -19,13 -8,0 -14,7 -14,15 0,8 -9,15 -21,15 -11,0 -17,5 -14,10 3,6 -1,10 -9,10 -9,0 -13,6 -10,15 8,19 -43,49 -136,79 -157,51 -255,58 -378,26 z"/>
          <path
            d="m 170,1035 c 0,-8 4,-15 8,-15 5,0 14,-55 21,-122 C 234,558 311,352 460,200 583,74 699,30 905,31 c 109,1 209,16 119,18 -25,1 -44,6 -47,15 -3,7 -25,18 -49,24 -103,26 -256,158 -304,262 -9,19 -22,47 -29,62 -14,29 -41,138 -50,201 -3,20 -10,37 -16,37 -6,0 -7,5 -4,10 4,6 1,18 -6,26 -7,8 -12,30 -11,49 1,19 -2,35 -6,35 -4,0 -6,20 -4,45 3,26 -1,52 -8,60 -11,13 -8,15 16,15 h 28 l -30,28 c -16,15 -57,35 -89,46 -33,10 -92,33 -131,52 -77,37 -114,43 -114,19 z"/>
        </g>
      </g>
      <g fill="#f9c68b">
        <g>
          <path
            d="M 540,1931 C 385,1902 246,1834 149,1740 98,1690 30,1578 30,1542 c 0,-10 -5,-23 -11,-29 -20,-20 -23,-153 -4,-228 10,-38 20,-72 24,-75 3,-3 15,-22 25,-42 11,-21 23,-38 28,-38 4,0 8,-6 8,-12 0,-7 16,-26 35,-41 19,-15 35,-33 35,-40 0,-14 131,-77 215,-103 33,-10 65,-24 70,-31 22,-27 251,-25 401,3 60,11 82,-39 118,-269 22,-138 60,-268 108,-367 44,-92 141,-235 165,-244 8,-4 68,-11 133,-18 123,-12 302,0 323,21 15,15 -15,46 -97,99 -104,68 -148,117 -222,247 -104,182 -204,460 -207,570 -1,53 26,125 60,160 55,57 104,229 102,357 -1,143 -48,290 -109,350 -47,44 -74,58 -182,90 -95,27 -118,30 -283,33 -99,2 -200,0 -225,-4 z m 149,-697 c 25,-7 59,-24 76,-38 26,-21 28,-26 15,-41 -31,-37 -144,-75 -226,-75 -66,0 -214,63 -214,91 0,20 74,61 131,74 69,15 143,12 218,-11 z"/>
        </g>
      </g>
      <g fill="#050c06">
        <g>
          <path
            d="m 635,1648 c -11,-6 -30,-20 -43,-31 l -22,-21 -39,22 c -43,24 -116,29 -142,9 -23,-17 -41,-56 -35,-73 9,-22 24,-16 41,16 13,26 21,30 55,30 27,0 47,-7 60,-20 24,-24 24,-22 5,-84 -8,-27 -15,-86 -15,-130 v -81 l -61,-12 c -76,-14 -133,-56 -137,-100 -4,-38 39,-73 126,-102 139,-47 347,-9 392,72 13,24 13,30 0,54 -22,39 -93,71 -187,85 l -82,12 -7,41 c -13,89 33,221 91,259 85,56 205,2 221,-100 5,-35 10,-44 26,-44 19,0 20,4 14,48 -7,56 -49,118 -97,144 -38,20 -132,24 -164,6 z"/>
          <path
            d="m 1532,825 c -46,-20 -81,-64 -82,-102 0,-39 2,-40 41,-11 48,36 160,38 233,5 45,-21 57,-23 66,-12 24,29 -12,90 -72,118 -44,21 -140,22 -186,2 z"/>
          <path
            d="m 735,776 c -5,-3 -23,-7 -39,-11 -42,-9 -96,-68 -96,-105 0,-36 4,-37 55,-5 54,33 122,33 194,0 61,-29 81,-27 81,7 0,53 -63,104 -136,112 -27,3 -53,4 -59,2 z"/>
        </g>
      </g>
    </g>
  </g>
  <g transform="translate(-2.105,-2.1939974)">
    <path
      d="m 192.337,159.762 c -34.635,3.419 -62.693,29.857 -68.2,64.261 -0.997,6.227 -0.922,0.496 -0.977,75.051 l -0.051,68.084 h 76.554 76.553 l -0.048,-68.505 c -0.052,-75.708 0.044,-68.928 -1.063,-75.484 -6.646,-39.362 -43.14,-67.319 -82.768,-63.407 m 10.625,6.131 c 33.605,1.632 61.432,26.062 67.433,59.202 1.084,5.982 0.996,0.047 1.053,71.116 l 0.051,64.547 h -71.836 -71.837 l 0.054,-64.211 c 0.059,-69.398 0,-64.62 0.879,-70.083 4.84,-30.08 28.107,-53.976 57.898,-59.466 4.13,-0.761 5.941,-0.941 12.501,-1.242 0.278,-0.013 1.99,0.048 3.804,0.137 M 50.189,397.305 c 0,2.594 0.033,4.716 0.072,4.716 0.1,0 15.302,-9.109 15.499,-9.287 0.089,-0.081 -3.318,-0.145 -7.705,-0.145 h -7.866 v 4.716 m 284.677,-4.615 c 0.055,0.056 3.554,2.169 7.775,4.697 l 7.675,4.596 v -4.697 -4.697 h -7.776 c -4.276,0 -7.73,0.046 -7.674,0.101"
      stroke="none"
      fill="#9c744b"
      fill-rule="evenodd"/>
  </g>
  <g transform="translate(-2.105,-2.1939974)">
    <path
      d="m 198.668,54.531 -1.164,0.964 1.374,0.049 c 0.756,0.027 1.993,0.027 2.749,0 l 1.375,-0.049 -1.136,-0.969 c -1.457,-1.243 -1.692,-1.242 -3.198,0.005 m -27.548,23.153 -1.241,1.053 15.187,0.043 c 8.353,0.023 22.023,0.023 30.379,0 l 15.193,-0.043 -1.256,-1.05 -1.256,-1.049 -27.882,-0.003 -27.882,-0.003 -1.242,1.052 m -9.335,7.832 -1.153,0.968 19.811,0.043 c 10.895,0.024 28.72,0.024 39.609,0 l 19.8,-0.043 -1.177,-0.968 -1.177,-0.969 h -37.281 -37.28 l -1.152,0.969 m -27.433,23.044 c -0.622,0.517 -1.131,0.971 -1.131,1.011 0,0.039 30.169,0.071 67.041,0.071 h 67.041 l -1.171,-1.01 -1.171,-1.011 h -64.739 -64.738 l -1.132,0.939 m -9.416,7.903 -1.216,1.011 38.28,0.042 c 21.054,0.024 55.453,0.024 76.443,0 l 38.163,-0.042 -1.069,-0.927 -1.069,-0.926 -74.159,-0.084 -74.158,-0.084 -1.215,1.01 m -27.517,23.116 -1.135,0.968 51.998,0.043 c 28.599,0.023 75.351,0.023 103.894,0 l 51.895,-0.043 -1.167,-0.968 -1.167,-0.968 H 200.145 98.553 l -1.134,0.968 m -9.327,7.835 -1.256,1.049 56.722,0.043 c 31.197,0.023 82.192,0.023 113.321,0 l 56.6,-0.043 -1.273,-1.052 -1.273,-1.053 -110.793,0.003 -110.793,0.003 -1.255,1.05 m -27.469,23.07 -1.251,1.053 49.406,0.042 49.406,0.043 1.455,-0.871 c 0.801,-0.48 1.605,-0.972 1.788,-1.095 0.277,-0.187 -8.009,-0.224 -49.611,-0.224 H 61.873 l -1.25,1.052 m 177.28,-0.916 c 0.088,0.075 0.852,0.568 1.698,1.095 l 1.539,0.959 49.857,-0.043 49.856,-0.042 -1.235,-1.053 -1.235,-1.052 h -50.32 c -27.676,0 -50.248,0.061 -50.16,0.136 M 51.41,178.209 c -0.579,0.474 -1.052,0.928 -1.052,1.01 0,0.086 20.673,0.146 48.968,0.141 l 48.969,-0.007 1.091,-1.003 1.091,-1.003 H 101.469 52.462 l -1.052,0.862 m 198.639,0.149 1.138,1.01 h 49.396 c 27.168,0 49.396,-0.033 49.396,-0.073 0,-0.041 -0.497,-0.495 -1.104,-1.011 l -1.105,-0.937 h -49.43 -49.43 l 1.139,1.011 M 50.358,201.516 v 1.095 h 40.25 40.25 l 0.508,-1.006 c 0.279,-0.553 0.508,-1.046 0.508,-1.095 0,-0.049 -18.341,-0.089 -40.758,-0.089 H 50.358 v 1.095 m 217.638,0 0.539,1.095 h 40.891 40.89 v -1.095 -1.095 h -41.43 -41.43 l 0.54,1.095 m -217.638,7.831 v 1.011 h 38.619 38.619 l 0.364,-1.011 0.363,-1.01 H 89.341 50.358 v 1.01 m 220.861,-0.621 c 0.054,0.213 0.214,0.668 0.357,1.01 l 0.26,0.622 h 39.24 39.24 v -1.011 -1.01 h -39.597 -39.598 l 0.098,0.389 M 50.358,232.421 v 1.011 h 36.357 36.357 l 0.104,-0.632 c 0.058,-0.347 0.105,-0.802 0.106,-1.011 l 0.002,-0.378 H 86.821 50.358 v 1.01 m 225.853,0 v 1.011 h 37.052 37.053 v -1.011 -1.01 h -37.053 -37.052 v 1.01 m -225.853,7.832 v 1.094 h 36.379 36.379 v -1.094 -1.095 H 86.737 50.358 v 1.095 m 225.965,-0.983 c -0.062,0.062 -0.112,0.555 -0.112,1.095 v 0.982 h 37.052 37.053 v -1.094 -1.095 h -36.941 c -20.317,0 -36.99,0.05 -37.052,0.112 M 50.358,263.411 v 1.01 h 36.379 36.379 v -1.01 -1.011 H 86.737 50.358 v 1.011 m 225.853,0 v 1.01 h 37.052 37.053 v -1.01 -1.011 h -37.053 -37.052 v 1.011 m -225.853,7.831 v 1.095 h 36.379 36.379 v -1.095 -1.095 H 86.737 50.358 v 1.095 m 225.887,-0.042 0.05,1.053 37.01,0.042 37.011,0.043 v -1.096 -1.095 h -37.061 -37.061 l 0.051,1.053 M 50.358,294.316 v 1.095 h 36.379 36.379 v -1.095 -1.095 H 86.737 50.358 v 1.095 m 225.853,0 v 1.095 h 37.052 37.053 v -1.095 -1.095 h -37.053 -37.052 v 1.095 m -225.853,7.831 v 1.011 h 36.379 36.379 v -1.011 -1.01 H 86.737 50.358 v 1.01 m 225.853,0 v 1.011 h 37.052 37.053 v -1.011 -1.01 h -37.053 -37.052 v 1.01 M 50.358,325.221 v 1.011 h 36.379 36.379 v -1.011 -1.01 H 86.737 50.358 v 1.01 m 225.853,0 v 1.011 h 37.052 37.053 v -1.011 -1.01 h -37.053 -37.052 v 1.01 m -225.853,7.916 v 1.01 h 36.379 36.379 v -1.01 -1.011 H 86.737 50.358 v 1.011 m 225.853,0 v 1.01 h 37.052 37.053 v -1.01 -1.011 h -37.053 -37.052 v 1.011 M 50.358,356.211 v 1.01 h 36.379 36.379 v -1.01 -1.011 H 86.737 50.358 v 1.011 m 225.853,0 v 1.01 h 37.052 37.053 v -1.01 -1.011 h -37.053 -37.052 v 1.011 m -225.853,7.831 v 1.095 h 36.379 36.379 v -1.095 -1.095 H 86.737 50.358 v 1.095 m 225.965,-0.982 c -0.062,0.061 -0.112,0.554 -0.112,1.094 v 0.983 h 37.052 37.053 v -1.095 -1.095 h -36.941 c -20.317,0 -36.99,0.051 -37.052,0.113 M 50.358,387.2 v 1.011 H 200.337 350.316 V 387.2 386.189 H 200.337 50.358 v 1.011"
      stroke="none"
      fill="#fbe3ab"
      fill-rule="evenodd"/>
    <path
      d="m 200,53.389 c -0.057,0.093 0.056,0.169 0.253,0.169 0.196,0 0.31,-0.076 0.252,-0.169 -0.057,-0.092 -0.171,-0.168 -0.252,-0.168 -0.082,0 -0.196,0.076 -0.253,0.168 m 0.168,2.19 -2.863,0.084 -1.263,1.073 c -0.695,0.59 -2.551,2.153 -4.126,3.473 -1.575,1.321 -3.934,3.301 -5.243,4.401 -1.308,1.1 -5.047,4.236 -8.309,6.969 l -5.931,4.968 13.91,0.043 c 7.65,0.024 20.167,0.024 27.814,0 l 13.904,-0.043 -3.251,-2.72 c -1.789,-1.496 -4.351,-3.646 -5.694,-4.779 -4.995,-4.212 -11.066,-9.316 -13.909,-11.692 -0.548,-0.458 -1.262,-1.064 -1.586,-1.347 l -0.589,-0.514 -2.864,0.084 M 169.089,79.368 168.378,80 h 31.891 31.892 l -0.664,-0.547 -0.664,-0.548 -30.516,-0.084 -30.516,-0.084 -0.712,0.631 m -5.384,4.512 -0.758,0.666 37.285,10e-4 h 37.285 l -0.737,-0.666 -0.738,-0.667 h -35.789 -35.79 l -0.758,0.666 m -4.042,3.387 c -0.417,0.377 -2.531,2.174 -4.699,3.993 -2.167,1.82 -5.692,4.778 -7.831,6.574 -2.14,1.796 -5.626,4.714 -7.747,6.484 l -3.856,3.219 32.361,0.042 c 17.799,0.024 46.898,0.024 64.665,0 l 32.304,-0.042 -2.03,-1.702 c -6.167,-5.172 -10.79,-9.06 -15.909,-13.381 -2.354,-1.987 -4.891,-4.123 -5.638,-4.749 l -1.359,-1.137 -39.751,0.007 -39.752,0.007 -0.758,0.685 m -27.388,23.007 -0.813,0.715 68.711,-0.007 68.711,-0.007 -0.758,-0.666 -0.758,-0.665 -67.139,-0.043 -67.14,-0.043 -0.814,0.716 m -5.328,4.469 c -0.347,0.298 -0.631,0.598 -0.631,0.668 0,0.069 33.29,0.123 73.979,0.119 l 73.979,-0.007 -0.738,-0.667 -0.737,-0.667 -72.61,0.007 -72.61,0.006 -0.632,0.541 m 73.159,2.773 -76.526,0.042 -1.621,1.398 c -0.892,0.77 -2.532,2.155 -3.643,3.079 -1.112,0.924 -3.191,2.663 -4.62,3.864 -6.549,5.505 -9.567,8.036 -12.217,10.245 l -2.858,2.382 50.83,0.043 c 27.956,0.023 73.642,0.023 101.524,0 l 50.694,-0.043 -4.434,-3.705 c -2.439,-2.038 -5.457,-4.58 -6.708,-5.648 -1.251,-1.069 -3.866,-3.277 -5.811,-4.908 -1.945,-1.63 -4.56,-3.825 -5.811,-4.878 l -2.273,-1.913 -76.526,0.042 m -104.723,23.744 -0.815,0.712 105.589,0.003 105.588,0.004 -0.738,-0.632 -0.738,-0.631 -104.036,-0.084 -104.036,-0.085 -0.814,0.713 m -5.362,4.512 -0.674,0.581 110.807,0.002 110.807,0.003 -0.659,-0.583 -0.66,-0.582 -109.474,-0.001 H 90.695 l -0.674,0.58 m -4.565,3.851 c -0.732,0.638 -1.717,1.472 -2.19,1.853 -0.472,0.381 -1.799,1.485 -2.947,2.453 -2.895,2.441 -8.442,7.097 -15.46,12.976 l -2.915,2.442 49.953,0.043 49.954,0.042 1.559,-0.868 c 22.103,-12.307 51.03,-12.156 73.306,0.383 l 1.01,0.569 50.274,-0.084 50.274,-0.085 -2.011,-1.684 c -1.105,-0.926 -2.73,-2.29 -3.61,-3.031 -0.88,-0.741 -2.142,-1.803 -2.804,-2.358 -3.669,-3.079 -7.022,-5.906 -12.375,-10.436 l -3.79,-3.206 -113.449,-0.085 -113.45,-0.084 -1.329,1.16 m -26.845,22.509 -0.927,0.833 49.263,0.001 49.264,0.001 1.01,-0.672 1.011,-0.673 h -49.4 c -32.89,-0.001 -49.364,-0.057 -49.295,-0.169 0.179,-0.29 0.028,-0.179 -0.926,0.679 m 182.736,-0.451 c 0,0.034 0.416,0.337 0.924,0.674 l 0.924,0.613 49.645,-0.006 49.644,-0.007 -0.737,-0.667 -0.738,-0.667 h -49.831 c -27.407,0 -49.831,0.027 -49.831,0.06 m -188.126,4.993 -0.758,0.663 48.992,0.005 48.993,0.005 0.818,-0.624 c 0.45,-0.343 0.818,-0.646 0.818,-0.673 0,-0.028 -22.073,-0.048 -49.052,-0.045 l -49.053,0.005 -0.758,0.664 m 194.863,0 0.758,0.663 49.432,-0.002 49.431,-0.002 -0.758,-0.666 -0.758,-0.666 -49.431,0.004 -49.432,0.005 0.758,0.664 m -197.892,14.863 0.002,12.252 h 40.051 40.051 l 0.281,-0.589 0.281,-0.589 h -40.25 -40.25 v -1.095 -1.095 l 40.8,-0.004 40.8,-0.004 1.095,-1.975 c 3.174,-5.726 7.321,-11.199 12.377,-16.335 l 2.696,-2.739 -48.968,-0.04 -48.969,-0.04 0.003,12.253 m 250.449,-12.21 -49.421,0.042 2.348,2.319 c 5.314,5.249 9.358,10.641 13.45,17.933 l 0.449,0.8 h 41.424 41.425 v -10.516 c 0,-5.784 -0.057,-10.54 -0.127,-10.569 -0.069,-0.028 -22.366,-0.033 -49.548,-0.009 m -32.009,23.376 c 0,0.051 0.115,0.316 0.257,0.59 l 0.256,0.496 h 40.586 40.585 v -0.589 -0.589 h -40.842 c -22.463,0 -40.842,0.041 -40.842,0.092 m -218.441,18.181 0.003,13.895 h 36.461 36.461 v -0.674 -0.673 H 86.737 50.358 v -1.011 -1.01 h 36.463 36.463 v -0.342 c 0,-3.84 1.737,-12.866 3.55,-18.452 0.363,-1.12 0.661,-2.086 0.661,-2.148 0,-0.061 -17.356,-0.111 -38.569,-0.111 H 50.358 v -1.011 -1.01 h 38.987 38.987 l 0.255,-0.61 c 0.14,-0.336 0.255,-0.639 0.255,-0.674 0,-0.035 -17.697,-0.064 -39.327,-0.064 H 50.189 l 0.002,13.895 m 220.585,-13.221 0.265,0.674 h 39.637 39.638 v -0.674 -0.674 h -39.902 -39.903 l 0.265,0.674 m 1.056,2.748 c 0,0.028 0.228,0.728 0.507,1.553 1.949,5.766 3.703,14.636 3.703,18.724 v 0.807 l 37.137,-0.043 37.137,-0.043 v -10.526 -10.525 h -39.242 c -21.583,0 -39.242,0.024 -39.242,0.053 m 4.379,23.694 v 0.674 h 37.052 37.053 v -0.674 -0.673 h -37.053 -37.052 v 0.673 m -226.02,17.769 0.003,13.894 h 36.461 36.461 v -0.673 -0.674 H 86.737 50.358 v -1.01 -1.011 h 36.379 36.379 V 251.874 241.347 H 86.737 50.358 v -1.094 -1.095 h 36.379 36.379 v -0.59 -0.589 H 86.652 50.189 l 0.002,13.895 m 226.02,-13.263 v 0.631 l 37.052,-0.043 37.053,-0.043 v -0.588 -0.589 h -37.053 -37.052 v 0.632 m 0.063,13.263 0.009,10.526 h 37.016 37.017 V 251.874 241.347 H 313.29 276.265 l 0.009,10.527 m -0.063,13.221 v 0.673 h 37.052 37.053 v -0.673 -0.674 h -37.053 -37.052 v 0.674 m -225.944,3.916 c -0.045,0.115 -0.061,6.387 -0.037,13.936 l 0.044,13.727 36.421,0.042 22.96326,0.0271 13.45774,0.0159 v -0.674 -0.674 H 86.737 50.358 v -1.095 -1.095 h 36.379 36.379 V 282.779 272.337 H 86.737 50.358 v -1.095 -1.095 h 36.379 36.379 V 269.474 268.8 H 86.732 c -28.953,0 -36.401,0.043 -36.465,0.211 m 225.944,0.463 v 0.673 h 37.052 37.053 v -0.673 -0.674 h -37.053 -37.052 v 0.674 m 0.067,13.263 0.01,10.484 h 37.014 37.014 V 282.78 272.338 l -37.024,-0.043 -37.025,-0.042 0.011,10.484 m -0.067,13.347 v 0.674 h 37.052 37.053 v -0.674 -0.673 h -37.053 -37.052 v 0.673 m -226.02,17.6 0.003,13.895 h 36.461 36.461 v -0.674 -0.673 H 86.737 50.358 v -1.011 -1.01 h 36.379 36.379 V 313.684 303.158 H 86.737 50.358 v -1.011 -1.01 h 36.379 36.379 v -0.674 -0.674 H 101.10214 86.652 50.189 l 0.002,13.895 m 226.02,-13.221 v 0.674 h 37.052 37.053 v -0.674 -0.674 h -37.053 -37.052 v 0.674 m 0.069,13.221 0.012,10.527 h 37.012 37.012 v -10.527 -10.526 h -37.024 -37.024 l 0.012,10.526 m -0.069,13.221 v 0.674 h 37.052 37.053 v -0.674 -0.673 h -37.053 -37.052 v 0.673 m -226.02,17.769 0.003,13.894 h 36.461 36.461 v -0.673 -0.674 H 86.737 50.358 v -1.01 -1.011 h 36.379 36.379 V 344.674 334.147 H 86.737 50.358 v -1.01 -1.011 h 36.379 36.379 v -0.673 -0.674 H 86.652 50.189 l 0.002,13.895 m 226.02,-13.221 v 0.673 h 37.052 37.053 v -0.673 -0.674 h -37.053 -37.052 v 0.674 m 0.067,13.221 0.012,10.526 h 37.013 37.013 v -10.526 -10.527 h -37.025 -37.025 l 0.012,10.527 m -0.067,13.221 v 0.673 h 37.052 37.053 v -0.673 -0.674 h -37.053 -37.052 v 0.674 M 50.189,375.663 v 13.895 h 150.064 150.063 v -0.674 -0.673 H 200.337 50.358 v -1.011 -1.011 h 149.979 149.979 v -10.526 -10.526 h -37.053 -37.052 v 1.01 1.011 h -76.548 -76.547 v -1.011 -1.01 H 86.737 50.358 v -1.095 -1.095 h 36.379 36.379 v -0.589 -0.59 H 86.653 50.189 v 13.895 M 276.211,362.4 v 0.632 l 37.052,-0.043 37.053,-0.043 v -0.589 -0.589 h -37.053 -37.052 v 0.632"
      stroke="none"
      fill="#f3ba64"
      fill-rule="evenodd"/>
    <path
      d="m 166.334,81.684 -1.82,1.516 35.68,-0.007 35.68,-0.007 -0.674,-0.596 c -0.371,-0.328 -1.175,-1.007 -1.787,-1.509 l -1.114,-0.913 h -32.072 -32.072 l -1.821,1.516 m -36.792,30.905 -1.902,1.6 h 72.551 c 39.902,0 72.478,-0.063 72.39,-0.14 -0.088,-0.077 -0.932,-0.797 -1.876,-1.6 l -1.715,-1.46 h -68.773 -68.773 l -1.902,1.6 m -36.752,30.864 -1.758,1.473 54.624,0.043 c 30.043,0.023 79.146,0.023 109.116,0 l 54.492,-0.043 -1.748,-1.471 -1.748,-1.472 -105.61,-0.002 -105.61,-0.002 -1.758,1.474 m 105.911,15.998 c 0.583,0.033 1.492,0.033 2.021,0 0.529,-0.034 0.053,-0.061 -1.059,-0.06 -1.111,0 -1.544,0.027 -0.962,0.06 m 94.131,13.476 -49.652,0.042 2.033,1.516 2.032,1.516 49.414,-0.043 49.413,-0.042 -1.794,-1.516 -1.794,-1.516 -49.652,0.043 M 55.841,174.484 54.043,176 h 49.044 49.044 l 1.872,-1.379 c 1.029,-0.758 1.943,-1.44 2.031,-1.515 0.088,-0.076 -22.015,-0.138 -49.118,-0.138 H 57.639 l -1.798,1.516 M 44.842,183.697 39.747,188 v 107.01 107.011 h 5.221 5.221 v -4.674 -4.673 h 150.064 150.063 v 4.673 4.674 h 5.305 5.305 L 360.92,295.2 l -0.006,-106.821 -5.173,-4.338 -5.173,-4.337 -0.084,12.085 -0.084,12.085 -40.616,0.042 -40.617,0.043 0.653,1.473 0.653,1.473 40.005,0.043 40.006,0.042 v 13.895 13.894 h -37.137 -37.136 v 1.6 1.6 h 37.136 37.137 v 13.895 13.894 h -37.137 -37.136 v 1.516 1.515 l 37.094,0.043 37.095,0.042 v 13.895 13.895 l -37.095,0.042 -37.094,0.043 v 1.515 1.515 h 37.136 37.137 v 13.895 13.895 h -37.137 -37.136 v 1.6 1.6 h 37.136 37.137 v 13.895 13.894 h -37.137 -37.136 v 1.6 1.6 h 37.136 37.137 v 13.895 13.895 H 200.337 50.189 v -13.895 -13.895 h 36.464 36.463 v -1.6 -1.6 H 86.655 50.194 l -0.003,-13.894 -0.002,-13.895 h 36.463 36.464 v -1.6 -1.6 H 86.653 50.189 v -13.895 -13.895 h 36.464 36.463 v -1.515 -1.516 H 86.653 50.189 V 282.779 268.8 h 36.464 36.463 v -1.516 -1.516 H 86.653 50.189 v -13.894 -13.895 h 36.464 36.463 v -1.6 -1.6 H 86.653 50.189 v -13.895 -13.895 l 39.369,-0.005 39.368,-0.006 0.679,-1.552 0.679,-1.552 H 90.279 50.274 L 50.23,191.621 c -0.023,-6.739 -0.099,-12.247 -0.168,-12.24 -0.069,0.007 -2.418,1.95 -5.22,4.316 M 276.264,246.4 c 0,0.602 0.031,0.848 0.068,0.547 0.038,-0.301 0.038,-0.793 0,-1.094 -0.037,-0.301 -0.068,-0.055 -0.068,0.547 m -0.014,2.695 c 0,0.324 0.034,0.457 0.077,0.294 0.042,-0.162 0.042,-0.427 0,-0.589 -0.043,-0.162 -0.077,-0.029 -0.077,0.295 m 0.016,3.116 c 10e-4,0.648 0.031,0.893 0.067,0.543 0.037,-0.349 0.036,-0.88 -0.001,-1.179 -0.037,-0.299 -0.067,-0.013 -0.066,0.636 m -0.016,4.8 c 0,0.324 0.034,0.456 0.077,0.294 0.042,-0.162 0.042,-0.427 0,-0.589 -0.043,-0.162 -0.077,-0.03 -0.077,0.295 m 0.016,20.294 c 10e-4,0.649 0.031,0.893 0.067,0.544 0.037,-0.35 0.036,-0.88 -0.001,-1.179 -0.037,-0.299 -0.067,-0.013 -0.066,0.635 m 0,5.895 c 10e-4,0.648 0.031,0.893 0.067,0.544 0.037,-0.35 0.036,-0.88 -0.001,-1.179 -0.037,-0.299 -0.067,-0.013 -0.066,0.635 m -0.016,4.8 c 0,0.324 0.034,0.457 0.077,0.295 0.042,-0.162 0.042,-0.428 0,-0.59 -0.043,-0.162 -0.077,-0.029 -0.077,0.295 m 0.016,20.295 c 10e-4,0.648 0.031,0.893 0.067,0.543 0.037,-0.349 0.036,-0.88 -0.001,-1.179 -0.037,-0.299 -0.067,-0.013 -0.066,0.636 m 10e-4,5.81 c 0,0.695 0.03,0.979 0.066,0.632 0.037,-0.348 0.037,-0.916 0,-1.263 -0.036,-0.348 -0.066,-0.063 -0.066,0.631 m -0.017,4.884 c 0,0.325 0.034,0.457 0.077,0.295 0.042,-0.162 0.042,-0.427 0,-0.589 -0.043,-0.162 -0.077,-0.03 -0.077,0.294 m 0,3.706 c 0,0.324 0.034,0.457 0.077,0.294 0.042,-0.162 0.042,-0.427 0,-0.589 -0.043,-0.162 -0.077,-0.029 -0.077,0.295 m 0.014,16.505 c 0,0.602 0.031,0.848 0.068,0.547 0.038,-0.301 0.038,-0.793 0,-1.094 -0.037,-0.301 -0.068,-0.055 -0.068,0.547 m -0.014,2.695 c 0,0.324 0.034,0.457 0.077,0.294 0.042,-0.162 0.042,-0.427 0,-0.589 -0.043,-0.162 -0.077,-0.029 -0.077,0.295 m 0.016,3.116 c 10e-4,0.648 0.031,0.893 0.067,0.543 0.037,-0.349 0.036,-0.88 -0.001,-1.179 -0.037,-0.299 -0.067,-0.013 -0.066,0.636 m -0.016,4.968 c 0,0.324 0.034,0.457 0.077,0.295 0.042,-0.162 0.042,-0.428 0,-0.59 -0.043,-0.162 -0.077,-0.029 -0.077,0.295"
      stroke="none"
      fill="#c38c5b"
      fill-rule="evenodd"/>
  </g>
</svg>
