<svg
  xmlns="http://www.w3.org/2000/svg"
  viewBox="0 0 486.62897 399.82699">
  <g transform="matrix(0.69141038,0,0,0.69141038,67.887013,260.46576)">
    <g fill="#040405" transform="matrix(0.1,0,0,0.1,-99.434317,-95.806037)">
      <g>
        <path
          d="m 596,1700 c -28,-14 -44,-17 -57,-10 -10,6 -52,10 -94,10 -67,0 -79,-3 -100,-25 -21,-20 -25,-34 -25,-80 v -55 h 48 c 42,0 50,3 60,25 21,45 68,23 51,-23 -6,-14 -11,-66 -12,-114 -2,-84 -3,-88 -24,-88 -35,0 -123,-36 -149,-61 -20,-19 -24,-32 -24,-81 0,-50 4,-62 26,-83 42,-39 109,-57 234,-62 225,-10 345,50 327,163 -11,69 -72,108 -194,125 -43,6 -80,13 -83,16 -3,2 -4,27 -3,54 2,72 47,158 95,184 37,20 38,20 73,1 43,-23 64,-55 73,-109 7,-42 8,-42 54,-45 44,-3 48,-1 54,23 21,84 -24,189 -101,232 -54,31 -173,32 -229,3 z"/>
        <path
          d="m 1589,997 c -55,-42 -83,-198 -60,-331 18,-103 58,-155 118,-156 54,0 81,19 111,79 25,52 27,65 27,176 -1,125 -16,185 -59,228 -21,20 -112,23 -137,4 z"/>
        <path
          d="m 718,916 c -10,-7 -28,-35 -40,-62 -20,-43 -23,-65 -22,-174 0,-140 18,-203 68,-235 32,-21 107,-16 136,10 33,30 55,121 55,230 0,115 -21,193 -62,225 -30,23 -108,27 -135,6 z"/>
      </g>
    </g>
    <g fill="#a42d1a" transform="matrix(0.1,0,0,0.1,-99.434317,-95.806037)">
      <g>
        <path
          d="m 1287,2741 c -45,-50 -51,-62 -73,-141 -14,-53 -18,-109 -18,-305 -1,-202 -4,-245 -18,-272 -9,-18 -19,-52 -23,-75 -4,-24 -12,-46 -18,-49 -17,-11 3,-29 33,-29 93,0 499,-91 585,-131 125,-58 266,-174 336,-276 l 29,-42 -25,-52 c -14,-29 -25,-61 -25,-71 0,-87 -99,-360 -144,-397 -9,-8 -16,-20 -16,-27 0,-17 -72,-168 -83,-172 -4,-2 -10,-21 -13,-43 -4,-21 -11,-39 -16,-39 -6,0 -9,-59 -6,-157 4,-147 6,-161 31,-208 14,-27 52,-72 82,-99 52,-44 59,-48 82,-37 17,8 54,9 112,5 109,-8 172,9 267,73 38,25 71,49 74,52 3,4 28,25 55,46 28,22 52,43 53,48 2,4 19,26 39,49 93,112 165,333 183,560 5,73 10,139 10,146 0,6 7,12 15,12 12,0 15,17 15,89 0,221 -62,342 -216,417 -52,26 -72,29 -168,32 -116,4 -180,-8 -221,-40 l -24,-18 -44,57 c -87,113 -215,213 -342,266 -59,24 -313,85 -450,107 -104,17 -115,19 -115,30 0,19 63,101 103,134 56,46 171,105 219,112 21,4 41,11 44,15 3,5 18,9 34,9 15,0 35,3 44,6 20,8 21,34 2,34 -9,0 -18,22 -26,65 -14,72 -64,185 -107,242 -16,20 -50,54 -76,75 -41,32 -56,38 -97,38 -43,0 -51,-4 -83,-39 z"/>
        <path
          d="m 2478,2604 c -45,-24 -58,-62 -58,-168 0,-64 -4,-96 -12,-98 -6,-2 -9,-11 -6,-20 4,-10 26,-18 62,-22 31,-4 56,-12 56,-17 0,-5 18,-9 39,-9 22,0 68,-9 103,-20 62,-19 128,-26 128,-14 0,4 -6,12 -13,18 -8,6 -19,45 -26,86 -26,161 -60,228 -135,264 -42,20 -102,20 -138,0 z"/>
        <path
          d="m 188,1058 c 5,-7 10,-44 11,-81 3,-184 62,-434 132,-569 60,-114 151,-219 234,-270 85,-53 160,-71 303,-76 159,-5 202,1 202,28 0,14 -14,23 -56,35 -31,9 -63,23 -71,31 -8,8 -23,14 -34,14 -32,0 -150,87 -195,144 -71,87 -121,215 -145,371 -5,33 -16,74 -24,92 -8,17 -15,46 -15,65 -1,18 -7,44 -15,58 -8,14 -14,35 -15,46 0,17 -12,26 -52,42 -29,11 -64,24 -78,28 -14,3 -45,17 -70,30 -48,26 -131,34 -112,12 z"/>
      </g>
    </g>
    <g fill="#e05f40" transform="matrix(0.1,0,0,0.1,-99.434317,-95.806037)">
      <g>
        <path
          d="m 1910,2888 c -27,-11 -68,-69 -94,-133 -19,-46 -37,-208 -35,-308 1,-37 0,-69 -2,-72 -3,-2 -50,-10 -105,-16 -54,-6 -103,-15 -109,-19 -5,-4 -24,-10 -42,-13 -18,-4 -49,-14 -70,-23 -21,-10 -40,-18 -43,-18 -34,-8 -146,-102 -178,-150 -28,-41 -58,-113 -50,-121 1,-2 48,-11 103,-20 164,-26 416,-85 480,-112 134,-56 264,-160 356,-285 l 51,-68 38,30 c 59,47 117,63 213,59 66,-3 94,-10 141,-33 150,-74 216,-196 216,-403 v -75 l 28,7 c 47,11 265,123 302,155 19,17 52,47 72,67 l 36,36 52,-17 c 29,-9 81,-32 116,-50 l 64,-34 v 45 c 0,60 -49,163 -96,201 l -36,30 17,63 c 66,258 24,940 -68,1076 -42,63 -157,93 -214,56 -40,-27 -53,-71 -53,-186 0,-58 -3,-119 -6,-136 -7,-33 -70,-105 -137,-155 l -37,-28 -98,32 c -53,18 -114,33 -134,33 -21,0 -38,3 -38,7 0,5 -24,11 -52,15 -29,4 -56,9 -61,12 -4,2 -46,7 -94,9 -122,7 -123,8 -123,107 0,122 -15,199 -50,271 -33,67 -43,79 -104,134 -41,37 -110,50 -156,30 z"/>
        <path
          d="m 1128,1902 c -40,-5 -35,-32 13,-64 21,-16 43,-28 47,-29 4,0 24,-27 45,-60 71,-110 83,-294 30,-444 -25,-70 -57,-131 -79,-150 -25,-22 -44,-97 -44,-173 0,-66 8,-112 47,-270 3,-12 9,-25 14,-28 5,-3 9,-12 9,-21 0,-8 6,-29 14,-46 8,-18 24,-54 36,-82 37,-85 84,-175 92,-175 4,0 8,-6 8,-14 0,-23 118,-176 145,-188 14,-6 25,-15 25,-19 0,-4 11,-10 25,-13 13,-3 41,-22 62,-41 47,-43 44,-43 203,-4 25,6 73,17 108,24 35,7 66,15 68,18 6,5 -59,68 -97,95 -10,7 -31,36 -46,65 -25,48 -27,63 -29,180 -2,70 1,127 5,127 5,0 11,18 15,39 3,22 9,41 13,43 11,4 83,155 83,172 0,7 7,19 16,27 46,38 135,287 148,414 1,5 15,38 33,74 l 32,64 -38,56 c -78,115 -214,229 -346,290 -112,53 -569,145 -657,133 z m 568,-939 c 38,-38 57,-104 58,-198 1,-79 -3,-97 -27,-146 -31,-65 -66,-88 -99,-65 -75,53 -101,253 -46,360 34,66 78,85 114,49 z"/>
        <path
          d="m 810,967 c -16,-7 -84,-11 -193,-11 -92,1 -167,-3 -167,-7 0,-5 5,-9 10,-9 6,0 10,-10 10,-22 1,-13 7,-34 15,-48 8,-14 14,-40 15,-58 0,-19 7,-48 15,-65 8,-18 19,-59 24,-92 24,-156 74,-284 145,-371 41,-51 167,-148 196,-150 8,-1 21,-2 29,-3 8,-1 11,-4 7,-8 -11,-11 111,-45 179,-50 33,-2 86,-8 118,-12 l 57,-8 v 28 c 0,17 -9,35 -25,47 -14,11 -25,25 -25,31 0,6 -4,11 -10,11 -5,0 -10,11 -10,25 0,14 -6,25 -13,25 -14,0 -57,68 -57,90 0,6 -9,23 -20,37 -11,14 -20,35 -20,47 0,12 -4,26 -8,32 -12,13 -32,86 -32,116 0,13 -4,28 -9,34 -11,12 -31,118 -31,166 0,21 -4,46 -9,56 -5,9 -14,38 -19,63 -6,26 -21,63 -33,83 -19,33 -24,36 -67,35 -26,0 -58,-6 -72,-12 z m 13,-87 c 38,-30 62,-110 61,-205 0,-48 -6,-90 -14,-105 -8,-14 -13,-29 -12,-34 5,-16 -29,-57 -55,-67 -36,-13 -70,11 -96,69 -30,69 -30,218 1,286 35,77 68,93 115,56 z"/>
      </g>
    </g>
    <g fill="#f9c68b" transform="matrix(0.1,0,0,0.1,-99.434317,-95.806037)">
      <g>
        <path
          d="m 502,1941 c -41,-10 -83,-23 -95,-28 C 216,1826 163,1786 93,1676 37,1590 24,1554 15,1462 c -5,-54 -3,-90 10,-142 9,-39 21,-73 26,-76 5,-3 9,-12 9,-21 0,-24 135,-183 156,-183 5,0 29,-11 54,-24 25,-13 56,-27 70,-30 46,-13 130,-48 130,-55 0,-11 273,-12 325,-1 28,5 62,13 76,16 22,5 29,0 48,-31 12,-21 27,-58 33,-84 5,-25 14,-54 20,-64 5,-10 7,-21 4,-25 -5,-9 21,-169 31,-192 4,-8 7,-23 8,-32 4,-31 28,-113 36,-123 5,-5 9,-19 9,-31 0,-12 9,-33 20,-47 11,-14 20,-31 20,-37 0,-22 43,-90 57,-90 7,0 13,-11 13,-25 0,-14 5,-25 10,-25 6,0 10,-4 10,-9 0,-5 15,-24 33,-42 28,-29 41,-34 102,-41 86,-8 273,-9 339,0 l 48,7 -51,47 c -29,26 -63,51 -76,54 -14,3 -25,9 -25,13 0,4 -11,13 -25,19 -27,12 -145,165 -145,188 0,8 -4,14 -8,14 -8,0 -55,90 -92,175 -12,28 -28,64 -36,82 -8,17 -14,38 -14,46 0,9 -4,18 -9,21 -5,3 -11,16 -14,28 -38,155 -47,200 -47,240 0,49 24,125 44,143 49,43 104,197 112,318 9,138 -13,260 -63,336 -21,33 -42,60 -46,60 -5,1 -23,12 -42,26 -79,61 -248,95 -460,94 -99,0 -161,-6 -213,-18 z m 289,-271 c 67,-35 121,-128 104,-180 -11,-36 -39,-19 -47,28 -8,49 -26,78 -65,103 -38,25 -109,25 -151,-1 -59,-36 -105,-174 -88,-264 6,-34 8,-35 64,-41 115,-13 184,-45 209,-95 38,-77 -115,-149 -292,-137 -232,16 -307,139 -126,207 28,11 62,20 75,20 23,0 24,2 24,88 0,54 6,104 16,131 14,39 15,47 1,67 -28,44 -105,40 -120,-6 -3,-11 -15,-20 -26,-20 -28,0 -25,45 6,75 41,42 144,30 177,-19 4,-7 18,0 35,16 54,52 135,63 204,28 z"/>
      </g>
    </g>
  </g>
  <g transform="translate(88.963673,-2.1939974)">
    <path
      d="m 193.432,166.082 c -35.675,3.331 -63.013,31.578 -65.426,67.602 -0.108,1.619 -0.17,24.898 -0.172,64.8 l -0.002,62.274 h 71.831 71.832 l -0.002,-63.116 c -0.002,-64.797 0,-64.661 -0.686,-69.684 -5.152,-37.779 -39.687,-65.395 -77.375,-61.876"
      stroke="none"
      fill="#432611"
      fill-rule="evenodd"/>
    <path
      d="m 200,53.389 c -0.057,0.093 0.056,0.169 0.253,0.169 0.196,0 0.31,-0.076 0.252,-0.169 -0.057,-0.092 -0.171,-0.168 -0.252,-0.168 -0.082,0 -0.196,0.076 -0.253,0.168 m 0.168,2.19 -2.863,0.084 -1.263,1.073 c -0.695,0.59 -2.551,2.153 -4.126,3.473 -1.575,1.321 -3.934,3.301 -5.243,4.401 -1.308,1.1 -5.047,4.236 -8.309,6.969 l -5.931,4.968 13.91,0.043 c 7.65,0.024 20.167,0.024 27.814,0 l 13.904,-0.043 -3.251,-2.72 c -1.789,-1.496 -4.351,-3.646 -5.694,-4.779 -4.995,-4.212 -11.066,-9.316 -13.909,-11.692 -0.548,-0.458 -1.262,-1.064 -1.586,-1.347 l -0.589,-0.514 -2.864,0.084 M 169.089,79.368 168.378,80 h 31.891 31.892 l -0.664,-0.547 -0.664,-0.548 -30.516,-0.084 -30.516,-0.084 -0.712,0.631 m -5.384,4.512 -0.758,0.666 37.285,10e-4 h 37.285 l -0.737,-0.666 -0.738,-0.667 h -35.789 -35.79 l -0.758,0.666 m -4.042,3.387 c -0.417,0.377 -2.531,2.174 -4.699,3.993 -2.167,1.82 -5.692,4.778 -7.831,6.574 -2.14,1.796 -5.626,4.714 -7.747,6.484 l -3.856,3.219 32.361,0.042 c 17.799,0.024 46.898,0.024 64.665,0 l 32.304,-0.042 -2.03,-1.702 c -6.167,-5.172 -10.79,-9.06 -15.909,-13.381 -2.354,-1.987 -4.891,-4.123 -5.638,-4.749 l -1.359,-1.137 -39.751,0.007 -39.752,0.007 -0.758,0.685 m -27.388,23.007 -0.813,0.715 68.711,-0.007 68.711,-0.007 -0.758,-0.666 -0.758,-0.665 -67.139,-0.043 -67.14,-0.043 -0.814,0.716 m -5.328,4.469 c -0.347,0.298 -0.631,0.598 -0.631,0.668 0,0.069 33.29,0.123 73.979,0.119 l 73.979,-0.007 -0.738,-0.667 -0.737,-0.667 -72.61,0.007 -72.61,0.006 -0.632,0.541 m 73.159,2.773 -76.526,0.042 -1.621,1.398 c -0.892,0.77 -2.532,2.155 -3.643,3.079 -1.112,0.924 -3.191,2.663 -4.62,3.864 -6.549,5.505 -9.567,8.036 -12.217,10.245 l -2.858,2.382 50.83,0.043 c 27.956,0.023 73.642,0.023 101.524,0 l 50.694,-0.043 -4.434,-3.705 c -2.439,-2.038 -5.457,-4.58 -6.708,-5.648 -1.251,-1.069 -3.866,-3.277 -5.811,-4.908 -1.945,-1.63 -4.56,-3.825 -5.811,-4.878 l -2.273,-1.913 -76.526,0.042 m -104.723,23.744 -0.815,0.712 105.589,0.003 105.588,0.004 -0.738,-0.632 -0.738,-0.631 -104.036,-0.084 -104.036,-0.085 -0.814,0.713 m -5.362,4.512 -0.674,0.581 110.807,0.002 110.807,0.003 -0.659,-0.583 -0.66,-0.582 -109.474,-0.001 H 90.695 l -0.674,0.58 m -4.565,3.851 c -0.732,0.638 -1.717,1.472 -2.19,1.853 -0.472,0.381 -1.799,1.485 -2.947,2.453 -2.895,2.441 -8.442,7.097 -15.46,12.976 l -2.915,2.442 49.953,0.043 49.954,0.042 1.559,-0.868 c 22.103,-12.307 51.03,-12.156 73.306,0.383 l 1.01,0.569 50.274,-0.084 50.274,-0.085 -2.011,-1.684 c -1.105,-0.926 -2.73,-2.29 -3.61,-3.031 -0.88,-0.741 -2.142,-1.803 -2.804,-2.358 -3.669,-3.079 -7.022,-5.906 -12.375,-10.436 l -3.79,-3.206 -113.449,-0.085 -113.45,-0.084 -1.329,1.16 m -26.845,22.509 -0.927,0.833 49.263,0.001 49.264,0.001 1.01,-0.672 1.011,-0.673 h -49.4 c -32.89,-0.001 -49.364,-0.057 -49.295,-0.169 0.179,-0.29 0.028,-0.179 -0.926,0.679 m 182.736,-0.451 c 0,0.034 0.416,0.337 0.924,0.674 l 0.924,0.613 49.645,-0.006 49.644,-0.007 -0.737,-0.667 -0.738,-0.667 h -49.831 c -27.407,0 -49.831,0.027 -49.831,0.06 m -188.126,4.993 -0.758,0.663 48.992,0.005 48.993,0.005 0.818,-0.624 c 0.45,-0.343 0.818,-0.646 0.818,-0.673 0,-0.028 -22.073,-0.048 -49.052,-0.045 l -49.053,0.005 -0.758,0.664 m 194.863,0 0.758,0.663 49.432,-0.002 49.431,-0.002 -0.758,-0.666 -0.758,-0.666 -49.431,0.004 -49.432,0.005 0.758,0.664 m -197.892,14.863 0.002,12.252 h 40.051 40.051 l 0.281,-0.589 0.281,-0.589 h -40.25 -40.25 v -1.095 -1.095 l 40.8,-0.004 40.8,-0.004 1.095,-1.975 c 3.174,-5.726 7.321,-11.199 12.377,-16.335 l 2.696,-2.739 -48.968,-0.04 -48.969,-0.04 0.003,12.253 m 250.449,-12.21 -49.421,0.042 2.348,2.319 c 5.314,5.249 9.358,10.641 13.45,17.933 l 0.449,0.8 h 41.424 41.425 v -10.516 c 0,-5.784 -0.057,-10.54 -0.127,-10.569 -0.069,-0.028 -22.366,-0.033 -49.548,-0.009 m -32.009,23.376 c 0,0.051 0.115,0.316 0.257,0.59 l 0.256,0.496 h 40.586 40.585 v -0.589 -0.589 h -40.842 c -22.463,0 -40.842,0.041 -40.842,0.092 m -218.441,18.181 0.003,13.895 h 36.461 36.461 v -0.674 -0.673 H 86.737 50.358 v -1.011 -1.01 h 36.463 36.463 v -0.342 c 0,-3.84 1.737,-12.866 3.55,-18.452 0.363,-1.12 0.661,-2.086 0.661,-2.148 0,-0.061 -17.356,-0.111 -38.569,-0.111 H 50.358 v -1.011 -1.01 h 38.987 38.987 l 0.255,-0.61 c 0.14,-0.336 0.255,-0.639 0.255,-0.674 0,-0.035 -17.697,-0.064 -39.327,-0.064 H 50.189 l 0.002,13.895 m 220.585,-13.221 0.265,0.674 h 39.637 39.638 v -0.674 -0.674 h -39.902 -39.903 l 0.265,0.674 m 1.056,2.748 c 0,0.028 0.228,0.728 0.507,1.553 1.949,5.766 3.703,14.636 3.703,18.724 v 0.807 l 37.137,-0.043 37.137,-0.043 v -10.526 -10.525 h -39.242 c -21.583,0 -39.242,0.024 -39.242,0.053 m 4.379,23.694 v 0.674 h 37.052 37.053 v -0.674 -0.673 h -37.053 -37.052 v 0.673 m -226.02,17.769 0.003,13.894 h 36.461 36.461 v -0.673 -0.674 H 86.737 50.358 v -1.01 -1.011 h 36.379 36.379 V 251.874 241.347 H 86.737 50.358 v -1.094 -1.095 h 36.379 36.379 v -0.59 -0.589 H 86.652 50.189 l 0.002,13.895 m 226.02,-13.263 v 0.631 l 37.052,-0.043 37.053,-0.043 v -0.588 -0.589 h -37.053 -37.052 v 0.632 m 0.063,13.263 0.009,10.526 h 37.016 37.017 V 251.874 241.347 H 313.29 276.265 l 0.009,10.527 m -0.063,13.221 v 0.673 h 37.052 37.053 v -0.673 -0.674 h -37.053 -37.052 v 0.674 m -225.944,3.916 c -0.045,0.115 -0.061,6.387 -0.037,13.936 l 0.044,13.727 36.421,0.042 36.421,0.043 v -0.674 -0.674 H 86.737 50.358 v -1.095 -1.095 h 36.379 36.379 V 282.779 272.337 H 86.737 50.358 v -1.095 -1.095 h 36.379 36.379 V 269.474 268.8 H 86.732 c -28.953,0 -36.401,0.043 -36.465,0.211 m 225.944,0.463 v 0.673 h 37.052 37.053 v -0.673 -0.674 h -37.053 -37.052 v 0.674 m 0.067,13.263 0.01,10.484 h 37.014 37.014 V 282.78 272.338 l -37.024,-0.043 -37.025,-0.042 0.011,10.484 m -0.067,13.347 v 0.674 h 37.052 37.053 v -0.674 -0.673 h -37.053 -37.052 v 0.673 m -226.02,17.6 0.003,13.895 h 36.461 36.461 v -0.674 -0.673 H 86.737 50.358 v -1.011 -1.01 h 36.379 36.379 V 313.684 303.158 H 86.737 50.358 v -1.011 -1.01 h 36.379 36.379 v -0.674 -0.674 H 86.652 50.189 l 0.002,13.895 m 226.02,-13.221 v 0.674 h 37.052 37.053 v -0.674 -0.674 h -37.053 -37.052 v 0.674 m 0.069,13.221 0.012,10.527 h 37.012 37.012 v -10.527 -10.526 h -37.024 -37.024 l 0.012,10.526 m -0.069,13.221 v 0.674 h 37.052 37.053 v -0.674 -0.673 h -37.053 -37.052 v 0.673 m -226.02,17.769 0.003,13.894 h 36.461 36.461 v -0.673 -0.674 H 86.737 50.358 v -1.01 -1.011 h 36.379 36.379 V 344.674 334.147 H 86.737 50.358 v -1.01 -1.011 h 36.379 36.379 v -0.673 -0.674 H 86.652 50.189 l 0.002,13.895 m 226.02,-13.221 v 0.673 h 37.052 37.053 v -0.673 -0.674 h -37.053 -37.052 v 0.674 m 0.067,13.221 0.012,10.526 h 37.013 37.013 v -10.526 -10.527 h -37.025 -37.025 l 0.012,10.527 m -0.067,13.221 v 0.673 h 37.052 37.053 v -0.673 -0.674 h -37.053 -37.052 v 0.674 M 50.189,375.663 v 13.895 h 150.064 150.063 v -0.674 -0.673 H 200.337 50.358 v -1.011 -1.011 h 149.979 149.979 v -10.526 -10.526 h -37.053 -37.052 v 1.01 1.011 h -76.548 -76.547 v -1.011 -1.01 H 86.737 50.358 v -1.095 -1.095 h 36.379 36.379 v -0.589 -0.59 H 86.653 50.189 v 13.895 M 276.211,362.4 v 0.632 l 37.052,-0.043 37.053,-0.043 v -0.589 -0.589 h -37.053 -37.052 v 0.632"
      stroke="none"
      fill="#f3ba64"
      fill-rule="evenodd"/>
    <path
      d="m 200.5,2.658 c -0.28,0.252 -0.877,0.761 -1.326,1.131 -0.448,0.371 -0.949,0.788 -1.111,0.927 -0.163,0.139 -1.154,0.972 -2.201,1.852 -1.048,0.88 -2.933,2.473 -4.189,3.54 -1.973,1.676 -7.884,6.656 -9.091,7.659 -0.224,0.186 -0.944,0.796 -1.6,1.355 -1.171,0.999 -7.196,6.065 -8.004,6.729 -0.226,0.186 -0.718,0.609 -1.094,0.939 -0.376,0.33 -1.897,1.614 -3.379,2.853 -2.503,2.092 -4.441,3.724 -4.9,4.125 -0.304,0.266 -1.577,1.339 -5.289,4.456 -1.899,1.595 -3.642,3.065 -3.874,3.266 -0.436,0.381 -7.713,6.512 -12.624,10.636 -3.617,3.038 -4.221,3.548 -6.488,5.474 -1.036,0.88 -2.967,2.509 -4.291,3.621 -2.598,2.181 -2.573,2.16 -3.895,3.284 -0.49,0.417 -2.155,1.819 -3.699,3.116 -1.544,1.297 -5.149,4.331 -8.01,6.742 -10.442,8.799 -12.789,10.776 -13.119,11.05 -0.185,0.155 -1.216,1.027 -2.291,1.939 -1.074,0.912 -3.035,2.568 -4.358,3.68 -1.322,1.111 -2.641,2.221 -2.93,2.466 -1.22,1.033 -8.788,7.412 -13.158,11.091 -2.594,2.184 -6.421,5.407 -8.505,7.163 -2.085,1.755 -3.941,3.318 -4.127,3.472 -0.185,0.154 -1.216,1.026 -2.29,1.939 -1.075,0.912 -3.036,2.568 -4.36,3.679 -1.323,1.112 -2.68,2.258 -3.015,2.548 -0.334,0.29 -2.132,1.806 -3.994,3.369 -1.861,1.562 -5.727,4.814 -8.589,7.226 -2.862,2.412 -7.137,6.01 -9.499,7.996 -2.362,1.985 -4.379,3.688 -4.481,3.783 -0.102,0.095 -1.044,0.893 -2.093,1.773 -2.38,1.997 -5.5,4.631 -6.058,5.113 -0.231,0.201 -1.065,0.903 -1.852,1.561 -0.788,0.658 -2.5,2.097 -3.806,3.198 -10.828,9.129 -13.829,11.662 -14.282,12.055 l -0.523,0.453 8.864,8.874 8.864,8.874 9.922,0.176 9.921,0.176 5.795,-4.872 c 6.051,-5.087 10.917,-9.174 14.908,-12.522 3.447,-2.891 73.917,-62.08 77.389,-65 1.621,-1.364 5.487,-4.611 8.59,-7.216 3.103,-2.606 10.985,-9.226 17.516,-14.712 6.53,-5.486 13.617,-11.436 15.747,-13.222 2.131,-1.785 7.625,-6.397 12.211,-10.248 4.585,-3.851 8.389,-7.002 8.454,-7.003 0.065,0 1.619,1.266 3.453,2.814 4.07,3.435 10.961,9.238 18.156,15.288 2.964,2.493 6.071,5.109 6.905,5.813 0.834,0.704 6.101,5.137 11.705,9.851 5.604,4.714 11.592,9.755 13.306,11.202 1.713,1.446 4.821,4.062 6.905,5.813 2.084,1.75 4.471,3.759 5.305,4.463 1.443,1.219 15.222,12.821 25.516,21.486 2.64,2.222 6.998,5.891 9.684,8.154 2.686,2.262 6.703,5.645 8.926,7.517 2.224,1.872 6.581,5.541 9.685,8.155 3.103,2.613 7.688,6.473 10.189,8.577 2.501,2.104 8.754,7.368 13.895,11.697 5.141,4.329 11.09,9.332 13.221,11.117 l 3.874,3.247 3.2,0.111 c 1.76,0.061 4.829,0.181 6.821,0.266 1.991,0.085 5.212,0.2 7.157,0.256 l 3.537,0.101 1.263,-1.206 c 1.403,-1.34 1.87,-1.776 5.389,-5.045 1.343,-1.247 2.639,-2.457 2.881,-2.688 0.242,-0.232 1.379,-1.293 2.527,-2.357 1.148,-1.065 2.536,-2.362 3.084,-2.883 1.17,-1.111 1.337,-0.756 -1.502,-3.187 -1.019,-0.872 -1.89,-1.627 -1.936,-1.677 -0.047,-0.05 -0.956,-0.846 -2.021,-1.77 -1.066,-0.924 -1.975,-1.72 -2.022,-1.769 -0.046,-0.048 -0.955,-0.845 -2.021,-1.77 -1.065,-0.925 -2.202,-1.919 -2.526,-2.208 -0.324,-0.29 -4.303,-3.768 -8.842,-7.73 -8.668,-7.566 -8.802,-7.682 -13.221,-11.55 -1.528,-1.338 -4.219,-3.681 -5.979,-5.207 -1.76,-1.526 -3.276,-2.857 -3.368,-2.957 -0.093,-0.101 -1.003,-0.895 -2.021,-1.766 -1.019,-0.87 -1.891,-1.626 -1.937,-1.679 -0.047,-0.053 -1.638,-1.448 -3.537,-3.099 -1.899,-1.651 -3.718,-3.239 -4.042,-3.528 -0.324,-0.29 -1.461,-1.284 -2.527,-2.209 -1.065,-0.925 -1.974,-1.723 -2.021,-1.773 -0.046,-0.051 -1.524,-1.339 -3.284,-2.863 -1.76,-1.524 -3.465,-3.01 -3.789,-3.302 -0.325,-0.291 -1.916,-1.687 -3.537,-3.101 -1.621,-1.413 -3.44,-3.002 -4.042,-3.529 -2.316,-2.028 -10.819,-9.445 -13.39,-11.679 -1.482,-1.288 -2.998,-2.619 -3.368,-2.958 -0.371,-0.34 -1.508,-1.334 -2.526,-2.211 -1.019,-0.876 -2.118,-1.83 -2.443,-2.12 -0.324,-0.29 -1.915,-1.684 -3.536,-3.098 -1.621,-1.413 -3.44,-3.004 -4.043,-3.533 -0.602,-0.53 -2.61,-2.285 -4.463,-3.9 -1.852,-1.615 -6.4,-5.582 -10.105,-8.816 -3.705,-3.233 -7.005,-6.11 -7.333,-6.393 -0.328,-0.284 -1.161,-1.017 -1.852,-1.629 -0.692,-0.613 -2.545,-2.234 -4.12,-3.603 -1.575,-1.369 -3.129,-2.724 -3.453,-3.012 -0.324,-0.288 -1.461,-1.281 -2.526,-2.206 -1.065,-0.925 -1.975,-1.722 -2.021,-1.771 -0.047,-0.048 -0.956,-0.845 -2.021,-1.77 -1.066,-0.925 -2.202,-1.919 -2.527,-2.209 -0.324,-0.29 -3.393,-2.971 -6.821,-5.959 -3.427,-2.987 -6.496,-5.668 -6.821,-5.957 -0.324,-0.289 -1.461,-1.283 -2.526,-2.209 -1.065,-0.926 -2.019,-1.76 -2.118,-1.853 -0.1,-0.093 -1.843,-1.609 -3.873,-3.369 -2.03,-1.76 -4.07,-3.545 -4.534,-3.967 -0.464,-0.422 -1.677,-1.482 -2.696,-2.354 -1.019,-0.872 -1.891,-1.63 -1.937,-1.683 -0.046,-0.053 -1.638,-1.448 -3.537,-3.099 -1.899,-1.651 -3.718,-3.239 -4.042,-3.529 -0.324,-0.289 -1.461,-1.284 -2.526,-2.21 -1.065,-0.926 -2.202,-1.921 -2.526,-2.211 -2.354,-2.102 -7.811,-6.799 -7.896,-6.795 -0.058,0.003 -0.334,0.212 -0.615,0.464"
      stroke="none"
      fill="#e12e0e"
      fill-rule="evenodd"/>
    <path
      d="m 198.668,54.531 -1.164,0.964 1.374,0.049 c 0.756,0.027 1.993,0.027 2.749,0 l 1.375,-0.049 -1.136,-0.969 c -1.457,-1.243 -1.692,-1.242 -3.198,0.005 m -27.548,23.153 -1.241,1.053 15.187,0.043 c 8.353,0.023 22.023,0.023 30.379,0 l 15.193,-0.043 -1.256,-1.05 -1.256,-1.049 -27.882,-0.003 -27.882,-0.003 -1.242,1.052 m -9.335,7.832 -1.153,0.968 19.811,0.043 c 10.895,0.024 28.72,0.024 39.609,0 l 19.8,-0.043 -1.177,-0.968 -1.177,-0.969 h -37.281 -37.28 l -1.152,0.969 m -27.433,23.044 c -0.622,0.517 -1.131,0.971 -1.131,1.011 0,0.039 30.169,0.071 67.041,0.071 h 67.041 l -1.171,-1.01 -1.171,-1.011 h -64.739 -64.738 l -1.132,0.939 m -9.416,7.903 -1.216,1.011 38.28,0.042 c 21.054,0.024 55.453,0.024 76.443,0 l 38.163,-0.042 -1.069,-0.927 -1.069,-0.926 -74.159,-0.084 -74.158,-0.084 -1.215,1.01 m -27.517,23.116 -1.135,0.968 51.998,0.043 c 28.599,0.023 75.351,0.023 103.894,0 l 51.895,-0.043 -1.167,-0.968 -1.167,-0.968 H 200.145 98.553 l -1.134,0.968 m -9.327,7.835 -1.256,1.049 56.722,0.043 c 31.197,0.023 82.192,0.023 113.321,0 l 56.6,-0.043 -1.273,-1.052 -1.273,-1.053 -110.793,0.003 -110.793,0.003 -1.255,1.05 m -27.469,23.07 -1.251,1.053 49.406,0.042 49.406,0.043 1.455,-0.871 c 0.801,-0.48 1.605,-0.972 1.788,-1.095 0.277,-0.187 -8.009,-0.224 -49.611,-0.224 H 61.873 l -1.25,1.052 m 177.28,-0.916 c 0.088,0.075 0.852,0.568 1.698,1.095 l 1.539,0.959 49.857,-0.043 49.856,-0.042 -1.235,-1.053 -1.235,-1.052 h -50.32 c -27.676,0 -50.248,0.061 -50.16,0.136 M 51.41,178.209 c -0.579,0.474 -1.052,0.928 -1.052,1.01 0,0.086 20.673,0.146 48.968,0.141 l 48.969,-0.007 1.091,-1.003 1.091,-1.003 H 101.469 52.462 l -1.052,0.862 m 198.639,0.149 1.138,1.01 h 49.396 c 27.168,0 49.396,-0.033 49.396,-0.073 0,-0.041 -0.497,-0.495 -1.104,-1.011 l -1.105,-0.937 h -49.43 -49.43 l 1.139,1.011 M 50.358,201.516 v 1.095 h 40.25 40.25 l 0.508,-1.006 c 0.279,-0.553 0.508,-1.046 0.508,-1.095 0,-0.049 -18.341,-0.089 -40.758,-0.089 H 50.358 v 1.095 m 217.638,0 0.539,1.095 h 40.891 40.89 v -1.095 -1.095 h -41.43 -41.43 l 0.54,1.095 m -217.638,7.831 v 1.011 h 38.619 38.619 l 0.364,-1.011 0.363,-1.01 H 89.341 50.358 v 1.01 m 220.861,-0.621 c 0.054,0.213 0.214,0.668 0.357,1.01 l 0.26,0.622 h 39.24 39.24 v -1.011 -1.01 h -39.597 -39.598 l 0.098,0.389 M 50.358,232.421 v 1.011 h 36.357 36.357 l 0.104,-0.632 c 0.058,-0.347 0.105,-0.802 0.106,-1.011 l 0.002,-0.378 H 86.821 50.358 v 1.01 m 225.853,0 v 1.011 h 37.052 37.053 v -1.011 -1.01 h -37.053 -37.052 v 1.01 m -225.853,7.832 v 1.094 h 36.379 36.379 v -1.094 -1.095 H 86.737 50.358 v 1.095 m 225.965,-0.983 c -0.062,0.062 -0.112,0.555 -0.112,1.095 v 0.982 h 37.052 37.053 v -1.094 -1.095 h -36.941 c -20.317,0 -36.99,0.05 -37.052,0.112 M 50.358,263.411 v 1.01 h 36.379 36.379 v -1.01 -1.011 H 86.737 50.358 v 1.011 m 225.853,0 v 1.01 h 37.052 37.053 v -1.01 -1.011 h -37.053 -37.052 v 1.011 m -225.853,7.831 v 1.095 h 36.379 36.379 v -1.095 -1.095 H 86.737 50.358 v 1.095 m 225.887,-0.042 0.05,1.053 37.01,0.042 37.011,0.043 v -1.096 -1.095 h -37.061 -37.061 l 0.051,1.053 M 50.358,294.316 v 1.095 h 36.379 36.379 v -1.095 -1.095 H 86.737 50.358 v 1.095 m 225.853,0 v 1.095 h 37.052 37.053 v -1.095 -1.095 h -37.053 -37.052 v 1.095 m -225.853,7.831 v 1.011 h 36.379 36.379 v -1.011 -1.01 H 86.737 50.358 v 1.01 m 225.853,0 v 1.011 h 37.052 37.053 v -1.011 -1.01 h -37.053 -37.052 v 1.01 M 50.358,325.221 v 1.011 h 36.379 36.379 v -1.011 -1.01 H 86.737 50.358 v 1.01 m 225.853,0 v 1.011 h 37.052 37.053 v -1.011 -1.01 h -37.053 -37.052 v 1.01 m -225.853,7.916 v 1.01 h 36.379 36.379 v -1.01 -1.011 H 86.737 50.358 v 1.011 m 225.853,0 v 1.01 h 37.052 37.053 v -1.01 -1.011 h -37.053 -37.052 v 1.011 M 50.358,356.211 v 1.01 h 36.379 36.379 v -1.01 -1.011 H 86.737 50.358 v 1.011 m 225.853,0 v 1.01 h 37.052 37.053 v -1.01 -1.011 h -37.053 -37.052 v 1.011 m -225.853,7.831 v 1.095 h 36.379 36.379 v -1.095 -1.095 H 86.737 50.358 v 1.095 m 225.965,-0.982 c -0.062,0.061 -0.112,0.554 -0.112,1.094 v 0.983 h 37.052 37.053 v -1.095 -1.095 h -36.941 c -20.317,0 -36.99,0.051 -37.052,0.113 M 50.358,387.2 v 1.011 H 200.337 350.316 V 387.2 386.189 H 200.337 50.358 v 1.011"
      stroke="none"
      fill="#fbe3ab"
      fill-rule="evenodd"/>
    <path
      d="m 166.334,81.684 -1.82,1.516 35.68,-0.007 35.68,-0.007 -0.674,-0.596 c -0.371,-0.328 -1.175,-1.007 -1.787,-1.509 l -1.114,-0.913 h -32.072 -32.072 l -1.821,1.516 m -36.792,30.905 -1.902,1.6 h 72.551 c 39.902,0 72.478,-0.063 72.39,-0.14 -0.088,-0.077 -0.932,-0.797 -1.876,-1.6 l -1.715,-1.46 h -68.773 -68.773 l -1.902,1.6 m -36.752,30.864 -1.758,1.473 54.624,0.043 c 30.043,0.023 79.146,0.023 109.116,0 l 54.492,-0.043 -1.748,-1.471 -1.748,-1.472 -105.61,-0.002 -105.61,-0.002 -1.758,1.474 m 105.911,15.998 c 0.583,0.033 1.492,0.033 2.021,0 0.529,-0.034 0.053,-0.061 -1.059,-0.06 -1.111,0 -1.544,0.027 -0.962,0.06 m 94.131,13.476 -49.652,0.042 2.033,1.516 2.032,1.516 49.414,-0.043 49.413,-0.042 -1.794,-1.516 -1.794,-1.516 -49.652,0.043 M 55.841,174.484 54.043,176 h 49.044 49.044 l 1.872,-1.379 c 1.029,-0.758 1.943,-1.44 2.031,-1.515 0.088,-0.076 -22.015,-0.138 -49.118,-0.138 H 57.639 l -1.798,1.516 M 44.842,183.697 39.747,188 v 107.01 107.011 h 5.221 5.221 v -4.674 -4.673 h 150.064 150.063 v 4.673 4.674 h 5.305 5.305 L 360.92,295.2 l -0.006,-106.821 -5.173,-4.338 -5.173,-4.337 -0.084,12.085 -0.084,12.085 -40.616,0.042 -40.617,0.043 0.653,1.473 0.653,1.473 40.005,0.043 40.006,0.042 v 13.895 13.894 h -37.137 -37.136 v 1.6 1.6 h 37.136 37.137 v 13.895 13.894 h -37.137 -37.136 v 1.516 1.515 l 37.094,0.043 37.095,0.042 v 13.895 13.895 l -37.095,0.042 -37.094,0.043 v 1.515 1.515 h 37.136 37.137 v 13.895 13.895 h -37.137 -37.136 v 1.6 1.6 h 37.136 37.137 v 13.895 13.894 h -37.137 -37.136 v 1.6 1.6 h 37.136 37.137 v 13.895 13.895 H 200.337 50.189 v -13.895 -13.895 h 36.464 36.463 v -1.6 -1.6 H 86.655 50.194 l -0.003,-13.894 -0.002,-13.895 h 36.463 36.464 v -1.6 -1.6 H 86.653 50.189 v -13.895 -13.895 h 36.464 36.463 v -1.515 -1.516 H 86.653 50.189 V 282.779 268.8 h 36.464 36.463 v -1.516 -1.516 H 86.653 50.189 v -13.894 -13.895 h 36.464 36.463 v -1.6 -1.6 H 86.653 50.189 v -13.895 -13.895 l 39.369,-0.005 39.368,-0.006 0.679,-1.552 0.679,-1.552 H 90.279 50.274 L 50.23,191.621 c -0.023,-6.739 -0.099,-12.247 -0.168,-12.24 -0.069,0.007 -2.418,1.95 -5.22,4.316 M 276.264,246.4 c 0,0.602 0.031,0.848 0.068,0.547 0.038,-0.301 0.038,-0.793 0,-1.094 -0.037,-0.301 -0.068,-0.055 -0.068,0.547 m -0.014,2.695 c 0,0.324 0.034,0.457 0.077,0.294 0.042,-0.162 0.042,-0.427 0,-0.589 -0.043,-0.162 -0.077,-0.029 -0.077,0.295 m 0.016,3.116 c 10e-4,0.648 0.031,0.893 0.067,0.543 0.037,-0.349 0.036,-0.88 -0.001,-1.179 -0.037,-0.299 -0.067,-0.013 -0.066,0.636 m -0.016,4.8 c 0,0.324 0.034,0.456 0.077,0.294 0.042,-0.162 0.042,-0.427 0,-0.589 -0.043,-0.162 -0.077,-0.03 -0.077,0.295 m 0.016,20.294 c 10e-4,0.649 0.031,0.893 0.067,0.544 0.037,-0.35 0.036,-0.88 -0.001,-1.179 -0.037,-0.299 -0.067,-0.013 -0.066,0.635 m 0,5.895 c 10e-4,0.648 0.031,0.893 0.067,0.544 0.037,-0.35 0.036,-0.88 -0.001,-1.179 -0.037,-0.299 -0.067,-0.013 -0.066,0.635 m -0.016,4.8 c 0,0.324 0.034,0.457 0.077,0.295 0.042,-0.162 0.042,-0.428 0,-0.59 -0.043,-0.162 -0.077,-0.029 -0.077,0.295 m 0.016,20.295 c 10e-4,0.648 0.031,0.893 0.067,0.543 0.037,-0.349 0.036,-0.88 -0.001,-1.179 -0.037,-0.299 -0.067,-0.013 -0.066,0.636 m 10e-4,5.81 c 0,0.695 0.03,0.979 0.066,0.632 0.037,-0.348 0.037,-0.916 0,-1.263 -0.036,-0.348 -0.066,-0.063 -0.066,0.631 m -0.017,4.884 c 0,0.325 0.034,0.457 0.077,0.295 0.042,-0.162 0.042,-0.427 0,-0.589 -0.043,-0.162 -0.077,-0.03 -0.077,0.294 m 0,3.706 c 0,0.324 0.034,0.457 0.077,0.294 0.042,-0.162 0.042,-0.427 0,-0.589 -0.043,-0.162 -0.077,-0.029 -0.077,0.295 m 0.014,16.505 c 0,0.602 0.031,0.848 0.068,0.547 0.038,-0.301 0.038,-0.793 0,-1.094 -0.037,-0.301 -0.068,-0.055 -0.068,0.547 m -0.014,2.695 c 0,0.324 0.034,0.457 0.077,0.294 0.042,-0.162 0.042,-0.427 0,-0.589 -0.043,-0.162 -0.077,-0.029 -0.077,0.295 m 0.016,3.116 c 10e-4,0.648 0.031,0.893 0.067,0.543 0.037,-0.349 0.036,-0.88 -0.001,-1.179 -0.037,-0.299 -0.067,-0.013 -0.066,0.636 m -0.016,4.968 c 0,0.324 0.034,0.457 0.077,0.295 0.042,-0.162 0.042,-0.428 0,-0.59 -0.043,-0.162 -0.077,-0.029 -0.077,0.295"
      stroke="none"
      fill="#c38c5b"
      fill-rule="evenodd"/>
    <path
      d="m 192.337,159.762 c -34.635,3.419 -62.693,29.857 -68.2,64.261 -0.997,6.227 -0.922,0.496 -0.977,75.051 l -0.051,68.084 h 76.554 76.553 l -0.048,-68.505 c -0.052,-75.708 0.044,-68.928 -1.063,-75.484 -6.646,-39.362 -43.14,-67.319 -82.768,-63.407 m 10.625,6.131 c 33.605,1.632 61.432,26.062 67.433,59.202 1.084,5.982 0.996,0.047 1.053,71.116 l 0.051,64.547 h -71.836 -71.837 l 0.054,-64.211 c 0.059,-69.398 0,-64.62 0.879,-70.083 4.84,-30.08 28.107,-53.976 57.898,-59.466 4.13,-0.761 5.941,-0.941 12.501,-1.242 0.278,-0.013 1.99,0.048 3.804,0.137 M 50.189,397.305 c 0,2.594 0.033,4.716 0.072,4.716 0.1,0 15.302,-9.109 15.499,-9.287 0.089,-0.081 -3.318,-0.145 -7.705,-0.145 h -7.866 v 4.716 m 284.677,-4.615 c 0.055,0.056 3.554,2.169 7.775,4.697 l 7.675,4.596 v -4.697 -4.697 h -7.776 c -4.276,0 -7.73,0.046 -7.674,0.101"
      stroke="none"
      fill="#9c744b"
      fill-rule="evenodd"/>
    <path
      d="m 199.116,165.849 c 0.347,0.036 0.916,0.036 1.263,0 0.347,-0.036 0.063,-0.066 -0.632,-0.066 -0.694,0 -0.979,0.03 -0.631,0.066"
      stroke="none"
      fill="#7f5b37"
      fill-rule="evenodd"/>
    <path
      d=""
      stroke="none"
      fill="#d44c2c"
      fill-rule="evenodd"/>
    <path
      d="m 184.211,80.126 c 8.823,0.024 23.261,0.024 32.084,0 8.823,-0.024 1.604,-0.044 -16.042,-0.044 -17.647,0 -24.866,0.02 -16.042,0.044 m -38.822,65.011 c 30.083,0.023 79.308,0.023 109.39,0 30.082,-0.024 5.469,-0.043 -54.695,-0.043 -60.164,0 -84.777,0.019 -54.695,0.043 m 204.968,46.485 -0.041,12.169 -40.658,-0.043 c -22.361,-0.023 -40.622,0.014 -40.579,0.084 0.146,0.237 81.237,0.153 81.328,-0.085 0.044,-0.115 0.06,-5.629 0.035,-12.252 l -0.044,-12.042 -0.041,12.169 M 70.274,203.916 c 11,0.024 29,0.024 40,0 11,-0.024 2,-0.044 -20,-0.044 -22,0 -31,0.02 -20,0.044 m 280.122,16.968 c 0,7.689 0.021,10.859 0.046,7.044 0.025,-3.814 0.025,-10.104 0,-13.979 -0.025,-3.874 -0.046,-0.753 -0.046,6.935 m 0,30.99 c 0,7.688 0.021,10.858 0.046,7.044 0.025,-3.814 0.025,-10.105 0,-13.979 -0.025,-3.874 -0.046,-0.754 -0.046,6.935 m 0,30.905 c 0,7.642 0.021,10.768 0.046,6.947 0.025,-3.821 0.025,-10.073 0,-13.894 -0.025,-3.821 -0.046,-0.695 -0.046,6.947 m 0,30.905 c 0,7.689 0.021,10.859 0.046,7.044 0.025,-3.814 0.025,-10.104 0,-13.979 -0.025,-3.874 -0.046,-0.753 -0.046,6.935 m 0,30.99 c 0,7.688 0.021,10.858 0.046,7.044 0.025,-3.814 0.025,-10.105 0,-13.979 -0.025,-3.874 -0.046,-0.754 -0.046,6.935 m 0,30.989 c 0,7.689 0.021,10.858 0.046,7.044 0.025,-3.814 0.025,-10.104 0,-13.979 -0.025,-3.874 -0.046,-0.753 -0.046,6.935"
      stroke="none"
      fill="#c4a474"
      fill-rule="evenodd"/>
  </g>
</svg>
