<svg
  xmlns="http://www.w3.org/2000/svg"
  viewBox="0 0 414.53189 419.92407">
  <g
    id="g20"
    transform="translate(-2.105,-2.1939974)">
    <path
      d="m 193.432,166.082 c -35.675,3.331 -63.013,31.578 -65.426,67.602 -0.108,1.619 -0.17,24.898 -0.172,64.8 l -0.002,62.274 h 71.831 71.832 l -0.002,-63.116 c -0.002,-64.797 0,-64.661 -0.686,-69.684 -5.152,-37.779 -39.687,-65.395 -77.375,-61.876"
      stroke="none"
      fill="#432611"
      fill-rule="evenodd"
      id="path2"/>
    <path
      d="m 200,53.389 c -0.057,0.093 0.056,0.169 0.253,0.169 0.196,0 0.31,-0.076 0.252,-0.169 -0.057,-0.092 -0.171,-0.168 -0.252,-0.168 -0.082,0 -0.196,0.076 -0.253,0.168 m 0.168,2.19 -2.863,0.084 -1.263,1.073 c -0.695,0.59 -2.551,2.153 -4.126,3.473 -1.575,1.321 -3.934,3.301 -5.243,4.401 -1.308,1.1 -5.047,4.236 -8.309,6.969 l -5.931,4.968 13.91,0.043 c 7.65,0.024 20.167,0.024 27.814,0 l 13.904,-0.043 -3.251,-2.72 c -1.789,-1.496 -4.351,-3.646 -5.694,-4.779 -4.995,-4.212 -11.066,-9.316 -13.909,-11.692 -0.548,-0.458 -1.262,-1.064 -1.586,-1.347 l -0.589,-0.514 -2.864,0.084 M 169.089,79.368 168.378,80 h 31.891 31.892 l -0.664,-0.547 -0.664,-0.548 -30.516,-0.084 -30.516,-0.084 -0.712,0.631 m -5.384,4.512 -0.758,0.666 37.285,10e-4 h 37.285 l -0.737,-0.666 -0.738,-0.667 h -35.789 -35.79 l -0.758,0.666 m -4.042,3.387 c -0.417,0.377 -2.531,2.174 -4.699,3.993 -2.167,1.82 -5.692,4.778 -7.831,6.574 -2.14,1.796 -5.626,4.714 -7.747,6.484 l -3.856,3.219 32.361,0.042 c 17.799,0.024 46.898,0.024 64.665,0 l 32.304,-0.042 -2.03,-1.702 c -6.167,-5.172 -10.79,-9.06 -15.909,-13.381 -2.354,-1.987 -4.891,-4.123 -5.638,-4.749 l -1.359,-1.137 -39.751,0.007 -39.752,0.007 -0.758,0.685 m -27.388,23.007 -0.813,0.715 68.711,-0.007 68.711,-0.007 -0.758,-0.666 -0.758,-0.665 -67.139,-0.043 -67.14,-0.043 -0.814,0.716 m -5.328,4.469 c -0.347,0.298 -0.631,0.598 -0.631,0.668 0,0.069 33.29,0.123 73.979,0.119 l 73.979,-0.007 -0.738,-0.667 -0.737,-0.667 -72.61,0.007 -72.61,0.006 -0.632,0.541 m 73.159,2.773 -76.526,0.042 -1.621,1.398 c -0.892,0.77 -2.532,2.155 -3.643,3.079 -1.112,0.924 -3.191,2.663 -4.62,3.864 -6.549,5.505 -9.567,8.036 -12.217,10.245 l -2.858,2.382 50.83,0.043 c 27.956,0.023 73.642,0.023 101.524,0 l 50.694,-0.043 -4.434,-3.705 c -2.439,-2.038 -5.457,-4.58 -6.708,-5.648 -1.251,-1.069 -3.866,-3.277 -5.811,-4.908 -1.945,-1.63 -4.56,-3.825 -5.811,-4.878 l -2.273,-1.913 -76.526,0.042 m -104.723,23.744 -0.815,0.712 105.589,0.003 105.588,0.004 -0.738,-0.632 -0.738,-0.631 -104.036,-0.084 -104.036,-0.085 -0.814,0.713 m -5.362,4.512 -0.674,0.581 110.807,0.002 110.807,0.003 -0.659,-0.583 -0.66,-0.582 -109.474,-0.001 H 90.695 l -0.674,0.58 m -4.565,3.851 c -0.732,0.638 -1.717,1.472 -2.19,1.853 -0.472,0.381 -1.799,1.485 -2.947,2.453 -2.895,2.441 -8.442,7.097 -15.46,12.976 l -2.915,2.442 49.953,0.043 49.954,0.042 1.559,-0.868 c 22.103,-12.307 51.03,-12.156 73.306,0.383 l 1.01,0.569 50.274,-0.084 50.274,-0.085 -2.011,-1.684 c -1.105,-0.926 -2.73,-2.29 -3.61,-3.031 -0.88,-0.741 -2.142,-1.803 -2.804,-2.358 -3.669,-3.079 -7.022,-5.906 -12.375,-10.436 l -3.79,-3.206 -113.449,-0.085 -113.45,-0.084 -1.329,1.16 m -26.845,22.509 -0.927,0.833 49.263,0.001 49.264,0.001 1.01,-0.672 1.011,-0.673 h -49.4 c -32.89,-0.001 -49.364,-0.057 -49.295,-0.169 0.179,-0.29 0.028,-0.179 -0.926,0.679 m 182.736,-0.451 c 0,0.034 0.416,0.337 0.924,0.674 l 0.924,0.613 49.645,-0.006 49.644,-0.007 -0.737,-0.667 -0.738,-0.667 h -49.831 c -27.407,0 -49.831,0.027 -49.831,0.06 m -188.126,4.993 -0.758,0.663 48.992,0.005 48.993,0.005 0.818,-0.624 c 0.45,-0.343 0.818,-0.646 0.818,-0.673 0,-0.028 -22.073,-0.048 -49.052,-0.045 l -49.053,0.005 -0.758,0.664 m 194.863,0 0.758,0.663 49.432,-0.002 49.431,-0.002 -0.758,-0.666 -0.758,-0.666 -49.431,0.004 -49.432,0.005 0.758,0.664 m -197.892,14.863 0.002,12.252 h 40.051 40.051 l 0.281,-0.589 0.281,-0.589 h -40.25 -40.25 v -1.095 -1.095 l 40.8,-0.004 40.8,-0.004 1.095,-1.975 c 3.174,-5.726 7.321,-11.199 12.377,-16.335 l 2.696,-2.739 -48.968,-0.04 -48.969,-0.04 0.003,12.253 m 250.449,-12.21 -49.421,0.042 2.348,2.319 c 5.314,5.249 9.358,10.641 13.45,17.933 l 0.449,0.8 h 41.424 41.425 v -10.516 c 0,-5.784 -0.057,-10.54 -0.127,-10.569 -0.069,-0.028 -22.366,-0.033 -49.548,-0.009 m -32.009,23.376 c 0,0.051 0.115,0.316 0.257,0.59 l 0.256,0.496 h 40.586 40.585 v -0.589 -0.589 h -40.842 c -22.463,0 -40.842,0.041 -40.842,0.092 m -218.441,18.181 0.003,13.895 h 36.461 36.461 v -0.674 -0.673 H 86.737 50.358 v -1.011 -1.01 h 36.463 36.463 v -0.342 c 0,-3.84 1.737,-12.866 3.55,-18.452 0.363,-1.12 0.661,-2.086 0.661,-2.148 0,-0.061 -17.356,-0.111 -38.569,-0.111 H 50.358 v -1.011 -1.01 h 38.987 38.987 l 0.255,-0.61 c 0.14,-0.336 0.255,-0.639 0.255,-0.674 0,-0.035 -17.697,-0.064 -39.327,-0.064 H 50.189 l 0.002,13.895 m 220.585,-13.221 0.265,0.674 h 39.637 39.638 v -0.674 -0.674 h -39.902 -39.903 l 0.265,0.674 m 1.056,2.748 c 0,0.028 0.228,0.728 0.507,1.553 1.949,5.766 3.703,14.636 3.703,18.724 v 0.807 l 37.137,-0.043 37.137,-0.043 v -10.526 -10.525 h -39.242 c -21.583,0 -39.242,0.024 -39.242,0.053 m 4.379,23.694 v 0.674 h 37.052 37.053 v -0.674 -0.673 h -37.053 -37.052 v 0.673 m -226.02,17.769 0.003,13.894 h 36.461 36.461 v -0.673 -0.674 H 86.737 50.358 v -1.01 -1.011 h 36.379 36.379 V 251.874 241.347 H 86.737 50.358 v -1.094 -1.095 h 36.379 36.379 v -0.59 -0.589 H 86.652 50.189 l 0.002,13.895 m 226.02,-13.263 v 0.631 l 37.052,-0.043 37.053,-0.043 v -0.588 -0.589 h -37.053 -37.052 v 0.632 m 0.063,13.263 0.009,10.526 h 37.016 37.017 V 251.874 241.347 H 313.29 276.265 l 0.009,10.527 m -0.063,13.221 v 0.673 h 37.052 37.053 v -0.673 -0.674 h -37.053 -37.052 v 0.674 m -225.944,3.916 c -0.045,0.115 -0.061,6.387 -0.037,13.936 l 0.044,13.727 36.421,0.042 36.421,0.043 v -0.674 -0.674 H 86.737 50.358 v -1.095 -1.095 h 36.379 36.379 V 282.779 272.337 H 86.737 50.358 v -1.095 -1.095 h 36.379 36.379 V 269.474 268.8 H 86.732 c -28.953,0 -36.401,0.043 -36.465,0.211 m 225.944,0.463 v 0.673 h 37.052 37.053 v -0.673 -0.674 h -37.053 -37.052 v 0.674 m 0.067,13.263 0.01,10.484 h 37.014 37.014 V 282.78 272.338 l -37.024,-0.043 -37.025,-0.042 0.011,10.484 m -0.067,13.347 v 0.674 h 37.052 37.053 v -0.674 -0.673 h -37.053 -37.052 v 0.673 m -226.02,17.6 0.003,13.895 h 36.461 36.461 v -0.674 -0.673 H 86.737 50.358 v -1.011 -1.01 h 36.379 36.379 V 313.684 303.158 H 86.737 50.358 v -1.011 -1.01 h 36.379 36.379 v -0.674 -0.674 H 86.652 50.189 l 0.002,13.895 m 226.02,-13.221 v 0.674 h 37.052 37.053 v -0.674 -0.674 h -37.053 -37.052 v 0.674 m 0.069,13.221 0.012,10.527 h 37.012 37.012 v -10.527 -10.526 h -37.024 -37.024 l 0.012,10.526 m -0.069,13.221 v 0.674 h 37.052 37.053 v -0.674 -0.673 h -37.053 -37.052 v 0.673 m -226.02,17.769 0.003,13.894 h 36.461 36.461 v -0.673 -0.674 H 86.737 50.358 v -1.01 -1.011 h 36.379 36.379 V 344.674 334.147 H 86.737 50.358 v -1.01 -1.011 h 36.379 36.379 v -0.673 -0.674 H 86.652 50.189 l 0.002,13.895 m 226.02,-13.221 v 0.673 h 37.052 37.053 v -0.673 -0.674 h -37.053 -37.052 v 0.674 m 0.067,13.221 0.012,10.526 h 37.013 37.013 v -10.526 -10.527 h -37.025 -37.025 l 0.012,10.527 m -0.067,13.221 v 0.673 h 37.052 37.053 v -0.673 -0.674 h -37.053 -37.052 v 0.674 M 50.189,375.663 v 13.895 h 150.064 150.063 v -0.674 -0.673 H 200.337 50.358 v -1.011 -1.011 h 149.979 149.979 v -10.526 -10.526 h -37.053 -37.052 v 1.01 1.011 h -76.548 -76.547 v -1.011 -1.01 H 86.737 50.358 v -1.095 -1.095 h 36.379 36.379 v -0.589 -0.59 H 86.653 50.189 v 13.895 M 276.211,362.4 v 0.632 l 37.052,-0.043 37.053,-0.043 v -0.589 -0.589 h -37.053 -37.052 v 0.632"
      stroke="none"
      fill="#f3ba64"
      fill-rule="evenodd"
      id="path4"/>
    <path
      d="m 200.5,2.658 c -0.28,0.252 -0.877,0.761 -1.326,1.131 -0.448,0.371 -0.949,0.788 -1.111,0.927 -0.163,0.139 -1.154,0.972 -2.201,1.852 -1.048,0.88 -2.933,2.473 -4.189,3.54 -1.973,1.676 -7.884,6.656 -9.091,7.659 -0.224,0.186 -0.944,0.796 -1.6,1.355 -1.171,0.999 -7.196,6.065 -8.004,6.729 -0.226,0.186 -0.718,0.609 -1.094,0.939 -0.376,0.33 -1.897,1.614 -3.379,2.853 -2.503,2.092 -4.441,3.724 -4.9,4.125 -0.304,0.266 -1.577,1.339 -5.289,4.456 -1.899,1.595 -3.642,3.065 -3.874,3.266 -0.436,0.381 -7.713,6.512 -12.624,10.636 -3.617,3.038 -4.221,3.548 -6.488,5.474 -1.036,0.88 -2.967,2.509 -4.291,3.621 -2.598,2.181 -2.573,2.16 -3.895,3.284 -0.49,0.417 -2.155,1.819 -3.699,3.116 -1.544,1.297 -5.149,4.331 -8.01,6.742 -10.442,8.799 -12.789,10.776 -13.119,11.05 -0.185,0.155 -1.216,1.027 -2.291,1.939 -1.074,0.912 -3.035,2.568 -4.358,3.68 -1.322,1.111 -2.641,2.221 -2.93,2.466 -1.22,1.033 -8.788,7.412 -13.158,11.091 -2.594,2.184 -6.421,5.407 -8.505,7.163 -2.085,1.755 -3.941,3.318 -4.127,3.472 -0.185,0.154 -1.216,1.026 -2.29,1.939 -1.075,0.912 -3.036,2.568 -4.36,3.679 -1.323,1.112 -2.68,2.258 -3.015,2.548 -0.334,0.29 -2.132,1.806 -3.994,3.369 -1.861,1.562 -5.727,4.814 -8.589,7.226 -2.862,2.412 -7.137,6.01 -9.499,7.996 -2.362,1.985 -4.379,3.688 -4.481,3.783 -0.102,0.095 -1.044,0.893 -2.093,1.773 -2.38,1.997 -5.5,4.631 -6.058,5.113 -0.231,0.201 -1.065,0.903 -1.852,1.561 -0.788,0.658 -2.5,2.097 -3.806,3.198 -10.828,9.129 -13.829,11.662 -14.282,12.055 l -0.523,0.453 8.864,8.874 8.864,8.874 9.922,0.176 9.921,0.176 5.795,-4.872 c 6.051,-5.087 10.917,-9.174 14.908,-12.522 3.447,-2.891 73.917,-62.08 77.389,-65 1.621,-1.364 5.487,-4.611 8.59,-7.216 3.103,-2.606 10.985,-9.226 17.516,-14.712 6.53,-5.486 13.617,-11.436 15.747,-13.222 2.131,-1.785 7.625,-6.397 12.211,-10.248 4.585,-3.851 8.389,-7.002 8.454,-7.003 0.065,0 1.619,1.266 3.453,2.814 4.07,3.435 10.961,9.238 18.156,15.288 2.964,2.493 6.071,5.109 6.905,5.813 0.834,0.704 6.101,5.137 11.705,9.851 5.604,4.714 11.592,9.755 13.306,11.202 1.713,1.446 4.821,4.062 6.905,5.813 2.084,1.75 4.471,3.759 5.305,4.463 1.443,1.219 15.222,12.821 25.516,21.486 2.64,2.222 6.998,5.891 9.684,8.154 2.686,2.262 6.703,5.645 8.926,7.517 2.224,1.872 6.581,5.541 9.685,8.155 3.103,2.613 7.688,6.473 10.189,8.577 2.501,2.104 8.754,7.368 13.895,11.697 5.141,4.329 11.09,9.332 13.221,11.117 l 3.874,3.247 3.2,0.111 c 1.76,0.061 4.829,0.181 6.821,0.266 1.991,0.085 5.212,0.2 7.157,0.256 l 3.537,0.101 1.263,-1.206 c 1.403,-1.34 1.87,-1.776 5.389,-5.045 1.343,-1.247 2.639,-2.457 2.881,-2.688 0.242,-0.232 1.379,-1.293 2.527,-2.357 1.148,-1.065 2.536,-2.362 3.084,-2.883 1.17,-1.111 1.337,-0.756 -1.502,-3.187 -1.019,-0.872 -1.89,-1.627 -1.936,-1.677 -0.047,-0.05 -0.956,-0.846 -2.021,-1.77 -1.066,-0.924 -1.975,-1.72 -2.022,-1.769 -0.046,-0.048 -0.955,-0.845 -2.021,-1.77 -1.065,-0.925 -2.202,-1.919 -2.526,-2.208 -0.324,-0.29 -4.303,-3.768 -8.842,-7.73 -8.668,-7.566 -8.802,-7.682 -13.221,-11.55 -1.528,-1.338 -4.219,-3.681 -5.979,-5.207 -1.76,-1.526 -3.276,-2.857 -3.368,-2.957 -0.093,-0.101 -1.003,-0.895 -2.021,-1.766 -1.019,-0.87 -1.891,-1.626 -1.937,-1.679 -0.047,-0.053 -1.638,-1.448 -3.537,-3.099 -1.899,-1.651 -3.718,-3.239 -4.042,-3.528 -0.324,-0.29 -1.461,-1.284 -2.527,-2.209 -1.065,-0.925 -1.974,-1.723 -2.021,-1.773 -0.046,-0.051 -1.524,-1.339 -3.284,-2.863 -1.76,-1.524 -3.465,-3.01 -3.789,-3.302 -0.325,-0.291 -1.916,-1.687 -3.537,-3.101 -1.621,-1.413 -3.44,-3.002 -4.042,-3.529 -2.316,-2.028 -10.819,-9.445 -13.39,-11.679 -1.482,-1.288 -2.998,-2.619 -3.368,-2.958 -0.371,-0.34 -1.508,-1.334 -2.526,-2.211 -1.019,-0.876 -2.118,-1.83 -2.443,-2.12 -0.324,-0.29 -1.915,-1.684 -3.536,-3.098 -1.621,-1.413 -3.44,-3.004 -4.043,-3.533 -0.602,-0.53 -2.61,-2.285 -4.463,-3.9 -1.852,-1.615 -6.4,-5.582 -10.105,-8.816 -3.705,-3.233 -7.005,-6.11 -7.333,-6.393 -0.328,-0.284 -1.161,-1.017 -1.852,-1.629 -0.692,-0.613 -2.545,-2.234 -4.12,-3.603 -1.575,-1.369 -3.129,-2.724 -3.453,-3.012 -0.324,-0.288 -1.461,-1.281 -2.526,-2.206 -1.065,-0.925 -1.975,-1.722 -2.021,-1.771 -0.047,-0.048 -0.956,-0.845 -2.021,-1.77 -1.066,-0.925 -2.202,-1.919 -2.527,-2.209 -0.324,-0.29 -3.393,-2.971 -6.821,-5.959 -3.427,-2.987 -6.496,-5.668 -6.821,-5.957 -0.324,-0.289 -1.461,-1.283 -2.526,-2.209 -1.065,-0.926 -2.019,-1.76 -2.118,-1.853 -0.1,-0.093 -1.843,-1.609 -3.873,-3.369 -2.03,-1.76 -4.07,-3.545 -4.534,-3.967 -0.464,-0.422 -1.677,-1.482 -2.696,-2.354 -1.019,-0.872 -1.891,-1.63 -1.937,-1.683 -0.046,-0.053 -1.638,-1.448 -3.537,-3.099 -1.899,-1.651 -3.718,-3.239 -4.042,-3.529 -0.324,-0.289 -1.461,-1.284 -2.526,-2.21 -1.065,-0.926 -2.202,-1.921 -2.526,-2.211 -2.354,-2.102 -7.811,-6.799 -7.896,-6.795 -0.058,0.003 -0.334,0.212 -0.615,0.464"
      stroke="none"
      fill="#e12e0e"
      fill-rule="evenodd"
      id="path6"/>
    <path
      d="m 198.668,54.531 -1.164,0.964 1.374,0.049 c 0.756,0.027 1.993,0.027 2.749,0 l 1.375,-0.049 -1.136,-0.969 c -1.457,-1.243 -1.692,-1.242 -3.198,0.005 m -27.548,23.153 -1.241,1.053 15.187,0.043 c 8.353,0.023 22.023,0.023 30.379,0 l 15.193,-0.043 -1.256,-1.05 -1.256,-1.049 -27.882,-0.003 -27.882,-0.003 -1.242,1.052 m -9.335,7.832 -1.153,0.968 19.811,0.043 c 10.895,0.024 28.72,0.024 39.609,0 l 19.8,-0.043 -1.177,-0.968 -1.177,-0.969 h -37.281 -37.28 l -1.152,0.969 m -27.433,23.044 c -0.622,0.517 -1.131,0.971 -1.131,1.011 0,0.039 30.169,0.071 67.041,0.071 h 67.041 l -1.171,-1.01 -1.171,-1.011 h -64.739 -64.738 l -1.132,0.939 m -9.416,7.903 -1.216,1.011 38.28,0.042 c 21.054,0.024 55.453,0.024 76.443,0 l 38.163,-0.042 -1.069,-0.927 -1.069,-0.926 -74.159,-0.084 -74.158,-0.084 -1.215,1.01 m -27.517,23.116 -1.135,0.968 51.998,0.043 c 28.599,0.023 75.351,0.023 103.894,0 l 51.895,-0.043 -1.167,-0.968 -1.167,-0.968 H 200.145 98.553 l -1.134,0.968 m -9.327,7.835 -1.256,1.049 56.722,0.043 c 31.197,0.023 82.192,0.023 113.321,0 l 56.6,-0.043 -1.273,-1.052 -1.273,-1.053 -110.793,0.003 -110.793,0.003 -1.255,1.05 m -27.469,23.07 -1.251,1.053 49.406,0.042 49.406,0.043 1.455,-0.871 c 0.801,-0.48 1.605,-0.972 1.788,-1.095 0.277,-0.187 -8.009,-0.224 -49.611,-0.224 H 61.873 l -1.25,1.052 m 177.28,-0.916 c 0.088,0.075 0.852,0.568 1.698,1.095 l 1.539,0.959 49.857,-0.043 49.856,-0.042 -1.235,-1.053 -1.235,-1.052 h -50.32 c -27.676,0 -50.248,0.061 -50.16,0.136 M 51.41,178.209 c -0.579,0.474 -1.052,0.928 -1.052,1.01 0,0.086 20.673,0.146 48.968,0.141 l 48.969,-0.007 1.091,-1.003 1.091,-1.003 H 101.469 52.462 l -1.052,0.862 m 198.639,0.149 1.138,1.01 h 49.396 c 27.168,0 49.396,-0.033 49.396,-0.073 0,-0.041 -0.497,-0.495 -1.104,-1.011 l -1.105,-0.937 h -49.43 -49.43 l 1.139,1.011 M 50.358,201.516 v 1.095 h 40.25 40.25 l 0.508,-1.006 c 0.279,-0.553 0.508,-1.046 0.508,-1.095 0,-0.049 -18.341,-0.089 -40.758,-0.089 H 50.358 v 1.095 m 217.638,0 0.539,1.095 h 40.891 40.89 v -1.095 -1.095 h -41.43 -41.43 l 0.54,1.095 m -217.638,7.831 v 1.011 h 38.619 38.619 l 0.364,-1.011 0.363,-1.01 H 89.341 50.358 v 1.01 m 220.861,-0.621 c 0.054,0.213 0.214,0.668 0.357,1.01 l 0.26,0.622 h 39.24 39.24 v -1.011 -1.01 h -39.597 -39.598 l 0.098,0.389 M 50.358,232.421 v 1.011 h 36.357 36.357 l 0.104,-0.632 c 0.058,-0.347 0.105,-0.802 0.106,-1.011 l 0.002,-0.378 H 86.821 50.358 v 1.01 m 225.853,0 v 1.011 h 37.052 37.053 v -1.011 -1.01 h -37.053 -37.052 v 1.01 m -225.853,7.832 v 1.094 h 36.379 36.379 v -1.094 -1.095 H 86.737 50.358 v 1.095 m 225.965,-0.983 c -0.062,0.062 -0.112,0.555 -0.112,1.095 v 0.982 h 37.052 37.053 v -1.094 -1.095 h -36.941 c -20.317,0 -36.99,0.05 -37.052,0.112 M 50.358,263.411 v 1.01 h 36.379 36.379 v -1.01 -1.011 H 86.737 50.358 v 1.011 m 225.853,0 v 1.01 h 37.052 37.053 v -1.01 -1.011 h -37.053 -37.052 v 1.011 m -225.853,7.831 v 1.095 h 36.379 36.379 v -1.095 -1.095 H 86.737 50.358 v 1.095 m 225.887,-0.042 0.05,1.053 37.01,0.042 37.011,0.043 v -1.096 -1.095 h -37.061 -37.061 l 0.051,1.053 M 50.358,294.316 v 1.095 h 36.379 36.379 v -1.095 -1.095 H 86.737 50.358 v 1.095 m 225.853,0 v 1.095 h 37.052 37.053 v -1.095 -1.095 h -37.053 -37.052 v 1.095 m -225.853,7.831 v 1.011 h 36.379 36.379 v -1.011 -1.01 H 86.737 50.358 v 1.01 m 225.853,0 v 1.011 h 37.052 37.053 v -1.011 -1.01 h -37.053 -37.052 v 1.01 M 50.358,325.221 v 1.011 h 36.379 36.379 v -1.011 -1.01 H 86.737 50.358 v 1.01 m 225.853,0 v 1.011 h 37.052 37.053 v -1.011 -1.01 h -37.053 -37.052 v 1.01 m -225.853,7.916 v 1.01 h 36.379 36.379 v -1.01 -1.011 H 86.737 50.358 v 1.011 m 225.853,0 v 1.01 h 37.052 37.053 v -1.01 -1.011 h -37.053 -37.052 v 1.011 M 50.358,356.211 v 1.01 h 36.379 36.379 v -1.01 -1.011 H 86.737 50.358 v 1.011 m 225.853,0 v 1.01 h 37.052 37.053 v -1.01 -1.011 h -37.053 -37.052 v 1.011 m -225.853,7.831 v 1.095 h 36.379 36.379 v -1.095 -1.095 H 86.737 50.358 v 1.095 m 225.965,-0.982 c -0.062,0.061 -0.112,0.554 -0.112,1.094 v 0.983 h 37.052 37.053 v -1.095 -1.095 h -36.941 c -20.317,0 -36.99,0.051 -37.052,0.113 M 50.358,387.2 v 1.011 H 200.337 350.316 V 387.2 386.189 H 200.337 50.358 v 1.011"
      stroke="none"
      fill="#fbe3ab"
      fill-rule="evenodd"
      id="path8"/>
    <path
      d="m 166.334,81.684 -1.82,1.516 35.68,-0.007 35.68,-0.007 -0.674,-0.596 c -0.371,-0.328 -1.175,-1.007 -1.787,-1.509 l -1.114,-0.913 h -32.072 -32.072 l -1.821,1.516 m -36.792,30.905 -1.902,1.6 h 72.551 c 39.902,0 72.478,-0.063 72.39,-0.14 -0.088,-0.077 -0.932,-0.797 -1.876,-1.6 l -1.715,-1.46 h -68.773 -68.773 l -1.902,1.6 m -36.752,30.864 -1.758,1.473 54.624,0.043 c 30.043,0.023 79.146,0.023 109.116,0 l 54.492,-0.043 -1.748,-1.471 -1.748,-1.472 -105.61,-0.002 -105.61,-0.002 -1.758,1.474 m 105.911,15.998 c 0.583,0.033 1.492,0.033 2.021,0 0.529,-0.034 0.053,-0.061 -1.059,-0.06 -1.111,0 -1.544,0.027 -0.962,0.06 m 94.131,13.476 -49.652,0.042 2.033,1.516 2.032,1.516 49.414,-0.043 49.413,-0.042 -1.794,-1.516 -1.794,-1.516 -49.652,0.043 M 55.841,174.484 54.043,176 h 49.044 49.044 l 1.872,-1.379 c 1.029,-0.758 1.943,-1.44 2.031,-1.515 0.088,-0.076 -22.015,-0.138 -49.118,-0.138 H 57.639 l -1.798,1.516 M 44.842,183.697 39.747,188 v 107.01 107.011 h 5.221 5.221 v -4.674 -4.673 h 150.064 150.063 v 4.673 4.674 h 5.305 5.305 L 360.92,295.2 l -0.006,-106.821 -5.173,-4.338 -5.173,-4.337 -0.084,12.085 -0.084,12.085 -40.616,0.042 -40.617,0.043 0.653,1.473 0.653,1.473 40.005,0.043 40.006,0.042 v 13.895 13.894 h -37.137 -37.136 v 1.6 1.6 h 37.136 37.137 v 13.895 13.894 h -37.137 -37.136 v 1.516 1.515 l 37.094,0.043 37.095,0.042 v 13.895 13.895 l -37.095,0.042 -37.094,0.043 v 1.515 1.515 h 37.136 37.137 v 13.895 13.895 h -37.137 -37.136 v 1.6 1.6 h 37.136 37.137 v 13.895 13.894 h -37.137 -37.136 v 1.6 1.6 h 37.136 37.137 v 13.895 13.895 H 200.337 50.189 v -13.895 -13.895 h 36.464 36.463 v -1.6 -1.6 H 86.655 50.194 l -0.003,-13.894 -0.002,-13.895 h 36.463 36.464 v -1.6 -1.6 H 86.653 50.189 v -13.895 -13.895 h 36.464 36.463 v -1.515 -1.516 H 86.653 50.189 V 282.779 268.8 h 36.464 36.463 v -1.516 -1.516 H 86.653 50.189 v -13.894 -13.895 h 36.464 36.463 v -1.6 -1.6 H 86.653 50.189 v -13.895 -13.895 l 39.369,-0.005 39.368,-0.006 0.679,-1.552 0.679,-1.552 H 90.279 50.274 L 50.23,191.621 c -0.023,-6.739 -0.099,-12.247 -0.168,-12.24 -0.069,0.007 -2.418,1.95 -5.22,4.316 M 276.264,246.4 c 0,0.602 0.031,0.848 0.068,0.547 0.038,-0.301 0.038,-0.793 0,-1.094 -0.037,-0.301 -0.068,-0.055 -0.068,0.547 m -0.014,2.695 c 0,0.324 0.034,0.457 0.077,0.294 0.042,-0.162 0.042,-0.427 0,-0.589 -0.043,-0.162 -0.077,-0.029 -0.077,0.295 m 0.016,3.116 c 10e-4,0.648 0.031,0.893 0.067,0.543 0.037,-0.349 0.036,-0.88 -0.001,-1.179 -0.037,-0.299 -0.067,-0.013 -0.066,0.636 m -0.016,4.8 c 0,0.324 0.034,0.456 0.077,0.294 0.042,-0.162 0.042,-0.427 0,-0.589 -0.043,-0.162 -0.077,-0.03 -0.077,0.295 m 0.016,20.294 c 10e-4,0.649 0.031,0.893 0.067,0.544 0.037,-0.35 0.036,-0.88 -0.001,-1.179 -0.037,-0.299 -0.067,-0.013 -0.066,0.635 m 0,5.895 c 10e-4,0.648 0.031,0.893 0.067,0.544 0.037,-0.35 0.036,-0.88 -0.001,-1.179 -0.037,-0.299 -0.067,-0.013 -0.066,0.635 m -0.016,4.8 c 0,0.324 0.034,0.457 0.077,0.295 0.042,-0.162 0.042,-0.428 0,-0.59 -0.043,-0.162 -0.077,-0.029 -0.077,0.295 m 0.016,20.295 c 10e-4,0.648 0.031,0.893 0.067,0.543 0.037,-0.349 0.036,-0.88 -0.001,-1.179 -0.037,-0.299 -0.067,-0.013 -0.066,0.636 m 10e-4,5.81 c 0,0.695 0.03,0.979 0.066,0.632 0.037,-0.348 0.037,-0.916 0,-1.263 -0.036,-0.348 -0.066,-0.063 -0.066,0.631 m -0.017,4.884 c 0,0.325 0.034,0.457 0.077,0.295 0.042,-0.162 0.042,-0.427 0,-0.589 -0.043,-0.162 -0.077,-0.03 -0.077,0.294 m 0,3.706 c 0,0.324 0.034,0.457 0.077,0.294 0.042,-0.162 0.042,-0.427 0,-0.589 -0.043,-0.162 -0.077,-0.029 -0.077,0.295 m 0.014,16.505 c 0,0.602 0.031,0.848 0.068,0.547 0.038,-0.301 0.038,-0.793 0,-1.094 -0.037,-0.301 -0.068,-0.055 -0.068,0.547 m -0.014,2.695 c 0,0.324 0.034,0.457 0.077,0.294 0.042,-0.162 0.042,-0.427 0,-0.589 -0.043,-0.162 -0.077,-0.029 -0.077,0.295 m 0.016,3.116 c 10e-4,0.648 0.031,0.893 0.067,0.543 0.037,-0.349 0.036,-0.88 -0.001,-1.179 -0.037,-0.299 -0.067,-0.013 -0.066,0.636 m -0.016,4.968 c 0,0.324 0.034,0.457 0.077,0.295 0.042,-0.162 0.042,-0.428 0,-0.59 -0.043,-0.162 -0.077,-0.029 -0.077,0.295"
      stroke="none"
      fill="#c38c5b"
      fill-rule="evenodd"
      id="path10"/>
    <path
      d="m 192.337,159.762 c -34.635,3.419 -62.693,29.857 -68.2,64.261 -0.997,6.227 -0.922,0.496 -0.977,75.051 l -0.051,68.084 h 76.554 76.553 l -0.048,-68.505 c -0.052,-75.708 0.044,-68.928 -1.063,-75.484 -6.646,-39.362 -43.14,-67.319 -82.768,-63.407 m 10.625,6.131 c 33.605,1.632 61.432,26.062 67.433,59.202 1.084,5.982 0.996,0.047 1.053,71.116 l 0.051,64.547 h -71.836 -71.837 l 0.054,-64.211 c 0.059,-69.398 0,-64.62 0.879,-70.083 4.84,-30.08 28.107,-53.976 57.898,-59.466 4.13,-0.761 5.941,-0.941 12.501,-1.242 0.278,-0.013 1.99,0.048 3.804,0.137 M 50.189,397.305 c 0,2.594 0.033,4.716 0.072,4.716 0.1,0 15.302,-9.109 15.499,-9.287 0.089,-0.081 -3.318,-0.145 -7.705,-0.145 h -7.866 v 4.716 m 284.677,-4.615 c 0.055,0.056 3.554,2.169 7.775,4.697 l 7.675,4.596 v -4.697 -4.697 h -7.776 c -4.276,0 -7.73,0.046 -7.674,0.101"
      stroke="none"
      fill="#9c744b"
      fill-rule="evenodd"
      id="path12"/>
    <path
      d="m 199.116,165.849 c 0.347,0.036 0.916,0.036 1.263,0 0.347,-0.036 0.063,-0.066 -0.632,-0.066 -0.694,0 -0.979,0.03 -0.631,0.066"
      stroke="none"
      fill="#7f5b37"
      fill-rule="evenodd"
      id="path14"/>
    <path
      d=""
      stroke="none"
      fill="#d44c2c"
      fill-rule="evenodd"
      id="path16"/>
    <path
      d="m 184.211,80.126 c 8.823,0.024 23.261,0.024 32.084,0 8.823,-0.024 1.604,-0.044 -16.042,-0.044 -17.647,0 -24.866,0.02 -16.042,0.044 m -38.822,65.011 c 30.083,0.023 79.308,0.023 109.39,0 30.082,-0.024 5.469,-0.043 -54.695,-0.043 -60.164,0 -84.777,0.019 -54.695,0.043 m 204.968,46.485 -0.041,12.169 -40.658,-0.043 c -22.361,-0.023 -40.622,0.014 -40.579,0.084 0.146,0.237 81.237,0.153 81.328,-0.085 0.044,-0.115 0.06,-5.629 0.035,-12.252 l -0.044,-12.042 -0.041,12.169 M 70.274,203.916 c 11,0.024 29,0.024 40,0 11,-0.024 2,-0.044 -20,-0.044 -22,0 -31,0.02 -20,0.044 m 280.122,16.968 c 0,7.689 0.021,10.859 0.046,7.044 0.025,-3.814 0.025,-10.104 0,-13.979 -0.025,-3.874 -0.046,-0.753 -0.046,6.935 m 0,30.99 c 0,7.688 0.021,10.858 0.046,7.044 0.025,-3.814 0.025,-10.105 0,-13.979 -0.025,-3.874 -0.046,-0.754 -0.046,6.935 m 0,30.905 c 0,7.642 0.021,10.768 0.046,6.947 0.025,-3.821 0.025,-10.073 0,-13.894 -0.025,-3.821 -0.046,-0.695 -0.046,6.947 m 0,30.905 c 0,7.689 0.021,10.859 0.046,7.044 0.025,-3.814 0.025,-10.104 0,-13.979 -0.025,-3.874 -0.046,-0.753 -0.046,6.935 m 0,30.99 c 0,7.688 0.021,10.858 0.046,7.044 0.025,-3.814 0.025,-10.105 0,-13.979 -0.025,-3.874 -0.046,-0.754 -0.046,6.935 m 0,30.989 c 0,7.689 0.021,10.858 0.046,7.044 0.025,-3.814 0.025,-10.104 0,-13.979 -0.025,-3.874 -0.046,-0.753 -0.046,6.935"
      stroke="none"
      fill="#c4a474"
      fill-rule="evenodd"
      id="path18"/>
  </g>
  <g
    id="l5Ih2v87URZVXfD90d3NEio"
    fill="#000000"
    transform="matrix(0.1,0,0,0.1,108.227,113.117)">
    <g
      id="g5">
      <path
        id="pOfq4Yaro"
        d="m 1525,1807 c -36,-21 -44,-22 -70,-11 -17,7 -61,13 -98,14 -63,0 -71,-3 -98,-29 -25,-26 -29,-37 -29,-85 v -56 h 49 c 40,0 51,4 56,19 10,33 29,42 52,26 19,-13 20,-17 7,-67 -8,-29 -14,-83 -14,-120 0,-66 -1,-68 -27,-74 -87,-19 -156,-53 -173,-84 -14,-26 -12,-113 2,-132 46,-55 155,-88 298,-88 143,0 273,39 300,90 6,10 10,43 10,73 0,43 -4,58 -24,76 -34,32 -120,62 -198,68 -67,6 -68,6 -74,39 -15,78 44,207 109,237 43,21 70,13 115,-33 31,-31 38,-47 44,-100 3,-23 7,-25 53,-25 h 50 l 3,52 c 8,144 -80,232 -233,233 -55,0 -79,-5 -110,-23 z"/>
      <path
        id="pz95UTsEN"
        d="m 857,1034 c -40,-39 -61,-123 -61,-239 1,-117 21,-199 60,-238 22,-23 36,-27 80,-27 45,0 57,4 78,26 44,48 59,120 54,267 -4,137 -12,166 -58,215 -32,34 -118,32 -153,-4 z"/>
      <path
        id="pWxShTvoL"
        d="m 1997,1040 c -44,-35 -62,-108 -61,-250 0,-139 15,-195 61,-238 23,-21 34,-24 75,-20 85,9 122,68 134,218 11,129 -25,273 -75,300 -33,17 -106,12 -134,-10 z"/>
    </g>
  </g>
  <g
    id="l4xiaNp3deDQJ06wkOyRgme"
    fill="#a32d19"
    transform="matrix(0.1,0,0,0.1,108.227,113.117)">
    <g
      id="g13">
      <path
        id="p16DWxR33g"
        d="m 830,2860 c 0,-5 -15,-10 -32,-10 -71,0 -141,-74 -177,-183 -51,-159 -56,-478 -10,-624 15,-48 39,-43 39,7 0,43 38,211 50,220 4,3 17,27 30,53 14,27 42,61 67,80 l 42,32 1,135 c 0,74 3,172 7,218 4,59 3,82 -6,82 -6,0 -11,-4 -11,-10 z"/>
      <path
        id="pPugK0xKk"
        d="m 2295,2578 c 2,-283 6,-328 30,-328 12,0 68,-113 80,-162 5,-18 14,-28 25,-28 42,0 53,354 15,535 -21,103 -53,169 -108,223 l -44,43 z"/>
      <path
        id="p1HgKIiYHs"
        d="m 1325,2178 c -134,-32 -167,-42 -199,-59 -20,-10 -43,-19 -51,-19 -8,0 -24,-9 -35,-20 -11,-11 -26,-20 -32,-20 -7,0 -29,-15 -48,-33 -59,-56 -131,-107 -150,-107 -11,0 -23,-6 -27,-14 -4,-7 -22,-22 -39,-32 -17,-11 -44,-35 -61,-54 l -30,-35 17,-53 c 10,-29 13,-55 9,-58 -18,-11 -8,-24 17,-24 15,0 40,14 62,35 20,19 42,35 47,35 6,0 25,14 43,30 18,17 40,30 47,30 8,0 38,23 67,50 110,105 294,187 474,211 168,22 405,-17 538,-89 46,-25 116,-97 116,-120 0,-13 37,-39 110,-78 49,-26 119,-82 176,-141 27,-29 64,-31 57,-4 -7,28 16,91 33,91 8,0 37,-11 64,-25 27,-14 54,-25 60,-25 5,0 10,20 10,43 0,56 -48,155 -95,196 -19,17 -35,35 -35,41 0,5 -7,10 -16,10 -13,0 -15,-10 -13,-52 2,-29 2,-71 1,-93 l -2,-40 -58,61 c -56,59 -71,70 -159,113 -23,12 -52,35 -64,53 -33,47 -84,98 -98,98 -6,0 -20,9 -30,19 -26,26 -156,66 -255,80 -93,13 -395,12 -451,-1 z"/>
      <path
        id="p1q6fWAlP"
        d="M 182,1384 C 120,1353 76,1305 41,1230 17,1179 15,1165 16,1045 17,856 62,667 156,462 192,384 270,266 303,240 477,106 711,63 811,147 c 20,17 38,24 54,21 19,-4 25,-1 25,13 0,10 4,21 10,24 13,8 13,127 -1,162 -23,58 -63,133 -71,133 -4,0 -8,7 -8,15 0,8 -4,15 -8,15 -10,0 -97,175 -106,214 -4,17 -15,41 -25,55 -46,65 -101,232 -131,399 -12,66 -38,132 -52,132 -4,0 -8,-4 -8,-10 0,-18 -17,-11 -56,25 -75,67 -167,81 -252,39 z"/>
      <path
        id="p1EMcgQB9s"
        d="m 2738,1400 c -44,-13 -95,-49 -128,-88 -24,-29 -33,-34 -39,-23 -16,25 -42,-32 -48,-108 -3,-39 -9,-71 -13,-71 -4,0 -10,-23 -12,-51 -3,-28 -10,-54 -16,-58 -5,-3 -13,-23 -17,-44 -4,-20 -11,-37 -15,-37 -4,0 -10,-18 -14,-40 -3,-22 -11,-40 -16,-40 -6,0 -10,-9 -10,-20 0,-11 -4,-20 -10,-20 -5,0 -10,-5 -10,-12 0,-10 -36,-93 -61,-140 -5,-10 -9,-25 -9,-33 0,-8 -4,-15 -9,-15 -5,0 -15,-15 -22,-32 -7,-18 -22,-43 -33,-55 -20,-24 -39,-55 -56,-93 -6,-13 -15,-27 -19,-30 -13,-8 -24,-180 -12,-180 6,0 14,-18 17,-40 4,-22 11,-40 16,-40 5,0 17,-7 25,-16 10,-10 23,-13 37,-9 12,4 32,7 46,6 186,-6 236,2 335,49 177,85 302,287 381,620 29,117 35,167 37,260 1,131 -13,183 -70,260 -66,89 -165,127 -255,100 z"/>
    </g>
  </g>
  <g
    id="l3J7JewzTQNXAxRNso8mypt"
    fill="#e05f40"
    transform="matrix(0.1,0,0,0.1,108.227,113.117)">
    <g
      id="g19">
      <path
        id="p120NXz8IE"
        d="m 945,3051 c -47,-28 -64,-53 -97,-137 -29,-76 -31,-87 -35,-264 l -5,-185 -42,-32 c -24,-18 -51,-51 -62,-73 -10,-22 -23,-40 -27,-40 -5,0 -5,-4 -2,-10 3,-5 2,-10 -3,-10 -4,0 -16,-35 -26,-77 -10,-43 -21,-82 -24,-87 -19,-32 8,-313 35,-366 l 12,-24 38,39 c 21,22 52,49 68,59 17,11 34,25 38,33 4,7 16,13 27,13 19,0 91,51 150,107 19,18 41,33 49,33 8,0 19,7 26,17 7,9 21,17 32,18 11,0 31,8 44,17 32,20 114,47 166,53 23,3 53,9 66,14 24,9 324,6 382,-4 108,-18 131,-24 191,-46 30,-12 58,-27 61,-35 3,-8 12,-14 21,-14 17,0 63,-45 108,-107 17,-24 33,-40 36,-37 3,3 21,-4 39,-15 19,-12 43,-25 55,-30 23,-10 69,-53 131,-123 27,-32 47,-46 57,-42 8,3 15,9 14,12 -1,4 1,40 6,80 7,71 -8,208 -35,317 -17,67 -71,175 -87,175 -8,0 -12,3 -9,7 4,3 1,13 -6,21 -9,11 -12,82 -12,267 0,171 -4,256 -11,266 -6,8 -15,32 -19,54 -4,22 -20,59 -36,83 -16,24 -29,47 -29,53 0,5 -6,9 -14,9 -8,0 -16,6 -18,13 -3,8 -25,12 -64,12 -47,0 -66,-5 -93,-25 -110,-80 -163,-191 -180,-374 -6,-69 -7,-71 -33,-70 -16,0 -144,1 -287,2 l -258,2 -6,73 c -8,90 -39,199 -70,246 -85,127 -187,179 -262,132 z"/>
      <path
        id="p1Dgepnhvz"
        d="m 903,1833 c -13,-13 -23,-21 -23,-18 0,3 -13,-1 -30,-10 -16,-9 -30,-19 -30,-24 0,-5 -15,-16 -34,-25 -19,-9 -70,-53 -114,-98 -86,-86 -123,-149 -163,-273 -12,-38 -26,-71 -30,-73 -5,-2 1,-22 12,-44 11,-22 21,-56 22,-74 1,-19 6,-34 11,-34 4,0 6,-18 4,-40 -2,-22 0,-40 5,-40 5,0 7,-11 5,-25 -3,-14 -1,-25 4,-25 6,0 8,-7 4,-15 -3,-8 -2,-15 2,-15 7,0 59,-142 54,-148 -1,-1 4,-10 13,-19 9,-8 14,-20 12,-26 -2,-6 7,-21 19,-34 13,-14 26,-39 29,-56 9,-42 96,-217 108,-217 5,0 7,-7 3,-15 -3,-8 0,-15 7,-15 16,0 67,-91 69,-125 1,-14 6,-25 10,-25 11,0 10,-74 -1,-85 -5,-6 -11,-19 -13,-30 -1,-11 -7,-23 -13,-27 -5,-4 -1,-8 10,-8 11,0 31,-6 45,-13 58,-30 225,-83 340,-108 108,-23 95,-28 121,43 21,58 23,84 27,303 4,230 -6,400 -29,520 -16,76 -28,94 -68,101 -20,4 -45,13 -56,19 -11,7 -43,18 -72,25 -28,6 -66,22 -84,36 -18,13 -38,24 -44,24 -6,0 -20,8 -31,18 -10,9 -34,29 -52,45 -61,50 -142,231 -142,317 0,36 22,122 45,175 34,76 38,85 57,105 12,12 18,31 16,48 l -3,27 z m 77,-825 c 42,-45 53,-80 58,-184 5,-116 -12,-192 -54,-238 -72,-77 -156,34 -156,208 -1,170 83,287 152,214 z"/>
      <path
        id="pTnVzwbQM"
        d="m 2110,1827 c 0,-13 9,-59 20,-102 62,-243 -29,-507 -204,-589 -187,-88 -242,-111 -287,-120 -21,-3 -41,-12 -47,-19 -11,-13 1,-403 17,-547 11,-102 20,-139 61,-250 17,-47 38,-105 46,-130 l 15,-45 87,3 c 135,4 320,31 396,58 74,26 88,34 68,41 -7,3 -19,11 -26,19 -8,8 -20,14 -26,14 -6,0 -9,4 -6,9 6,9 -15,71 -25,71 -3,0 -2,21 2,47 5,26 7,53 4,60 -2,7 0,13 4,13 5,0 14,12 20,28 16,38 35,69 59,97 11,12 23,32 27,44 3,12 11,21 16,21 6,0 8,4 5,9 -4,5 -1,11 4,13 6,2 13,10 15,18 7,34 19,65 41,109 13,25 24,52 24,59 0,6 5,12 10,12 6,0 10,9 10,20 0,11 4,20 10,20 5,0 12,17 16,38 4,20 11,40 16,43 5,3 10,12 11,20 2,8 6,20 10,27 5,6 5,17 2,22 -3,6 -2,10 3,10 12,0 36,85 27,99 -3,6 -2,11 3,11 5,0 12,32 15,71 3,41 13,82 23,97 12,18 13,27 6,30 -7,2 -12,12 -12,22 0,36 -64,186 -113,265 -28,44 -71,98 -96,120 -25,22 -52,47 -61,55 -9,8 -40,28 -70,44 -30,16 -67,37 -82,48 -34,23 -38,23 -38,-5 z m -9,-807 c 27,-15 56,-76 69,-150 32,-179 -61,-364 -144,-287 -41,38 -59,100 -60,207 -1,110 21,188 61,220 29,22 46,25 74,10 z"/>
    </g>
  </g>
  <g
    id="lbnGx9EmmUs2m48VcyPneb"
    fill="#f9c68b"
    transform="matrix(0.1,0,0,0.1,108.227,113.117)">
    <g
      id="g23">
      <path
        id="poVCRgCHk"
        d="m 1385,2069 c -156,-23 -343,-107 -437,-195 -56,-52 -119,-129 -112,-136 3,-4 -2,-21 -11,-38 -44,-85 -57,-214 -31,-314 20,-77 88,-200 128,-233 18,-16 42,-36 52,-45 11,-10 25,-18 31,-18 6,0 26,-11 44,-24 18,-14 56,-30 84,-36 29,-7 61,-18 72,-25 11,-6 36,-15 56,-19 23,-4 40,-14 47,-29 34,-71 55,-306 50,-562 -4,-187 -7,-217 -28,-275 -12,-36 -27,-70 -31,-76 -13,-17 69,-24 274,-24 152,0 178,2 184,16 6,16 -2,44 -60,204 -18,52 -38,120 -45,150 -17,85 -31,271 -32,419 -1,74 -3,138 -5,142 -7,10 17,27 50,34 50,11 112,37 291,121 74,35 136,103 177,194 46,103 61,316 31,440 -9,36 -17,71 -18,78 -1,7 -8,18 -14,24 -7,7 -12,16 -12,21 0,22 -71,94 -116,119 -146,79 -418,117 -619,87 z m 330,-288 c 22,-10 55,-33 73,-52 52,-53 70,-154 27,-154 -16,0 -21,8 -25,40 -6,46 -24,74 -65,107 -41,32 -127,32 -172,0 -63,-45 -107,-187 -89,-285 l 6,-34 68,-6 c 199,-17 289,-124 165,-197 -112,-66 -348,-63 -452,5 -95,64 -50,144 102,181 l 62,16 v 86 c 0,59 6,104 19,141 l 19,55 -27,23 c -17,14 -40,23 -62,23 -28,0 -38,-6 -52,-30 -22,-38 -52,-40 -52,-4 0,15 12,38 30,56 28,28 35,30 81,26 29,-3 62,-14 79,-26 l 28,-21 58,34 c 67,40 116,45 179,16 z"/>
    </g>
  </g>
</svg>
