<svg xmlns="http://www.w3.org/2000/svg" width="57.668" height="52.312" viewBox="0 0 57.668 52.312"><defs><style>.a{fill:#faa01c;}</style></defs><path class="a" d="M56.247,49.387a4.826,4.826,0,0,0-3.334-1.418l-1.267-.024-.331-1.224A23.3,23.3,0,0,0,37.39,31.165a9.815,9.815,0,1,1-18.372,4.806H22.4a6.439,6.439,0,1,0,6.439-6.439q-.492,0-.981.021h-.3a5.765,5.765,0,0,1-5.742-5.758H18.429a9.091,9.091,0,0,0,2.05,5.758H18.844a5.765,5.765,0,0,1-5.759-5.759H9.709a9.15,9.15,0,0,0,7.327,8.955A23.262,23.262,0,0,0,6.354,46.722l-.331,1.224-1.267.024a4.85,4.85,0,0,0,0,9.7l1.267.024.331,1.223a23.294,23.294,0,0,0,44.961,0l.331-1.223,1.267-.024a4.873,4.873,0,0,0,4.756-4.85,4.824,4.824,0,0,0-1.421-3.432Zm-38.314,1.52a2.675,2.675,0,0,0-2.672,2.672H11.884a6.049,6.049,0,1,1,12.1,0H20.605A2.675,2.675,0,0,0,17.933,50.907Zm10.9,17.377a10.458,10.458,0,0,1-8.968-5.127l2.908-1.716a7.031,7.031,0,0,0,12.12,0L37.8,63.157A10.458,10.458,0,0,1,28.834,68.284ZM42.407,53.579a2.672,2.672,0,1,0-5.344,0H33.686a6.049,6.049,0,1,1,12.1,0Z" transform="translate(0 -23.794)"/></svg>