<svg viewBox="0 0 18.32 9.91" xmlns="http://www.w3.org/2000/svg" xmlns:xlink="http://www.w3.org/1999/xlink">
  <defs>
    <linearGradient id="linearGradient18202" x2="1" gradientTransform="matrix(4.495,0,0,4.495,5.281,89.83)" gradientUnits="userSpaceOnUse">
      <stop stop-color="#ca00a4" offset="0"/>
      <stop stop-color="#ca00a4" offset=".005587"/>
      <stop stop-color="#fff" offset="1"/>
    </linearGradient>
    <linearGradient id="linearGradient18236" x2="1" gradientTransform="matrix(3.38,-5.856,5.856,3.38,4.401,97.98)" gradientUnits="userSpaceOnUse">
      <stop stop-color="#fff" offset="0"/>
      <stop stop-color="#ca00a4" offset=".9944"/>
      <stop stop-color="#ca00a4" offset="1"/>
    </linearGradient>
    <linearGradient id="linearGradient14724" x2="1" gradientTransform="matrix(-32.11,0,0,-32.11,32.14,81.69)" gradientUnits="userSpaceOnUse" xlink:href="#linearGradient18172"/>
    <linearGradient id="linearGradient18172" x2="1" gradientTransform="matrix(-32.11,0,0,-32.11,32.14,81.69)" gradientUnits="userSpaceOnUse">
      <stop stop-color="#ffa670" offset="0"/>
      <stop stop-color="#ffa670" offset=".0468"/>
      <stop stop-color="#ffa670" offset=".6747"/>
      <stop stop-color="#ff8a86" offset=".9665"/>
      <stop stop-color="#ff8a86" offset="1"/>
    </linearGradient>
    <linearGradient id="linearGradient14726" x2="1" gradientTransform="matrix(2.459,0,0,2.459,19.37,77.9)" gradientUnits="userSpaceOnUse" xlink:href="#linearGradient18270"/>
    <linearGradient id="linearGradient18270" x2="1" gradientTransform="matrix(2.459,0,0,2.459,19.37,77.9)" gradientUnits="userSpaceOnUse">
      <stop stop-color="#ca00a4" offset="0"/>
      <stop stop-color="#ca00a4" offset=".005587"/>
      <stop stop-color="#fff" offset="1"/>
    </linearGradient>
    <linearGradient id="linearGradient14728" x2="1" gradientTransform="matrix(9.924,0,0,9.924,11.89,87.76)" gradientUnits="userSpaceOnUse" xlink:href="#linearGradient18304"/>
    <linearGradient id="linearGradient18304" x2="1" gradientTransform="matrix(9.924,0,0,9.924,11.89,87.76)" gradientUnits="userSpaceOnUse">
      <stop stop-color="#ca00a4" offset="0"/>
      <stop stop-color="#ca00a4" offset=".005587"/>
      <stop stop-color="#fff" offset="1"/>
    </linearGradient>
    <linearGradient id="linearGradient14482" x2="1" gradientTransform="matrix(32.11,0,0,-32.11,37.15,81.69)" gradientUnits="userSpaceOnUse" xlink:href="#linearGradient18172"/>
    <linearGradient id="linearGradient14484" x2="1" gradientTransform="matrix(-2.459,0,0,2.459,49.92,77.9)" gradientUnits="userSpaceOnUse" xlink:href="#linearGradient18270"/>
    <linearGradient id="linearGradient14486" x2="1" gradientTransform="matrix(-9.924,0,0,9.924,57.4,87.76)" gradientUnits="userSpaceOnUse" xlink:href="#linearGradient18304"/>
  </defs>
  <g transform="translate(-.007754 -.001777)">
    <g id="gr_arms" class="covered pointer-cursor" transform="matrix(.2646 0 0 .2646 .0008411 -16.17)">
      <path d="m5.722 89.13s1.328 1.134 4.033 0.7419c0 0-2.319 1.517-4.495 0.08277z" fill="url(#linearGradient18202)" opacity=".4" style="fill-rule:evenodd;fill:url(#linearGradient18202);stroke-width:.4403"/>
      <path d="m4.401 91.15 0.9528 1.252s-1.115 2.713-1.571 4.61c0 0 1.091-3.248 1.986-4.425l1.155 0.6758s-1.29 3.566-1.703 5.195c0 0 1.393-4.127 2.093-4.848l2.127 0.5904h0.3276l0.9929-0.3505s-2.799 0.483-6.362-2.702" fill="url(#linearGradient18236)" opacity=".4" style="fill-rule:evenodd;fill:url(#linearGradient18236);stroke-width:.4403"/>
      <path d="m27.19 67.22s2.765 6.077-2.63 10.9c-0.8685 0.7759-1.286 1.35-2.611 2.74-0.1462 0.09334-0.2419 0.2518-0.3693 0.3834l-0.0044 0.0035c-2.993 3.134-7.652 8.546-7.652 8.546-1.011 2.606-2.137 4.35-2.274 4.557-0.01057 0.01409-0.01409 0.02056-0.01409 0.02056l-0.6521 3.566c-0.8185 0.4909-1.571 0.0317-1.571 0.0317 0.06574-1.44 0.3587-3.76 0.3587-3.76h-0.3276l-2.158 4.153c-1.93 0.7837-3.566-0.6869-3.566-0.6869l0.06516-0.6565c-1.243 0.2313-1.633-0.3898-1.633-0.3898 0.4557-2.682 2.027-5.072 2.027-5.072l1.353-2.409-1.571 0.5041c-1.132 1.46-2.835 1.328-2.835 1.328-1.274-0.02408-1.09-1.374-1.09-1.374s1.111-0.5904 2.247-1.395c1.132-0.8079 2.485-2.551 3.269-2.859 0.3452-0.1338 0.8951-0.1062 1.488-0.07868 0.7507 0.03403 1.571 0.06869 2.13-0.2242 1.005-0.5253 1.833-3.184 3.404-5.147 1.568-1.961 3.487-2.876 5.49-5.275 2.006-2.399 5.618-10.7 7.582-13.49" fill="url(#linearGradient18172)" style="fill:url(#linearGradient14724);stroke-width:.4403"/>
      <path d="m19.37 76.62s2.066 0.3816 2.459 2.605c0 0-0.8731-1.217-2.459-2.605" fill="url(#linearGradient18270)" opacity=".4" style="fill-rule:evenodd;fill:url(#linearGradient14726);stroke-width:.4403"/>
      <path d="m21.57 81.24c-2.994 3.134-7.652 8.546-7.652 8.546-1.011 2.607-2.136 4.35-2.275 4.557 0.128-0.2524 1.409-2.745 1.719-5.204z" fill="url(#linearGradient18304)" opacity=".4" style="fill-rule:evenodd;fill:url(#linearGradient14728);stroke-width:.4403"/>
      <path d="m43.32 67.22s-3.99 6.077 1.405 10.9c0.8685 0.7759 1.286 1.35 2.611 2.74 0.1462 0.09334 0.2419 0.2518 0.3693 0.3834l0.0044 0.0035c2.993 3.134 7.652 8.546 7.652 8.546 1.011 2.606 2.137 4.35 2.274 4.557 0.01057 0.01409 0.01409 0.02056 0.01409 0.02056l0.6521 3.566c0.8185 0.4909 1.571 0.0317 1.571 0.0317-0.06574-1.44-0.3587-3.76-0.3587-3.76h0.3276l2.158 4.153c1.93 0.7837 3.566-0.6869 3.566-0.6869l-0.06516-0.6565c1.243 0.2313 1.633-0.3898 1.633-0.3898-0.4557-2.682-2.027-5.072-2.027-5.072l-1.353-2.409 1.571 0.5041c1.132 1.46 2.835 1.328 2.835 1.328 1.274-0.02408 1.09-1.374 1.09-1.374s-1.111-0.5904-2.247-1.395c-1.132-0.8079-2.485-2.551-3.269-2.859-0.3452-0.1338-0.8951-0.1062-1.488-0.07868-0.7507 0.03403-1.571 0.06869-2.13-0.2242-1.005-0.5253-1.833-3.184-3.404-5.147-1.568-1.961-3.487-2.876-5.49-5.275-2.006-2.399-5.618-10.7-7.582-13.49" fill="url(#linearGradient18172)" style="fill:url(#linearGradient14482);stroke-width:.4403"/>
      <path d="m49.92 76.62s-2.066 0.3816-2.459 2.605c0 0 0.8731-1.217 2.459-2.605" fill="url(#linearGradient18270)" opacity=".4" style="fill-rule:evenodd;fill:url(#linearGradient14484);stroke-width:.4403"/>
      <path d="m47.72 81.24c2.994 3.134 7.652 8.546 7.652 8.546 1.011 2.607 2.136 4.35 2.275 4.557-0.128-0.2524-1.409-2.745-1.719-5.204z" fill="url(#linearGradient18304)" opacity=".4" style="fill-rule:evenodd;fill:url(#linearGradient14486);stroke-width:.4403"/>
    </g>
  </g>
</svg>
