<svg viewBox="0 0 18.46 9.075" xmlns="http://www.w3.org/2000/svg" xmlns:xlink="http://www.w3.org/1999/xlink">
  <defs>
    <linearGradient id="aw" x2="1" gradientTransform="matrix(72.92,0,0,-72.92,397.3,278.4)" gradientUnits="userSpaceOnUse">
      <stop stop-color="#ffa670" offset="0"/>
      <stop stop-color="#ffa670" offset=".0468"/>
      <stop stop-color="#ffa670" offset=".6747"/>
      <stop stop-color="#ff8a86" offset=".9665"/>
      <stop stop-color="#ff8a86" offset="1"/>
    </linearGradient>
    <linearGradient id="av" x2="1" gradientTransform="matrix(-10.21,0,0,10.21,458.8,296.9)" gradientUnits="userSpaceOnUse" xlink:href="#d"/>
    <linearGradient id="d" x2="1" gradientTransform="matrix(-10.21,0,0,10.21,458.8,296.9)" gradientUnits="userSpaceOnUse">
      <stop stop-color="#ca00a4" offset="0"/>
      <stop stop-color="#ca00a4" offset=".005587"/>
      <stop stop-color="#fff" offset="1"/>
    </linearGradient>
    <linearGradient id="au" x2="1" gradientTransform="matrix(-7.676,-13.3,-13.3,7.676,460.3,315.4)" gradientUnits="userSpaceOnUse" xlink:href="#c"/>
    <linearGradient id="c" x2="1" gradientTransform="matrix(-7.676,-13.3,-13.3,7.676,460.3,315.4)" gradientUnits="userSpaceOnUse">
      <stop stop-color="#fff" offset="0"/>
      <stop stop-color="#ca00a4" offset=".9944"/>
      <stop stop-color="#ca00a4" offset="1"/>
    </linearGradient>
    <linearGradient id="at" x2="1" gradientTransform="matrix(-5.583,0,0,5.583,426.9,269.8)" gradientUnits="userSpaceOnUse" xlink:href="#b"/>
    <linearGradient id="b" x2="1" gradientTransform="matrix(-5.583,0,0,5.583,426.9,269.8)" gradientUnits="userSpaceOnUse">
      <stop stop-color="#ca00a4" offset="0"/>
      <stop stop-color="#ca00a4" offset=".005587"/>
      <stop stop-color="#fff" offset="1"/>
    </linearGradient>
    <linearGradient id="as" x2="1" gradientTransform="matrix(-22.54,0,0,22.54,443.9,292.2)" gradientUnits="userSpaceOnUse" xlink:href="#a"/>
    <linearGradient id="a" x2="1" gradientTransform="matrix(-22.54,0,0,22.54,443.9,292.2)" gradientUnits="userSpaceOnUse">
      <stop stop-color="#ca00a4" offset="0"/>
      <stop stop-color="#ca00a4" offset=".005587"/>
      <stop stop-color="#fff" offset="1"/>
    </linearGradient>
    <linearGradient id="linearGradient3640" x2="1" gradientTransform="matrix(72.92,0,0,-72.92,397.3,278.4)" gradientUnits="userSpaceOnUse" xlink:href="#aw"/>
  </defs>
  <g transform="translate(-.002721 -.01035)">
    <g id="gr_arms" class="covered pointer-cursor" transform="matrix(.1151 0 0 .1151 -32.88 -27.39)">
      <g transform="matrix(-1,0,0,1,755.9,0)">
        <path d="m407.8 259.1s1.584 1.372 12.68 17.47c0.332 0.212 0.548 0.572 0.8387 0.8707l8e-3 8e-3c6.799 7.119 17.38 19.41 17.38 19.41 2.297 5.919 4.853 9.879 5.167 10.35 0.024 0.032 0.032 0.0467 0.032 0.0467l1.481 8.099c1.859 1.115 3.568 0.072 3.568 0.072-0.1493-3.271-0.816-8.539-0.816-8.539h0.7453l4.9 9.432c4.384 1.78 8.1-1.56 8.1-1.56l-0.1493-1.491c2.823 0.5253 3.708-0.8853 3.708-0.8853-1.035-6.092-4.601-11.52-4.601-11.52l-3.073-5.472 3.567 1.145c2.572 3.315 6.437 3.017 6.437 3.017 2.893-0.0547 2.479-3.12 2.479-3.12s-2.525-1.341-5.105-3.168c-2.572-1.835-5.645-5.795-7.425-6.493-0.7853-0.304-2.035-0.2413-3.38-0.1787-1.705 0.0773-3.565 0.156-4.837-0.5093-2.281-1.193-4.163-7.231-7.731-11.69-3.56-4.455-7.919-6.533-12.48-11.98-4.555-5.449-11.58-17.86-16.05-24.19-11.94 2.288-6.284 14.65-6.284 14.65" fill="url(#i)" style="fill:url(#linearGradient3640)"/>
        <path d="m457.8 295.3s-3.019 2.576-9.159 1.685c0 0 5.268 3.445 10.21 0.188z" fill="url(#d)" opacity=".4" style="fill-rule:evenodd;fill:url(#av)"/>
        <path d="m460.3 299.9-2.163 2.843s2.532 6.161 3.568 10.47c0 0-2.48-7.376-4.509-10.05l-2.625 1.535s2.931 8.1 3.867 11.8c0 0-3.163-9.373-4.752-11.01l-4.831 1.341h-0.7453l-2.253-0.796s6.357 1.097 14.44-6.136" fill="url(#c)" opacity=".4" style="fill-rule:evenodd;fill:url(#au)"/>
        <path d="m426.9 266.9s-4.692 0.8667-5.583 5.917c0 0 1.983-2.763 5.583-5.917" fill="url(#b)" opacity=".4" style="fill-rule:evenodd;fill:url(#at)"/>
        <path d="m421.3 277.4c6.799 7.119 17.38 19.41 17.38 19.41 2.297 5.92 4.853 9.88 5.167 10.35-0.2893-0.5733-3.199-6.235-3.904-11.82z" fill="url(#a)" opacity=".4" style="fill-rule:evenodd;fill:url(#as)"/>
        <path d="m470.2 296.4-2.576 0.9893s-2.301-0.9067-1.348-3.351z" fill="#ffc3a4" style="fill-rule:evenodd"/>
      </g>
      <g transform="translate(-24.33)">
        <path d="m407.8 259.1s1.584 1.372 12.68 17.47c0.332 0.212 0.548 0.572 0.8387 0.8707l8e-3 8e-3c6.799 7.119 17.38 19.41 17.38 19.41 2.297 5.919 4.853 9.879 5.167 10.35 0.024 0.032 0.032 0.0467 0.032 0.0467l1.481 8.099c1.859 1.115 3.568 0.072 3.568 0.072-0.1493-3.271-0.816-8.539-0.816-8.539h0.7453l4.9 9.432c4.384 1.78 8.1-1.56 8.1-1.56l-0.1493-1.491c2.823 0.5253 3.708-0.8853 3.708-0.8853-1.035-6.092-4.601-11.52-4.601-11.52l-3.073-5.472 3.567 1.145c2.572 3.315 6.437 3.017 6.437 3.017 2.893-0.0547 2.479-3.12 2.479-3.12s-2.525-1.341-5.105-3.168c-2.572-1.835-5.645-5.795-7.425-6.493-0.7853-0.304-2.035-0.2413-3.38-0.1787-1.705 0.0773-3.565 0.156-4.837-0.5093-2.281-1.193-4.163-7.231-7.731-11.69-3.56-4.455-7.919-6.533-12.48-11.98-4.555-5.449-11.81-18.07-16.28-24.4-11.94 2.288-6.059 14.86-6.059 14.86" fill="url(#i)" style="fill:url(#linearGradient3640)"/>
        <path d="m457.8 295.3s-3.019 2.576-9.159 1.685c0 0 5.268 3.445 10.21 0.188z" fill="url(#d)" opacity=".4" style="fill-rule:evenodd;fill:url(#av)"/>
        <path d="m460.3 299.9-2.163 2.843s2.532 6.161 3.568 10.47c0 0-2.48-7.376-4.509-10.05l-2.625 1.535s2.931 8.1 3.867 11.8c0 0-3.163-9.373-4.752-11.01l-4.831 1.341h-0.7453l-2.253-0.796s6.357 1.097 14.44-6.136" fill="url(#c)" opacity=".4" style="fill-rule:evenodd;fill:url(#au)"/>
        <path d="m426.9 266.9s-4.692 0.8667-5.583 5.917c0 0 1.983-2.763 5.583-5.917" fill="url(#b)" opacity=".4" style="fill-rule:evenodd;fill:url(#at)"/>
        <path d="m421.3 277.4c6.799 7.119 17.38 19.41 17.38 19.41 2.297 5.92 4.853 9.88 5.167 10.35-0.2893-0.5733-3.199-6.235-3.904-11.82z" fill="url(#a)" opacity=".4" style="fill-rule:evenodd;fill:url(#as)"/>
        <path d="m470.2 296.4-2.576 0.9893s-2.301-0.9067-1.348-3.351z" fill="#ffc3a4" style="fill-rule:evenodd"/>
      </g>
    </g>
  </g>
</svg>
