<svg viewBox="0 0 4.487 3.598" xmlns="http://www.w3.org/2000/svg">
  <g transform="translate(-.004236 -.0005887)">
    <path d="m0.2179 0.09796c-0.02646 0.2422-0.02937 0.4368-0.04352 0.6779-0.01033 0.1757-0.0585 0.3458-0.06726 0.5212-0.00308 0.0616 0.004731 0.1235 0 0.185 0.006265 0.5105-0.007194 0.905-0.1009 1.379 0 0.02222-0.004487 0.4665 0 0.471 0.03363 0.1345 0.02388 0.09555 0.03363 0.1345 0.5245 0.08266 1.152 0.1061 1.631 0.1177 0.3977 0.00846 0.7964 0 1.194 0 0.5907-0.01158 1.107 0.08256 1.598-0.1009 0.0717-0.6144-0.01681-1.153 0.01225-1.82-0.05863-0.4358-0.07258-0.6757-0.09573-0.9829-0.004628-0.06249-0.05003-0.1679-0.05625-0.2303-0.02353-0.2353 0.05945-0.3778-0.2639-0.4146-0.4154-0.0472-0.8094-0.03363-1.228-0.03363-2.356 0.01217-2.546-5.292e-4 -2.546-5.292e-4z" style="fill-opacity:.9978;fill:#ffa670;stroke-width:0"/>
    <circle cx="2.3" cy="2.384" r=".227" style="fill:#e87a83;stroke-width:0"/>
    <path d="m2.297 0.2458-0.004726 1.668" style="fill:none;stroke-opacity:.4777;stroke-width:.065;stroke:#e87a83"/>
    <path d="m1.46 1.607 1.668 0.00473" style="fill:none;stroke-opacity:.4777;stroke-width:.065;stroke:#e87a83"/>
    <path d="m1.372 0.9076 1.855 0.004724" style="fill:none;stroke-opacity:.4777;stroke-width:.06848;stroke:#e87a83"/>
    <path d="m1.163 0.232 2.245 0.004715" style="fill:none;stroke-opacity:.4777;stroke-width:.07527;stroke:#e87a83"/>
  </g>
</svg>
