<svg viewBox="0 0 3.943 2.931" xmlns="http://www.w3.org/2000/svg">
  <g transform="translate(-.003222 -.004515)">
    <path d="m0.003222 0.1753c0.2125 0.3227 0.2586 0.9752 0.2676 1.126-0.02794 0.2493-0.06068 0.4704-0.08448 0.69-0.008289 0.09948-0.04514 0.218-0.08448 0.3098l-0.09858 0.1984c0.008239 0.02198 0.02696 0.2485 0.04225 0.2663 0.1406 0.2058 0.4755 0.1643 0.7988 0.1652 0.3716-0.00568 0.7955-0.09162 1.028-0.0986 0.2768 0.01169 0.8815 0.1024 1.159 0.1024 0.2905 0 0.658 0.01339 0.8448-0.2535 0.02852-0.04072 0.07382-0.1177 0.07041-0.169-0.002667-0.04-0.02815-0.07512-0.04225-0.1127-0.04794-0.1278-0.1015-0.2595-0.1267-0.3942-0.02232-0.2044-0.05535-0.374-0.09858-0.5773-0.05226-0.4763-0.03928-0.9025 0.2612-1.225-0.02419-0.02016-0.4743-0.11-0.5044-0.1191-0.7661-0.08183-0.9731-0.0443-1.555 0.07678-0.4818-0.11-0.7733-0.1764-1.36-0.1508 0 0-0.2445 0.02337-0.5165 0.1654z" style="fill:#ffa670;stroke-width:.2646"/>
    <circle cx=".8507" cy="1.379" r=".227" style="fill:#e87a83;stroke-width:0"/>
    <circle cx="3.089" cy="1.379" r=".227" style="fill:#e87a83;stroke-width:0"/>
    <path d="m0.168 2.231c0.02942 0.00222 0.05892 0.00372 0.08829 0.00666 0.06207 0.00622 0.2211 0.02733 0.277 0.03231 0.162 0.0144 0.3241 0.01611 0.4866 0.01755 0.1839-0.00277 0.3686-0.01633 0.5477-0.0598 0.01249-0.00365 0.02498-0.00729 0.03746-0.01094l0.2043-0.1584c-0.01287 0.00448-0.02574 0.00896-0.0386 0.01345-0.1803 0.05202-0.3683 0.06675-0.5554 0.07358-0.1623 0.0014-0.3236 0.00159-0.4855-0.01469-0.087-0.00875-0.182-0.02549-0.2688-0.03858-0.02754-0.00414-0.05511-0.00786-0.08268-0.01179l-0.2104 0.1506z" style="fill:#e87a83;stroke-width:0"/>
    <path d="m3.769 2.231c-0.02942 0.00222-0.05892 0.00372-0.08829 0.00666-0.06207 0.00622-0.2211 0.02733-0.277 0.03231-0.162 0.0144-0.3241 0.01611-0.4866 0.01755-0.1839-0.00277-0.3686-0.01633-0.5477-0.0598-0.01249-0.00365-0.02498-0.00729-0.03746-0.01094l-0.2043-0.1584c0.01287 0.00448 0.02574 0.00896 0.0386 0.01345 0.1803 0.05202 0.3683 0.06675 0.5554 0.07358 0.1623 0.0014 0.3236 0.00159 0.4855-0.01469 0.087-0.00875 0.182-0.02549 0.2688-0.03858 0.02754-0.00414 0.05511-0.00786 0.08268-0.01179l0.2104 0.1506z" style="fill:#e87a83;stroke-width:0"/>
  </g>
</svg>
