<svg viewBox="0 0 3.943 2.931" xmlns="http://www.w3.org/2000/svg">
  <path d="m0 0.1708c0.2125 0.3227 0.04255 0.7632 0.04747 1.126-0.05843 0.8695-0.1122 1.626 0.7936 1.63 0.3716-0.00568 0.9341-0.1691 1.167-0.1761 0.2768 0.01169 0.7429 0.1799 1.02 0.1799 0.9584-0.004669 0.9409-0.7793 0.88-1.596-0.05226-0.4763-0.2716-0.8128 0.02884-1.135-0.02419-0.02016-0.4743-0.1711-0.5044-0.1802-0.7661-0.08183-0.8671 0.1514-1.449 0.2725-0.4818-0.11-0.8793-0.3109-1.466-0.2853 0 0-0.2445 0.02337-0.5165 0.1654z" style="fill:#ffa670;stroke-width:.2646"/>
  <circle cx=".8475" cy="1.374" r=".227" style="fill:#e87a83;stroke-width:0"/>
  <circle cx="3.086" cy="1.374" r=".227" style="fill:#e87a83;stroke-width:0"/>
  <path d="m0.3067 2.094c0.1557 0.05736 0.2219 0.07202 0.3432 0.1102 0.1603 0.05265 0.3111 0.1138 0.467 0.1151 0.2101-0.01506 0.3649-0.08787 0.5614-0.1662l0.1961-0.152c-0.01235 0.0043-0.0247 0.0086-0.03704 0.0129-0.173 0.04993-0.3535 0.1514-0.5329 0.158-0.1557 0.00135-0.313 0.0331-0.4876-0.03593-0.1252-0.03344-0.1887-0.05085-0.313-0.07744l-0.1049 0.01828z" style="fill:#e8768b;stroke-width:0"/>
  <path d="m3.693 2.094c-0.1557 0.05736-0.2219 0.07202-0.3432 0.1102-0.1603 0.05265-0.3112 0.1138-0.467 0.1151-0.2101-0.01506-0.3649-0.08787-0.5614-0.1662l-0.1961-0.152c0.01235 0.0043 0.0247 0.0086 0.03704 0.0129 0.173 0.04993 0.3535 0.1514 0.5329 0.158 0.1557 0.00135 0.313 0.0331 0.4876-0.03593 0.1252-0.03344 0.1887-0.05085 0.313-0.07744l0.1049 0.01828z" style="fill:#e8768b;stroke-width:0"/>
</svg>
