<svg viewBox="0 0 2.978451 1.3593932" xmlns="http://www.w3.org/2000/svg">
  <defs
     id="defs10056">
    <linearGradient
       x1="0"
       y1="0"
       x2="1"
       y2="0"
       gradientUnits="userSpaceOnUse"
       gradientTransform="matrix(0,14.56366,14.56366,0,72.061329,417.76596)"
       id="linearGradient6728">
      <stop
         style="stop-opacity:1;stop-color:#ff9b86"
         offset="0"
         id="stop6720" />
      <stop
         style="stop-opacity:1;stop-color:#ff9b86"
         offset="0.0335196"
         id="stop6722" />
      <stop
         style="stop-opacity:1;stop-color:#ffa670"
         offset="0.953204"
         id="stop6724" />
      <stop
         style="stop-opacity:1;stop-color:#ffa670"
         offset="1"
         id="stop6726" />
    </linearGradient>
    <linearGradient
       x1="0"
       y1="0"
       x2="1"
       y2="0"
       gradientUnits="userSpaceOnUse"
       gradientTransform="matrix(4.1011724,7.1034389,7.1034389,-4.1011724,69.972919,421.19901)"
       id="linearGradient6758">
      <stop
         style="stop-opacity:1;stop-color:#ffffff"
         offset="0"
         id="stop6752" />
      <stop
         style="stop-opacity:1;stop-color:#ca00a4"
         offset="0.994413"
         id="stop6754" />
      <stop
         style="stop-opacity:1;stop-color:#ca00a4"
         offset="1"
         id="stop6756" />
    </linearGradient>
    <linearGradient
       x1="0"
       y1="0"
       x2="1"
       y2="0"
       gradientUnits="userSpaceOnUse"
       gradientTransform="matrix(2.7802975,4.8156166,4.8156166,-2.7802975,69.048079,421.67688)"
       id="linearGradient6792">
      <stop
         style="stop-opacity:1;stop-color:#ffffff"
         offset="0"
         id="stop6786" />
      <stop
         style="stop-opacity:1;stop-color:#ca00a4"
         offset="0.994413"
         id="stop6788" />
      <stop
         style="stop-opacity:1;stop-color:#ca00a4"
         offset="1"
         id="stop6790" />
    </linearGradient>
    <linearGradient
       x1="0"
       y1="0"
       x2="1"
       y2="0"
       gradientUnits="userSpaceOnUse"
       gradientTransform="matrix(2.4417655,4.2292619,4.2292619,-2.4417655,68.977229,417.50464)"
       id="linearGradient6826">
      <stop
         style="stop-opacity:1;stop-color:#ca00a4"
         offset="0"
         id="stop6820" />
      <stop
         style="stop-opacity:1;stop-color:#ca00a4"
         offset="0.00558659"
         id="stop6822" />
      <stop
         style="stop-opacity:1;stop-color:#ffffff"
         offset="1"
         id="stop6824" />
    </linearGradient>
    <linearGradient
       x1="0"
       y1="0"
       x2="1"
       y2="0"
       gradientUnits="userSpaceOnUse"
       gradientTransform="matrix(0,14.56366,-14.56366,0,50.023682,417.76596)"
       id="linearGradient6862">
      <stop
         style="stop-opacity:1;stop-color:#ff9b86"
         offset="0"
         id="stop6854" />
      <stop
         style="stop-opacity:1;stop-color:#ff9b86"
         offset="0.0335196"
         id="stop6856" />
      <stop
         style="stop-opacity:1;stop-color:#ffa670"
         offset="0.953204"
         id="stop6858" />
      <stop
         style="stop-opacity:1;stop-color:#ffa670"
         offset="1"
         id="stop6860" />
    </linearGradient>
    <linearGradient
       x1="0"
       y1="0"
       x2="1"
       y2="0"
       gradientUnits="userSpaceOnUse"
       gradientTransform="matrix(-4.1011858,7.1034622,-7.1034622,-4.1011858,52.112099,421.19901)"
       id="linearGradient6892">
      <stop
         style="stop-opacity:1;stop-color:#ffffff"
         offset="0"
         id="stop6886" />
      <stop
         style="stop-opacity:1;stop-color:#ca00a4"
         offset="0.994413"
         id="stop6888" />
      <stop
         style="stop-opacity:1;stop-color:#ca00a4"
         offset="1"
         id="stop6890" />
    </linearGradient>
    <linearGradient
       x1="0"
       y1="0"
       x2="1"
       y2="0"
       gradientUnits="userSpaceOnUse"
       gradientTransform="matrix(-2.7803082,4.8156352,-4.8156352,-2.7803082,53.036934,421.67688)"
       id="linearGradient6926">
      <stop
         style="stop-opacity:1;stop-color:#ffffff"
         offset="0"
         id="stop6920" />
      <stop
         style="stop-opacity:1;stop-color:#ca00a4"
         offset="0.994413"
         id="stop6922" />
      <stop
         style="stop-opacity:1;stop-color:#ca00a4"
         offset="1"
         id="stop6924" />
    </linearGradient>
    <linearGradient
       x1="0"
       y1="0"
       x2="1"
       y2="0"
       gradientUnits="userSpaceOnUse"
       gradientTransform="matrix(-2.4417844,4.2292943,-4.2292943,-2.4417844,53.107784,417.50464)"
       id="linearGradient6960">
      <stop
         style="stop-opacity:1;stop-color:#ca00a4"
         offset="0"
         id="stop6954" />
      <stop
         style="stop-opacity:1;stop-color:#ca00a4"
         offset="0.00558659"
         id="stop6956" />
      <stop
         style="stop-opacity:1;stop-color:#ffffff"
         offset="1"
         id="stop6958" />
    </linearGradient>
  </defs>
  <g
     id="gr_ears" transform="matrix(0.09333912,0,0,-0.09333912,-4.2084476,40.353302)">
    <path
       d="m 68.971139,430.393 -1.846,-10.141 c 0,0 0.074,-1.792 0.965,-2.259 v 0 c 0.892,-0.467 4.259,-0.542 6.977,3.108 v 0 c 2.717,3.651 2.575,9.982 -0.482,11.001 v 0 c -0.481,0.16 -0.95,0.228 -1.398,0.228 v 0 c -2.4,0 -4.216,-1.937 -4.216,-1.937"
       style="fill:url(#linearGradient6728);stroke:none"
       id="path6730" />
    <path
       d="m 68.460139,425.924 c 0,0 2.045,2.692 4.737,2.638 2.691,-0.054 3.432,-6.112 -0.323,-8.451 0,0 1.628,0.955 1.507,3.741 -0.121,2.785 -1.617,3.552 -2.424,3.068 -0.806,-0.484 0.89,-1.574 0.728,-3.553 -0.161,-1.978 -1.574,-2.664 -2.543,-2.261 -0.969,0.404 0.444,2.958 0.081,3.942 -0.364,0.984 -1.763,0.625 -1.763,0.625 z"
       opacity="0.300003"
       style="fill:url(#linearGradient6758);fill-rule:evenodd;stroke:none"
       id="path6760" />
    <path
       d="m 68.460139,425.924 c 0,0 1.036,1.178 2.166,1.117 1.131,-0.061 1.889,-1.799 2.065,-3.574 0.176,-1.775 -2.183,-3.117 -2.709,-2.255 -0.526,0.864 0.564,2.872 0.241,3.836 -0.323,0.964 -1.763,0.625 -1.763,0.625 z"
       opacity="0.300003"
       style="fill:url(#linearGradient6792);fill-rule:evenodd;stroke:none"
       id="path6794" />
    <path
       d="m 67.177139,419.775 0.341,1.695 c 0,0 0.347,-2.757 2.139,-3.068 2.404,-0.418 4.573,1.709 4.573,1.709 0,0 -1.718,-1.845 -3.65,-2.191 -1.932,-0.346 -3.118,-0.243 -3.403,1.855"
       opacity="0.5"
       style="fill:url(#linearGradient6826);fill-rule:evenodd;stroke:none"
       id="path6828" />
    <path
       d="m 47.499,432.102 c -3.056,-1.019 -3.197,-7.35 -0.481,-11.001 v 0 c 2.718,-3.65 6.086,-3.575 6.977,-3.108 v 0 c 0.892,0.467 0.965,2.259 0.965,2.259 v 0 l -1.846,10.141 c 0,0 -1.816,1.937 -4.216,1.937 v 0 c -0.449,0 -0.917,-0.068 -1.399,-0.228"
       style="fill:url(#linearGradient6862);stroke:none"
       id="path6864" />
    <path
       d="m 53.625,425.924 c 0,0 -2.045,2.692 -4.737,2.638 -2.691,-0.054 -3.432,-6.112 0.323,-8.451 0,0 -1.628,0.955 -1.507,3.741 0.121,2.785 1.617,3.552 2.423,3.068 0.807,-0.484 -0.889,-1.574 -0.728,-3.553 0.162,-1.978 1.575,-2.664 2.544,-2.261 0.969,0.404 -0.444,2.958 -0.081,3.942 0.364,0.984 1.763,0.625 1.763,0.625 z"
       opacity="0.300003"
       style="fill:url(#linearGradient6892);fill-rule:evenodd;stroke:none"
       id="path6894" />
    <path
       d="m 53.625,425.924 c 0,0 -1.036,1.178 -2.167,1.117 -1.13,-0.061 -1.888,-1.799 -2.064,-3.574 -0.176,-1.775 2.183,-3.117 2.709,-2.255 0.526,0.864 -0.564,2.872 -0.241,3.836 0.323,0.964 1.763,0.625 1.763,0.625 z"
       opacity="0.300003"
       style="fill:url(#linearGradient6926);fill-rule:evenodd;stroke:none"
       id="path6928" />
    <path
       d="m 54.908,419.775 -0.341,1.695 c 0,0 -0.347,-2.757 -2.14,-3.068 -2.403,-0.418 -4.573,1.709 -4.573,1.709 0,0 1.719,-1.845 3.651,-2.191 1.932,-0.346 3.119,-0.243 3.403,1.855"
       opacity="0.5"
       style="fill:url(#linearGradient6960);fill-rule:evenodd;stroke:none"
       id="path6962" />
  </g>
</svg>
