<svg viewBox="0 0 7.5981236 0.94257522" xmlns="http://www.w3.org/2000/svg">
  <g  id="gr_eyebrows" style="fill:#623232;stroke:none;stroke-width:0.0938445">
    <path d="M 5.0985528,0.69984709 5.227026,0.68267299 5.4669867,0.47705946 5.3299735,0.67413303 c 0,0 0.2483128,-0.0427929 0.9595604,0.008541 v 0 c 0.7112479,0.0514268 1.3111022,0.26567395 1.3111022,0.26567395 v 0 c 0,0 -0.7027079,-0.94257468 -1.3538951,-0.94257468 v 0 c -0.6512811,0 -1.1481882,0.69407431 -1.1481882,0.69407431"/>
    <path d="m 0.0025125,0.94834746 c 0,0 0.59985433,-0.21424714 1.3110083,-0.26567394 v 0 c 0.7113418,-0.0513329 0.9597482,-0.008541 0.9597482,-0.008541 v 0 L 2.1362559,0.4770592 2.3761226,0.68267273 2.5046897,0.69984683 c 0,0 -0.4970007,-0.69407431 -1.1482818,-0.69407431 v 0 c -0.65118748,0 -1.3538954,0.94257468 -1.3538954,0.94257468"/>
  </g>
</svg>
