<svg viewBox="0 0 3.3412604 0.41451904" xmlns="http://www.w3.org/2000/svg">
  <g id="gr_eyebrows" transform="matrix(0.09333912,0,0,-0.09333912,-5.3343256,41.497432)" style="fill:#461111;fill-opacity:1">
    <path
       d="m 57.192,440.081 c 0,0 2.826,1.009 6.177,1.251 v 0 c 3.351,0.243 4.522,0.041 4.522,0.041 v 0 l -0.647,0.928 1.131,-0.969 0.605,-0.081 c 0,0 -2.34,3.271 -5.409,3.271 v 0 c -3.068,0 -6.379,-4.441 -6.379,-4.441"
       id="path8632" />
    <path
       d="m 81.202,441.251 0.604,0.081 1.131,0.969 -0.646,-0.928 c 0,0 1.171,0.202 4.521,-0.041 v 0 c 3.352,-0.242 6.177,-1.251 6.177,-1.251 v 0 c 0,0 -3.309,4.441 -6.378,4.441 v 0 c -3.069,0 -5.409,-3.271 -5.409,-3.271"
       id="path8532" />
  </g>
</svg>
