<svg viewBox="0 0 5.724 3.592" xmlns="http://www.w3.org/2000/svg" xmlns:xlink="http://www.w3.org/1999/xlink">
  <defs>
    <linearGradient id="linearGradient14139">
      <stop style="stop-color:#461111" offset="0"/>
      <stop style="stop-color:#461111;stop-opacity:0" offset="1"/>
    </linearGradient>
    <linearGradient id="linearGradient6662" x2="1" gradientTransform="matrix(0 -5.126 5.126 0 2.868 5.084)" gradientUnits="userSpaceOnUse">
      <stop style="stop-color:#ff9b86" offset="0"/>
      <stop style="stop-color:#ff9b86" offset=".03352"/>
      <stop style="stop-color:#ffa670" offset=".3253"/>
      <stop style="stop-color:#ffa670" offset=".9532"/>
      <stop style="stop-color:#ffa670" offset="1"/>
    </linearGradient>
    <linearGradient id="linearGradient6728" x2="1" gradientTransform="matrix(0,-1.359,1.359,0,5.263,4.061)" gradientUnits="userSpaceOnUse">
      <stop style="stop-color:#ff9b86" offset="0"/>
      <stop style="stop-color:#ff9b86" offset=".03352"/>
      <stop style="stop-color:#ffa670" offset=".9532"/>
      <stop style="stop-color:#ffa670" offset="1"/>
    </linearGradient>
    <linearGradient id="linearGradient6758" x2="1" gradientTransform="matrix(.3828 -.663 .663 .3828 5.068 3.74)" gradientUnits="userSpaceOnUse">
      <stop style="stop-color:#fff" offset="0"/>
      <stop style="stop-color:#ca00a4" offset=".9944"/>
      <stop style="stop-color:#ca00a4" offset="1"/>
    </linearGradient>
    <linearGradient id="linearGradient6792" x2="1" gradientTransform="matrix(.2595 -.4495 .4495 .2595 4.981 3.696)" gradientUnits="userSpaceOnUse">
      <stop style="stop-color:#fff" offset="0"/>
      <stop style="stop-color:#ca00a4" offset=".9944"/>
      <stop style="stop-color:#ca00a4" offset="1"/>
    </linearGradient>
    <linearGradient id="linearGradient6862" x2="1" gradientTransform="matrix(0 -1.359 -1.359 0 .4632 4.066)" gradientUnits="userSpaceOnUse">
      <stop style="stop-color:#ff9b86" offset="0"/>
      <stop style="stop-color:#ff9b86" offset=".03352"/>
      <stop style="stop-color:#ffa670" offset=".9532"/>
      <stop style="stop-color:#ffa670" offset="1"/>
    </linearGradient>
    <linearGradient id="linearGradient6892" x2="1" gradientTransform="matrix(-.3828 -.663 -.663 .3828 .6582 3.745)" gradientUnits="userSpaceOnUse">
      <stop style="stop-color:#fff" offset="0"/>
      <stop style="stop-color:#ca00a4" offset=".9944"/>
      <stop style="stop-color:#ca00a4" offset="1"/>
    </linearGradient>
    <linearGradient id="linearGradient6926" x2="1" gradientTransform="matrix(-.2595 -.4495 -.4495 .2595 .7445 3.701)" gradientUnits="userSpaceOnUse">
      <stop style="stop-color:#fff" offset="0"/>
      <stop style="stop-color:#ca00a4" offset=".9944"/>
      <stop style="stop-color:#ca00a4" offset="1"/>
    </linearGradient>
    <linearGradient id="linearGradient7026" x2="1" gradientTransform="matrix(12.5,0,0,-12.5,81.46,431)" gradientUnits="userSpaceOnUse">
      <stop style="stop-color:#fff" offset="0"/>
      <stop style="stop-color:#ca00a4" offset=".9944"/>
      <stop style="stop-color:#ca00a4" offset="1"/>
    </linearGradient>
    <linearGradient id="linearGradient7060" x2="1" gradientTransform="matrix(1.228,0,0,1.228,3.464,3.483)" gradientUnits="userSpaceOnUse">
      <stop style="stop-color:#fff" offset="0"/>
      <stop style="stop-color:#ca00a4" offset=".9944"/>
      <stop style="stop-color:#ca00a4" offset="1"/>
    </linearGradient>
    <linearGradient id="linearGradient7092" x2="1" gradientTransform="matrix(0,8.317,8.317,0,88.1,427.4)" gradientUnits="userSpaceOnUse">
      <stop style="stop-color:#64003c" offset="0"/>
      <stop style="stop-color:#a6252f" offset="1"/>
    </linearGradient>
    <radialGradient id="radialGradient7116" cx="1152" cy="6522" r="164.3" gradientTransform="scale(1.048 .9543)">
      <stop style="stop-color:#fff0eb" offset="0"/>
      <stop style="stop-color:#fff0eb" offset=".03352"/>
      <stop style="stop-color:#ffe7e9" offset=".9773"/>
      <stop style="stop-color:#ffe7e9" offset="1"/>
    </radialGradient>
    <linearGradient id="linearGradient7138" x2="1" gradientTransform="matrix(0 -.6892 .6892 0 3.877 3.557)" gradientUnits="userSpaceOnUse">
      <stop style="stop-color:#8c7c4c" offset="0"/>
      <stop style="stop-color:#8c7c4c" offset=".01599"/>
      <stop style="stop-color:#514c4e" offset="1"/>
    </linearGradient>
    <linearGradient id="linearGradient7204" x2="1" gradientTransform="matrix(-12.5,0,0,-12.5,69.9,431)" gradientUnits="userSpaceOnUse">
      <stop style="stop-color:#fff" offset="0"/>
      <stop style="stop-color:#ca00a4" offset=".9944"/>
      <stop style="stop-color:#ca00a4" offset="1"/>
    </linearGradient>
    <linearGradient id="linearGradient7238" x2="1" gradientTransform="matrix(-1.228,0,0,1.228,2.253,3.483)" gradientUnits="userSpaceOnUse">
      <stop style="stop-color:#fff" offset="0"/>
      <stop style="stop-color:#ca00a4" offset=".9944"/>
      <stop style="stop-color:#ca00a4" offset="1"/>
    </linearGradient>
    <linearGradient id="linearGradient7270" x2="1" gradientTransform="matrix(0,8.317,-8.317,0,63.26,427.4)" gradientUnits="userSpaceOnUse">
      <stop style="stop-color:#64003c" offset="0"/>
      <stop style="stop-color:#a6252f" offset="1"/>
    </linearGradient>
    <radialGradient id="radialGradient7294" cx="804.4" cy="6511" r="164" gradientTransform="scale(1.05 .9527)">
      <stop style="stop-color:#fff0eb" offset="0"/>
      <stop style="stop-color:#fff0eb" offset=".03352"/>
      <stop style="stop-color:#ffe7e9" offset=".9773"/>
      <stop style="stop-color:#ffe7e9" offset="1"/>
    </radialGradient>
    <linearGradient id="linearGradient7316" x2="1" gradientTransform="matrix(0 -.6892 -.6892 0 1.84 3.557)" gradientUnits="userSpaceOnUse">
      <stop style="stop-color:#8c7c4c" offset="0"/>
      <stop style="stop-color:#8c7c4c" offset=".01599"/>
      <stop style="stop-color:#514c4e" offset="1"/>
    </linearGradient>
    <radialGradient id="radialGradient7554" cx="40.4" cy="757.7" r="3.422" gradientTransform="scale(1.83 .5465)">
      <stop style="stop-color:#fff0eb" offset="0"/>
      <stop style="stop-color:#fff0eb" offset=".03352"/>
      <stop style="stop-color:#ffe7e9" offset=".9773"/>
      <stop style="stop-color:#ffe7e9" offset="1"/>
    </radialGradient>
    <linearGradient id="linearGradient2410" x1="78.14" x2="85.35" y1="270" y2="270" gradientTransform="matrix(-.05191 0 0 -.04324 6.913 14.75)" gradientUnits="userSpaceOnUse" xlink:href="#radialGradient7554"/>
    <linearGradient id="linearGradient2437" x1="77.71" x2="85.83" y1="268.7" y2="268.7" gradientTransform="matrix(.04324 0 0 -.04324 -.4035 14.75)" gradientUnits="userSpaceOnUse" xlink:href="#radialGradient7554"/>
    <linearGradient id="linearGradient14141" x1="47.57" x2="101.4" y1="445.2" y2="445.2" gradientUnits="userSpaceOnUse" xlink:href="#linearGradient14139"/>
    <linearGradient id="linearGradient14247" x1=".6265" x2=".6511" y1=".7694" y2="-.4443" gradientUnits="userSpaceOnUse" xlink:href="#linearGradient14139"/>
  </defs>

  <path id="facePathId" d="m3.849 0.4473c-0.02969 0.01536-0.06439 0.004142-0.09377 0.007814-0.2563 0.002971-0.4966 0.03217-0.7208 0.04493-0.0158 0.00218-0.02706-0.001224-0.03321-0.007813-0.01298 0.002186-0.02606 0.003785-0.03907 0.00586-0.01134 0.03586-0.02208 0.0719-0.03321 0.1074-0.01891 0.06043-0.03588 0.1152-0.04884 0.1777-0.00426 0.02056-0.00521 0.04168-0.00781 0.06251-0.01367 0.08986-0.00603 0.03967-0.01367 0.08986 0.01652 0.04337 0.01331 0.1135-0.03907 0.01172-0.05277-0.1885-0.07974-0.2591-0.1175-0.3905-0.07523 0.02918-0.1658 0.04888-0.236 0.08179-0.1188 0.06558-0.1966 0.1042-0.295 0.1563-0.1564 0.13-0.2588 0.2084-0.3517 0.2833-0.0131 0.01434-0.02474 0.02996-0.03712 0.04493-0.01108 0.01342-0.0223 0.01776-0.03126 0.01562-8.403e-4 0.00198-1e-3 0.00147-0.00195 0.00391-0.00715 0.01668-0.01736 0.02762-0.02734 0.03321 1.58e-4 0.00259-1.621e-4 0.00522 0 0.00781-0.07068 0.1214-0.07068 0.1214-0.09377 0.00391 0.00749-0.05224-0.01693-0.1042-0.0254-0.1563-0.02227 0.03075-0.04605 0.06037-0.07228 0.08791-0.00571 0.00674-0.01212 0.01453-0.01758 0.02148-0.0092 0.01172-0.01647 0.02322-0.0254 0.03517-0.00783 0.01047-0.01229 0.01553-0.01953 0.02734-0.00245 4e-3 -0.00377 0.00752-0.00586 0.01172-0.00366 0.00668-0.00789 0.01295-0.01172 0.01953-0.00452 0.00776-0.00659 0.00985-0.00781 0.01172-8.653e-4 0.00182-0.00265 0.00475-0.00195 0.00391-0.00168 0.00368-0.00389 0.00902-0.00977 0.01953-0.00644 0.01151-0.01328 0.02355-0.01953 0.03517-0.00104 0.00193-1e-3 0.00396-0.00195 0.00586-6.101e-4 -0.00227-0.0014-0.00833-0.00195-0.01172l-0.00195-0.00195c-0.00261 0.00683 0.00102 0.01424 0 0.02148-5.431e-4 0.00387-0.01029 0.01723-0.01172 0.01953-0.01275 0.02053-0.01094 0.01798-0.02148 0.03907-0.00992 0.01984-0.02458 0.02514-0.03517 0.02148 1.08e-5 0.0012-2.85e-5 0.00271 0 0.00391-0.06581 0.08985-0.02362-0.04476-0.03711-0.07032 0.00127-0.00433 0.00302-0.00924 0.00391-0.01367 0.00202-0.01004 0.00243-0.01916 0.00391-0.02931 0.00121-0.00979 0.00271-0.01937 0.00391-0.0293v-0.00195c-0.00169-0.00646-0.00402-0.01312-0.00391-0.02148 9.47e-4 -0.07077-0.0053-0.1402-0.00391-0.2109 0.04296-0.2594 0.05089-0.09323-0.1074-0.02931-0.2482 0.342-0.2676 0.3689-0.3888 0.6271-0.02331 0.1224-0.03082 0.1983-0.04886 0.3145-0.01294 0.2893-0.01094 0.3926-0.01562 0.5606 0.0107 0.06434 0.01609 0.1308 0.02539 0.1953 0.008671 0.06042 0.009264 0.1244 0.01367 0.1836-0.04274 0.03606 0.05306 0.4898 0.07618 0.7032 0.1279-3.439e-4 0.2551-9.857e-4 0.3829-0.00195 0.08362-7.939e-4 0.1664-0.00174 0.25-0.00391 0.1319-0.00342 0.2646-0.00911 0.3966-0.01367 0.2089-0.01252 0.4178-0.01687 0.6271-0.01758 0.2092-7.146e-4 0.4179 0.00195 0.6271 0.00391 0.09855 9.262e-4 0.1964 6.412e-4 0.295 0.00391 0.1606 0.00471 0.322 0.01295 0.4825 0.01953 0.0788 0.00432 0.1023 0.00704 0.1523 0.00977 0.01773-0.00578 0.03759-0.01038 0.06056-0.01172 0.00673-3.93e-4 0.0143-4.94e-5 0.02148 0 0.1369 9.435e-4 0.2733-0.00139 0.4103 0 0.09787-0.00159 0.1952 0.00461 0.2931 0.00586 0.00648 7.31e-5 0.01304-7.54e-5 0.01953 0 0.04483-0.2111 0.08468-0.4474 0.1152-0.6896-0.01436 0.01436-0.0286 0.01665-0.03712 0.01172-0.01935 0.03935-0.05952 0.02012-0.04103-0.02148l0.00195-0.00195v-0.00195c-0.00262-0.00499-0.00526-0.01172-0.00586-0.01953-6.501e-4 -0.00846-0.00298-0.01696-0.00195-0.0254 0.00258-0.02114 0.00626-0.03459 0.00977-0.04884-0.00128-0.00435-0.00195-0.00982-0.00195-0.01562 0.01146-0.1148 0.00794-0.1998 0.01173-0.295 0.00531-0.1022 0.00245-0.2043 0.00195-0.3067-1.305e-4 -0.02672 0.00128-0.0534 0-0.0801-0.02305-0.1577-0.05192-0.2672-0.06251-0.3146-0.02572-0.04716-0.02898-0.04276-0.05665-0.09182-9.849e-4 -0.00175-9.485e-4 -0.00412-0.00195-0.00586-0.00164-0.00113-0.0023-0.00234-0.00391-0.00391-0.00322-0.00314-0.0069-0.00668-0.00977-0.01172-0.02832-0.04975-0.05749-0.09996-0.08791-0.1484-0.00507-0.00809-0.01102-0.01508-0.01562-0.02344-0.00846-0.01539-0.01555-0.03119-0.02344-0.04689-0.01021-0.02275-0.01673-0.03367-0.02148-0.04298-0.00164-0.00197-0.00236-0.00341-0.00391-0.00586-0.00781-0.01237-0.01607-0.02448-0.02344-0.03712-0.0242-0.04153-0.0365-0.06021-0.04103-0.06837 0.00154 0.00229 0.00265 4.165e-4 0.00391 0.00195-0.00314-0.00647-0.01001-0.0191-0.02344-0.04298-0.00126-0.00314-0.00245-0.00675-0.00391-0.00977v-0.00195c-0.00216-0.00435-0.00534-0.00757-0.00781-0.01172-9.597e-4 -0.00185-0.00102-4e-3 -0.00195-0.00586l-0.00195-0.00195c-0.1048-0.1952-0.2156-0.3662-0.3107-0.5274-0.00644-0.009377-0.0121-0.02088-0.01758-0.03126-1.734e-4 0.01686-6.252e-4 0.03398 0 0.05079 0.00205 0.03163 0.00213 0.06425 0.00586 0.09572 0.00222 0.01879 0.00684 0.03642 0.01172 0.0547 0.00749 0.02807 0.01495 0.05689 0.0254 0.084 0.00779 0.02023 0.01939 0.03737 0.0293 0.05665 0.0397 0.07723 0.02728 0.05691 0.06056 0.1113 0.01008 0.0165 0.00818 0.02962 0.00195 0.03712 0.00244 4e-3 0.0053 0.0077 0.00781 0.01172 0.0071 0.01137 0.01432 0.02187 0.02148 0.03321 0.00991 0.01719 0.01994 0.03525 0.0293 0.05274 0.02448 0.04575 0.00547 0.0228 0.04103 0.07618 0.00709 0.01064 0.01687 0.02172 0.0254 0.03126 0.04271 0.04773 0.03418 0.03945 0.0801 0.07618 0.03625 0.029 0.00889 0.06415-0.02734 0.03517-0.04701-0.03768-0.04224-0.02962-0.08791-0.0801-0.00293-0.00324-0.00511-0.00666-0.00781-0.00977-0.00726-0.0013-0.0155-0.00521-0.02344-0.01367v-0.00195h-0.00195c-0.0081-3.178e-4 -0.0181-0.00561-0.02734-0.01562-0.01342-0.01455-0.02606-0.02991-0.03907-0.04493-0.00826 0.00135-0.01834-0.00136-0.02931-0.01172-0.03491-0.03301-0.07031-0.06501-0.1016-0.1016-0.01116-0.01305-0.02239-0.02768-0.03321-0.04103-0.00357-0.00435-0.00629-0.00926-0.00977-0.01367-0.00836-0.00902-0.01605-0.01688-0.02734-0.0293-0.01235-0.01358-0.02418-0.02826-0.03517-0.04298-0.02508-0.03363-0.027-0.03713-0.0254-0.03712 1.469e-4 -0.00189 0.00165-0.00733-0.00195-0.01562-8.241e-4 -0.001184-0.00111-0.002741-0.00195-0.003907-0.00782-0.01052-0.01656-0.02014-0.02344-0.03126-0.01085-0.01751-0.01915-0.03677-0.0293-0.0547-0.00578-0.01171-0.01295-0.02295-0.01758-0.03517-0.00138-0.003633-0.00265-0.00629-0.00391-0.009768-0.00237-0.004097-0.00299-0.006807-0.00586-0.01172-0.00887-0.01518-0.01972-0.0291-0.02734-0.04493-0.00893-0.01855-0.01666-0.03721-0.02344-0.05665-0.0064-0.01837-0.01404-0.0613-0.01758-0.07813-0.00311-0.01698-0.00462-0.02627-0.00586-0.03321l-0.00391-0.007814c-0.02418-0.05008-0.03148-0.05786-0.04298-0.1113-0.00496-0.02306-0.00169-0.03575 0.00195-0.0586 9.29e-4 -0.002672 0.00124-0.003901 0.00195-0.00586-0.00954-0.001689-0.01915-0.00299-0.02734-0.00586z" style="fill:url(#linearGradient6662);opacity:.1"/>
  <g id="gr_ears" class="covered pointer-cursor" transform="matrix(.09335 0 0 -.09335 -4.212 43.06)" style="opacity:.1">
    <path transform="matrix(10.71,0,0,-10.71,45.11,461.3)" d="m5.348 2.701c-0.2137 0.01054-0.373 0.1797-0.373 0.1797l-0.125 0.6934c0.00195 2.88e-5 0.0039-2.5e-5 0.00586 0 0.08105 0.00104 0.1631 0.00146 0.2441 0.00195 0.06264-8e-7 0.1249-0.00149 0.1875 0 0.09888 0.00236 0.1981 0.00712 0.2969 0.01172 0.01696 7.899e-4 0.03383 0.00302 0.05078 0.00391 0.1532-0.3402 0.1084-0.7874-0.1367-0.8691-0.0449-0.01493-0.08709-0.02148-0.1289-0.02148-7e-3 0-0.01459-3.395e-4 -0.02148 0z" style="fill:url(#linearGradient6728)"/>
    <path transform="matrix(10.71,0,0,-10.71,45.11,461.3)" d="m5.346 3.053c-0.2396 0.01015-0.418 0.2461-0.418 0.2461v0.02344s0.1301-0.03325 0.1641 0.05859c0.01633 0.04427-0.00638 0.1222-0.02344 0.1953 0.0104 6.25e-5 0.02088-6.35e-5 0.03125 0 0.06264-8e-7 0.1249-0.00149 0.1875 0 0.00977 2.327e-4 0.01952 0.00168 0.0293 0.00195 0.00236-0.01254 0.00473-0.02708 0.00586-0.04102 0.01512-0.1847-0.1436-0.2869-0.06836-0.332 0.07532-0.04518 0.2153 0.02716 0.2266 0.2871 0.00144 0.03314-5.996e-4 0.06416-0.00391 0.0918 0.02213 9.796e-4 0.04429 9.255e-4 0.06641 0.00195 0.09115-0.2437 0.00481-0.5296-0.1738-0.5332-0.00785-1.576e-4 -0.01571-3.274e-4 -0.02344 0z" style="fill-rule:evenodd;fill:url(#linearGradient6758)"/>
    <path transform="matrix(10.71,0,0,-10.71,45.11,461.3)" d="m5.109 3.193c-0.09742 0.007521-0.1816 0.1055-0.1816 0.1055v0.02344s0.1339-0.03138 0.1641 0.05859c0.01617 0.04826-0.0054 0.1232-0.02148 0.1953 0.00975 5.85e-5 0.01957-5.95e-5 0.0293 0 0.06264-8e-7 0.1249-0.00149 0.1875 0 0.01107 2.637e-4 0.02213 0.00163 0.0332 0.00195 0.00278-0.01598 0.00364-0.03378 0.00195-0.05078-0.01642-0.1657-0.08779-0.3283-0.1934-0.334-0.00659-3.559e-4 -0.01304-5.015e-4 -0.01953 0z" style="fill-rule:evenodd;fill:url(#linearGradient6792)"/>
    <path transform="matrix(10.71,0,0,-10.71,45.06,461.3)" d="m0.3574 2.707c-0.04191 0-0.08392 0.00655-0.1289 0.02148-0.2451 0.08173-0.2882 0.527-0.1348 0.8672 0.02116-0.00601 0.04625-0.00981 0.07422-0.00977 0.2366 4.026e-4 0.4741 6.826e-4 0.7109 0l-0.127-0.6992s-0.1705-0.1797-0.3945-0.1797z" style="fill:url(#linearGradient6862)"/>
    <path transform="matrix(10.71,0,0,-10.71,45.06,461.3)" d="m0.3477 3.059c-0.1705 0.01358-0.2517 0.2895-0.166 0.5273 0.02273 3.91e-5 0.04563-3.97e-5 0.06836 0-0.003222-0.02669-0.005284-0.05618-0.003906-0.08789 0.01129-0.2599 0.1513-0.3323 0.2266-0.2871 0.07532 0.04518-0.08339 0.1473-0.06836 0.332 0.001236 0.01509 0.003047 0.02954 0.005859 0.04297 0.08189 1.145e-4 0.1642 1.95e-5 0.2461 0-0.01677-0.07412-0.03817-0.154-0.02148-0.1992 0.03398-0.09185 0.1641-0.05859 0.1641-0.05859v-0.02344s-0.1901-0.2511-0.4414-0.2461c-0.003314 6.65e-5 -0.006516-2.591e-4 -0.009765-2e-7z" style="fill-rule:evenodd;fill:url(#linearGradient6892)"/>
    <path transform="matrix(10.71,0,0,-10.71,45.06,461.3)" d="m0.5977 3.199c-0.1055 0.00569-0.1769 0.1683-0.1934 0.334-0.001768 0.01783-0.001257 0.03612 0.001953 0.05273 0.08319 1.176e-4 0.1668 1.98e-5 0.25 0-0.01599-0.0732-0.03788-0.1503-0.02148-0.1992 0.03015-0.08998 0.1641-0.05859 0.1641-0.05859v-0.02344s-0.09561-0.1112-0.2012-0.1055z" style="fill-rule:evenodd;fill:url(#linearGradient6926)"/>
  </g>
  <g id="gr_eyes" class="covered pointer-cursor" transform="matrix(.09335 0 0 -.09335 -4.212 43.06)" style="opacity:.1">
    <path d="m81.58 426s-1.282 7.824 4.739 9.654c5.938 1.805 7.644-5.099 7.644-5.099z" opacity=".5" style="fill:url(#linearGradient7026)"/>
    <path transform="matrix(10.71,0,0,-10.71,45.06,461.3)" d="m4.553 3.387-1.09 0.1582s0.00992 0.00648 0.02734 0.01367c0.1054 0.00354 0.2109 0.00903 0.3164 0.01367 0.00195 8.58e-5 0.00391-8.57e-5 0.00586 0 0.04454-0.00339 0.09382-0.00903 0.1504-0.01562 0.4701-0.05479 0.6335-0.0862 0.7285-0.06445z" style="fill:url(#linearGradient7060)"/>
    <path d="m88.03 435.5c-6.374-1.295-6.374-8.152-6.374-8.152l12.54 1.539c0.982 1.715 0.058 6.777-4.625 6.777-0.474 0-0.987-0.052-1.539-0.164" style="fill:url(#linearGradient7092)"/>
    <path transform="matrix(10.71,0,0,-10.71,45.06,461.3)" d="m4.051 2.486c-0.6426 9.34e-5 -0.7218 0.8773-0.5879 1.059 0.00563 0.00762 0.01976 0.01075 0.03711 0.01367 0.01692 5.805e-4 0.03385 0.00131 0.05078 0.00195 0.0267-9.96e-5 0.0553-1.57e-5 0.0918-0.00391 0.1385-0.01465 0.34-0.05159 0.5508-0.08594 0.1175-0.01942 0.2389-0.03827 0.3516-0.05078 0 0 0.2427-0.8699-0.4258-0.9316-0.0238-0.00215-0.04596-0.00195-0.06836-0.00195z" style="fill:url(#radialGradient7116)"/>
    <path transform="matrix(10.71,0,0,-10.71,45.06,461.3)" d="m3.877 2.869c-0.2122 0-0.3848 0.1703-0.3848 0.3828 0 0.124 0.0592 0.2341 0.1504 0.3047 0.1385-0.01465 0.34-0.05159 0.5508-0.08594 0.0421-0.06207 0.06836-0.1383 0.06836-0.2188 0-0.2125-0.1722-0.3828-0.3848-0.3828z" style="fill:url(#linearGradient7138)"/>
    <path transform="matrix(10.71,0,0,-10.71,45.06,461.3)" d="m3.408 3.357s0.02482 0.1534 0.05469 0.1875c0.00575 0.00658 0.01635 0.01052 0.02734 0.01367 0.03319 0.00111 0.06639 0.00258 0.09961 0.00391 0.00195 7.77e-5 0.00391-7.82e-5 0.00586 0 0.01182-0.00125 0.01953-0.00195 0.01953-0.00195-0.1057-0.01746-0.207-0.2031-0.207-0.2031z" style="fill:#e56595"/>
    <circle cx="90.3" cy="428" r="1" fill="#fff"/>
    <circle cx="86.6" cy="426.5" r="2.54" opacity=".68" style="fill:#a16595"/>
    <path d="m69.79 426s1.281 7.824-4.739 9.654c-5.939 1.805-7.645-5.099-7.645-5.099z" opacity=".5" style="fill:url(#linearGradient7204)"/>
    <path transform="matrix(10.71,0,0,-10.71,45.06,461.3)" d="m1.164 3.387-0.1387 0.1055c0.09511-0.02175 0.2585 0.00966 0.7285 0.06445 0.04043 0.00471 0.07324 0.00869 0.1074 0.01172 0.00976-3.485e-4 0.01954-0.00162 0.0293-0.00195 0.1181-0.00708 0.2354-0.011 0.3535-0.01367 0.0047-0.00343 0.00977-0.00781 0.00977-0.00781z" style="fill:url(#linearGradient7238)"/>
    <path d="m57.17 428.9 12.54-1.539s-1e-3 6.857-6.374 8.152c-0.553 0.112-1.066 0.164-1.54 0.164-4.683 0-5.606-5.062-4.625-6.777" style="fill:url(#linearGradient7270)"/>
    <path transform="matrix(10.71,0,0,-10.71,45.06,461.3)" d="m1.666 2.486c-0.0224 0-0.04456-1.936e-4 -0.06836 0.00195-0.6685 0.06179-0.4258 0.9316-0.4258 0.9316 0.1128 0.01251 0.2341 0.03137 0.3516 0.05078 0.2108 0.03435 0.4122 0.07128 0.5508 0.08594 0.00788 8.396e-4 0.01207-6.801e-4 0.01953 0 0.04887-0.0018 0.0976-0.00278 0.1465-0.00391 0.00505-0.00245 0.01112-0.00436 0.01367-0.00781 0.1338-0.1813 0.05466-1.058-0.5879-1.059z" style="fill:url(#radialGradient7294)"/>
    <path transform="matrix(10.71,0,0,-10.71,45.06,461.3)" d="m2.309 3.357s-0.0929 0.1692-0.1934 0.1992c0.043-0.00149 0.08589-0.00293 0.1289-0.00391 0.00352-0.00211 0.00734-0.00504 0.00977-0.00781 0.02987-0.03407 0.05469-0.1875 0.05469-0.1875z" style="fill:#e56595"/>
    <path transform="matrix(10.71,0,0,-10.71,45.06,461.3)" d="m1.84 2.869c-0.2124 0-0.3848 0.1703-0.3848 0.3828 0 0.08046 0.02617 0.1567 0.06836 0.2188 0.2108 0.03435 0.4122 0.07128 0.5508 0.08594 0.09119-0.07056 0.1504-0.1807 0.1504-0.3047 0-0.2125-0.1726-0.3828-0.3848-0.3828z" style="fill:url(#linearGradient7316)"/>
    <circle cx="61" cy="428" r="1" fill="#fff"/>
    <circle cx="64.8" cy="426.5" r="2.54" opacity=".68" style="fill:#a16595"/>
  </g>
  <g id="gr_hair" class="covered pointer-cursor" transform="matrix(.09335 0 0 -.09335 -4.212 43.06)" style="fill:url(#linearGradient14141);opacity:.1">
    <path transform="matrix(10.71,0,0,-10.71,45.06,460.9)" d="m1.74-0.02344c-0.1672 0.1604-0.3383 0.3438-0.4941 0.457-0.4821 0.3504-0.8259 0.07134-1.012 0.7988 0.01195-0.01307 0.2084-0.2275 0.6113-0.4414-0.02193 0.01624-0.374 0.2814-0.3828 0.5781 0 0 0.06251 0.9056 0.2168 1.42l0.1191 0.168s-0.1243-1.03 0.05664-1.447c0 0 0.1765-0.4269 0.4629-0.623 0 0-0.04484 0.2447-0.00977 0.5664l0.2969-0.4512s0.01859 0.1804 0.04883 0.2715c0 0 0.3321-0.5221 1.051-0.748 0 0 0.00529 0.1294 0.166 0.4961 0 0-0.00492-0.3103 0.07031-0.4746 0.01232-0.02744 0.02784-0.05118 0.04492-0.06836 0 0 0.5439-0.05822 0.8828-0.05859 0 0-0.01542 0.6774 0.8906 1.152 0 0-0.5379-0.4504-0.5391-0.9492 0 0 0.2849 0.5248 0.5391 0.9492 0.04172 0.06916 0.08245 0.136 0.1211 0.1973 0 0 0.09318 0.6706 0.01758 1.16l0.08008-0.08008s0.1279-1.017 0.1621-1.59c0 0-0.08508-0.7258-1.055-0.9668 0 0 0.8604-0.1053 1.172 0.6934 0 0 0.04985-1.025-1.227-0.7637 0 0-0.1316-0.1291-0.3047-0.2461-0.6712-0.004878-1.395-0.001033-1.986-1.2e-7z" style="fill:url(#linearGradient14247);stroke-width:.09334"/>
  </g>
  <g id="gr_eyebrows" class="covered pointer-cursor" transform="matrix(.1123 0 0 -.1539 -5.572 69.97)" style="fill:#461111">
    <path d="m81.2 441.3 0.604 0.081 1.131 0.969-0.646-0.928s1.171 0.202 4.521-0.041c3.352-0.242 6.177-1.251 6.177-1.251s-3.309 4.441-6.378 4.441-5.409-3.271-5.409-3.271" style="fill:#461111"/>
    <path d="m57.19 440.1s2.826 1.009 6.177 1.251c3.351 0.243 4.522 0.041 4.522 0.041l-0.647 0.928 1.131-0.969 0.605-0.081s-2.34 3.271-5.409 3.271c-3.068 0-6.379-4.441-6.379-4.441" style="fill:#461111"/>
  </g>
  <g id="gr_nose" class="covered pointer-cursor" transform="matrix(.04324 0 0 -.04324 -.4076 14.74)" style="opacity:.3">
    <path transform="matrix(23.13,0,0,-23.13,9.332,341)" d="m2.893 3.457c-0.0917 0.00228-0.1614 0.04404-0.2109 0.0918 0.1349 5.01e-4 0.2694 0.00259 0.4043 0.00391-0.05283-0.05484-0.1176-0.09757-0.1934-0.0957z" style="fill:#ffd6bd"/>
    <path transform="matrix(23.13,0,0,-23.13,9.332,341)" d="m2.957 2.582 0.06445 0.7852c0.08312 0.0092 0.161 0.1055 0.2148 0.1875 0.01106 8.52e-5 0.02215-9.82e-5 0.0332 0z" style="fill:url(#linearGradient2437)"/>
    <path transform="matrix(23.13,0,0,-23.13,9.332,341)" d="m2.857 2.582-0.3262 0.9668c0.0091-2.46e-5 0.01825 1.25e-5 0.02734 0 0.05343-0.07732 0.1366-0.1719 0.2422-0.1816z" style="fill:url(#linearGradient2410)"/>
  </g>
</svg>
