<svg viewBox="0 0 48.94 28.43" xmlns="http://www.w3.org/2000/svg" xmlns:xlink="http://www.w3.org/1999/xlink">
  <defs>
    <linearGradient id="linearGradient1618" x2="1" gradientTransform="matrix(0 -6.603 6.603 0 18.49 44.49)" gradientUnits="userSpaceOnUse">
      <stop style="stop-color:#8c7cd4" offset="0"/>
      <stop style="stop-color:#8c7cd4" offset=".01599"/>
      <stop style="stop-color:#514c9a" offset="1"/>
    </linearGradient>
    <linearGradient id="linearGradient10246" x2="1" gradientTransform="matrix(0 -11.62 11.62 0 47.79 48.14)" gradientUnits="userSpaceOnUse">
      <stop style="stop-color:#ff9b86" offset="0"/>
      <stop style="stop-color:#ff9b86" offset=".03352"/>
      <stop style="stop-color:#ffa670" offset=".9532"/>
      <stop style="stop-color:#ffa670" offset="1"/>
    </linearGradient>
    <linearGradient id="linearGradient10276" x2="1" gradientTransform="matrix(3.272 -5.668 5.668 3.272 46.12 45.4)" gradientUnits="userSpaceOnUse">
      <stop style="stop-color:#fff" offset="0"/>
      <stop style="stop-color:#ca00a4" offset=".9944"/>
      <stop style="stop-color:#ca00a4" offset="1"/>
    </linearGradient>
    <linearGradient id="linearGradient10310" x2="1" gradientTransform="matrix(2.218 -3.842 3.842 2.218 45.39 45.02)" gradientUnits="userSpaceOnUse">
      <stop style="stop-color:#fff" offset="0"/>
      <stop style="stop-color:#ca00a4" offset=".9944"/>
      <stop style="stop-color:#ca00a4" offset="1"/>
    </linearGradient>
    <linearGradient id="linearGradient10380" x2="1" gradientTransform="matrix(0 -11.62 -11.62 0 3.983 33.97)" gradientUnits="userSpaceOnUse">
      <stop style="stop-color:#ff9b86" offset="0"/>
      <stop style="stop-color:#ff9b86" offset=".03352"/>
      <stop style="stop-color:#ffa670" offset=".9532"/>
      <stop style="stop-color:#ffa670" offset="1"/>
    </linearGradient>
    <linearGradient id="linearGradient10410" x2="1" gradientTransform="matrix(-3.272 -5.668 -5.668 3.272 5.65 31.23)" gradientUnits="userSpaceOnUse">
      <stop style="stop-color:#fff" offset="0"/>
      <stop style="stop-color:#ca00a4" offset=".9944"/>
      <stop style="stop-color:#ca00a4" offset="1"/>
    </linearGradient>
    <linearGradient id="linearGradient10444" x2="1" gradientTransform="matrix(-2.218 -3.842 -3.842 2.218 6.388 30.85)" gradientUnits="userSpaceOnUse">
      <stop style="stop-color:#fff" offset="0"/>
      <stop style="stop-color:#ca00a4" offset=".9944"/>
      <stop style="stop-color:#ca00a4" offset="1"/>
    </linearGradient>
    <linearGradient id="linearGradient10572" x2="1" gradientTransform="matrix(-9.972 0 0 9.972 22.59 37.56)" gradientUnits="userSpaceOnUse">
      <stop style="stop-color:#fff" offset="0"/>
      <stop style="stop-color:#ca00a4" offset=".9944"/>
      <stop style="stop-color:#ca00a4" offset="1"/>
    </linearGradient>
    <linearGradient id="linearGradient10606" x2="1" gradientTransform="matrix(-9.878 0 0 9.878 19.28 29.58)" gradientUnits="userSpaceOnUse">
      <stop style="stop-color:#fff" offset="0"/>
      <stop style="stop-color:#ca00a4" offset=".9944"/>
      <stop style="stop-color:#ca00a4" offset="1"/>
    </linearGradient>
    <linearGradient id="linearGradient10638" x2="1" gradientTransform="matrix(0 -6.636 -6.636 0 17.29 40.47)" gradientUnits="userSpaceOnUse">
      <stop style="stop-color:#64003c" offset="0"/>
      <stop style="stop-color:#a6252f" offset="1"/>
    </linearGradient>
    <radialGradient id="radialGradient10662" cx="7504" cy="3382" r="290.9" gradientTransform="matrix(.9951 0 0 1.005 -2.743 -14.17)">
      <stop style="stop-color:#fff0eb" offset="0"/>
      <stop style="stop-color:#fff0eb" offset=".03352"/>
      <stop style="stop-color:#ffe7e9" offset=".9773"/>
      <stop style="stop-color:#ffe7e9" offset="1"/>
    </radialGradient>
    <linearGradient id="linearGradient10750" x2="1" gradientTransform="matrix(9.972 0 0 9.972 31.72 37.56)" gradientUnits="userSpaceOnUse">
      <stop style="stop-color:#fff" offset="0"/>
      <stop style="stop-color:#ca00a4" offset=".9944"/>
      <stop style="stop-color:#ca00a4" offset="1"/>
    </linearGradient>
    <linearGradient id="linearGradient10784" x2="1" gradientTransform="matrix(9.878 0 0 9.878 32.29 43.75)" gradientUnits="userSpaceOnUse">
      <stop style="stop-color:#fff" offset="0"/>
      <stop style="stop-color:#ca00a4" offset=".9944"/>
      <stop style="stop-color:#ca00a4" offset="1"/>
    </linearGradient>
    <linearGradient id="linearGradient10816" x2="1" gradientTransform="matrix(0 -6.636 6.636 0 37.02 40.47)" gradientUnits="userSpaceOnUse">
      <stop style="stop-color:#64003c" offset="0"/>
      <stop style="stop-color:#a6252f" offset="1"/>
    </linearGradient>
    <radialGradient id="radialGradient10840" cx="8084" cy="3382" r="290.9" gradientTransform="scale(.9951 1.005)">
      <stop style="stop-color:#fff0eb" offset="0"/>
      <stop style="stop-color:#fff0eb" offset=".03352"/>
      <stop style="stop-color:#ffe7e9" offset=".9773"/>
      <stop style="stop-color:#ffe7e9" offset="1"/>
    </radialGradient>
    <linearGradient id="linearGradient2410" x1="78.14" x2="85.35" y1="270" y2="270" gradientTransform="matrix(-.4421 0 0 -.3049 61.62 123.3)" gradientUnits="userSpaceOnUse" xlink:href="#radialGradient7554"/>
    <radialGradient id="radialGradient7554" cx="40.4" cy="757.7" r="3.422" gradientTransform="scale(1.83 .5465)">
      <stop style="stop-color:#fff0eb" offset="0"/>
      <stop style="stop-color:#fff0eb" offset=".03352"/>
      <stop style="stop-color:#ffe7e9" offset=".9773"/>
      <stop style="stop-color:#ffe7e9" offset="1"/>
    </radialGradient>
    <linearGradient id="linearGradient2437" x1="77.71" x2="85.83" y1="268.7" y2="268.7" gradientTransform="matrix(.3682 0 0 -.3049 -.6822 123.3)" gradientUnits="userSpaceOnUse" xlink:href="#radialGradient7554"/>
    <linearGradient id="linearGradient1620" x2="1" gradientTransform="matrix(0 -6.603 6.603 0 18.49 44.49)" gradientUnits="userSpaceOnUse" xlink:href="#linearGradient1618"/>
    <linearGradient id="linearGradient17660" x2="1" gradientTransform="matrix(0 -6.603 6.603 0 15.75 30.32)" gradientUnits="userSpaceOnUse" xlink:href="#linearGradient1618"/>
  </defs>

  <g id="gr_face" transform="translate(-2.79 -14.18)" style="opacity:.2">
    <path transform="translate(2.79 14.18)" d="m32.49 3.5c0.03739 0.6239-0.01163 0.9079-0.1008 1.318-0.04821 0.4683-0.1884 0.9191-0.3691 1.352-0.26 0.5709-0.4906 1.186-0.875 1.639-0.3698 0.5524-0.8517 1.092-1.406 1.553-0.2144 0.1834-0.3273 0.2605-0.5 0.3711-0.03087 0.03438-0.05877 0.07148-0.0918 0.1035-0.8428 0.638-1.721 1.021-2.691 1.426-0.8048 0.198-1.546 0.4486-2.171 0.6137 0.9655-0.6467 1.06-0.6911 1.739-1.317 0.4823-0.5699 0.9856-1.183 1.314-1.723 0.8188-1.214 1.485-2.716 1.965-3.978-0.4211 0.1841-0.5803 0.3079-0.8416 0.4804 8.74e-4 0.00604-0.0032 0.00976-0.01172 0.00977-0.02664 0.02088-0.05052 0.03899-0.08398 0.06445-0.0037 0.00284-8e-3 5e-3 -0.01172 0.00781-0.7215 0.5336-1.116 0.848-1.734 1.371-0.3438 0.2862-0.5682 0.5104-0.8887 0.7982-0.4118 0.3699-0.4368 0.4178-0.6484 0.5904-0.7847 0.9732-1.349 1.649-2.494 3.129-0.2642 0.4873-0.2892 0.4661-0.9086 1.456 0.08832-0.6117 0.5698-2.609 0.732-3.167 0.3663-0.9873 0.6054-1.823 0.871-2.451 0.5962-0.8765 1.382-1.343 1.213-1.584-0.1025-0.1462-0.7548-0.173-1.446-0.2611-0.637-0.1006-1.121-0.1771-1.82-0.3171h-1.172c-0.1652 0.08225-1.032 0.2054-2.295 0.5835-0.5175 0.2028-0.7973 0.4115-1.227 0.6197-0.1436 0.06444-0.2853 0.1354-0.4316 0.1934-0.2628 0.2513-0.5537 0.4494-0.7962 0.525-0.9911 1.523-1.527 2.653-2.376 4.315-0.02046 0.09756-0.7681 2.401-0.7956 2.635 0.1668-1.73 0.09302-1.72 0.1609-2.297 0.04334-0.3684 0.03727-0.3748 0.1152-0.6699-6.71e-4 -0.1107-0.0029-0.2213 0-0.332 0.0032-0.1229 0.01023-0.2446 0.01953-0.3672 0.01019-0.1343 0.05297-0.3703 0.07226-0.4824 0.02999-0.1739 0.06292-0.3477 0.09375-0.5215 0.05979-0.3416 0.03002-0.189 0.1406-0.6992 0.02882-0.133 0.05728-0.2663 0.08984-0.3984 0.2675-0.9166 0.2113-1.198 0.486-1.729 0.1971-0.3809 0.6108-0.9067 0.9264-1.392-3.173 1.173-4.942 2.804-6.205 7.064-0.7582 4.179-2.167 9.884-0.9942 16.26 0.5527-2e-3 1.105-0.0043 1.658-0.0078 1.463-0.0094 2.929-0.03362 4.389 0.08984 0.3137-0.02651 0.6272-0.05485 0.9414-0.07813 1.214-0.08979 2.434-0.08738 3.65-0.08008 1.467-0.0065 0.2644 0.0015 1.373-0.01172 0.1937-0.0023 0.4648-0.01262 0.7676-0.01367 0.0564-1.95e-4 0.1194 0.0068 0.1777 0.0078 0.3497-0.04442 0.6988-0.09354 1.051-0.1113 0.711-0.03594 1.425-0.02343 2.137-0.03516 0.4777 0.01385 0.9538 0.03507 1.432 0.04297 0.5927 0.0099 1.187 0.01091 1.779 0.01172 0.3709 5e-4 0.7406-0.01652 1.111-0.0078 1.343 0.02987 2.683 0.1409 4.023 0.2227 1.825 0.1187 3.654-0.02548 5.48-0.0059 0.4846 0.0057 0.9687 0.02736 1.453 0.04102 1.169 0.07784 2.342 0.07756 3.514 0.06641 0.5226-5.15 0.4188-11.38-0.9185-15.16-0.4812-0.08101-0.6561-0.1357-1.187-0.3287-0.9717-0.4462-1.563-0.5685-3.25-2.238-2.596-2.663-3.159-4.953-4.134-7.194zm1.652 0.8489c0.5088 1.135 0.6577 1.224 1.42 2.533 1.636 2.338 3.395 4.645 5.898 5.811-0.2979-2.44-4.546-6.376-7.318-8.344zm-20.84 4.326c-3.75e-4 0.00175 4.54e-4 0.00184 0 0.00391 4.51e-4 -0.0011 0.0015-0.00283 2e-3 -0.00391z" style="fill:#ffa670;opacity:.2"/>
  </g>
  <g id="gr_nose" class="covered pointer-cursor" transform="translate(-2.79 -14.18)" style="opacity:.2">
    <path d="m27.93 37.51 0.4746 4.773c0.2605 0.0012 0.521 0.0055 0.7812 0.0059 0.1981 2.68e-4 0.3959-8.24e-4 0.5938-0.0039z" style="fill:url(#linearGradient2437)"/>
    <path d="m27.08 37.51-1.92 4.729c0.2729-0.0015 0.5457-0.0014 0.8184-0.0059 0.2327 0.0067 0.465 0.01363 0.6973 0.02148z" style="fill:url(#linearGradient2410)"/>
  </g>
  <g id="gr_ears" class="covered pointer-cursor" transform="matrix(.3528 0 0 -.3528 -250 147.8)" style="opacity:.1">
    <path transform="matrix(2.835 0 0 -2.835 700.7 459.1)" d="m48.69 36.52c-1.915 0-3.365 1.545-3.365 1.545l-0.8262 4.545c0.278-2e-3 0.5562-4.62e-4 0.834-0.0039 0.2137-0.0027 0.4276 0.0051 0.6406-0.01172 0.3435-0.02714 0.6851-0.08093 1.027-0.1211 0.2647-0.03903 0.5291-0.08624 0.7949-0.1172 0.8342-0.09715 2.344-0.2422 3.244-0.3145 0.1893-0.0152 0.3789-0.02716 0.5684-0.04102 0.3988-2.39-0.1963-4.763-1.803-5.299-0.3838-0.1277-0.7575-0.1816-1.115-0.1816z" style="fill:url(#linearGradient10246)"/>
    <path transform="matrix(2.835 0 0 -2.835 700.7 459.1)" d="m48.7 39.52c-2.147-0.04339-3.779 2.105-3.779 2.105v0.1992s1.117-0.2853 1.406 0.5c0.02379 0.0644 0.0383 0.1372 0.04492 0.2168 0.2103-0.02561 0.4207-0.04956 0.6309-0.07422 0.2647-0.03903 0.5291-0.08624 0.7949-0.1172 0.0673-0.0078 0.1863-0.01699 0.2617-0.02539-0.3155-0.7593-0.7804-1.235-0.3496-1.494 0.5215-0.3132 1.404 0.02967 1.771 1.355 0.3716-0.03573 0.6796-0.06848 1.014-0.09766-0.07514-1.394-0.7512-2.548-1.795-2.568z" style="fill-rule:evenodd;fill:url(#linearGradient10276)"/>
    <path transform="matrix(2.835 0 0 -2.835 700.7 459.1)" d="m46.56 40.73c-0.8686 0.01155-1.645 0.8945-1.645 0.8945v0.1992s1.148-0.2691 1.406 0.5c0.02222 0.06637 0.03398 0.1392 0.04102 0.2168 0.2115-0.02572 0.4233-0.04941 0.6348-0.07422 0.2647-0.03903 0.5291-0.08624 0.7949-0.1172 0.06228-0.0073 0.1729-0.0157 0.2422-0.02344-0.2838-0.8831-0.7659-1.56-1.391-1.594-0.02819-0.0015-0.05597-0.0023-0.08398-2e-3z" style="fill-rule:evenodd;fill:url(#linearGradient10310)"/>
    <path transform="matrix(2.835 0 0 -2.835 708.5 418.9)" d="m3.086 22.35c-0.3577 0-0.7314 0.05394-1.115 0.1816-1.715 0.5716-2.278 3.237-1.709 5.781 0.2043 9.55e-4 0.4089 0.0019 0.6133 2e-3 3.889 0.0013 2.78 0.0032 5.59-0.0059 0.2631-0.0012 0.5261-3e-3 0.7891-0.0039l-0.8027-4.41s-1.45-1.545-3.365-1.545z" style="fill:url(#linearGradient10380)"/>
    <path transform="matrix(2.835 0 0 -2.835 708.5 418.9)" d="m3.078 25.36c-1.14 0.02266-1.841 1.397-1.799 2.959 0.5433 2.25e-4 0.6079-0.0021 0.9453-2e-3 0.311-1.566 1.284-1.982 1.842-1.646 0.4588 0.2757-0.09632 0.7979-0.4062 1.646 0.3525-3.02e-4 1.237-2.67e-4 1.756-2e-3 0.00791-0.05359 0.0183-0.1048 0.03516-0.1504 0.29-0.7853 1.406-0.5 1.406-0.5v-0.1992s-1.632-2.149-3.779-2.105z" style="fill-rule:evenodd;fill:url(#linearGradient10410)"/>
    <path transform="matrix(2.835 0 0 -2.835 708.5 418.9)" d="m5.213 26.57c-0.02802-3.73e-4 -0.0558 0.0023-0.08398 0.0039-0.6591 0.03557-1.159 0.7861-1.436 1.74 0.3439-3.15e-4 1.213 0.0017 1.723 0 0.00785-0.0524 0.01951-0.1018 0.03516-0.1484 0.2575-0.7691 1.406-0.5 1.406-0.5v-0.1992s-0.776-0.883-1.645-0.8945z" style="fill-rule:evenodd;fill:url(#linearGradient10444)"/>
  </g>
  <g id="gr_hair" class="covered pointer-cursor" transform="translate(-.04759 -.01559)" style="opacity:.1">
    <path d="m28.91 0.07907 12.68 5.666 1.115 17.39s5.76-4.517 2.666-19.9c-0.1953-0.2736-0.1403-0.219-0.8008-0.9941-0.1262-0.1481-0.2492-0.3019-0.3906-0.4355-0.2416-0.2283-0.5036-0.4319-0.7559-0.6484l-0.3945-0.3164c-0.5819-0.05389-1.014-0.09983-1.461-0.1562h-1.609c-1.599 0.0191-3.196-0.08763-4.787-0.2324-0.4183-0.03805-0.8335-0.08861-1.252-0.125-0.5663-0.04925-1.134-0.0873-1.701-0.1309-0.368-0.02357-0.7351-0.05568-1.104-0.07227-1.181-0.05319-1.306-0.03861-2.207-0.05078z" style="fill:#6b290a"/>
    <path d="m19.63 0.1142c-2.905 0.08245-3.117 0.09066-6.518 0.2891-0.8245 0.0481-1.648 0.1235-2.473 0.1641-1.23 0.06044-2.462 0.09443-3.693 0.1406-0.1449 0.09531-0.2888 0.1905-0.4316 0.2891-0.3124 0.2172-1.132 0.7522-1.52 1.1-0.2392 0.2145-0.4802 0.4276-0.6934 0.668-0.1331 0.1501-0.25 0.3137-0.3652 0.4785-3.092 15.38 2.664 19.89 2.664 19.89l0.6406-18.22z" style="fill:#6b290a"/>
    <path d="m24.48 0.01657c-2.259 0.0047-1.168-0.0073-4.664 0.0918-2.427 0.0688-3.359 0.1105-5.086 0.207-5.241 2.163-9.451 5.553-9.965 8.512-0.6396 3.669 1.579 14.23 1.949 17.31-0.1588-13.11 2.92-17.66 3.154-18.03 4.432-3.115 2.104 1.95 5.543-1.168 5.048-1.948 9.865 0.2586 13.92-2.072-2.184 5.773-4.864 6.951-5.031 7.018 8.841-1.887 8.271-8.342 8.271-8.342 3.149 9.403 8.547 9.721 8.547 9.721 1.723 4.885 1.062 12.87 1.062 12.87s2.46-14.07 1.471-17.31c-0.6536-2.141-4.409-6.013-9.484-8.471-0.07815-0.0076-0.156-0.01662-0.2344-0.02344-0.5663-0.04925-1.134-0.0873-1.701-0.1309-0.368-0.02357-0.7351-0.05568-1.104-0.07227-1.256-0.05655-1.261-0.0357-2.338-0.05273-0.8543-0.01351-1.708-0.04098-2.562-0.05078-0.5813-0.0066-1.163-0.0069-1.744-0.0098zm9.727 4.391c0.1887 0.1326 6.245 4.441 7.297 8.215 0 0-3.233-0.7931-7.297-8.215z" style="fill:#973f0a"/>
    <path d="m42.17 26.14c-0.02826 0.5815 0.0053 1.369 0.1035 2.303 0.1041-0.0012 0.2084-6.63e-4 0.3125-2e-3 0.01955-2.43e-4 0.03904-0.0019 0.05859-2e-3 -0.2759-0.8436-0.4554-1.624-0.4746-2.299z" style="fill:#973f0a"/>
    <path d="m6.711 26.14s-0.03223 0.4151-0.09961 1.244c0.05256-0.4156 0.08727-0.8303 0.09961-1.244zm-0.09961 1.244c-0.03902 0.308-0.08883 0.6159-0.1465 0.9238 0.02344-1.11e-4 0.04687 1.06e-4 0.07031 0 0.02763-0.3337 0.05922-0.7147 0.07617-0.9238z" style="fill:#973f0a"/>
    <path d="m12.57 3.489s-4.037 2.394-4.928 5.572c-0.8911 3.178-0.6426 9.73-0.6426 9.73 0.8664-7.909 2.863-10.68 2.863-10.68z" style="fill-rule:evenodd;fill:#6b290a;opacity:.5"/>
    <path d="m21.69 12.87s0.9493-5.717 2.568-7.122c1.619-1.405 5.779-2.068 5.779-2.068l-0.7161 1.192s-4.018 2.074-7.631 7.998" style="fill-rule:evenodd;fill:#6b290a;opacity:.68"/>
    <path d="m22.61 0.02634c-0.0072 1.6e-4 -0.03766 0.0018-0.04492 2e-3 -2.098 0.87-8.232 3.616-9.219 6.43-1.192 3.399-1.168 7.74-1.168 7.74 0.6428-3.471 3.23-7.258 3.23-7.258 2.5-3.815 6.083-6.146 7.387-6.914-0.04229 7.73e-4 -0.1412-9.9e-4 -0.1855 0z" style="fill-rule:evenodd;fill:#6b290a;opacity:.68"/>
    <path d="m26.78 0.03805c-8.273 3.071-11.28 12.55-11.28 12.55 3.171-7.765 8.867-11.13 12.43-12.53-0.3834-0.0087-0.7669-0.01428-1.15-0.02148z" style="fill-rule:evenodd;fill:#7c290a;opacity:.68"/>
    <path d="m23.54 6.699-4.808 0.2526 1.719-1.959 4.111 0.5168z" style="fill-rule:evenodd;fill:#ffd6bd"/>
    <path d="m18.38 6.951-2.975 0.1351s1.501-1.567 4.349-1.942z" style="fill-rule:evenodd;fill:#ffd6bd"/>
    <path d="m14.3 4.993c-2.613 0.8184-4.432 3.115-4.432 3.115l-0.4219 1.373c1.935-1.743 3.66-2.262 3.66-2.262s0.06588-0.6622 0.3887-1.104c0.3224-0.4417 0.8047-1.123 0.8047-1.123z" style="fill-rule:evenodd;fill:#ffd6bd"/>
    <path d="m28.04 7.689 2.459 1.052 0.998-1.307-3.028-0.1979z" style="fill-rule:evenodd;fill:#ffd6bd"/>
  </g>
  <g id="gr_eyes" class="covered pointer-cursor" transform="translate(-2.79 -14.18)" style="opacity:.1">
    <path d="m17.09 33.59c-3.435 0.08937-4.477 4.307-4.477 4.307l9.881 3.635s1.023-6.243-3.781-7.703c-0.5923-0.18-1.132-0.251-1.623-0.2383z" style="fill:url(#linearGradient10572);opacity:.5"/>
    <path transform="translate(2.743 14.17)" d="m9.977 28.17-0.1641 0.125c0.3494-0.0018 0.6995 7.9e-4 1.049 0.0039z" style="fill:url(#linearGradient10606);opacity:.3"/>
    <path d="m12.43 39.24 10 1.229s-7.05e-4 -5.471-5.086-6.505c-0.4406-0.08961-0.8498-0.1309-1.228-0.1309-3.736-3.53e-4 -4.474 4.039-3.691 5.407" style="fill:url(#linearGradient10638)"/>
    <path transform="translate(2.743 14.17)" d="m14.27 20.46c-0.1916 0-0.3902 0.0087-0.5938 0.02734-5.366 0.496-3.87 6.999-3.666 7.799 1.039-0.0037 2.078 0.01082 3.113 0.09766 0.3186-0.02696 0.6378-0.05452 0.957-0.07813 1.214-0.08979 2.434-0.08738 3.65-0.08008 1.467-0.0065 0.2644 0.0015 1.373-0.01172 0.1518-0.0018 0.3767-0.0064 0.6016-0.0098 0.3372-2.662-0.9135-7.744-5.436-7.744z" style="fill:url(#radialGradient10662)"/>
    <path transform="translate(2.743 14.17)" d="m15.75 23.72c-1.824 0-3.303 1.479-3.303 3.303 0 0.4767 0.103 0.9291 0.2852 1.338 0.1317 0.0088 0.2629 0.02016 0.3945 0.03125 0.3163-0.02733 0.6324-0.0547 0.9492-0.07813 1.214-0.08979 2.434-0.08738 3.65-0.08008 1.171-0.0052 0.7939-0.0049 1.096-0.0098 0.1457-0.3721 0.2285-0.7774 0.2285-1.201 0-1.824-1.477-3.303-3.301-3.303z" style="fill:url(#linearGradient17660)"/>
    <path transform="translate(2.743 14.17)" d="m15.75 24.97c-1.131 0-2.047 0.9162-2.047 2.047 0 0.4871 0.1692 0.936 0.4531 1.287 1.079-0.0762 2.161-0.08125 3.242-0.07617 0.2492-0.3392 0.3984-0.7579 0.3984-1.211 0-1.131-0.9162-2.047-2.047-2.047z" style="fill:#1f2b2e;opacity:.68"/>
    <path transform="translate(2.743 14.17)" d="m19.76 27.91s-0.07109 0.1165-0.1855 0.2969c0.04692-9.78e-4 0.08317-0.0012 0.1328-2e-3 0.03278-0.1718 0.05273-0.2949 0.05273-0.2949z" style="fill:#e56595;opacity:.8"/>
    <path d="m14.92 39.63c0 0.375 0.3041 0.6791 0.6791 0.6791s0.6791-0.3041 0.6791-0.6791-0.3041-0.6791-0.6791-0.6791-0.6791 0.3041-0.6791 0.6791" style="fill:#fff"/>
    <path d="m37.03 33.59c-0.4401 0.0076-0.9193 0.08074-1.438 0.2383-4.804 1.46-3.779 7.703-3.779 7.703l9.879-3.635s-1.079-4.368-4.662-4.307z" style="fill:url(#linearGradient10750);opacity:.5"/>
    <path d="m41.59 42.33-1.238 0.1797c0.3001 0.0089 0.6002 0.01693 0.9004 0.02539 0.2154 0.01434 0.4308 0.02351 0.6465 0.0332z" style="fill:url(#linearGradient10784);opacity:.3"/>
    <path d="m36.96 33.96c-5.085 1.034-5.085 6.505-5.085 6.505l10-1.229c0.7835-1.368 0.04621-5.407-3.691-5.407-0.3778 0-0.787 0.04127-1.228 0.1309" style="fill:url(#linearGradient10816)"/>
    <path d="m37.3 34.63c-4.507 5.8e-4 -5.765 5.052-5.439 7.721 0.8202 0.04663 1.639 0.1004 2.459 0.1504 1.825 0.1187 3.654-0.02752 5.48-0.0059 0.4846 0.0057 0.9687 0.02736 1.453 0.04102 0.09436 0.0063 0.1888 0.0083 0.2832 0.01367 0.09365-0.3456 1.931-7.377-3.645-7.893-0.2032-0.0187-0.4002-0.02734-0.5918-0.02734z" style="fill:url(#radialGradient10840)"/>
    <path d="m35.82 37.88c-1.824 0-3.303 1.479-3.303 3.303 0 0.4286 0.08187 0.8373 0.2305 1.213 0.5257 0.0344 1.051 0.07145 1.576 0.1035 1.506 0.09798 3.015 0.01961 4.523 0 0.1757-0.4034 0.2734-0.8483 0.2734-1.316 0-1.824-1.477-3.303-3.301-3.303z" style="fill:url(#linearGradient1620)"/>
    <path d="m35.82 39.14c-1.131 0-2.047 0.9162-2.047 2.047 0 0.5001 0.1788 0.957 0.4766 1.312 0.02473 0.0015 0.04949 0.0024 0.07422 0.0039 1.012 0.06582 2.026 0.0487 3.039 0.02539 0.3129-0.3595 0.5039-0.8278 0.5039-1.342 0-1.131-0.9162-2.047-2.047-2.047z" style="fill:#1f2b2e;opacity:.68"/>
    <path d="m31.81 42.08s0.01745 0.1113 0.04687 0.2695c0.04098 0.0023 0.08207 0.0035 0.123 0.0059-0.1068-0.1691-0.1699-0.2754-0.1699-0.2754z" style="fill:#e56595;opacity:.8"/>
    <path d="m39.39 39.63c0 0.375-0.3037 0.6791-0.6791 0.6791-0.3746 0-0.6791-0.3041-0.6791-0.6791s0.3044-0.6791 0.6791-0.6791c0.3754 0 0.6791 0.3041 0.6791 0.6791" style="fill:#fff"/>
  </g>
  <g id="gr_eyebrows" class="covered pointer-cursor" transform="matrix(1.092 0 0 1.602 -5.239 -30.45)">
    <path d="m32.42 29.63 0.4856-0.06491 0.9069-0.7771-0.5178 0.7448s0.9385-0.1617 3.627 0.03228c2.688 0.1944 4.955 1.004 4.955 1.004s-2.656-3.562-5.117-3.562c-2.462 0-4.34 2.623-4.34 2.623" style="fill:#623232"/>
    <path d="m13.16 30.57s2.267-0.8098 4.955-1.004c2.689-0.194 3.627-0.03228 3.627-0.03228l-0.5178-0.7448 0.9066 0.7771 0.4859 0.06491s-1.878-2.623-4.34-2.623c-2.461 0-5.117 3.562-5.117 3.562" style="fill:#623232"/>
  </g>
</svg>
