<?xml version="1.0" encoding="UTF-8" standalone="no"?>
<!-- Created with Inkscape (http://www.inkscape.org/) -->

<svg
   width="31.647694mm"
   height="10.483358mm"
   viewBox="0 0 31.647694 10.483358"
   version="1.1"
   id="svg19376"
   inkscape:version="1.1 (c4e8f9e, 2021-05-24)"
   sodipodi:docname="eyes.svg"
   xmlns:inkscape="http://www.inkscape.org/namespaces/inkscape"
   xmlns:sodipodi="http://sodipodi.sourceforge.net/DTD/sodipodi-0.dtd"
   xmlns="http://www.w3.org/2000/svg"
   xmlns:svg="http://www.w3.org/2000/svg">
  <sodipodi:namedview
     id="namedview19378"
     pagecolor="#ffffff"
     bordercolor="#999999"
     borderopacity="1"
     inkscape:pageshadow="0"
     inkscape:pageopacity="0"
     inkscape:pagecheckerboard="0"
     inkscape:document-units="mm"
     showgrid="false"
     inkscape:zoom="3.2090992"
     inkscape:cx="62.790207"
     inkscape:cy="15.113276"
     inkscape:window-width="1190"
     inkscape:window-height="765"
     inkscape:window-x="0"
     inkscape:window-y="25"
     inkscape:window-maximized="0"
     inkscape:current-layer="layer1" />
  <defs
     id="defs19373">
    <clipPath
       clipPathUnits="userSpaceOnUse"
       id="clipPath626">
      <path
         d="M 0,500 H 1000 V 0 H 0 Z"
         id="path624" />
    </clipPath>
    <clipPath
       clipPathUnits="userSpaceOnUse"
       id="clipPath634">
      <path
         d="m 238.817,365.931 h 28.538 v -22.733 h -28.538 z"
         id="path632" />
    </clipPath>
    <linearGradient
       x1="0"
       y1="0"
       x2="1"
       y2="0"
       gradientUnits="userSpaceOnUse"
       gradientTransform="matrix(28.537601,0,0,-28.537601,238.81729,354.56436)"
       spreadMethod="pad"
       id="linearGradient646">
      <stop
         style="stop-opacity:1;stop-color:#ffffff"
         offset="0"
         id="stop640" />
      <stop
         style="stop-opacity:1;stop-color:#ca00a4"
         offset="0.994413"
         id="stop642" />
      <stop
         style="stop-opacity:1;stop-color:#ca00a4"
         offset="1"
         id="stop644" />
    </linearGradient>
    <clipPath
       clipPathUnits="userSpaceOnUse"
       id="clipPath668">
      <path
         d="m 240.429,340.912 h 30.047 v -4.698 h -30.047 z"
         id="path666" />
    </clipPath>
    <linearGradient
       x1="0"
       y1="0"
       x2="1"
       y2="0"
       gradientUnits="userSpaceOnUse"
       gradientTransform="matrix(30.046896,0,0,-30.046896,240.429,338.56332)"
       spreadMethod="pad"
       id="linearGradient680">
      <stop
         style="stop-opacity:1;stop-color:#ffffff"
         offset="0"
         id="stop674" />
      <stop
         style="stop-opacity:1;stop-color:#ca00a4"
         offset="0.994413"
         id="stop676" />
      <stop
         style="stop-opacity:1;stop-color:#ca00a4"
         offset="1"
         id="stop678" />
    </linearGradient>
    <linearGradient
       x1="0"
       y1="0"
       x2="1"
       y2="0"
       gradientUnits="userSpaceOnUse"
       gradientTransform="matrix(0,18.990509,18.990509,0,253.9791,346.25299)"
       spreadMethod="pad"
       id="linearGradient712">
      <stop
         style="stop-opacity:1;stop-color:#64003c"
         offset="0"
         id="stop708" />
      <stop
         style="stop-opacity:1;stop-color:#a6252f"
         offset="1"
         id="stop710" />
    </linearGradient>
    <radialGradient
       fx="0"
       fy="0"
       cx="0"
       cy="0"
       r="1"
       gradientUnits="userSpaceOnUse"
       gradientTransform="matrix(13.818454,0,0,-13.818454,253.50348,349.7699)"
       spreadMethod="pad"
       id="radialGradient736">
      <stop
         style="stop-opacity:1;stop-color:#fff0eb"
         offset="0"
         id="stop728" />
      <stop
         style="stop-opacity:1;stop-color:#fff0eb"
         offset="0.0335196"
         id="stop730" />
      <stop
         style="stop-opacity:1;stop-color:#ffe7e9"
         offset="0.977299"
         id="stop732" />
      <stop
         style="stop-opacity:1;stop-color:#ffe7e9"
         offset="1"
         id="stop734" />
    </radialGradient>
    <linearGradient
       x1="0"
       y1="0"
       x2="1"
       y2="0"
       gradientUnits="userSpaceOnUse"
       gradientTransform="matrix(0,16.860901,16.860901,0,250.5329,336.73999)"
       spreadMethod="pad"
       id="linearGradient758">
      <stop
         style="stop-opacity:1;stop-color:#8c7c4c"
         offset="0"
         id="stop752" />
      <stop
         style="stop-opacity:1;stop-color:#8c7c4c"
         offset="0.0159875"
         id="stop754" />
      <stop
         style="stop-opacity:1;stop-color:#514c4e"
         offset="1"
         id="stop756" />
    </linearGradient>
    <clipPath
       clipPathUnits="userSpaceOnUse"
       id="clipPath768">
      <path
         d="M 0,500 H 1000 V 0 H 0 Z"
         id="path766" />
    </clipPath>
    <clipPath
       clipPathUnits="userSpaceOnUse"
       id="clipPath776">
      <path
         d="m 244.679,350.054 h 11.717 v -11.717 h -11.717 z"
         id="path774" />
    </clipPath>
    <clipPath
       clipPathUnits="userSpaceOnUse"
       id="clipPath792">
      <path
         d="m 239.078,341.636 h 5.044 v -5.09 h -5.044 z"
         id="path790" />
    </clipPath>
    <clipPath
       clipPathUnits="userSpaceOnUse"
       id="clipPath812">
      <path
         d="m 183.887,365.931 h 28.538 v -22.733 h -28.538 z"
         id="path810" />
    </clipPath>
    <linearGradient
       x1="0"
       y1="0"
       x2="1"
       y2="0"
       gradientUnits="userSpaceOnUse"
       gradientTransform="matrix(-28.537619,0,0,-28.537619,212.42471,354.56436)"
       spreadMethod="pad"
       id="linearGradient824">
      <stop
         style="stop-opacity:1;stop-color:#ffffff"
         offset="0"
         id="stop818" />
      <stop
         style="stop-opacity:1;stop-color:#ca00a4"
         offset="0.994413"
         id="stop820" />
      <stop
         style="stop-opacity:1;stop-color:#ca00a4"
         offset="1"
         id="stop822" />
    </linearGradient>
    <clipPath
       clipPathUnits="userSpaceOnUse"
       id="clipPath846">
      <path
         d="m 180.766,340.912 h 30.047 v -4.698 h -30.047 z"
         id="path844" />
    </clipPath>
    <linearGradient
       x1="0"
       y1="0"
       x2="1"
       y2="0"
       gradientUnits="userSpaceOnUse"
       gradientTransform="matrix(-30.046997,0,0,-30.046997,210.8131,338.56332)"
       spreadMethod="pad"
       id="linearGradient858">
      <stop
         style="stop-opacity:1;stop-color:#ffffff"
         offset="0"
         id="stop852" />
      <stop
         style="stop-opacity:1;stop-color:#ca00a4"
         offset="0.994413"
         id="stop854" />
      <stop
         style="stop-opacity:1;stop-color:#ca00a4"
         offset="1"
         id="stop856" />
    </linearGradient>
    <linearGradient
       x1="0"
       y1="0"
       x2="1"
       y2="0"
       gradientUnits="userSpaceOnUse"
       gradientTransform="matrix(0,18.990509,-18.990509,0,197.26289,346.25299)"
       spreadMethod="pad"
       id="linearGradient890">
      <stop
         style="stop-opacity:1;stop-color:#64003c"
         offset="0"
         id="stop886" />
      <stop
         style="stop-opacity:1;stop-color:#a6252f"
         offset="1"
         id="stop888" />
    </linearGradient>
    <radialGradient
       fx="0"
       fy="0"
       cx="0"
       cy="0"
       r="1"
       gradientUnits="userSpaceOnUse"
       gradientTransform="matrix(-13.818468,0,0,-13.818468,197.73857,349.7699)"
       spreadMethod="pad"
       id="radialGradient914">
      <stop
         style="stop-opacity:1;stop-color:#fff0eb"
         offset="0"
         id="stop906" />
      <stop
         style="stop-opacity:1;stop-color:#fff0eb"
         offset="0.0335196"
         id="stop908" />
      <stop
         style="stop-opacity:1;stop-color:#ffe7e9"
         offset="0.977299"
         id="stop910" />
      <stop
         style="stop-opacity:1;stop-color:#ffe7e9"
         offset="1"
         id="stop912" />
    </radialGradient>
    <linearGradient
       x1="0"
       y1="0"
       x2="1"
       y2="0"
       gradientUnits="userSpaceOnUse"
       gradientTransform="matrix(0,16.860901,-16.860901,0,200.70909,336.73999)"
       spreadMethod="pad"
       id="linearGradient936">
      <stop
         style="stop-opacity:1;stop-color:#8c7c4c"
         offset="0"
         id="stop930" />
      <stop
         style="stop-opacity:1;stop-color:#8c7c4c"
         offset="0.0159875"
         id="stop932" />
      <stop
         style="stop-opacity:1;stop-color:#514c4e"
         offset="1"
         id="stop934" />
    </linearGradient>
    <clipPath
       clipPathUnits="userSpaceOnUse"
       id="clipPath954">
      <path
         d="m 194.846,350.054 h 11.717 v -11.717 h -11.717 z"
         id="path952" />
    </clipPath>
    <clipPath
       clipPathUnits="userSpaceOnUse"
       id="clipPath970">
      <path
         d="m 207.12,341.636 h 5.044 v -5.09 h -5.044 z"
         id="path968" />
    </clipPath>
  </defs>
  <g
     inkscape:label="Layer 1"
     inkscape:groupmode="layer"
     id="layer1"
     transform="translate(-103.29169,-138.32804)">
    <g
       id="g20591"
       transform="matrix(0.35277777,0,0,-0.35277777,39.521465,267.42036)">
      <g
         id="g620">
        <g
           id="g622"
           clip-path="url(#clipPath626)">
          <g
             id="g628">
            <g
               id="g630" />
            <g
               id="g660">
              <g
                 clip-path="url(#clipPath634)"
                 opacity="0.5"
                 id="g658">
                <g
                   id="g656">
                  <g
                     id="g654">
                    <g
                       id="g652">
                      <g
                         id="g650">
                        <path
                           d="m 239.079,343.198 c 0,0 -2.928,17.867 10.82,22.046 13.56,4.121 17.456,-11.643 17.456,-11.643 z"
                           style="fill:url(#linearGradient646);stroke:none"
                           id="path648" />
                      </g>
                    </g>
                  </g>
                </g>
              </g>
            </g>
          </g>
          <g
             id="g662">
            <g
               id="g664" />
            <g
               id="g694">
              <g
                 clip-path="url(#clipPath668)"
                 opacity="0.300003"
                 id="g692">
                <g
                   id="g690">
                  <g
                     id="g688">
                    <g
                       id="g686">
                      <g
                         id="g684">
                        <path
                           d="m 240.429,337.045 c 0,0 0.732,-1.645 12.232,-0.305 11.5,1.34 15.488,2.139 17.815,1.607 l -3.41,2.565 z"
                           style="fill:url(#linearGradient680);stroke:none"
                           id="path682" />
                      </g>
                    </g>
                  </g>
                </g>
              </g>
            </g>
          </g>
        </g>
      </g>
      <g
         id="g696">
        <g
           id="g698">
          <g
             id="g704">
            <g
               id="g706">
              <path
                 d="m 253.816,364.869 c -14.553,-2.958 -14.555,-18.616 -14.555,-18.616 v 0 l 28.631,3.517 c 2.242,3.916 0.131,15.474 -10.562,15.474 v 0 c -1.082,0 -2.252,-0.119 -3.514,-0.375"
                 style="fill:url(#linearGradient712);stroke:none"
                 id="path714" />
            </g>
          </g>
        </g>
      </g>
      <g
         id="g716">
        <g
           id="g718">
          <g
             id="g724">
            <g
               id="g726">
              <path
                 d="m 240.43,337.046 c 0.388,-0.527 1.998,-0.559 4.356,-0.306 v 0 c 3.389,0.358 8.357,1.295 13.514,2.136 v 0 c 2.874,0.474 5.809,0.927 8.568,1.232 v 0 c 0,0 5.965,21.255 -10.389,22.766 v 0 c -0.582,0.053 -1.144,0.079 -1.693,0.079 v 0 c -15.72,-0.002 -17.632,-21.473 -14.356,-25.907"
                 style="fill:url(#radialGradient736);stroke:none"
                 id="path738" />
            </g>
          </g>
        </g>
      </g>
      <g
         id="g740">
        <g
           id="g742">
          <g
             id="g748">
            <g
               id="g750">
              <path
                 d="m 241.124,344.191 c 0,-3.031 1.431,-5.724 3.662,-7.451 v 0 c 3.389,0.358 8.357,1.295 13.514,2.136 v 0 c 1.031,1.516 1.643,3.347 1.643,5.315 v 0 c 0,5.2 -4.211,9.41 -9.41,9.41 v 0 c -5.189,0 -9.409,-4.21 -9.409,-9.41"
                 style="fill:url(#linearGradient758);stroke:none"
                 id="path760" />
            </g>
          </g>
        </g>
      </g>
      <g
         id="g762">
        <g
           id="g764"
           clip-path="url(#clipPath768)">
          <g
             id="g770">
            <g
               id="g772" />
            <g
               id="g784">
              <g
                 clip-path="url(#clipPath776)"
                 opacity="0.679993"
                 id="g782">
                <g
                   transform="translate(256.3965,344.1953)"
                   id="g780">
                  <path
                     d="m 0,0 c 0,-3.235 -2.623,-5.858 -5.859,-5.858 -3.236,0 -5.859,2.623 -5.859,5.858 0,3.236 2.623,5.859 5.859,5.859 C -2.623,5.859 0,3.236 0,0"
                     style="fill:#a16595;fill-opacity:1;fill-rule:nonzero;stroke:none"
                     id="path778" />
                </g>
              </g>
            </g>
          </g>
          <g
             id="g786">
            <g
               id="g788" />
            <g
               id="g800">
              <g
                 clip-path="url(#clipPath792)"
                 opacity="0.800003"
                 id="g798">
                <g
                   transform="translate(239.0776,341.6362)"
                   id="g796">
                  <path
                     d="m 0,0 c 0,0 2.459,-4.532 5.044,-4.961 0,0 -2.962,-0.465 -3.692,0.37 C 0.621,-3.756 0,0 0,0"
                     style="fill:#e56595;fill-opacity:1;fill-rule:nonzero;stroke:none"
                     id="path794" />
                </g>
              </g>
            </g>
          </g>
          <g
             id="g802"
             transform="translate(260.7612,348.6553)">
            <path
               d="m 0,0 c 0,-1.073 -0.87,-1.943 -1.943,-1.943 -1.074,0 -1.943,0.87 -1.943,1.943 0,1.073 0.869,1.943 1.943,1.943 C -0.87,1.943 0,1.073 0,0"
               style="fill:#ffffff;fill-opacity:1;fill-rule:nonzero;stroke:none"
               id="path804" />
          </g>
          <g
             id="g806">
            <g
               id="g808" />
            <g
               id="g838">
              <g
                 clip-path="url(#clipPath812)"
                 opacity="0.5"
                 id="g836">
                <g
                   id="g834">
                  <g
                     id="g832">
                    <g
                       id="g830">
                      <g
                         id="g828">
                        <path
                           d="m 212.164,343.198 c 0,0 2.927,17.867 -10.821,22.046 -13.56,4.121 -17.456,-11.643 -17.456,-11.643 z"
                           style="fill:url(#linearGradient824);stroke:none"
                           id="path826" />
                      </g>
                    </g>
                  </g>
                </g>
              </g>
            </g>
          </g>
          <g
             id="g840">
            <g
               id="g842" />
            <g
               id="g872">
              <g
                 clip-path="url(#clipPath846)"
                 opacity="0.300003"
                 id="g870">
                <g
                   id="g868">
                  <g
                     id="g866">
                    <g
                       id="g864">
                      <g
                         id="g862">
                        <path
                           d="m 210.813,337.045 c 0,0 -0.732,-1.645 -12.232,-0.305 -11.5,1.34 -15.488,2.139 -17.815,1.607 l 3.41,2.565 z"
                           style="fill:url(#linearGradient858);stroke:none"
                           id="path860" />
                      </g>
                    </g>
                  </g>
                </g>
              </g>
            </g>
          </g>
        </g>
      </g>
      <g
         id="g874">
        <g
           id="g876">
          <g
             id="g882">
            <g
               id="g884">
              <path
                 d="m 183.35,349.77 28.631,-3.517 c 0,0 -0.002,15.658 -14.555,18.616 v 0 c -1.262,0.256 -2.432,0.375 -3.514,0.375 v 0 c -10.693,0 -12.804,-11.558 -10.562,-15.474"
                 style="fill:url(#linearGradient890);stroke:none"
                 id="path892" />
            </g>
          </g>
        </g>
      </g>
      <g
         id="g894">
        <g
           id="g896">
          <g
             id="g902">
            <g
               id="g904">
              <path
                 d="m 194.763,362.874 c -16.355,-1.511 -10.388,-22.766 -10.388,-22.766 v 0 c 2.757,-0.305 5.693,-0.758 8.567,-1.232 v 0 c 5.157,-0.841 10.125,-1.778 13.513,-2.136 v 0 c 2.358,-0.253 3.969,-0.221 4.358,0.306 v 0 c 3.275,4.434 1.362,25.905 -14.358,25.907 v 0 c -0.548,0 -1.11,-0.026 -1.692,-0.079"
                 style="fill:url(#radialGradient914);stroke:none"
                 id="path916" />
            </g>
          </g>
        </g>
      </g>
      <g
         id="g918">
        <g
           id="g920">
          <g
             id="g926">
            <g
               id="g928">
              <path
                 d="m 191.299,344.191 c 0,-1.968 0.612,-3.799 1.643,-5.315 v 0 c 5.157,-0.841 10.125,-1.778 13.513,-2.136 v 0 c 2.232,1.727 3.663,4.42 3.663,7.451 v 0 c 0,5.2 -4.221,9.41 -9.409,9.41 v 0 c -5.199,0 -9.41,-4.21 -9.41,-9.41"
                 style="fill:url(#linearGradient936);stroke:none"
                 id="path938" />
            </g>
          </g>
        </g>
      </g>
      <g
         id="g948">
        <g
           id="g950" />
        <g
           id="g962">
          <g
             clip-path="url(#clipPath954)"
             opacity="0.679993"
             id="g960">
            <g
               transform="translate(194.8457,344.1953)"
               id="g958">
              <path
                 d="m 0,0 c 0,-3.235 2.623,-5.858 5.859,-5.858 3.235,0 5.858,2.623 5.858,5.858 0,3.236 -2.623,5.859 -5.858,5.859 C 2.623,5.859 0,3.236 0,0"
                 style="fill:#a16595;fill-opacity:1;fill-rule:nonzero;stroke:none"
                 id="path956" />
            </g>
          </g>
        </g>
      </g>
      <g
         id="g964">
        <g
           id="g966" />
        <g
           id="g978">
          <g
             clip-path="url(#clipPath970)"
             opacity="0.800003"
             id="g976">
            <g
               transform="translate(212.1641,341.6362)"
               id="g974">
              <path
                 d="m 0,0 c 0,0 -2.459,-4.532 -5.043,-4.961 0,0 2.962,-0.465 3.692,0.37 C -0.621,-3.756 0,0 0,0"
                 style="fill:#e56595;fill-opacity:1;fill-rule:nonzero;stroke:none"
                 id="path972" />
            </g>
          </g>
        </g>
      </g>
      <g
         id="g980"
         transform="translate(190.4805,348.6553)">
        <path
           d="m 0,0 c 0,-1.073 0.87,-1.943 1.943,-1.943 1.074,0 1.944,0.87 1.944,1.943 0,1.073 -0.87,1.943 -1.944,1.943 C 0.87,1.943 0,1.073 0,0"
           style="fill:#ffffff;fill-opacity:1;fill-rule:nonzero;stroke:none"
           id="path982" />
      </g>
    </g>
  </g>
</svg>
