<svg viewBox="0 0 3.6669207 1.2147262" xmlns="http://www.w3.org/2000/svg">
  <defs>
    <linearGradient
       x1="0"
       y1="0"
       x2="1"
       y2="0"
       gradientUnits="userSpaceOnUse"
       gradientTransform="matrix(12.497541,0,0,-12.497541,81.462059,431.01822)"
       id="linearGradient7026">
      <stop
         style="stop-opacity:1;stop-color:#ffffff"
         offset="0"
         id="stop7020" />
      <stop
         style="stop-opacity:1;stop-color:#ca00a4"
         offset="0.994413"
         id="stop7022" />
      <stop
         style="stop-opacity:1;stop-color:#ca00a4"
         offset="1"
         id="stop7024" />
    </linearGradient>
    <linearGradient
       x1="0"
       y1="0"
       x2="1"
       y2="0"
       gradientUnits="userSpaceOnUse"
       gradientTransform="matrix(13.15848,0,0,-13.15848,82.1679,424.01083)"
       id="linearGradient7060">
      <stop
         style="stop-opacity:1;stop-color:#ffffff"
         offset="0"
         id="stop7054" />
      <stop
         style="stop-opacity:1;stop-color:#ca00a4"
         offset="0.994413"
         id="stop7056" />
      <stop
         style="stop-opacity:1;stop-color:#ca00a4"
         offset="1"
         id="stop7058" />
    </linearGradient>
    <linearGradient
       x1="0"
       y1="0"
       x2="1"
       y2="0"
       gradientUnits="userSpaceOnUse"
       gradientTransform="matrix(0,8.3165379,8.3165379,0,88.101898,427.37839)"
       id="linearGradient7092">
      <stop
         style="stop-opacity:1;stop-color:#64003c"
         offset="0"
         id="stop7088" />
      <stop
         style="stop-opacity:1;stop-color:#a6252f"
         offset="1"
         id="stop7090" />
    </linearGradient>
    <radialGradient
       fx="77.982788"
       fy="442.64166"
       cx="77.982788"
       cy="442.64166"
       r="12.078674"
       gradientTransform="scale(1.0460748,0.95595458)"
       id="radialGradient7116"
       gradientUnits="userSpaceOnUse">
      <stop
         style="stop-opacity:1;stop-color:#fff0eb"
         offset="0"
         id="stop7108" />
      <stop
         style="stop-opacity:1;stop-color:#fff0eb"
         offset="0.0335196"
         id="stop7110" />
      <stop
         style="stop-opacity:1;stop-color:#ffe7e9"
         offset="0.977299"
         id="stop7112" />
      <stop
         style="stop-opacity:1;stop-color:#ffe7e9"
         offset="1"
         id="stop7114" />
    </radialGradient>
    <linearGradient
       x1="0"
       y1="0"
       x2="1"
       y2="0"
       gradientUnits="userSpaceOnUse"
       gradientTransform="matrix(0,7.3839002,7.3839002,0,86.592712,423.2124)"
       id="linearGradient7138">
      <stop
         style="stop-opacity:1;stop-color:#8c7c4c"
         offset="0"
         id="stop7132" />
      <stop
         style="stop-opacity:1;stop-color:#8c7c4c"
         offset="0.0159875"
         id="stop7134" />
      <stop
         style="stop-opacity:1;stop-color:#514c4e"
         offset="1"
         id="stop7136" />
    </linearGradient>
    <linearGradient
       x1="0"
       y1="0"
       x2="1"
       y2="0"
       gradientUnits="userSpaceOnUse"
       gradientTransform="matrix(-12.497543,0,0,-12.497543,69.903946,431.01822)"
       id="linearGradient7204">
      <stop
         style="stop-opacity:1;stop-color:#ffffff"
         offset="0"
         id="stop7198" />
      <stop
         style="stop-opacity:1;stop-color:#ca00a4"
         offset="0.994413"
         id="stop7200" />
      <stop
         style="stop-opacity:1;stop-color:#ca00a4"
         offset="1"
         id="stop7202" />
    </linearGradient>
    <linearGradient
       x1="0"
       y1="0"
       x2="1"
       y2="0"
       gradientUnits="userSpaceOnUse"
       gradientTransform="matrix(-13.1585,0,0,-13.1585,69.198196,424.01083)"
       id="linearGradient7238">
      <stop
         style="stop-opacity:1;stop-color:#ffffff"
         offset="0"
         id="stop7232" />
      <stop
         style="stop-opacity:1;stop-color:#ca00a4"
         offset="0.994413"
         id="stop7234" />
      <stop
         style="stop-opacity:1;stop-color:#ca00a4"
         offset="1"
         id="stop7236" />
    </linearGradient>
    <linearGradient
       x1="0"
       y1="0"
       x2="1"
       y2="0"
       gradientUnits="userSpaceOnUse"
       gradientTransform="matrix(0,8.3165379,-8.3165379,0,63.264137,427.37839)"
       id="linearGradient7270">
      <stop
         style="stop-opacity:1;stop-color:#64003c"
         offset="0"
         id="stop7266" />
      <stop
         style="stop-opacity:1;stop-color:#a6252f"
         offset="1"
         id="stop7268" />
    </linearGradient>
    <radialGradient
       fx="54.638809"
       fy="442.63156"
       cx="54.638809"
       cy="442.63156"
       r="12.078398"
       gradientTransform="scale(1.0460509,0.9559764)"
       id="radialGradient7294"
       gradientUnits="userSpaceOnUse">
      <stop
         style="stop-opacity:1;stop-color:#fff0eb"
         offset="0"
         id="stop7286" />
      <stop
         style="stop-opacity:1;stop-color:#fff0eb"
         offset="0.0335196"
         id="stop7288" />
      <stop
         style="stop-opacity:1;stop-color:#ffe7e9"
         offset="0.977299"
         id="stop7290" />
      <stop
         style="stop-opacity:1;stop-color:#ffe7e9"
         offset="1"
         id="stop7292" />
    </radialGradient>
    <linearGradient
       x1="0"
       y1="0"
       x2="1"
       y2="0"
       gradientUnits="userSpaceOnUse"
       gradientTransform="matrix(0,7.3839002,-7.3839002,0,64.7733,423.2124)"
       id="linearGradient7316">
      <stop
         style="stop-opacity:1;stop-color:#8c7c4c"
         offset="0"
         id="stop7310" />
      <stop
         style="stop-opacity:1;stop-color:#8c7c4c"
         offset="0.0159875"
         id="stop7312" />
      <stop
         style="stop-opacity:1;stop-color:#514c4e"
         offset="1"
         id="stop7314" />
    </linearGradient>
  </defs>

  <g id="gr_eyes" transform="matrix(0.09333912,0,0,-0.09333912,-5.228638,40.696643)">
    <path
       d="m 81.576,426.041 c 0,0 -1.282,7.824 4.739,9.654 5.938,1.805 7.644,-5.099 7.644,-5.099 z"
       opacity="0.5"
       style="fill:url(#linearGradient7026);stroke:none"
       id="path7028" />
    <path
       d="m 82.168,423.346 c 0,0 0.321,-0.721 5.357,-0.134 5.036,0.587 6.783,0.937 7.801,0.704 l -1.493,1.124 z"
       opacity="0.300003"
       style="fill:url(#linearGradient7060);stroke:none"
       id="path7062" />
    <path
       d="m 88.031,435.531 c -6.374,-1.295 -6.374,-8.152 -6.374,-8.152 v 0 l 12.538,1.539 c 0.982,1.715 0.058,6.777 -4.625,6.777 v 0 c -0.474,0 -0.987,-0.052 -1.539,-0.164"
       style="fill:url(#linearGradient7092);stroke:none"
       id="path7094" />
    <path
       d="m 82.168,423.346 c 0.17,-0.23 0.876,-0.244 1.908,-0.134 v 0 c 1.484,0.157 3.66,0.567 5.918,0.935 v 0 c 1.259,0.208 2.545,0.406 3.752,0.54 v 0 c 0,0 2.613,9.308 -4.549,9.97 v 0 c -0.255,0.023 -0.502,0.035 -0.742,0.035 v 0 c -6.885,-0.001 -7.722,-9.404 -6.287,-11.346"
       style="fill:url(#radialGradient7116);stroke:none"
       id="path7118" />
    <path
       d="m 82.472,426.476 c 0,-1.328 0.627,-2.508 1.604,-3.264 v 0 c 1.484,0.157 3.66,0.567 5.918,0.935 v 0 c 0.451,0.665 0.72,1.467 0.72,2.329 v 0 c 0,2.277 -1.844,4.12 -4.121,4.12 v 0 c -2.273,0 -4.121,-1.843 -4.121,-4.12"
       style="fill:url(#linearGradient7138);stroke:none"
       id="path7140" />
    <path
       d="m 0,0 c 0,0 1.077,-1.985 2.209,-2.172 0,0 -1.297,-0.204 -1.617,0.162 C 0.272,-1.645 0,0 0,0"
       transform="translate(81.5762,425.3564)"
       opacity="0.800003"
       style="fill:#e56595;fill-opacity:1;fill-rule:nonzero;stroke:none"
       id="path7174" />
    <circle
       cx="90.300003"
       cy="428"
       r="1"
       fill="#ffffff"
       id="circle5095" />
    <circle
       cx="86.599998"
       cy="426.5"
       r="2.54"
       opacity="0.679993"
       style="fill:#a16595;fill-opacity:1;fill-rule:nonzero;stroke:none"
       id="circle5097" />

    <path
       d="m 69.79,426.041 c 0,0 1.281,7.824 -4.739,9.654 -5.939,1.805 -7.645,-5.099 -7.645,-5.099 z"
       opacity="0.5"
       style="fill:url(#linearGradient7204);stroke:none"
       id="path7206" />
    <path
       d="m 69.198,423.346 c 0,0 -0.321,-0.721 -5.357,-0.134 -5.036,0.587 -6.782,0.937 -7.801,0.704 l 1.493,1.124 z"
       opacity="0.300003"
       style="fill:url(#linearGradient7238);stroke:none"
       id="path7240" />
    <path
       d="m 57.171,428.918 12.539,-1.539 c 0,0 -10e-4,6.857 -6.374,8.152 v 0 c -0.553,0.112 -1.066,0.164 -1.54,0.164 v 0 c -4.683,0 -5.606,-5.062 -4.625,-6.777"
       style="fill:url(#linearGradient7270);stroke:none"
       id="path7272" />
    <path
       d="m 62.169,434.657 c -7.162,-0.662 -4.549,-9.97 -4.549,-9.97 v 0 c 1.208,-0.134 2.494,-0.332 3.752,-0.54 v 0 c 2.258,-0.368 4.433,-0.778 5.918,-0.935 v 0 c 1.033,-0.11 1.738,-0.096 1.908,0.134 v 0 c 1.434,1.942 0.597,11.345 -6.287,11.346 v 0 c -0.24,0 -0.487,-0.012 -0.742,-0.035"
       style="fill:url(#radialGradient7294);stroke:none"
       id="path7296" />
    <path
       d="m 0,0 c 0,0 -1.077,-1.985 -2.209,-2.172 0,0 1.297,-0.204 1.617,0.162 C -0.272,-1.645 0,0 0,0"
       transform="translate(69.79,425.3564)"
       opacity="0.800003"
       style="fill:#e56595;fill-opacity:1;fill-rule:nonzero;stroke:none"
       id="path7352" />
    <path
       d="m 60.653,426.476 c 0,-0.862 0.267,-1.664 0.719,-2.329 v 0 c 2.258,-0.368 4.433,-0.778 5.918,-0.935 v 0 c 0.977,0.756 1.604,1.936 1.604,3.264 v 0 c 0,2.277 -1.848,4.12 -4.121,4.12 v 0 c -2.276,0 -4.12,-1.843 -4.12,-4.12"
       style="fill:url(#linearGradient7316);stroke:none"
       id="path7318" />
    <circle
       cx="61"
       cy="428"
       r="1"
       fill="#ffffff"
       id="circle5105" />
    <circle
       cx="64.800003"
       cy="426.5"
       r="2.54"
       opacity="0.679993"
       style="fill:#a16595;fill-opacity:1;fill-rule:nonzero;stroke:none"
       id="circle5107" />
  </g>
</svg>
