<svg viewBox="0 0 14.48651 15.701133" xmlns="http://www.w3.org/2000/svg">
  <defs
     id="defs830">
    <linearGradient
       x1="0"
       y1="0"
       x2="1"
       y2="0"
       gradientUnits="userSpaceOnUse"
       gradientTransform="matrix(0,-0.91445251,-0.91445251,0,11.730626,3.7746746)"
       id="linearGradient9856">
      <stop
         style="stop-opacity:1;stop-color:#ff9600"
         offset="0"
         id="stop9852" />
      <stop
         style="stop-opacity:1;stop-color:#ffb300"
         offset="1"
         id="stop9854" />
    </linearGradient>
    <linearGradient
       x1="0"
       y1="0"
       x2="1"
       y2="0"
       gradientUnits="userSpaceOnUse"
       gradientTransform="matrix(0,-0.91445251,0.91445251,0,2.7744171,3.7746746)"
       id="linearGradient9964">
      <stop
         style="stop-opacity:1;stop-color:#ff9600"
         offset="0"
         id="stop9960" />
      <stop
         style="stop-opacity:1;stop-color:#ffb300"
         offset="1"
         id="stop9962" />
    </linearGradient>
  </defs>

  <g id="gr_hair">
    <path
       d="m 7.2115656,3.2484951 4.5228674,2.0210346 0.295111,4.6021225 c 0,0 1.734428,-1.3521105 0.517192,-6.0970045 v 0 c 0,0 -0.69407,-0.7337388 -1.632221,-0.8973625 v 0 c -0.124421,-0.021654 -0.281044,-0.030989 -0.458948,-0.030989 v 0 C 9.2917213,2.8462033 7.2115656,3.2484951 7.2115656,3.2484951"
       style="fill:#6b290a;fill-opacity:1;stroke:none;stroke-width:0.0933392"
       id="path9838" />
    <path
       d="M 3.5905678,2.8772852 C 2.6524164,3.0409089 1.9581601,3.7746477 1.9581601,3.7746477 v 0 c -1.21723541,4.744894 0.5172854,6.0970045 0.5172854,6.0970045 v 0 L 2.644912,5.050836 7.2935173,3.2484951 c 0,0 -2.0801554,-0.4022918 -3.2440943,-0.4021984 v 0 c -0.1778111,0 -0.3345275,0.00933 -0.4588552,0.030989"
       style="fill:#6b290a;fill-opacity:1;stroke:none;stroke-width:0.0933392"
       id="path9946" />
    <path
       d="M 1.9886819,6.0849774 C 1.8194581,7.0557977 2.4066545,9.8498108 2.5046607,10.666061 v 0 C 2.4626581,7.1983266 3.2773218,5.9936919 3.3392057,5.8947523 4.5118623,5.0705212 3.8957234,6.4108599 4.8055633,5.5859865 v 0 C 6.1410686,5.0704652 7.4160811,5.6545011 8.4877915,5.0378058 v 0 C 7.9100222,6.5651138 7.2008317,6.8766798 7.1565888,6.8942277 v 0 C 9.4956671,6.3949566 9.3448311,4.6874109 9.3448311,4.6874109 v 0 C 10.177883,7.1752716 11.60625,7.2593702 11.60625,7.2593702 v 0 c 0.45587,1.2925602 0.281419,3.4052908 0.281419,3.4052908 v 0 c 0,0 0.650293,-3.7235772 0.388663,-4.5796836 v 0 C 12.014704,5.2279377 9.8774241,3.3209261 7.4885028,3.250642 v 0 c -0.049843,-0.0014 -0.099966,-0.00214 -0.1502759,-0.00214 v 0 c -2.3581196,0 -5.1295445,1.5709905 -5.349545,2.8364823 M 9.7784848,4.915722 c 0.049936,0.035096 1.6521032,1.1750463 1.9304402,2.173588 v 0 c 0,0 -0.855266,-0.2099196 -1.9304402,-2.173588"
       style="fill:#973f0a;fill-opacity:1;stroke:none;stroke-width:0.0933392"
       id="path13120" />
    <path
       d="m 12.369391,13.377656 c 0.360383,1.138084 -0.482002,2.196456 -0.482002,2.196456 v 0 c 0,0 0.845185,-0.139262 1.19558,-1.115776 v 0 c 0.279832,-0.779755 -1.166084,-2.755371 -1.19558,-3.793675 v 0 c -0.02437,0.501418 0.121433,1.574818 0.482002,2.712995"
       style="fill:#973f0a;fill-opacity:1;stroke:none;stroke-width:0.0933392"
       id="path13168" />
    <path
       d="m 2.4783391,10.995362 c 0.013907,-0.109954 0.023056,-0.219814 0.026321,-0.329301 v 0 c 0,0 -0.00849,0.109954 -0.026321,0.329301 m -0.8301582,3.625291 c 0.2528556,0.997609 0.9966751,1.088334 0.9966751,1.088334 v 0 c 0,0 -0.5143918,-0.674655 -0.372423,-2.290355 v 0 c 0.1052864,-1.198474 0.1722106,-2.007445 0.2059061,-2.42327 v 0 c -0.170344,1.34455 -1.0639726,2.7031 -0.8301582,3.625291"
       style="fill:#973f0a;fill-opacity:1;stroke:none;stroke-width:0.0933392"
       id="path13144" />
    <path
       d="m 2.5813853,8.7215275 c 0,0 -0.065617,-1.7334941 0.1701573,-2.5742929 C 2.9871305,5.3064359 4.0555833,4.6728499 4.0555833,4.6728499 L 3.3392991,5.8948457 c 0,0 -0.528673,0.7341121 -0.7579138,2.8266818"
       style="opacity:0.5;fill:#6b290a;fill-opacity:1;fill-rule:evenodd;stroke:none;stroke-width:0.0933392"
       id="path13266" />
    <path
       d="m 13.841146,0.93393881 0.198533,0.45250799 -1.60506,1.2584914 0.513365,-1.1096154 z"
       style="fill:#7c290a;fill-opacity:1;fill-rule:evenodd;stroke:none;stroke-width:0.0933392"
       id="path9790" />
    <path
       d="m 11.050697,0.19135893 c 0,0 0.555273,1.26129147 0.112567,2.74370337 v 0 l 1.344549,0.7140443 c 0,0 1.158899,-0.1061268 1.917933,0.559568 v 0 l 0.07,-0.1868651 c 0,0 -0.500671,-0.6671879 -2.060554,-0.5262459 v 0 c 0,0 0.629105,-0.3128727 1.862024,-1.108682 v 0 c 0,0 0.186865,-0.490497 -0.256871,-1.0043289 v 0 c 0,0 -0.675775,0.2382948 -1.605153,1.2584914 v 0 c 0,0 0.805424,-1.0717198 1.406621,-1.7109994 v 0 c 0,0 -0.82913,-0.9220038 -1.946868,-0.92219047 v 0 c -0.267414,0 -0.551167,0.0527366 -0.844251,0.1835047"
       style="fill:#973f0a;fill-opacity:1;stroke:none;stroke-width:0.0933392"
       id="path9814" />
    <path
       d="m 10.914516,2.8772852 c 0,0 0.932831,0.2065597 1.63222,0.8973625 v 0 c 0,0 -0.175758,-0.91435 -1.344084,-0.9144434 v 0 c -0.09007,0 -0.18593,0.00541 -0.288136,0.017082"
       style="fill:url(#linearGradient9856);stroke:none;stroke-width:0.0933392"
       id="path9858" />
    <path
       d="M 0.66326652,0.9300447 C 1.772602,1.4555439 2.0697936,2.6410441 2.0697936,2.6410441 v 0 C 1.4559023,1.4470501 0.4647343,1.3825527 0.4647343,1.3825527 v 0 C 0.02090661,1.8963846 0.20777176,2.3868816 0.20777176,2.3868816 v 0 C 1.5858305,2.2000167 2.0697936,3.4955636 2.0697936,3.4955636 v 0 C 0.51000371,3.3546216 0.00923928,4.0218095 0.00923928,4.0218095 v 0 L 0.07933693,4.2086746 C 0.83837068,3.5429798 1.9971758,3.6491066 1.9971758,3.6491066 v 0 L 3.3417259,2.9350623 C 3.8597581,1.4279155 3.4542928,0.19135893 3.4542928,0.19135893 v 0 C 3.1612081,0.06059083 2.8775504,0.00785423 2.6101339,0.00785423 v 0 C 1.4923979,0.0080409 0.66326652,0.9300447 0.66326652,0.9300447"
       style="fill:#973f0a;fill-opacity:1;stroke:none;stroke-width:0.0933392"
       id="path9922" />
    <path
       d="M 1.9581601,3.7746477 C 2.6577367,3.0838449 3.5905678,2.8772852 3.5905678,2.8772852 v 0 C 3.4882682,2.8656171 3.3925023,2.8602037 3.3024299,2.8602037 v 0 c -1.168419,9.34e-5 -1.3442698,0.9144434 -1.3442698,0.9144434"
       style="fill:url(#linearGradient9964);stroke:none;stroke-width:0.0933392"
       id="path9966" />
    <path
       d="m 0.66324588,0.93000777 0.0596437,0.50692473 c 0,0 0.90146932,0.2025459 1.49529272,1.5221743 0,0 -0.1127538,-1.5444823 -1.55493642,-2.02909903"
       style="fill:#7c290a;fill-opacity:1;fill-rule:evenodd;stroke:none;stroke-width:0.0933392"
       id="path13244" />
    <path
       d="m 6.468773,7.1539713 c 0,0 0.2511756,-1.5125605 0.6795087,-1.8844233 C 7.5767083,4.8976848 8.6773633,4.7224873 8.6773633,4.7224873 L 8.4878849,5.0377867 c 0,0 -1.0630392,0.5488342 -2.0191119,2.1161846"
       style="opacity:0.679993;fill:#6b290a;fill-opacity:1;fill-rule:evenodd;stroke:none;stroke-width:0.0933392"
       id="path13234" />
    <path
       d="m 3.9512303,7.5062521 c 0,0 -0.00644,-1.1488176 0.308859,-2.0480467 0.3152997,-0.899229 2.6494308,-1.7866976 2.6494308,-1.7866976 0,0 -1.2843462,0.6637345 -2.1039568,1.9144787 0,0 -0.6842691,1.0019955 -0.854333,1.9202656"
       style="opacity:0.679993;fill:#6b290a;fill-opacity:1;fill-rule:evenodd;stroke:none;stroke-width:0.0933392"
       id="path13300" />
    <path
       d="m 4.8305034,7.0816805 c 0,0 1.0675194,-3.3685154 4.1315627,-3.5645275 0,0 -2.8488031,0.4232929 -4.1315627,3.5645275"
       style="opacity:0.679993;fill:#7c290a;fill-opacity:1;fill-rule:evenodd;stroke:none;stroke-width:0.0933392"
       id="path13322" />
    <path
       d="M 10.269262,0.63518642 C 11.33846,1.219116 11.019336,2.905007 11.019336,2.905007 v 0 L 11.182584,2.867671 C 11.693616,1.0011691 10.472835,0.36655645 10.472835,0.36655645 v 0 z"
       style="fill:#7c290a;fill-opacity:1;stroke:none;stroke-width:0.0933392"
       id="path13384" />
    <path
       d="M 6.9582527,5.5220398 5.6861339,5.5888707 6.1410688,5.0704652 7.2287495,5.2072071 Z"
       style="fill:#ffd6bd;fill-opacity:1;fill-rule:evenodd;stroke:none;stroke-width:0.0933392"
       id="path13402" />
    <path
       d="m 5.5925333,5.5888522 -0.7872222,0.035749 c 0,0 0.3970647,-0.4147058 1.1506849,-0.513832 z"
       style="fill:#ffd6bd;fill-opacity:1;fill-rule:evenodd;stroke:none;stroke-width:0.0933392"
       id="path13418" />
    <path
       d="m 4.1959093,5.6596777 c 0,0 -0.4561483,0.1373952 -0.9682067,0.5985838 L 3.339243,5.8947989 c 0,0 0.4813498,-0.607731 1.1726193,-0.8242777 0,0 -0.1277813,0.180331 -0.2130933,0.2971917 C 4.213364,5.4844801 4.1959093,5.6596777 4.1959093,5.6596777"
       style="fill:#ffd6bd;fill-opacity:1;fill-rule:evenodd;stroke:none;stroke-width:0.0933392"
       id="path13434" />
    <path
       d="M 8.1491478,5.7840054 8.7998148,6.0624359 9.0638711,5.7167078 8.2627416,5.6643447 Z"
       style="fill:#ffd6bd;fill-opacity:1;fill-rule:evenodd;stroke:none;stroke-width:0.0933392"
       id="path13450" />
    <path
       d="m 1.6482274,1.5982408 c 0,0 1.1211896,-0.4930172 1.9570414,-0.1339417 l -0.014655,-0.446721 c 0,0 -0.4613751,0.05255 -1.1279098,0.1927453 -0.6667214,0.140102 -1.3550974,-0.075978 -1.3550974,-0.075978 0,0 0.3671962,0.227094 0.5406202,0.4638954"
       style="fill:#ffd6bd;fill-opacity:1;fill-rule:evenodd;stroke:none;stroke-width:0.0933392"
       id="path13466" />
    <path
       d="m 11.307642,1.1665007 c 0,0 0.154104,0.2970984 0.401264,0.4316934 0.247068,0.1346883 1.271093,0.099686 1.271093,0.099686 l 0.330607,-0.1616634 -0.463243,0.5720755 c 0,0 -0.77462,-0.2702168 -1.066585,-0.3227667 -0.291965,-0.052643 -0.446535,0 -0.446535,0 z"
       style="fill:#ffd6bd;fill-opacity:1;fill-rule:evenodd;stroke:none;stroke-width:0.0933392"
       id="path13482" />
  </g>
</svg>
