<?xml version="1.0" encoding="UTF-8" standalone="no"?>
<!-- Created with Inkscape (http://www.inkscape.org/) -->

<svg
   width="43.358383mm"
   height="30.482117mm"
   viewBox="0 0 43.358383 30.482117"
   version="1.1"
   id="svg27696"
   inkscape:version="1.1 (c4e8f9e, 2021-05-24)"
   sodipodi:docname="hair.svg"
   xmlns:inkscape="http://www.inkscape.org/namespaces/inkscape"
   xmlns:sodipodi="http://sodipodi.sourceforge.net/DTD/sodipodi-0.dtd"
   xmlns="http://www.w3.org/2000/svg"
   xmlns:svg="http://www.w3.org/2000/svg">
  <sodipodi:namedview
     id="namedview27698"
     pagecolor="#ffffff"
     bordercolor="#999999"
     borderopacity="1"
     inkscape:pageshadow="0"
     inkscape:pageopacity="0"
     inkscape:pagecheckerboard="0"
     inkscape:document-units="mm"
     showgrid="false"
     inkscape:zoom="0.67081229"
     inkscape:cx="-2.98146"
     inkscape:cy="-83.48088"
     inkscape:window-width="799"
     inkscape:window-height="486"
     inkscape:window-x="0"
     inkscape:window-y="25"
     inkscape:window-maximized="0"
     inkscape:current-layer="layer1" />
  <defs
     id="defs27693">
    <clipPath
       clipPathUnits="userSpaceOnUse"
       id="clipPath3436">
      <path
         d="M 0,500 H 1000 V 0 H 0 Z"
         id="path3434" />
    </clipPath>
    <clipPath
       clipPathUnits="userSpaceOnUse"
       id="clipPath3444">
      <path
         d="m 255.672,415.696 h 24.217 v -43.019 h -24.217 z"
         id="path3442" />
    </clipPath>
  </defs>
  <g
     inkscape:label="Layer 1"
     inkscape:groupmode="layer"
     id="layer1"
     transform="translate(-105.71922,-170.53185)">
    <g
       id="gr_hair"
       inkscape:label="group hair"
       transform="translate(35.346571,101.73094)">
      <g
         id="g596"
         transform="matrix(0.35277777,0,0,-0.35277777,13.430432,222.94892)"
         style="fill:#460c0c;fill-opacity:1">
        <g
           id="g598"
           style="fill:#460c0c;fill-opacity:1">
          <g
             id="g604"
             style="fill:#460c0c;fill-opacity:1">
            <g
               id="g606"
               style="fill:#460c0c;fill-opacity:1">
              <path
                 d="m 186.176,412.291 c -11.794,-8.574 -20.221,-1.761 -24.765,-19.559 v 0 c 0.292,0.32 5.099,5.546 14.957,10.781 v 0 c -0.536,-0.398 -9.128,-6.86 -9.342,-14.119 v 0 c 0,0 1.518,-22.157 5.293,-34.738 v 0 l 2.93,-4.107 c 0,0 -3.037,25.203 1.39,35.401 v 0 c 0,0 4.301,10.45 11.308,15.248 v 0 c 0,0 -1.1,-6.023 -0.243,-13.896 v 0 l 7.249,11.064 c 0,0 0.496,-4.399 1.235,-6.627 v 0 c 0,0 8.107,12.777 25.689,18.304 v 0 c 0,0 0.118,-3.192 4.049,-12.164 v 0 c 0,0 -0.088,7.59 1.752,11.608 v 0 0.01 c 0.301,0.672 0.661,1.236 1.079,1.654 v 0 c 0,0 13.321,1.431 21.612,1.44 v 0 c 0,0 -0.389,-16.57 21.777,-28.188 v 0 c 0,0 -13.156,11.015 -13.185,23.217 v 0 c 0,0 6.967,-12.835 13.185,-23.217 v 0 c 1.022,-1.694 2.005,-3.31 2.949,-4.808 v 0 c 0,0 2.306,-16.415 0.457,-28.393 v 0 l 1.936,1.935 c 0,0 3.124,24.892 3.961,38.904 v 0 c 0,0 -2.054,17.759 -25.777,23.656 v 0 c 0,0 21.019,2.578 28.638,-16.961 v 0 c 0,0 1.236,25.056 -29.99,18.672 v 0 c 0,0 -17.389,12.855 -30.108,18.566 v 0 c -1.5,0.675 -3.011,0.981 -4.529,0.981 v 0 c -11.358,-10e-4 -23.096,-17.102 -33.507,-24.664"
                 style="fill:#460c0c;fill-opacity:1;stroke:none"
                 id="path618" />
            </g>
          </g>
        </g>
      </g>
      <g
         id="g3382"
         transform="matrix(0.35277777,0,0,-0.35277777,13.430432,222.94892)"
         style="fill:#620c0c;fill-opacity:1">
        <g
           id="g3384"
           style="fill:#620c0c;fill-opacity:1">
          <g
             id="g3390"
             style="fill:#620c0c;fill-opacity:1">
            <g
               id="g3392"
               style="fill:#620c0c;fill-opacity:1">
              <path
                 d="m 209.506,426.022 c -13.598,-7.129 -13.321,-34.278 -13.321,-34.278 v 0 c 0,0 7.929,20.757 23.149,27.093 v 0 c 15.219,6.336 32.346,-2.961 32.346,-2.961 v 0 c 0,0 -19.637,11.871 -34.101,11.871 v 0 c -2.983,0 -5.748,-0.506 -8.073,-1.725"
                 style="fill:#620c0c;fill-opacity:1;stroke:none"
                 id="path3404" />
            </g>
          </g>
        </g>
      </g>
      <g
         id="g3406"
         transform="matrix(0.35277777,0,0,-0.35277777,13.430432,222.94892)"
         style="fill:#620c0c;fill-opacity:1">
        <g
           id="g3408"
           style="fill:#620c0c;fill-opacity:1">
          <g
             id="g3414"
             style="fill:#620c0c;fill-opacity:1">
            <g
               id="g3416"
               style="fill:#620c0c;fill-opacity:1">
              <path
                 d="m 193.112,418.279 c 0,0 14.947,14.891 29.751,13.591 v 0 c 14.805,-1.3 31.457,-14.462 31.457,-14.462 v 0 c 0,0 -24.334,19.418 -34.043,19.546 v 0 c -0.033,10e-4 -0.067,10e-4 -0.101,10e-4 v 0 c -9.73,0.001 -27.064,-18.676 -27.064,-18.676"
                 style="fill:#620c0c;fill-opacity:1;stroke:none"
                 id="path3428" />
            </g>
          </g>
        </g>
      </g>
      <g
         id="g3430"
         transform="matrix(0.35277777,0,0,-0.35277777,13.430432,222.94892)"
         style="fill:#620c0c;fill-opacity:1">
        <g
           id="g3432"
           clip-path="url(#clipPath3436)"
           style="fill:#620c0c;fill-opacity:1">
          <g
             id="g3438"
             style="fill:#620c0c;fill-opacity:1">
            <g
               id="g3440"
               style="fill:#620c0c;fill-opacity:1" />
            <g
               id="g3472"
               style="fill:#620c0c;fill-opacity:1">
              <g
                 clip-path="url(#clipPath3444)"
                 opacity="0.5"
                 id="g3470"
                 style="fill:#620c0c;fill-opacity:1">
                <g
                   id="g3468"
                   style="fill:#620c0c;fill-opacity:1">
                  <g
                     id="g3466"
                     style="fill:#620c0c;fill-opacity:1">
                    <g
                       id="g3464"
                       style="fill:#620c0c;fill-opacity:1">
                      <g
                         id="g3462"
                         style="fill:#620c0c;fill-opacity:1">
                        <path
                           d="m 255.672,415.696 c 0,0 8.265,-7.369 14.602,-17.852 6.337,-10.483 9.615,-25.167 9.615,-25.167 0,0 0.006,12.725 -3.777,21.278 -5.263,11.901 -20.44,21.741 -20.44,21.741"
                           style="fill:#620c0c;fill-opacity:1;fill-rule:evenodd;stroke:none"
                           id="path3460" />
                      </g>
                    </g>
                  </g>
                </g>
              </g>
            </g>
          </g>
        </g>
      </g>
    </g>
  </g>
</svg>
