<svg viewBox="0 0 5.0239697 3.5320456" xmlns="http://www.w3.org/2000/svg">
  <g id="gr_hair" transform="matrix(0.09333912,0,0,-0.09333912,0.54255076,48.537858)" style="fill:#461111;fill-opacity:1">
    <path
       d="m 5, 509.198 c -5.165,-3.754 -8.855,-0.771 -10.846,-8.565 v 0 c 0.128,0.14 2.233,2.429 6.55,4.721 v 0 c -0.235,-0.174 -3.996,-3.004 -4.09,-6.183 v 0 c 0,0 0.664,-9.703 2.317,-15.213 v 0 l 1.284,-1.799 c 0,0 -1.33,11.038 0.608,15.504 v 0 c 0,0 1.884,4.576 4.952,6.677 v 0 c 0,0 -0.482,-2.638 -0.106,-6.085 v 0 l 3.174,4.845 c 0,0 0.218,-1.926 0.542,-2.902 v 0 c 0,0 3.55,5.595 11.25,8.016 v 0 c 0,0 0.05,-1.398 1.772,-5.327 v 0 c 0,0 -0.038,3.324 0.768,5.084 v 0 0.004 c 0.132,0.294 0.289,0.541 0.472,0.725 v 0 c 0,0 5.834,0.626 9.465,0.63 v 0 c 0,0 -0.17,-7.257 9.537,-12.345 v 0 c 0,0 -5.762,4.824 -5.774,10.168 v 0 c 0,0 3.051,-5.621 5.774,-10.168 v 0 c 0.447,-0.741 0.877,-1.449 1.291,-2.105 v 0 c 0,0 1.01,-7.189 0.2,-12.434 v 0 l 0.849,0.847 c 0,0 1.367,10.901 1.734,17.037 v 0 c 0,0 -0.9,7.777 -11.288,10.359 v 0 c 0,0 9.204,1.13 12.541,-7.426 v 0 c 0,0 0.541,10.972 -13.134,8.176 v 0 c 0,0 -7.615,5.63 -13.185,8.132 v 0 c -0.657,0.295 -1.318,0.429 -1.983,0.429 v 0 c -4.974,-0.001 -10.115,-7.49 -14.674,-10.802"
       id="path962" />
  </g>
</svg>
