<svg viewBox="0 0 13.08 12.85" xmlns="http://www.w3.org/2000/svg">
  <defs>
    <linearGradient id="bn" x2="1" gradientTransform="matrix(0 -11.71 11.71 0 6.547 12.85)" gradientUnits="userSpaceOnUse">
      <stop stop-color="#ff9b86" offset="0"/>
      <stop stop-color="#ff9b86" offset=".03352"/>
      <stop stop-color="#ffa670" offset=".3253"/>
      <stop stop-color="#ffa670" offset=".9532"/>
      <stop stop-color="#ffa670" offset="1"/>
    </linearGradient>
    <linearGradient id="bm" x2="1" gradientTransform="matrix(0 -5.096 5.096 0 6.428 6.561)" gradientUnits="userSpaceOnUse">
      <stop stop-color="#fff" offset="0"/>
      <stop stop-color="#ca00a4" offset=".9944"/>
      <stop stop-color="#ca00a4" offset="1"/>
    </linearGradient>
    <linearGradient id="bl" x2="1" gradientTransform="matrix(0 -3.104 3.104 0 12.02 10.52)" gradientUnits="userSpaceOnUse">
      <stop stop-color="#ff9b86" offset="0"/>
      <stop stop-color="#ff9b86" offset=".03352"/>
      <stop stop-color="#ffa670" offset=".9532"/>
      <stop stop-color="#ffa670" offset="1"/>
    </linearGradient>
    <linearGradient id="bk" x2="1" gradientTransform="matrix(.8745 -1.514 1.514 .8745 11.58 9.782)" gradientUnits="userSpaceOnUse">
      <stop stop-color="#fff" offset="0"/>
      <stop stop-color="#ca00a4" offset=".9944"/>
      <stop stop-color="#ca00a4" offset="1"/>
    </linearGradient>
    <linearGradient id="bj" x2="1" gradientTransform="matrix(.5927 -1.026 1.026 .5927 11.38 9.684)" gradientUnits="userSpaceOnUse">
      <stop stop-color="#fff" offset="0"/>
      <stop stop-color="#ca00a4" offset=".9944"/>
      <stop stop-color="#ca00a4" offset="1"/>
    </linearGradient>
    <linearGradient id="bi" x2="1" gradientTransform="matrix(.5205 -.9018 .9018 .5205 11.37 10.57)" gradientUnits="userSpaceOnUse">
      <stop stop-color="#ca00a4" offset="0"/>
      <stop stop-color="#ca00a4" offset=".005587"/>
      <stop stop-color="#fff" offset="1"/>
    </linearGradient>
    <linearGradient id="bh" x2="1" gradientTransform="matrix(0 -3.104 -3.104 0 1.052 10.52)" gradientUnits="userSpaceOnUse">
      <stop stop-color="#ff9b86" offset="0"/>
      <stop stop-color="#ff9b86" offset=".03352"/>
      <stop stop-color="#ffa670" offset=".9532"/>
      <stop stop-color="#ffa670" offset="1"/>
    </linearGradient>
    <linearGradient id="bg" x2="1" gradientTransform="matrix(-.8745 -1.514 -1.514 .8745 1.494 9.782)" gradientUnits="userSpaceOnUse">
      <stop stop-color="#fff" offset="0"/>
      <stop stop-color="#ca00a4" offset=".9944"/>
      <stop stop-color="#ca00a4" offset="1"/>
    </linearGradient>
    <linearGradient id="bf" x2="1" gradientTransform="matrix(-.5927 -1.026 -1.026 .5927 1.697 9.684)" gradientUnits="userSpaceOnUse">
      <stop stop-color="#fff" offset="0"/>
      <stop stop-color="#ca00a4" offset=".9944"/>
      <stop stop-color="#ca00a4" offset="1"/>
    </linearGradient>
    <linearGradient id="be" x2="1" gradientTransform="matrix(-.5205 -.9018 -.9018 .5205 1.711 10.57)" gradientUnits="userSpaceOnUse">
      <stop stop-color="#ca00a4" offset="0"/>
      <stop stop-color="#ca00a4" offset=".005587"/>
      <stop stop-color="#fff" offset="1"/>
    </linearGradient>
    <linearGradient id="bb" x2="1" gradientTransform="matrix(0 -8.065 8.065 0 6.262 8.067)" gradientUnits="userSpaceOnUse">
      <stop stop-color="#b8312c" offset="0"/>
      <stop stop-color="#b8312c" offset=".03352"/>
      <stop stop-color="#ef5c45" offset=".9532"/>
      <stop stop-color="#ef5c45" offset="1"/>
    </linearGradient>
    <linearGradient id="ba" x2="1" gradientTransform="matrix(2.665 0 0 2.665 7.754 7.689)" gradientUnits="userSpaceOnUse">
      <stop stop-color="#fff" offset="0"/>
      <stop stop-color="#ca00a4" offset=".9944"/>
      <stop stop-color="#ca00a4" offset="1"/>
    </linearGradient>
    <linearGradient id="az" x2="1" gradientTransform="matrix(2.805 0 0 2.805 7.907 9.186)" gradientUnits="userSpaceOnUse">
      <stop stop-color="#fff" offset="0"/>
      <stop stop-color="#ca00a4" offset=".9944"/>
      <stop stop-color="#ca00a4" offset="1"/>
    </linearGradient>
    <linearGradient id="ay" x2="1" gradientTransform="matrix(0 -1.773 1.773 0 9.167 8.464)" gradientUnits="userSpaceOnUse">
      <stop stop-color="#64003c" offset="0"/>
      <stop stop-color="#a6252f" offset="1"/>
    </linearGradient>
    <radialGradient id="g" cx="23814" cy="14046" r="3480" gradientTransform="matrix(.2768 0 0 .2529 -2.653 -.0007027)">
      <stop stop-color="#fff0eb" offset="0"/>
      <stop stop-color="#fff0eb" offset=".03352"/>
      <stop stop-color="#ffe7e9" offset=".9773"/>
      <stop stop-color="#ffe7e9" offset="1"/>
    </radialGradient>
    <linearGradient id="ax" x2="1" gradientTransform="matrix(0 -1.574 1.574 0 8.844 9.353)" gradientUnits="userSpaceOnUse">
      <stop stop-color="#8c7c4c" offset="0"/>
      <stop stop-color="#8c7c4c" offset=".01599"/>
      <stop stop-color="#514c4e" offset="1"/>
    </linearGradient>
    <linearGradient id="ar" x2="1" gradientTransform="matrix(-2.665 0 0 2.665 5.288 7.689)" gradientUnits="userSpaceOnUse">
      <stop stop-color="#fff" offset="0"/>
      <stop stop-color="#ca00a4" offset=".9944"/>
      <stop stop-color="#ca00a4" offset="1"/>
    </linearGradient>
    <linearGradient id="aq" x2="1" gradientTransform="matrix(-2.805 0 0 2.805 5.142 9.186)" gradientUnits="userSpaceOnUse">
      <stop stop-color="#fff" offset="0"/>
      <stop stop-color="#ca00a4" offset=".9944"/>
      <stop stop-color="#ca00a4" offset="1"/>
    </linearGradient>
    <linearGradient id="ap" x2="1" gradientTransform="matrix(0 -1.773 -1.773 0 3.875 8.464)" gradientUnits="userSpaceOnUse">
      <stop stop-color="#64003c" offset="0"/>
      <stop stop-color="#a6252f" offset="1"/>
    </linearGradient>
    <radialGradient id="f" cx="16881" cy="14048" r="3481" gradientTransform="matrix(.2768 0 0 .2529 -2.653 -.0007027)">
      <stop stop-color="#fff0eb" offset="0"/>
      <stop stop-color="#fff0eb" offset=".03352"/>
      <stop stop-color="#ffe7e9" offset=".9773"/>
      <stop stop-color="#ffe7e9" offset="1"/>
    </radialGradient>
    <linearGradient id="ao" x2="1" gradientTransform="matrix(0 -1.574 -1.574 0 4.195 9.353)" gradientUnits="userSpaceOnUse">
      <stop stop-color="#8c7c4c" offset="0"/>
      <stop stop-color="#8c7c4c" offset=".01599"/>
      <stop stop-color="#514c4e" offset="1"/>
    </linearGradient>
    <linearGradient id="an" x2="1" gradientTransform="matrix(0 -.6925 .6925 0 6.547 10.62)" gradientUnits="userSpaceOnUse">
      <stop stop-color="#ca00a4" offset="0"/>
      <stop stop-color="#ca00a4" offset=".005587"/>
      <stop stop-color="#ffd3c4" offset="1"/>
    </linearGradient>
    <linearGradient id="am" x2="1" gradientTransform="matrix(0 -.6022 .6022 0 5.539 10.24)" gradientUnits="userSpaceOnUse">
      <stop stop-color="#ffc2b3" offset="0"/>
      <stop stop-color="#ca00a4" offset=".9944"/>
      <stop stop-color="#ca00a4" offset="1"/>
    </linearGradient>
    <linearGradient id="al" x2="1" gradientTransform="matrix(0 -.6022 .6022 0 7.55 10.24)" gradientUnits="userSpaceOnUse">
      <stop stop-color="#ffc2b3" offset="0"/>
      <stop stop-color="#ca00a4" offset=".9944"/>
      <stop stop-color="#ca00a4" offset="1"/>
    </linearGradient>
    <linearGradient id="ak" x2="1" gradientTransform="matrix(0 -1.437 1.437 0 6.764 12.22)" gradientUnits="userSpaceOnUse">
      <stop stop-color="#ce3e41" offset="0"/>
      <stop stop-color="#64003c" offset="1"/>
    </linearGradient>
    <radialGradient id="e" cx="1045" cy="3008" r="79.16" gradientTransform="matrix(.4842 0 0 .1446 -2.653 -.0007027)">
      <stop stop-color="#fff0eb" offset="0"/>
      <stop stop-color="#fff0eb" offset=".03352"/>
      <stop stop-color="#ffe7e9" offset=".9773"/>
      <stop stop-color="#ffe7e9" offset="1"/>
    </radialGradient>
    <linearGradient id="aj" x2="1" gradientTransform="matrix(.408 0 0 .408 7.78 10.89)" gradientUnits="userSpaceOnUse">
      <stop stop-color="#ca00a4" offset="0"/>
      <stop stop-color="#ca00a4" offset=".005587"/>
      <stop stop-color="#fff" offset="1"/>
    </linearGradient>
    <linearGradient id="ai" x2="1" gradientTransform="matrix(0 -3.614 3.614 0 4.057 4.635)" gradientUnits="userSpaceOnUse">
      <stop stop-color="#950079" offset="0"/>
      <stop stop-color="#950079" offset=".005587"/>
      <stop stop-color="#fff" offset="1"/>
    </linearGradient>
    <linearGradient id="ah" x2="1" gradientTransform="matrix(0 -2.792 2.792 0 2.676 4.984)" gradientUnits="userSpaceOnUse">
      <stop stop-color="#950079" offset="0"/>
      <stop stop-color="#950079" offset=".005587"/>
      <stop stop-color="#fff" offset="1"/>
    </linearGradient>
    <linearGradient id="ag" x2="1" gradientTransform="matrix(0 -3.165 3.165 0 10.24 5.357)" gradientUnits="userSpaceOnUse">
      <stop stop-color="#950079" offset="0"/>
      <stop stop-color="#950079" offset=".005587"/>
      <stop stop-color="#fff" offset="1"/>
    </linearGradient>
    <linearGradient id="af" x2="1" gradientTransform="matrix(0 -3.278 3.278 0 11.08 6.315)" gradientUnits="userSpaceOnUse">
      <stop stop-color="#950079" offset="0"/>
      <stop stop-color="#950079" offset=".005587"/>
      <stop stop-color="#fff" offset="1"/>
    </linearGradient>
    <linearGradient id="ae" x2="1" gradientTransform="matrix(3.895 0 0 3.895 5.126 1.243)" gradientUnits="userSpaceOnUse">
      <stop stop-color="#fff" offset="0"/>
      <stop stop-color="#950079" offset=".9944"/>
      <stop stop-color="#950079" offset="1"/>
    </linearGradient>
    <linearGradient id="v" x2="1" gradientTransform="matrix(0 -3.36 3.36 0 6.367 4.222)" gradientUnits="userSpaceOnUse">
      <stop stop-color="#cf312c" offset="0"/>
      <stop stop-color="#cf312c" offset=".03352"/>
      <stop stop-color="#ff7a45" offset=".9532"/>
      <stop stop-color="#ff7a45" offset="1"/>
    </linearGradient>
    <linearGradient id="u" x2="1" gradientTransform="matrix(5.713 0 0 5.713 3.489 .9122)" gradientUnits="userSpaceOnUse">
      <stop stop-color="#fc702c" offset="0"/>
      <stop stop-color="#fc702c" offset=".03352"/>
      <stop stop-color="#ff9045" offset=".9532"/>
      <stop stop-color="#ff9045" offset="1"/>
    </linearGradient>
    <linearGradient id="t" x2="1" gradientTransform="matrix(2.261 0 0 2.261 9.328 3.993)" gradientUnits="userSpaceOnUse">
      <stop stop-color="#fc702c" offset="0"/>
      <stop stop-color="#fc702c" offset=".03352"/>
      <stop stop-color="#ff9045" offset=".9532"/>
      <stop stop-color="#ff9045" offset="1"/>
    </linearGradient>
    <linearGradient id="s" x2="1" gradientTransform="matrix(0 -2.098 2.098 0 8.929 7.219)" gradientUnits="userSpaceOnUse">
      <stop stop-color="#fff" offset="0"/>
      <stop stop-color="#fff" offset=".2514"/>
      <stop stop-color="#ca00a4" offset=".9944"/>
      <stop stop-color="#ca00a4" offset="1"/>
    </linearGradient>
    <linearGradient id="r" x2="1" gradientTransform="matrix(0 -2.098 -2.098 0 3.881 7.219)" gradientUnits="userSpaceOnUse">
      <stop stop-color="#fff" offset="0"/>
      <stop stop-color="#fff" offset=".2514"/>
      <stop stop-color="#ca00a4" offset=".9944"/>
      <stop stop-color="#ca00a4" offset="1"/>
    </linearGradient>
    <linearGradient id="q" x2="1" gradientTransform="matrix(0 -.9465 .9465 0 8.958 5.762)" gradientUnits="userSpaceOnUse">
      <stop stop-color="#ff9845" offset="0"/>
      <stop stop-color="#ff9845" offset=".0468"/>
      <stop stop-color="#d64f2c" offset=".9665"/>
      <stop stop-color="#d64f2c" offset="1"/>
    </linearGradient>
    <linearGradient id="p" x2="1" gradientTransform="matrix(0 -.4998 .4998 0 8.683 5.482)" gradientUnits="userSpaceOnUse">
      <stop stop-color="#fff" offset="0"/>
      <stop stop-color="#ca00a4" offset=".9944"/>
      <stop stop-color="#ca00a4" offset="1"/>
    </linearGradient>
    <linearGradient id="o" x2="1" gradientTransform="matrix(0 -.3305 .3305 0 9.027 5.469)" gradientUnits="userSpaceOnUse">
      <stop stop-color="#fff" offset="0"/>
      <stop stop-color="#ca00a4" offset=".9944"/>
      <stop stop-color="#ca00a4" offset="1"/>
    </linearGradient>
    <linearGradient id="n" x2="1" gradientTransform="matrix(0 -.9465 -.9465 0 3.84 5.762)" gradientUnits="userSpaceOnUse">
      <stop stop-color="#ff9845" offset="0"/>
      <stop stop-color="#ff9845" offset=".0468"/>
      <stop stop-color="#d64f2c" offset=".9665"/>
      <stop stop-color="#d64f2c" offset="1"/>
    </linearGradient>
    <linearGradient id="m" x2="1" gradientTransform="matrix(0 -.5001 -.5001 0 4.105 5.484)" gradientUnits="userSpaceOnUse">
      <stop stop-color="#fff" offset="0"/>
      <stop stop-color="#ca00a4" offset=".9944"/>
      <stop stop-color="#ca00a4" offset="1"/>
    </linearGradient>
    <linearGradient id="l" x2="1" gradientTransform="matrix(0 -.3305 -.3305 0 3.761 5.469)" gradientUnits="userSpaceOnUse">
      <stop stop-color="#fff" offset="0"/>
      <stop stop-color="#ca00a4" offset=".9944"/>
      <stop stop-color="#ca00a4" offset="1"/>
    </linearGradient>
  </defs>

  <path d="m1.684 4.13c-0.376 1.316 0.06544 5.176 0.6311 6.551 0 0 0 0.0011 9.261e-4 0.0011 0.05546 0.1362 0.1126 0.2479 0.1708 0.3305 0.5004 0.7142 2.018 1.45 3.183 1.724l0.00458 0.0011c0.3297 0.07806 0.6313 0.1181 0.8729 0.1108 0.2425 0.0073 0.5451-0.03276 0.8766-0.1117h0.00185c1.166-0.2741 2.683-1.01 3.183-1.724 0.04723-0.06721 0.09359-0.1535 0.1399-0.2571v-7.94e-4c0.5813-1.307 1.047-5.287 0.6631-6.626-0.4125-1.446-3.556-2.937-4.866-2.982-1.308 0.04546-4.451 1.537-4.863 2.982" fill="url(#bn)" style="fill:url(#bn);stroke-width:.07001"/>
  <path d="m1.724 6.561s1.072-2.913 4.824-2.913c3.752 0 4.649 2.259 4.649 2.259l-0.05975-2.018s-1.831-2.251-3.514-2.411c-1.683-0.1596-4.138 1.24-4.138 1.24l-1.089 0.7575-0.7359 1.159z" fill="url(#bm)" opacity=".3" style="fill:url(#bm);stroke-width:.07001"/>
  <path d="m11.37 7.829-0.3935 2.161s0.01569 0.3821 0.2056 0.4816c0.1901 0.09962 0.9081 0.1157 1.487-0.6626 0.5792-0.7785 0.549-2.128-0.1026-2.345-0.1026-0.03416-0.2024-0.04853-0.2979-0.04853-0.5117 0-0.8988 0.4128-0.8988 0.4128" fill="url(#bl)" style="fill:url(#bl);stroke-width:.07001"/>
  <path d="m11.25 8.781s0.436-0.5738 1.01-0.5623c0.5738 0.01148 0.7316 1.303-0.0688 1.801 0 0 0.3471-0.2036 0.3212-0.7975-0.02576-0.5938-0.3447-0.7575-0.5165-0.654-0.1719 0.1033 0.1895 0.3356 0.1552 0.7575-0.03445 0.4217-0.3357 0.5679-0.5422 0.4819-0.2065-0.08605 0.09466-0.6303 0.01717-0.8402-0.07736-0.2098-0.3758-0.1334-0.3758-0.1334z" fill="url(#bk)" opacity=".3" style="fill-rule:evenodd;fill:url(#bk);stroke-width:.07001"/>
  <path d="m11.25 8.781s0.2209-0.251 0.4618-0.2381c0.2411 0.01297 0.4025 0.3835 0.44 0.7617 0.03753 0.3784-0.4654 0.6645-0.5775 0.4806-0.1121-0.184 0.1202-0.6121 0.05134-0.8178-0.0688-0.2055-0.3758-0.1334-0.3758-0.1334z" fill="url(#bj)" opacity=".3" style="fill-rule:evenodd;fill:url(#bj);stroke-width:.07001"/>
  <path d="m10.98 10.09 0.07274-0.3612s0.074 0.5878 0.4561 0.654c0.5123 0.08885 0.9746-0.3643 0.9746-0.3643s-0.3662 0.3932-0.7778 0.4669c-0.4119 0.07386-0.6648 0.05181-0.7253-0.3954" fill="url(#bi)" opacity=".5" style="fill-rule:evenodd;fill:url(#bi);stroke-width:.07001"/>
  <path d="m0.5145 7.456c-0.6517 0.2172-0.6816 1.567-0.1026 2.345 0.5792 0.7785 1.297 0.7623 1.487 0.6626 0.1899-0.09949 0.2058-0.4816 0.2058-0.4816l-0.3935-2.161s-0.3871-0.4128-0.8988-0.4128c-0.09557 0-0.1955 0.01437-0.2979 0.04853" fill="url(#bh)" style="fill:url(#bh);stroke-width:.07001"/>
  <path d="m1.823 8.781s-0.436-0.5738-1.01-0.5623c-0.5736 0.01148-0.7316 1.303 0.06889 1.801 0 0-0.3471-0.2036-0.3213-0.7975 0.02576-0.5938 0.3447-0.7575 0.5166-0.654 0.1719 0.1033-0.1896 0.3356-0.1551 0.7575 0.03445 0.4217 0.3356 0.5679 0.5422 0.4819 0.2065-0.08605-0.09473-0.6303-0.01727-0.8402 0.07746-0.2098 0.3758-0.1334 0.3758-0.1334z" fill="url(#bg)" opacity=".3" style="fill-rule:evenodd;fill:url(#bg);stroke-width:.07001"/>
  <path d="m1.823 8.781s-0.2209-0.251-0.4618-0.2381c-0.2409 0.01297-0.4025 0.3835-0.44 0.7617-0.03753 0.3784 0.4654 0.6645 0.5775 0.4806 0.1122-0.184-0.1201-0.6121-0.05134-0.8178 0.0688-0.2055 0.3758-0.1334 0.3758-0.1334z" fill="url(#bf)" opacity=".3" style="fill-rule:evenodd;fill:url(#bf);stroke-width:.07001"/>
  <path d="m2.096 10.09-0.07274-0.3612s-0.074 0.5878-0.456 0.654c-0.5124 0.08885-0.9746-0.3643-0.9746-0.3643s0.3663 0.3932 0.7778 0.4669c0.4117 0.07386 0.6648 0.05181 0.7253-0.3954" fill="url(#be)" opacity=".5" style="fill-rule:evenodd;fill:url(#be);stroke-width:.07001"/>
  <path d="m2.838 2.303c-1.101 0.8002-1.887 0.1644-2.312 1.826 0.02725-0.02987 0.476-0.5178 1.396-1.006-0.05004 0.03715-0.852 0.6403-0.8724 1.318 0 0 0.1417 2.068 0.494 3.244l0.2736 0.3834s-0.2834-2.352 0.1297-3.305c0 0 0.4014-0.9753 1.056-1.423 0 0-0.1027 0.5623-0.02268 1.297l0.6766-1.033s0.0463 0.4107 0.1153 0.6186c0 0 0.7568-1.193 2.398-1.709 0 0 0.01101 0.2979 0.3778 1.136 0 0-0.0082-0.7086 0.1635-1.084v-9.261e-4c0.0281-0.06274 0.0617-0.1154 0.1007-0.1544 0 0 1.243-0.1336 2.018-0.1344 0 0-0.0363 1.547 2.033 2.631 0 0-1.228-1.029-1.231-2.167 0 0 0.6504 1.198 1.231 2.167 0.09541 0.1582 0.1871 0.3091 0.2752 0.4488 0 0 0.2153 1.533 0.04265 2.651l0.1807-0.1806s0.2916-2.324 0.3696-3.63c0 0-0.1918-1.658-2.406-2.208 0 0 1.962-0.2406 2.672 1.583 0 0 0.1154-2.339-2.799-1.743 0 0-1.624-1.2-2.81-1.733-0.14-0.063-0.281-0.09158-0.4228-0.09158-1.06 9.102e-5 -2.156 1.596-3.128 2.303" fill="url(#bb)" style="fill:url(#bb);stroke-width:.07001"/>
  <path d="m7.78 8.752s-0.2733-1.668 1.01-2.058c1.266-0.3847 1.629 1.086 1.629 1.086z" fill="url(#ba)" opacity=".5" style="fill:url(#ba);stroke-width:.07001"/>
  <path d="m7.907 9.326s0.06832 0.1535 1.142 0.02847c1.073-0.1251 1.446-0.1997 1.663-0.15l-0.3183-0.2394z" fill="url(#az)" opacity=".3" style="fill:url(#az);stroke-width:.07001"/>
  <path d="m9.154 6.728c-1.358 0.2762-1.359 1.738-1.359 1.738l2.672-0.3284c0.2092-0.3654 0.01222-1.444-0.9856-1.444-0.101 0-0.2102 0.01111-0.3281 0.03501" fill="url(#ay)" style="fill:url(#ay);stroke-width:.07001"/>
  <path d="m7.907 9.326c0.03622 0.04919 0.1865 0.05218 0.4067 0.02858 0.3165-0.03342 0.7798-0.1209 1.262-0.1994 0.2683-0.04424 0.5422-0.08652 0.7996-0.115 0 0 0.5567-1.984-0.9695-2.125-0.05432-0.00495-0.1068-0.00738-0.158-0.00738-1.467 2.091e-4 -1.646 2.004-1.34 2.418" fill="url(#g)" style="fill:url(#g);stroke-width:.07001"/>
  <path d="m7.971 8.66c0 0.2829 0.1336 0.5342 0.3419 0.6956 0.3165-0.03342 0.7798-0.1209 1.262-0.1994 0.09626-0.1415 0.1534-0.3125 0.1534-0.4961 0-0.4853-0.3932-0.8787-0.8787-0.8787-0.4845 0-0.8787 0.3929-0.8787 0.8787" fill="url(#ax)" style="fill:url(#ax);stroke-width:.07001"/>
  <path d="m9.391 8.662c0 0.302-0.2448 0.5469-0.5469 0.5469s-0.5469-0.2448-0.5469-0.5469c0-0.3021 0.2448-0.5469 0.5469-0.5469s0.5469 0.2448 0.5469 0.5469" fill="#a16595" opacity=".68" style="stroke-width:.07001"/>
  <path d="m7.781 8.9s0.2296 0.4231 0.4708 0.4631c0 0-0.2765 0.04341-0.3447-0.03454-0.06824-0.07793-0.1262-0.4286-0.1262-0.4286" fill="#e56595" opacity=".8" style="stroke-width:.07001"/>
  <path d="m9.804 8.242c0 0.1002-0.08122 0.1814-0.1814 0.1814-0.1003 0-0.1814-0.08122-0.1814-0.1814 0-0.1002 0.08114-0.1814 0.1814-0.1814 0.1002 0 0.1814 0.08122 0.1814 0.1814" fill="#fff" style="stroke-width:.07001"/>
  <path d="m5.267 8.752s0.2733-1.668-1.01-2.058c-1.266-0.3847-1.629 1.086-1.629 1.086z" fill="url(#ar)" opacity=".5" style="fill:url(#ar);stroke-width:.07001"/>
  <path d="m5.142 9.326s-0.06832 0.1535-1.142 0.02847c-1.073-0.1251-1.446-0.1997-1.663-0.15l0.3183-0.2394z" fill="url(#aq)" opacity=".3" style="fill:url(#aq);stroke-width:.07001"/>
  <path d="m2.573 8.136 2.672 0.3284s-2.098e-4 -1.462-1.359-1.738c-0.1178-0.02389-0.227-0.03501-0.3281-0.03501-0.9983 0-1.195 1.079-0.9856 1.444" fill="url(#ap)" style="fill:url(#ap);stroke-width:.07001"/>
  <path d="m3.642 6.919c-1.527 0.1411-0.9695 2.125-0.9695 2.125 0.2574 0.02847 0.5313 0.07078 0.7996 0.115 0.4813 0.07848 0.9452 0.166 1.262 0.1994 0.2201 0.0236 0.3704 0.02064 0.4067-0.02858 0.3056-0.4138 0.1271-2.418-1.34-2.418-0.05115 0-0.1036 0.00238-0.1579 0.00738" fill="url(#f)" style="fill:url(#f);stroke-width:.07001"/>
  <path d="m3.314 8.66c0 0.1837 0.05713 0.3546 0.1534 0.4961 0.4813 0.07848 0.9452 0.166 1.262 0.1994 0.2083-0.1612 0.3419-0.4125 0.3419-0.6956 0-0.4853-0.394-0.8787-0.8787-0.8787-0.4853 0-0.8787 0.3929-0.8787 0.8787" fill="url(#ao)" style="fill:url(#ao);stroke-width:.07001"/>
  <path d="m3.65 8.662c0 0.302 0.2448 0.5469 0.5469 0.5469 0.302 0 0.5469-0.2448 0.5469-0.5469 0-0.3021-0.2448-0.5469-0.5469-0.5469-0.3021 0-0.5469 0.2448-0.5469 0.5469" fill="#a16595" opacity=".68" style="stroke-width:.07001"/>
  <path d="m5.267 8.9s-0.2296 0.4231-0.4708 0.4631c0 0 0.2765 0.04341 0.3447-0.03454 0.06814-0.07793 0.1261-0.4286 0.1261-0.4286" fill="#e56595" opacity=".8" style="stroke-width:.07001"/>
  <path d="m3.244 8.242c0 0.1002 0.08122 0.1814 0.1814 0.1814 0.1003 0 0.1815-0.08122 0.1815-0.1814 0-0.1002-0.08122-0.1814-0.1815-0.1814-0.1002 0-0.1814 0.08122-0.1814 0.1814" fill="#fff" style="stroke-width:.07001"/>
  <path d="m5.505 10.24s0.08269 0.1546 0.3337 0.1905l0.06133-5.29e-4s-0.1838-0.1165-0.07358-0.1409c0.1103-0.02456 0.2143 0.1775 0.3061 0.2388 0.09184 0.06126 0.4165 0.09184 0.4165 0.09184s0.3247-0.03061 0.4165-0.09184c0.09184-0.06123 0.196-0.2633 0.3061-0.2388 0.1103 0.02445-0.07345 0.1409-0.07345 0.1409l0.06123 5.29e-4c0.2511-0.03593 0.3337-0.1905 0.3337-0.1905-0.6903-0.4062-1.376-0.4279-2.088 0" fill="url(#an)" opacity=".4" style="fill:url(#an);stroke-width:.07001"/>
  <path d="m6.003 9.817c0.03389 0.1206 0.4-0.01727 0.7673 0.06478 0.3672 0.08199 0.4143 0.1439 0.4503 0.1341 0.03613-0.0099-0.2451-0.65-0.6419-0.6402-0.3968 0.0098-0.5848 0.4089-0.5757 0.4414" fill="#ffd6bd" style="stroke-width:.07001"/>
  <path d="m7.039 10.46s0.2431-0.07666 0.2661-0.1257c0.02306-0.0491 0.02586-0.06441 0.02586-0.06441s-0.168-0.0309-0.292 0.1902" fill="#ac6595" opacity=".8" style="stroke-width:.07001"/>
  <path d="m5.821 10.36s0.1151 0.08339 0.2639 0.1184c0 0-0.1239-0.2023-0.2185-0.2128-0.09459-0.01045-0.1101 0.04173-0.04537 0.09438" fill="#ac6595" opacity=".8" style="stroke-width:.07001"/>
  <path d="m5.505 10.24s-0.1836-0.3816 0.1262-0.6022c0 0-0.2352 0.2209-0.1262 0.6022" fill="url(#am)" opacity=".3" style="fill:url(#am);stroke-width:.07001"/>
  <path d="m7.593 10.24s0.1205-0.4218-0.1148-0.6022c0 0 0.1607 0.1979 0.1148 0.6022" fill="url(#al)" opacity=".3" style="fill:url(#al);stroke-width:.07001"/>
  <path d="m6.584 11.1c-0.3514 0.04863-0.5729 0.01233-0.7261-0.024-0.138-0.03268-0.2209-0.06533-0.2937-0.03622-0.2226 0.08906 0.38 1.315 1.233 1.181 0.8528-0.1336 1.364-1.379 1.18-1.424-0.00812-0.0021-0.0181-3e-3 -0.02969-3e-3 -0.1759 0-0.7359 0.2193-1.362 0.3061" fill="url(#ak)" style="fill:url(#ak);stroke-width:.07001"/>
  <path d="m6.143 11.12s0.2754 0.2181 0.6673 0.1862c0.3919-0.03173 0.6673-0.3953 0.6673-0.3953s-0.7142 0.2334-1.334 0.2092" fill="url(#e)" style="fill:url(#e);stroke-width:.07001"/>
  <path d="m6.002 11.84s0.3596 0.3781 0.8073 0.2805c0.4477-0.09753 0.7533-0.5453 0.7533-0.5453s-0.7679-0.1059-1.561 0.2646" fill="#ff9f92" fill-rule="evenodd" style="stroke-width:.07001"/>
  <path d="m7.78 10.71s0.3122 0.05946 0.3919 0.3985c0 0 0.1377-0.5406-0.3919-0.3985" fill="url(#aj)" fill-rule="evenodd" opacity=".68" style="fill:url(#aj);stroke-width:.07001"/>
  <path d="m8.831 2.275c-0.7737 8.467e-4 -2.018 0.1344-2.018 0.1344-0.039 0.03903-0.07261 0.09179-0.1008 0.1544 0.001852-0.03091 0.04361-0.7763 0.2871-1.012 0.2498-0.2408 1.493 0.1462 1.831 0.7232" fill="#d16595" opacity=".68" style="stroke-width:.07001"/>
  <path d="m6.172 2.512c-0.0688-0.5565 0-0.9261 0-0.9261s-1.796 0.4419-2.398 2.634c0 0 0.8465-1.238 2.398-1.708" fill="#d16595" opacity=".68" style="stroke-width:.07001"/>
  <path d="m3.658 3.603s0.4882-1.755 1.472-2.581c0 0-2.015 1.189-2.149 3.614z" fill="url(#ai)" opacity=".4" style="fill:url(#ai);stroke-width:.07001"/>
  <path d="m3.007 3.339s0.2069-0.8031 0.4821-1.147c0 0-1.483 0.7324-1.615 2.792 0 0 0.1077-0.92 1.133-1.646" fill="url(#ah)" opacity=".4" style="fill:url(#ah);stroke-width:.07001"/>
  <path d="m9.635 2.738-0.2858-0.5475s1.697 1.018 1.792 3.165z" fill="url(#ag)" opacity=".4" style="fill:url(#ag);stroke-width:.07001"/>
  <path d="m10.49 3.04s0.8015 0.2651 1.181 1.944l-0.1367 1.334s0.3117-2.228-1.045-3.278" fill="url(#af)" opacity=".4" style="fill:url(#af);stroke-width:.07001"/>
  <path d="m0.5277 4.127s0.2319-0.8814 0.8708-1.088c0.639-0.2066 1.181-0.2639 1.181-0.2639l-0.6562 0.3456s-0.8674 0.5342-1.396 1.006" fill="#d16595" opacity=".68" style="fill-rule:evenodd;stroke-width:.07001"/>
  <path d="m5.126 1.021s1.216-1.026 3.895 1c0 0-2.94-2.686-3.895-1" fill="url(#ae)" opacity=".4" style="fill-rule:evenodd;fill:url(#ae);stroke-width:.07001"/>
  <path d="m5.015 1.021c-1.269 0.6655-1.243 3.199-1.243 3.199s0.7401-1.938 2.161-2.529c1.42-0.5914 3.019 0.2765 3.019 0.2765s-1.833-1.108-3.183-1.108c-0.2784 0-0.5366 0.04723-0.7533 0.161" fill="url(#v)" style="fill:url(#v);stroke-width:.07001"/>
  <path d="m3.489 1.743s1.395-1.39 2.778-1.268c1.382 0.1213 2.937 1.35 2.937 1.35s-2.272-1.813-3.178-1.824c-0.003069-9.102e-5 -0.006245-9.102e-5 -0.00942-9.102e-5 -0.9081-9.102e-5 -2.527 1.743-2.527 1.743" fill="url(#u)" style="fill:url(#u);stroke-width:.07001"/>
  <path d="m9.328 1.985s0.7715 0.6879 1.363 1.666c0.5915 0.9788 0.8976 2.35 0.8976 2.35s5.6e-4 -1.188-0.3526-1.986c-0.4913-1.111-1.908-2.03-1.908-2.03" fill="url(#t)" opacity=".5" style="fill-rule:evenodd;fill:url(#t);stroke-width:.07001"/>
  <path d="m7.697 5.511s-0.2178 0.8465-0.2179 1.707h2.764s0.3223-0.6427-0.03342-1.457c0 0-1.526-1.257-2.513-0.2496" fill="url(#s)" opacity=".2" style="fill-rule:evenodd;fill:url(#s);stroke-width:.07001"/>
  <path d="m5.113 5.511s0.2178 0.8465 0.2179 1.707h-2.764s-0.3223-0.6427 0.03342-1.457c0 0 1.526-1.257 2.513-0.2496" fill="url(#r)" opacity=".2" style="fill-rule:evenodd;fill:url(#r);stroke-width:.07001"/>
  <path d="m7.696 5.511 0.129-0.01717 0.2411-0.2065-0.1378 0.1978s0.2495-0.04302 0.9639 0.00868c0.7142 0.05162 1.317 0.2667 1.317 0.2667s-0.7057-0.9465-1.36-0.9465-1.153 0.697-1.153 0.697" fill="url(#q)" style="fill:url(#q);stroke-width:.07001"/>
  <path d="m7.929 5.482s0.7134-0.6689 1.514-0.4593c0 0-0.6533-0.1086-1.514 0.4593" fill="url(#p)" fill-rule="evenodd" opacity=".3" style="fill:url(#p);stroke-width:.07001"/>
  <path d="m8.138 5.469s1.037-0.5453 1.581-0.2352l0.196 0.1853s-0.5721-0.3263-1.777 0.04985" fill="url(#o)" fill-rule="evenodd" opacity=".3" style="fill:url(#o);stroke-width:.07001"/>
  <path d="m2.578 5.762s0.6022-0.2151 1.317-0.2667c0.7142-0.0517 0.9639-0.00868 0.9639-0.00868l-0.1376-0.1978 0.2408 0.2065 0.1291 0.01717s-0.499-0.697-1.153-0.697c-0.6538 0-1.36 0.9465-1.36 0.9465" fill="url(#n)" style="fill:url(#n);stroke-width:.07001"/>
  <path d="m4.862 5.484s-0.7128-0.6692-1.514-0.4593c0 0 0.6536-0.1087 1.514 0.4593" fill="url(#m)" opacity=".3" style="fill-rule:evenodd;fill:url(#m);stroke-width:.07001"/>
  <path d="m4.65 5.469s-1.037-0.5453-1.581-0.2352l-0.196 0.1853s0.5721-0.3263 1.777 0.04985" fill="url(#l)" opacity=".3" style="fill-rule:evenodd;fill:url(#l);stroke-width:.07001"/>
  <path d="m5.555 11.31s0.4072 1.182 1.325 1.04c0.9179-0.1415 1.094-1.271 1.094-1.271s-0.3101 1.061-1.21 1.118c-0.8996 0.05705-1.21-0.8869-1.21-0.8869" fill="#ff5f56" style="fill-rule:evenodd;stroke-width:.07001"/>
  <path d="m5.632 11.03c0.2982 0.06282 0.657-0.1476 1.129-0.1538 0.4726-0.0063 0.9915-0.04697 0.9915-0.04697s-0.3591 0.1625-1.061 0.2815c-0.7015 0.1191-1.061-0.08086-1.061-0.08086" fill="#ff4f56" style="fill-rule:evenodd;stroke-width:.07001"/>
</svg>
