<svg viewBox="0 0 13.08 12.85" xmlns="http://www.w3.org/2000/svg">
  <defs>
    <linearGradient id="bn" x2="1" gradientTransform="matrix(0,-44.24,44.24,0,34.77,48.56)" gradientUnits="userSpaceOnUse">
      <stop stop-color="#ff9b86" offset="0"/>
      <stop stop-color="#ff9b86" offset=".03352"/>
      <stop stop-color="#ffa670" offset=".3253"/>
      <stop stop-color="#ffa670" offset=".9532"/>
      <stop stop-color="#ffa670" offset="1"/>
    </linearGradient>
    <linearGradient id="bm" x2="1" gradientTransform="matrix(0,-19.26,19.26,0,34.32,24.8)" gradientUnits="userSpaceOnUse">
      <stop stop-color="#fff" offset="0"/>
      <stop stop-color="#ca00a4" offset=".9944"/>
      <stop stop-color="#ca00a4" offset="1"/>
    </linearGradient>
    <linearGradient id="bl" x2="1" gradientTransform="matrix(0,-11.73,11.73,0,55.46,39.75)" gradientUnits="userSpaceOnUse">
      <stop stop-color="#ff9b86" offset="0"/>
      <stop stop-color="#ff9b86" offset=".03352"/>
      <stop stop-color="#ffa670" offset=".9532"/>
      <stop stop-color="#ffa670" offset="1"/>
    </linearGradient>
    <linearGradient id="bk" x2="1" gradientTransform="matrix(12.49,-21.63,21.63,12.49,312.9,179.9)" gradientUnits="userSpaceOnUse">
      <stop stop-color="#fff" offset="0"/>
      <stop stop-color="#ca00a4" offset=".9944"/>
      <stop stop-color="#ca00a4" offset="1"/>
    </linearGradient>
    <linearGradient id="bj" x2="1" gradientTransform="matrix(8.465,-14.66,14.66,8.465,310.1,178.5)" gradientUnits="userSpaceOnUse">
      <stop stop-color="#fff" offset="0"/>
      <stop stop-color="#ca00a4" offset=".9944"/>
      <stop stop-color="#ca00a4" offset="1"/>
    </linearGradient>
    <linearGradient id="bi" x2="1" gradientTransform="matrix(7.434,-12.88,12.88,7.434,309.9,191.2)" gradientUnits="userSpaceOnUse">
      <stop stop-color="#ca00a4" offset="0"/>
      <stop stop-color="#ca00a4" offset=".005587"/>
      <stop stop-color="#fff" offset="1"/>
    </linearGradient>
    <linearGradient id="bh" x2="1" gradientTransform="matrix(0,-11.73,-11.73,0,14,39.75)" gradientUnits="userSpaceOnUse">
      <stop stop-color="#ff9b86" offset="0"/>
      <stop stop-color="#ff9b86" offset=".03352"/>
      <stop stop-color="#ffa670" offset=".9532"/>
      <stop stop-color="#ffa670" offset="1"/>
    </linearGradient>
    <linearGradient id="bg" x2="1" gradientTransform="matrix(-12.49,-21.63,-21.63,12.49,168.9,179.9)" gradientUnits="userSpaceOnUse">
      <stop stop-color="#fff" offset="0"/>
      <stop stop-color="#ca00a4" offset=".9944"/>
      <stop stop-color="#ca00a4" offset="1"/>
    </linearGradient>
    <linearGradient id="bf" x2="1" gradientTransform="matrix(-8.465,-14.66,-14.66,8.465,171.8,178.5)" gradientUnits="userSpaceOnUse">
      <stop stop-color="#fff" offset="0"/>
      <stop stop-color="#ca00a4" offset=".9944"/>
      <stop stop-color="#ca00a4" offset="1"/>
    </linearGradient>
    <linearGradient id="be" x2="1" gradientTransform="matrix(-7.434,-12.88,-12.88,7.434,172,191.2)" gradientUnits="userSpaceOnUse">
      <stop stop-color="#ca00a4" offset="0"/>
      <stop stop-color="#ca00a4" offset=".005587"/>
      <stop stop-color="#fff" offset="1"/>
    </linearGradient>
    <linearGradient id="bb" x2="1" gradientTransform="matrix(0,-30.48,30.48,0,33.69,30.49)" gradientUnits="userSpaceOnUse">
      <stop stop-color="#b8312c" offset="0"/>
      <stop stop-color="#b8312c" offset=".03352"/>
      <stop stop-color="#ef5c45" offset=".9532"/>
      <stop stop-color="#ef5c45" offset="1"/>
    </linearGradient>
    <linearGradient id="ba" x2="1" gradientTransform="matrix(10.07,0,0,10.07,39.33,29.06)" gradientUnits="userSpaceOnUse">
      <stop stop-color="#fff" offset="0"/>
      <stop stop-color="#ca00a4" offset=".9944"/>
      <stop stop-color="#ca00a4" offset="1"/>
    </linearGradient>
    <linearGradient id="az" x2="1" gradientTransform="matrix(10.6,0,0,10.6,39.91,34.72)" gradientUnits="userSpaceOnUse">
      <stop stop-color="#fff" offset="0"/>
      <stop stop-color="#ca00a4" offset=".9944"/>
      <stop stop-color="#ca00a4" offset="1"/>
    </linearGradient>
    <linearGradient id="ay" x2="1" gradientTransform="matrix(0,-6.699,6.699,0,44.67,31.99)" gradientUnits="userSpaceOnUse">
      <stop stop-color="#64003c" offset="0"/>
      <stop stop-color="#a6252f" offset="1"/>
    </linearGradient>
    <radialGradient id="g" cx="2444" cy="1441" r="357.7" gradientTransform="scale(1.046 .956)">
      <stop stop-color="#fff0eb" offset="0"/>
      <stop stop-color="#fff0eb" offset=".03352"/>
      <stop stop-color="#ffe7e9" offset=".9773"/>
      <stop stop-color="#ffe7e9" offset="1"/>
    </radialGradient>
    <linearGradient id="ax" x2="1" gradientTransform="matrix(0,-5.948,5.948,0,43.45,35.35)" gradientUnits="userSpaceOnUse">
      <stop stop-color="#8c7c4c" offset="0"/>
      <stop stop-color="#8c7c4c" offset=".01599"/>
      <stop stop-color="#514c4e" offset="1"/>
    </linearGradient>
    <linearGradient id="ar" x2="1" gradientTransform="matrix(-10.07,0,0,10.07,30.01,29.06)" gradientUnits="userSpaceOnUse">
      <stop stop-color="#fff" offset="0"/>
      <stop stop-color="#ca00a4" offset=".9944"/>
      <stop stop-color="#ca00a4" offset="1"/>
    </linearGradient>
    <linearGradient id="aq" x2="1" gradientTransform="matrix(-10.6,0,0,10.6,29.46,34.72)" gradientUnits="userSpaceOnUse">
      <stop stop-color="#fff" offset="0"/>
      <stop stop-color="#ca00a4" offset=".9944"/>
      <stop stop-color="#ca00a4" offset="1"/>
    </linearGradient>
    <linearGradient id="ap" x2="1" gradientTransform="matrix(0,-6.699,-6.699,0,24.67,31.99)" gradientUnits="userSpaceOnUse">
      <stop stop-color="#64003c" offset="0"/>
      <stop stop-color="#a6252f" offset="1"/>
    </linearGradient>
    <radialGradient id="f" cx="1733" cy="1441" r="357.8" gradientTransform="scale(1.046 .9559)">
      <stop stop-color="#fff0eb" offset="0"/>
      <stop stop-color="#fff0eb" offset=".03352"/>
      <stop stop-color="#ffe7e9" offset=".9773"/>
      <stop stop-color="#ffe7e9" offset="1"/>
    </radialGradient>
    <linearGradient id="ao" x2="1" gradientTransform="matrix(0,-5.948,-5.948,0,25.88,35.35)" gradientUnits="userSpaceOnUse">
      <stop stop-color="#8c7c4c" offset="0"/>
      <stop stop-color="#8c7c4c" offset=".01599"/>
      <stop stop-color="#514c4e" offset="1"/>
    </linearGradient>
    <linearGradient id="an" x2="1" gradientTransform="matrix(0,-2.617,2.617,0,34.77,40.12)" gradientUnits="userSpaceOnUse">
      <stop stop-color="#ca00a4" offset="0"/>
      <stop stop-color="#ca00a4" offset=".005587"/>
      <stop stop-color="#ffd3c4" offset="1"/>
    </linearGradient>
    <linearGradient id="am" x2="1" gradientTransform="matrix(0,-2.276,2.276,0,30.96,38.69)" gradientUnits="userSpaceOnUse">
      <stop stop-color="#ffc2b3" offset="0"/>
      <stop stop-color="#ca00a4" offset=".9944"/>
      <stop stop-color="#ca00a4" offset="1"/>
    </linearGradient>
    <linearGradient id="al" x2="1" gradientTransform="matrix(0,-2.276,2.276,0,38.56,38.69)" gradientUnits="userSpaceOnUse">
      <stop stop-color="#ffc2b3" offset="0"/>
      <stop stop-color="#ca00a4" offset=".9944"/>
      <stop stop-color="#ca00a4" offset="1"/>
    </linearGradient>
    <linearGradient id="ak" x2="1" gradientTransform="matrix(0,-5.432,5.432,0,35.59,46.2)" gradientUnits="userSpaceOnUse">
      <stop stop-color="#ce3e41" offset="0"/>
      <stop stop-color="#64003c" offset="1"/>
    </linearGradient>
    <radialGradient id="e" cx="372.6" cy="1064" r="28.72" gradientTransform="scale(1.83 .5464)">
      <stop stop-color="#fff0eb" offset="0"/>
      <stop stop-color="#fff0eb" offset=".03352"/>
      <stop stop-color="#ffe7e9" offset=".9773"/>
      <stop stop-color="#ffe7e9" offset="1"/>
    </radialGradient>
    <linearGradient id="aj" x2="1" gradientTransform="matrix(1.542,0,0,1.542,39.43,41.17)" gradientUnits="userSpaceOnUse">
      <stop stop-color="#ca00a4" offset="0"/>
      <stop stop-color="#ca00a4" offset=".005587"/>
      <stop stop-color="#fff" offset="1"/>
    </linearGradient>
    <linearGradient id="ai" x2="1" gradientTransform="matrix(0,-13.66,13.66,0,25.36,17.52)" gradientUnits="userSpaceOnUse">
      <stop stop-color="#950079" offset="0"/>
      <stop stop-color="#950079" offset=".005587"/>
      <stop stop-color="#fff" offset="1"/>
    </linearGradient>
    <linearGradient id="ah" x2="1" gradientTransform="matrix(0,-10.55,10.55,0,20.14,18.84)" gradientUnits="userSpaceOnUse">
      <stop stop-color="#950079" offset="0"/>
      <stop stop-color="#950079" offset=".005587"/>
      <stop stop-color="#fff" offset="1"/>
    </linearGradient>
    <linearGradient id="ag" x2="1" gradientTransform="matrix(0,-11.96,11.96,0,48.74,20.25)" gradientUnits="userSpaceOnUse">
      <stop stop-color="#950079" offset="0"/>
      <stop stop-color="#950079" offset=".005587"/>
      <stop stop-color="#fff" offset="1"/>
    </linearGradient>
    <linearGradient id="af" x2="1" gradientTransform="matrix(0,-12.39,12.39,0,51.89,23.87)" gradientUnits="userSpaceOnUse">
      <stop stop-color="#950079" offset="0"/>
      <stop stop-color="#950079" offset=".005587"/>
      <stop stop-color="#fff" offset="1"/>
    </linearGradient>
    <linearGradient id="ae" x2="1" gradientTransform="matrix(14.72,0,0,14.72,29.4,4.699)" gradientUnits="userSpaceOnUse">
      <stop stop-color="#fff" offset="0"/>
      <stop stop-color="#950079" offset=".9944"/>
      <stop stop-color="#950079" offset="1"/>
    </linearGradient>
    <linearGradient id="v" x2="1" gradientTransform="matrix(0,-12.7,12.7,0,34.09,15.96)" gradientUnits="userSpaceOnUse">
      <stop stop-color="#cf312c" offset="0"/>
      <stop stop-color="#cf312c" offset=".03352"/>
      <stop stop-color="#ff7a45" offset=".9532"/>
      <stop stop-color="#ff7a45" offset="1"/>
    </linearGradient>
    <linearGradient id="u" x2="1" gradientTransform="matrix(21.59,0,0,21.59,23.21,3.45)" gradientUnits="userSpaceOnUse">
      <stop stop-color="#fc702c" offset="0"/>
      <stop stop-color="#fc702c" offset=".03352"/>
      <stop stop-color="#ff9045" offset=".9532"/>
      <stop stop-color="#ff9045" offset="1"/>
    </linearGradient>
    <linearGradient id="t" x2="1" gradientTransform="matrix(32.29,0,0,32.29,280.8,97.22)" gradientUnits="userSpaceOnUse">
      <stop stop-color="#fc702c" offset="0"/>
      <stop stop-color="#fc702c" offset=".03352"/>
      <stop stop-color="#ff9045" offset=".9532"/>
      <stop stop-color="#ff9045" offset="1"/>
    </linearGradient>
    <linearGradient id="s" x2="1" gradientTransform="matrix(0,-29.96,29.96,0,275.1,143.3)" gradientUnits="userSpaceOnUse">
      <stop stop-color="#fff" offset="0"/>
      <stop stop-color="#fff" offset=".2514"/>
      <stop stop-color="#ca00a4" offset=".9944"/>
      <stop stop-color="#ca00a4" offset="1"/>
    </linearGradient>
    <linearGradient id="r" x2="1" gradientTransform="matrix(0,-29.96,-29.96,0,203,143.3)" gradientUnits="userSpaceOnUse">
      <stop stop-color="#fff" offset="0"/>
      <stop stop-color="#fff" offset=".2514"/>
      <stop stop-color="#ca00a4" offset=".9944"/>
      <stop stop-color="#ca00a4" offset="1"/>
    </linearGradient>
    <linearGradient id="q" x2="1" gradientTransform="matrix(0,-3.577,3.577,0,43.88,21.78)" gradientUnits="userSpaceOnUse">
      <stop stop-color="#ff9845" offset="0"/>
      <stop stop-color="#ff9845" offset=".0468"/>
      <stop stop-color="#d64f2c" offset=".9665"/>
      <stop stop-color="#d64f2c" offset="1"/>
    </linearGradient>
    <linearGradient id="p" x2="1" gradientTransform="matrix(0,-1.889,1.889,0,42.84,20.72)" gradientUnits="userSpaceOnUse">
      <stop stop-color="#fff" offset="0"/>
      <stop stop-color="#ca00a4" offset=".9944"/>
      <stop stop-color="#ca00a4" offset="1"/>
    </linearGradient>
    <linearGradient id="o" x2="1" gradientTransform="matrix(0,-1.249,1.249,0,44.14,20.67)" gradientUnits="userSpaceOnUse">
      <stop stop-color="#fff" offset="0"/>
      <stop stop-color="#ca00a4" offset=".9944"/>
      <stop stop-color="#ca00a4" offset="1"/>
    </linearGradient>
    <linearGradient id="n" x2="1" gradientTransform="matrix(0,-3.577,-3.577,0,24.54,21.78)" gradientUnits="userSpaceOnUse">
      <stop stop-color="#ff9845" offset="0"/>
      <stop stop-color="#ff9845" offset=".0468"/>
      <stop stop-color="#d64f2c" offset=".9665"/>
      <stop stop-color="#d64f2c" offset="1"/>
    </linearGradient>
    <linearGradient id="m" x2="1" gradientTransform="matrix(0,-1.89,-1.89,0,25.54,20.73)" gradientUnits="userSpaceOnUse">
      <stop stop-color="#fff" offset="0"/>
      <stop stop-color="#ca00a4" offset=".9944"/>
      <stop stop-color="#ca00a4" offset="1"/>
    </linearGradient>
    <linearGradient id="l" x2="1" gradientTransform="matrix(0,-1.249,-1.249,0,24.24,20.67)" gradientUnits="userSpaceOnUse">
      <stop stop-color="#fff" offset="0"/>
      <stop stop-color="#ca00a4" offset=".9944"/>
      <stop stop-color="#ca00a4" offset="1"/>
    </linearGradient>
  </defs>
  <g transform="translate(-.005802 -.0003101)">
    <g id="gr_head" class="covered pointer-cursor" transform="matrix(.2646 0 0 .2646 -2.647 -.0003926)">
      <path d="m16.39 15.61c-1.421 4.972 0.2473 19.56 2.385 24.76 0 0 0 4e-3 0.0035 4e-3 0.2096 0.5146 0.4257 0.9369 0.6456 1.249 1.891 2.699 7.628 5.48 12.03 6.517l0.0173 4e-3c1.246 0.295 2.386 0.4464 3.299 0.4188 0.9163 0.0275 2.06-0.1238 3.313-0.4223h7e-3c4.405-1.036 10.14-3.818 12.03-6.517 0.1785-0.254 0.3537-0.58 0.5289-0.9716v-3e-3c2.197-4.94 3.956-19.98 2.506-25.04-1.559-5.466-13.44-11.1-18.39-11.27-4.942 0.1718-16.82 5.808-18.38 11.27" fill="url(#bn)" style="fill:url(#bn);stroke-width:.2646"/>
      <path d="m16.54 24.8s4.051-11.01 18.23-11.01c14.18 0 17.57 8.538 17.57 8.538l-0.2258-7.628s-6.921-8.506-13.28-9.11c-6.361-0.6032-15.64 4.686-15.64 4.686l-4.114 2.863-2.781 4.379z" fill="url(#bm)" opacity=".3" style="fill:url(#bm);stroke-width:.2646"/>
      <path d="m52.98 29.59-1.487 8.168s0.0593 1.444 0.7771 1.82c0.7183 0.3765 3.432 0.4373 5.62-2.504 2.189-2.942 2.075-8.041-0.3876-8.861-0.3876-0.1291-0.7649-0.1834-1.126-0.1834-1.934 0-3.397 1.56-3.397 1.56" fill="url(#bl)" style="fill:url(#bl);stroke-width:.2646"/>
      <g transform="matrix(.2646 0 0 .2646 -29.02 -10.63)" fill-rule="evenodd">
        <path d="m308.3 165.6s6.228-8.195 14.42-8.031c8.195 0.164 10.45 18.61-0.9827 25.73 0 0 4.957-2.908 4.588-11.39-0.368-8.481-4.923-10.82-7.377-9.341-2.455 1.475 2.707 4.793 2.216 10.82-0.492 6.023-4.795 8.112-7.744 6.883s1.352-9.003 0.2453-12c-1.105-2.996-5.367-1.905-5.367-1.905z" fill="url(#bk)" opacity=".3" style="fill:url(#bk)"/>
        <path d="m308.3 165.6s3.155-3.585 6.596-3.401c3.443 0.1853 5.749 5.477 6.285 10.88 0.536 5.404-6.647 9.491-8.248 6.864-1.601-2.628 1.717-8.743 0.7333-11.68-0.9827-2.935-5.367-1.905-5.367-1.905z" fill="url(#bj)" opacity=".3" style="fill:url(#bj)"/>
        <path d="m304.4 184.3 1.039-5.159s1.057 8.395 6.515 9.341c7.317 1.269 13.92-5.204 13.92-5.204s-5.231 5.616-11.11 6.669c-5.883 1.055-9.496 0.74-10.36-5.648" fill="url(#bi)" opacity=".5" style="fill:url(#bi)"/>
      </g>
      <path d="m11.97 28.18c-2.463 0.821-2.576 5.921-0.3876 8.861 2.189 2.942 4.903 2.881 5.62 2.504 0.7178-0.376 0.7776-1.82 0.7776-1.82l-1.487-8.168s-1.463-1.56-3.397-1.56c-0.3612 0-0.7387 0.0543-1.126 0.1834" fill="url(#bh)" style="fill:url(#bh);stroke-width:.2646"/>
      <g transform="matrix(.2646 0 0 .2646 -29.02 -10.63)" fill-rule="evenodd">
        <path d="m173.6 165.6s-6.227-8.195-14.42-8.031-10.45 18.61 0.984 25.73c0 0-4.957-2.908-4.589-11.39 0.368-8.481 4.923-10.82 7.379-9.341 2.455 1.475-2.708 4.793-2.216 10.82 0.492 6.023 4.793 8.112 7.744 6.883 2.949-1.229-1.353-9.003-0.2467-12s5.367-1.905 5.367-1.905z" fill="url(#bg)" opacity=".3" style="fill:url(#bg)"/>
        <path d="m173.6 165.6s-3.155-3.585-6.596-3.401c-3.441 0.1853-5.749 5.477-6.285 10.88-0.536 5.404 6.647 9.491 8.248 6.864 1.603-2.628-1.716-8.743-0.7333-11.68 0.9827-2.935 5.367-1.905 5.367-1.905z" fill="url(#bf)" opacity=".3" style="fill:url(#bf)"/>
        <path d="m177.5 184.3-1.039-5.159s-1.057 8.395-6.513 9.341c-7.319 1.269-13.92-5.204-13.92-5.204s5.232 5.616 11.11 6.669c5.881 1.055 9.495 0.74 10.36-5.648" fill="url(#be)" opacity=".5" style="fill:url(#be)"/>
      </g>
      <path d="m20.75 8.705c-4.162 3.024-7.133 0.6212-8.737 6.9 0.103-0.1129 1.799-1.957 5.276-3.802-0.1891 0.1404-3.22 2.42-3.297 4.982 0 0 0.5355 7.816 1.867 12.26l1.034 1.449s-1.071-8.89 0.4903-12.49c0 0 1.517-3.686 3.99-5.379 0 0-0.3881 2.125-0.08572 4.903l2.557-3.903s0.175 1.552 0.4358 2.338c0 0 2.86-4.508 9.062-6.458 0 0 0.0416 1.126 1.428 4.292 0 0-0.031-2.678 0.6181-4.096v-0.0035c0.1062-0.2371 0.2332-0.436 0.3807-0.5834 0 0 4.699-0.5048 7.625-0.508 0 0-0.1372 5.845 7.683 9.943 0 0-4.641-3.887-4.651-8.191 0 0 2.458 4.527 4.651 8.191 0.3606 0.5977 0.7072 1.168 1.04 1.696 0 0 0.8136 5.792 0.1612 10.02l0.6829-0.6826s1.102-8.782 1.397-13.72c0 0-0.7247-6.265-9.094-8.345 0 0 7.416-0.9094 10.1 5.982 0 0 0.436-8.84-10.58-6.588 0 0-6.136-4.535-10.62-6.548-0.5292-0.2381-1.062-0.3461-1.598-0.3461-4.006 3.44e-4 -8.147 6.032-11.82 8.702" fill="url(#bb)" style="fill:url(#bb);stroke-width:.2646"/>
      <path d="m39.43 33.08s-1.033-6.302 3.818-7.776c4.784-1.454 6.157 4.106 6.157 4.106z" fill="url(#ba)" opacity=".5" style="fill:url(#ba);stroke-width:.2646"/>
      <path d="m39.91 35.25s0.2582 0.5802 4.315 0.1076c4.056-0.4728 5.464-0.7546 6.284-0.567l-1.203-0.9049z" fill="url(#az)" opacity=".3" style="fill:url(#az);stroke-width:.2646"/>
      <path d="m44.62 25.43c-5.133 1.044-5.136 6.567-5.136 6.567l10.1-1.241c0.7908-1.381 0.0462-5.458-3.725-5.458-0.3818 0-0.7945 0.042-1.24 0.1323" fill="url(#ay)" style="fill:url(#ay);stroke-width:.2646"/>
      <path d="m39.91 35.25c0.1369 0.1859 0.7048 0.1972 1.537 0.108 1.196-0.1263 2.947-0.4569 4.768-0.7535 1.014-0.1672 2.049-0.327 3.022-0.4347 0 0 2.104-7.498-3.664-8.03-0.2053-0.0187-0.4035-0.0279-0.5972-0.0279-5.546 7.9e-4 -6.22 7.575-5.064 9.139" fill="url(#g)" style="fill:url(#g);stroke-width:.2646"/>
      <path d="m40.15 32.73c0 1.069 0.5048 2.019 1.292 2.629 1.196-0.1263 2.947-0.4569 4.768-0.7535 0.3638-0.5347 0.5797-1.181 0.5797-1.875 0-1.834-1.486-3.321-3.321-3.321-1.831 0-3.321 1.485-3.321 3.321" fill="url(#ax)" style="fill:url(#ax);stroke-width:.2646"/>
      <g transform="matrix(.2646 0 0 .2646 -29.02 -10.63)">
        <path d="m281.7 163.9c0 4.313-3.497 7.811-7.812 7.811s-7.812-3.497-7.812-7.811c0-4.315 3.497-7.812 7.812-7.812s7.812 3.497 7.812 7.812" fill="#a16595" opacity=".68"/>
        <path d="m258.7 167.3s3.279 6.043 6.725 6.615c0 0-3.949 0.62-4.923-0.4933-0.9747-1.113-1.803-6.121-1.803-6.121" fill="#e56595" opacity=".8"/>
        <path d="m287.6 157.9c0 1.431-1.16 2.591-2.591 2.591-1.432 0-2.591-1.16-2.591-2.591s1.159-2.591 2.591-2.591c1.431 0 2.591 1.16 2.591 2.591" fill="#fff"/>
      </g>
      <path d="m29.93 33.08s1.033-6.302-3.818-7.776c-4.784-1.454-6.157 4.106-6.157 4.106z" fill="url(#ar)" opacity=".5" style="fill:url(#ar);stroke-width:.2646"/>
      <path d="m29.46 35.25s-0.2582 0.5802-4.315 0.1076c-4.056-0.4728-5.464-0.7546-6.284-0.567l1.203-0.9049z" fill="url(#aq)" opacity=".3" style="fill:url(#aq);stroke-width:.2646"/>
      <path d="m19.75 30.75 10.1 1.241s-7.93e-4 -5.524-5.136-6.567c-0.4453-0.0903-0.858-0.1323-1.24-0.1323-3.773 0-4.516 4.077-3.725 5.458" fill="url(#ap)" style="fill:url(#ap);stroke-width:.2646"/>
      <path d="m23.79 26.15c-5.771 0.5331-3.664 8.03-3.664 8.03 0.9726 0.1076 2.008 0.2675 3.022 0.4347 1.819 0.2966 3.572 0.6273 4.768 0.7535 0.8318 0.0892 1.4 0.078 1.537-0.108 1.155-1.564 0.4805-9.139-5.064-9.139-0.1933 0-0.3916 9e-3 -0.5969 0.0279" fill="url(#f)" style="fill:url(#f);stroke-width:.2646"/>
      <path d="m22.55 32.73c0 0.6943 0.2159 1.34 0.5797 1.875 1.819 0.2966 3.572 0.6273 4.768 0.7535 0.7874-0.6093 1.292-1.559 1.292-2.629 0-1.834-1.489-3.321-3.321-3.321-1.834 0-3.321 1.485-3.321 3.321" fill="url(#ao)" style="fill:url(#ao);stroke-width:.2646"/>
      <g transform="matrix(.2646 0 0 .2646 -29.02 -10.63)">
        <path d="m199.7 163.9c0 4.313 3.497 7.811 7.812 7.811 4.313 0 7.811-3.497 7.811-7.811 0-4.315-3.497-7.812-7.811-7.812-4.315 0-7.812 3.497-7.812 7.812" fill="#a16595" opacity=".68"/>
        <path d="m222.8 167.3s-3.279 6.043-6.724 6.615c0 0 3.949 0.62 4.923-0.4933 0.9733-1.113 1.801-6.121 1.801-6.121" fill="#e56595" opacity=".8"/>
        <path d="m193.9 157.9c0 1.431 1.16 2.591 2.591 2.591 1.432 0 2.592-1.16 2.592-2.591s-1.16-2.591-2.592-2.591c-1.431 0-2.591 1.16-2.591 2.591" fill="#fff"/>
      </g>
      <path d="m30.83 38.69s0.3125 0.5842 1.261 0.7199l0.2318-2e-3s-0.6945-0.4403-0.2781-0.5326c0.4167-0.0928 0.8099 0.671 1.157 0.9025s1.574 0.3471 1.574 0.3471 1.227-0.1157 1.574-0.3471c0.3471-0.2314 0.7408-0.9951 1.157-0.9025 0.4167 0.0924-0.2776 0.5326-0.2776 0.5326l0.2314 2e-3c0.9491-0.1358 1.261-0.7199 1.261-0.7199-2.609-1.535-5.199-1.617-7.893 0" fill="url(#an)" opacity=".4" style="fill:url(#an);stroke-width:.2646"/>
      <g transform="matrix(.2646 0 0 .2646 -29.02 -10.63)">
        <path d="m233.3 180.4c0.484 1.723 5.713-0.2467 10.96 0.9253 5.245 1.171 5.917 2.055 6.432 1.915 0.516-0.1413-3.501-9.284-9.168-9.144s-8.353 5.84-8.223 6.304" fill="#ffd6bd"/>
        <path d="m248.1 189.6s3.472-1.095 3.801-1.796c0.3293-0.7013 0.3693-0.92 0.3693-0.92s-2.4-0.4413-4.171 2.716" fill="#ac6595" opacity=".8"/>
        <path d="m230.7 188.2s1.644 1.191 3.769 1.691c0 0-1.769-2.889-3.121-3.039-1.351-0.1493-1.573 0.596-0.648 1.348" fill="#ac6595" opacity=".8"/>
      </g>
      <path d="m30.83 38.69s-0.694-1.442 0.477-2.276c0 0-0.8887 0.8348-0.477 2.276" fill="url(#am)" opacity=".3" style="fill:url(#am);stroke-width:.2646"/>
      <path d="m38.72 38.69s0.4553-1.594-0.4337-2.276c0 0 0.6072 0.748 0.4337 2.276" fill="url(#al)" opacity=".3" style="fill:url(#al);stroke-width:.2646"/>
      <path d="m34.91 41.94c-1.328 0.1838-2.165 0.0466-2.744-0.0907-0.5215-0.1235-0.8348-0.2469-1.11-0.1369-0.8414 0.3366 1.436 4.969 4.659 4.464 3.223-0.5048 5.154-5.212 4.458-5.382-0.0307-8e-3 -0.0684-0.0113-0.1122-0.0113-0.6646 0-2.781 0.8289-5.149 1.157" fill="url(#ak)" style="fill:url(#ak);stroke-width:.2646"/>
      <path d="m33.24 42.02s1.041 0.8242 2.522 0.7038c1.481-0.1199 2.522-1.494 2.522-1.494s-2.699 0.8819-5.043 0.7906" fill="url(#e)" style="fill:url(#e);stroke-width:.2646"/>
      <path d="m32.71 44.75s1.359 1.429 3.051 1.06c1.692-0.3686 2.847-2.061 2.847-2.061s-2.902-0.4003-5.898 1" fill="#ff9f92" fill-rule="evenodd" style="stroke-width:.2646"/>
      <path d="m39.43 40.46s1.18 0.2247 1.481 1.506c0 0 0.5204-2.043-1.481-1.506" fill="url(#aj)" fill-rule="evenodd" opacity=".68" style="fill:url(#aj);stroke-width:.2646"/>
      <path d="m43.4 8.599c-2.924 0.0032-7.625 0.508-7.625 0.508-0.1474 0.1475-0.2744 0.3469-0.381 0.5834 7e-3 -0.1168 0.1648-2.934 1.085-3.823 0.944-0.9099 5.644 0.5527 6.921 2.733" fill="#d16595" opacity=".68" style="stroke-width:.2646"/>
      <path d="m33.35 9.498c-0.26-2.103 0-3.5 0-3.5s-6.787 1.67-9.062 9.956c0 0 3.199-4.678 9.062-6.456" fill="#d16595" opacity=".68" style="stroke-width:.2646"/>
      <path d="m23.85 13.62s1.845-6.633 5.564-9.755c0 0-7.615 4.495-8.12 13.66z" fill="url(#ai)" opacity=".4" style="fill:url(#ai);stroke-width:.2646"/>
      <path d="m21.39 12.62s0.7818-3.035 1.822-4.334c0 0-5.604 2.768-6.104 10.55 0 0 0.4072-3.477 4.281-6.22" fill="url(#ah)" opacity=".4" style="fill:url(#ah);stroke-width:.2646"/>
      <path d="m46.44 10.35-1.08-2.069s6.413 3.847 6.771 11.96z" fill="url(#ag)" opacity=".4" style="fill:url(#ag);stroke-width:.2646"/>
      <path d="m49.67 11.49s3.029 1.002 4.464 7.347l-0.5167 5.043s1.178-8.422-3.948-12.39" fill="url(#af)" opacity=".4" style="fill:url(#af);stroke-width:.2646"/>
      <path d="m12.02 15.6s0.8766-3.331 3.291-4.112c2.415-0.7808 4.464-0.9972 4.464-0.9972l-2.48 1.306s-3.278 2.019-5.276 3.802" fill="#d16595" opacity=".68" style="fill-rule:evenodd;stroke-width:.2646"/>
      <path d="m29.4 3.86s4.596-3.876 14.72 3.781c0 0-11.11-10.15-14.72-3.781" fill="url(#ae)" opacity=".4" style="fill-rule:evenodd;fill:url(#ae);stroke-width:.2646"/>
      <path d="m28.98 3.86c-4.797 2.515-4.699 12.09-4.699 12.09s2.797-7.324 8.168-9.557c5.368-2.235 11.41 1.045 11.41 1.045s-6.927-4.188-12.03-4.188c-1.052 0-2.028 0.1785-2.847 0.6085" fill="url(#v)" style="fill:url(#v);stroke-width:.2646"/>
      <path d="m23.21 6.591s5.273-5.252 10.5-4.794c5.223 0.4585 11.1 5.101 11.1 5.101s-8.586-6.85-12.01-6.895c-0.0116-3.44e-4 -0.0236-3.44e-4 -0.0356-3.44e-4 -3.432-3.44e-4 -9.549 6.588-9.549 6.588" fill="url(#u)" style="fill:url(#u);stroke-width:.2646"/>
      <g transform="matrix(.2646 0 0 .2646 -29.02 -10.63)" fill-rule="evenodd">
        <path d="m280.8 68.54s11.02 9.825 19.47 23.8c8.449 13.98 12.82 33.56 12.82 33.56s8e-3 -16.97-5.036-28.37c-7.017-15.87-27.25-28.99-27.25-28.99" fill="url(#t)" opacity=".5" style="fill:url(#t)"/>
        <path d="m257.5 118.9s-3.111 12.09-3.112 24.38h39.48s4.603-9.179-0.4773-20.81c0 0-21.8-17.95-35.89-3.565" fill="url(#s)" opacity=".2" style="fill:url(#s)"/>
        <path d="m220.6 118.9s3.111 12.09 3.112 24.38h-39.48s-4.603-9.179 0.4773-20.81c0 0 21.8-17.95 35.89-3.565" fill="url(#r)" opacity=".2" style="fill:url(#r)"/>
      </g>
      <path d="m39.11 20.83 0.4876-0.0649 0.911-0.7803-0.5207 0.7474s0.943-0.1626 3.643 0.0328c2.699 0.1951 4.977 1.008 4.977 1.008s-2.667-3.577-5.138-3.577-4.358 2.634-4.358 2.634" fill="url(#q)" style="fill:url(#q);stroke-width:.2646"/>
      <path d="m39.99 20.72s2.696-2.528 5.723-1.736c0 0-2.469-0.4106-5.723 1.736" fill="url(#p)" fill-rule="evenodd" opacity=".3" style="fill:url(#p);stroke-width:.2646"/>
      <path d="m40.78 20.67s3.918-2.061 5.974-0.8887l0.7406 0.7004s-2.162-1.233-6.715 0.1884" fill="url(#o)" fill-rule="evenodd" opacity=".3" style="fill:url(#o);stroke-width:.2646"/>
      <path d="m19.77 21.78s2.276-0.8128 4.977-1.008c2.699-0.1954 3.643-0.0328 3.643-0.0328l-0.5199-0.7474 0.9102 0.7803 0.4879 0.0649s-1.886-2.634-4.358-2.634c-2.471 0-5.138 3.577-5.138 3.577" fill="url(#n)" style="fill:url(#n);stroke-width:.2646"/>
      <path d="m28.4 20.73s-2.694-2.529-5.721-1.736c0 0 2.47-0.4107 5.721 1.736" fill="url(#m)" opacity=".3" style="fill-rule:evenodd;fill:url(#m);stroke-width:.2646"/>
      <path d="m27.6 20.67s-3.919-2.061-5.975-0.8888l-0.7406 0.7004s2.162-1.233 6.716 0.1884" fill="url(#l)" opacity=".3" style="fill-rule:evenodd;fill:url(#l);stroke-width:.2646"/>
      <path d="m31.02 42.74s1.539 4.466 5.009 3.929c3.469-0.5348 4.133-4.805 4.133-4.805s-1.172 4.011-4.572 4.226c-3.4 0.2156-4.572-3.352-4.572-3.352" fill="#ff5f56" style="fill-rule:evenodd;stroke-width:.2646"/>
      <path d="m31.31 41.68c1.127 0.2374 2.483-0.558 4.268-0.5813 1.786-0.02363 3.747-0.1775 3.747-0.1775s-1.357 0.6141-4.009 1.064c-2.651 0.4501-4.009-0.3056-4.009-0.3056" fill="#ff4f56" style="fill-rule:evenodd;stroke-width:.2646"/>
    </g>
  </g>
</svg>
