<svg viewBox="0 0 54.752167 59.342865" xmlns:xlink="http://www.w3.org/1999/xlink" xmlns="http://www.w3.org/2000/svg">
  <defs
     id="defs1289">
    <linearGradient
       x1="0"
       y1="0"
       x2="1"
       y2="0"
       gradientUnits="userSpaceOnUse"
       gradientTransform="matrix(0,-6.6032237,6.6032237,0,18.493481,44.486739)"
       id="linearGradient1618">
      <stop
         style="stop-opacity:1;stop-color:#8c7cd4"
         offset="0"
         id="stop1612" />
      <stop
         style="stop-opacity:1;stop-color:#8c7cd4"
         offset="0.0159875"
         id="stop1614" />
      <stop
         style="stop-opacity:1;stop-color:#514c9a"
         offset="1"
         id="stop1616" />
    </linearGradient>
    <linearGradient
       x1="0"
       y1="0"
       x2="1"
       y2="0"
       gradientUnits="userSpaceOnUse"
       gradientTransform="matrix(0,-3.4561985,-3.4561985,0,44.32326,14.259642)"
       id="linearGradient9856">
      <stop
         style="stop-opacity:1;stop-color:#ff9600"
         offset="0"
         id="stop9852" />
      <stop
         style="stop-opacity:1;stop-color:#ffb300"
         offset="1"
         id="stop9854" />
    </linearGradient>
    <linearGradient
       x1="0"
       y1="0"
       x2="1"
       y2="0"
       gradientUnits="userSpaceOnUse"
       gradientTransform="matrix(0,-3.4561985,3.4561985,0,10.473022,14.259642)"
       id="linearGradient9964">
      <stop
         style="stop-opacity:1;stop-color:#ff9600"
         offset="0"
         id="stop9960" />
      <stop
         style="stop-opacity:1;stop-color:#ffb300"
         offset="1"
         id="stop9962" />
    </linearGradient>
    <linearGradient
       x1="0"
       y1="0"
       x2="1"
       y2="0"
       gradientUnits="userSpaceOnUse"
       gradientTransform="matrix(0,-43.810498,43.810498,0,27.308385,56.876626)"
       id="linearGradient10180">
      <stop
         style="stop-opacity:1;stop-color:#ff9b86"
         offset="0"
         id="stop10170" />
      <stop
         style="stop-opacity:1;stop-color:#ff9b86"
         offset="0.0335196"
         id="stop10172" />
      <stop
         style="stop-opacity:1;stop-color:#ffa670"
         offset="0.32531986"
         id="stop10174" />
      <stop
         style="stop-opacity:1;stop-color:#ffa670"
         offset="0.953204"
         id="stop10176" />
      <stop
         style="stop-opacity:1;stop-color:#ffa670"
         offset="1"
         id="stop10178" />
    </linearGradient>
    <linearGradient
       x1="0"
       y1="0"
       x2="1"
       y2="0"
       gradientUnits="userSpaceOnUse"
       gradientTransform="matrix(0,32.939667,32.939667,0,836.16235,322.6463)"
       id="linearGradient10246">
      <stop
         style="stop-opacity:1;stop-color:#ff9b86"
         offset="0"
         id="stop10238" />
      <stop
         style="stop-opacity:1;stop-color:#ff9b86"
         offset="0.0335196"
         id="stop10240" />
      <stop
         style="stop-opacity:1;stop-color:#ffa670"
         offset="0.953204"
         id="stop10242" />
      <stop
         style="stop-opacity:1;stop-color:#ffa670"
         offset="1"
         id="stop10244" />
    </linearGradient>
    <linearGradient
       x1="0"
       y1="0"
       x2="1"
       y2="0"
       gradientUnits="userSpaceOnUse"
       gradientTransform="matrix(9.2758961,16.066322,16.066322,-9.2758961,831.43884,330.41104)"
       id="linearGradient10276">
      <stop
         style="stop-opacity:1;stop-color:#ffffff"
         offset="0"
         id="stop10270" />
      <stop
         style="stop-opacity:1;stop-color:#ca00a4"
         offset="0.994413"
         id="stop10272" />
      <stop
         style="stop-opacity:1;stop-color:#ca00a4"
         offset="1"
         id="stop10274" />
    </linearGradient>
    <linearGradient
       x1="0"
       y1="0"
       x2="1"
       y2="0"
       gradientUnits="userSpaceOnUse"
       gradientTransform="matrix(6.288353,10.891747,10.891747,-6.288353,829.34711,331.49194)"
       id="linearGradient10310">
      <stop
         style="stop-opacity:1;stop-color:#ffffff"
         offset="0"
         id="stop10304" />
      <stop
         style="stop-opacity:1;stop-color:#ca00a4"
         offset="0.994413"
         id="stop10306" />
      <stop
         style="stop-opacity:1;stop-color:#ca00a4"
         offset="1"
         id="stop10308" />
    </linearGradient>
    <linearGradient
       x1="0"
       y1="0"
       x2="1"
       y2="0"
       gradientUnits="userSpaceOnUse"
       gradientTransform="matrix(5.5227294,9.5656481,9.5656481,-5.5227294,829.18689,322.05536)"
       id="linearGradient10344">
      <stop
         style="stop-opacity:1;stop-color:#ca00a4"
         offset="0"
         id="stop10338" />
      <stop
         style="stop-opacity:1;stop-color:#ca00a4"
         offset="0.00558659"
         id="stop10340" />
      <stop
         style="stop-opacity:1;stop-color:#ffffff"
         offset="1"
         id="stop10342" />
    </linearGradient>
    <linearGradient
       x1="0"
       y1="0"
       x2="1"
       y2="0"
       gradientUnits="userSpaceOnUse"
       gradientTransform="matrix(0,32.939667,-32.939667,0,719.75958,322.6463)"
       id="linearGradient10380">
      <stop
         style="stop-opacity:1;stop-color:#ff9b86"
         offset="0"
         id="stop10372" />
      <stop
         style="stop-opacity:1;stop-color:#ff9b86"
         offset="0.0335196"
         id="stop10374" />
      <stop
         style="stop-opacity:1;stop-color:#ffa670"
         offset="0.953204"
         id="stop10376" />
      <stop
         style="stop-opacity:1;stop-color:#ffa670"
         offset="1"
         id="stop10378" />
    </linearGradient>
    <linearGradient
       x1="0"
       y1="0"
       x2="1"
       y2="0"
       gradientUnits="userSpaceOnUse"
       gradientTransform="matrix(-9.2758799,16.066296,-16.066296,-9.2758799,724.48315,330.41107)"
       id="linearGradient10410">
      <stop
         style="stop-opacity:1;stop-color:#ffffff"
         offset="0"
         id="stop10404" />
      <stop
         style="stop-opacity:1;stop-color:#ca00a4"
         offset="0.994413"
         id="stop10406" />
      <stop
         style="stop-opacity:1;stop-color:#ca00a4"
         offset="1"
         id="stop10408" />
    </linearGradient>
    <linearGradient
       x1="0"
       y1="0"
       x2="1"
       y2="0"
       gradientUnits="userSpaceOnUse"
       gradientTransform="matrix(-6.2883811,10.891795,-10.891795,-6.2883811,726.57495,331.49191)"
       id="linearGradient10444">
      <stop
         style="stop-opacity:1;stop-color:#ffffff"
         offset="0"
         id="stop10438" />
      <stop
         style="stop-opacity:1;stop-color:#ca00a4"
         offset="0.994413"
         id="stop10440" />
      <stop
         style="stop-opacity:1;stop-color:#ca00a4"
         offset="1"
         id="stop10442" />
    </linearGradient>
    <linearGradient
       x1="0"
       y1="0"
       x2="1"
       y2="0"
       gradientUnits="userSpaceOnUse"
       gradientTransform="matrix(-5.5227118,9.5656176,-9.5656176,-5.5227118,726.73517,322.05536)"
       id="linearGradient10478">
      <stop
         style="stop-opacity:1;stop-color:#ca00a4"
         offset="0"
         id="stop10472" />
      <stop
         style="stop-opacity:1;stop-color:#ca00a4"
         offset="0.00558659"
         id="stop10474" />
      <stop
         style="stop-opacity:1;stop-color:#ffffff"
         offset="1"
         id="stop10476" />
    </linearGradient>
    <linearGradient
       x1="0"
       y1="0"
       x2="1"
       y2="0"
       gradientUnits="userSpaceOnUse"
       gradientTransform="matrix(-9.971766,0,0,9.971766,22.58884,37.56199)"
       id="linearGradient10572">
      <stop
         style="stop-opacity:1;stop-color:#ffffff"
         offset="0"
         id="stop10566" />
      <stop
         style="stop-opacity:1;stop-color:#ca00a4"
         offset="0.994413"
         id="stop10568" />
      <stop
         style="stop-opacity:1;stop-color:#ca00a4"
         offset="1"
         id="stop10570" />
    </linearGradient>
    <linearGradient
       x1="0"
       y1="0"
       x2="1"
       y2="0"
       gradientUnits="userSpaceOnUse"
       gradientTransform="matrix(-9.8775306,0,0,9.8775306,22.025697,43.745796)"
       id="linearGradient10606">
      <stop
         style="stop-opacity:1;stop-color:#ffffff"
         offset="0"
         id="stop10600" />
      <stop
         style="stop-opacity:1;stop-color:#ca00a4"
         offset="0.994413"
         id="stop10602" />
      <stop
         style="stop-opacity:1;stop-color:#ca00a4"
         offset="1"
         id="stop10604" />
    </linearGradient>
    <linearGradient
       x1="0"
       y1="0"
       x2="1"
       y2="0"
       gradientUnits="userSpaceOnUse"
       gradientTransform="matrix(0,-6.6357693,-6.6357693,0,17.290908,40.466205)"
       id="linearGradient10638">
      <stop
         style="stop-opacity:1;stop-color:#64003c"
         offset="0"
         id="stop10634" />
      <stop
         style="stop-opacity:1;stop-color:#a6252f"
         offset="1"
         id="stop10636" />
    </linearGradient>
    <radialGradient
       fx="739.51557"
       fy="330.4416"
       cx="739.51557"
       cy="330.4416"
       r="28.717488"
       gradientTransform="matrix(0.35104783,0,0,-0.35451622,-247.18883,161.95842)"
       id="radialGradient10662">
      <stop
         style="stop-opacity:1;stop-color:#fff0eb"
         offset="0"
         id="stop10654" />
      <stop
         style="stop-opacity:1;stop-color:#fff0eb"
         offset="0.0335196"
         id="stop10656" />
      <stop
         style="stop-opacity:1;stop-color:#ffe7e9"
         offset="0.977299"
         id="stop10658" />
      <stop
         style="stop-opacity:1;stop-color:#ffe7e9"
         offset="1"
         id="stop10660" />
    </radialGradient>
    <linearGradient
       x1="0"
       y1="0"
       x2="1"
       y2="0"
       gradientUnits="userSpaceOnUse"
       gradientTransform="matrix(9.971772,0,0,9.971772,31.722411,37.56199)"
       id="linearGradient10750">
      <stop
         style="stop-opacity:1;stop-color:#ffffff"
         offset="0"
         id="stop10744" />
      <stop
         style="stop-opacity:1;stop-color:#ca00a4"
         offset="0.994413"
         id="stop10746" />
      <stop
         style="stop-opacity:1;stop-color:#ca00a4"
         offset="1"
         id="stop10748" />
    </linearGradient>
    <linearGradient
       x1="0"
       y1="0"
       x2="1"
       y2="0"
       gradientUnits="userSpaceOnUse"
       gradientTransform="matrix(9.8775306,0,0,9.8775306,32.285558,43.745796)"
       id="linearGradient10784">
      <stop
         style="stop-opacity:1;stop-color:#ffffff"
         offset="0"
         id="stop10778" />
      <stop
         style="stop-opacity:1;stop-color:#ca00a4"
         offset="0.994413"
         id="stop10780" />
      <stop
         style="stop-opacity:1;stop-color:#ca00a4"
         offset="1"
         id="stop10782" />
    </linearGradient>
    <linearGradient
       x1="0"
       y1="0"
       x2="1"
       y2="0"
       gradientUnits="userSpaceOnUse"
       gradientTransform="matrix(0,-6.6357693,6.6357693,0,37.020343,40.466205)"
       id="linearGradient10816">
      <stop
         style="stop-opacity:1;stop-color:#64003c"
         offset="0"
         id="stop10812" />
      <stop
         style="stop-opacity:1;stop-color:#a6252f"
         offset="1"
         id="stop10814" />
    </linearGradient>
    <radialGradient
       fx="794.77032"
       fy="330.44175"
       cx="794.77032"
       cy="330.44175"
       r="28.7175"
       gradientTransform="matrix(0.35104799,0,0,-0.35451608,-247.18883,161.95842)"
       id="radialGradient10840">
      <stop
         style="stop-opacity:1;stop-color:#fff0eb"
         offset="0"
         id="stop10832" />
      <stop
         style="stop-opacity:1;stop-color:#fff0eb"
         offset="0.0335196"
         id="stop10834" />
      <stop
         style="stop-opacity:1;stop-color:#ffe7e9"
         offset="0.977299"
         id="stop10836" />
      <stop
         style="stop-opacity:1;stop-color:#ffe7e9"
         offset="1"
         id="stop10838" />
    </radialGradient>
    <linearGradient
       x1="0"
       y1="0"
       x2="1"
       y2="0"
       gradientUnits="userSpaceOnUse"
       gradientTransform="matrix(0,-2.5923204,2.5923204,0,27.307997,48.516586)"
       id="linearGradient10928">
      <stop
         style="stop-opacity:1;stop-color:#ca00a4"
         offset="0"
         id="stop10922" />
      <stop
         style="stop-opacity:1;stop-color:#ca00a4"
         offset="0.00558659"
         id="stop10924" />
      <stop
         style="stop-opacity:1;stop-color:#ffd3c4"
         offset="1"
         id="stop10926" />
    </linearGradient>
    <linearGradient
       x1="0"
       y1="0"
       x2="1"
       y2="0"
       gradientUnits="userSpaceOnUse"
       gradientTransform="matrix(0,-2.2547791,2.2547791,0,23.534757,47.095354)"
       id="linearGradient11010">
      <stop
         style="stop-opacity:1;stop-color:#ffc2b3"
         offset="0"
         id="stop11004" />
      <stop
         style="stop-opacity:1;stop-color:#ca00a4"
         offset="0.994413"
         id="stop11006" />
      <stop
         style="stop-opacity:1;stop-color:#ca00a4"
         offset="1"
         id="stop11008" />
    </linearGradient>
    <linearGradient
       x1="0"
       y1="0"
       x2="1"
       y2="0"
       gradientUnits="userSpaceOnUse"
       gradientTransform="matrix(0,-2.2547791,2.2547791,0,31.059341,47.095354)"
       id="linearGradient11044">
      <stop
         style="stop-opacity:1;stop-color:#ffc2b3"
         offset="0"
         id="stop11038" />
      <stop
         style="stop-opacity:1;stop-color:#ca00a4"
         offset="0.994413"
         id="stop11040" />
      <stop
         style="stop-opacity:1;stop-color:#ca00a4"
         offset="1"
         id="stop11042" />
    </linearGradient>
    <linearGradient
       x1="0"
       y1="0"
       x2="1"
       y2="0"
       gradientUnits="userSpaceOnUse"
       gradientTransform="matrix(0,-2.8560184,2.8560184,0,27.205032,53.130214)"
       id="linearGradient14136">
      <stop
         style="stop-opacity:1;stop-color:#8b1a41"
         offset="0"
         id="stop14132" />
      <stop
         style="stop-opacity:1;stop-color:#64003c"
         offset="1"
         id="stop14134" />
    </linearGradient>
    <linearGradient
       x1="0"
       y1="0"
       x2="1"
       y2="0"
       gradientUnits="userSpaceOnUse"
       gradientTransform="matrix(1.037501,3.1334438,-3.1334438,1.037501,26.84196,49.171539)"
       id="linearGradient14156">
      <stop
         style="stop-opacity:1;stop-color:#ff6641"
         offset="0"
         id="stop14152" />
      <stop
         style="stop-opacity:1;stop-color:#b8003c"
         offset="1"
         id="stop14154" />
    </linearGradient>
    <radialGradient
       fx="344.65204"
       fy="694.42582"
       cx="344.65204"
       cy="694.42582"
       r="4.9667453"
       gradientTransform="matrix(0.79032807,0,0,-0.15746898,-247.18883,161.95842)"
       id="radialGradient14180">
      <stop
         style="stop-opacity:1;stop-color:#fff0eb"
         offset="0"
         id="stop14172" />
      <stop
         style="stop-opacity:1;stop-color:#fff0eb"
         offset="0.0335196"
         id="stop14174" />
      <stop
         style="stop-opacity:1;stop-color:#ffe7e9"
         offset="0.977299"
         id="stop14176" />
      <stop
         style="stop-opacity:1;stop-color:#ffe7e9"
         offset="1"
         id="stop14178" />
    </radialGradient>
    <linearGradient
       xlink:href="#radialGradient7554"
       id="linearGradient2410"
       x1="78.143646"
       y1="270.04849"
       x2="85.347519"
       y2="270.04849"
       gradientUnits="userSpaceOnUse"
       gradientTransform="matrix(-0.44206774,0,0,-0.30491322,61.62319,123.29736)" />
    <radialGradient
       fx="40.39529"
       fy="757.67859"
       cx="40.39529"
       cy="757.67859"
       r="3.4215608"
       gradientTransform="scale(1.8298667,0.54648789)"
       id="radialGradient7554">
      <stop
         style="stop-opacity:1;stop-color:#fff0eb"
         offset="0"
         id="stop7546" />
      <stop
         style="stop-opacity:1;stop-color:#fff0eb"
         offset="0.0335196"
         id="stop7548" />
      <stop
         style="stop-opacity:1;stop-color:#ffe7e9"
         offset="0.977299"
         id="stop7550" />
      <stop
         style="stop-opacity:1;stop-color:#ffe7e9"
         offset="1"
         id="stop7552" />
    </radialGradient>
    <linearGradient
       xlink:href="#radialGradient7554"
       id="linearGradient2437"
       x1="77.710434"
       y1="268.69186"
       x2="85.833023"
       y2="268.69186"
       gradientUnits="userSpaceOnUse"
       gradientTransform="matrix(0.3681992,0,0,-0.30491322,-0.68218833,123.29736)" />
    <linearGradient
       xlink:href="#linearGradient1618"
       id="linearGradient1620"
       gradientUnits="userSpaceOnUse"
       gradientTransform="matrix(0,-6.6032237,6.6032237,0,18.493481,44.486739)"
       x1="0"
       y1="0"
       x2="1"
       y2="0" />
  </defs>

  <g id="gr_face">
    <path
       d="m 9.0985755,24.231862 c -1.4075833,4.923719 0.244475,19.374202 2.3629055,24.528991 v 0 c 0,0 0,0.0035 0.0035,0.0035 v 0 c 0.207433,0.509764 0.421569,0.927805 0.639233,1.237544 v 0 c 1.873956,2.672292 7.555089,5.426428 11.917539,6.453364 v 0 l 0.01693,0.0032 c 1.234369,0.292453 2.363611,0.442383 3.267781,0.415219 v 0 c 0.907697,0.02716 2.040113,-0.122766 3.280833,-0.418394 v 0 h 0.0071 c 4.362097,-1.026936 10.043936,-3.781072 11.917186,-6.453364 v 0 c 0.177095,-0.251883 0.350308,-0.574675 0.523875,-0.962378 v 0 -0.0035 c 2.175933,-4.892675 3.916892,-19.788717 2.482145,-24.804158 v 0 C 43.973833,18.819193 32.202697,13.236132 27.306495,13.066093 v 0 c -4.896203,0.170039 -16.664164,5.7531 -18.2079195,11.165769"
       style="fill:url(#linearGradient10180);stroke:none;stroke-width:0.352778"
       id="path10182" />
    <path
       d="m 43.03534,49.036125 v 0.0035 c -0.173214,0.38735 -0.346427,0.710495 -0.523522,0.962025 -1.873603,2.672645 -7.555089,5.426781 -11.917538,6.453717 -3.287748,0.418288 -3.287748,0.418288 -6.57225,0 -4.362803,-1.026936 -10.043936,-3.781072 -11.917892,-6.453717 -0.217311,-0.309386 -0.431447,-0.727428 -0.63888,-1.237544 1.713441,2.431344 8.251825,7.079191 16.167452,7.079191 7.922331,0 12.791369,-4.420305 15.40263,-6.8072"
       style="opacity:0.679993;fill:#ff9395;fill-opacity:1;fill-rule:nonzero;stroke:none;stroke-width:0.352778"
       id="path11068" />
  </g>
  <g id="gr_nose" class="covered pointer-cursor">
    <path
       d="m 30.921456,45.230459 c 0,0 -1.176359,-2.058942 -2.437363,-2.174616 L 27.930834,37.50864 Z"
       opacity="0.300003"
       style="fill:url(#linearGradient2437);fill-opacity:1;stroke:none;stroke-width:0.335065"
       id="path6922" />
    <path
       d="m 24.021076,45.035546 c 0,0 1.07047,-1.864109 2.584448,-1.979516 l 0.472796,-5.547204 z"
       opacity="0.300003"
       style="fill:url(#linearGradient2410);fill-opacity:1;stroke:none;stroke-width:0.367142"
       id="path9273" />
    <path
       d="m 24.500227,47.095389 c 0,0 -0.617558,0.491655 0.322242,0.626416 l 0.606229,0.02687 c 0,0 -1.006554,-0.407068 -0.593804,-0.498788 0.248176,-0.05515 0.57652,0.31341 0.862171,0.631973 0.190023,0.291364 0.490378,0.255195 0.735858,0.385711 0.747183,0.522341 1.163236,0.449096 1.899268,0.03799 0.271972,-0.106988 0.571581,-0.363289 0.767617,-0.586546 0.234945,-0.267568 0.568966,-0.526307 0.789137,-0.47738 0.139966,0.03113 0.07975,0.05803 0.03745,0.129157 -0.08232,0.138444 -0.378746,0.328258 -0.378746,0.328258 l 0.369782,-0.0642 c 0.9398,-0.134761 0.12676,-0.675135 0.12676,-0.675135 -2.58445,-1.520825 -2.73069,-1.640087 -5.399101,-0.03812"
       opacity="0.399994"
       style="fill:url(#linearGradient10928);stroke:none;stroke-width:0.352778"
       id="path10930" />
    <path
       d="m 25.268956,45.517132 c 0.126647,0.451556 1.497189,-0.06456 2.871964,0.242358 1.374422,0.306917 1.550811,0.538339 1.685925,0.50165 0.134761,-0.03669 -0.917928,-2.433108 -2.403122,-2.396419 -1.484842,0.03704 -2.188986,1.530703 -2.154767,1.652411"
       style="fill:#ffd6bd;fill-opacity:1;fill-rule:nonzero;stroke:none;stroke-width:0.352778"
       id="path10952" />
    <path
       d="m 28.921942,47.932319 c 0,0 0.910167,-0.286808 0.996244,-0.470606 0.08608,-0.183797 0.09701,-0.2413 0.09701,-0.2413 0,0 -0.629708,-0.115358 -1.093258,0.711906"
       opacity="0.800003"
       style="fill:#ac6595;fill-opacity:1;fill-rule:nonzero;stroke:none;stroke-width:0.352778"
       id="path10968" />
    <path
       d="m 24.843048,47.573685 c 0,0 0.431094,0.312208 0.987778,0.443089 0,0 -0.46355,-0.757061 -0.817739,-0.79622 -0.354189,-0.03916 -0.412397,0.155575 -0.170039,0.353131"
       opacity="0.800003"
       style="fill:#ac6595;fill-opacity:1;fill-rule:nonzero;stroke:none;stroke-width:0.352778"
       id="path10984" />
    <path
       d="m 23.399481,47.095389 c 0,0 -0.687211,-1.428044 0.472369,-2.254955 0,0 -0.88018,0.826911 -0.472369,2.254955"
       opacity="0.300003"
       style="fill:url(#linearGradient11010);stroke:none;stroke-width:0.352778"
       id="path11012" />
    <path
       d="m 31.216331,47.095389 c 0,0 0.45085,-1.578328 -0.429331,-2.254955 0,0 0.601133,0.740833 0.429331,2.254955"
       opacity="0.300003"
       style="fill:url(#linearGradient11044);stroke:none;stroke-width:0.352778"
       id="path11046" />
  </g>
  <g id="gr_ears" class="covered pointer-cursor" transform="matrix(0.35277777,0,0,-0.35277777,-247.18883,161.95842)">
    <path
       d="m 829.172,351.205 -4.174,-22.934 c 0,0 0.166,-4.055 2.183,-5.111 v 0 c 2.016,-1.056 9.634,-1.227 15.779,7.03 v 0 c 6.145,8.258 5.825,22.576 -1.089,24.881 v 0 c -1.088,0.362 -2.148,0.515 -3.162,0.515 v 0 c -5.429,0 -9.537,-4.381 -9.537,-4.381"
       style="fill:url(#linearGradient10246);stroke:none"
       id="path10248" />
    <path
       d="m 828.017,341.098 c 0,0 4.627,6.088 10.713,5.965 6.087,-0.121 7.763,-13.824 -0.73,-19.113 0,0 3.683,2.161 3.409,8.461 -0.274,6.3 -3.658,8.035 -5.481,6.94 -1.824,-1.096 2.011,-3.561 1.646,-8.036 -0.365,-4.474 -3.561,-6.026 -5.753,-5.113 -2.191,0.913 1.005,6.689 0.183,8.914 -0.821,2.226 -3.987,1.415 -3.987,1.415 z"
       opacity="0.3"
       style="fill:url(#linearGradient10276);fill-rule:evenodd;stroke:none"
       id="path10278" />
    <path
       d="m 828.017,341.098 c 0,0 2.343,2.663 4.9,2.527 2.557,-0.138 4.271,-4.07 4.67,-8.084 0.397,-4.015 -4.938,-7.051 -6.128,-5.099 -1.189,1.952 1.275,6.494 0.545,8.674 -0.731,2.18 -3.987,1.415 -3.987,1.415 z"
       opacity="0.3"
       style="fill:url(#linearGradient10310);fill-rule:evenodd;stroke:none"
       id="path10312" />
    <path
       d="m 825.115,327.191 0.772,3.833 c 0,0 0.786,-6.236 4.839,-6.94 5.436,-0.943 10.342,3.866 10.342,3.866 0,0 -3.886,-4.172 -8.256,-4.955 -4.369,-0.783 -7.053,-0.549 -7.697,4.196"
       opacity="0.3"
       style="fill:url(#linearGradient10344);fill-rule:evenodd;stroke:none"
       id="path10346" />
    <path
       d="m 714.051,355.071 c -6.915,-2.305 -7.234,-16.623 -1.089,-24.881 v 0 c 6.145,-8.257 13.763,-8.086 15.779,-7.03 v 0 c 2.017,1.056 2.183,5.111 2.183,5.111 v 0 l -4.174,22.934 c 0,0 -4.109,4.381 -9.538,4.381 v 0 c -1.014,0 -2.073,-0.153 -3.161,-0.515"
       style="fill:url(#linearGradient10380);stroke:none"
       id="path10382" />
    <path
       d="m 727.905,341.098 c 0,0 -4.627,6.088 -10.714,5.965 -6.087,-0.121 -7.762,-13.824 0.731,-19.113 0,0 -3.683,2.161 -3.408,8.461 0.273,6.3 3.657,8.035 5.48,6.94 1.824,-1.096 -2.012,-3.561 -1.646,-8.036 0.366,-4.474 3.561,-6.026 5.753,-5.113 2.191,0.913 -1.005,6.689 -0.183,8.914 0.822,2.226 3.987,1.415 3.987,1.415 z"
       opacity="0.3"
       style="fill:url(#linearGradient10410);fill-rule:evenodd;stroke:none"
       id="path10412" />
    <path
       d="m 727.905,341.098 c 0,0 -2.343,2.663 -4.9,2.527 -2.557,-0.138 -4.272,-4.07 -4.67,-8.084 -0.398,-4.015 4.938,-7.051 6.128,-5.099 1.19,1.952 -1.276,6.494 -0.545,8.674 0.73,2.18 3.987,1.415 3.987,1.415 z"
       opacity="0.3"
       style="fill:url(#linearGradient10444);fill-rule:evenodd;stroke:none"
       id="path10446" />
    <path
       d="m 730.807,327.191 -0.771,3.833 c 0,0 -0.786,-6.236 -4.84,-6.94 -5.436,-0.943 -10.342,3.866 -10.342,3.866 0,0 3.886,-4.172 8.255,-4.955 4.37,-0.783 7.054,-0.549 7.698,4.196"
       opacity="0.3"
       style="fill:url(#linearGradient10478);fill-rule:evenodd;stroke:none"
       id="path10480" />
  </g>
  <g id="gr_hair" class="covered pointer-cursor">
    <path
       d="m 27.243347,12.270932 17.094302,7.638556 1.115381,17.393849 c 0,0 6.555317,-5.110339 1.954742,-23.043797 v 0 c 0,0 -2.623256,-2.773186 -6.169025,-3.391606 v 0 c -0.470253,-0.08184 -1.062214,-0.117122 -1.734608,-0.117122 v 0 c -4.398786,-3.53e-4 -12.260792,1.52012 -12.260792,1.52012"
       style="fill:#6b290a;stroke:none;stroke-width:0.352778;fill-opacity:1"
       id="path9838" />
    <path
       d="m 13.557686,10.867934 c -3.545769,0.61842 -6.1697299,3.391606 -6.1697299,3.391606 v 0 C 2.7873812,32.192998 9.3430505,37.303337 9.3430505,37.303337 v 0 L 9.9835538,19.082929 27.553086,12.270932 c 0,0 -7.862005,-1.520473 -12.261144,-1.52012 v 0 c -0.672042,0 -1.264356,0.03528 -1.734256,0.117122"
       style="fill:#6b290a;stroke:none;stroke-width:0.352778;fill-opacity:1"
       id="path9946" />
    <path
       d="M 7.503314,22.991495 C 6.863728,26.660737 9.083053,37.220787 9.45347,40.305828 v 0 c -0.15875,-13.106399 2.920294,-17.659349 3.154186,-18.033294 4.432088,-3.115204 2.103374,1.950643 5.542139,-1.166989 v 0 c 5.047579,-1.948427 9.866524,0.258953 13.917083,-2.071864 v 0 c -2.183695,5.772503 -4.8641,6.950075 -5.031317,7.016398 v 0 c 8.840611,-1.887009 8.270522,-8.340725 8.270522,-8.340725 v 0 c 3.148542,9.402938 8.547097,9.720791 8.547097,9.720791 v 0 c 1.72297,4.885267 1.06363,12.870392 1.06363,12.870392 v 0 c 0,0 2.4578,-14.073364 1.46896,-17.309042 v 0 C 45.39694,19.75229 37.319033,12.544687 28.290039,12.279046 v 0 c -0.188383,-0.0053 -0.377825,-0.0081 -0.567972,-0.0081 v 0 c -8.912578,0 -19.387255,5.937602 -20.218753,10.720563 m 29.441775,-4.419247 c 0.188736,0.132645 6.244171,4.44112 7.296151,8.215136 v 0 c 0,0 -3.2325,-0.793397 -7.296151,-8.215136"
       style="fill:#973f0a;stroke:none;stroke-width:0.352778;fill-opacity:1"
       id="path13120" />
    <path
       d="m 46.73749,50.554375 c 1.36208,4.30142 -1.82174,8.301567 -1.82174,8.301567 v 0 c 0,0 3.1944,-0.526345 4.51873,-4.217106 v 0 c 1.05763,-2.947105 -4.40725,-10.414 -4.51873,-14.338299 v 0 c -0.0921,1.895122 0.45896,5.952066 1.82174,10.253838"
       style="fill:#973f0a;stroke:none;stroke-width:0.352778;fill-opacity:1"
       id="path13168" />
    <path
       d="m 9.353987,41.550428 c 0.05256,-0.415572 0.08714,-0.830791 0.09948,-1.2446 v 0 c 0,0 -0.0321,0.415572 -0.09948,1.2446 M 6.216381,55.252317 c 0.955675,3.770489 3.766961,4.113389 3.766961,4.113389 v 0 c 0,0 -1.944158,-2.549878 -1.407583,-8.656461 v 0 c 0.397933,-4.529667 0.650875,-7.587192 0.778228,-9.158817 v 0 C 8.710167,46.632192 5.332673,51.766872 6.216381,55.252317"
       style="fill:#973f0a;stroke:none;stroke-width:0.352778;fill-opacity:1"
       id="path13144" />
    <path
       d="m 9.743453,32.956409 c 0,0 -0.248003,-6.551789 0.643114,-9.729611 0.890411,-3.177822 4.928658,-5.572478 4.928658,-5.572478 l -2.707216,4.618567 c 0,0 -1.998134,2.774597 -2.864556,10.683522"
       style="opacity:0.5;fill:#6b290a;fill-rule:evenodd;stroke:none;stroke-width:0.352778;fill-opacity:1"
       id="path13266" />
    <path
       d="M 52.30003,3.5230025 53.05039,5.2332691 46.98402,9.9897718 48.9243,5.7959497 Z"
       style="fill:#7c290a;fill-opacity:1;fill-rule:evenodd;stroke:none;stroke-width:0.352778"
       id="path9790" />
    <path
       d="m 41.75345,0.71640133 c 0,0 2.09867,4.76708597 0.42545,10.36990267 v 0 l 5.08176,2.69875 c 0,0 4.38009,-0.401109 7.24888,2.114903 v 0 l 0.26458,-0.706262 c 0,0 -1.8923,-2.521655 -7.78792,-1.988961 v 0 c 0,0 2.37772,-1.182511 7.03757,-4.190294 v 0 c 0,0 0.70626,-1.8538471 -0.97085,-3.7958888 v 0 c 0,0 -2.55411,0.9006417 -6.06672,4.7565027 v 0 c 0,0 3.04412,-4.0505943 5.31636,-6.4667693 v 0 c 0,0 -3.13372,-3.48473881 -7.35824,-3.48544436 v 0 c -1.0107,0 -2.08315,0.19931944 -3.19087,0.69356109"
       style="fill:#973f0a;stroke:none;stroke-width:0.352778;fill-opacity:1"
       id="path9814" />
    <path
       d="m 41.23875,10.867934 c 0,0 3.52566,0.780698 6.16902,3.391606 v 0 c 0,0 -0.66428,-3.455811 -5.08,-3.456164 v 0 c -0.34043,0 -0.70273,0.02046 -1.08902,0.06456"
       style="fill:url(#linearGradient9856);stroke:none;stroke-width:0.352778"
       id="path9858" />
    <path
       d="m 2.49387,3.5082846 c 4.192764,1.9861388 5.316008,6.4667693 5.316008,6.4667693 v 0 C 5.489659,5.4623207 1.743512,5.2185512 1.743512,5.2185512 v 0 C 0.066053,7.1605929 0.772315,9.01444 0.772315,9.01444 v 0 c 5.208411,-0.7062611 7.037563,4.190294 7.037563,4.190294 v 0 C 1.914609,12.67204 0.021956,15.193695 0.021956,15.193695 v 0 l 0.264936,0.706262 c 2.868789,-2.516012 7.248525,-2.114903 7.248525,-2.114903 v 0 l 5.081764,-2.69875 c 1.957917,-5.6963028 0.42545,-10.36990267 0.42545,-10.36990267 v 0 C 11.934909,0.22215968 10.862817,0.02284024 9.852109,0.02284024 v 0 C 5.627595,0.02354579 2.49387,3.5082846 2.49387,3.5082846"
       style="fill:#973f0a;stroke:none;stroke-width:0.352778;fill-opacity:1"
       id="path9922" />
    <path
       d="m 7.387956,14.25954 c 2.644069,-2.610908 6.16973,-3.391606 6.16973,-3.391606 v 0 c -0.386644,-0.0441 -0.748594,-0.06456 -1.089025,-0.06456 v 0 c -4.416072,3.53e-4 -5.080705,3.456164 -5.080705,3.456164"
       style="fill:url(#linearGradient9964);stroke:none;stroke-width:0.352778"
       id="path9966" />
    <path
       d="m 2.493792,3.508145 0.225425,1.9159361 c 0,0 3.407128,0.7655277 5.6515,5.7530999 0,0 -0.426156,-5.8374138 -5.876925,-7.669036"
       style="fill:#7c290a;fill-opacity:1;fill-rule:evenodd;stroke:none;stroke-width:0.352778"
       id="path13244" />
    <path
       d="m 24.435942,27.031787 c 0,0 0.949325,-5.716764 2.568222,-7.12223 1.61925,-1.405467 5.779206,-2.067631 5.779206,-2.067631 l -0.716139,1.191683 c 0,0 -4.017786,2.074334 -7.631289,7.998178"
       style="opacity:0.679993;fill:#6b290a;fill-opacity:1;fill-rule:evenodd;stroke:none;stroke-width:0.352778"
       id="path13234" />
    <path
       d="m 14.92082,28.363242 c 0,0 -0.02434,-4.341988 1.167341,-7.740649 1.191684,-3.398661 10.013597,-6.752873 10.013597,-6.752873 0,0 -4.854222,2.508603 -7.951963,7.235825 0,0 -2.586214,3.78707 -3.228975,7.257697"
       style="opacity:0.679993;fill:#6b290a;fill-rule:evenodd;stroke:none;stroke-width:0.352778;fill-opacity:1"
       id="path13300" />
    <path
       d="m 18.244057,26.758562 c 0,0 4.034719,-12.731397 15.615355,-13.47223 0,0 -10.76713,1.599847 -15.615355,13.47223"
       style="opacity:0.679993;fill:#7c290a;fill-opacity:1;fill-rule:evenodd;stroke:none;stroke-width:0.352778"
       id="path13322" />
    <path
       d="m 38.799994,2.3938596 c 4.041066,2.2069778 2.834926,8.5788494 2.834926,8.5788494 v 0 l 0.617,-0.141111 C 44.18338,3.7771013 39.569403,1.3785652 39.569403,1.3785652 v 0 z"
       style="fill:#7c290a;stroke:none;stroke-width:0.352778;fill-opacity:1"
       id="path13384" />
    <path
       d="m 26.285944,20.863857 -4.808008,0.252589 1.719439,-1.959328 4.110919,0.51682 z"
       style="fill:#ffd6bd;fill-opacity:1;fill-rule:evenodd;stroke:none;stroke-width:0.352778"
       id="path13402" />
    <path
       d="m 21.12417,21.116376 -2.975328,0.135114 c 0,0 1.500717,-1.567392 4.349045,-1.942042 z"
       style="fill:#ffd6bd;fill-opacity:1;fill-rule:evenodd;stroke:none;stroke-width:0.352778"
       id="path13418" />
    <path
       d="m 15.845591,21.384063 c 0,0 -1.724025,0.519289 -3.659364,2.262364 l 0.42157,-1.373717 c 0,0 1.819275,-2.296936 4.431947,-3.11538 0,0 -0.482953,0.681566 -0.805392,1.123244 -0.322792,0.441325 -0.388761,1.103489 -0.388761,1.103489"
       style="fill:#ffd6bd;fill-opacity:1;fill-rule:evenodd;stroke:none;stroke-width:0.352778"
       id="path13434" />
    <path
       d="m 30.786965,21.853963 2.459214,1.052336 0.998008,-1.306689 -3.027891,-0.197908 z"
       style="fill:#ffd6bd;fill-opacity:1;fill-rule:evenodd;stroke:none;stroke-width:0.352778"
       id="path13450" />
    <path
       d="m 6.216557,6.0337501 c 0,0 4.237567,-1.8633722 7.396692,-0.5062361 l -0.05539,-1.6883944 c 0,0 -1.74378,0.1986139 -4.262966,0.7284861 C 6.775001,5.0971251 4.173265,4.2804446 4.173265,4.2804446 c 0,0 1.387828,0.8583083 2.043289,1.7533055"
       style="fill:#ffd6bd;fill-opacity:1;fill-rule:evenodd;stroke:none;stroke-width:0.352778"
       id="path13466" />
    <path
       d="m 42.72458,4.4019765 c 0,0 0.58244,1.1228916 1.51659,1.6315972 0.9338,0.5090583 4.80413,0.3767666 4.80413,0.3767666 L 50.29484,5.7993292 48.544,7.9615042 c 0,0 -2.9277,-1.0212916 -4.03119,-1.2199055 -1.10349,-0.1989667 -1.68769,0 -1.68769,0 z"
       style="fill:#ffd6bd;fill-opacity:1;fill-rule:evenodd;stroke:none;stroke-width:0.352778"
       id="path13482" />
  </g>
  <g id="gr_mouth" class="covered pointer-cursor">
    <path
       d="m 27.137867,53.130359 c 2.909711,0 4.675716,-2.592564 4.675716,-2.592564 v 0 c 0,0 -4.472516,3.535891 -9.217025,-0.263525 v 0 c 0,0 1.631245,2.856089 4.541309,2.856089"
       style="fill:url(#linearGradient14136);stroke:none;stroke-width:0.352778"
       id="path14138" />
    <path
       d="m 27.004164,52.181034 c 2.833864,0 4.71805,-1.575859 4.71805,-1.575859 v 0 c -4.605161,0.803628 -8.850489,-0.119239 -8.850489,-0.119239 v 0 c 0,0 2.00025,1.695098 4.132439,1.695098"
       style="fill:url(#linearGradient14156);stroke:none;stroke-width:0.352778"
       id="path14158" />
    <path
       d="m 27.180553,52.607895 c 1.196269,0 1.944158,-0.738011 1.944158,-0.738011 v 0 c 0,0 -1.924403,0.738363 -3.925358,-0.0441 v 0 c 0,0 0.916164,0.782109 1.9812,0.782109"
       style="fill:url(#radialGradient14180);stroke:none;stroke-width:0.352778"
       id="path14182" />
  </g>
  <g id="gr_eyes" class="covered pointer-cursor">
    <path
       d="m 22.497781,41.533495 c 0,0 1.022702,-6.243108 -3.781072,-7.702903 -4.738511,-1.440391 -6.099528,4.067881 -6.099528,4.067881 z"
       style="opacity:0.5;fill:url(#linearGradient10572);stroke:none;stroke-width:0.352778"
       id="path10574" />
    <path
       d="m 22.025764,43.683675 c 0,0 -1.514475,1.916642 -4.876447,1.381125 -3.995561,-0.636058 -4.6355,-1.78188 -5.000978,-2.295172 l 0.569736,-0.437091 z"
       style="opacity:0.300003;fill:url(#linearGradient10606);stroke:none;stroke-width:0.352778"
       id="path10608" />
    <path
       d="m 12.42915,39.237264 10.004425,1.229078 c 0,0 -7.05e-4,-5.47123 -5.085997,-6.504869 v 0 c -0.440619,-0.08961 -0.849842,-0.130881 -1.227667,-0.130881 v 0 c -3.736269,-3.53e-4 -4.473927,4.0386 -3.690761,5.406672"
       style="fill:url(#linearGradient10638);stroke:none;stroke-width:0.352778"
       id="path10640" />
    <path
       d="m 16.41695,34.658562 c -5.714294,0.528108 -3.629377,7.954786 -3.629377,7.954786 v 0 c 0,0 1.071386,1.251302 2.572102,1.711325 v 0 c 4.32435,1.326091 6.529917,-0.4572 6.666089,-0.640998 v 0 c 1.144058,-1.5494 0.47625,-9.052277 -5.016853,-9.052983 v 0 c -0.191558,0 -0.388408,0.0092 -0.591961,0.02787"
       style="fill:url(#radialGradient10662);stroke:none;stroke-width:0.352778"
       id="path10664" />
    <path
       d="m 15.1914,41.185303 c 0,1.823509 1.478492,3.301295 3.302,3.301295 v 0 c 1.823509,0 3.302,-1.477786 3.302,-3.301295 v 0 c 0,-1.823508 -1.478491,-3.301647 -3.302,-3.301647 v 0 c -1.823508,0 -3.302,1.478139 -3.302,3.301647"
       style="fill:url(#linearGradient1618);stroke:none;stroke-width:0.352778;fill-opacity:1.0"
       id="path10686" />
    <path
       d="m 16.446407,41.185092 c 0,1.130653 0.916517,2.047169 2.047169,2.047169 1.130653,0 2.046817,-0.916516 2.046817,-2.047169 0,-1.130653 -0.916164,-2.047169 -2.046817,-2.047169 -1.130652,0 -2.047169,0.916516 -2.047169,2.047169"
       style="opacity:0.679993;fill:#1f2b2e;fill-opacity:1;fill-rule:nonzero;stroke:none;stroke-width:0.352778"
       id="path10704" />
    <path
       d="m 22.49771,42.079418 c 0,0 -1.157111,1.958269 -1.957211,2.407356 0,0 1.053747,-0.349603 1.485194,-0.803275 0.267053,-0.280812 0.472017,-1.604081 0.472017,-1.604081"
       style="opacity:0.800003;fill:#e56595;fill-opacity:1;fill-rule:nonzero;stroke:none;stroke-width:0.352778"
       id="path10720" />
    <path
       d="m 14.920926,39.626696 c 0,0.375003 0.304094,0.679097 0.679097,0.679097 0.375003,0 0.679097,-0.304094 0.679097,-0.679097 0,-0.375003 -0.304094,-0.679097 -0.679097,-0.679097 -0.375003,0 -0.679097,0.304094 -0.679097,0.679097"
       style="fill:#ffffff;fill-opacity:1;fill-rule:nonzero;stroke:none;stroke-width:0.352778"
       id="path10730" />
    <path
       d="m 31.813583,41.533495 c 0,0 -1.022702,-6.243108 3.781072,-7.702903 4.738159,-1.440391 6.099528,4.067881 6.099528,4.067881 z"
       style="opacity:0.5;fill:url(#linearGradient10750);stroke:none;stroke-width:0.352778"
       id="path10752" />
    <path
       d="m 32.2856,43.683675 c 0,0 1.514475,1.916642 4.876447,1.381125 3.995208,-0.636058 4.6355,-1.78188 5.000978,-2.295172 l -0.569736,-0.437091 z"
       style="opacity:0.300003;fill:url(#linearGradient10784);stroke:none;stroke-width:0.352778"
       id="path10786" />
    <path
       d="m 36.96308,33.961473 c -5.084586,1.033639 -5.085291,6.504869 -5.085291,6.504869 v 0 l 10.004072,-1.229078 c 0.783519,-1.368072 0.04621,-5.407025 -3.690761,-5.406672 v 0 c -0.377825,0 -0.787047,0.04127 -1.22802,0.130881"
       style="fill:url(#linearGradient10816);stroke:none;stroke-width:0.352778"
       id="path10818" />
    <path
       d="m 32.2856,43.683675 c 0.136172,0.183798 2.341739,1.967089 6.665736,0.640998 v 0 c 1.500717,-0.460023 2.572808,-1.711325 2.572808,-1.711325 v 0 c 0,0 2.084211,-7.426678 -3.630436,-7.954786 v 0 c -0.2032,-0.0187 -0.40005,-0.02787 -0.591608,-0.02787 v 0 c -5.492397,7.06e-4 -6.160558,7.503583 -5.0165,9.052983"
       style="fill:url(#radialGradient10840);stroke:none;stroke-width:0.352778"
       id="path10842" />
    <path
       d="m 32.515964,41.185303 c 0,1.823509 1.478139,3.301295 3.302,3.301295 v 0 c 1.823508,0 3.301294,-1.477786 3.301294,-3.301295 v 0 c 0,-1.823508 -1.477786,-3.301647 -3.301294,-3.301647 v 0 c -1.823861,0 -3.302,1.478139 -3.302,3.301647"
       style="fill:url(#linearGradient1620);stroke:none;stroke-width:0.352778;fill-opacity:1"
       id="path10864" />
    <path
       d="m 37.864921,41.185092 c 0,1.130653 -0.916517,2.047169 -2.047169,2.047169 -1.130653,0 -2.046817,-0.916516 -2.046817,-2.047169 0,-1.130653 0.916164,-2.047169 2.046817,-2.047169 1.130652,0 2.047169,0.916516 2.047169,2.047169"
       style="opacity:0.679993;fill:#1f2b2e;fill-opacity:1;fill-rule:nonzero;stroke:none;stroke-width:0.352778"
       id="path10882" />
    <path
       d="m 31.813583,42.079418 c 0,0 1.157111,1.958269 1.957211,2.407356 0,0 -1.053747,-0.349603 -1.485194,-0.803275 -0.267053,-0.280812 -0.472017,-1.604081 -0.472017,-1.604081"
       style="opacity:0.800003;fill:#e56595;fill-opacity:1;fill-rule:nonzero;stroke:none;stroke-width:0.352778"
       id="path10898" />
    <path
       d="m 39.390075,39.626698 c 0,0.375003 -0.303742,0.679097 -0.679097,0.679097 -0.37465,0 -0.679097,-0.304094 -0.679097,-0.679097 0,-0.375003 0.304447,-0.679097 0.679097,-0.679097 0.375355,0 0.679097,0.304094 0.679097,0.679097"
       style="fill:#ffffff;fill-opacity:1;fill-rule:nonzero;stroke:none;stroke-width:0.352778"
       id="path10908" />
  </g>
  <g id="gr_eyebrows" class="covered pointer-cursor">
    <path
       d="m 32.424813,29.632275 0.485568,-0.06491 0.906938,-0.777122 -0.517845,0.744845 c 0,0 0.938505,-0.161737 3.626685,0.03228 v 0 c 2.688181,0.194369 4.955347,1.004122 4.955347,1.004122 v 0 c 0,0 -2.655904,-3.562487 -5.117084,-3.562487 v 0 c -2.461535,0 -4.339609,2.623273 -4.339609,2.623273"
       style="fill:#623232;stroke:none;stroke-width:0.354688"
       id="path12828" />
    <path
       d="m 13.164188,30.571489 c 0,0 2.267166,-0.809753 4.954992,-1.004122 v 0 c 2.688536,-0.194014 3.627395,-0.03228 3.627395,-0.03228 v 0 l -0.517845,-0.744845 0.906583,0.777122 0.485923,0.06491 c 0,0 -1.878428,-2.623273 -4.339963,-2.623273 v 0 c -2.461181,0 -5.117085,3.562487 -5.117085,3.562487"
       style="fill:#623232;stroke:none;stroke-width:0.354688"
       id="path12928" />
  </g>
</svg>
