<svg viewBox="0 0 14.49 15.7" xmlns="http://www.w3.org/2000/svg">
  <defs>
    <linearGradient id="linearGradient9812" x2="1" gradientTransform="matrix(0 -4.202 -4.202 0 12.79 4.207)" gradientUnits="userSpaceOnUse">
      <stop stop-color="#ef4827" offset="0"/>
      <stop stop-color="#ef4827" offset=".0468"/>
      <stop stop-color="#d2312c" offset=".9665"/>
      <stop stop-color="#d2312c" offset="1"/>
    </linearGradient>
    <linearGradient id="linearGradient9836" x2="1" gradientTransform="matrix(0 -7.027 -7.027 0 10.06 9.872)" gradientUnits="userSpaceOnUse">
      <stop stop-color="#b8222c" offset="0"/>
      <stop stop-color="#b8222c" offset=".03352"/>
      <stop stop-color="#cf2e2c" offset=".9532"/>
      <stop stop-color="#cf2e2c" offset="1"/>
    </linearGradient>
    <linearGradient id="linearGradient9856" x2="1" gradientTransform="matrix(0 -.9141 -.9141 0 11.74 3.773)" gradientUnits="userSpaceOnUse">
      <stop stop-color="#ff9600" offset="0"/>
      <stop stop-color="#ffb300" offset="1"/>
    </linearGradient>
    <linearGradient id="linearGradient9920" x2="1" gradientTransform="matrix(0 -4.202 4.202 0 1.795 4.207)" gradientUnits="userSpaceOnUse">
      <stop stop-color="#ef4827" offset="0"/>
      <stop stop-color="#ef4827" offset=".0468"/>
      <stop stop-color="#d2312c" offset=".9665"/>
      <stop stop-color="#d2312c" offset="1"/>
    </linearGradient>
    <linearGradient id="linearGradient9944" x2="1" gradientTransform="matrix(0 -7.027 7.027 0 4.401 9.872)" gradientUnits="userSpaceOnUse">
      <stop stop-color="#b8222c" offset="0"/>
      <stop stop-color="#b8222c" offset=".03352"/>
      <stop stop-color="#cf2e2c" offset=".9532"/>
      <stop stop-color="#cf2e2c" offset="1"/>
    </linearGradient>
    <linearGradient id="linearGradient9964" x2="1" gradientTransform="matrix(0 -.9141 .9141 0 2.761 3.773)" gradientUnits="userSpaceOnUse">
      <stop stop-color="#ff9600" offset="0"/>
      <stop stop-color="#ffb300" offset="1"/>
    </linearGradient>
    <linearGradient id="linearGradient10180" x2="1" gradientTransform="matrix(0 -11.59 11.59 0 7.222 15.05)" gradientUnits="userSpaceOnUse">
      <stop stop-color="#ff9b86" offset="0"/>
      <stop stop-color="#ff9b86" offset=".03352"/>
      <stop stop-color="#ffa670" offset=".3253"/>
      <stop stop-color="#ffa670" offset=".9532"/>
      <stop stop-color="#ffa670" offset="1"/>
    </linearGradient>
    <linearGradient id="linearGradient10210" x2="1" gradientTransform="matrix(0 -5.048 5.048 0 7.103 8.824)" gradientUnits="userSpaceOnUse">
      <stop stop-color="#fff" offset="0"/>
      <stop stop-color="#ca00a4" offset=".9944"/>
      <stop stop-color="#ca00a4" offset="1"/>
    </linearGradient>
    <linearGradient id="linearGradient10246" x2="1" gradientTransform="matrix(0 -3.074 3.074 0 12.65 12.74)" gradientUnits="userSpaceOnUse">
      <stop stop-color="#ff9b86" offset="0"/>
      <stop stop-color="#ff9b86" offset=".03352"/>
      <stop stop-color="#ffa670" offset=".9532"/>
      <stop stop-color="#ffa670" offset="1"/>
    </linearGradient>
    <linearGradient id="linearGradient10276" x2="1" gradientTransform="matrix(.866 -1.499 1.499 .866 12.16 12.01)" gradientUnits="userSpaceOnUse">
      <stop stop-color="#fff" offset="0"/>
      <stop stop-color="#ca00a4" offset=".9944"/>
      <stop stop-color="#ca00a4" offset="1"/>
    </linearGradient>
    <linearGradient id="linearGradient10310" x2="1" gradientTransform="matrix(.5868 -1.017 1.017 .5868 12.02 11.91)" gradientUnits="userSpaceOnUse">
      <stop stop-color="#fff" offset="0"/>
      <stop stop-color="#ca00a4" offset=".9944"/>
      <stop stop-color="#ca00a4" offset="1"/>
    </linearGradient>
    <linearGradient id="linearGradient10344" x2="1" gradientTransform="matrix(.5154 -.8924 .8924 .5154 11.95 12.79)" gradientUnits="userSpaceOnUse">
      <stop stop-color="#ca00a4" offset="0"/>
      <stop stop-color="#ca00a4" offset=".005587"/>
      <stop stop-color="#fff" offset="1"/>
    </linearGradient>
    <linearGradient id="linearGradient10380" x2="1" gradientTransform="matrix(0 -3.074 -3.074 0 1.774 12.74)" gradientUnits="userSpaceOnUse">
      <stop stop-color="#ff9b86" offset="0"/>
      <stop stop-color="#ff9b86" offset=".03352"/>
      <stop stop-color="#ffa670" offset=".9532"/>
      <stop stop-color="#ffa670" offset="1"/>
    </linearGradient>
    <linearGradient id="linearGradient10410" x2="1" gradientTransform="matrix(-.866 -1.499 -1.499 .866 2.216 12.01)" gradientUnits="userSpaceOnUse">
      <stop stop-color="#fff" offset="0"/>
      <stop stop-color="#ca00a4" offset=".9944"/>
      <stop stop-color="#ca00a4" offset="1"/>
    </linearGradient>
    <linearGradient id="linearGradient10444" x2="1" gradientTransform="matrix(-.5871 -1.017 -1.017 .5871 2.406 11.91)" gradientUnits="userSpaceOnUse">
      <stop stop-color="#fff" offset="0"/>
      <stop stop-color="#ca00a4" offset=".9944"/>
      <stop stop-color="#ca00a4" offset="1"/>
    </linearGradient>
    <linearGradient id="linearGradient10478" x2="1" gradientTransform="matrix(-.5154 -.8924 -.8924 .5154 2.425 12.79)" gradientUnits="userSpaceOnUse">
      <stop stop-color="#ca00a4" offset="0"/>
      <stop stop-color="#ca00a4" offset=".005587"/>
      <stop stop-color="#fff" offset="1"/>
    </linearGradient>
    <linearGradient id="linearGradient10572" x2="1" gradientTransform="matrix(-2.638 0 0 2.638 5.968 9.935)" gradientUnits="userSpaceOnUse">
      <stop stop-color="#fff" offset="0"/>
      <stop stop-color="#ca00a4" offset=".9944"/>
      <stop stop-color="#ca00a4" offset="1"/>
    </linearGradient>
    <linearGradient id="linearGradient10606" x2="1" gradientTransform="matrix(-2.613 0 0 2.613 5.822 11.57)" gradientUnits="userSpaceOnUse">
      <stop stop-color="#fff" offset="0"/>
      <stop stop-color="#ca00a4" offset=".9944"/>
      <stop stop-color="#ca00a4" offset="1"/>
    </linearGradient>
    <linearGradient id="linearGradient10638" x2="1" gradientTransform="matrix(0 -1.756 -1.756 0 4.568 10.71)" gradientUnits="userSpaceOnUse">
      <stop stop-color="#64003c" offset="0"/>
      <stop stop-color="#a6252f" offset="1"/>
    </linearGradient>
    <radialGradient id="radialGradient10662" cx="95229" cy="14846" r="3930" gradientTransform="matrix(.2633 0 0 .2659 -1.949 .005289)" gradientUnits="userSpaceOnUse">
      <stop stop-color="#fff0eb" offset="0"/>
      <stop stop-color="#fff0eb" offset=".03352"/>
      <stop stop-color="#ffe7e9" offset=".9773"/>
      <stop stop-color="#ffe7e9" offset="1"/>
    </radialGradient>
    <linearGradient id="linearGradient10684" x2="1" gradientTransform="matrix(0 -1.747 1.747 0 4.883 11.77)" gradientUnits="userSpaceOnUse">
      <stop stop-color="#8c7c4c" offset="0"/>
      <stop stop-color="#8c7c4c" offset=".01599"/>
      <stop stop-color="#514c4e" offset="1"/>
    </linearGradient>
    <linearGradient id="linearGradient10750" x2="1" gradientTransform="matrix(2.638 0 0 2.638 8.383 9.935)" gradientUnits="userSpaceOnUse">
      <stop stop-color="#fff" offset="0"/>
      <stop stop-color="#ca00a4" offset=".9944"/>
      <stop stop-color="#ca00a4" offset="1"/>
    </linearGradient>
    <linearGradient id="linearGradient10784" x2="1" gradientTransform="matrix(2.613 0 0 2.613 8.537 11.57)" gradientUnits="userSpaceOnUse">
      <stop stop-color="#fff" offset="0"/>
      <stop stop-color="#ca00a4" offset=".9944"/>
      <stop stop-color="#ca00a4" offset="1"/>
    </linearGradient>
    <linearGradient id="linearGradient10816" x2="1" gradientTransform="matrix(0 -1.756 1.756 0 9.783 10.71)" gradientUnits="userSpaceOnUse">
      <stop stop-color="#64003c" offset="0"/>
      <stop stop-color="#a6252f" offset="1"/>
    </linearGradient>
    <radialGradient id="radialGradient10840" cx="103009" cy="14846" r="3930" gradientTransform="matrix(.2633 0 0 .2659 -1.949 .005289)" gradientUnits="userSpaceOnUse">
      <stop stop-color="#fff0eb" offset="0"/>
      <stop stop-color="#fff0eb" offset=".03352"/>
      <stop stop-color="#ffe7e9" offset=".9773"/>
      <stop stop-color="#ffe7e9" offset="1"/>
    </radialGradient>
    <linearGradient id="linearGradient10862" x2="1" gradientTransform="matrix(0 -1.747 -1.747 0 9.503 11.77)" gradientUnits="userSpaceOnUse">
      <stop stop-color="#8c7c4c" offset="0"/>
      <stop stop-color="#8c7c4c" offset=".01599"/>
      <stop stop-color="#514c4e" offset="1"/>
    </linearGradient>
    <linearGradient id="linearGradient10928" x2="1" gradientTransform="matrix(0 -.6858 .6858 0 7.222 12.83)" gradientUnits="userSpaceOnUse">
      <stop stop-color="#ca00a4" offset="0"/>
      <stop stop-color="#ca00a4" offset=".005587"/>
      <stop stop-color="#ffd3c4" offset="1"/>
    </linearGradient>
    <linearGradient id="linearGradient11010" x2="1" gradientTransform="matrix(0 -.5966 .5966 0 6.222 12.46)" gradientUnits="userSpaceOnUse">
      <stop stop-color="#ffc2b3" offset="0"/>
      <stop stop-color="#ca00a4" offset=".9944"/>
      <stop stop-color="#ca00a4" offset="1"/>
    </linearGradient>
    <linearGradient id="linearGradient11044" x2="1" gradientTransform="matrix(0 -.5966 .5966 0 8.209 12.46)" gradientUnits="userSpaceOnUse">
      <stop stop-color="#ffc2b3" offset="0"/>
      <stop stop-color="#ca00a4" offset=".9944"/>
      <stop stop-color="#ca00a4" offset="1"/>
    </linearGradient>
    <linearGradient id="linearGradient12754" x2="1" gradientTransform="matrix(0 -2.078 2.078 0 9.574 9.467)" gradientUnits="userSpaceOnUse">
      <stop stop-color="#fff" offset="0"/>
      <stop stop-color="#fff" offset=".2514"/>
      <stop stop-color="#ca00a4" offset=".9944"/>
      <stop stop-color="#ca00a4" offset="1"/>
    </linearGradient>
    <linearGradient id="linearGradient12790" x2="1" gradientTransform="matrix(0 -2.078 -2.078 0 4.576 9.467)" gradientUnits="userSpaceOnUse">
      <stop stop-color="#fff" offset="0"/>
      <stop stop-color="#fff" offset=".2514"/>
      <stop stop-color="#ca00a4" offset=".9944"/>
      <stop stop-color="#ca00a4" offset="1"/>
    </linearGradient>
    <linearGradient id="linearGradient12826" x2="1" gradientTransform="matrix(0 -.9374 .9374 0 9.574 8.025)" gradientUnits="userSpaceOnUse">
      <stop stop-color="#ff9845" offset="0"/>
      <stop stop-color="#ff9845" offset=".0468"/>
      <stop stop-color="#f95c2c" offset=".9665"/>
      <stop stop-color="#f95c2c" offset="1"/>
    </linearGradient>
    <linearGradient id="linearGradient12856" x2="1" gradientTransform="matrix(0 -.495 .495 0 9.365 7.752)" gradientUnits="userSpaceOnUse">
      <stop stop-color="#fff" offset="0"/>
      <stop stop-color="#ca00a4" offset=".9944"/>
      <stop stop-color="#ca00a4" offset="1"/>
    </linearGradient>
    <linearGradient id="linearGradient12890" x2="1" gradientTransform="matrix(0 -.3273 .3273 0 9.643 7.736)" gradientUnits="userSpaceOnUse">
      <stop stop-color="#fff" offset="0"/>
      <stop stop-color="#ca00a4" offset=".9944"/>
      <stop stop-color="#ca00a4" offset="1"/>
    </linearGradient>
    <linearGradient id="linearGradient12926" x2="1" gradientTransform="matrix(0 -.9374 -.9374 0 4.534 8.025)" gradientUnits="userSpaceOnUse">
      <stop stop-color="#ff9845" offset="0"/>
      <stop stop-color="#ff9845" offset=".0468"/>
      <stop stop-color="#f95c2c" offset=".9665"/>
      <stop stop-color="#f95c2c" offset="1"/>
    </linearGradient>
    <linearGradient id="linearGradient12956" x2="1" gradientTransform="matrix(0 -.495 -.495 0 4.793 7.752)" gradientUnits="userSpaceOnUse">
      <stop stop-color="#fff" offset="0"/>
      <stop stop-color="#ca00a4" offset=".9944"/>
      <stop stop-color="#ca00a4" offset="1"/>
    </linearGradient>
    <linearGradient id="linearGradient12990" x2="1" gradientTransform="matrix(0 -.3273 -.3273 0 4.462 7.736)" gradientUnits="userSpaceOnUse">
      <stop stop-color="#fff" offset="0"/>
      <stop stop-color="#ca00a4" offset=".9944"/>
      <stop stop-color="#ca00a4" offset="1"/>
    </linearGradient>
    <linearGradient id="linearGradient13094" x2="1" gradientTransform="matrix(0 -.4188 .4188 0 2.398 10.05)" gradientUnits="userSpaceOnUse">
      <stop stop-color="#ef5c45" offset="0"/>
      <stop stop-color="#ef5c45" offset=".0468"/>
      <stop stop-color="#b8312c" offset=".9665"/>
      <stop stop-color="#b8312c" offset="1"/>
    </linearGradient>
    <linearGradient id="linearGradient13118" x2="1" gradientTransform="matrix(0 -7.422 7.422 0 7.137 10.66)" gradientUnits="userSpaceOnUse">
      <stop stop-color="#ef4827" offset="0"/>
      <stop stop-color="#ef4827" offset=".0468"/>
      <stop stop-color="#e1312c" offset=".9665"/>
      <stop stop-color="#e1312c" offset="1"/>
    </linearGradient>
    <linearGradient id="linearGradient13142" x2="1" gradientTransform="matrix(0 -5.043 5.043 0 2.118 15.7)" gradientUnits="userSpaceOnUse">
      <stop stop-color="#ef5c45" offset="0"/>
      <stop stop-color="#ef5c45" offset=".0468"/>
      <stop stop-color="#b8312c" offset=".9665"/>
      <stop stop-color="#b8312c" offset="1"/>
    </linearGradient>
    <linearGradient id="linearGradient13166" x2="1" gradientTransform="matrix(0 -4.911 4.911 0 12.51 15.57)" gradientUnits="userSpaceOnUse">
      <stop stop-color="#ef5c45" offset="0"/>
      <stop stop-color="#ef5c45" offset=".0468"/>
      <stop stop-color="#b8312c" offset=".9665"/>
      <stop stop-color="#b8312c" offset="1"/>
    </linearGradient>
    <linearGradient id="linearGradient13264" x2="1" gradientTransform="matrix(1.483 0 0 1.483 2.56 6.694)" gradientUnits="userSpaceOnUse">
      <stop stop-color="#cc00bf" offset="0"/>
      <stop stop-color="#cc00bf" offset=".005587"/>
      <stop stop-color="#fff" offset="1"/>
    </linearGradient>
    <linearGradient id="linearGradient13298" x2="1" gradientTransform="matrix(2.958 0 0 2.958 3.938 5.588)" gradientUnits="userSpaceOnUse">
      <stop stop-color="#cc00bf" offset="0"/>
      <stop stop-color="#cc00bf" offset=".005587"/>
      <stop stop-color="#fff" offset="1"/>
    </linearGradient>
    <linearGradient id="linearGradient13382" x2="1" gradientTransform="matrix(0 -2.538 2.538 0 10.76 2.902)" gradientUnits="userSpaceOnUse">
      <stop stop-color="#ef4827" offset="0"/>
      <stop stop-color="#ef4827" offset=".0468"/>
      <stop stop-color="#d2312c" offset=".9665"/>
      <stop stop-color="#d2312c" offset="1"/>
    </linearGradient>
    <linearGradient id="linearGradient14136" x2="1" gradientTransform="matrix(0 -.7554 .7554 0 7.193 14.06)" gradientUnits="userSpaceOnUse">
      <stop stop-color="#8b1a41" offset="0"/>
      <stop stop-color="#64003c" offset="1"/>
    </linearGradient>
    <linearGradient id="linearGradient14156" x2="1" gradientTransform="matrix(.2744 .8289 -.8289 .2744 7.095 13.01)" gradientUnits="userSpaceOnUse">
      <stop stop-color="#ff6641" offset="0"/>
      <stop stop-color="#b8003c" offset="1"/>
    </linearGradient>
    <radialGradient id="radialGradient14180" cx="1369" cy="1740" r="20.34" gradientTransform="matrix(.5928 0 0 .1181 -1.949 .005289)" gradientUnits="userSpaceOnUse">
      <stop stop-color="#fff0eb" offset="0"/>
      <stop stop-color="#fff0eb" offset=".03352"/>
      <stop stop-color="#ffe7e9" offset=".9773"/>
      <stop stop-color="#ffe7e9" offset="1"/>
    </radialGradient>
  </defs>
  <g transform="translate(-.0009937 -.006004)">
    <path d="m13.84 0.9282 0.1985 0.4524-1.605 1.259 0.5133-1.11z" fill="#b01c33" style="fill-rule:evenodd;stroke-width:.07001"/>
    <path d="m11.05 0.1897s0.5554 1.262 0.1126 2.744l1.345 0.7141s1.159-0.1061 1.918 0.5596l0.07001-0.1868s-0.5006-0.6673-2.06-0.5263c0 0 0.6292-0.3127 1.862-1.109 0 0 0.1868-0.4905-0.2569-1.005 0 0-0.1586 0.05593-0.4278 0.2296-0.2865 0.1848-0.6982 0.503-1.177 1.029 0 0 0.8057-1.072 1.406-1.711 0 0-0.8289-0.9221-1.947-0.9221-0.2675 0-0.5511 0.05273-0.8443 0.1835" fill="url(#linearGradient9812)" style="fill:url(#linearGradient9812);stroke-width:.07001"/>
    <path d="m7.201 3.246 0.5247 3.842 4.294 2.783s1.735-1.352 0.5173-6.096c0 0-0.694-0.7337-1.632-0.8975-0.1244-0.02165-0.281-0.03098-0.4591-0.03098-1.164-9.1e-5 -3.244 0.4022-3.244 0.4022" fill="url(#linearGradient9836)" style="fill:url(#linearGradient9836);stroke-width:.07001"/>
    <path d="m10.9 2.876s0.9332 0.2066 1.632 0.8975c0 0-0.1758-0.9141-1.344-0.9141-0.09009 0-0.1859 0.00541-0.2881 0.01708" fill="url(#linearGradient9856)" style="fill:url(#linearGradient9856);stroke-width:.07001"/>
    <path d="m12.09 3.389s0.2223 1.31-0.1215 2.13l-0.216-0.2525s0.4535-0.458 0.3373-1.877" fill="#de658b" fill-rule="evenodd" opacity=".68" style="stroke-width:.07001"/>
    <path d="m12.3 3.545s1.031 2.863 0.1484 4.339c0 0 0.6906-1.75-0.1484-4.339" fill="#de658b" fill-rule="evenodd" opacity=".68" style="stroke-width:.07001"/>
    <path d="m0.6551 0.9282c1.11 0.5255 1.406 1.711 1.406 1.711-0.6138-1.194-1.605-1.259-1.605-1.259-0.4437 0.5138-0.257 1.005-0.257 1.005 1.378-0.1868 1.862 1.109 1.862 1.109-1.56-0.1409-2.06 0.5263-2.06 0.5263l0.07006 0.1868c0.7588-0.6657 1.918-0.5596 1.918-0.5596l1.345-0.7141c0.5181-1.507 0.1126-2.744 0.1126-2.744-0.2932-0.1308-0.5768-0.1835-0.8443-0.1835-1.118 1.889e-4 -1.947 0.9221-1.947 0.9221" fill="url(#linearGradient9920)" style="fill:url(#linearGradient9920);stroke-width:.07001"/>
    <path d="m3.581 2.876c-0.9379 0.1636-1.632 0.8975-1.632 0.8975-1.217 4.744 0.5173 6.096 0.5173 6.096l4.294-2.783 0.5247-3.842s-2.08-0.4024-3.244-0.4022c-0.1778 0-0.3344 0.00933-0.4588 0.03098" fill="url(#linearGradient9944)" style="fill:url(#linearGradient9944);stroke-width:.07001"/>
    <path d="m1.951 3.773c0.6996-0.6908 1.632-0.8975 1.632-0.8975-0.1023-0.01167-0.198-0.01708-0.2881-0.01708-1.168 9.1e-5 -1.344 0.9141-1.344 0.9141" fill="url(#linearGradient9964)" style="fill:url(#linearGradient9964);stroke-width:.07001"/>
    <path d="m2.398 6.413c-0.3725 1.303 0.06469 5.128 0.6252 6.49 0 0 0 9.26e-4 9.261e-4 9.26e-4 0.05487 0.1349 0.1115 0.2455 0.1691 0.3273 0.4958 0.707 1.999 1.436 3.154 1.707l0.00448 8.46e-4c0.3265 0.07736 0.6255 0.1171 0.8647 0.1098 0.2402 0.0072 0.5398-0.03249 0.8681-0.1107h0.00188c1.154-0.2717 2.656-1 3.154-1.707 0.04686-0.06665 0.09268-0.1521 0.1386-0.2546v-9.26e-4c0.5757-1.294 1.036-5.236 0.6567-6.562-0.4085-1.432-3.522-2.91-4.818-2.955-1.296 0.04498-4.408 1.522-4.818 2.955" fill="url(#linearGradient10180)" style="fill:url(#linearGradient10180);stroke-width:.07001"/>
    <path d="m2.441 8.824s1.062-2.887 4.778-2.887c3.716 0 4.604 2.238 4.604 2.238l-0.05919-1.999s-1.814-2.23-3.482-2.387c-1.667-0.1581-4.098 1.228-4.098 1.228l-1.078 0.7498-0.7287 1.148z" fill="url(#linearGradient10210)" opacity=".3" style="fill:url(#linearGradient10210);stroke-width:.07001"/>
    <path d="m11.95 10.07-0.3895 2.141s0.01549 0.3786 0.2038 0.477c0.1882 0.09856 0.8996 0.1145 1.473-0.6562 0.5736-0.7707 0.5437-2.107-0.1017-2.322-0.1016-0.03379-0.2005-0.04808-0.295-0.04808-0.5067 0-0.8906 0.4088-0.8906 0.4088" fill="url(#linearGradient10246)" style="fill:url(#linearGradient10246);stroke-width:.07001"/>
    <path d="m11.88 11.01s0.4318-0.5683 0.9996-0.5567c0.5681 0.01129 0.7244 1.29-0.06813 1.784 0 0 0.3437-0.2017 0.3183-0.7895-0.02562-0.5879-0.3413-0.7498-0.5117-0.6477-0.1703 0.1023 0.1877 0.3323 0.1537 0.7498-0.03408 0.4175-0.3323 0.5625-0.5371 0.4773-0.2045-0.0852 0.0938-0.6244 0.01708-0.8324-0.07665-0.2078-0.3723-0.1321-0.3723-0.1321z" fill="url(#linearGradient10276)" opacity=".3" style="fill-rule:evenodd;fill:url(#linearGradient10276);stroke-width:.07001"/>
    <path d="m11.88 11.01s0.2187-0.2486 0.4575-0.2358c0.2387 0.01288 0.3987 0.3799 0.436 0.7546 0.03704 0.3746-0.4609 0.658-0.572 0.476-0.111-0.1822 0.119-0.6062 0.05088-0.8099-0.06824-0.2035-0.3723-0.1321-0.3723-0.1321z" fill="url(#linearGradient10310)" opacity=".3" style="fill-rule:evenodd;fill:url(#linearGradient10310);stroke-width:.07001"/>
    <path d="m11.6 12.31 0.07205-0.3577s0.07337 0.5821 0.4516 0.6477c0.5075 0.088 0.9655-0.3609 0.9655-0.3609s-0.3627 0.3895-0.7707 0.4625c-0.4077 0.07308-0.6583 0.05125-0.7183-0.3916" fill="url(#linearGradient10344)" opacity=".5" style="fill-rule:evenodd;fill:url(#linearGradient10344);stroke-width:.07001"/>
    <path d="m1.242 9.713c-0.6453 0.2151-0.6752 1.551-0.1017 2.322 0.5736 0.7707 1.285 0.7546 1.473 0.6562 0.1883-0.09856 0.2038-0.477 0.2038-0.477l-0.3895-2.141s-0.3836-0.4088-0.8906-0.4088c-0.09464 0-0.1935 0.01428-0.295 0.04808" fill="url(#linearGradient10380)" style="fill:url(#linearGradient10380);stroke-width:.07001"/>
    <path d="m2.531 11.01s-0.4318-0.5683-1-0.5567c-0.5681 0.01129-0.7244 1.29 0.06824 1.784 0 0-0.3437-0.2017-0.318-0.7895 0.02548-0.5879 0.3413-0.7498 0.5114-0.6477 0.1703 0.1023-0.1878 0.3323-0.1537 0.7498 0.03416 0.4175 0.3323 0.5625 0.5371 0.4773 0.2045-0.0852-0.0938-0.6244-0.01708-0.8324 0.07673-0.2078 0.3723-0.1321 0.3723-0.1321z" fill="url(#linearGradient10410)" opacity=".3" style="fill-rule:evenodd;fill:url(#linearGradient10410);stroke-width:.07001"/>
    <path d="m2.531 11.01s-0.2187-0.2486-0.4575-0.2358c-0.2387 0.01288-0.3987 0.3799-0.436 0.7546-0.03715 0.3746 0.4609 0.658 0.572 0.476 0.1111-0.1822-0.1191-0.6062-0.05088-0.8099 0.06813-0.2035 0.3723-0.1321 0.3723-0.1321z" fill="url(#linearGradient10444)" opacity=".3" style="fill-rule:evenodd;fill:url(#linearGradient10444);stroke-width:.07001"/>
    <path d="m2.803 12.31-0.07197-0.3577s-0.07337 0.5821-0.4516 0.6477c-0.5075 0.088-0.9655-0.3609-0.9655-0.3609s0.3627 0.3895 0.7707 0.4625c0.408 0.07308 0.6583 0.05125 0.7183-0.3916" fill="url(#linearGradient10478)" opacity=".5" style="fill-rule:evenodd;fill:url(#linearGradient10478);stroke-width:.07001"/>
    <path d="m5.947 10.99s0.2707-1.652-1-2.038c-1.254-0.381-1.614 1.076-1.614 1.076z" fill="url(#linearGradient10572)" opacity=".5" style="fill:url(#linearGradient10572);stroke-width:.07001"/>
    <path d="m5.822 11.56s-0.4006 0.5072-1.29 0.3654c-1.057-0.1683-1.227-0.4715-1.323-0.6072l0.1507-0.1156z" fill="url(#linearGradient10606)" opacity=".3" style="fill:url(#linearGradient10606);stroke-width:.07001"/>
    <path d="m3.28 10.38 2.646 0.3252s-2.101e-4 -1.448-1.345-1.721c-0.1165-0.02371-0.2248-0.03463-0.3249-0.03463-0.9885-7.01e-5 -1.184 1.068-0.9766 1.43" fill="url(#linearGradient10638)" style="fill:url(#linearGradient10638);stroke-width:.07001"/>
    <path d="m4.338 9.173c-1.512 0.1397-0.9604 2.105-0.9604 2.105s0.2834 0.331 0.6805 0.4527c1.144 0.3508 1.728-0.121 1.763-0.1696 0.3027-0.4098 0.126-2.395-1.327-2.396-0.05069 0-0.1028 0.00243-0.1566 0.00737" fill="url(#radialGradient10662)" style="fill:url(#radialGradient10662);stroke-width:.07001"/>
    <path d="m4.015 10.9c0 0.4826 0.3911 0.8737 0.8737 0.8737s0.8737-0.3911 0.8737-0.8737-0.3911-0.8737-0.8737-0.8737-0.8737 0.3911-0.8737 0.8737" fill="url(#linearGradient10684)" style="fill:url(#linearGradient10684);stroke-width:.07001"/>
    <path d="m4.343 10.9c0 0.2992 0.2425 0.5416 0.5416 0.5416 0.2992 0 0.5416-0.2425 0.5416-0.5416 0-0.2992-0.2424-0.5416-0.5416-0.5416-0.2992 0-0.5416 0.2425-0.5416 0.5416" fill="#a16595" opacity=".68" style="stroke-width:.07001"/>
    <path d="m5.947 11.13s-0.3061 0.5181-0.5178 0.6369c0 0 0.2789-0.09247 0.3929-0.2125 0.07064-0.07427 0.1249-0.4244 0.1249-0.4244" fill="#e56595" opacity=".8" style="stroke-width:.07001"/>
    <path d="m3.938 10.48c0 0.09919 0.08043 0.1797 0.1797 0.1797 0.09919 0 0.1797-0.08043 0.1797-0.1797 0-0.09927-0.08043-0.1797-0.1797-0.1797-0.09919 0-0.1797 0.08043-0.1797 0.1797" fill="#fff" style="stroke-width:.07001"/>
    <path d="m8.412 10.99s-0.2707-1.652 1-2.038c1.254-0.381 1.614 1.076 1.614 1.076z" fill="url(#linearGradient10750)" opacity=".5" style="fill:url(#linearGradient10750);stroke-width:.07001"/>
    <path d="m8.537 11.56s0.4006 0.5072 1.29 0.3654c1.057-0.1683 1.227-0.4715 1.323-0.6072l-0.1507-0.1156z" fill="url(#linearGradient10784)" opacity=".3" style="fill:url(#linearGradient10784);stroke-width:.07001"/>
    <path d="m9.783 8.983c-1.345 0.2736-1.345 1.721-1.345 1.721l2.646-0.3252c0.2073-0.362 0.01223-1.431-0.9766-1.43-0.09996 0-0.2083 0.01092-0.3249 0.03463" fill="url(#linearGradient10816)" style="fill:url(#linearGradient10816);stroke-width:.07001"/>
    <path d="m8.537 11.56c0.03604 0.04863 0.6197 0.5204 1.763 0.1696 0.3971-0.1217 0.6808-0.4527 0.6808-0.4527s0.5514-1.965-0.9604-2.105c-0.05376-0.00495-0.1058-0.00737-0.1565-0.00737-1.453 2.098e-4 -1.63 1.985-1.327 2.396" fill="url(#radialGradient10840)" style="fill:url(#radialGradient10840);stroke-width:.07001"/>
    <path d="m8.592 10.9c0 0.4826 0.3911 0.8737 0.8737 0.8737s0.8737-0.3911 0.8737-0.8737-0.3911-0.8737-0.8737-0.8737-0.8737 0.3911-0.8737 0.8737" fill="url(#linearGradient10862)" style="fill:url(#linearGradient10862);stroke-width:.07001"/>
    <path d="m9.995 10.9c0 0.2992-0.2425 0.5416-0.5416 0.5416-0.2992 0-0.5416-0.2425-0.5416-0.5416 0-0.2992 0.2424-0.5416 0.5416-0.5416 0.2992 0 0.5416 0.2425 0.5416 0.5416" fill="#a16595" opacity=".68" style="stroke-width:.07001"/>
    <path d="m8.412 11.13s0.3061 0.5181 0.5178 0.6369c0 0-0.2789-0.09247-0.3929-0.2125-0.07064-0.07427-0.1249-0.4244-0.1249-0.4244" fill="#e56595" opacity=".8" style="stroke-width:.07001"/>
    <path d="m10.41 10.48c0 0.09919-0.08035 0.1797-0.1797 0.1797-0.09911 0-0.1797-0.08043-0.1797-0.1797 0-0.09927 0.08057-0.1797 0.1797-0.1797 0.09932 0 0.1797 0.08043 0.1797 0.1797" fill="#fff" style="stroke-width:.07001"/>
    <path d="m6.185 12.46s0.08184 0.1531 0.3305 0.1887l0.06078-5.56e-4s-0.182-0.1154-0.07281-0.1396c0.1092-0.02427 0.2122 0.1758 0.3032 0.2365 0.09094 0.06067 0.4125 0.09102 0.4125 0.09102s0.3215-0.03032 0.4125-0.09102c0.09094-0.06067 0.194-0.2608 0.3032-0.2365 0.1091 0.02427-0.07281 0.1396-0.07281 0.1396l0.06067 5.56e-4c0.2487-0.03567 0.3305-0.1887 0.3305-0.1887-0.6837-0.4024-1.362-0.4239-2.068 0" fill="url(#linearGradient10928)" opacity=".4" style="fill:url(#linearGradient10928);stroke-width:.07001"/>
    <path d="m6.677 12.04c0.03352 0.1195 0.3961-0.01708 0.7596 0.06413 0.3638 0.0812 0.4104 0.1425 0.4461 0.1327 0.03567-0.0097-0.2428-0.6437-0.6358-0.6339-0.3929 0.0098-0.5792 0.4051-0.5702 0.4371" fill="#ffd6bd" style="stroke-width:.07001"/>
    <path d="m7.698 12.68s0.2408-0.07588 0.2636-0.1245c0.02277-0.04863 0.02567-0.06384 0.02567-0.06384s-0.1666-0.03053-0.2892 0.1884" fill="#ac6595" opacity=".8" style="stroke-width:.07001"/>
    <path d="m6.494 12.59s0.114 0.0826 0.2613 0.1173c0 0-0.1227-0.2003-0.2164-0.2106-0.09374-0.01036-0.1091 0.04117-0.04498 0.09345" fill="#ac6595" opacity=".8" style="stroke-width:.07001"/>
    <path d="m6.185 12.46s-0.1818-0.3778 0.125-0.5966c0 0-0.2329 0.2188-0.125 0.5966" fill="url(#linearGradient11010)" opacity=".3" style="fill:url(#linearGradient11010);stroke-width:.07001"/>
    <path d="m8.251 12.46s0.1193-0.4175-0.1136-0.5966c0 0 0.159 0.196 0.1136 0.5966" fill="url(#linearGradient11044)" opacity=".3" style="fill:url(#linearGradient11044);stroke-width:.07001"/>
    <path d="m8.357 7.779s-0.2156 0.8379-0.2157 1.691h2.738s0.3191-0.6363-0.03305-1.443c0 0-1.511-1.244-2.489-0.2472" fill="url(#linearGradient12754)" fill-rule="evenodd" opacity=".2" style="fill:url(#linearGradient12754);stroke-width:.07001"/>
    <path d="m5.793 7.779s0.2156 0.8379 0.2158 1.691h-2.738s-0.3191-0.6363 0.03313-1.443c0 0 1.511-1.244 2.489-0.2472" fill="url(#linearGradient12790)" fill-rule="evenodd" opacity=".2" style="fill:url(#linearGradient12790);stroke-width:.07001"/>
    <path d="m8.357 7.779 0.1278-0.01708 0.2387-0.2045-0.1363 0.196s0.247-0.04257 0.9541 0.00849c0.7078 0.05114 1.304 0.2643 1.304 0.2643s-0.699-0.9374-1.347-0.9374c-0.6477 0-1.142 0.6903-1.142 0.6903" fill="url(#linearGradient12826)" style="fill:url(#linearGradient12826);stroke-width:.07001"/>
    <path d="m8.587 7.752s0.7064-0.6625 1.499-0.4548c0 0-0.6472-0.1076-1.499 0.4548" fill="url(#linearGradient12856)" fill-rule="evenodd" opacity=".3" style="fill:url(#linearGradient12856);stroke-width:.07001"/>
    <path d="m8.791 7.736s1.026-0.5403 1.566-0.2329l0.194 0.1835s-0.5665-0.3233-1.76 0.04937" fill="url(#linearGradient12890)" fill-rule="evenodd" opacity=".3" style="fill:url(#linearGradient12890);stroke-width:.07001"/>
    <path d="m3.287 8.025s0.5966-0.2131 1.304-0.2643c0.7078-0.05106 0.9549-0.00849 0.9549-0.00849l-0.1363-0.196 0.2386 0.2045 0.1279 0.01708s-0.4942-0.6903-1.142-0.6903c-0.6477 0-1.347 0.9374-1.347 0.9374" fill="url(#linearGradient12926)" style="fill:url(#linearGradient12926);stroke-width:.07001"/>
    <path d="m5.542 7.752s-0.7064-0.6625-1.499-0.4548c0 0 0.6472-0.1076 1.499 0.4548" fill="url(#linearGradient12956)" opacity=".3" style="fill-rule:evenodd;fill:url(#linearGradient12956);stroke-width:.07001"/>
    <path d="m5.338 7.736s-1.027-0.5403-1.566-0.2329l-0.194 0.1835s0.5665-0.3233 1.76 0.04937" fill="url(#linearGradient12990)" opacity=".3" style="fill-rule:evenodd;fill:url(#linearGradient12990);stroke-width:.07001"/>
    <path d="m2.42 10.05c-0.00737-0.05077-0.02781-0.2007-0.05461-0.4188 0.01111 0.1387 0.02958 0.2783 0.05461 0.4188" fill="url(#linearGradient13094)" style="fill:url(#linearGradient13094);stroke-width:.07001"/>
    <path d="m1.978 6.083c-0.1692 0.971 0.418 3.765 0.5159 4.58-0.04202-3.469 0.7728-4.673 0.8345-4.77-0.4456 1.259-0.3024 2.762-0.3024 2.762 0.4458-0.8673 0.9141-1.151 0.9141-1.151 0.1405-1.455 0.8541-1.92 0.8541-1.92-0.6813 0.8631-0.7498 1.713-0.7498 1.713 0.9596-0.4641 2.413-0.1451 2.413-0.1451 0.9583-1.609 2.019-2.116 2.019-2.116-0.5778 1.527-1.287 1.839-1.331 1.857 2.339-0.4993 2.188-2.207 2.188-2.207 0.8332 2.488 2.261 2.572 2.261 2.572 0.4559 1.292 0.2815 3.405 0.2815 3.405s0.6503-3.723 0.3887-4.58c-0.2616-0.8567-2.399-2.765-4.786-2.834-0.04985-0.0014-0.09996-0.00214-0.1503-0.00214-2.358 0-5.13 1.571-5.35 2.836m7.792-1.169c0.04995 0.03508 1.652 1.175 1.931 2.174 0 0-0.8554-0.2099-1.931-2.174" fill="url(#linearGradient13118)" style="fill:url(#linearGradient13118);stroke-width:.07001"/>
    <path d="m2.467 10.99c0.01391-0.11 0.02305-0.2198 0.02632-0.3294 0 0-0.00849 0.11-0.02632 0.3294m-0.8303 3.625c0.2529 0.9975 0.997 1.088 0.997 1.088s-0.5144-0.6747-0.3725-2.29c0.1053-1.199 0.1722-2.008 0.2059-2.424-0.1703 1.345-1.064 2.704-0.8303 3.625" fill="url(#linearGradient13142)" style="fill:url(#linearGradient13142);stroke-width:.07001"/>
    <path d="m12.37 13.37c0.3604 1.138-0.4821 2.197-0.4821 2.197s0.8451-0.1393 1.196-1.116c0.2799-0.7797-1.166-2.754-1.196-3.794-0.02436 0.5014 0.1215 1.575 0.4821 2.712" fill="url(#linearGradient13166)" style="fill:url(#linearGradient13166);stroke-width:.07001"/>
    <path d="m2.742 3.246s1.795-0.3453 4.159 0.01699z" opacity=".68" style="fill-rule:evenodd;fill:#de658b;stroke-width:.07001"/>
    <path d="m2.42 3.389s-0.344 1.058 0 1.877l0.2117-0.2187s-0.3278-0.2393-0.2117-1.659" opacity=".68" style="fill-rule:evenodd;fill:#de658b;stroke-width:.07001"/>
    <path d="m2.208 3.545s-1.031 2.863-0.1485 4.339c0 0-0.6906-1.75 0.1485-4.339" opacity=".68" style="fill-rule:evenodd;fill:#de658b;stroke-width:.07001"/>
    <path d="m6.457 7.149s0.2512-1.513 0.6794-1.885c0.4284-0.3717 1.529-0.5472 1.529-0.5472l-0.1895 0.3154s-1.063 0.5487-2.019 2.116" opacity=".68" style="fill-rule:evenodd;fill:#de658b;stroke-width:.07001"/>
    <path d="m0.6551 0.9282 0.05964 0.5069s0.9017 0.2025 1.495 1.522c0 0-0.1128-1.544-1.555-2.029" fill="#b01c33" style="fill-rule:evenodd;stroke-width:.07001"/>
    <path d="m2.573 8.718s-0.06562-1.733 0.1702-2.574c0.2356-0.8408 1.304-1.474 1.304-1.474l-0.7162 1.222s-0.5286 0.7342-0.758 2.826" fill="url(#linearGradient13264)" opacity=".5" style="fill-rule:evenodd;fill:url(#linearGradient13264);stroke-width:.07001"/>
    <path d="m3.938 7.506s-0.00644-1.149 0.3088-2.048c0.3154-0.8996 2.648-1.786 2.648-1.786s-1.285 0.6638-2.104 1.915c0 0-0.6842 1.002-0.8541 1.92" fill="url(#linearGradient13298)" opacity=".5" style="fill-rule:evenodd;fill:url(#linearGradient13298);stroke-width:.07001"/>
    <path d="m4.819 7.08s1.068-3.368 4.133-3.564c0 0-2.85 0.4233-4.133 3.564" opacity=".68" style="fill-rule:evenodd;fill:#de658b;stroke-width:.07001"/>
    <path d="m9.503 3.67s1.833 2.81 2.836 3.41l-3e-3 -0.2025s-1.308-0.9829-2.834-3.207" opacity=".68" style="fill-rule:evenodd;fill:#de658b;stroke-width:.07001"/>
    <path d="m10.06 3.985s1.569 0.3543 1.788-0.7197c0 0-0.06376 0.8149-1.788 0.7197" opacity=".68" style="fill-rule:evenodd;fill:#de658b;stroke-width:.07001"/>
    <path d="m10.27 0.6334c1.069 0.5839 0.7498 2.27 0.7498 2.27l0.1632-0.03733c0.5109-1.866-0.7099-2.501-0.7099-2.501z" fill="url(#linearGradient13382)" style="fill:url(#linearGradient13382);stroke-width:.07001"/>
    <path d="m6.949 5.519-1.272 0.06683 0.4551-0.5183 1.088 0.1367z" style="fill-rule:evenodd;fill:#ffd6bd;stroke-width:.07001"/>
    <path d="m5.584 5.588-0.7877 0.03574s0.3971-0.4146 1.151-0.5138z" style="fill-rule:evenodd;fill:#ffd6bd;stroke-width:.07001"/>
    <path d="m4.184 5.659s-0.4561 0.1374-0.9681 0.5985l0.1115-0.3635s0.4813-0.6077 1.173-0.8239c0 0-0.1278 0.1803-0.2131 0.2971-0.08541 0.1168-0.1028 0.2921-0.1028 0.2921" style="fill-rule:evenodd;fill:#ffd6bd;stroke-width:.07001"/>
    <path d="m8.137 5.781 0.6506 0.2783 0.2641-0.3458-0.8009-0.05236z" style="fill-rule:evenodd;fill:#ffd6bd;stroke-width:.07001"/>
    <path d="m1.636 1.597s1.122-0.4929 1.957-0.1339l-0.01465-0.4466s-0.4614 0.05255-1.128 0.1927c-0.6668 0.1401-1.355-0.07596-1.355-0.07596s0.3672 0.2271 0.5405 0.4638" style="fill-rule:evenodd;fill:#ffd6bd;stroke-width:.07001"/>
    <path d="m11.32 1.165s0.1541 0.2971 0.4014 0.4318c0.247 0.1347 1.271 0.0997 1.271 0.0997l0.3307-0.1616-0.4633 0.572s-0.775-0.2701-1.067-0.3228c-0.2921-0.05265-0.4466 0-0.4466 0z" style="fill-rule:evenodd;fill:#ffd6bd;stroke-width:.07001"/>
    <path d="m6.129 13.48s0.4128 0.7813 1.007 0.7813c0.5384 0 1.114-0.74 1.114-0.74s-0.3691 0.349-1.114 0.349c-0.7456 0-1.007-0.3897-1.007-0.3897" fill="#ff5f56" style="stroke-width:.07001"/>
    <path d="m7.172 14.06c0.7699 0 1.237-0.6861 1.237-0.6861s-1.183 0.9353-2.439-0.06972c0 0 0.4315 0.7554 1.201 0.7554" fill="url(#linearGradient14136)" style="fill:url(#linearGradient14136);stroke-width:.07001"/>
    <path d="m7.137 13.81c0.7498 0 1.248-0.417 1.248-0.417-1.219 0.2126-2.342-0.03154-2.342-0.03154s0.5292 0.4485 1.094 0.4485" fill="url(#linearGradient14156)" style="fill:url(#linearGradient14156);stroke-width:.07001"/>
    <path d="m7.187 13.92c0.3164 0 0.5144-0.1952 0.5144-0.1952s-0.5091 0.1954-1.039-0.01167c0 0 0.2424 0.2069 0.5241 0.2069" fill="url(#radialGradient14180)" style="fill:url(#radialGradient14180);stroke-width:.07001"/>
  </g>
</svg>
