<svg viewBox="0 0 54.75 59.34" xmlns="http://www.w3.org/2000/svg" xmlns:xlink="http://www.w3.org/1999/xlink">
  <defs>
    <linearGradient id="linearGradient1618" x2="1" gradientTransform="matrix(0 -6.603 6.603 0 18.49 44.49)" gradientUnits="userSpaceOnUse">
      <stop style="stop-color:#8c7cd4" offset="0"/>
      <stop style="stop-color:#8c7cd4" offset=".01599"/>
      <stop style="stop-color:#514c9a" offset="1"/>
    </linearGradient>
    <linearGradient id="linearGradient9856" x2="1" gradientTransform="matrix(0 -3.456 -3.456 0 44.32 14.26)" gradientUnits="userSpaceOnUse">
      <stop style="stop-color:#ff9600" offset="0"/>
      <stop style="stop-color:#ffb300" offset="1"/>
    </linearGradient>
    <linearGradient id="linearGradient9964" x2="1" gradientTransform="matrix(0 -3.456 3.456 0 10.47 14.26)" gradientUnits="userSpaceOnUse">
      <stop style="stop-color:#ff9600" offset="0"/>
      <stop style="stop-color:#ffb300" offset="1"/>
    </linearGradient>
    <linearGradient id="linearGradient10180" x2="1" gradientTransform="matrix(0 -43.81 43.81 0 27.31 56.88)" gradientUnits="userSpaceOnUse">
      <stop style="stop-color:#ff9b86" offset="0"/>
      <stop style="stop-color:#ff9b86" offset=".03352"/>
      <stop style="stop-color:#ffa670" offset=".3253"/>
      <stop style="stop-color:#ffa670" offset=".9532"/>
      <stop style="stop-color:#ffa670" offset="1"/>
    </linearGradient>
    <linearGradient id="linearGradient10246" x2="1" gradientTransform="matrix(0 -11.62 11.62 0 47.81 48.19)" gradientUnits="userSpaceOnUse">
      <stop style="stop-color:#ff9b86" offset="0"/>
      <stop style="stop-color:#ff9b86" offset=".03352"/>
      <stop style="stop-color:#ffa670" offset=".9532"/>
      <stop style="stop-color:#ffa670" offset="1"/>
    </linearGradient>
    <linearGradient id="linearGradient10276" x2="1" gradientTransform="matrix(3.273 -5.669 5.669 3.273 46.12 45.43)" gradientUnits="userSpaceOnUse">
      <stop style="stop-color:#fff" offset="0"/>
      <stop style="stop-color:#ca00a4" offset=".9944"/>
      <stop style="stop-color:#ca00a4" offset="1"/>
    </linearGradient>
    <linearGradient id="linearGradient10310" x2="1" gradientTransform="matrix(2.218 -3.842 3.842 2.218 45.38 45.05)" gradientUnits="userSpaceOnUse">
      <stop style="stop-color:#fff" offset="0"/>
      <stop style="stop-color:#ca00a4" offset=".9944"/>
      <stop style="stop-color:#ca00a4" offset="1"/>
    </linearGradient>
    <linearGradient id="linearGradient10344" x2="1" gradientTransform="matrix(1.949 -3.375 3.375 1.949 45.34 48.36)" gradientUnits="userSpaceOnUse">
      <stop style="stop-color:#ca00a4" offset="0"/>
      <stop style="stop-color:#ca00a4" offset=".005587"/>
      <stop style="stop-color:#fff" offset="1"/>
    </linearGradient>
    <linearGradient id="linearGradient10380" x2="1" gradientTransform="matrix(0 -11.62 -11.62 0 6.745 48.19)" gradientUnits="userSpaceOnUse">
      <stop style="stop-color:#ff9b86" offset="0"/>
      <stop style="stop-color:#ff9b86" offset=".03352"/>
      <stop style="stop-color:#ffa670" offset=".9532"/>
      <stop style="stop-color:#ffa670" offset="1"/>
    </linearGradient>
    <linearGradient id="linearGradient10410" x2="1" gradientTransform="matrix(-3.273 -5.669 -5.669 3.273 8.404 45.43)" gradientUnits="userSpaceOnUse">
      <stop style="stop-color:#fff" offset="0"/>
      <stop style="stop-color:#ca00a4" offset=".9944"/>
      <stop style="stop-color:#ca00a4" offset="1"/>
    </linearGradient>
    <linearGradient id="linearGradient10444" x2="1" gradientTransform="matrix(-2.218 -3.842 -3.842 2.218 9.144 45.05)" gradientUnits="userSpaceOnUse">
      <stop style="stop-color:#fff" offset="0"/>
      <stop style="stop-color:#ca00a4" offset=".9944"/>
      <stop style="stop-color:#ca00a4" offset="1"/>
    </linearGradient>
    <linearGradient id="linearGradient10478" x2="1" gradientTransform="matrix(-1.949 -3.375 -3.375 1.949 9.18 48.36)" gradientUnits="userSpaceOnUse">
      <stop style="stop-color:#ca00a4" offset="0"/>
      <stop style="stop-color:#ca00a4" offset=".005587"/>
      <stop style="stop-color:#fff" offset="1"/>
    </linearGradient>
    <linearGradient id="linearGradient10572" x2="1" gradientTransform="matrix(-9.972 0 0 9.972 22.59 37.56)" gradientUnits="userSpaceOnUse">
      <stop style="stop-color:#fff" offset="0"/>
      <stop style="stop-color:#ca00a4" offset=".9944"/>
      <stop style="stop-color:#ca00a4" offset="1"/>
    </linearGradient>
    <linearGradient id="linearGradient10606" x2="1" gradientTransform="matrix(-9.878 0 0 9.878 22.03 43.75)" gradientUnits="userSpaceOnUse">
      <stop style="stop-color:#fff" offset="0"/>
      <stop style="stop-color:#ca00a4" offset=".9944"/>
      <stop style="stop-color:#ca00a4" offset="1"/>
    </linearGradient>
    <linearGradient id="linearGradient10638" x2="1" gradientTransform="matrix(0 -6.636 -6.636 0 17.29 40.47)" gradientUnits="userSpaceOnUse">
      <stop style="stop-color:#64003c" offset="0"/>
      <stop style="stop-color:#a6252f" offset="1"/>
    </linearGradient>
    <radialGradient id="radialGradient10662" cx="739.5" cy="330.4" r="28.72" gradientTransform="matrix(.351 0 0 -.3545 -247.2 162)">
      <stop style="stop-color:#fff0eb" offset="0"/>
      <stop style="stop-color:#fff0eb" offset=".03352"/>
      <stop style="stop-color:#ffe7e9" offset=".9773"/>
      <stop style="stop-color:#ffe7e9" offset="1"/>
    </radialGradient>
    <linearGradient id="linearGradient10750" x2="1" gradientTransform="matrix(9.972 0 0 9.972 31.72 37.56)" gradientUnits="userSpaceOnUse">
      <stop style="stop-color:#fff" offset="0"/>
      <stop style="stop-color:#ca00a4" offset=".9944"/>
      <stop style="stop-color:#ca00a4" offset="1"/>
    </linearGradient>
    <linearGradient id="linearGradient10784" x2="1" gradientTransform="matrix(9.878 0 0 9.878 32.29 43.75)" gradientUnits="userSpaceOnUse">
      <stop style="stop-color:#fff" offset="0"/>
      <stop style="stop-color:#ca00a4" offset=".9944"/>
      <stop style="stop-color:#ca00a4" offset="1"/>
    </linearGradient>
    <linearGradient id="linearGradient10816" x2="1" gradientTransform="matrix(0 -6.636 6.636 0 37.02 40.47)" gradientUnits="userSpaceOnUse">
      <stop style="stop-color:#64003c" offset="0"/>
      <stop style="stop-color:#a6252f" offset="1"/>
    </linearGradient>
    <radialGradient id="radialGradient10840" cx="794.8" cy="330.4" r="28.72" gradientTransform="matrix(.351 0 0 -.3545 -247.2 162)">
      <stop style="stop-color:#fff0eb" offset="0"/>
      <stop style="stop-color:#fff0eb" offset=".03352"/>
      <stop style="stop-color:#ffe7e9" offset=".9773"/>
      <stop style="stop-color:#ffe7e9" offset="1"/>
    </radialGradient>
    <linearGradient id="linearGradient10928" x2="1" gradientTransform="matrix(0 -2.592 2.592 0 27.31 48.52)" gradientUnits="userSpaceOnUse">
      <stop style="stop-color:#ca00a4" offset="0"/>
      <stop style="stop-color:#ca00a4" offset=".005587"/>
      <stop style="stop-color:#ffd3c4" offset="1"/>
    </linearGradient>
    <linearGradient id="linearGradient11010" x2="1" gradientTransform="matrix(0 -2.255 2.255 0 23.53 47.1)" gradientUnits="userSpaceOnUse">
      <stop style="stop-color:#ffc2b3" offset="0"/>
      <stop style="stop-color:#ca00a4" offset=".9944"/>
      <stop style="stop-color:#ca00a4" offset="1"/>
    </linearGradient>
    <linearGradient id="linearGradient11044" x2="1" gradientTransform="matrix(0 -2.255 2.255 0 31.06 47.1)" gradientUnits="userSpaceOnUse">
      <stop style="stop-color:#ffc2b3" offset="0"/>
      <stop style="stop-color:#ca00a4" offset=".9944"/>
      <stop style="stop-color:#ca00a4" offset="1"/>
    </linearGradient>
    <linearGradient id="linearGradient14136" x2="1" gradientTransform="matrix(0 -2.856 2.856 0 27.21 53.13)" gradientUnits="userSpaceOnUse">
      <stop style="stop-color:#8b1a41" offset="0"/>
      <stop style="stop-color:#64003c" offset="1"/>
    </linearGradient>
    <linearGradient id="linearGradient14156" x2="1" gradientTransform="matrix(1.038 3.133 -3.133 1.038 26.84 49.17)" gradientUnits="userSpaceOnUse">
      <stop style="stop-color:#ff6641" offset="0"/>
      <stop style="stop-color:#b8003c" offset="1"/>
    </linearGradient>
    <radialGradient id="radialGradient14180" cx="615.1" cy="1333" r="8.703" gradientTransform="scale(2.24 .4464)">
      <stop style="stop-color:#fff0eb" offset="0"/>
      <stop style="stop-color:#fff0eb" offset=".03352"/>
      <stop style="stop-color:#ffe7e9" offset=".9773"/>
      <stop style="stop-color:#ffe7e9" offset="1"/>
    </radialGradient>
    <linearGradient id="linearGradient2410" x1="78.14" x2="85.35" y1="270" y2="270" gradientTransform="matrix(-.4421 0 0 -.3049 61.62 123.3)" gradientUnits="userSpaceOnUse" xlink:href="#radialGradient7554"/>
    <radialGradient id="radialGradient7554" cx="40.4" cy="757.7" r="3.422" gradientTransform="scale(1.83 .5465)">
      <stop style="stop-color:#fff0eb" offset="0"/>
      <stop style="stop-color:#fff0eb" offset=".03352"/>
      <stop style="stop-color:#ffe7e9" offset=".9773"/>
      <stop style="stop-color:#ffe7e9" offset="1"/>
    </radialGradient>
    <linearGradient id="linearGradient2437" x1="77.71" x2="85.83" y1="268.7" y2="268.7" gradientTransform="matrix(.3682 0 0 -.3049 -.6822 123.3)" gradientUnits="userSpaceOnUse" xlink:href="#radialGradient7554"/>
    <linearGradient id="linearGradient1620" x2="1" gradientTransform="matrix(0 -6.603 6.603 0 18.49 44.49)" gradientUnits="userSpaceOnUse" xlink:href="#linearGradient1618"/>
  </defs>
  <g id="gr_face">
    <path d="m27.31 13.07c-0.04687 0.0016-0.1042 0.01106-0.1523 0.01367 0.1035 1.39e-4 0.2071 0.0017 0.3105 2e-3 -0.05006-0.0028-0.1095-0.01393-0.1582-0.01563zm7.99 4.664c-0.1657 1.679-0.3175 2.457-0.9219 3.648-0.4205 0.7733-1.699 2.087-2.484 2.738-1.117 0.6537-1.816 1.112-4.877 1.943 2.1-1.099 2.973-2.982 3.938-4.412 0.4128-0.8765 0.7143-1.416 1.131-2.625-0.526 0.2497-1.4 0.948-1.818 1.145-0.6175 0.5739-1.358 1.2-1.916 1.75-0.7659 0.862-1.74 1.954-2.123 2.48-0.6708 0.8874-1.442 1.987-1.807 2.629 0.3205-1.13 0.5807-2.546 0.8984-3.594 0.3358-1.09 0.5333-1.684 1.039-2.584-0.932-0.02893-1.16 0.04309-1.928 0.05273-1.773 0.2006-2.05 0.09658-4.131 0.2324-0.8241 0.04328-1.364 0.08593-2.037-0.1191-0.1345 0.1257-0.265 0.2731-0.3828 0.4141-0.485 0.8609-0.6912 1.08-1.338 2.363-0.6919 1.435-1.175 2.613-1.604 4.406 0.09097-1.701 0.113-2.334 0.1816-3.049 0.1684-1.426 0.7578-3.544 0.6211-3.746-0.6071 0.2479-1.097 0.4833-1.725 0.873-1.402 0.7737-1.553 1.028-1.818 1.439 0.1718-0.6227 0.2776-1.003 0.3809-1.367-0.7939 1.029-1.032 1.987-1.424 3.172-0.2267 0.9059-0.4517 1.529-0.625 2.258-0.5383 2.713-0.8401 4.647-0.998 7.828-0.1141 1.696-0.1154 1.881-0.07031 2.543-0.0064 2.155-0.0055 2.155-0.209 0.06836-0.7062-0.93 2.01 9.934 2.211 10.54 0 0 1e-3 2e-3 0.0039 2e-3 0.2074 0.5098 0.421 0.9285 0.6387 1.238 1.874 2.672 7.556 5.426 11.92 6.453l0.01758 0.0039c1.234 0.2925 2.363 0.4412 3.268 0.4141 0.9077 0.02716 2.041-0.1223 3.281-0.418h0.0059c4.362-1.027 10.04-3.781 11.92-6.453 0.1771-0.2519 0.3499-0.5752 0.5234-0.9629v-0.0039c0.9416-2.117 1.676-6.574 2.232-10.83-0.2124-0.3061-0.1985-0.562-0.2219-1.13 0.03695-2.537-0.09316-4.707-0.4147-6.874-0.2653-0.7894-0.4595-1.91-0.804-2.82-2.067-0.3944-2.983-1.251-4.317-2.408-0.9043-0.8616-1.405-1.606-2.19-2.838-1.005-1.773-1.532-3.188-2.023-4.408zm1.602 0.8254c1.386 2.382 2.119 3.431 3.205 4.884 1.46 1.627 2.871 2.919 4.138 3.354-0.543-2.093-2.418-3.81-2.954-4.521-1.504-1.599-2.461-2.336-4.389-3.716z" style="fill:url(#linearGradient10180)"/>
    <path d="m43.04 49.04v0.0035c-0.1732 0.3874-0.3464 0.7105-0.5235 0.962-1.874 2.673-7.555 5.427-11.92 6.454-3.288 0.4183-3.288 0.4183-6.572 0-4.363-1.027-10.04-3.781-11.92-6.454-0.2173-0.3094-0.4314-0.7274-0.6389-1.238 1.713 2.431 8.252 7.079 16.17 7.079 7.922 0 12.79-4.42 15.4-6.807" style="fill:#ff9395;opacity:.68"/>
  </g>
  <g id="gr_nose" class="covered pointer-cursor">
    <path d="m30.92 45.23s-1.176-2.059-2.437-2.175l-0.5533-5.547z" opacity=".3" style="fill:url(#linearGradient2437)"/>
    <path d="m24.02 45.04s1.07-1.864 2.584-1.98l0.4728-5.547z" opacity=".3" style="fill:url(#linearGradient2410)"/>
    <path d="m24.5 47.1s-0.6176 0.4917 0.3222 0.6264l0.6062 0.02687s-1.007-0.4071-0.5938-0.4988c0.2482-0.05515 0.5765 0.3134 0.8622 0.632 0.19 0.2914 0.4904 0.2552 0.7359 0.3857 0.7472 0.5223 1.163 0.4491 1.899 0.03799 0.272-0.107 0.5716-0.3633 0.7676-0.5865 0.2349-0.2676 0.569-0.5263 0.7891-0.4774 0.14 0.03113 0.07975 0.05803 0.03745 0.1292-0.08232 0.1384-0.3787 0.3283-0.3787 0.3283l0.3698-0.0642c0.9398-0.1348 0.1268-0.6751 0.1268-0.6751-2.584-1.521-2.731-1.64-5.399-0.03812" opacity=".4" style="fill:url(#linearGradient10928)"/>
    <path d="m25.27 45.52c0.1266 0.4516 1.497-0.06456 2.872 0.2424 1.374 0.3069 1.551 0.5383 1.686 0.5016 0.1348-0.03669-0.9179-2.433-2.403-2.396-1.485 0.03704-2.189 1.531-2.155 1.652" style="fill:#ffd6bd"/>
    <path d="m28.92 47.93s0.9102-0.2868 0.9962-0.4706c0.08608-0.1838 0.09701-0.2413 0.09701-0.2413s-0.6297-0.1154-1.093 0.7119" opacity=".8" style="fill:#ac6595"/>
    <path d="m24.84 47.57s0.4311 0.3122 0.9878 0.4431c0 0-0.4636-0.7571-0.8177-0.7962-0.3542-0.03916-0.4124 0.1556-0.17 0.3531" opacity=".8" style="fill:#ac6595"/>
    <path d="m23.4 47.1s-0.6872-1.428 0.4724-2.255c0 0-0.8802 0.8269-0.4724 2.255" opacity=".3" style="fill:url(#linearGradient11010)"/>
    <path d="m31.22 47.1s0.4508-1.578-0.4293-2.255c0 0 0.6011 0.7408 0.4293 2.255" opacity=".3" style="fill:url(#linearGradient11044)"/>
  </g>
  <g id="gr_mouth" class="covered pointer-cursor">
    <path d="m22.6 50.27s1.793 3.543 4.376 3.543c2.34 0 4.841-3.358 4.841-3.358s-1.603 1.583-4.841 1.583-4.376-1.768-4.376-1.768" style="fill:#ff5f56"/>
    <path d="m27.14 53.13c2.91 0 4.676-2.593 4.676-2.593s-4.473 3.536-9.217-0.2635c0 0 1.631 2.856 4.541 2.856" style="fill:url(#linearGradient14136)"/>
    <path d="m27 52.18c2.834 0 4.718-1.576 4.718-1.576-4.605 0.8036-8.85-0.1192-8.85-0.1192s2 1.695 4.132 1.695" style="fill:url(#linearGradient14156)"/>
    <path d="m27.18 52.61c1.196 0 1.944-0.738 1.944-0.738s-1.924 0.7384-3.925-0.0441c0 0 0.9162 0.7821 1.981 0.7821" style="fill:url(#radialGradient14180)"/>
  </g>
  <g id="gr_eyes" class="covered pointer-cursor">
    <path d="m22.5 41.53s1.023-6.243-3.781-7.703c-4.739-1.44-6.1 4.068-6.1 4.068z" style="fill:url(#linearGradient10572);opacity:.5"/>
    <path d="m22.03 43.68s-1.514 1.917-4.876 1.381c-3.996-0.6361-4.636-1.782-5.001-2.295l0.5697-0.4371z" style="fill:url(#linearGradient10606);opacity:.3"/>
    <path d="m12.43 39.24 10 1.229s-7.05e-4 -5.471-5.086-6.505c-0.4406-0.08961-0.8498-0.1309-1.228-0.1309-3.736-3.53e-4 -4.474 4.039-3.691 5.407" style="fill:url(#linearGradient10638)"/>
    <path d="m16.42 34.66c-5.714 0.5281-3.629 7.955-3.629 7.955s1.071 1.251 2.572 1.711c4.324 1.326 6.53-0.4572 6.666-0.641 1.144-1.549 0.4762-9.052-5.017-9.053-0.1916 0-0.3884 0.0092-0.592 0.02787" style="fill:url(#radialGradient10662)"/>
    <path d="m15.19 41.19c0 1.824 1.478 3.301 3.302 3.301s3.302-1.478 3.302-3.301c0-1.824-1.478-3.302-3.302-3.302s-3.302 1.478-3.302 3.302" style="fill:url(#linearGradient1618)"/>
    <path d="m16.45 41.19c0 1.131 0.9165 2.047 2.047 2.047 1.131 0 2.047-0.9165 2.047-2.047s-0.9162-2.047-2.047-2.047c-1.131 0-2.047 0.9165-2.047 2.047" style="fill:#1f2b2e;opacity:.68"/>
    <path d="m22.5 42.08s-1.157 1.958-1.957 2.407c0 0 1.054-0.3496 1.485-0.8033 0.2671-0.2808 0.472-1.604 0.472-1.604" style="fill:#e56595;opacity:.8"/>
    <path d="m14.92 39.63c0 0.375 0.3041 0.6791 0.6791 0.6791s0.6791-0.3041 0.6791-0.6791-0.3041-0.6791-0.6791-0.6791-0.6791 0.3041-0.6791 0.6791" style="fill:#fff"/>
    <path d="m31.81 41.53s-1.023-6.243 3.781-7.703c4.738-1.44 6.1 4.068 6.1 4.068z" style="fill:url(#linearGradient10750);opacity:.5"/>
    <path d="m32.29 43.68s1.514 1.917 4.876 1.381c3.995-0.6361 4.636-1.782 5.001-2.295l-0.5697-0.4371z" style="fill:url(#linearGradient10784);opacity:.3"/>
    <path d="m36.96 33.96c-5.085 1.034-5.085 6.505-5.085 6.505l10-1.229c0.7835-1.368 0.04621-5.407-3.691-5.407-0.3778 0-0.787 0.04127-1.228 0.1309" style="fill:url(#linearGradient10816)"/>
    <path d="m32.29 43.68c0.1362 0.1838 2.342 1.967 6.666 0.641 1.501-0.46 2.573-1.711 2.573-1.711s2.084-7.427-3.63-7.955c-0.2032-0.0187-0.4-0.02787-0.5916-0.02787-5.492 7.06e-4 -6.161 7.504-5.016 9.053" style="fill:url(#radialGradient10840)"/>
    <path d="m32.52 41.19c0 1.824 1.478 3.301 3.302 3.301s3.301-1.478 3.301-3.301c0-1.824-1.478-3.302-3.301-3.302-1.824 0-3.302 1.478-3.302 3.302" style="fill:url(#linearGradient1620)"/>
    <path d="m37.86 41.19c0 1.131-0.9165 2.047-2.047 2.047-1.131 0-2.047-0.9165-2.047-2.047s0.9162-2.047 2.047-2.047c1.131 0 2.047 0.9165 2.047 2.047" style="fill:#1f2b2e;opacity:.68"/>
    <path d="m31.81 42.08s1.157 1.958 1.957 2.407c0 0-1.054-0.3496-1.485-0.8033-0.2671-0.2808-0.472-1.604-0.472-1.604" style="fill:#e56595;opacity:.8"/>
    <path d="m39.39 39.63c0 0.375-0.3037 0.6791-0.6791 0.6791-0.3746 0-0.6791-0.3041-0.6791-0.6791s0.3044-0.6791 0.6791-0.6791c0.3754 0 0.6791 0.3041 0.6791 0.6791" style="fill:#fff"/>
  </g>
  <g id="gr_eyebrows" class="covered pointer-cursor">
    <path d="m32.42 29.63 0.4856-0.06491 0.9069-0.7771-0.5178 0.7448s0.9385-0.1617 3.627 0.03228c2.688 0.1944 4.955 1.004 4.955 1.004s-2.656-3.562-5.117-3.562c-2.462 0-4.34 2.623-4.34 2.623" style="fill:#623232"/>
    <path d="m13.16 30.57s2.267-0.8098 4.955-1.004c2.689-0.194 3.627-0.03228 3.627-0.03228l-0.5178-0.7448 0.9066 0.7771 0.4859 0.06491s-1.878-2.623-4.34-2.623c-2.461 0-5.117 3.562-5.117 3.562" style="fill:#623232"/>
  </g>
  <g id="gr_hair" class="covered pointer-cursor">
    <path d="m27.24 12.27 17.09 7.639 1.115 17.39s6.555-5.11 1.955-23.04c0 0-2.623-2.773-6.169-3.392-0.4703-0.08184-1.062-0.1171-1.735-0.1171-4.399-3.53e-4 -12.26 1.52-12.26 1.52" style="fill:#6b290a"/>
    <path d="m13.56 10.87c-3.546 0.6184-6.17 3.392-6.17 3.392-4.601 17.93 1.955 23.04 1.955 23.04l0.6405-18.22 17.57-6.812s-7.862-1.52-12.26-1.52c-0.672 0-1.264 0.03528-1.734 0.1171" style="fill:#6b290a"/>
    <path d="m7.503 22.99c-0.6396 3.669 1.58 14.23 1.95 17.31-0.1588-13.11 2.92-17.66 3.154-18.03 4.432-3.115 2.103 1.951 5.542-1.167 5.048-1.948 9.867 0.259 13.92-2.072-2.184 5.773-4.864 6.95-5.031 7.016 8.841-1.887 8.271-8.341 8.271-8.341 3.149 9.403 8.547 9.721 8.547 9.721 1.723 4.885 1.064 12.87 1.064 12.87s2.458-14.07 1.469-17.31c-0.9888-3.239-9.067-10.45-18.1-10.71-0.1884-0.0053-0.3778-0.0081-0.568-0.0081-8.913 0-19.39 5.938-20.22 10.72m29.44-4.419c0.1887 0.1326 6.244 4.441 7.296 8.215 0 0-3.232-0.7934-7.296-8.215" style="fill:#973f0a"/>
    <path d="m46.74 50.55c1.362 4.301-1.822 8.302-1.822 8.302s3.194-0.5263 4.519-4.217c1.058-2.947-4.407-10.41-4.519-14.34-0.0921 1.895 0.459 5.952 1.822 10.25" style="fill:#973f0a"/>
    <path d="m9.354 41.55c0.05256-0.4156 0.08714-0.8308 0.09948-1.245 0 0-0.0321 0.4156-0.09948 1.245m-3.138 13.7c0.9557 3.77 3.767 4.113 3.767 4.113s-1.944-2.55-1.408-8.656c0.3979-4.53 0.6509-7.587 0.7782-9.159-0.6438 5.082-4.021 10.22-3.138 13.7" style="fill:#973f0a"/>
    <path d="m9.743 32.96s-0.248-6.552 0.6431-9.73c0.8904-3.178 4.929-5.572 4.929-5.572l-2.707 4.619s-1.998 2.775-2.865 10.68" style="fill-rule:evenodd;fill:#6b290a;opacity:.5"/>
    <path d="m52.3 3.523 0.7504 1.71-6.066 4.757 1.94-4.194z" style="fill-rule:evenodd;fill:#7c290a"/>
    <path d="m41.75 0.7164s2.099 4.767 0.4254 10.37l5.082 2.699s4.38-0.4011 7.249 2.115l0.2646-0.7063s-1.892-2.522-7.788-1.989c0 0 2.378-1.183 7.038-4.19 0 0 0.7063-1.854-0.9708-3.796 0 0-2.554 0.9006-6.067 4.757 0 0 3.044-4.051 5.316-6.467 0 0-3.134-3.485-7.358-3.485-1.011 0-2.083 0.1993-3.191 0.6936" style="fill:#973f0a"/>
    <path d="m41.24 10.87s3.526 0.7807 6.169 3.392c0 0-0.6643-3.456-5.08-3.456-0.3404 0-0.7027 0.02046-1.089 0.06456" style="fill:url(#linearGradient9856)"/>
    <path d="m2.494 3.508c4.193 1.986 5.316 6.467 5.316 6.467-2.32-4.513-6.066-4.757-6.066-4.757-1.677 1.942-0.9712 3.796-0.9712 3.796 5.208-0.7063 7.038 4.19 7.038 4.19-5.895-0.5327-7.788 1.989-7.788 1.989l0.2649 0.7063c2.869-2.516 7.249-2.115 7.249-2.115l5.082-2.699c1.958-5.696 0.4254-10.37 0.4254-10.37-1.108-0.4942-2.18-0.6936-3.191-0.6936-4.225 7.056e-4 -7.358 3.485-7.358 3.485" style="fill:#973f0a"/>
    <path d="m7.388 14.26c2.644-2.611 6.17-3.392 6.17-3.392-0.3866-0.0441-0.7486-0.06456-1.089-0.06456-4.416 3.53e-4 -5.081 3.456-5.081 3.456" style="fill:url(#linearGradient9964)"/>
    <path d="m2.494 3.508 0.2254 1.916s3.407 0.7655 5.652 5.753c0 0-0.4262-5.837-5.877-7.669" style="fill-rule:evenodd;fill:#7c290a"/>
    <path d="m24.44 27.03s0.9493-5.717 2.568-7.122c1.619-1.405 5.779-2.068 5.779-2.068l-0.7161 1.192s-4.018 2.074-7.631 7.998" style="fill-rule:evenodd;fill:#6b290a;opacity:.68"/>
    <path d="m14.92 28.36s-0.02434-4.342 1.167-7.741c1.192-3.399 10.01-6.753 10.01-6.753s-4.854 2.509-7.952 7.236c0 0-2.586 3.787-3.229 7.258" style="fill-rule:evenodd;fill:#6b290a;opacity:.68"/>
    <path d="m18.24 26.76s4.035-12.73 15.62-13.47c0 0-10.77 1.6-15.62 13.47" style="fill-rule:evenodd;fill:#7c290a;opacity:.68"/>
    <path d="m38.8 2.394c4.041 2.207 2.835 8.579 2.835 8.579l0.617-0.1411c1.931-7.054-2.683-9.453-2.683-9.453z" style="fill:#7c290a"/>
    <path d="m26.29 20.86-4.862 0.2526 1.773-1.959 4.111 0.5168z" style="fill-rule:evenodd;fill:#ffd6bd"/>
    <path d="m21.12 21.12-2.975 0.1351s1.501-1.567 4.349-1.942z" style="fill-rule:evenodd;fill:#ffd6bd"/>
    <path d="m15.85 21.38s-1.724 0.5193-3.659 2.262l0.4216-1.374s1.819-2.297 4.432-3.115c0 0-0.483 0.6816-0.8054 1.123-0.3228 0.4413-0.3888 1.103-0.3888 1.103" style="fill-rule:evenodd;fill:#ffd6bd"/>
    <path d="m30.79 21.85 2.459 1.052 0.998-1.307-3.028-0.1979z" style="fill-rule:evenodd;fill:#ffd6bd"/>
    <path d="m6.217 6.034s4.238-1.863 7.397-0.5062l-0.05539-1.688s-1.744 0.1986-4.263 0.7285c-2.52 0.5295-5.122-0.2872-5.122-0.2872s1.388 0.8583 2.043 1.753" style="fill-rule:evenodd;fill:#ffd6bd"/>
    <path d="m42.72 4.402s0.5824 1.123 1.517 1.632c0.9338 0.5091 4.804 0.3768 4.804 0.3768l1.25-0.611-1.751 2.162s-2.928-1.021-4.031-1.22-1.688 0-1.688 0z" style="fill-rule:evenodd;fill:#ffd6bd"/>
  </g>
  <g id="gr_ears" class="covered pointer-cursor">
    <path d="m45.34 38.1-1.473 8.09s0.05856 1.431 0.7702 1.803c0.7112 0.3726 3.399 0.4329 5.567-2.48 2.168-2.913 2.055-7.966-0.3842-8.778-0.3838-0.1277-0.7578-0.1817-1.116-0.1817-1.915 0-3.365 1.546-3.365 1.546" style="fill:url(#linearGradient10246);stroke-width:.3528"/>
    <path d="m44.92 41.66s1.632-2.148 3.778-2.104c2.147 0.04269 2.739 4.876-0.2575 6.742 0 0 1.299-0.7624 1.203-2.985-0.09667-2.223-1.291-2.835-1.934-2.448-0.6435 0.3867 0.7095 1.256 0.5807 2.835-0.1288 1.578-1.256 2.126-2.03 1.804-0.773-0.3221 0.3546-2.36 0.06456-3.145-0.2896-0.7853-1.407-0.4992-1.407-0.4992z" opacity=".3" style="fill-rule:evenodd;fill:url(#linearGradient10276);stroke-width:.3528"/>
    <path d="m44.92 41.66s0.8266-0.9395 1.729-0.8915c0.9021 0.04869 1.507 1.436 1.648 2.852 0.1401 1.416-1.742 2.488-2.162 1.799-0.4195-0.6887 0.4498-2.291 0.1923-3.06-0.2579-0.7691-1.407-0.4992-1.407-0.4992z" opacity=".3" style="fill-rule:evenodd;fill:url(#linearGradient10310);stroke-width:.3528"/>
    <path d="m43.9 46.56 0.2724-1.352s0.2773 2.2 1.707 2.448c1.918 0.3327 3.648-1.364 3.648-1.364s-1.371 1.472-2.913 1.748c-1.541 0.2762-2.488 0.1937-2.716-1.48" opacity=".3" style="fill-rule:evenodd;fill:url(#linearGradient10344);stroke-width:.3528"/>
    <path d="m4.734 36.72c-2.44 0.8132-2.552 5.864-0.3842 8.778 2.168 2.913 4.855 2.853 5.567 2.48 0.7116-0.3726 0.7702-1.803 0.7702-1.803l-1.473-8.09s-1.45-1.546-3.365-1.546c-0.3577 0-0.7314 0.05398-1.115 0.1817" style="fill:url(#linearGradient10380);stroke-width:.3528"/>
    <path d="m9.603 41.66s-1.632-2.148-3.778-2.104c-2.147 0.04269-2.738 4.876 0.2579 6.742 0 0-1.299-0.7624-1.202-2.985 0.09631-2.223 1.29-2.835 1.933-2.448 0.6435 0.3867-0.7098 1.256-0.5807 2.835 0.1291 1.578 1.256 2.126 2.03 1.804 0.773-0.3221-0.3546-2.36-0.06456-3.145 0.29-0.7853 1.407-0.4992 1.407-0.4992z" opacity=".3" style="fill-rule:evenodd;fill:url(#linearGradient10410);stroke-width:.3528"/>
    <path d="m9.603 41.66s-0.8266-0.9395-1.729-0.8915c-0.9021 0.04869-1.507 1.436-1.648 2.852-0.1404 1.416 1.742 2.488 2.162 1.799 0.4198-0.6887-0.4502-2.291-0.1923-3.06 0.2575-0.7691 1.407-0.4992 1.407-0.4992z" opacity=".3" style="fill-rule:evenodd;fill:url(#linearGradient10444);stroke-width:.3528"/>
    <path d="m10.63 46.56-0.272-1.352s-0.2773 2.2-1.708 2.448c-1.918 0.3327-3.648-1.364-3.648-1.364s1.371 1.472 2.912 1.748c1.542 0.2762 2.489 0.1937 2.716-1.48" opacity=".3" style="fill-rule:evenodd;fill:url(#linearGradient10478);stroke-width:.3528"/>
  </g>
</svg>
