<svg version="1.1" viewBox="0 0 5.725 5.627" xmlns="http://www.w3.org/2000/svg" xmlns:xlink="http://www.w3.org/1999/xlink">
  <defs>
    <linearGradient id="linearGradient6662" x2=".9189" y2=".002384" gradientTransform="matrix(0 -5.125 5.125 0 2.871 5.632)" gradientUnits="userSpaceOnUse">
      <stop style="stop-color:#ff9b86" offset="0"/>
      <stop style="stop-color:#ff9b86" offset=".03352"/>
      <stop style="stop-color:#ffa670" offset=".3253"/>
      <stop style="stop-color:#ffa670" offset=".9214"/>
      <stop style="stop-color:#ffa670" offset="1"/>
    </linearGradient>
    <linearGradient id="linearGradient6728" x2="1" gradientTransform="matrix(0 -1.359 1.359 0 5.267 4.61)" gradientUnits="userSpaceOnUse">
      <stop style="stop-color:#ff9b86" offset="0"/>
      <stop style="stop-color:#ff9b86" offset=".03352"/>
      <stop style="stop-color:#ffa670" offset=".9532"/>
      <stop style="stop-color:#ffa670" offset="1"/>
    </linearGradient>
    <linearGradient id="linearGradient6758" x2="1" gradientTransform="matrix(.3828 -.663 .663 .3828 5.072 4.289)" gradientUnits="userSpaceOnUse">
      <stop style="stop-color:#fff" offset="0"/>
      <stop style="stop-color:#ca00a4" offset=".9944"/>
      <stop style="stop-color:#ca00a4" offset="1"/>
    </linearGradient>
    <linearGradient id="linearGradient6792" x2="1" gradientTransform="matrix(.2595 -.4495 .4495 .2595 4.986 4.245)" gradientUnits="userSpaceOnUse">
      <stop style="stop-color:#fff" offset="0"/>
      <stop style="stop-color:#ca00a4" offset=".9944"/>
      <stop style="stop-color:#ca00a4" offset="1"/>
    </linearGradient>
    <linearGradient id="linearGradient6826" x2="1" gradientTransform="matrix(.2279 -.3948 .3948 .2279 4.979 4.634)" gradientUnits="userSpaceOnUse">
      <stop style="stop-color:#ca00a4" offset="0"/>
      <stop style="stop-color:#ca00a4" offset=".005587"/>
      <stop style="stop-color:#fff" offset="1"/>
    </linearGradient>
    <linearGradient id="linearGradient6862" x2="1" gradientTransform="matrix(0 -1.359 -1.359 0 .4632 4.61)" gradientUnits="userSpaceOnUse">
      <stop style="stop-color:#ff9b86" offset="0"/>
      <stop style="stop-color:#ff9b86" offset=".03352"/>
      <stop style="stop-color:#ffa670" offset=".9532"/>
      <stop style="stop-color:#ffa670" offset="1"/>
    </linearGradient>
    <linearGradient id="linearGradient6892" x2="1" gradientTransform="matrix(-.3828 -.663 -.663 .3828 .6582 4.289)" gradientUnits="userSpaceOnUse">
      <stop style="stop-color:#fff" offset="0"/>
      <stop style="stop-color:#ca00a4" offset=".9944"/>
      <stop style="stop-color:#ca00a4" offset="1"/>
    </linearGradient>
    <linearGradient id="linearGradient6926" x2="1" gradientTransform="matrix(-.2595 -.4495 -.4495 .2595 .7445 4.245)" gradientUnits="userSpaceOnUse">
      <stop style="stop-color:#fff" offset="0"/>
      <stop style="stop-color:#ca00a4" offset=".9944"/>
      <stop style="stop-color:#ca00a4" offset="1"/>
    </linearGradient>
    <linearGradient id="linearGradient6960" x2="1" gradientTransform="matrix(-.2279 -.3948 -.3948 .2279 .7511 4.634)" gradientUnits="userSpaceOnUse">
      <stop style="stop-color:#ca00a4" offset="0"/>
      <stop style="stop-color:#ca00a4" offset=".005587"/>
      <stop style="stop-color:#fff" offset="1"/>
    </linearGradient>
    <linearGradient id="linearGradient7026" x2="1" gradientTransform="matrix(1.167,0,0,1.167,3.398,3.373)" gradientUnits="userSpaceOnUse">
      <stop style="stop-color:#fff" offset="0"/>
      <stop style="stop-color:#ca00a4" offset=".9944"/>
      <stop style="stop-color:#ca00a4" offset="1"/>
    </linearGradient>
    <linearGradient id="linearGradient7060" x2="1" gradientTransform="matrix(1.228,0,0,1.228,3.464,4.027)" gradientUnits="userSpaceOnUse">
      <stop style="stop-color:#fff" offset="0"/>
      <stop style="stop-color:#ca00a4" offset=".9944"/>
      <stop style="stop-color:#ca00a4" offset="1"/>
    </linearGradient>
    <linearGradient id="linearGradient7092" x2="1" gradientTransform="matrix(0 -.7763 .7763 0 4.017 3.712)" gradientUnits="userSpaceOnUse">
      <stop style="stop-color:#64003c" offset="0"/>
      <stop style="stop-color:#a6252f" offset="1"/>
    </linearGradient>
    <radialGradient id="radialGradient7116" cx="1020" cy="5789" r="145.9" gradientTransform="matrix(.09764 0 0 -.08923 -4.206 43.6)">
      <stop style="stop-color:#fff0eb" offset="0"/>
      <stop style="stop-color:#fff0eb" offset=".03352"/>
      <stop style="stop-color:#ffe7e9" offset=".9773"/>
      <stop style="stop-color:#ffe7e9" offset="1"/>
    </radialGradient>
    <linearGradient id="linearGradient7138" x2="1" gradientTransform="matrix(0 -.6892 .6892 0 3.877 4.101)" gradientUnits="userSpaceOnUse">
      <stop style="stop-color:#8c7c4c" offset="0"/>
      <stop style="stop-color:#8c7c4c" offset=".01599"/>
      <stop style="stop-color:#514c4e" offset="1"/>
    </linearGradient>
    <linearGradient id="linearGradient7204" x2="1" gradientTransform="matrix(-1.167,0,0,1.167,2.319,3.373)" gradientUnits="userSpaceOnUse">
      <stop style="stop-color:#fff" offset="0"/>
      <stop style="stop-color:#ca00a4" offset=".9944"/>
      <stop style="stop-color:#ca00a4" offset="1"/>
    </linearGradient>
    <linearGradient id="linearGradient7238" x2="1" gradientTransform="matrix(-1.228,0,0,1.228,2.253,4.027)" gradientUnits="userSpaceOnUse">
      <stop style="stop-color:#fff" offset="0"/>
      <stop style="stop-color:#ca00a4" offset=".9944"/>
      <stop style="stop-color:#ca00a4" offset="1"/>
    </linearGradient>
    <linearGradient id="linearGradient7270" x2="1" gradientTransform="matrix(0 -.7763 -.7763 0 1.699 3.712)" gradientUnits="userSpaceOnUse">
      <stop style="stop-color:#64003c" offset="0"/>
      <stop style="stop-color:#a6252f" offset="1"/>
    </linearGradient>
    <radialGradient id="radialGradient7294" cx="714.6" cy="5789" r="145.9" gradientTransform="matrix(.09764 0 0 -.08923 -4.206 43.6)">
      <stop style="stop-color:#fff0eb" offset="0"/>
      <stop style="stop-color:#fff0eb" offset=".03352"/>
      <stop style="stop-color:#ffe7e9" offset=".9773"/>
      <stop style="stop-color:#ffe7e9" offset="1"/>
    </radialGradient>
    <linearGradient id="linearGradient7316" x2="1" gradientTransform="matrix(0 -.6892 -.6892 0 1.84 4.101)" gradientUnits="userSpaceOnUse">
      <stop style="stop-color:#8c7c4c" offset="0"/>
      <stop style="stop-color:#8c7c4c" offset=".01599"/>
      <stop style="stop-color:#514c4e" offset="1"/>
    </linearGradient>
    <linearGradient id="linearGradient7530" x2="1" gradientTransform="matrix(0 -.6294 .6294 0 2.965 5.359)" gradientUnits="userSpaceOnUse">
      <stop style="stop-color:#ce3e41" offset="0"/>
      <stop style="stop-color:#64003c" offset="1"/>
    </linearGradient>
    <radialGradient id="radialGradient7554" cx="40.4" cy="757.7" r="3.422" gradientTransform="scale(1.83 .5465)">
      <stop style="stop-color:#fff0eb" offset="0"/>
      <stop style="stop-color:#fff0eb" offset=".03352"/>
      <stop style="stop-color:#ffe7e9" offset=".9773"/>
      <stop style="stop-color:#ffe7e9" offset="1"/>
    </radialGradient>
    <linearGradient id="linearGradient8642" x2="1" gradientTransform="matrix(0 -.3143 .3143 0 3.399 4.45)" gradientUnits="userSpaceOnUse">
      <stop style="stop-color:#ff7f2a;stop-opacity:.6559" offset="0"/>
      <stop style="stop-color:#ff6c1a" offset="1"/>
    </linearGradient>
    <linearGradient id="linearGradient1420" x2="1" gradientTransform="matrix(0 -.3613 .3613 0 2.877 4.649)" gradientUnits="userSpaceOnUse">
      <stop style="stop-color:#ca00a4" offset="0"/>
      <stop style="stop-color:#ca00a4" offset=".005587"/>
      <stop style="stop-color:#ffd3c4" offset="1"/>
    </linearGradient>
    <linearGradient id="linearGradient2410" x1="78.14" x2="85.35" y1="270" y2="270" gradientTransform="matrix(-.05193 0 0 -.04324 6.913 15.29)" gradientUnits="userSpaceOnUse" xlink:href="#radialGradient7554"/>
    <linearGradient id="linearGradient2437" x1="77.71" x2="85.83" y1="268.7" y2="268.7" gradientTransform="matrix(.04324 0 0 -.04324 -.4035 15.29)" gradientUnits="userSpaceOnUse" xlink:href="#radialGradient7554"/>
    <radialGradient id="radialGradient16060" cx="178.6" cy="3350" r="11.71" gradientTransform="matrix(.1708 0 0 -.05101 -4.206 43.6)" xlink:href="#radialGradient7554"/>
  </defs>
  <path id="facePathId" d="m2.984 1.059c-0.09439 0.07139-0.1038 0.2973-0.1133 0.543-0.07431-0.2382-0.1153-0.3181-0.166-0.4961-0.7367 0.2155-1.051 0.748-1.051 0.748-0.05059-0.2709-0.03128-0.1387-0.04883-0.2715-0.1301 0.1368-0.1586 0.2366-0.2969 0.4531-0.01705-0.2492 0.0173-0.351 0.009766-0.5684-0.1715 0.0739-0.3195 0.3165-0.3301 0.3535l-0.1328 0.2695c-0.07233 0.1368-0.106 0.5477-0.1035 0.9102 0.001111 0.1626 8.731e-4 0.3392 0.02344 0.5312 0.04169 0.3548 0.152 0.9329 0.2422 1.152 0.02427 0.05964 0.04874 0.1083 0.07422 0.1445 0.2192 0.3126 0.8843 0.6338 1.395 0.7539l0.00196 0.00196c0.1444 0.03426 0.2771 0.05005 0.3828 0.04688 0.1062 0.00317 0.2376-0.0142 0.3828-0.04883h0.00196c0.5105-0.12 1.175-0.4413 1.395-0.7539 0.02072-0.0294 0.0402-0.06792 0.06055-0.1133 0.1197-0.2692 0.2257-0.7975 0.2891-1.342-0.02426 0.03608-0.1221 0.1699-0.1001 0.1206 0.03411-0.3588 0.06842-0.5516-0.006247-1.133-0.05331-0.1408-0.4453-0.6393-0.6769-1.236-0.007916 0.5317 0.3334 0.8284 0.5433 1.028-0.6168-0.3654-0.8363-0.7276-0.8772-1.152-0.3062 0.00333-0.4027 0.00771-0.8984 0.05732z" style="fill:url(#linearGradient6662)"/>
  <g id="gr_ears" class="covered pointer-cursor">
    <path d="m4.979 3.431-0.1723 0.9466s0.00691 0.1673 0.09007 0.2109c0.08326 0.04359 0.3975 0.05059 0.6512-0.2901 0.2536-0.3408 0.2403-0.9317-0.04499-1.027-0.0449-0.01493-0.08867-0.02128-0.1305-0.02128-0.224 0-0.3935 0.1808-0.3935 0.1808" style="fill:url(#linearGradient6728)"/>
    <path d="m4.931 3.848s0.1909-0.2513 0.4421-0.2462c0.2512 0.00504 0.3203 0.5705-0.03015 0.7888 0 0 0.152-0.08914 0.1407-0.3492-0.01129-0.2599-0.1509-0.3315-0.2263-0.2864-0.07523 0.04518 0.08307 0.1469 0.06795 0.3316-0.01503 0.1846-0.1469 0.2487-0.2374 0.211-0.09045-0.03771 0.04144-0.2761 0.00756-0.3679-0.03398-0.09185-0.1646-0.05834-0.1646-0.05834z" opacity=".3" style="fill-rule:evenodd;fill:url(#linearGradient6758)"/>
    <path d="m4.931 3.848s0.0967-0.11 0.2022-0.1043c0.1056 0.00569 0.1763 0.1679 0.1927 0.3336 0.01643 0.1657-0.2038 0.2909-0.2529 0.2105-0.0491-0.08064 0.05264-0.2681 0.0225-0.358-0.03015-0.08998-0.1646-0.05834-0.1646-0.05834z" opacity=".3" style="fill-rule:evenodd;fill:url(#linearGradient6792)"/>
    <path d="m4.811 4.422 0.03183-0.1582s0.03239 0.2573 0.1997 0.2864c0.2244 0.03902 0.4268-0.1595 0.4268-0.1595s-0.1604 0.1722-0.3407 0.2045-0.291 0.02268-0.3176-0.1731" opacity=".5" style="fill-rule:evenodd;fill:url(#linearGradient6826)"/>
    <path d="m0.2276 3.272c-0.2852 0.09511-0.2984 0.686-0.0449 1.027 0.2537 0.3407 0.5681 0.3337 0.6512 0.2901 0.08326-0.04359 0.09007-0.2109 0.09007-0.2109l-0.1723-0.9466s-0.1695-0.1808-0.3935-0.1808c-0.04191 0-0.08559 0.00635-0.1306 0.02128" style="fill:url(#linearGradient6862)"/>
    <path d="m0.7994 3.848s-0.1909-0.2513-0.4421-0.2462c-0.2512 0.00504-0.3203 0.5705 0.03015 0.7888 0 0-0.152-0.08914-0.1407-0.3492 0.01129-0.2599 0.1509-0.3315 0.2262-0.2864 0.07532 0.04518-0.08298 0.1469-0.06795 0.3316 0.01512 0.1846 0.147 0.2487 0.2375 0.211 0.09045-0.03771-0.04144-0.2761-0.00756-0.3679 0.03398-0.09185 0.1646-0.05834 0.1646-0.05834z" opacity=".3" style="fill-rule:evenodd;fill:url(#linearGradient6892)"/>
    <path d="m0.7994 3.848s-0.0967-0.11-0.2023-0.1043c-0.1055 0.00569-0.1762 0.1679-0.1927 0.3336-0.01643 0.1657 0.2038 0.2909 0.2529 0.2105 0.0491-0.08064-0.05264-0.2681-0.02249-0.358 0.03015-0.08998 0.1646-0.05834 0.1646-0.05834z" opacity=".3" style="fill-rule:evenodd;fill:url(#linearGradient6926)"/>
    <path d="m0.9191 4.422-0.03183-0.1582s-0.03239 0.2573-0.1997 0.2864c-0.2243 0.03902-0.4268-0.1595-0.4268-0.1595s0.1604 0.1722 0.3408 0.2045c0.1803 0.0323 0.2911 0.02268 0.3176-0.1731" opacity=".5" style="fill-rule:evenodd;fill:url(#linearGradient6960)"/>
  </g>
  <g id="gr_eyes" class="covered pointer-cursor">
    <path d="m3.408 3.837s-0.1197-0.7303 0.4423-0.9011c0.5542-0.1685 0.7135 0.4759 0.7135 0.4759z" opacity=".5" style="fill:url(#linearGradient7026)"/>
    <path d="m3.464 4.089s0.02996 0.0673 0.5 0.01251c0.4701-0.05479 0.6331-0.08746 0.7281-0.06571l-0.1394-0.1049z" opacity=".3" style="fill:url(#linearGradient7060)"/>
    <path d="m4.011 2.951c-0.5949 0.1209-0.5949 0.7609-0.5949 0.7609l1.17-0.1436c0.09166-0.1601 0.005414-0.6326-0.4317-0.6326-0.04424 0-0.09213 0.00485-0.1436 0.01531" style="fill:url(#linearGradient7092)"/>
    <path d="m3.464 4.089c0.01587 0.02147 0.08176 0.02278 0.1781 0.01251 0.1385-0.01465 0.3416-0.05292 0.5524-0.08727 0.1175-0.01942 0.2375-0.0379 0.3502-0.0504 0 0 0.2439-0.8688-0.4246-0.9306-0.0238-0.00215-0.04686-0.00327-0.06926-0.00327-0.6426 9.67e-5 -0.7208 0.8778-0.5868 1.059" style="fill:url(#radialGradient7116)"/>
    <path d="m3.492 3.797c0 0.124 0.05852 0.2341 0.1497 0.3047 0.1385-0.01465 0.3416-0.05292 0.5524-0.08727 0.0421-0.06207 0.0672-0.1369 0.0672-0.2174 0-0.2125-0.1721-0.3846-0.3847-0.3846-0.2122 0-0.3847 0.172-0.3847 0.3846" style="fill:url(#linearGradient7138)"/>
    <path d="m3.408 3.901s0.1005 0.1853 0.2062 0.2027c0 0-0.1211 0.01904-0.1509-0.01512-0.02987-0.03407-0.05526-0.1876-0.05526-0.1876" opacity=".8" style="fill:#e56595"/>
    <circle transform="scale(1,-1)" cx="4.223" cy="-3.654" r=".09334" fill="#fff" style="stroke-width:.09334"/>
    <circle transform="scale(1,-1)" cx="3.877" cy="-3.794" r=".2371" opacity=".68" style="fill:#a16595"/>
    <path d="m2.308 3.837s0.1196-0.7303-0.4423-0.9011c-0.5543-0.1685-0.7136 0.4759-0.7136 0.4759z" opacity=".5" style="fill:url(#linearGradient7204)"/>
    <path d="m2.253 4.089s-0.02996 0.0673-0.5 0.01251c-0.4701-0.05479-0.633-0.08746-0.7281-0.06571l0.1394-0.1049z" opacity=".3" style="fill:url(#linearGradient7238)"/>
    <path d="m1.13 3.569 1.17 0.1436s-9.34e-5 -0.64-0.5949-0.7609c-0.05162-0.01045-0.0995-0.01531-0.1437-0.01531-0.4371 0-0.5233 0.4725-0.4317 0.6326" style="fill:url(#linearGradient7270)"/>
    <path d="m1.597 3.033c-0.6685 0.06179-0.4246 0.9306-0.4246 0.9306 0.1128 0.01251 0.2328 0.03099 0.3502 0.0504 0.2108 0.03435 0.4138 0.07262 0.5524 0.08727 0.09642 0.01027 0.1622 0.00896 0.1781-0.01251 0.1338-0.1813 0.05572-1.059-0.5868-1.059-0.0224 0-0.04546 0.00112-0.06926 0.00327" style="fill:url(#radialGradient7294)"/>
    <path d="m2.308 3.901s-0.1005 0.1853-0.2062 0.2027c0 0 0.1211 0.01904 0.1509-0.01512 0.02987-0.03407 0.05526-0.1876 0.05526-0.1876" opacity=".8" style="fill:#e56595"/>
    <path d="m1.455 3.797c0 0.08046 0.02492 0.1553 0.06711 0.2174 0.2108 0.03435 0.4138 0.07262 0.5524 0.08727 0.09119-0.07056 0.1497-0.1807 0.1497-0.3047 0-0.2125-0.1725-0.3846-0.3847-0.3846-0.2124 0-0.3846 0.172-0.3846 0.3846" style="fill:url(#linearGradient7316)"/>
    <circle transform="scale(1,-1)" cx="1.488" cy="-3.654" r=".09334" fill="#fff" style="stroke-width:.09334"/>
    <circle transform="scale(1,-1)" cx="1.842" cy="-3.794" r=".2371" opacity=".68" style="fill:#a16595"/>
  </g>
  <g id="gr_mouth" class="covered pointer-cursor">
    <path d="m2.886 4.864c-0.1539 0.02138-0.2508 0.00541-0.3179-0.01045-0.06048-0.01437-0.09679-0.02866-0.1287-0.01587-0.09745 0.03902 0.1664 0.5757 0.5397 0.5172 0.3734-0.05843 0.5972-0.6038 0.5165-0.6236-0.00355-9.334e-4 -0.00793-0.00131-0.01307-0.00131-0.0771 0-0.3222 0.09605-0.5965 0.134" style="fill:url(#linearGradient7530)"/>
    <path d="m2.694 4.872s0.1206 0.09539 0.2922 0.08148c0.1717-0.01391 0.2922-0.1731 0.2922-0.1731s-0.3127 0.1022-0.5844 0.09166" style="fill:url(#radialGradient16060)"/>
  </g>
  <g id="gr_hair" class="covered pointer-cursor">
    <path d="m1.246 1.009c-0.4821 0.3504-0.8265 0.07197-1.013 0.7995 0.01195-0.01307 0.2084-0.2267 0.6114-0.4407-0.02193 0.01624-0.373 0.2804-0.3818 0.5771 0 0 0.06198 0.9057 0.2163 1.42l0.1198 0.1679s-0.1241-1.03 0.05675-1.447c0 0 0.1759-0.4271 0.4622-0.6232 0 0-0.04499 0.2462-0.00989 0.568l0.2963-0.4522s0.02035 0.1798 0.05059 0.2709c0 0 0.3314-0.5222 1.05-0.7482 0 0 0.00467 0.1305 0.1654 0.4972 0 0-0.00355-0.3103 0.07168-0.4745v-3.733e-4c0.01232-0.02744 0.02698-0.0505 0.04406-0.06767 0 0 0.5445-0.05843 0.8835-0.0588 0 0-0.01587 0.6774 0.8902 1.152 0 0-0.5378-0.4503-0.5389-0.9493 0 0 0.2848 0.5247 0.5389 0.9493 0.04172 0.06916 0.08186 0.1352 0.1205 0.1965 0 0 0.09427 0.671 0.01867 1.16l0.07925-0.07906s0.1276-1.017 0.1619-1.591c0 0-0.08401-0.7259-1.054-0.967 0 0 0.8591-0.1055 1.17 0.6931 0 0 0.0505-1.024-1.226-0.7631 0 0-0.7108-0.5255-1.23-0.759-0.06132-0.02753-0.123-0.04004-0.1851-0.04004-0.4643 9.334e-5 -0.9446 0.6991-1.369 1.008" style="fill:#461111;stroke-width:.09334"/>
  </g>
  <g id="gr_eyebrows" class="covered pointer-cursor">
    <path d="m3.373 2.409 0.05638-0.00756 0.1056-0.09045-0.0603 0.08662s0.1093-0.01886 0.422 0.00383c0.3129 0.02259 0.5766 0.1168 0.5766 0.1168s-0.3089-0.4145-0.5953-0.4145c-0.2865 0-0.5049 0.3053-0.5049 0.3053" style="fill:#461111;stroke-width:.09334"/>
    <path d="m1.132 2.521s0.2638-0.09418 0.5766-0.1168c0.3128-0.02268 0.4221-0.00383 0.4221-0.00383l-0.06039-0.08662 0.1056 0.09045 0.05647 0.00756s-0.2184-0.3053-0.5049-0.3053c-0.2864 0-0.5954 0.4145-0.5954 0.4145" style="fill:#461111;stroke-width:.09334"/>
  </g>
  <g id="gr_nose" class="covered pointer-cursor">
    <path d="m2.332 4.45s0.04311 0.08064 0.1741 0.09945l0.03195-3.027e-4s-0.09586-0.06084-0.03835-0.07359c0.05751-0.0128 0.1119 0.09266 0.1598 0.1246 0.04791 0.032 0.2172 0.04795 0.2172 0.04795s0.1693-0.01596 0.2173-0.04795c0.04791-0.03191 0.1022-0.1374 0.1598-0.1246 0.05751 0.01276-0.03835 0.07359-0.03835 0.07359l0.03195 3.027e-4c0.131-0.01881 0.1741-0.09945 0.1741-0.09945-0.3602-0.212-0.7178-0.2232-1.09 0" opacity=".4" style="fill:url(#linearGradient1420);stroke-width:.04324"/>
    <path d="m2.593 4.229c0.01764 0.06291 0.2087-0.00899 0.4003 0.03377 0.1916 0.04276 0.2162 0.07506 0.235 0.06992 0.01885-0.005102-0.1279-0.3391-0.3349-0.334-0.2069 0.005146-0.3051 0.2133-0.3003 0.2303" style="fill:#ffd6bd;stroke-width:.04324"/>
    <path d="m3.13 4.566s0.1269-0.04004 0.1388-0.06564c0.01202-0.0256 0.01349-0.0336 0.01349-0.0336s-0.08769-0.01608-0.1523 0.09924" opacity=".8" style="fill:#483737;stroke-width:.04324"/>
    <path d="m2.497 4.515s0.06006 0.0435 0.1377 0.06175c0 0-0.0646-0.1055-0.114-0.111-0.04938-0.00549-0.05747 0.02171-0.0237 0.04921" opacity=".8" style="fill:#483737;stroke-width:.04324"/>
    <path d="m2.332 4.45s-0.09578-0.199 0.06585-0.3143c0 0-0.1227 0.1152-0.06585 0.3143" opacity=".3" style="fill:#ff8d21;stroke-width:.04324"/>
    <path d="m3.422 4.45s0.06291-0.22-0.05984-0.3143c0 0 0.08384 0.1032 0.05984 0.3143" opacity=".3" style="fill:url(#linearGradient8642);stroke-width:.04324"/>
    <path d="m3.113 4.566s0.07057-0.08514 0.1155-0.2132l0.03446 0.01405s-0.05513 0.1069-0.15 0.1991" opacity=".3" style="fill:#d43400;stroke-width:.04324"/>
    <path d="m3.308 4.221s-0.1382-0.292-0.2862-0.3084l-0.06499-0.7865z" opacity=".3" style="fill:url(#linearGradient2437);stroke-width:.04324"/>
    <path d="m2.495 4.19s0.1257-0.2643 0.3036-0.2807l0.05557-0.7865z" opacity=".3" style="fill:url(#linearGradient2410);stroke-width:.04739"/>
    <path d="m2.639 4.566s-0.07057-0.08514-0.1155-0.2132l-0.03446 0.01405s0.05513 0.1069 0.15 0.1991" opacity=".3" style="fill:#d43400;stroke-width:.04324"/>
  </g>
</svg>
