<svg viewBox="0 0 69.7 130.3" xmlns="http://www.w3.org/2000/svg" xmlns:xlink="http://www.w3.org/1999/xlink">
  <defs>
    <linearGradient id="h" x1=".9269" x2=".01358" y1="-.03565" y2=".02977" gradientTransform="matrix(34.98,0,0,-34.98,34.99,69.33)" gradientUnits="userSpaceOnUse">
      <stop stop-color="#ffa670" offset="0"/>
      <stop stop-color="#ffa670" offset="1"/>
    </linearGradient>
    <linearGradient id="bn" x2="1" gradientTransform="matrix(0,-44.24,44.24,0,34.77,48.56)" gradientUnits="userSpaceOnUse">
      <stop stop-color="#ff9b86" offset="0"/>
      <stop stop-color="#ff9b86" offset=".03352"/>
      <stop stop-color="#ffa670" offset=".3253"/>
      <stop stop-color="#ffa670" offset=".9532"/>
      <stop stop-color="#ffa670" offset="1"/>
    </linearGradient>
    <linearGradient id="bm" x2="1" gradientTransform="matrix(0,-19.26,19.26,0,34.32,24.8)" gradientUnits="userSpaceOnUse">
      <stop stop-color="#fff" offset="0"/>
      <stop stop-color="#ca00a4" offset=".9944"/>
      <stop stop-color="#ca00a4" offset="1"/>
    </linearGradient>
    <linearGradient id="bl" x2="1" gradientTransform="matrix(0,-11.73,11.73,0,55.46,39.75)" gradientUnits="userSpaceOnUse">
      <stop stop-color="#ff9b86" offset="0"/>
      <stop stop-color="#ff9b86" offset=".03352"/>
      <stop stop-color="#ffa670" offset=".9532"/>
      <stop stop-color="#ffa670" offset="1"/>
    </linearGradient>
    <linearGradient id="bk" x2="1" gradientTransform="matrix(12.49,-21.63,21.63,12.49,312.9,179.9)" gradientUnits="userSpaceOnUse">
      <stop stop-color="#fff" offset="0"/>
      <stop stop-color="#ca00a4" offset=".9944"/>
      <stop stop-color="#ca00a4" offset="1"/>
    </linearGradient>
    <linearGradient id="bj" x2="1" gradientTransform="matrix(8.465,-14.66,14.66,8.465,310.1,178.5)" gradientUnits="userSpaceOnUse">
      <stop stop-color="#fff" offset="0"/>
      <stop stop-color="#ca00a4" offset=".9944"/>
      <stop stop-color="#ca00a4" offset="1"/>
    </linearGradient>
    <linearGradient id="bi" x2="1" gradientTransform="matrix(7.434,-12.88,12.88,7.434,309.9,191.2)" gradientUnits="userSpaceOnUse">
      <stop stop-color="#ca00a4" offset="0"/>
      <stop stop-color="#ca00a4" offset=".005587"/>
      <stop stop-color="#fff" offset="1"/>
    </linearGradient>
    <linearGradient id="bh" x2="1" gradientTransform="matrix(0,-11.73,-11.73,0,14,39.75)" gradientUnits="userSpaceOnUse">
      <stop stop-color="#ff9b86" offset="0"/>
      <stop stop-color="#ff9b86" offset=".03352"/>
      <stop stop-color="#ffa670" offset=".9532"/>
      <stop stop-color="#ffa670" offset="1"/>
    </linearGradient>
    <linearGradient id="bg" x2="1" gradientTransform="matrix(-12.49,-21.63,-21.63,12.49,168.9,179.9)" gradientUnits="userSpaceOnUse">
      <stop stop-color="#fff" offset="0"/>
      <stop stop-color="#ca00a4" offset=".9944"/>
      <stop stop-color="#ca00a4" offset="1"/>
    </linearGradient>
    <linearGradient id="bf" x2="1" gradientTransform="matrix(-8.465,-14.66,-14.66,8.465,171.8,178.5)" gradientUnits="userSpaceOnUse">
      <stop stop-color="#fff" offset="0"/>
      <stop stop-color="#ca00a4" offset=".9944"/>
      <stop stop-color="#ca00a4" offset="1"/>
    </linearGradient>
    <linearGradient id="be" x2="1" gradientTransform="matrix(-7.434,-12.88,-12.88,7.434,172,191.2)" gradientUnits="userSpaceOnUse">
      <stop stop-color="#ca00a4" offset="0"/>
      <stop stop-color="#ca00a4" offset=".005587"/>
      <stop stop-color="#fff" offset="1"/>
    </linearGradient>
    <linearGradient id="bd" x2="1" gradientTransform="matrix(34.98 0 0 34.98 .008863 69.33)" gradientUnits="userSpaceOnUse">
      <stop stop-color="#ff8a86" offset="0"/>
      <stop stop-color="#ff8a86" offset=".03352"/>
      <stop stop-color="#ffa670" offset=".3253"/>
      <stop stop-color="#ffa670" offset=".9532"/>
      <stop stop-color="#ffa670" offset="1"/>
    </linearGradient>
    <linearGradient id="bc" x2="1" gradientTransform="matrix(0,-44.26,44.26,0,22.58,130.3)" gradientUnits="userSpaceOnUse">
      <stop stop-color="#ff9b86" offset="0"/>
      <stop stop-color="#ff9b86" offset=".03352"/>
      <stop stop-color="#ffa670" offset=".3253"/>
      <stop stop-color="#ffa670" offset=".9532"/>
      <stop stop-color="#ffa670" offset="1"/>
    </linearGradient>
    <linearGradient id="bb" x2="1" gradientTransform="matrix(0,-30.48,30.48,0,33.69,30.49)" gradientUnits="userSpaceOnUse">
      <stop stop-color="#b8312c" offset="0"/>
      <stop stop-color="#b8312c" offset=".03352"/>
      <stop stop-color="#ef5c45" offset=".9532"/>
      <stop stop-color="#ef5c45" offset="1"/>
    </linearGradient>
    <linearGradient id="ba" x2="1" gradientTransform="matrix(10.07,0,0,10.07,39.33,29.06)" gradientUnits="userSpaceOnUse">
      <stop stop-color="#fff" offset="0"/>
      <stop stop-color="#ca00a4" offset=".9944"/>
      <stop stop-color="#ca00a4" offset="1"/>
    </linearGradient>
    <linearGradient id="az" x2="1" gradientTransform="matrix(10.6,0,0,10.6,39.91,34.72)" gradientUnits="userSpaceOnUse">
      <stop stop-color="#fff" offset="0"/>
      <stop stop-color="#ca00a4" offset=".9944"/>
      <stop stop-color="#ca00a4" offset="1"/>
    </linearGradient>
    <linearGradient id="ay" x2="1" gradientTransform="matrix(0,-6.699,6.699,0,44.67,31.99)" gradientUnits="userSpaceOnUse">
      <stop stop-color="#64003c" offset="0"/>
      <stop stop-color="#a6252f" offset="1"/>
    </linearGradient>
    <radialGradient id="g" cx="247.3" cy="145.3" r="36.77" gradientTransform="matrix(.2768 0 0 .2529 -29.02 -10.63)">
      <stop stop-color="#fff0eb" offset="0"/>
      <stop stop-color="#fff0eb" offset=".03352"/>
      <stop stop-color="#ffe7e9" offset=".9773"/>
      <stop stop-color="#ffe7e9" offset="1"/>
    </radialGradient>
    <linearGradient id="ax" x2="1" gradientTransform="matrix(0,-5.948,5.948,0,43.45,35.35)" gradientUnits="userSpaceOnUse">
      <stop stop-color="#8c7c4c" offset="0"/>
      <stop stop-color="#8c7c4c" offset=".01599"/>
      <stop stop-color="#514c4e" offset="1"/>
    </linearGradient>
    <linearGradient id="ar" x2="1" gradientTransform="matrix(-10.07,0,0,10.07,30.01,29.06)" gradientUnits="userSpaceOnUse">
      <stop stop-color="#fff" offset="0"/>
      <stop stop-color="#ca00a4" offset=".9944"/>
      <stop stop-color="#ca00a4" offset="1"/>
    </linearGradient>
    <linearGradient id="aq" x2="1" gradientTransform="matrix(-10.6,0,0,10.6,29.46,34.72)" gradientUnits="userSpaceOnUse">
      <stop stop-color="#fff" offset="0"/>
      <stop stop-color="#ca00a4" offset=".9944"/>
      <stop stop-color="#ca00a4" offset="1"/>
    </linearGradient>
    <linearGradient id="ap" x2="1" gradientTransform="matrix(0,-6.699,-6.699,0,24.67,31.99)" gradientUnits="userSpaceOnUse">
      <stop stop-color="#64003c" offset="0"/>
      <stop stop-color="#a6252f" offset="1"/>
    </linearGradient>
    <radialGradient id="f" cx="176.2" cy="145.3" r="36.77" gradientTransform="matrix(.2768 0 0 .2529 -29.02 -10.63)">
      <stop stop-color="#fff0eb" offset="0"/>
      <stop stop-color="#fff0eb" offset=".03352"/>
      <stop stop-color="#ffe7e9" offset=".9773"/>
      <stop stop-color="#ffe7e9" offset="1"/>
    </radialGradient>
    <linearGradient id="ao" x2="1" gradientTransform="matrix(0,-5.948,-5.948,0,25.88,35.35)" gradientUnits="userSpaceOnUse">
      <stop stop-color="#8c7c4c" offset="0"/>
      <stop stop-color="#8c7c4c" offset=".01599"/>
      <stop stop-color="#514c4e" offset="1"/>
    </linearGradient>
    <linearGradient id="an" x2="1" gradientTransform="matrix(0,-2.617,2.617,0,34.77,40.12)" gradientUnits="userSpaceOnUse">
      <stop stop-color="#ca00a4" offset="0"/>
      <stop stop-color="#ca00a4" offset=".005587"/>
      <stop stop-color="#ffd3c4" offset="1"/>
    </linearGradient>
    <linearGradient id="am" x2="1" gradientTransform="matrix(0,-2.276,2.276,0,30.96,38.69)" gradientUnits="userSpaceOnUse">
      <stop stop-color="#ffc2b3" offset="0"/>
      <stop stop-color="#ca00a4" offset=".9944"/>
      <stop stop-color="#ca00a4" offset="1"/>
    </linearGradient>
    <linearGradient id="al" x2="1" gradientTransform="matrix(0,-2.276,2.276,0,38.56,38.69)" gradientUnits="userSpaceOnUse">
      <stop stop-color="#ffc2b3" offset="0"/>
      <stop stop-color="#ca00a4" offset=".9944"/>
      <stop stop-color="#ca00a4" offset="1"/>
    </linearGradient>
    <linearGradient id="ak" x2="1" gradientTransform="matrix(0,-5.432,5.432,0,35.59,46.2)" gradientUnits="userSpaceOnUse">
      <stop stop-color="#ce3e41" offset="0"/>
      <stop stop-color="#64003c" offset="1"/>
    </linearGradient>
    <radialGradient id="e" cx="128.6" cy="358.7" r="10.42" gradientTransform="matrix(.4841 0 0 .1446 -29.02 -10.63)">
      <stop stop-color="#fff0eb" offset="0"/>
      <stop stop-color="#fff0eb" offset=".03352"/>
      <stop stop-color="#ffe7e9" offset=".9773"/>
      <stop stop-color="#ffe7e9" offset="1"/>
    </radialGradient>
    <linearGradient id="aj" x2="1" gradientTransform="matrix(1.542,0,0,1.542,39.43,41.17)" gradientUnits="userSpaceOnUse">
      <stop stop-color="#ca00a4" offset="0"/>
      <stop stop-color="#ca00a4" offset=".005587"/>
      <stop stop-color="#fff" offset="1"/>
    </linearGradient>
    <linearGradient id="ai" x2="1" gradientTransform="matrix(0,-13.66,13.66,0,25.36,17.52)" gradientUnits="userSpaceOnUse">
      <stop stop-color="#950079" offset="0"/>
      <stop stop-color="#950079" offset=".005587"/>
      <stop stop-color="#fff" offset="1"/>
    </linearGradient>
    <linearGradient id="ah" x2="1" gradientTransform="matrix(0,-10.55,10.55,0,20.14,18.84)" gradientUnits="userSpaceOnUse">
      <stop stop-color="#950079" offset="0"/>
      <stop stop-color="#950079" offset=".005587"/>
      <stop stop-color="#fff" offset="1"/>
    </linearGradient>
    <linearGradient id="ag" x2="1" gradientTransform="matrix(0,-11.96,11.96,0,48.74,20.25)" gradientUnits="userSpaceOnUse">
      <stop stop-color="#950079" offset="0"/>
      <stop stop-color="#950079" offset=".005587"/>
      <stop stop-color="#fff" offset="1"/>
    </linearGradient>
    <linearGradient id="af" x2="1" gradientTransform="matrix(0,-12.39,12.39,0,51.89,23.87)" gradientUnits="userSpaceOnUse">
      <stop stop-color="#950079" offset="0"/>
      <stop stop-color="#950079" offset=".005587"/>
      <stop stop-color="#fff" offset="1"/>
    </linearGradient>
    <linearGradient id="ae" x2="1" gradientTransform="matrix(14.72,0,0,14.72,29.4,4.699)" gradientUnits="userSpaceOnUse">
      <stop stop-color="#fff" offset="0"/>
      <stop stop-color="#950079" offset=".9944"/>
      <stop stop-color="#950079" offset="1"/>
    </linearGradient>
    <linearGradient id="ad" x2="1" gradientTransform="matrix(0 -5.049 5.049 0 22.37 108.8)" gradientUnits="userSpaceOnUse">
      <stop stop-color="#fff" offset="0"/>
      <stop stop-color="#ca00a4" offset=".9944"/>
      <stop stop-color="#ca00a4" offset="1"/>
    </linearGradient>
    <linearGradient id="ac" x2="1" gradientTransform="matrix(0 -1.81 1.81 0 26.86 108.1)" gradientUnits="userSpaceOnUse">
      <stop stop-color="#ca00a4" offset="0"/>
      <stop stop-color="#ca00a4" offset=".005587"/>
      <stop stop-color="#fff" offset="1"/>
    </linearGradient>
    <linearGradient id="ab" x2="1" gradientTransform="matrix(1.605 0 0 1.605 18.42 128.5)" gradientUnits="userSpaceOnUse">
      <stop stop-color="#ca00a4" offset="0"/>
      <stop stop-color="#ca00a4" offset=".005587"/>
      <stop stop-color="#fff" offset="1"/>
    </linearGradient>
    <linearGradient id="aa" x2="1" gradientTransform="matrix(0,-44.26,-44.26,0,47.13,130.3)" gradientUnits="userSpaceOnUse">
      <stop stop-color="#ff9b86" offset="0"/>
      <stop stop-color="#ff9b86" offset=".03352"/>
      <stop stop-color="#ffa670" offset=".3253"/>
      <stop stop-color="#ffa670" offset=".9532"/>
      <stop stop-color="#ffa670" offset="1"/>
    </linearGradient>
    <linearGradient id="z" x2="1" gradientTransform="matrix(0 -5.049 -5.049 0 47.37 108.8)" gradientUnits="userSpaceOnUse">
      <stop stop-color="#fff" offset="0"/>
      <stop stop-color="#ca00a4" offset=".9944"/>
      <stop stop-color="#ca00a4" offset="1"/>
    </linearGradient>
    <linearGradient id="y" x2="1" gradientTransform="matrix(0 -1.81 -1.81 0 42.85 108.1)" gradientUnits="userSpaceOnUse">
      <stop stop-color="#ca00a4" offset="0"/>
      <stop stop-color="#ca00a4" offset=".005587"/>
      <stop stop-color="#fff" offset="1"/>
    </linearGradient>
    <linearGradient id="x" x2="1" gradientTransform="matrix(-1.605 0 0 1.605 51.29 128.5)" gradientUnits="userSpaceOnUse">
      <stop stop-color="#ca00a4" offset="0"/>
      <stop stop-color="#ca00a4" offset=".005587"/>
      <stop stop-color="#fff" offset="1"/>
    </linearGradient>
    <linearGradient id="w" x2="1" gradientTransform="matrix(0,-7.977,7.977,0,34.85,91.1)" gradientUnits="userSpaceOnUse">
      <stop stop-color="#8ac0ff" offset="0"/>
      <stop stop-color="#8ac0ff" offset=".03352"/>
      <stop stop-color="#a1aeff" offset=".9829"/>
      <stop stop-color="#a1aeff" offset="1"/>
    </linearGradient>
    <linearGradient id="v" x2="1" gradientTransform="matrix(0,-12.7,12.7,0,34.09,15.96)" gradientUnits="userSpaceOnUse">
      <stop stop-color="#cf312c" offset="0"/>
      <stop stop-color="#cf312c" offset=".03352"/>
      <stop stop-color="#ff7a45" offset=".9532"/>
      <stop stop-color="#ff7a45" offset="1"/>
    </linearGradient>
    <linearGradient id="u" x2="1" gradientTransform="matrix(21.59,0,0,21.59,23.21,3.45)" gradientUnits="userSpaceOnUse">
      <stop stop-color="#fc702c" offset="0"/>
      <stop stop-color="#fc702c" offset=".03352"/>
      <stop stop-color="#ff9045" offset=".9532"/>
      <stop stop-color="#ff9045" offset="1"/>
    </linearGradient>
    <linearGradient id="t" x2="1" gradientTransform="matrix(32.29,0,0,32.29,280.8,97.22)" gradientUnits="userSpaceOnUse">
      <stop stop-color="#fc702c" offset="0"/>
      <stop stop-color="#fc702c" offset=".03352"/>
      <stop stop-color="#ff9045" offset=".9532"/>
      <stop stop-color="#ff9045" offset="1"/>
    </linearGradient>
    <linearGradient id="s" x2="1" gradientTransform="matrix(0,-29.96,29.96,0,275.1,143.3)" gradientUnits="userSpaceOnUse">
      <stop stop-color="#fff" offset="0"/>
      <stop stop-color="#fff" offset=".2514"/>
      <stop stop-color="#ca00a4" offset=".9944"/>
      <stop stop-color="#ca00a4" offset="1"/>
    </linearGradient>
    <linearGradient id="r" x2="1" gradientTransform="matrix(0,-29.96,-29.96,0,203,143.3)" gradientUnits="userSpaceOnUse">
      <stop stop-color="#fff" offset="0"/>
      <stop stop-color="#fff" offset=".2514"/>
      <stop stop-color="#ca00a4" offset=".9944"/>
      <stop stop-color="#ca00a4" offset="1"/>
    </linearGradient>
    <linearGradient id="q" x2="1" gradientTransform="matrix(0,-3.577,3.577,0,43.88,21.78)" gradientUnits="userSpaceOnUse">
      <stop stop-color="#ff9845" offset="0"/>
      <stop stop-color="#ff9845" offset=".0468"/>
      <stop stop-color="#d64f2c" offset=".9665"/>
      <stop stop-color="#d64f2c" offset="1"/>
    </linearGradient>
    <linearGradient id="p" x2="1" gradientTransform="matrix(0,-1.889,1.889,0,42.84,20.72)" gradientUnits="userSpaceOnUse">
      <stop stop-color="#fff" offset="0"/>
      <stop stop-color="#ca00a4" offset=".9944"/>
      <stop stop-color="#ca00a4" offset="1"/>
    </linearGradient>
    <linearGradient id="o" x2="1" gradientTransform="matrix(0,-1.249,1.249,0,44.14,20.67)" gradientUnits="userSpaceOnUse">
      <stop stop-color="#fff" offset="0"/>
      <stop stop-color="#ca00a4" offset=".9944"/>
      <stop stop-color="#ca00a4" offset="1"/>
    </linearGradient>
    <linearGradient id="n" x2="1" gradientTransform="matrix(0,-3.577,-3.577,0,24.54,21.78)" gradientUnits="userSpaceOnUse">
      <stop stop-color="#ff9845" offset="0"/>
      <stop stop-color="#ff9845" offset=".0468"/>
      <stop stop-color="#d64f2c" offset=".9665"/>
      <stop stop-color="#d64f2c" offset="1"/>
    </linearGradient>
    <linearGradient id="m" x2="1" gradientTransform="matrix(0 -1.89 -1.89 0 25.54 20.73)" gradientUnits="userSpaceOnUse">
      <stop stop-color="#fff" offset="0"/>
      <stop stop-color="#ca00a4" offset=".9944"/>
      <stop stop-color="#ca00a4" offset="1"/>
    </linearGradient>
    <linearGradient id="l" x2="1" gradientTransform="matrix(0 -1.249 -1.249 0 24.24 20.67)" gradientUnits="userSpaceOnUse">
      <stop stop-color="#fff" offset="0"/>
      <stop stop-color="#ca00a4" offset=".9944"/>
      <stop stop-color="#ca00a4" offset="1"/>
    </linearGradient>
    <linearGradient id="k" x2="1" gradientTransform="matrix(0 -6.983 6.983 0 44.72 110.8)" gradientUnits="userSpaceOnUse">
      <stop stop-color="#ca00a4" offset="0"/>
      <stop stop-color="#ca00a4" offset=".005587"/>
      <stop stop-color="#fff" offset="1"/>
    </linearGradient>
    <linearGradient id="j" x2="1" gradientTransform="matrix(0 -6.983 -6.983 0 25.04 110.8)" gradientUnits="userSpaceOnUse">
      <stop stop-color="#ca00a4" offset="0"/>
      <stop stop-color="#ca00a4" offset=".005587"/>
      <stop stop-color="#fff" offset="1"/>
    </linearGradient>
    <linearGradient id="i" x2="1" gradientTransform="matrix(19.29 0 0 -19.29 54.09 69.89)" gradientUnits="userSpaceOnUse">
      <stop stop-color="#ffa670" offset="0"/>
      <stop stop-color="#ffa670" offset=".0468"/>
      <stop stop-color="#ffa670" offset=".6747"/>
      <stop stop-color="#ff8a86" offset=".9665"/>
      <stop stop-color="#ff8a86" offset="1"/>
    </linearGradient>
    <linearGradient id="d" x2="1" gradientTransform="matrix(-10.21,0,0,10.21,458.8,296.9)" gradientUnits="userSpaceOnUse">
      <stop stop-color="#ca00a4" offset="0"/>
      <stop stop-color="#ca00a4" offset=".005587"/>
      <stop stop-color="#fff" offset="1"/>
    </linearGradient>
    <linearGradient id="c" x2="1" gradientTransform="matrix(-7.676,-13.3,-13.3,7.676,460.3,315.4)" gradientUnits="userSpaceOnUse">
      <stop stop-color="#fff" offset="0"/>
      <stop stop-color="#ca00a4" offset=".9944"/>
      <stop stop-color="#ca00a4" offset="1"/>
    </linearGradient>
    <linearGradient id="b" x2="1" gradientTransform="matrix(-5.583,0,0,5.583,426.9,269.8)" gradientUnits="userSpaceOnUse">
      <stop stop-color="#ca00a4" offset="0"/>
      <stop stop-color="#ca00a4" offset=".005587"/>
      <stop stop-color="#fff" offset="1"/>
    </linearGradient>
    <linearGradient id="a" x2="1" gradientTransform="matrix(-22.54,0,0,22.54,443.9,292.2)" gradientUnits="userSpaceOnUse">
      <stop stop-color="#ca00a4" offset="0"/>
      <stop stop-color="#ca00a4" offset=".005587"/>
      <stop stop-color="#fff" offset="1"/>
    </linearGradient>
    <linearGradient id="aw" x2="1" gradientTransform="matrix(72.92,0,0,-72.92,397.3,278.4)" gradientUnits="userSpaceOnUse">
      <stop stop-color="#ffa670" offset="0"/>
      <stop stop-color="#ffa670" offset=".0468"/>
      <stop stop-color="#ffa670" offset=".6747"/>
      <stop stop-color="#ff8a86" offset=".9665"/>
      <stop stop-color="#ff8a86" offset="1"/>
    </linearGradient>
    <linearGradient id="av" x2="1" gradientTransform="matrix(-10.21,0,0,10.21,458.8,296.9)" gradientUnits="userSpaceOnUse" xlink:href="#d"/>
    <linearGradient id="au" x2="1" gradientTransform="matrix(-7.676,-13.3,-13.3,7.676,460.3,315.4)" gradientUnits="userSpaceOnUse" xlink:href="#c"/>
    <linearGradient id="at" x2="1" gradientTransform="matrix(-5.583,0,0,5.583,426.9,269.8)" gradientUnits="userSpaceOnUse" xlink:href="#b"/>
    <linearGradient id="as" x2="1" gradientTransform="matrix(-22.54,0,0,22.54,443.9,292.2)" gradientUnits="userSpaceOnUse" xlink:href="#a"/>
    <linearGradient id="bx" x2="1" gradientTransform="matrix(0 -13.43 13.43 0 6.838 90.49)" gradientUnits="userSpaceOnUse">
      <stop stop-color="#ff8a86" offset="0"/>
      <stop stop-color="#ff8a86" offset=".03352"/>
      <stop stop-color="#ffa670" offset=".3253"/>
      <stop stop-color="#ffa670" offset=".9532"/>
      <stop stop-color="#ffa670" offset="1"/>
    </linearGradient>
    <linearGradient id="bw" x2="1" gradientTransform="matrix(4.432 0 0 4.432 4.96 81.89)" gradientUnits="userSpaceOnUse">
      <stop stop-color="#ca00a4" offset="0"/>
      <stop stop-color="#ca00a4" offset=".005587"/>
      <stop stop-color="#fff" offset="1"/>
    </linearGradient>
    <linearGradient id="bv" x2="1" gradientTransform="matrix(3.33 -5.769 5.769 3.33 4.315 89.89)" gradientUnits="userSpaceOnUse">
      <stop stop-color="#fff" offset="0"/>
      <stop stop-color="#ca00a4" offset=".9944"/>
      <stop stop-color="#ca00a4" offset="1"/>
    </linearGradient>
    <linearGradient id="bu" x2="1" gradientTransform="matrix(2.241 0 0 2.241 11.45 83.41)" gradientUnits="userSpaceOnUse">
      <stop stop-color="#ca00a4" offset="0"/>
      <stop stop-color="#ca00a4" offset=".005587"/>
      <stop stop-color="#fff" offset="1"/>
    </linearGradient>
    <linearGradient id="bt" x2="1" gradientTransform="matrix(0 -1.36 1.36 0 1.929 83)" gradientUnits="userSpaceOnUse">
      <stop stop-color="#ca00a4" offset="0"/>
      <stop stop-color="#ca00a4" offset=".005587"/>
      <stop stop-color="#fff" offset="1"/>
    </linearGradient>
    <linearGradient id="bs" x2="1" gradientTransform="matrix(0 -.4455 .4455 0 2.891 88.97)" gradientUnits="userSpaceOnUse">
      <stop stop-color="#ca00a4" offset="0"/>
      <stop stop-color="#ca00a4" offset=".005587"/>
      <stop stop-color="#fff" offset="1"/>
    </linearGradient>
    <linearGradient id="br" x2="1" gradientTransform="matrix(0 -.3099 .3099 0 10.01 90.08)" gradientUnits="userSpaceOnUse">
      <stop stop-color="#ca00a4" offset="0"/>
      <stop stop-color="#ca00a4" offset=".005587"/>
      <stop stop-color="#fff" offset="1"/>
    </linearGradient>
    <linearGradient id="bq" x2="1" gradientTransform="matrix(0 -.3309 .3309 0 6.13 90.44)" gradientUnits="userSpaceOnUse">
      <stop stop-color="#ca00a4" offset="0"/>
      <stop stop-color="#ca00a4" offset=".005587"/>
      <stop stop-color="#fff" offset="1"/>
    </linearGradient>
    <linearGradient id="bp" x2="1" gradientTransform="matrix(0 -.8111 .8111 0 4.373 90.36)" gradientUnits="userSpaceOnUse">
      <stop stop-color="#ca00a4" offset="0"/>
      <stop stop-color="#ca00a4" offset=".005587"/>
      <stop stop-color="#fff" offset="1"/>
    </linearGradient>
    <linearGradient id="cg" x2="1" gradientTransform="matrix(0 -13.43 -13.43 0 62.9 90.45)" gradientUnits="userSpaceOnUse">
      <stop stop-color="#ff8a86" offset="0"/>
      <stop stop-color="#ff8a86" offset=".03352"/>
      <stop stop-color="#ffa670" offset=".3253"/>
      <stop stop-color="#ffa670" offset=".9532"/>
      <stop stop-color="#ffa670" offset="1"/>
    </linearGradient>
    <linearGradient id="cf" x2="1" gradientTransform="matrix(-4.432 0 0 4.432 64.78 81.85)" gradientUnits="userSpaceOnUse">
      <stop stop-color="#ca00a4" offset="0"/>
      <stop stop-color="#ca00a4" offset=".005587"/>
      <stop stop-color="#fff" offset="1"/>
    </linearGradient>
    <linearGradient id="ce" x2="1" gradientTransform="matrix(-3.33 -5.769 -5.769 3.33 65.42 89.85)" gradientUnits="userSpaceOnUse">
      <stop stop-color="#fff" offset="0"/>
      <stop stop-color="#ca00a4" offset=".9944"/>
      <stop stop-color="#ca00a4" offset="1"/>
    </linearGradient>
    <linearGradient id="cd" x2="1" gradientTransform="matrix(-2.241 0 0 2.241 58.3 83.37)" gradientUnits="userSpaceOnUse">
      <stop stop-color="#ca00a4" offset="0"/>
      <stop stop-color="#ca00a4" offset=".005587"/>
      <stop stop-color="#fff" offset="1"/>
    </linearGradient>
    <linearGradient id="cc" x2="1" gradientTransform="matrix(0 -1.36 -1.36 0 67.81 82.95)" gradientUnits="userSpaceOnUse">
      <stop stop-color="#ca00a4" offset="0"/>
      <stop stop-color="#ca00a4" offset=".005587"/>
      <stop stop-color="#fff" offset="1"/>
    </linearGradient>
    <linearGradient id="cb" x2="1" gradientTransform="matrix(0 -.4455 -.4455 0 66.85 88.93)" gradientUnits="userSpaceOnUse">
      <stop stop-color="#ca00a4" offset="0"/>
      <stop stop-color="#ca00a4" offset=".005587"/>
      <stop stop-color="#fff" offset="1"/>
    </linearGradient>
    <linearGradient id="ca" x2="1" gradientTransform="matrix(0 -.3099 -.3099 0 59.73 90.03)" gradientUnits="userSpaceOnUse">
      <stop stop-color="#ca00a4" offset="0"/>
      <stop stop-color="#ca00a4" offset=".005587"/>
      <stop stop-color="#fff" offset="1"/>
    </linearGradient>
    <linearGradient id="bz" x2="1" gradientTransform="matrix(0 -.3309 -.3309 0 63.61 90.4)" gradientUnits="userSpaceOnUse">
      <stop stop-color="#ca00a4" offset="0"/>
      <stop stop-color="#ca00a4" offset=".005587"/>
      <stop stop-color="#fff" offset="1"/>
    </linearGradient>
    <linearGradient id="by" x2="1" gradientTransform="matrix(0 -.8111 -.8111 0 65.37 90.32)" gradientUnits="userSpaceOnUse">
      <stop stop-color="#ca00a4" offset="0"/>
      <stop stop-color="#ca00a4" offset=".005587"/>
      <stop stop-color="#fff" offset="1"/>
    </linearGradient>
  </defs>

  <path d="m38.29 48.16-3.493 0.4438 0.1791 36.31c5.895 0 8.902-1.349 8.902-1.349-0.4326-4.466-1.419-18.36-1.419-18.36 1.575-3.594 1.928-4.731 2.831-8.328-0.9085-1.295-1.911-3.768-3.289-4.941-1.578-1.345-3.863-1.257-3.977-1.581-0.2159-0.6072 0.2818-2.2 0.2818-2.2z" fill="url(#h)" style="fill:url(#h);stroke-width:.2646"/>
  <path d="m31.94 50.36c-0.1293 0.3634-2.923 0.2641-4.72 1.838-1.208 1.058-1.965 3.432-2.749 4.549 1.925 3.799 1.292 3.734 2.745 8.268 0 0-0.6944 14.09-1.127 18.56 0 0 2.992 1.342 8.887 1.342v-36.33l-3.299-0.4188-0.0173-4e-3s0.4977 1.593 0.2815 2.2" fill="url(#bd)" style="fill:url(#bd);stroke-width:.2646"/>
  <path d="m31.7 48.02s4.315 1.009 6.636 0c0 0-0.4754 1.377-0.2815 2.2 0 0-2.929 3.535-6.072 0 0.1743-0.4125-0.2815-2.2-0.2815-2.2" fill="#de658b" fill-rule="evenodd" opacity=".68" style="stroke-width:.2646"/>
  <path d="m25.62 83.3s0.1083 1.93-0.3471 2.515l0.2826 0.4554 0.04305-0.2709s4.855 1.051 8.782 5.106h1.019s4.588-4.175 8.774-4.911l0.049 0.3114 0.2205-0.5067s-0.4135-1.788-0.3485-2.547l-0.4389-0.1753 0.0272 0.285s-9.17 2.036-17.74-0.1097l-0.0028-0.3236z" fill="url(#w)" style="fill:url(#w);stroke-width:.2646"/>

  <g id="gr_legs" class="covered pointer-cursor">
    <path d="m22.79 101.4c-0.8414 2.979-1.298 4.281-0.9168 6.152 0.0035 7e-3 0.0071 0.0173 0.0071 0.0279 0 0-1.432 10.28-3.059 15.22 0 0-3.466 2.818-5.376 4.075-1.909 1.26-2.602 1.864-2.602 1.864s-0.175 0.7384 0.2611 1.215c0 0 5.421 0.35 10.75 0.2265 0.01342 0 0.02752 0 0.03776-4e-3 2.152-0.048 4.284-0.1785 6.038-0.4392l0.0032-0.0208c0.06562-0.3881 1.116-6.691 1.981-12.27 0.9337-6.04 1.095-10.56 1.095-10.56l0.6149-2.9 2.744-12.92s-4.813-5.009-8.779-5.106c0 0-1.953 12.46-2.797 15.45" fill="url(#bc)" style="fill:url(#bc);stroke-width:.2646"/>
    <path d="m25.46 86.77s7.665-0.7628 7.845 9.311l1.055-4.969s-2.602-3.252-8.782-5.107z" fill="#de658b" opacity=".68" style="fill-rule:evenodd;stroke-width:.2646"/>
    <path d="m19.22 130.3s-0.1732-1.943 0.8245-3.506c0 0-1.605 1.19-1.605 3.501z" fill="url(#ab)" opacity=".3" style="fill-rule:evenodd;fill:url(#ab);stroke-width:.2646"/>
    <path d="m15.96 130.2s0.0875-1.419 1.258-2.503c0 0-1.52 0.6268-1.258 2.503" opacity=".68" style="fill-rule:evenodd;fill:#d16595;stroke-width:.2646"/>
    <path d="m14.06 130.2s-0.1263-1.661 1.348-2.789c0 0-1.091 1.197-1.348 2.789" opacity=".68" style="fill-rule:evenodd;fill:#d16595;stroke-width:.2646"/>
    <path d="m12.1 130.1s-0.344-1.443 1-2.354c0 0-0.7864 0.7184-1 2.354" opacity=".68" style="fill-rule:evenodd;fill:#d16595;stroke-width:.2646"/>
    <path d="m20.04 127.4s1.778-0.4337 3.08 0l0.2929-0.1926s-0.8891-1.575-3.371 0.1926" style="fill-rule:evenodd;fill:#ffc3a4;stroke-width:.2646"/>
    <path d="m16.7 128.9 1.496-0.1295s0.4011-1.048-0.2924-1.048c-0.694 0-1.203 1.177-1.203 1.177" style="fill-rule:evenodd;fill:#ffc3a4;stroke-width:.2646"/>
    <path d="m14.72 129h1.087s0.3469-0.9698-0.1951-0.9047c-0.5419 0.0649-0.8922 0.9047-0.8922 0.9047" style="fill-rule:evenodd;fill:#ffc3a4;stroke-width:.2646"/>
    <path d="m12.58 129 1.365-0.0748s0.2604-0.8147-0.3035-0.833c-0.5639-0.0187-1.062 0.9078-1.062 0.9078" style="fill-rule:evenodd;fill:#ffc3a4;stroke-width:.2646"/>
    <path d="m11.17 129 0.8793-0.0748s0.2484-0.3781-0.3048-0.3792c-0.5533-1e-3 -0.5744 0.454-0.5744 0.454" style="fill-rule:evenodd;fill:#ffc3a4;stroke-width:.2646"/>
    <path d="m35.36 91.1 2.744 12.92 0.6146 2.9s0.1612 4.516 1.095 10.56c0.8649 5.583 1.915 11.89 1.981 12.27l3e-3 0.0208c1.754 0.2607 3.887 0.3913 6.038 0.4392 0.0102 4e-3 0.0236 4e-3 0.0378 4e-3 5.329 0.1235 10.75-0.2265 10.75-0.2265 0.4358-0.477 0.2607-1.215 0.2607-1.215s-0.6935-0.604-2.602-1.864c-1.908-1.256-5.376-4.075-5.376-4.075-1.627-4.942-3.059-15.22-3.059-15.22 0-0.0106 4e-3 -0.0208 7e-3 -0.0279 0.3813-1.87-0.0755-3.172-0.9165-6.152-0.8446-2.99-2.797-15.45-2.797-15.45-3.966 0.0991-8.776 5.106-8.776 5.106" fill="url(#aa)" style="fill:url(#aa);stroke-width:.2646"/>
    <path d="m44.25 86.77s-8.898 0.3546-7.845 9.311l-1.055-4.969s2.602-3.252 8.782-5.107z" fill="#de658b" opacity=".68" style="fill-rule:evenodd;stroke-width:.2646"/>
    <path d="m50.52 130.3s0.1732-1.943-0.8242-3.506c0 0 1.605 1.19 1.605 3.501z" fill="url(#x)" opacity=".3" style="fill-rule:evenodd;fill:url(#x);stroke-width:.2646"/>
    <path d="m53.75 130.2s-0.0875-1.419-1.258-2.503c0 0 1.52 0.6268 1.258 2.503" opacity=".68" style="fill-rule:evenodd;fill:#d16595;stroke-width:.2646"/>
    <path d="m55.68 130.2s0.1263-1.661-1.348-2.789c0 0 1.091 1.197 1.348 2.789" opacity=".68" style="fill-rule:evenodd;fill:#d16595;stroke-width:.2646"/>
    <path d="m57.61 130.1s0.344-1.443-1-2.354c0 0 0.7864 0.7184 1 2.354" opacity=".68" style="fill-rule:evenodd;fill:#d16595;stroke-width:.2646"/>
    <path d="m49.67 127.4s-1.778-0.4337-3.08 0l-0.2929-0.1926s0.8891-1.575 3.371 0.1926" style="fill-rule:evenodd;fill:#ffc3a4;stroke-width:.2646"/>
    <path d="m53.01 128.9-1.496-0.1295s-0.4011-1.048 0.2924-1.048c0.694 0 1.203 1.177 1.203 1.177" style="fill-rule:evenodd;fill:#ffc3a4;stroke-width:.2646"/>
    <path d="m54.99 129h-1.087s-0.3469-0.9698 0.1951-0.9047c0.5419 0.0649 0.8922 0.9047 0.8922 0.9047" style="fill-rule:evenodd;fill:#ffc3a4;stroke-width:.2646"/>
    <path d="m57.13 129-1.365-0.0748s-0.2604-0.8147 0.3035-0.833c0.5639-0.0187 1.062 0.9078 1.062 0.9078" style="fill-rule:evenodd;fill:#ffc3a4;stroke-width:.2646"/>
    <path d="m58.54 129-0.8793-0.0748s-0.2487-0.3781 0.3048-0.3792c0.5528-1e-3 0.5744 0.454 0.5744 0.454" style="fill-rule:evenodd;fill:#ffc3a4;stroke-width:.2646"/>
  </g>
  <g id="gr_knees" class="covered pointer-cursor">
    <path d="m22.13 103.9c1.478-0.3095 3.016-0.3225 4.52-0.2678 1.093 0.0397 2.879 0.039 3.649 0.9374 0.352 0.4107 0.4116 1.026 0.4687 1.54 0.06156 0.554 0.1619 1.115 0.1339 1.674-0.01516 0.3034-0.1182 0.575-0.1674 0.8705-0.0888 0.5328-0.1447 1.058-0.4687 1.507-0.1731 0.2397-0.1985 0.3099-0.4352 0.4352-0.4796 0.2539-0.4049 0.1495-1.038 0.3348-0.2371 0.0694-0.4607 0.1867-0.7031 0.2344-0.6039 0.1186-1.443 0.1719-2.076 0.1339-0.2584-0.0155-0.5128-0.0712-0.7701-0.1004-0.4169-0.0474-0.944-0.0367-1.339-0.2344-0.1773-0.0887-0.403-0.2544-0.5357-0.4018-0.05384-0.0598-0.08296-0.1386-0.1339-0.2009-0.241-0.2946-0.1036-0.0344-0.3348-0.3683-0.02693-0.0389-0.2997-0.5327-0.3013-0.5357-0.353-0.6276-0.7823-1.733-0.837-2.444-0.01284-0.1669 0.0046-0.3349 0-0.5022-0.01462-0.5264-0.07202-0.8207 0-1.339 0.08783-0.6324 0.1183-0.4289 0.2678-0.9374 0.1191-0.405-0.0538-0.0263 0.1004-0.3348z" style="fill:#ffa670"/>
    <path d="m47.6 103.9c-1.478-0.3095-3.016-0.3225-4.52-0.2678-1.093 0.0397-2.879 0.039-3.649 0.9374-0.352 0.4107-0.4116 1.026-0.4687 1.54-0.06156 0.554-0.1619 1.115-0.1339 1.674 0.01516 0.3034 0.1182 0.575 0.1674 0.8705 0.0888 0.5328 0.1447 1.058 0.4687 1.507 0.1731 0.2397 0.1985 0.3099 0.4352 0.4352 0.4796 0.2539 0.4049 0.1495 1.038 0.3348 0.2371 0.0694 0.4607 0.1867 0.7031 0.2344 0.6039 0.1186 1.443 0.1719 2.076 0.1339 0.2584-0.0155 0.5128-0.0712 0.7701-0.1004 0.4169-0.0474 0.944-0.0367 1.339-0.2344 0.1773-0.0887 0.403-0.2544 0.5357-0.4018 0.05384-0.0598 0.08296-0.1386 0.1339-0.2009 0.241-0.2946 0.1036-0.0344 0.3348-0.3683 0.02693-0.0389 0.2997-0.5327 0.3013-0.5357 0.353-0.6276 0.7823-1.733 0.837-2.444 0.01284-0.1669-0.0046-0.3349 0-0.5022 0.01462-0.5264 0.07202-0.8207 0-1.339-0.08783-0.6324-0.1183-0.4289-0.2678-0.9374-0.1191-0.405 0.0538-0.0263-0.1004-0.3348z" style="fill:#ffa670"/>
    <path d="m22.13 103.8s-0.1041 2.447 0.8068 5.049l-1.086-1.041s-0.3112-1.894 0.2786-4.009" fill="url(#ad)" opacity=".4" style="fill-rule:evenodd;fill:url(#ad);stroke-width:.2646"/>
    <path d="m25.46 108.1s1.811 2e-3 2.807-1.81z" fill="url(#ac)" opacity=".4" style="fill-rule:evenodd;fill:url(#ac);stroke-width:.2646"/>
    <path d="m47.58 103.8s0.1041 2.447-0.8068 5.049l1.086-1.041s0.3114-1.894-0.2786-4.009" fill="url(#z)" opacity=".4" style="fill-rule:evenodd;fill:url(#z);stroke-width:.2646"/>
    <path d="m41.44 106.1s2.498 2.179 4.218 1.984c1.719-0.1951 1.924-4.321 1.924-4.321s0.6649 2.23 0.2786 4.009c0 0-0.7112 2.485-1.849 2.945-1.138 0.4596-4.57-4.615-4.57-4.615" fill="url(#k)" opacity=".2" style="fill-rule:evenodd;fill:url(#k);stroke-width:.2646"/>
    <path d="m28.32 106.1s-2.498 2.179-4.218 1.984c-1.719-0.1951-1.924-4.321-1.924-4.321s-0.6649 2.23-0.2786 4.009c0 0 0.7112 2.485 1.849 2.945 1.139 0.4596 4.57-4.615 4.57-4.615" fill="url(#j)" opacity=".2" style="fill-rule:evenodd;fill:url(#j);stroke-width:.2646"/>
    <path d="m44.25 108.1s-1.811 2e-3 -2.807-1.81z" fill="url(#y)" opacity=".4" style="fill-rule:evenodd;fill:url(#y);stroke-width:.2646"/>
  </g>
  <g id="gr_head" class="covered pointer-cursor">
    <path d="m16.39 15.61c-1.421 4.972 0.2473 19.56 2.385 24.76 0 0 0 4e-3 0.0035 4e-3 0.2096 0.5146 0.4257 0.9369 0.6456 1.249 1.891 2.699 7.628 5.48 12.03 6.517l0.0173 4e-3c1.246 0.295 2.386 0.4464 3.299 0.4188 0.9163 0.0275 2.06-0.1238 3.313-0.4223h7e-3c4.405-1.036 10.14-3.818 12.03-6.517 0.1785-0.254 0.3537-0.58 0.5289-0.9716v-3e-3c2.197-4.94 3.956-19.98 2.506-25.04-1.559-5.466-13.44-11.1-18.39-11.27-4.942 0.1718-16.82 5.808-18.38 11.27" fill="url(#bn)" style="fill:url(#bn);stroke-width:.2646"/>
    <path d="m16.54 24.8s4.051-11.01 18.23-11.01c14.18 0 17.57 8.538 17.57 8.538l-0.2258-7.628s-6.921-8.506-13.28-9.11c-6.361-0.6032-15.64 4.686-15.64 4.686l-4.114 2.863-2.781 4.379z" fill="url(#bm)" opacity=".3" style="fill:url(#bm);stroke-width:.2646"/>
    <path d="m52.98 29.59-1.487 8.168s0.0593 1.444 0.7771 1.82c0.7183 0.3765 3.432 0.4373 5.62-2.504 2.189-2.942 2.075-8.041-0.3876-8.861-0.3876-0.1291-0.7649-0.1834-1.126-0.1834-1.934 0-3.397 1.56-3.397 1.56" fill="url(#bl)" style="fill:url(#bl);stroke-width:.2646"/>
    <g transform="matrix(.2646 0 0 .2646 -29.02 -10.63)" fill-rule="evenodd">
      <path d="m308.3 165.6s6.228-8.195 14.42-8.031c8.195 0.164 10.45 18.61-0.9827 25.73 0 0 4.957-2.908 4.588-11.39-0.368-8.481-4.923-10.82-7.377-9.341-2.455 1.475 2.707 4.793 2.216 10.82-0.492 6.023-4.795 8.112-7.744 6.883s1.352-9.003 0.2453-12c-1.105-2.996-5.367-1.905-5.367-1.905z" fill="url(#bk)" opacity=".3" style="fill:url(#bk)"/>
      <path d="m308.3 165.6s3.155-3.585 6.596-3.401c3.443 0.1853 5.749 5.477 6.285 10.88 0.536 5.404-6.647 9.491-8.248 6.864-1.601-2.628 1.717-8.743 0.7333-11.68-0.9827-2.935-5.367-1.905-5.367-1.905z" fill="url(#bj)" opacity=".3" style="fill:url(#bj)"/>
      <path d="m304.4 184.3 1.039-5.159s1.057 8.395 6.515 9.341c7.317 1.269 13.92-5.204 13.92-5.204s-5.231 5.616-11.11 6.669c-5.883 1.055-9.496 0.74-10.36-5.648" fill="url(#bi)" opacity=".5" style="fill:url(#bi)"/>
    </g>
    <path d="m11.97 28.18c-2.463 0.821-2.576 5.921-0.3876 8.861 2.189 2.942 4.903 2.881 5.62 2.504 0.7178-0.376 0.7776-1.82 0.7776-1.82l-1.487-8.168s-1.463-1.56-3.397-1.56c-0.3612 0-0.7387 0.0543-1.126 0.1834" fill="url(#bh)" style="fill:url(#bh);stroke-width:.2646"/>
    <g transform="matrix(.2646 0 0 .2646 -29.02 -10.63)" fill-rule="evenodd">
      <path d="m173.6 165.6s-6.227-8.195-14.42-8.031-10.45 18.61 0.984 25.73c0 0-4.957-2.908-4.589-11.39 0.368-8.481 4.923-10.82 7.379-9.341 2.455 1.475-2.708 4.793-2.216 10.82 0.492 6.023 4.793 8.112 7.744 6.883 2.949-1.229-1.353-9.003-0.2467-12s5.367-1.905 5.367-1.905z" fill="url(#bg)" opacity=".3" style="fill:url(#bg)"/>
      <path d="m173.6 165.6s-3.155-3.585-6.596-3.401c-3.441 0.1853-5.749 5.477-6.285 10.88-0.536 5.404 6.647 9.491 8.248 6.864 1.603-2.628-1.716-8.743-0.7333-11.68 0.9827-2.935 5.367-1.905 5.367-1.905z" fill="url(#bf)" opacity=".3" style="fill:url(#bf)"/>
      <path d="m177.5 184.3-1.039-5.159s-1.057 8.395-6.513 9.341c-7.319 1.269-13.92-5.204-13.92-5.204s5.232 5.616 11.11 6.669c5.881 1.055 9.495 0.74 10.36-5.648" fill="url(#be)" opacity=".5" style="fill:url(#be)"/>
    </g>
    <path d="m20.75 8.705c-4.162 3.024-7.133 0.6212-8.737 6.9 0.103-0.1129 1.799-1.957 5.276-3.802-0.1891 0.1404-3.22 2.42-3.297 4.982 0 0 0.5355 7.816 1.867 12.26l1.034 1.449s-1.071-8.89 0.4903-12.49c0 0 1.517-3.686 3.99-5.379 0 0-0.3881 2.125-0.08572 4.903l2.557-3.903s0.175 1.552 0.4358 2.338c0 0 2.86-4.508 9.062-6.458 0 0 0.0416 1.126 1.428 4.292 0 0-0.031-2.678 0.6181-4.096v-0.0035c0.1062-0.2371 0.2332-0.436 0.3807-0.5834 0 0 4.699-0.5048 7.625-0.508 0 0-0.1372 5.845 7.683 9.943 0 0-4.641-3.887-4.651-8.191 0 0 2.458 4.527 4.651 8.191 0.3606 0.5977 0.7072 1.168 1.04 1.696 0 0 0.8136 5.792 0.1612 10.02l0.6829-0.6826s1.102-8.782 1.397-13.72c0 0-0.7247-6.265-9.094-8.345 0 0 7.416-0.9094 10.1 5.982 0 0 0.436-8.84-10.58-6.588 0 0-6.136-4.535-10.62-6.548-0.5292-0.2381-1.062-0.3461-1.598-0.3461-4.006 3.44e-4 -8.147 6.032-11.82 8.702" fill="url(#bb)" style="fill:url(#bb);stroke-width:.2646"/>
    <path d="m39.43 33.08s-1.033-6.302 3.818-7.776c4.784-1.454 6.157 4.106 6.157 4.106z" fill="url(#ba)" opacity=".5" style="fill:url(#ba);stroke-width:.2646"/>
    <path d="m39.91 35.25s0.2582 0.5802 4.315 0.1076c4.056-0.4728 5.464-0.7546 6.284-0.567l-1.203-0.9049z" fill="url(#az)" opacity=".3" style="fill:url(#az);stroke-width:.2646"/>
    <path d="m44.62 25.43c-5.133 1.044-5.136 6.567-5.136 6.567l10.1-1.241c0.7908-1.381 0.0462-5.458-3.725-5.458-0.3818 0-0.7945 0.042-1.24 0.1323" fill="url(#ay)" style="fill:url(#ay);stroke-width:.2646"/>
    <path d="m39.91 35.25c0.1369 0.1859 0.7048 0.1972 1.537 0.108 1.196-0.1263 2.947-0.4569 4.768-0.7535 1.014-0.1672 2.049-0.327 3.022-0.4347 0 0 2.104-7.498-3.664-8.03-0.2053-0.0187-0.4035-0.0279-0.5972-0.0279-5.546 7.9e-4 -6.22 7.575-5.064 9.139" fill="url(#g)" style="fill:url(#g);stroke-width:.2646"/>
    <path d="m40.15 32.73c0 1.069 0.5048 2.019 1.292 2.629 1.196-0.1263 2.947-0.4569 4.768-0.7535 0.3638-0.5347 0.5797-1.181 0.5797-1.875 0-1.834-1.486-3.321-3.321-3.321-1.831 0-3.321 1.485-3.321 3.321" fill="url(#ax)" style="fill:url(#ax);stroke-width:.2646"/>
    <g transform="matrix(.2646 0 0 .2646 -29.02 -10.63)">
      <path d="m281.7 163.9c0 4.313-3.497 7.811-7.812 7.811s-7.812-3.497-7.812-7.811c0-4.315 3.497-7.812 7.812-7.812s7.812 3.497 7.812 7.812" fill="#a16595" opacity=".68"/>
      <path d="m258.7 167.3s3.279 6.043 6.725 6.615c0 0-3.949 0.62-4.923-0.4933-0.9747-1.113-1.803-6.121-1.803-6.121" fill="#e56595" opacity=".8"/>
      <path d="m287.6 157.9c0 1.431-1.16 2.591-2.591 2.591-1.432 0-2.591-1.16-2.591-2.591s1.159-2.591 2.591-2.591c1.431 0 2.591 1.16 2.591 2.591" fill="#fff"/>
    </g>
    <path d="m29.93 33.08s1.033-6.302-3.818-7.776c-4.784-1.454-6.157 4.106-6.157 4.106z" fill="url(#ar)" opacity=".5" style="fill:url(#ar);stroke-width:.2646"/>
    <path d="m29.46 35.25s-0.2582 0.5802-4.315 0.1076c-4.056-0.4728-5.464-0.7546-6.284-0.567l1.203-0.9049z" fill="url(#aq)" opacity=".3" style="fill:url(#aq);stroke-width:.2646"/>
    <path d="m19.75 30.75 10.1 1.241s-7.93e-4 -5.524-5.136-6.567c-0.4453-0.0903-0.858-0.1323-1.24-0.1323-3.773 0-4.516 4.077-3.725 5.458" fill="url(#ap)" style="fill:url(#ap);stroke-width:.2646"/>
    <path d="m23.79 26.15c-5.771 0.5331-3.664 8.03-3.664 8.03 0.9726 0.1076 2.008 0.2675 3.022 0.4347 1.819 0.2966 3.572 0.6273 4.768 0.7535 0.8318 0.0892 1.4 0.078 1.537-0.108 1.155-1.564 0.4805-9.139-5.064-9.139-0.1933 0-0.3916 9e-3 -0.5969 0.0279" fill="url(#f)" style="fill:url(#f);stroke-width:.2646"/>
    <path d="m22.55 32.73c0 0.6943 0.2159 1.34 0.5797 1.875 1.819 0.2966 3.572 0.6273 4.768 0.7535 0.7874-0.6093 1.292-1.559 1.292-2.629 0-1.834-1.489-3.321-3.321-3.321-1.834 0-3.321 1.485-3.321 3.321" fill="url(#ao)" style="fill:url(#ao);stroke-width:.2646"/>
    <g transform="matrix(.2646 0 0 .2646 -29.02 -10.63)">
      <path d="m199.7 163.9c0 4.313 3.497 7.811 7.812 7.811 4.313 0 7.811-3.497 7.811-7.811 0-4.315-3.497-7.812-7.811-7.812-4.315 0-7.812 3.497-7.812 7.812" fill="#a16595" opacity=".68"/>
      <path d="m222.8 167.3s-3.279 6.043-6.724 6.615c0 0 3.949 0.62 4.923-0.4933 0.9733-1.113 1.801-6.121 1.801-6.121" fill="#e56595" opacity=".8"/>
      <path d="m193.9 157.9c0 1.431 1.16 2.591 2.591 2.591 1.432 0 2.592-1.16 2.592-2.591s-1.16-2.591-2.592-2.591c-1.431 0-2.591 1.16-2.591 2.591" fill="#fff"/>
    </g>
    <path d="m30.83 38.69s0.3125 0.5842 1.261 0.7199l0.2318-2e-3s-0.6945-0.4403-0.2781-0.5326c0.4167-0.0928 0.8099 0.671 1.157 0.9025s1.574 0.3471 1.574 0.3471 1.227-0.1157 1.574-0.3471c0.3471-0.2314 0.7408-0.9951 1.157-0.9025 0.4167 0.0924-0.2776 0.5326-0.2776 0.5326l0.2314 2e-3c0.9491-0.1358 1.261-0.7199 1.261-0.7199-2.609-1.535-5.199-1.617-7.893 0" fill="url(#an)" opacity=".4" style="fill:url(#an);stroke-width:.2646"/>
    <g transform="matrix(.2646 0 0 .2646 -29.02 -10.63)">
      <path d="m233.3 180.4c0.484 1.723 5.713-0.2467 10.96 0.9253 5.245 1.171 5.917 2.055 6.432 1.915 0.516-0.1413-3.501-9.284-9.168-9.144s-8.353 5.84-8.223 6.304" fill="#ffd6bd"/>
      <path d="m248.1 189.6s3.472-1.095 3.801-1.796c0.3293-0.7013 0.3693-0.92 0.3693-0.92s-2.4-0.4413-4.171 2.716" fill="#ac6595" opacity=".8"/>
      <path d="m230.7 188.2s1.644 1.191 3.769 1.691c0 0-1.769-2.889-3.121-3.039-1.351-0.1493-1.573 0.596-0.648 1.348" fill="#ac6595" opacity=".8"/>
    </g>
    <path d="m30.83 38.69s-0.694-1.442 0.477-2.276c0 0-0.8887 0.8348-0.477 2.276" fill="url(#am)" opacity=".3" style="fill:url(#am);stroke-width:.2646"/>
    <path d="m38.72 38.69s0.4553-1.594-0.4337-2.276c0 0 0.6072 0.748 0.4337 2.276" fill="url(#al)" opacity=".3" style="fill:url(#al);stroke-width:.2646"/>
    <path d="m34.91 41.94c-1.328 0.1838-2.165 0.0466-2.744-0.0907-0.5215-0.1235-0.8348-0.2469-1.11-0.1369-0.8414 0.3366 1.436 4.969 4.659 4.464 3.223-0.5048 5.154-5.212 4.458-5.382-0.0307-8e-3 -0.0684-0.0113-0.1122-0.0113-0.6646 0-2.781 0.8289-5.149 1.157" fill="url(#ak)" style="fill:url(#ak);stroke-width:.2646"/>
    <path d="m33.24 42.02s1.041 0.8242 2.522 0.7038c1.481-0.1199 2.522-1.494 2.522-1.494s-2.699 0.8819-5.043 0.7906" fill="url(#e)" style="fill:url(#e);stroke-width:.2646"/>
    <path d="m32.71 44.75s1.359 1.429 3.051 1.06c1.692-0.3686 2.847-2.061 2.847-2.061s-2.902-0.4003-5.898 1" fill="#ff9f92" fill-rule="evenodd" style="stroke-width:.2646"/>
    <path d="m39.43 40.46s1.18 0.2247 1.481 1.506c0 0 0.5204-2.043-1.481-1.506" fill="url(#aj)" fill-rule="evenodd" opacity=".68" style="fill:url(#aj);stroke-width:.2646"/>
    <path d="m43.4 8.599c-2.924 0.0032-7.625 0.508-7.625 0.508-0.1474 0.1475-0.2744 0.3469-0.381 0.5834 7e-3 -0.1168 0.1648-2.934 1.085-3.823 0.944-0.9099 5.644 0.5527 6.921 2.733" fill="#d16595" opacity=".68" style="stroke-width:.2646"/>
    <path d="m33.35 9.498c-0.26-2.103 0-3.5 0-3.5s-6.787 1.67-9.062 9.956c0 0 3.199-4.678 9.062-6.456" fill="#d16595" opacity=".68" style="stroke-width:.2646"/>
    <path d="m23.85 13.62s1.845-6.633 5.564-9.755c0 0-7.615 4.495-8.12 13.66z" fill="url(#ai)" opacity=".4" style="fill:url(#ai);stroke-width:.2646"/>
    <path d="m21.39 12.62s0.7818-3.035 1.822-4.334c0 0-5.604 2.768-6.104 10.55 0 0 0.4072-3.477 4.281-6.22" fill="url(#ah)" opacity=".4" style="fill:url(#ah);stroke-width:.2646"/>
    <path d="m46.44 10.35-1.08-2.069s6.413 3.847 6.771 11.96z" fill="url(#ag)" opacity=".4" style="fill:url(#ag);stroke-width:.2646"/>
    <path d="m49.67 11.49s3.029 1.002 4.464 7.347l-0.5167 5.043s1.178-8.422-3.948-12.39" fill="url(#af)" opacity=".4" style="fill:url(#af);stroke-width:.2646"/>
    <path d="m12.02 15.6s0.8766-3.331 3.291-4.112c2.415-0.7808 4.464-0.9972 4.464-0.9972l-2.48 1.306s-3.278 2.019-5.276 3.802" fill="#d16595" opacity=".68" style="fill-rule:evenodd;stroke-width:.2646"/>
    <path d="m29.4 3.86s4.596-3.876 14.72 3.781c0 0-11.11-10.15-14.72-3.781" fill="url(#ae)" opacity=".4" style="fill-rule:evenodd;fill:url(#ae);stroke-width:.2646"/>
    <path d="m28.98 3.86c-4.797 2.515-4.699 12.09-4.699 12.09s2.797-7.324 8.168-9.557c5.368-2.235 11.41 1.045 11.41 1.045s-6.927-4.188-12.03-4.188c-1.052 0-2.028 0.1785-2.847 0.6085" fill="url(#v)" style="fill:url(#v);stroke-width:.2646"/>
    <path d="m23.21 6.591s5.273-5.252 10.5-4.794c5.223 0.4585 11.1 5.101 11.1 5.101s-8.586-6.85-12.01-6.895c-0.0116-3.44e-4 -0.0236-3.44e-4 -0.0356-3.44e-4 -3.432-3.44e-4 -9.549 6.588-9.549 6.588" fill="url(#u)" style="fill:url(#u);stroke-width:.2646"/>
    <g transform="matrix(.2646 0 0 .2646 -29.02 -10.63)" fill-rule="evenodd">
      <path d="m280.8 68.54s11.02 9.825 19.47 23.8c8.449 13.98 12.82 33.56 12.82 33.56s8e-3 -16.97-5.036-28.37c-7.017-15.87-27.25-28.99-27.25-28.99" fill="url(#t)" opacity=".5" style="fill:url(#t)"/>
      <path d="m257.5 118.9s-3.111 12.09-3.112 24.38h39.48s4.603-9.179-0.4773-20.81c0 0-21.8-17.95-35.89-3.565" fill="url(#s)" opacity=".2" style="fill:url(#s)"/>
      <path d="m220.6 118.9s3.111 12.09 3.112 24.38h-39.48s-4.603-9.179 0.4773-20.81c0 0 21.8-17.95 35.89-3.565" fill="url(#r)" opacity=".2" style="fill:url(#r)"/>
    </g>
    <path d="m39.11 20.83 0.4876-0.0649 0.911-0.7803-0.5207 0.7474s0.943-0.1626 3.643 0.0328c2.699 0.1951 4.977 1.008 4.977 1.008s-2.667-3.577-5.138-3.577-4.358 2.634-4.358 2.634" fill="url(#q)" style="fill:url(#q);stroke-width:.2646"/>
    <path d="m39.99 20.72s2.696-2.528 5.723-1.736c0 0-2.469-0.4106-5.723 1.736" fill="url(#p)" fill-rule="evenodd" opacity=".3" style="fill:url(#p);stroke-width:.2646"/>
    <path d="m40.78 20.67s3.918-2.061 5.974-0.8887l0.7406 0.7004s-2.162-1.233-6.715 0.1884" fill="url(#o)" fill-rule="evenodd" opacity=".3" style="fill:url(#o);stroke-width:.2646"/>
    <path d="m19.77 21.78s2.276-0.8128 4.977-1.008c2.699-0.1954 3.643-0.0328 3.643-0.0328l-0.5199-0.7474 0.9102 0.7803 0.4879 0.0649s-1.886-2.634-4.358-2.634c-2.471 0-5.138 3.577-5.138 3.577" fill="url(#n)" style="fill:url(#n);stroke-width:.2646"/>
    <path d="m28.4 20.73s-2.694-2.529-5.721-1.736c0 0 2.47-0.4107 5.721 1.736" fill="url(#m)" opacity=".3" style="fill-rule:evenodd;fill:url(#m);stroke-width:.2646"/>
    <path d="m27.6 20.67s-3.919-2.061-5.975-0.8888l-0.7406 0.7004s2.162-1.233 6.716 0.1884" fill="url(#l)" opacity=".3" style="fill-rule:evenodd;fill:url(#l);stroke-width:.2646"/>
    <path d="m31.02 42.74s1.539 4.466 5.009 3.929c3.469-0.5348 4.133-4.805 4.133-4.805s-1.172 4.011-4.572 4.226c-3.4 0.2156-4.572-3.352-4.572-3.352" fill="#ff5f56" style="fill-rule:evenodd;stroke-width:.2646"/>
    <path d="m31.31 41.68c1.127 0.2374 2.483-0.558 4.268-0.5813 1.786-0.02363 3.747-0.1775 3.747-0.1775s-1.357 0.6141-4.009 1.064c-2.651 0.4501-4.009-0.3056-4.009-0.3056" fill="#ff4f56" style="fill-rule:evenodd;stroke-width:.2646"/>
  </g>
  <g id="gr_arms" class="covered pointer-cursor" transform="matrix(.4351 0 0 .4351 -124.3 -47.39)">
    <g transform="matrix(-1,0,0,1,755.9,0)">
      <path d="m407.8 259.1s1.584 1.372 12.68 17.47c0.332 0.212 0.548 0.572 0.8387 0.8707l8e-3 8e-3c6.799 7.119 17.38 19.41 17.38 19.41 2.297 5.919 4.853 9.879 5.167 10.35 0.024 0.032 0.032 0.0467 0.032 0.0467l1.481 8.099c1.859 1.115 3.568 0.072 3.568 0.072-0.1493-3.271-0.816-8.539-0.816-8.539h0.7453l4.9 9.432c4.384 1.78 8.1-1.56 8.1-1.56l-0.1493-1.491c2.823 0.5253 3.708-0.8853 3.708-0.8853-1.035-6.092-4.601-11.52-4.601-11.52l-3.073-5.472 3.567 1.145c2.572 3.315 6.437 3.017 6.437 3.017 2.893-0.0547 2.479-3.12 2.479-3.12s-2.525-1.341-5.105-3.168c-2.572-1.835-5.645-5.795-7.425-6.493-0.7853-0.304-2.035-0.2413-3.38-0.1787-1.705 0.0773-3.565 0.156-4.837-0.5093-2.281-1.193-4.163-7.231-7.731-11.69-3.56-4.455-7.919-6.533-12.48-11.98-4.555-5.449-11.58-17.86-16.05-24.19-11.94 2.288-6.284 14.65-6.284 14.65" fill="url(#i)" style="fill:url(#aw)"/>
      <path d="m457.8 295.3s-3.019 2.576-9.159 1.685c0 0 5.268 3.445 10.21 0.188z" fill="url(#d)" opacity=".4" style="fill-rule:evenodd;fill:url(#av)"/>
      <path d="m460.3 299.9-2.163 2.843s2.532 6.161 3.568 10.47c0 0-2.48-7.376-4.509-10.05l-2.625 1.535s2.931 8.1 3.867 11.8c0 0-3.163-9.373-4.752-11.01l-4.831 1.341h-0.7453l-2.253-0.796s6.357 1.097 14.44-6.136" fill="url(#c)" opacity=".4" style="fill-rule:evenodd;fill:url(#au)"/>
      <path d="m426.9 266.9s-4.692 0.8667-5.583 5.917c0 0 1.983-2.763 5.583-5.917" fill="url(#b)" opacity=".4" style="fill-rule:evenodd;fill:url(#at)"/>
      <path d="m421.3 277.4c6.799 7.119 17.38 19.41 17.38 19.41 2.297 5.92 4.853 9.88 5.167 10.35-0.2893-0.5733-3.199-6.235-3.904-11.82z" fill="url(#a)" opacity=".4" style="fill-rule:evenodd;fill:url(#as)"/>
      <path d="m470.2 296.4-2.576 0.9893s-2.301-0.9067-1.348-3.351z" fill="#ffc3a4" style="fill-rule:evenodd"/>
    </g>
    <g transform="translate(-24.33)">
      <path d="m407.8 259.1s1.584 1.372 12.68 17.47c0.332 0.212 0.548 0.572 0.8387 0.8707l8e-3 8e-3c6.799 7.119 17.38 19.41 17.38 19.41 2.297 5.919 4.853 9.879 5.167 10.35 0.024 0.032 0.032 0.0467 0.032 0.0467l1.481 8.099c1.859 1.115 3.568 0.072 3.568 0.072-0.1493-3.271-0.816-8.539-0.816-8.539h0.7453l4.9 9.432c4.384 1.78 8.1-1.56 8.1-1.56l-0.1493-1.491c2.823 0.5253 3.708-0.8853 3.708-0.8853-1.035-6.092-4.601-11.52-4.601-11.52l-3.073-5.472 3.567 1.145c2.572 3.315 6.437 3.017 6.437 3.017 2.893-0.0547 2.479-3.12 2.479-3.12s-2.525-1.341-5.105-3.168c-2.572-1.835-5.645-5.795-7.425-6.493-0.7853-0.304-2.035-0.2413-3.38-0.1787-1.705 0.0773-3.565 0.156-4.837-0.5093-2.281-1.193-4.163-7.231-7.731-11.69-3.56-4.455-7.919-6.533-12.48-11.98-4.555-5.449-11.81-18.07-16.28-24.4-11.94 2.288-6.059 14.86-6.059 14.86" fill="url(#i)" style="fill:url(#aw)"/>
      <path d="m457.8 295.3s-3.019 2.576-9.159 1.685c0 0 5.268 3.445 10.21 0.188z" fill="url(#d)" opacity=".4" style="fill-rule:evenodd;fill:url(#av)"/>
      <path d="m460.3 299.9-2.163 2.843s2.532 6.161 3.568 10.47c0 0-2.48-7.376-4.509-10.05l-2.625 1.535s2.931 8.1 3.867 11.8c0 0-3.163-9.373-4.752-11.01l-4.831 1.341h-0.7453l-2.253-0.796s6.357 1.097 14.44-6.136" fill="url(#c)" opacity=".4" style="fill-rule:evenodd;fill:url(#au)"/>
      <path d="m426.9 266.9s-4.692 0.8667-5.583 5.917c0 0 1.983-2.763 5.583-5.917" fill="url(#b)" opacity=".4" style="fill-rule:evenodd;fill:url(#at)"/>
      <path d="m421.3 277.4c6.799 7.119 17.38 19.41 17.38 19.41 2.297 5.92 4.853 9.88 5.167 10.35-0.2893-0.5733-3.199-6.235-3.904-11.82z" fill="url(#a)" opacity=".4" style="fill-rule:evenodd;fill:url(#as)"/>
      <path d="m470.2 296.4-2.576 0.9893s-2.301-0.9067-1.348-3.351z" fill="#ffc3a4" style="fill-rule:evenodd"/>
    </g>
  </g>
  <g id="gr_belly" class="covered pointer-cursor">
    <path d="m27.05 70.66c-0.1 0.9153-0.111 1.651-0.1645 2.562-0.03906 0.664-0.2211 1.307-0.2542 1.97-0.01164 0.2328 0.01788 0.4668 0 0.6992-0.09121 1.186 0.03063 2.143-0.03927 3.331-0.03205 0.5449-0.3421 1.335-0.3421 1.881 0 0.08399-0.01696 1.763 0 1.78 0.02996 0.02996 0.1219-0.04205 0.1271 0 0.02102 0.1682-0.08116 0.3597 0 0.5085 0.1803 0.3306 1.743 0.1777 1.97 0.1907 1.401 0.08007 2.788 0.2243 4.195 0.2542 1.503 0.03197 3.01 0 4.513 0 1.703 0 3.459 0.2277 5.148-0.06356 0.08537-0.01471 0.7471-0.1036 0.8898-0.3178 0.271-2.322-0.06352-4.357 0.0463-6.877-0.2216-1.647-0.2743-2.554-0.3618-3.715-0.01749-0.2362-0.1891-0.6346-0.2126-0.8703-0.08892-0.8892 0.2247-1.428-0.9974-1.567-1.57-0.1784-3.059-0.1271-4.64-0.1271-6.782 0 0.4933-0.04725-5.784 0.1271-0.6142 0.01707-1.229-0.02455-1.843 0-0.9116 0.03646-1.11 0.07627-1.994-0.02197z" style="fill-opacity:.9978;fill:#ffa670;stroke-width:0"/>
    <circle cx="34.92" cy="79.3" r=".8581" style="fill:#e87a83;stroke-width:0"/>
  </g>
  <g id="gr_palms" class="covered pointer-cursor">
    <path d="m9.001 77.15c-1.091 0.2238-2.793 0-3.566 0.2971-0.7691 0.3042-2.105 2.021-3.22 2.819-1.119 0.7932-2.217 1.374-2.217 1.374s-0.1783 1.332 1.077 1.356c0 0 1.678 0.1294 2.793-1.311l1.549-0.4961-1.336 2.374s-1.548 2.353-1.996 4.995c0 0 0.3839 0.6149 1.608 0.3847l-0.06293 0.6469s1.612 1.451 3.514 0.6778l2.126-4.093h0.3252s-0.2903 2.286-0.3569 3.705c0 0 0.7416 0.451 1.549-0.03181l0.6438-3.514s0.0031-0.0066 0.01329-0.02064c0.1367-0.2066 1.245-1.923 2.241-4.492-7e-3 -0.04896-0.08042-0.5871-0.2937-1.286v-0.0035c-0.4332-1.409-1.435-3.467-3.603-3.467-0.2475 0-0.5105 0.02656-0.789 0.08425" fill="url(#bx)" style="fill:url(#bx);stroke-width:.2622"/>
    <path d="m5.417 81.19s1.31 1.118 3.973 0.7313c0 0-2.286 1.495-4.432 0.08147z" fill="url(#bw)" opacity=".4" style="fill-rule:evenodd;fill:url(#bw);stroke-width:.2622"/>
    <path d="m4.305 83.15 0.9388 1.233s-1.098 2.672-1.548 4.544c0 0 1.076-3.199 1.957-4.361l1.139 0.666s-1.271 3.514-1.678 5.121c0 0 1.373-4.067 2.062-4.775l2.096 0.5819h0.3231l0.9784-0.3453s-2.759 0.4762-6.267-2.662" fill="url(#bv)" opacity=".4" style="fill-rule:evenodd;fill:url(#bv);stroke-width:.2622"/>
    <path d="m13.69 81.82c-0.9964 2.57-2.105 4.287-2.241 4.492 0.1259-0.2482 1.64-3.356 1.948-5.779 0.2133 0.6993 0.2866 1.238 0.2937 1.287" fill="url(#bu)" opacity=".4" style="fill-rule:evenodd;fill:url(#bu);stroke-width:.2622"/>
    <path d="m1.258e-4 81.63 1.118 0.4298s0.9985-0.3941 0.5853-1.454z" fill="#ffc3a4" style="fill-rule:evenodd;stroke-width:.2622"/>
    <path d="m3.869 81.68c-1.115 1.44-2.793 1.311-2.793 1.311-1.255-0.02483-1.077-1.356-1.077-1.356l1.696 1.118s1.203-0.01015 2.175-1.073" fill="url(#bt)" opacity=".4" style="fill-rule:evenodd;fill:url(#bt);stroke-width:.2622"/>
    <path d="m2.086 88.55s0.9112-0.1185 1.609 0.3857c0 0-1.183 0.2472-1.609-0.3857" fill="url(#bs)" opacity=".4" style="fill-rule:evenodd;fill:url(#bs);stroke-width:.2622"/>
    <path d="m9.24 89.87s1.071-0.2276 1.549-0.03147c0 0-0.777 0.4959-1.549 0.03147" fill="url(#br)" opacity=".4" style="fill-rule:evenodd;fill:url(#br);stroke-width:.2622"/>
    <path d="m5.112 90.36s1.075-0.4581 2.032-0.1017c0 0-1.147 0.36-2.032 0.1017" fill="url(#bq)" opacity=".4" style="fill-rule:evenodd;fill:url(#bq);stroke-width:.2622"/>
    <path d="m3.631 89.58s0.6448-0.2698 1.481 0.7801c0 0-0.7271-0.1626-1.481-0.7801" fill="url(#bp)" opacity=".4" style="fill-rule:evenodd;fill:url(#bp);stroke-width:.2622"/>
    <path d="m60.74 77.11c1.091 0.2238 2.793 0 3.566 0.2971 0.7691 0.3042 2.105 2.021 3.22 2.819 1.119 0.7932 2.217 1.374 2.217 1.374s0.1783 1.332-1.077 1.356c0 0-1.678 0.1294-2.793-1.311l-1.549-0.4961 1.336 2.374s1.548 2.353 1.996 4.995c0 0-0.3839 0.6149-1.608 0.3847l0.06293 0.6469s-1.612 1.451-3.514 0.6778l-2.126-4.093h-0.3252s0.2903 2.286 0.3569 3.705c0 0-0.7416 0.451-1.549-0.03181l-0.6438-3.514s-0.0031-0.0066-0.01329-0.02064c-0.1367-0.2066-1.245-1.923-2.241-4.492 7e-3 -0.04896 0.08042-0.5871 0.2937-1.286v-0.0035c0.4332-1.409 1.435-3.467 3.603-3.467 0.2475 0 0.5105 0.02656 0.789 0.08425" fill="url(#bx)" style="fill:url(#cg);stroke-width:.2622"/>
    <path d="m64.32 81.14s-1.31 1.118-3.973 0.7313c0 0 2.286 1.495 4.432 0.08147z" fill="url(#bw)" opacity=".4" style="fill-rule:evenodd;fill:url(#cf);stroke-width:.2622"/>
    <path d="m65.44 83.11-0.9388 1.233s1.098 2.672 1.548 4.544c0 0-1.076-3.199-1.957-4.361l-1.139 0.666s1.271 3.514 1.678 5.121c0 0-1.373-4.067-2.062-4.775l-2.096 0.5819h-0.3231l-0.9784-0.3453s2.759 0.4762 6.267-2.662" fill="url(#bv)" opacity=".4" style="fill-rule:evenodd;fill:url(#ce);stroke-width:.2622"/>
    <path d="m56.05 81.77c0.9964 2.57 2.105 4.287 2.241 4.492-0.1259-0.2482-1.64-3.356-1.948-5.779-0.2133 0.6993-0.2866 1.238-0.2937 1.287" fill="url(#bu)" opacity=".4" style="fill-rule:evenodd;fill:url(#cd);stroke-width:.2622"/>
    <path d="m69.74 81.59-1.118 0.4298s-0.9985-0.3941-0.5853-1.454z" fill="#ffc3a4" style="fill-rule:evenodd;stroke-width:.2622"/>
    <path d="m65.87 81.64c1.115 1.44 2.793 1.311 2.793 1.311 1.255-0.02483 1.077-1.356 1.077-1.356l-1.696 1.118s-1.203-0.01015-2.175-1.073" fill="url(#bt)" opacity=".4" style="fill-rule:evenodd;fill:url(#cc);stroke-width:.2622"/>
    <path d="m67.65 88.51s-0.9112-0.1185-1.609 0.3857c0 0 1.183 0.2472 1.609-0.3857" fill="url(#bs)" opacity=".4" style="fill-rule:evenodd;fill:url(#cb);stroke-width:.2622"/>
    <path d="m60.5 89.82s-1.071-0.2276-1.549-0.03147c0 0 0.777 0.4959 1.549 0.03147" fill="url(#br)" opacity=".4" style="fill-rule:evenodd;fill:url(#ca);stroke-width:.2622"/>
    <path d="m64.63 90.32s-1.075-0.4581-2.032-0.1017c0 0 1.147 0.36 2.032 0.1017" fill="url(#bq)" opacity=".4" style="fill-rule:evenodd;fill:url(#bz);stroke-width:.2622"/>
    <path d="m66.11 89.54s-0.6448-0.2698-1.481 0.7801c0 0 0.7271-0.1626 1.481-0.7801" fill="url(#bp)" opacity=".4" style="fill-rule:evenodd;fill:url(#by);stroke-width:.2622"/>
  </g>
  <g id="gr_chest" class="covered pointer-cursor">
    <path d="m27.62 56.68c0.07199 0.4411 0.2418 0.8523 0.3726 1.277 0.113 0.3672 0.2551 0.6791 0.3193 1.064 0.1069 0.6414 0.01558 0.3338 0.05322 1.011 0.03726 0.6707 0.09315 0.1862 0.05322 0.9048-0.03145 0.5661-0.1267 1.143-0.2129 1.703-0.02751 0.1788-0.09142 0.3519-0.1064 0.5322-0.01032 0.1238 0.01032 0.2488 0 0.3726-0.03133 0.376-0.1706 0.8239-0.3193 1.171-0.0504 0.1176-0.1724 0.198-0.2129 0.3193-0.04506 0.1352-0.206 1.101-0.1597 1.224 0.03114 0.08306 0.1019 0.1455 0.1597 0.2129 0.3185 0.3715 0.8292 0.3305 1.277 0.3726 1.832 0.1718 0.4971 0.1064 3.034 0.1064 4.291 0-1.009-0.0449 3.832 0.1597 1.046 0.04419 2.093 0 3.14 0 1.098 0 2.487 0.0506 3.193-0.958 0.1078-0.1539 0.279-0.445 0.2661-0.6387-0.01008-0.1512-0.1064-0.2839-0.1597-0.4258-0.1812-0.4831-0.3835-0.9809-0.479-1.49-0.0724-0.3861-0.08716-0.7842-0.1597-1.171-0.03753-0.2002-0.194-0.8224-0.2129-1.011-0.04417-0.4417-0.03738-0.887-0.05322-1.331-0.02254-0.6309-0.05094-1.344 0.05322-1.969 0.02656-0.1594 0.4997-1.269 0.4258-1.331-0.09142-0.07619-0.2053-0.1255-0.3193-0.1597-1.787-0.5362-1.165-0.5818-3.015-0.7242-0.5861-0.04509-3.851-0.02087-4.436-0.07417-0.6564-0.08871-1.309 0.3335-1.969 0.2756-0.9885-0.08671-1.742-0.2797-2.741-0.04752-0.335 0.07791-1.387 0.2089-1.623 0.6235-0.0797 0.1395-0.0305 0.32-0.05322 0.479-5e-3 0.03512-0.0086-0.07202 0-0.1064 0.09289-0.3716 0.05322 0.3487 0.05322-0.3726z" style="fill:#ffa670"/>
    <circle cx="30.61" cy="61.23" r=".8581" style="fill:#e87a83;stroke-width:0"/>
    <circle cx="39.07" cy="61.23" r=".8581" style="fill:#e87a83;stroke-width:0"/>
    <path d="m28.03 64.45c0.1112 0.0084 0.2227 0.01405 0.3337 0.02516 0.2346 0.02349 0.8355 0.1033 1.047 0.1221 0.6121 0.05444 1.225 0.06089 1.839 0.06632 0.6952-0.01048 1.393-0.06171 2.07-0.226 0.04721-0.01378 0.09442-0.02755 0.1416-0.04133l0.7723-0.5986c-0.04865 0.01693-0.0973 0.03388-0.1459 0.05082-0.6814 0.1966-1.392 0.2523-2.099 0.2781-0.6133 0.0053-1.223 6e-3 -1.835-0.05551-0.3288-0.03307-0.6878-0.09634-1.016-0.1458-0.1041-0.01566-0.2083-0.02971-0.3125-0.04457l-0.7954 0.5692z" style="fill:#e87a83;stroke-width:0"/>
    <path d="m41.64 64.45c-0.1112 0.0084-0.2227 0.01405-0.3337 0.02516-0.2346 0.02349-0.8355 0.1033-1.047 0.1221-0.6121 0.05444-1.225 0.06089-1.839 0.06632-0.6952-0.01048-1.393-0.06171-2.07-0.226-0.04721-0.01378-0.09442-0.02755-0.1416-0.04133l-0.7723-0.5986c0.04865 0.01693 0.0973 0.03388 0.1459 0.05082 0.6814 0.1966 1.392 0.2523 2.099 0.2781 0.6133 0.0053 1.223 6e-3 1.835-0.05551 0.3288-0.03307 0.6878-0.09634 1.016-0.1458 0.1041-0.01566 0.2083-0.02971 0.3125-0.04457l0.7954 0.5692z" style="fill:#e87a83;stroke-width:0"/>
  </g>
  <g id="gr_shoulders" class="covered pointer-cursor">
    <path d="m31.57 50.77c-0.4811-0.09815-0.9318 0.1483-1.386 0.2133-0.7838 0.112-0.875-0.03526-1.706 0.4266-0.7237 0.402-2.502 2.335-2.708 3.093-0.05612 0.2058-0.1711 0.4266-0.1711 0.6399 0 0.1066-0.04769 0.2246 0 0.3199 0.05627 0.1125 2.169 0.2191 2.501 0.2741 0.526 0.08766 1.551 0.114 2.085 0.114 2.196 0 4.283-0.3239 6.476-0.1552 0.8809 0.06776 3.064 0.0731 3.936 0.17 0.6951 0.07724 1.591 0.7344 2.157 0.3569 1.239-0.8257 1.608-1.746 0.4414-2.679-0.3003-0.2402-1.004-1.224-1.302-1.467-1.034-0.8399-1.279-0.8092-2.644-1.199-0.3095-0.08843-0.6411-0.06112-0.9598-0.1066-0.1794-0.02564-0.3613-0.04933-0.5332-0.1066-4.356 1.762 3.002-0.1566-2.026 0.5332-1.418 0.1934-2.752-0.4266-4.159-0.4266z" style="fill:#ffa670"/>
  </g>
  <g transform="translate(-.2123)" fill="#de658b">
    <path d="m44.51 67.16s-3.048-4.699-1.689-10.77c0 0-2.053 3.961-0.1175 9.078z" opacity=".68" style="stroke-width:.2646"/>
    <path d="m25.72 66.77s3.014-4.487 1.655-10.56c0 0 2.087 3.749 0.1506 8.866z" opacity=".68" style="stroke-width:.2646"/>
  </g>
</svg>
