<svg viewBox="0 0 12.6 11.61" xmlns="http://www.w3.org/2000/svg">
  <defs>
    <linearGradient id="linearGradient10542" x2="1" gradientTransform="matrix(0,-43.84,43.84,0,22.57,137.8)" gradientUnits="userSpaceOnUse">
      <stop stop-color="#ff9b86" offset="0"/>
      <stop stop-color="#ff9b86" offset=".03352"/>
      <stop stop-color="#ffa670" offset=".3253"/>
      <stop stop-color="#ffa670" offset=".9532"/>
      <stop stop-color="#ffa670" offset="1"/>
    </linearGradient>
    <linearGradient id="linearGradient12124" x2="1" gradientTransform="matrix(1.589,0,0,1.589,18.47,136)" gradientUnits="userSpaceOnUse">
      <stop stop-color="#ca00a4" offset="0"/>
      <stop stop-color="#ca00a4" offset=".005587"/>
      <stop stop-color="#fff" offset="1"/>
    </linearGradient>
    <linearGradient id="linearGradient12230" x2="1" gradientTransform="matrix(0,-43.84,-43.84,0,46.99,137.8)" gradientUnits="userSpaceOnUse">
      <stop stop-color="#ff9b86" offset="0"/>
      <stop stop-color="#ff9b86" offset=".03352"/>
      <stop stop-color="#ffa670" offset=".3253"/>
      <stop stop-color="#ffa670" offset=".9532"/>
      <stop stop-color="#ffa670" offset="1"/>
    </linearGradient>
    <linearGradient id="linearGradient12622" x2="1" gradientTransform="matrix(-1.589,0,0,1.589,50.96,136)" gradientUnits="userSpaceOnUse">
      <stop stop-color="#ca00a4" offset="0"/>
      <stop stop-color="#ca00a4" offset=".005587"/>
      <stop stop-color="#fff" offset="1"/>
    </linearGradient>
    <linearGradient id="ad" x2="1" gradientTransform="matrix(0,-5.002,5.002,0,22.4,116.6)" gradientUnits="userSpaceOnUse">
      <stop stop-color="#fff" offset="0"/>
      <stop stop-color="#ca00a4" offset=".9944"/>
      <stop stop-color="#ca00a4" offset="1"/>
    </linearGradient>
    <linearGradient id="ac" x2="1" gradientTransform="matrix(0,-1.793,1.793,0,26.85,115.9)" gradientUnits="userSpaceOnUse">
      <stop stop-color="#ca00a4" offset="0"/>
      <stop stop-color="#ca00a4" offset=".005587"/>
      <stop stop-color="#fff" offset="1"/>
    </linearGradient>
    <linearGradient id="z" x2="1" gradientTransform="matrix(0,-5.002,-5.002,0,47.17,116.6)" gradientUnits="userSpaceOnUse">
      <stop stop-color="#fff" offset="0"/>
      <stop stop-color="#ca00a4" offset=".9944"/>
      <stop stop-color="#ca00a4" offset="1"/>
    </linearGradient>
    <linearGradient id="k" x2="1" gradientTransform="matrix(0,-6.918,6.918,0,44.54,118.5)" gradientUnits="userSpaceOnUse">
      <stop stop-color="#ca00a4" offset="0"/>
      <stop stop-color="#ca00a4" offset=".005587"/>
      <stop stop-color="#fff" offset="1"/>
    </linearGradient>
    <linearGradient id="j" x2="1" gradientTransform="matrix(0,-6.918,-6.918,0,25.05,118.5)" gradientUnits="userSpaceOnUse">
      <stop stop-color="#ca00a4" offset="0"/>
      <stop stop-color="#ca00a4" offset=".005587"/>
      <stop stop-color="#fff" offset="1"/>
    </linearGradient>
    <linearGradient id="y" x2="1" gradientTransform="matrix(0,-1.793,-1.793,0,42.69,115.9)" gradientUnits="userSpaceOnUse">
      <stop stop-color="#ca00a4" offset="0"/>
      <stop stop-color="#ca00a4" offset=".005587"/>
      <stop stop-color="#fff" offset="1"/>
    </linearGradient>
  </defs>
  <g transform="translate(-.01049 -.0108)">
    <g id="gr_legs" class="covered pointer-cursor" transform="matrix(.2646 0 0 .2646 -1.341 -23.2)">
      <g transform="translate(-5.807 -6.193)" style="opacity:.4">
        <path d="m22.78 109.2c-0.8329 2.95-1.285 4.239-0.908 6.093 0.0035 7e-3 0.0067 0.0169 0.0067 0.0275 0 0-1.417 10.18-3.029 15.08 0 0-3.434 2.791-5.323 4.035-1.89 1.248-2.577 1.847-2.577 1.847s-0.1736 0.731 0.2586 1.203c0 0 5.368 0.3469 10.65 0.2247 0.01341 0 0.0268 0 0.03739-4e-3 2.132-0.0476 4.244-0.1767 5.98-0.4352l0.0035-0.0204c0.0649-0.3844 1.105-6.628 1.962-12.15 0.9247-5.985 1.085-10.46 1.085-10.46l0.6085-2.873 2.717-12.8s-4.768-4.961-8.694-5.059c0 0-1.934 12.34-2.77 15.3" fill="url(#linearGradient10542)" style="fill:url(#linearGradient10542);stroke-width:.2646"/>
        <path d="m25.42 94.68s7.591-0.7556 7.771 9.223l1.045-4.921s-2.577-3.22-8.697-5.056z" fill="#de658b" opacity=".68" style="fill-rule:evenodd;stroke-width:.2646"/>
        <path d="m19.23 137.8s-0.1718-1.925 0.8162-3.471c0 0-1.59 1.179-1.59 3.466z" fill="url(#linearGradient12124)" opacity=".3" style="fill-rule:evenodd;fill:url(#linearGradient12124);stroke-width:.2646"/>
        <path d="m16.07 137.7s0.08644-1.406 1.246-2.48c0 0-1.505 0.6202-1.246 2.48" opacity=".68" style="fill-rule:evenodd;fill:#d16595;stroke-width:.2646"/>
        <path d="m14.16 137.7s-0.1249-1.645 1.335-2.762c0 0-1.081 1.185-1.335 2.762" opacity=".68" style="fill-rule:evenodd;fill:#d16595;stroke-width:.2646"/>
        <path d="m12.23 137.6s-0.3408-1.43 0.9909-2.332c0 0-0.7787 0.7115-0.9909 2.332" opacity=".68" style="fill-rule:evenodd;fill:#d16595;stroke-width:.2646"/>
        <path d="m20.11 134.9s1.761-0.4297 3.051 0l0.29-0.1909s-0.8806-1.559-3.339 0.1909" style="fill-rule:evenodd;fill:#ff4941;opacity:.8;stroke-width:.2646"/>
        <path d="m16.81 136.4 1.482-0.1284s0.3972-1.038-0.29-1.038-1.192 1.166-1.192 1.166" style="fill-rule:evenodd;fill:#ff4941;opacity:.8;stroke-width:.2646"/>
        <path d="m14.85 136.5h1.077s0.3432-0.9602-0.1933-0.8957c-0.5374 0.0646-0.8838 0.8957-0.8838 0.8957" style="fill-rule:evenodd;fill:#ff4941;opacity:.8;stroke-width:.2646"/>
        <path d="m12.71 136.5 1.352-0.0737s0.2575-0.8068-0.3009-0.8253c-0.558-0.0187-1.051 0.8988-1.051 0.8988" style="fill-rule:evenodd;fill:#ff4941;opacity:.8;stroke-width:.2646"/>
        <path d="m11.33 136.5 0.8711-0.0737s0.2463-0.3747-0.3019-0.3757c-0.5475-1e-3 -0.5692 0.4496-0.5692 0.4496" style="fill-rule:evenodd;fill:#ff4941;opacity:.8;stroke-width:.2646"/>
        <path d="m35.21 98.99 2.717 12.8 0.6085 2.873s0.1598 4.474 1.085 10.46c0.8572 5.53 1.898 11.77 1.962 12.15l0.0034 0.0204c1.738 0.2586 3.85 0.3876 5.982 0.4352 0.0098 4e-3 0.02408 4e-3 0.03741 4e-3 5.278 0.122 10.65-0.2247 10.65-0.2247 0.4318-0.4723 0.2586-1.203 0.2586-1.203s-0.6869-0.5988-2.578-1.847c-1.89-1.245-5.323-4.035-5.323-4.035-1.612-4.897-3.029-15.08-3.029-15.08 0-0.0106 0.0034-0.0204 0.0071-0.0275 0.377-1.853-0.07443-3.141-0.9078-6.093-0.8363-2.961-2.77-15.3-2.77-15.3-3.926 0.09877-8.694 5.059-8.694 5.059" fill="url(#linearGradient12230)" style="fill:url(#linearGradient12230);stroke-width:.2646"/>
        <path d="m44.08 94.68s-8.813 0.3514-7.771 9.223l-1.046-4.921s2.577-3.22 8.697-5.056z" fill="#de658b" opacity=".68" style="fill-rule:evenodd;stroke-width:.2646"/>
        <path d="m50.16 137.8s0.1714-1.925-0.816-3.471c0 0 1.589 1.179 1.589 3.466z" fill="url(#linearGradient12622)" opacity=".3" style="fill-rule:evenodd;fill:url(#linearGradient12622);stroke-width:.2646"/>
        <path d="m53.4 137.7s-0.08679-1.406-1.247-2.48c0 0 1.505 0.6202 1.247 2.48" opacity=".68" style="fill-rule:evenodd;fill:#d16595;stroke-width:.2646"/>
        <path d="m55.52 137.7s0.1249-1.645-1.335-2.762c0 0 1.081 1.185 1.335 2.762" opacity=".68" style="fill-rule:evenodd;fill:#d16595;stroke-width:.2646"/>
        <path d="m57.37 137.6s0.3408-1.43-0.9909-2.332c0 0 0.779 0.7115 0.9909 2.332" opacity=".68" style="fill-rule:evenodd;fill:#d16595;stroke-width:.2646"/>
        <path d="m49.43 134.9s-1.761-0.4297-3.051 0l-0.2897-0.1909s0.8803-1.559 3.339 0.1909" style="fill-rule:evenodd;fill:#ff4941;opacity:.8;stroke-width:.2646"/>
        <path d="m52.87 136.4-1.482-0.1284s-0.3972-1.038 0.2897-1.038c0.6872 0 1.192 1.166 1.192 1.166" style="fill-rule:evenodd;fill:#ff4941;opacity:.8;stroke-width:.2646"/>
        <path d="m54.72 136.5h-1.077s-0.3437-0.9602 0.1933-0.8957c0.5371 0.0646 0.8838 0.8957 0.8838 0.8957" style="fill-rule:evenodd;fill:#ff4941;opacity:.8;stroke-width:.2646"/>
        <path d="m56.84 136.5-1.353-0.0737s-0.2575-0.8068 0.3008-0.8253c0.5586-0.0187 1.052 0.8988 1.052 0.8988" style="fill-rule:evenodd;fill:#ff4941;opacity:.8;stroke-width:.2646"/>
        <path d="m58.16 136.5-0.8711-0.0737s-0.2459-0.3747 0.3019-0.3757c0.548-1e-3 0.5692 0.4496 0.5692 0.4496" style="fill-rule:evenodd;fill:#ff4941;opacity:.8;stroke-width:.2646"/>
      </g>
      <g id="gr_knees" class="covered pointer-cursor" transform="translate(-5.835 -6.162)">
        <path d="m22.16 111.7c1.464-0.3066 2.988-0.3195 4.478-0.2653 1.083 0.0393 2.852 0.0386 3.615 0.9287 0.3487 0.4069 0.4078 1.016 0.4643 1.526 0.06099 0.5488 0.1604 1.105 0.1327 1.658-0.01502 0.3006-0.1171 0.5696-0.1658 0.8624-0.08797 0.5278-0.1434 1.048-0.4643 1.493-0.1715 0.2375-0.1966 0.307-0.4311 0.4311-0.4751 0.2515-0.4011 0.1481-1.028 0.3317-0.2349 0.0688-0.4564 0.185-0.6965 0.2322-0.5983 0.1175-1.43 0.1703-2.057 0.1326-0.256-0.0154-0.508-0.0705-0.7629-0.0995-0.413-0.0469-0.9352-0.0363-1.327-0.2322-0.1756-0.0879-0.3992-0.252-0.5307-0.398-0.05334-0.0592-0.08218-0.1373-0.1326-0.199-0.2388-0.2918-0.1026-0.0341-0.3317-0.3649-0.02668-0.0385-0.2969-0.5277-0.2985-0.5307-0.3497-0.6217-0.775-1.717-0.8292-2.421-0.01272-0.1654 0.0046-0.3318 0-0.4975-0.01448-0.5215-0.07135-0.813 0-1.326 0.08701-0.6265 0.1172-0.4249 0.2653-0.9286 0.118-0.4012-0.0533-0.0261 0.09946-0.3317z" style="fill:#ffa670;stroke-width:.9907"/>
        <path d="m47.39 111.7c-1.464-0.3066-2.988-0.3195-4.478-0.2653-1.083 0.0393-2.852 0.0386-3.615 0.9287-0.3487 0.4069-0.4078 1.016-0.4643 1.526-0.06099 0.5488-0.1604 1.105-0.1326 1.658 0.01502 0.3006 0.1171 0.5696 0.1658 0.8624 0.08797 0.5278 0.1433 1.048 0.4643 1.493 0.1715 0.2375 0.1966 0.307 0.4311 0.4311 0.4751 0.2515 0.4011 0.1481 1.028 0.3317 0.2349 0.0688 0.4564 0.185 0.6965 0.2322 0.5983 0.1175 1.43 0.1703 2.057 0.1326 0.256-0.0154 0.508-0.0705 0.7629-0.0995 0.413-0.0469 0.9352-0.0363 1.327-0.2322 0.1756-0.0879 0.3992-0.252 0.5307-0.398 0.05334-0.0592 0.08219-0.1373 0.1326-0.199 0.2388-0.2918 0.1026-0.0341 0.3317-0.3649 0.02668-0.0385 0.2969-0.5277 0.2985-0.5307 0.3497-0.6217 0.775-1.717 0.8292-2.421 0.01272-0.1654-0.0046-0.3318 0-0.4975 0.01448-0.5215 0.07135-0.813 0-1.326-0.08701-0.6265-0.1172-0.4249-0.2653-0.9286-0.118-0.4012 0.0533-0.0261-0.09946-0.3317z" style="fill:#ffa670;stroke-width:.9907"/>
        <path d="m22.16 111.6s-0.1031 2.424 0.7993 5.002l-1.076-1.031s-0.3083-1.876 0.276-3.972" fill="url(#ad)" opacity=".4" style="fill-rule:evenodd;fill:url(#ad);stroke-width:.2621"/>
        <path d="m25.46 115.9s1.794 2e-3 2.781-1.793z" fill="url(#ac)" opacity=".4" style="fill-rule:evenodd;fill:url(#ac);stroke-width:.2621"/>
        <path d="m47.38 111.6s0.1031 2.424-0.7993 5.002l1.076-1.031s0.3085-1.876-0.276-3.972" fill="url(#z)" opacity=".4" style="fill-rule:evenodd;fill:url(#z);stroke-width:.2621"/>
        <path d="m41.29 113.9s2.475 2.159 4.179 1.965c1.703-0.1933 1.906-4.281 1.906-4.281s0.6587 2.209 0.276 3.972c0 0-0.7046 2.462-1.832 2.918-1.127 0.4553-4.527-4.572-4.527-4.572" fill="url(#k)" opacity=".2" style="fill-rule:evenodd;fill:url(#k);stroke-width:.2621"/>
        <path d="m28.29 113.9s-2.475 2.159-4.179 1.965c-1.703-0.1933-1.906-4.281-1.906-4.281s-0.6587 2.209-0.276 3.972c0 0 0.7046 2.462 1.832 2.918 1.128 0.4553 4.527-4.572 4.527-4.572" fill="url(#j)" opacity=".2" style="fill-rule:evenodd;fill:url(#j);stroke-width:.2621"/>
        <path d="m44.08 115.9s-1.794 2e-3 -2.781-1.793z" fill="url(#y)" opacity=".4" style="fill-rule:evenodd;fill:url(#y);stroke-width:.2621"/>
      </g>
    </g>
  </g>
</svg>
