<svg viewBox="0 0 12.6 11.61" xmlns="http://www.w3.org/2000/svg">
  <defs>
    <linearGradient id="linearGradient10542" x2="1" gradientTransform="matrix(0,-43.84,43.84,0,22.57,137.8)" gradientUnits="userSpaceOnUse">
      <stop stop-color="#ff9b86" offset="0"/>
      <stop stop-color="#ff9b86" offset=".03352"/>
      <stop stop-color="#ffa670" offset=".3253"/>
      <stop stop-color="#ffa670" offset=".9532"/>
      <stop stop-color="#ffa670" offset="1"/>
    </linearGradient>
    <linearGradient id="linearGradient12124" x2="1" gradientTransform="matrix(1.589,0,0,1.589,18.47,136)" gradientUnits="userSpaceOnUse">
      <stop stop-color="#ca00a4" offset="0"/>
      <stop stop-color="#ca00a4" offset=".005587"/>
      <stop stop-color="#fff" offset="1"/>
    </linearGradient>
    <linearGradient id="linearGradient12230" x2="1" gradientTransform="matrix(0,-43.84,-43.84,0,46.99,137.8)" gradientUnits="userSpaceOnUse">
      <stop stop-color="#ff9b86" offset="0"/>
      <stop stop-color="#ff9b86" offset=".03352"/>
      <stop stop-color="#ffa670" offset=".3253"/>
      <stop stop-color="#ffa670" offset=".9532"/>
      <stop stop-color="#ffa670" offset="1"/>
    </linearGradient>
    <linearGradient id="linearGradient12622" x2="1" gradientTransform="matrix(-1.589,0,0,1.589,50.96,136)" gradientUnits="userSpaceOnUse">
      <stop stop-color="#ca00a4" offset="0"/>
      <stop stop-color="#ca00a4" offset=".005587"/>
      <stop stop-color="#fff" offset="1"/>
    </linearGradient>
  </defs>
  <g transform="translate(-.01049 -.0108)">
    <g id="gr_legs" class="covered pointer-cursor" transform="matrix(.2646 0 0 .2646 -1.341 -23.2)">
      <g transform="translate(-5.807 -6.193)">
        <path d="m22.78 109.2c-0.8329 2.95-1.285 4.239-0.908 6.093 0.0035 7e-3 0.0067 0.0169 0.0067 0.0275 0 0-1.417 10.18-3.029 15.08 0 0-3.434 2.791-5.323 4.035-1.89 1.248-2.577 1.847-2.577 1.847s-0.1736 0.731 0.2586 1.203c0 0 5.368 0.3469 10.65 0.2247 0.01341 0 0.0268 0 0.03739-4e-3 2.132-0.0476 4.244-0.1767 5.98-0.4352l0.0035-0.0204c0.0649-0.3844 1.105-6.628 1.962-12.15 0.9247-5.985 1.085-10.46 1.085-10.46l0.6085-2.873 2.717-12.8s-4.768-4.961-8.694-5.059c0 0-1.934 12.34-2.77 15.3" fill="url(#linearGradient10542)" style="fill:url(#linearGradient10542);stroke-width:.2646"/>
        <path d="m25.42 94.68s7.591-0.7556 7.771 9.223l1.045-4.921s-2.577-3.22-8.697-5.056z" fill="#de658b" opacity=".68" style="fill-rule:evenodd;stroke-width:.2646"/>
        <path d="m19.23 137.8s-0.1718-1.925 0.8162-3.471c0 0-1.59 1.179-1.59 3.466z" fill="url(#linearGradient12124)" opacity=".3" style="fill-rule:evenodd;fill:url(#linearGradient12124);stroke-width:.2646"/>
        <path d="m16.07 137.7s0.08644-1.406 1.246-2.48c0 0-1.505 0.6202-1.246 2.48" opacity=".68" style="fill-rule:evenodd;fill:#d16595;stroke-width:.2646"/>
        <path d="m14.16 137.7s-0.1249-1.645 1.335-2.762c0 0-1.081 1.185-1.335 2.762" opacity=".68" style="fill-rule:evenodd;fill:#d16595;stroke-width:.2646"/>
        <path d="m12.23 137.6s-0.3408-1.43 0.9909-2.332c0 0-0.7787 0.7115-0.9909 2.332" opacity=".68" style="fill-rule:evenodd;fill:#d16595;stroke-width:.2646"/>
        <path d="m20.11 134.9s1.761-0.4297 3.051 0l0.29-0.1909s-0.8806-1.559-3.339 0.1909" style="fill-rule:evenodd;fill:#ff4941;opacity:.8;stroke-width:.2646"/>
        <path d="m16.81 136.4 1.482-0.1284s0.3972-1.038-0.29-1.038-1.192 1.166-1.192 1.166" style="fill-rule:evenodd;fill:#ff4941;opacity:.8;stroke-width:.2646"/>
        <path d="m14.85 136.5h1.077s0.3432-0.9602-0.1933-0.8957c-0.5374 0.0646-0.8838 0.8957-0.8838 0.8957" style="fill-rule:evenodd;fill:#ff4941;opacity:.8;stroke-width:.2646"/>
        <path d="m12.71 136.5 1.352-0.0737s0.2575-0.8068-0.3009-0.8253c-0.558-0.0187-1.051 0.8988-1.051 0.8988" style="fill-rule:evenodd;fill:#ff4941;opacity:.8;stroke-width:.2646"/>
        <path d="m11.33 136.5 0.8711-0.0737s0.2463-0.3747-0.3019-0.3757c-0.5475-1e-3 -0.5692 0.4496-0.5692 0.4496" style="fill-rule:evenodd;fill:#ff4941;opacity:.8;stroke-width:.2646"/>
        <path d="m35.21 98.99 2.717 12.8 0.6085 2.873s0.1598 4.474 1.085 10.46c0.8572 5.53 1.898 11.77 1.962 12.15l0.0034 0.0204c1.738 0.2586 3.85 0.3876 5.982 0.4352 0.0098 4e-3 0.02408 4e-3 0.03741 4e-3 5.278 0.122 10.65-0.2247 10.65-0.2247 0.4318-0.4723 0.2586-1.203 0.2586-1.203s-0.6869-0.5988-2.578-1.847c-1.89-1.245-5.323-4.035-5.323-4.035-1.612-4.897-3.029-15.08-3.029-15.08 0-0.0106 0.0034-0.0204 0.0071-0.0275 0.377-1.853-0.07443-3.141-0.9078-6.093-0.8363-2.961-2.77-15.3-2.77-15.3-3.926 0.09877-8.694 5.059-8.694 5.059" fill="url(#linearGradient12230)" style="fill:url(#linearGradient12230);stroke-width:.2646"/>
        <path d="m44.08 94.68s-8.813 0.3514-7.771 9.223l-1.046-4.921s2.577-3.22 8.697-5.056z" fill="#de658b" opacity=".68" style="fill-rule:evenodd;stroke-width:.2646"/>
        <path d="m50.16 137.8s0.1714-1.925-0.816-3.471c0 0 1.589 1.179 1.589 3.466z" fill="url(#linearGradient12622)" opacity=".3" style="fill-rule:evenodd;fill:url(#linearGradient12622);stroke-width:.2646"/>
        <path d="m53.4 137.7s-0.08679-1.406-1.247-2.48c0 0 1.505 0.6202 1.247 2.48" opacity=".68" style="fill-rule:evenodd;fill:#d16595;stroke-width:.2646"/>
        <path d="m55.52 137.7s0.1249-1.645-1.335-2.762c0 0 1.081 1.185 1.335 2.762" opacity=".68" style="fill-rule:evenodd;fill:#d16595;stroke-width:.2646"/>
        <path d="m57.37 137.6s0.3408-1.43-0.9909-2.332c0 0 0.779 0.7115 0.9909 2.332" opacity=".68" style="fill-rule:evenodd;fill:#d16595;stroke-width:.2646"/>
        <path d="m49.43 134.9s-1.761-0.4297-3.051 0l-0.2897-0.1909s0.8803-1.559 3.339 0.1909" style="fill-rule:evenodd;fill:#ff4941;opacity:.8;stroke-width:.2646"/>
        <path d="m52.87 136.4-1.482-0.1284s-0.3972-1.038 0.2897-1.038c0.6872 0 1.192 1.166 1.192 1.166" style="fill-rule:evenodd;fill:#ff4941;opacity:.8;stroke-width:.2646"/>
        <path d="m54.72 136.5h-1.077s-0.3437-0.9602 0.1933-0.8957c0.5371 0.0646 0.8838 0.8957 0.8838 0.8957" style="fill-rule:evenodd;fill:#ff4941;opacity:.8;stroke-width:.2646"/>
        <path d="m56.84 136.5-1.353-0.0737s-0.2575-0.8068 0.3008-0.8253c0.5586-0.0187 1.052 0.8988 1.052 0.8988" style="fill-rule:evenodd;fill:#ff4941;opacity:.8;stroke-width:.2646"/>
        <path d="m58.16 136.5-0.8711-0.0737s-0.2459-0.3747 0.3019-0.3757c0.548-1e-3 0.5692 0.4496 0.5692 0.4496" style="fill-rule:evenodd;fill:#ff4941;opacity:.8;stroke-width:.2646"/>
      </g>
    </g>
  </g>
</svg>
