<svg viewBox="0 0 14.37 7.074" xmlns="http://www.w3.org/2000/svg">
  <defs>
    <linearGradient id="linearGradient16730" x2="1" gradientTransform="matrix(0 -4.027 4.027 0 7.209 5.004)" gradientUnits="userSpaceOnUse">
      <stop style="stop-color:#8b1a41" offset="0"/>
      <stop style="stop-color:#64003c" offset="1"/>
    </linearGradient>
    <linearGradient id="linearGradient16750" x2="1" gradientTransform="matrix(1.463 4.418 -4.418 1.463 6.697 -.5768)" gradientUnits="userSpaceOnUse">
      <stop style="stop-color:#ff6641" offset="0"/>
      <stop style="stop-color:#b8003c" offset="1"/>
    </linearGradient>
    <radialGradient id="radialGradient16774" cx="1.964" cy="7.145" r="2.471" gradientTransform="matrix(2.24 0 0 .4465 -.01716 -.02508)">
      <stop style="stop-color:#fff0eb" offset="0"/>
      <stop style="stop-color:#fff0eb" offset=".03352"/>
      <stop style="stop-color:#ffe7e9" offset=".9773"/>
      <stop style="stop-color:#ffe7e9" offset="1"/>
    </radialGradient>
    <linearGradient id="linearGradient16804" x2="1" gradientTransform="matrix(0 -3.165 3.165 0 13.49 3.482)" gradientUnits="userSpaceOnUse">
      <stop style="stop-color:#fff" offset="0"/>
      <stop style="stop-color:#ca00a4" offset=".9944"/>
      <stop style="stop-color:#ca00a4" offset="1"/>
    </linearGradient>
    <linearGradient id="linearGradient16838" x2="1" gradientTransform="matrix(0 -3.165 -3.165 0 .8865 3.165)" gradientUnits="userSpaceOnUse">
      <stop style="stop-color:#fff" offset="0"/>
      <stop style="stop-color:#ca00a4" offset=".9944"/>
      <stop style="stop-color:#ca00a4" offset="1"/>
    </linearGradient>
  </defs>

  <g id="gr_mouth">
    <path d="m1.559 1.9s2.484 5.174 5.653 5.174c2.869 0 5.653-4.956 5.653-4.956s-1.967 1.86-5.938 1.86c-3.972 0-5.367-2.078-5.367-2.078" style="fill:#ff5f56"/>
    <path d="m7.114 5.005c4.102 0 6.592-3.655 6.592-3.655s-6.305 4.985-12.99-0.3718c0 0 2.3 4.027 6.403 4.027" style="fill:url(#linearGradient16730)"/>
    <path d="m6.926 3.666c3.995 0 6.652-2.222 6.652-2.222-6.493 1.133-12.48-0.1679-12.48-0.1679s2.82 2.39 5.827 2.39" style="fill:url(#linearGradient16750)"/>
    <path d="m7.175 4.268c1.686 0 2.741-1.041 2.741-1.041s-2.713 1.041-5.534-0.06244c0 0 1.292 1.103 2.793 1.103" style="fill:url(#radialGradient16774)"/>
    <path d="m12.6 0.3175s1.645 1.274 1.726 3.165c0 0 0.4932-2.919-1.726-3.165" style="fill-rule:evenodd;fill:url(#linearGradient16804);opacity:.68"/>
    <path d="m1.773 0s-1.644 1.274-1.726 3.165c0 0-0.4935-2.919 1.726-3.165" style="fill-rule:evenodd;fill:url(#linearGradient16838);opacity:.68"/>
  </g>
</svg>
