<svg viewBox="0 0 9.2499542 12.43083" xmlns:xlink="http://www.w3.org/1999/xlink" xmlns="http://www.w3.org/2000/svg">
  <defs>
    <linearGradient
       id="linearGradient9035">
      <stop
         style="stop-color:#d45500;stop-opacity:1;"
         offset="0"
         id="stop9031" />
      <stop
         style="stop-color:#d45500;stop-opacity:0;"
         offset="1"
         id="stop9033" />
    </linearGradient>
    <linearGradient
       id="linearGradient8648">
      <stop
         style="stop-color:#ff7f2a;stop-opacity:0.65587044"
         offset="0"
         id="stop8644" />
      <stop
         style="stop-color:#ff6c1a;stop-opacity:1"
         offset="1"
         id="stop8646" />
    </linearGradient>
    <linearGradient
       id="linearGradient8609">
      <stop
         style="stop-color:#ff7f2a;stop-opacity:0"
         offset="0"
         id="stop8605" />
      <stop
         style="stop-color:#ff6600;stop-opacity:1"
         offset="1"
         id="stop8607" />
    </linearGradient>
    <linearGradient
       x1="0"
       y1="0"
       x2="1"
       y2="0"
       gradientUnits="userSpaceOnUse"
       gradientTransform="matrix(0,8.3561754,8.3561754,0,75.861298,246.117)"
       id="linearGradient6652"
       xlink:href="#linearGradient6734">
      <stop
         style="stop-opacity:1;stop-color:#ca00a4"
         offset="0"
         id="stop6646" />
      <stop
         style="stop-opacity:1;stop-color:#d45500"
         offset="0.00558659"
         id="stop6648" />
      <stop
         style="stop-opacity:1;stop-color:#ffd3c4"
         offset="1"
         id="stop6650" />
    </linearGradient>
    <linearGradient
       x1="0"
       y1="0"
       x2="1"
       y2="0"
       gradientUnits="userSpaceOnUse"
       gradientTransform="matrix(0,7.2681999,7.2681999,0,63.698467,250.6982)"
       id="linearGradient6734">
      <stop
         style="stop-opacity:1;stop-color:#ff8d2c"
         offset="0"
         id="stop6728" />
      <stop
         style="stop-opacity:1;stop-color:#ca00a4"
         offset="0.994413"
         id="stop6730" />
      <stop
         style="stop-opacity:0.97570848;stop-color:#ff782b"
         offset="1"
         id="stop6732" />
    </linearGradient>
    <linearGradient
       x1="0"
       y1="0"
       x2="1"
       y2="0"
       gradientUnits="userSpaceOnUse"
       gradientTransform="matrix(0,7.2681999,7.2681999,0,87.953621,250.6982)"
       id="linearGradient6768">
      <stop
         style="stop-opacity:1;stop-color:#ffccaa"
         offset="0"
         id="stop6762" />
      <stop
         style="stop-opacity:1;stop-color:#ca00a4"
         offset="0.994413"
         id="stop6764" />
      <stop
         style="stop-opacity:1;stop-color:#ff7f2a"
         offset="1"
         id="stop6766" />
    </linearGradient>
    <linearGradient
       x1="0"
       y1="0"
       x2="1"
       y2="0"
       gradientUnits="userSpaceOnUse"
       gradientTransform="matrix(0,4.9439998,4.9439998,0,69.892052,248.6729)"
       id="linearGradient6802"
       xlink:href="#linearGradient6734">
      <stop
         style="stop-opacity:1;stop-color:#ffc2b3"
         offset="0"
         id="stop6796" />
      <stop
         style="stop-opacity:1;stop-color:#ca00a4"
         offset="0.994413"
         id="stop6798" />
      <stop
         style="stop-opacity:1;stop-color:#ca00a4"
         offset="1"
         id="stop6800" />
    </linearGradient>
    <linearGradient
       x1="0"
       y1="0"
       x2="1"
       y2="0"
       gradientUnits="userSpaceOnUse"
       gradientTransform="matrix(0,4.9305,4.9305,0,83.062302,247.968)"
       id="linearGradient6836">
      <stop
         style="stop-opacity:1;stop-color:#ffc2b3"
         offset="0"
         id="stop6830" />
      <stop
         style="stop-opacity:1;stop-color:#ca00a4"
         offset="0.994413"
         id="stop6832" />
      <stop
         style="stop-opacity:1;stop-color:#ca00a4"
         offset="1"
         id="stop6834" />
    </linearGradient>
    <linearGradient
       x1="0"
       y1="0"
       x2="1"
       y2="0"
       gradientUnits="userSpaceOnUse"
       gradientTransform="matrix(5.0966001,0,0,-5.0966001,73.438004,241.4296)"
       id="linearGradient6886">
      <stop
         style="stop-opacity:1;stop-color:#ffffff"
         offset="0"
         id="stop6880" />
      <stop
         style="stop-opacity:1;stop-color:#ca00a4"
         offset="0.994413"
         id="stop6882" />
      <stop
         style="stop-opacity:1;stop-color:#ca00a4"
         offset="1"
         id="stop6884" />
    </linearGradient>
    <linearGradient
       x1="0"
       y1="0"
       x2="1"
       y2="0"
       gradientUnits="userSpaceOnUse"
       gradientTransform="matrix(6.7722998,0,0,-6.7722998,80.303001,270.04855)"
       id="linearGradient6920">
      <stop
         style="stop-opacity:1;stop-color:#ffffff"
         offset="0"
         id="stop6914" />
      <stop
         style="stop-opacity:1;stop-color:#ca00a4"
         offset="0.994413"
         id="stop6916" />
      <stop
         style="stop-opacity:1;stop-color:#ca00a4"
         offset="1"
         id="stop6918" />
    </linearGradient>
    <linearGradient
       xlink:href="#linearGradient8609"
       id="linearGradient8611"
       x1="80.303001"
       y1="270.04849"
       x2="87.074997"
       y2="270.04849"
       gradientUnits="userSpaceOnUse" />
    <linearGradient
       xlink:href="#linearGradient8648"
       id="linearGradient8642"
       gradientUnits="userSpaceOnUse"
       gradientTransform="matrix(0,7.2681999,7.2681999,0,87.953621,250.6982)"
       x1="0"
       y1="0"
       x2="1"
       y2="0" />
    <linearGradient
       xlink:href="#linearGradient9035"
       id="linearGradient9037"
       x1="73.438004"
       y1="241.4295"
       x2="78.535004"
       y2="241.4295"
       gradientUnits="userSpaceOnUse" />
    <linearGradient
       xlink:href="#linearGradient8609"
       id="linearGradient9287"
       gradientUnits="userSpaceOnUse"
       x1="80.303001"
       y1="270.04849"
       x2="87.074997"
       y2="270.04849" />
  </defs>

  <g id="gr_nose" transform="matrix(0.35277777,0,0,-0.35277777,-22.087927,99.255437)">
    <path
       opacity="0.399994"
       d="m 63.263,250.698 c 0,0 0.997,-1.865 4.027,-2.3 l 0.739,0.007 c 0,0 -2.217,1.407 -0.887,1.702 1.33,0.296 2.587,-2.143 3.695,-2.881 1.108,-0.74 5.024,-1.109 5.024,-1.109 0,0 3.916,0.369 5.025,1.109 1.108,0.738 2.364,3.177 3.695,2.881 1.33,-0.295 -0.887,-1.702 -0.887,-1.702 l 0.739,-0.007 c 3.029,0.435 4.026,2.3 4.026,2.3 -8.33,4.902 -16.595,5.163 -25.196,0"
       style="fill:url(#linearGradient6652);fill-opacity:1;stroke:none"
       id="path6654" />
    <path
       d="M 0,0 C 0.408,-1.455 4.827,0.208 9.257,-0.781 13.688,-1.77 14.256,-2.517 14.691,-2.398 15.127,-2.28 11.733,5.444 6.946,5.326 2.16,5.207 -0.11,0.392 0,0"
       transform="translate(69.2886,255.7856)"
       style="fill:#ffd6bd;fill-opacity:1;fill-rule:nonzero;stroke:none"
       id="path6676" />
    <path
       d="M 0,0 C 0,0 2.934,0.926 3.211,1.518 3.489,2.11 3.523,2.295 3.523,2.295 3.523,2.295 1.495,2.667 0,0"
       transform="translate(81.7173,248)"
       opacity="0.800003"
       style="fill:#483737;fill-opacity:1;fill-rule:nonzero;stroke:none"
       id="path6692" />
    <path
       d="m 0,0 c 0,0 1.389,-1.006 3.184,-1.428 0,0 -1.494,2.44 -2.636,2.566 C -0.594,1.265 -0.781,0.636 0,0"
       transform="translate(67.0757,249.1567)"
       opacity="0.800003"
       style="fill:#483737;fill-opacity:1;fill-rule:nonzero;stroke:none"
       id="path6708" />
    <path
       d="m 63.263,250.698 c 0,0 -2.215,4.603 1.523,7.268 0,0 -2.838,-2.664 -1.523,-7.268"
       opacity="0.300003"
       style="fill:#ff8d21;fill-opacity:1;stroke:none"
       id="path6736" />
    <path
       d="m 88.459,250.698 c 0,0 1.455,5.088 -1.384,7.268 0,0 1.939,-2.387 1.384,-7.268"
       opacity="0.300003"
       style="fill:url(#linearGradient8642);fill-opacity:1;stroke:none"
       id="path6770" />
    <path
       d="m 81.328,247.968 c 0,0 1.632,1.969 2.671,4.93 l 0.797,-0.325 c 0,0 -1.275,-2.473 -3.468,-4.605"
       opacity="0.300003"
       style="fill:#d43400;fill-opacity:1;stroke:none"
       id="path6838" />
    <path
       d="m 87.075,258.743 c 0,0 -4.436835,4.0393 -7.861835,4.4183 L 80.303,281.354 Z"
       opacity="0.300003"
       style="fill:url(#linearGradient8611);fill-opacity:1;stroke:none"
       id="path6922" />
    <path
       d="m 87.075,258.743 c 0,0 -4.436835,4.0393 -7.861835,4.4183 L 80.303,281.354 Z"
       transform="matrix(-1.2006215,0,0,1,169.21651,0)"
       opacity="0.300003"
       style="fill:url(#linearGradient9287);fill-opacity:1;stroke:none"
       id="path9273" />
    <path
       d="m 81.328,247.968 c 0,0 1.632,1.969 2.671,4.93 l 0.797,-0.325 c 0,0 -1.275,-2.473 -3.468,-4.605"
       transform="matrix(-1,0,0,1,151.73345,0)"
       opacity="0.300003"
       style="fill:#d43400;fill-opacity:1;stroke:none"
       id="path9778" />
  </g>
</svg>
