<svg viewBox="0 0 11.97 3.601" xmlns="http://www.w3.org/2000/svg" xmlns:xlink="http://www.w3.org/1999/xlink">
  <defs>
    <linearGradient id="linearGradient29779" x2="1" gradientTransform="matrix(0,-13.55,13.55,0,6.933,98.53)" gradientUnits="userSpaceOnUse" xlink:href="#linearGradient17228"/>
    <linearGradient id="linearGradient17228" x2="1" gradientTransform="matrix(0,-13.55,13.55,0,8.427,97.29)" gradientUnits="userSpaceOnUse">
      <stop stop-color="#ff8a86" offset="0"/>
      <stop stop-color="#ff8a86" offset=".03352"/>
      <stop stop-color="#ffa670" offset=".3253"/>
      <stop stop-color="#ffa670" offset=".9532"/>
      <stop stop-color="#ffa670" offset="1"/>
    </linearGradient>
    <linearGradient id="linearGradient29781" x2="1" gradientTransform="matrix(4.471,0,0,4.471,5.054,89.85)" gradientUnits="userSpaceOnUse" xlink:href="#linearGradient17258"/>
    <linearGradient id="linearGradient17258" x2="1" gradientTransform="matrix(4.471,0,0,4.471,6.549,88.61)" gradientUnits="userSpaceOnUse">
      <stop stop-color="#ca00a4" offset="0"/>
      <stop stop-color="#ca00a4" offset=".005587"/>
      <stop stop-color="#fff" offset="1"/>
    </linearGradient>
    <linearGradient id="linearGradient29783" x2="1" gradientTransform="matrix(3.36,-5.821,5.821,3.36,4.393,97.92)" gradientUnits="userSpaceOnUse" xlink:href="#linearGradient17292"/>
    <linearGradient id="linearGradient17292" x2="1" gradientTransform="matrix(3.36,-5.821,5.821,3.36,5.887,96.68)" gradientUnits="userSpaceOnUse">
      <stop stop-color="#fff" offset="0"/>
      <stop stop-color="#ca00a4" offset=".9944"/>
      <stop stop-color="#ca00a4" offset="1"/>
    </linearGradient>
    <linearGradient id="linearGradient29785" x2="1" gradientTransform="matrix(2.261,0,0,2.261,11.59,91.39)" gradientUnits="userSpaceOnUse" xlink:href="#linearGradient17326"/>
    <linearGradient id="linearGradient17326" x2="1" gradientTransform="matrix(2.261,0,0,2.261,13.08,90.14)" gradientUnits="userSpaceOnUse">
      <stop stop-color="#ca00a4" offset="0"/>
      <stop stop-color="#ca00a4" offset=".005587"/>
      <stop stop-color="#fff" offset="1"/>
    </linearGradient>
    <linearGradient id="linearGradient29787" x2="1" gradientTransform="matrix(0,-1.372,1.372,0,1.985,90.96)" gradientUnits="userSpaceOnUse" xlink:href="#linearGradient17364"/>
    <linearGradient id="linearGradient17364" x2="1" gradientTransform="matrix(0,-1.372,1.372,0,3.479,89.72)" gradientUnits="userSpaceOnUse">
      <stop stop-color="#ca00a4" offset="0"/>
      <stop stop-color="#ca00a4" offset=".005587"/>
      <stop stop-color="#fff" offset="1"/>
    </linearGradient>
    <linearGradient id="linearGradient29789" x2="1" gradientTransform="matrix(0 -.4495 .4495 0 2.964 97)" gradientUnits="userSpaceOnUse" xlink:href="#linearGradient17398"/>
    <linearGradient id="linearGradient17398" x2="1" gradientTransform="matrix(0 -.4495 .4495 0 4.458 95.75)" gradientUnits="userSpaceOnUse">
      <stop stop-color="#ca00a4" offset="0"/>
      <stop stop-color="#ca00a4" offset=".005587"/>
      <stop stop-color="#fff" offset="1"/>
    </linearGradient>
    <linearGradient id="linearGradient29791" x2="1" gradientTransform="matrix(0 -.3127 .3127 0 10.13 98.11)" gradientUnits="userSpaceOnUse" xlink:href="#linearGradient17432"/>
    <linearGradient id="linearGradient17432" x2="1" gradientTransform="matrix(0 -.3127 .3127 0 11.63 96.86)" gradientUnits="userSpaceOnUse">
      <stop stop-color="#ca00a4" offset="0"/>
      <stop stop-color="#ca00a4" offset=".005587"/>
      <stop stop-color="#fff" offset="1"/>
    </linearGradient>
    <linearGradient id="linearGradient29793" x2="1" gradientTransform="matrix(0 -.3339 .3339 0 6.218 98.48)" gradientUnits="userSpaceOnUse" xlink:href="#linearGradient17466"/>
    <linearGradient id="linearGradient17466" x2="1" gradientTransform="matrix(0 -.3339 .3339 0 7.713 97.23)" gradientUnits="userSpaceOnUse">
      <stop stop-color="#ca00a4" offset="0"/>
      <stop stop-color="#ca00a4" offset=".005587"/>
      <stop stop-color="#fff" offset="1"/>
    </linearGradient>
    <linearGradient id="linearGradient29795" x2="1" gradientTransform="matrix(0 -.8184 .8184 0 4.446 98.4)" gradientUnits="userSpaceOnUse" xlink:href="#linearGradient17500"/>
    <linearGradient id="linearGradient17500" x2="1" gradientTransform="matrix(0 -.8184 .8184 0 5.94 97.15)" gradientUnits="userSpaceOnUse">
      <stop stop-color="#ca00a4" offset="0"/>
      <stop stop-color="#ca00a4" offset=".005587"/>
      <stop stop-color="#fff" offset="1"/>
    </linearGradient>
    <linearGradient id="linearGradient29751" x2="1" gradientTransform="matrix(0,-13.55,-13.55,0,38.37,98.47)" gradientUnits="userSpaceOnUse" xlink:href="#linearGradient17228"/>
    <linearGradient id="linearGradient29753" x2="1" gradientTransform="matrix(-4.471,0,0,4.471,40.25,89.79)" gradientUnits="userSpaceOnUse" xlink:href="#linearGradient17258"/>
    <linearGradient id="linearGradient29755" x2="1" gradientTransform="matrix(-3.36,-5.821,-5.821,3.36,40.91,97.86)" gradientUnits="userSpaceOnUse" xlink:href="#linearGradient17292"/>
    <linearGradient id="linearGradient29757" x2="1" gradientTransform="matrix(-2.261,0,0,2.261,33.72,91.32)" gradientUnits="userSpaceOnUse" xlink:href="#linearGradient17326"/>
    <linearGradient id="linearGradient29759" x2="1" gradientTransform="matrix(0,-1.372,-1.372,0,43.32,90.9)" gradientUnits="userSpaceOnUse" xlink:href="#linearGradient17364"/>
    <linearGradient id="linearGradient29761" x2="1" gradientTransform="matrix(0 -.4495 -.4495 0 42.34 96.93)" gradientUnits="userSpaceOnUse" xlink:href="#linearGradient17398"/>
    <linearGradient id="linearGradient29763" x2="1" gradientTransform="matrix(0 -.3127 -.3127 0 35.17 98.04)" gradientUnits="userSpaceOnUse" xlink:href="#linearGradient17432"/>
    <linearGradient id="linearGradient29765" x2="1" gradientTransform="matrix(0 -.3339 -.3339 0 39.09 98.41)" gradientUnits="userSpaceOnUse" xlink:href="#linearGradient17466"/>
    <linearGradient id="linearGradient29767" x2="1" gradientTransform="matrix(0 -.8184 -.8184 0 40.86 98.33)" gradientUnits="userSpaceOnUse" xlink:href="#linearGradient17500"/>
  </defs>
  <g transform="translate(-.01453 -.01643)">
    <g id="gr_palms" class="covered pointer-cursor" transform="matrix(.2646 0 0 .2646 .006804 -22.45)">
      <path d="m9.129 85.06c-1.101 0.2258-2.818 0-3.598 0.2998-0.7758 0.3069-2.124 2.039-3.249 2.844-1.129 0.8004-2.237 1.386-2.237 1.386s-0.1796 1.344 1.087 1.369c0 0 1.694 0.1305 2.818-1.323l1.563-0.5006-1.348 2.395s-1.562 2.374-2.014 5.04c0 0 0.3884 0.6204 1.623 0.3881l-0.06384 0.6527s1.626 1.464 3.545 0.6839l2.144-4.13h0.3281s-0.2929 2.307-0.3601 3.739c0 0 0.7482 0.4551 1.563-0.03209l0.6496-3.545s0.0032-0.0067 0.01376-0.02082c0.1376-0.2085 1.256-1.941 2.262-4.532-0.0074-0.0494-0.08149-0.5924-0.2966-1.298v-0.0035c-0.4371-1.422-1.448-3.498-3.635-3.498-0.2498 0-0.5154 0.0268-0.7967 0.08501" fill="url(#linearGradient17228)" style="fill:url(#linearGradient29779);stroke-width:.2646"/>
      <path d="m5.504 89.14s1.322 1.128 4.011 0.7379c0 0-2.307 1.508-4.471 0.08221z" fill="url(#linearGradient17258)" opacity=".4" style="fill-rule:evenodd;fill:url(#linearGradient29781);stroke-width:.2646"/>
      <path d="m4.393 91.12 0.9469 1.245s-1.108 2.696-1.562 4.585c0 0 1.086-3.228 1.975-4.4l1.149 0.672s-1.282 3.545-1.693 5.167c0 0 1.385-4.104 2.081-4.818l2.115 0.5871h0.3262l0.9864-0.3485s-2.783 0.4805-6.324-2.686" fill="url(#linearGradient17292)" opacity=".4" style="fill-rule:evenodd;fill:url(#linearGradient29783);stroke-width:.2646"/>
      <path d="m13.86 89.77c-1.006 2.593-2.124 4.326-2.262 4.532 0.1273-0.2505 1.654-3.387 1.965-5.831 0.2148 0.7056 0.2889 1.249 0.2963 1.298" fill="url(#linearGradient17326)" opacity=".4" style="fill-rule:evenodd;fill:url(#linearGradient29785);stroke-width:.2646"/>
      <path d="m0.05352 89.59 1.128 0.4337s1.008-0.3977 0.5903-1.467z" fill="#ffc3a4" style="fill-rule:evenodd;fill:#ff4941;opacity:.8;stroke-width:.2646"/>
      <path d="m3.943 89.64c-1.126 1.453-2.818 1.323-2.818 1.323-1.267-0.02506-1.087-1.369-1.087-1.369l1.711 1.128s1.214-0.01024 2.195-1.083" fill="url(#linearGradient17364)" opacity=".4" style="fill-rule:evenodd;fill:url(#linearGradient29787);stroke-width:.2646"/>
      <path d="m2.144 96.57s0.9194-0.1196 1.623 0.3892c0 0-1.194 0.2494-1.623-0.3892" fill="url(#linearGradient17398)" opacity=".4" style="fill-rule:evenodd;fill:url(#linearGradient29789);stroke-width:.2646"/>
      <path d="m9.367 97.9s1.081-0.2297 1.563-0.03175c0 0-0.784 0.5003-1.563 0.03175" fill="url(#linearGradient17432)" opacity=".4" style="fill-rule:evenodd;fill:url(#linearGradient29791);stroke-width:.2646"/>
      <path d="m5.213 98.4s1.084-0.4622 2.051-0.1027c0 0-1.158 0.3633-2.051 0.1027" fill="url(#linearGradient17466)" opacity=".4" style="fill-rule:evenodd;fill:url(#linearGradient29793);stroke-width:.2646"/>
      <path d="m3.705 97.6s0.6509-0.2723 1.495 0.7871c0 0-0.7342-0.164-1.495-0.7871" fill="url(#linearGradient17500)" opacity=".4" style="fill-rule:evenodd;fill:url(#linearGradient29795);stroke-width:.2646"/>
      <path d="m36.18 85c1.101 0.2258 2.818 0 3.598 0.2998 0.7758 0.3069 2.124 2.039 3.249 2.844 1.129 0.8004 2.237 1.386 2.237 1.386s0.1796 1.344-1.087 1.369c0 0-1.694 0.1305-2.818-1.323l-1.563-0.5006 1.348 2.395s1.562 2.374 2.014 5.04c0 0-0.3884 0.6204-1.623 0.3881l0.06384 0.6527s-1.626 1.464-3.545 0.6839l-2.144-4.13h-0.3281s0.2929 2.307 0.3601 3.739c0 0-0.7482 0.4551-1.563-0.03209l-0.6496-3.545s-0.0032-0.0067-0.01376-0.02082c-0.1376-0.2085-1.256-1.941-2.262-4.532 0.0074-0.0494 0.08149-0.5924 0.2966-1.298v-0.0035c0.4371-1.422 1.448-3.498 3.635-3.498 0.2498 0 0.5154 0.0268 0.7967 0.08501" fill="url(#linearGradient17228)" style="fill:url(#linearGradient29751);stroke-width:.2646"/>
      <path d="m39.8 89.07s-1.322 1.128-4.011 0.7379c0 0 2.307 1.508 4.471 0.08221z" fill="url(#linearGradient17258)" opacity=".4" style="fill-rule:evenodd;fill:url(#linearGradient29753);stroke-width:.2646"/>
      <path d="m40.91 91.06-0.9469 1.245s1.108 2.696 1.562 4.585c0 0-1.086-3.228-1.975-4.4l-1.149 0.672s1.282 3.545 1.693 5.167c0 0-1.385-4.104-2.081-4.818l-2.115 0.5871h-0.3262l-0.9864-0.3485s2.783 0.4805 6.324-2.686" fill="url(#linearGradient17292)" opacity=".4" style="fill-rule:evenodd;fill:url(#linearGradient29755);stroke-width:.2646"/>
      <path d="m31.44 89.71c1.006 2.593 2.124 4.326 2.262 4.532-0.1273-0.2505-1.654-3.387-1.965-5.831-0.2148 0.7056-0.2889 1.249-0.2963 1.298" fill="url(#linearGradient17326)" opacity=".4" style="fill-rule:evenodd;fill:url(#linearGradient29757);stroke-width:.2646"/>
      <path d="m45.25 89.52-1.128 0.4337s-1.008-0.3977-0.5903-1.467z" fill="#ffc3a4" style="fill-rule:evenodd;fill:#ff4941;opacity:.8;stroke-width:.2646"/>
      <path d="m41.36 89.58c1.126 1.453 2.818 1.323 2.818 1.323 1.267-0.02506 1.087-1.369 1.087-1.369l-1.711 1.128s-1.214-0.01024-2.195-1.083" fill="url(#linearGradient17364)" opacity=".4" style="fill-rule:evenodd;fill:url(#linearGradient29759);stroke-width:.2646"/>
      <path d="m43.16 96.51s-0.9194-0.1196-1.623 0.3892c0 0 1.194 0.2494 1.623-0.3892" fill="url(#linearGradient17398)" opacity=".4" style="fill-rule:evenodd;fill:url(#linearGradient29761);stroke-width:.2646"/>
      <path d="m35.94 97.83s-1.081-0.2297-1.563-0.03175c0 0 0.784 0.5003 1.563 0.03175" fill="url(#linearGradient17432)" opacity=".4" style="fill-rule:evenodd;fill:url(#linearGradient29763);stroke-width:.2646"/>
      <path d="m40.09 98.33s-1.084-0.4622-2.051-0.1027c0 0 1.158 0.3633 2.051 0.1027" fill="url(#linearGradient17466)" opacity=".4" style="fill-rule:evenodd;fill:url(#linearGradient29765);stroke-width:.2646"/>
      <path d="m41.6 97.54s-0.6509-0.2723-1.495 0.7871c0 0 0.7342-0.164 1.495-0.7871" fill="url(#linearGradient17500)" opacity=".4" style="fill-rule:evenodd;fill:url(#linearGradient29767);stroke-width:.2646"/>
    </g>
  </g>
</svg>
